<svg width="16" height="16" viewBox="0 0 16 16" fill="none" xmlns="http://www.w3.org/2000/svg">
<path fill-rule="evenodd" clip-rule="evenodd" d="M10.9186 1.56335C11.365 1.19889 11.9237 0.999883 12.5 1C12.973 1.0001 13.4363 1.13438 13.836 1.38727C14.2358 1.64015 14.5556 2.00125 14.7583 2.42863C14.961 2.85601 15.0383 3.33212 14.9812 3.80168C14.9241 4.27124 14.735 4.71497 14.4358 5.08134C14.1366 5.4477 13.7396 5.72167 13.2909 5.87141C12.8423 6.02116 12.3603 6.04054 11.901 5.92731C11.4418 5.81408 11.0241 5.57288 10.6964 5.23172C10.3688 4.89057 10.1446 4.46346 10.05 4H10C9.60218 4 9.22065 4.15804 8.93935 4.43934C8.65804 4.72064 8.50001 5.10218 8.50001 5.5H7.50001C7.50001 4.83696 7.7634 4.20107 8.23224 3.73223C8.70108 3.26339 9.33697 3 10 3H10.05C10.1653 2.43532 10.4721 1.9278 10.9186 1.56335ZM11.6667 4.7472C11.9133 4.91203 12.2033 5 12.5 5C12.8978 5 13.2794 4.84196 13.5607 4.56066C13.842 4.27936 14 3.89782 14 3.5C14 3.20333 13.912 2.91332 13.7472 2.66664C13.5824 2.41997 13.3481 2.22771 13.074 2.11418C12.7999 2.00065 12.4983 1.97094 12.2074 2.02882C11.9164 2.0867 11.6491 2.22956 11.4393 2.43934C11.2296 2.64912 11.0867 2.91639 11.0288 3.20736C10.971 3.49834 11.0007 3.79994 11.1142 4.07403C11.2277 4.34811 11.42 4.58238 11.6667 4.7472ZM8.50001 6.5H7.50001V9.5H8.50001V6.5ZM7.50001 10.5C7.50001 10.8978 7.34197 11.2794 7.06067 11.5607C6.77936 11.842 6.39783 12 6.00001 12H5.95001C5.8261 11.393 5.48121 10.8536 4.98221 10.4864C4.48321 10.1192 3.86565 9.9504 3.24925 10.0127C2.63285 10.0749 2.06152 10.3639 1.64604 10.8234C1.23056 11.283 1.00052 11.8805 1.00052 12.5C1.00052 13.1195 1.23056 13.717 1.64604 14.1766C2.06152 14.6362 2.63285 14.9251 3.24925 14.9873C3.86565 15.0496 4.48321 14.8808 4.98221 14.5136C5.48121 14.1464 5.8261 13.607 5.95001 13H6.00001C6.66305 13 7.29893 12.7366 7.76778 12.2678C8.23662 11.7989 8.50001 11.163 8.50001 10.5H7.50001ZM3.50001 14C3.20334 14 2.91333 13.912 2.66665 13.7472C2.41998 13.5824 2.22772 13.3481 2.11419 13.074C2.00066 12.7999 1.97095 12.4983 2.02883 12.2074C2.08671 11.9164 2.22957 11.6491 2.43935 11.4393C2.64913 11.2296 2.9164 11.0867 3.20737 11.0288C3.49834 10.9709 3.79994 11.0007 4.07403 11.1142C4.34812 11.2277 4.58239 11.42 4.74721 11.6667C4.91203 11.9133 5.00001 12.2033 5.00001 12.5C5.00001 12.8978 4.84197 13.2794 4.56067 13.5607C4.27936 13.842 3.89783 14 3.50001 14Z" fill="black"/>
</svg>
