<svg width="16" height="16" viewBox="0 0 16 16" fill="none" xmlns="http://www.w3.org/2000/svg">
<path d="M8.49999 5.50001C8.49999 5.10218 8.65803 4.72065 8.93933 4.43935C9.22064 4.15804 9.60217 4.00001 9.99999 4.00001H10.05C10.1739 4.60703 10.5188 5.14642 11.0178 5.5136C11.5168 5.88079 12.1344 6.04962 12.7508 5.98735C13.3672 5.92508 13.9385 5.63615 14.354 5.17658C14.7694 4.71701 14.9995 4.11954 14.9995 3.50001C14.9995 2.88047 14.7694 2.283 14.354 1.82343C13.9385 1.36386 13.3672 1.07493 12.7508 1.01267C12.1344 0.950396 11.5168 1.11922 11.0178 1.48641C10.5188 1.85359 10.1739 2.39298 10.05 3.00001H9.99999C9.33695 3.00001 8.70107 3.2634 8.23223 3.73224C7.76339 4.20108 7.49999 4.83696 7.49999 5.50001V6.00001H6.49999C6.10217 6.00001 5.72064 5.84197 5.43933 5.56067C5.15803 5.27936 4.99999 4.89783 4.99999 4.50001V3.50001C4.99999 2.83696 4.7366 2.20108 4.26776 1.73224C3.79892 1.2634 3.16303 1.00001 2.49999 1.00001H1.99999V2.00001H2.49999C2.89782 2.00001 3.27935 2.15804 3.56065 2.43935C3.84196 2.72065 3.99999 3.10218 3.99999 3.50001V4.50001C3.99999 5.16305 4.26339 5.79893 4.73223 6.26777C5.20107 6.73661 5.83695 7.00001 6.49999 7.00001H7.49999V10.5C7.49999 10.8978 7.34196 11.2794 7.06065 11.5607C6.77935 11.842 6.39782 12 5.99999 12H5.94999C5.82609 11.393 5.4812 10.8536 4.9822 10.4864C4.4832 10.1192 3.86563 9.9504 3.24923 10.0127C2.63283 10.0749 2.06151 10.3639 1.64603 10.8234C1.23054 11.283 1.0005 11.8805 1.0005 12.5C1.0005 13.1195 1.23054 13.717 1.64603 14.1766C2.06151 14.6362 2.63283 14.9251 3.24923 14.9873C3.86563 15.0496 4.4832 14.8808 4.9822 14.5136C5.4812 14.1464 5.82609 13.607 5.94999 13H5.99999C6.66303 13 7.29892 12.7366 7.76776 12.2678C8.2366 11.7989 8.49999 11.163 8.49999 10.5H9.74999C10.0815 10.5 10.3995 10.6317 10.6339 10.8661C10.8683 11.1005 11 11.4185 11 11.75C11.0013 12.3463 11.2388 12.9179 11.6605 13.3395C12.0821 13.7612 12.6537 13.9987 13.25 14H14V13H13.25C12.9185 13 12.6005 12.8683 12.3661 12.6339C12.1317 12.3995 12 12.0815 12 11.75C11.9987 11.1537 11.7612 10.5821 11.3395 10.1605C10.9179 9.7388 10.3463 9.50133 9.74999 9.50001H8.49999V5.50001ZM12.5 2.00001C12.7967 2.00001 13.0867 2.08798 13.3333 2.2528C13.58 2.41762 13.7723 2.65189 13.8858 2.92598C13.9993 3.20007 14.029 3.50167 13.9712 3.79264C13.9133 4.08361 13.7704 4.35089 13.5607 4.56067C13.3509 4.77044 13.0836 4.91331 12.7926 4.97118C12.5017 5.02906 12.2001 4.99936 11.926 4.88582C11.6519 4.77229 11.4176 4.58003 11.2528 4.33336C11.088 4.08669 11 3.79668 11 3.50001C11 3.10218 11.158 2.72065 11.4393 2.43935C11.7206 2.15804 12.1022 2.00001 12.5 2.00001ZM3.49999 14C3.20332 14 2.91331 13.912 2.66664 13.7472C2.41996 13.5824 2.22771 13.3481 2.11417 13.074C2.00064 12.7999 1.97094 12.4983 2.02882 12.2074C2.08669 11.9164 2.22955 11.6491 2.43933 11.4393C2.64911 11.2296 2.91639 11.0867 3.20736 11.0288C3.49833 10.971 3.79993 11.0007 4.07402 11.1142C4.34811 11.2277 4.58238 11.42 4.7472 11.6667C4.91202 11.9133 4.99999 12.2033 4.99999 12.5C4.99999 12.8978 4.84196 13.2794 4.56065 13.5607C4.27935 13.842 3.89782 14 3.49999 14Z" fill="black"/>
</svg>
