<svg width="16" height="16" viewBox="0 0 16 16" fill="none" xmlns="http://www.w3.org/2000/svg">
<path fill-rule="evenodd" clip-rule="evenodd" d="M7.5 7H5C4.73478 7 4.48043 6.89464 4.29289 6.70711C4.10536 6.51957 4 6.26522 4 6V2C3.9999 1.86804 4.02591 1.73737 4.07654 1.61552C4.12717 1.49366 4.20142 1.38303 4.295 1.29C4.50638 1.1437 4.74686 1.04477 5 1H7.5V2H5V6H7.5V7ZM3 3H2V7H3V3ZM2 1H3V2H2V1ZM13.725 9.55495L10.725 8.05495C10.6552 8.01978 10.5781 8.00146 10.5 8.00146C10.4219 8.00146 10.3448 8.01978 10.275 8.05495L7.275 9.55495C7.19254 9.5965 7.1232 9.66007 7.07466 9.73862C7.02612 9.81716 7.00028 9.90762 7 9.99995V13.5C7.00028 13.5923 7.02612 13.6827 7.07466 13.7613C7.1232 13.8398 7.19254 13.9034 7.275 13.945L10.275 15.445C10.3448 15.4801 10.4219 15.4984 10.5 15.4984C10.5781 15.4984 10.6552 15.4801 10.725 15.445L13.725 13.945C13.8075 13.9034 13.8768 13.8398 13.9253 13.7613C13.9739 13.6827 13.9997 13.5923 14 13.5V9.99995C13.9997 9.90762 13.9739 9.81716 13.9253 9.73862C13.8768 9.66007 13.8075 9.5965 13.725 9.55495ZM10.5 9.05495L12.38 9.99995L10.5 10.9399L8.62 9.99995L10.5 9.05495ZM8 10.805L10 11.805V14.185L8 13.185V10.805ZM11 14.185V11.81L13 10.81V13.1899L11 14.185ZM9.5 1H11.5C11.7652 1 12.0196 1.10536 12.2071 1.29289C12.3946 1.48043 12.5 1.73478 12.5 2V7H11.5V5H9.5V7H8.5V2C8.5 1.73478 8.60536 1.48043 8.79289 1.29289C8.98043 1.10536 9.23478 1 9.5 1ZM9.5 2V4H11.5V2H9.5Z" fill="black"/>
</svg>
