<svg width="16" height="16" viewBox="0 0 16 16" fill="none" xmlns="http://www.w3.org/2000/svg">
<path fill-rule="evenodd" clip-rule="evenodd" d="M5.5 1H1V5.5H2V2H5.5V1ZM1 10.5V15H5.5V14H2V10.5H1ZM15 1V5.5H14V2H10.5V1H15ZM10.5 15H15V10.5H14V14H10.5V15ZM8.245 2.56503L12.745 5.06503C12.8222 5.10845 12.8865 5.1716 12.9314 5.24804C12.9762 5.32447 12.9998 5.41144 13 5.50003V10.5C13.0009 10.5877 12.9787 10.674 12.9357 10.7503C12.8927 10.8266 12.8304 10.8904 12.755 10.935L8.255 13.435C8.17899 13.4789 8.09277 13.502 8.005 13.502C7.91723 13.502 7.83101 13.4789 7.755 13.435L3.255 10.935C3.17777 10.8916 3.11346 10.8285 3.06865 10.752C3.02385 10.6756 3.00015 10.5886 3 10.5V5.50003C2.99914 5.41242 3.02132 5.32611 3.06432 5.24977C3.10732 5.17342 3.16963 5.10972 3.245 5.06503L7.745 2.56503C7.82101 2.52115 7.90723 2.49805 7.995 2.49805C8.08277 2.49805 8.16899 2.52115 8.245 2.56503ZM11.47 5.50003L8 3.57003L4.53 5.50003L8 7.43003L11.47 5.50003ZM7.5 8.29503L4 6.35003V10.205L7.5 12.15V8.29503ZM8.5 8.29503V12.15L12 10.205V6.35003L8.5 8.29503Z" fill="black"/>
</svg>
