<svg width="16" height="16" viewBox="0 0 16 16" fill="none" xmlns="http://www.w3.org/2000/svg">
<path d="M14.988 7.8916L13.988 3.3916C13.9601 3.26572 13.8846 3.1555 13.7773 3.084L10.7773 1.084C10.6952 1.02926 10.5987 1.00003 10.5 1H5.49999C5.40128 1.00003 5.30478 1.02926 5.22264 1.084L2.22264 3.084C2.11534 3.1555 2.03985 3.26572 2.01194 3.3916L1.01194 7.8916C0.993426 7.97498 0.996541 8.06171 1.02099 8.14355L2.52099 13.1435C2.54475 13.2229 2.58785 13.295 2.6464 13.3536C2.70495 13.4121 2.77712 13.4552 2.85644 13.479L7.85644 14.979L7.85899 14.9792C7.95095 15.0069 8.04902 15.0069 8.14099 14.9792L8.14354 14.979L13.1435 13.479C13.2229 13.4552 13.295 13.4121 13.3536 13.3536C13.4121 13.295 13.4552 13.2229 13.479 13.1435L14.979 8.14355C15.0034 8.06171 15.0065 7.97498 14.988 7.8916ZM5.46304 8.3081L3.50839 4.3987L7.14914 5.72265L5.46304 8.3081ZM7.99999 6.24855L9.79444 9H6.20554L7.99999 6.24855ZM9.69089 10L7.99999 13.3819L6.30909 10H9.69089ZM8.85089 5.72265L12.4916 4.3987L10.5366 8.3081L8.85089 5.72265ZM9.09499 4.57L10.643 2.1965L12.4006 3.3681L9.09499 4.57ZM7.99999 4.4182L6.42294 2H9.57704L7.99999 4.4182ZM6.90499 4.5698L3.59959 3.3679L5.35719 2.1963L6.90499 4.5698ZM4.48304 8.5848L2.08204 7.68445L2.68259 4.9834L4.48304 8.5848ZM7.03499 13.6885L3.78394 12.7132L5.34814 10.3147L7.03499 13.6885ZM10.6517 10.3147L12.2159 12.7132L8.96499 13.6885L10.6517 10.3147ZM13.3174 4.9834L13.9177 7.68435L11.5167 8.5847L13.3174 4.9834ZM2.26869 8.82225L4.56589 9.6836L3.16954 11.825L2.26869 8.82225ZM12.8304 11.825L11.4341 9.68365L13.7313 8.8223L12.8304 11.825Z" fill="black"/>
</svg>
