<svg width="16" height="16" viewBox="0 0 16 16" fill="none" xmlns="http://www.w3.org/2000/svg">
<path fill-rule="evenodd" clip-rule="evenodd" d="M13 3H15V4H13V6H12V4H10V3H12V1H13V3ZM6.24501 4.05771L10.745 6.55771C10.8231 6.60206 10.8879 6.66646 10.9327 6.74424C10.9775 6.82203 11.0008 6.91038 11 7.00016V12.0002C10.9998 12.0884 10.9761 12.175 10.9313 12.2511C10.8864 12.3271 10.8221 12.3898 10.745 12.4327L6.24501 14.9327C6.17005 14.9748 6.08595 14.998 6.00001 15.0002C5.91561 14.9982 5.83307 14.975 5.76001 14.9327L1.26001 12.4327C1.18184 12.3899 1.11653 12.3271 1.07082 12.2506C1.0251 12.1741 1.00066 12.0868 1.00001 11.9977V7.00016C0.998232 6.91136 1.01996 6.82367 1.06298 6.74597C1.10601 6.66827 1.1688 6.60333 1.24501 6.55771L5.74501 4.05771C5.82102 4.01383 5.90724 3.99072 5.99501 3.99072C6.08278 3.99072 6.169 4.01383 6.24501 4.05771ZM2.00001 11.7027L5.50001 13.6477V9.78771L2.00001 7.84271V11.7027ZM2.53001 7.00016L6.00001 8.92271L9.47001 6.99771L6.00001 5.06771L2.53001 7.00016ZM6.50001 13.6477L10 11.7027V7.84271L6.50001 9.78771V13.6477Z" fill="black"/>
</svg>
