<svg width="16" height="16" viewBox="0 0 16 16" fill="none" xmlns="http://www.w3.org/2000/svg">
<path fill-rule="evenodd" clip-rule="evenodd" d="M2 13H14C14.2652 13 14.5196 12.8946 14.7071 12.7071C14.8946 12.5196 15 12.2652 15 12V4C15 3.73478 14.8946 3.48043 14.7071 3.29289C14.5196 3.10536 14.2652 3 14 3H2C1.73478 3 1.48043 3.10536 1.29289 3.29289C1.10536 3.48043 1 3.73478 1 4V12C1 12.2652 1.10536 12.5196 1.29289 12.7071C1.48043 12.8946 1.73478 13 2 13ZM2 12V4H14V12H2ZM6 5.51501V7.51501H5V5.51501H4V8.51502H6V10.515H7V5.51501H6ZM12.095 5.51501H11L9.5 7.71002V5.51501H8.5V10.515H9.5V9.15001L9.955 8.48501L11 10.515H12.095L10.6 7.70502L12.095 5.51501Z" fill="black"/>
</svg>
