<svg width="16" height="16" viewBox="0 0 16 16" fill="none" xmlns="http://www.w3.org/2000/svg">
<g clip-path="url(#clip0_3_14315)">
<path fill-rule="evenodd" clip-rule="evenodd" d="M6.77775 3.70507C7.06554 3.89736 7.40388 4 7.75 4C8.21413 4 8.65925 3.81563 8.98744 3.48744C9.31563 3.15925 9.5 2.71413 9.5 2.25C9.5 1.90388 9.39736 1.56554 9.20507 1.27775C9.01278 0.989967 8.73947 0.765665 8.4197 0.633212C8.09993 0.500758 7.74806 0.466102 7.40859 0.533627C7.06913 0.601151 6.75731 0.767822 6.51256 1.01256C6.26782 1.25731 6.10115 1.56913 6.03363 1.90859C5.9661 2.24806 6.00076 2.59993 6.13321 2.9197C6.26567 3.23947 6.48997 3.51278 6.77775 3.70507ZM7.33332 1.6264C7.45666 1.54399 7.60167 1.5 7.75 1.5C7.94891 1.5 8.13968 1.57902 8.28033 1.71967C8.42098 1.86032 8.5 2.05109 8.5 2.25C8.5 2.39834 8.45601 2.54334 8.3736 2.66668C8.29119 2.79002 8.17406 2.88614 8.03701 2.94291C7.89997 2.99968 7.74917 3.01453 7.60368 2.98559C7.4582 2.95665 7.32456 2.88522 7.21967 2.78033C7.11478 2.67544 7.04335 2.5418 7.01441 2.39632C6.98547 2.25083 7.00033 2.10003 7.05709 1.96299C7.11386 1.82594 7.20999 1.70881 7.33332 1.6264ZM13.25 13.815L14.775 13.055L15.225 13.945L12.75 15.185L11.17 11.5H7.5C6.96956 11.5 6.46086 11.2893 6.08578 10.9142C5.71071 10.5391 5.5 10.0304 5.5 9.5V8C4.85093 8.00017 4.21469 8.18082 3.66239 8.52177C3.11008 8.86271 2.66346 9.35053 2.37243 9.93069C2.08141 10.5109 1.95744 11.1605 2.01439 11.8071C2.07134 12.4537 2.30696 13.0716 2.69492 13.592C3.08288 14.1124 3.60789 14.5146 4.2113 14.7538C4.8147 14.9929 5.47272 15.0596 6.11182 14.9463C6.75093 14.833 7.34594 14.5442 7.83036 14.1122C8.31479 13.6802 8.66955 13.122 8.855 12.5H9.885C9.69673 13.326 9.27909 14.0822 8.68013 14.6813C8.08117 15.2805 7.32523 15.6985 6.49926 15.8871C5.6733 16.0757 4.81087 16.0273 4.01119 15.7475C3.21152 15.4676 2.50708 14.9677 1.97893 14.3053C1.45078 13.6428 1.12036 12.8447 1.02569 12.0028C0.931029 11.1609 1.07596 10.3094 1.44381 9.54616C1.81167 8.78296 2.3875 8.13911 3.10506 7.68868C3.82263 7.23825 4.65277 6.99953 5.5 7V6.5C5.5 5.96957 5.71071 5.46086 6.08578 5.08579C6.46086 4.71071 6.96956 4.5 7.5 4.5C8.03043 4.5 8.53914 4.71071 8.91421 5.08579C9.28928 5.46086 9.5 5.96957 9.5 6.5V7.5H12V8.5H8.5V6.5C8.5 6.23478 8.39464 5.98043 8.2071 5.79289C8.01957 5.60536 7.76521 5.5 7.5 5.5C7.23478 5.5 6.98043 5.60536 6.79289 5.79289C6.60535 5.98043 6.5 6.23478 6.5 6.5V9.5C6.5 9.76522 6.60535 10.0196 6.79289 10.2071C6.98043 10.3946 7.23478 10.5 7.5 10.5H11.83L13.25 13.815Z" fill="black"/>
</g>
<defs>
<clipPath id="clip0_3_14315">
<rect width="16" height="16" fill="white"/>
</clipPath>
</defs>
</svg>
