<svg width="16" height="16" viewBox="0 0 16 16" fill="none" xmlns="http://www.w3.org/2000/svg">
<path fill-rule="evenodd" clip-rule="evenodd" d="M8 1C6.61553 1 5.26216 1.41054 4.11101 2.17971C2.95987 2.94888 2.06266 4.04213 1.53285 5.32122C1.00303 6.6003 0.86441 8.00776 1.13451 9.36563C1.4046 10.7235 2.07129 11.9708 3.05026 12.9497C4.02922 13.9287 5.2765 14.5954 6.63437 14.8655C7.99224 15.1356 9.3997 14.997 10.6788 14.4672C11.9579 13.9373 13.0511 13.0401 13.8203 11.889C14.5895 10.7378 15 9.38447 15 8C15 6.14348 14.2625 4.36301 12.9497 3.05025C11.637 1.7375 9.85652 1 8 1ZM8 12C6.86401 11.9697 5.76748 11.5769 4.87061 10.8791C3.97374 10.1812 3.32354 9.21481 3.015 8.1211L2.9846 8L3.0149 7.8789C3.32345 6.78518 3.97366 5.81878 4.87055 5.12091C5.76744 4.42305 6.864 4.03028 8 4C9.13599 4.0303 10.2325 4.42308 11.1294 5.12094C12.0263 5.81881 12.6765 6.78519 12.985 7.8789L13.0154 8L12.9851 8.1211C12.6766 9.21482 12.0263 10.1812 11.1295 10.8791C10.2326 11.577 9.13601 11.9697 8 12ZM8 5C7.10673 5.02411 6.24318 5.32599 5.52944 5.86366C4.8157 6.40133 4.28726 7.14806 4.0176 8C4.28726 8.85194 4.8157 9.59867 5.52944 10.1363C6.24318 10.674 7.10673 10.9759 8 11C8.89328 10.9759 9.75683 10.674 10.4706 10.1363C11.1843 9.59867 11.7128 8.85194 11.9824 8C11.7128 7.14806 11.1843 6.40133 10.4706 5.86366C9.75683 5.32599 8.89328 5.02411 8 5ZM8 10C7.60444 10 7.21776 9.8827 6.88886 9.66294C6.55997 9.44318 6.30362 9.13082 6.15225 8.76537C6.00087 8.39991 5.96126 7.99778 6.03843 7.60982C6.1156 7.22186 6.30609 6.86549 6.58579 6.58579C6.8655 6.30608 7.22186 6.1156 7.60982 6.03843C7.99779 5.96126 8.39992 6.00087 8.76537 6.15224C9.13082 6.30362 9.44318 6.55996 9.66294 6.88886C9.88271 7.21776 10 7.60444 10 8C9.99941 8.53025 9.7885 9.03861 9.41356 9.41356C9.03862 9.7885 8.53025 9.9994 8 10ZM9 8C9 8.55228 8.55229 9 8 9C7.44772 9 7 8.55228 7 8C7 7.44772 7.44772 7 8 7C8.55229 7 9 7.44772 9 8Z" fill="black"/>
</svg>
