<svg width="16" height="16" viewBox="0 0 16 16" fill="none" xmlns="http://www.w3.org/2000/svg">
<path fill-rule="evenodd" clip-rule="evenodd" d="M4.11101 13.8203C5.26216 14.5895 6.61553 15 8 15C9.85588 14.9979 11.6351 14.2597 12.9474 12.9474C14.2597 11.6351 14.9979 9.85588 15 8C15 6.61553 14.5895 5.26216 13.8203 4.11101C13.0511 2.95987 11.9579 2.06266 10.6788 1.53285C9.3997 1.00303 7.99224 0.86441 6.63437 1.13451C5.2765 1.4046 4.02922 2.07129 3.05026 3.05026C2.07129 4.02922 1.4046 5.2765 1.13451 6.63437C0.86441 7.99224 1.00303 9.3997 1.53285 10.6788C2.06266 11.9579 2.95987 13.0511 4.11101 13.8203ZM4.66658 3.01119C5.65328 2.3519 6.81332 2 8 2C9.59075 2.00182 11.1158 2.63454 12.2406 3.75936C13.3655 4.88419 13.9982 6.40926 14 8C14 9.18669 13.6481 10.3467 12.9888 11.3334C12.3295 12.3201 11.3925 13.0892 10.2961 13.5433C9.19975 13.9974 7.99335 14.1162 6.82946 13.8847C5.66558 13.6532 4.59648 13.0818 3.75736 12.2426C2.91825 11.4035 2.3468 10.3344 2.11529 9.17054C1.88378 8.00666 2.0026 6.80026 2.45673 5.7039C2.91085 4.60755 3.67989 3.67047 4.66658 3.01119ZM8.00001 12C6.86404 11.9697 5.76753 11.5769 4.87067 10.8791C3.97381 10.1812 3.32359 9.21487 3.01501 8.1212L2.98461 8L3.01491 7.8788C3.3235 6.78511 3.97373 5.81876 4.87061 5.12091C5.76749 4.42307 6.86402 4.0303 8.00001 4C9.13598 4.03033 10.2325 4.4231 11.1293 5.12094C12.0262 5.81878 12.6764 6.78513 12.985 7.8788L13.0154 8L12.9851 8.1212C12.6765 9.21489 12.0263 10.1812 11.1294 10.8791C10.2325 11.5769 9.13599 11.9697 8.00001 12ZM4.01761 8C4.28726 8.85194 4.8157 9.59867 5.52944 10.1363C6.24318 10.674 7.10674 10.9759 8.00001 11C8.89328 10.9759 9.75683 10.674 10.4706 10.1363C11.1843 9.59867 11.7128 8.85194 11.9824 8C11.7128 7.14806 11.1843 6.40133 10.4706 5.86366C9.75683 5.32599 8.89328 5.02411 8.00001 5C7.10674 5.02411 6.24318 5.32599 5.52944 5.86366C4.8157 6.40133 4.28726 7.14806 4.01761 8ZM8 10C7.60444 10 7.21776 9.8827 6.88886 9.66294C6.55997 9.44318 6.30362 9.13082 6.15225 8.76537C6.00087 8.39992 5.96126 7.99778 6.03843 7.60982C6.1156 7.22186 6.30609 6.86549 6.58579 6.58579C6.8655 6.30608 7.22186 6.1156 7.60982 6.03843C7.99779 5.96126 8.39992 6.00087 8.76537 6.15224C9.13082 6.30362 9.44318 6.55996 9.66294 6.88886C9.88271 7.21776 10 7.60444 10 8C9.99941 8.53025 9.7885 9.03861 9.41356 9.41356C9.03862 9.7885 8.53026 9.99941 8 10ZM8 7C7.80222 7 7.60888 7.05865 7.44443 7.16853C7.27999 7.27841 7.15181 7.43459 7.07613 7.61732C7.00044 7.80004 6.98063 8.00111 7.01922 8.19509C7.0578 8.38907 7.15305 8.56726 7.2929 8.70711C7.43275 8.84696 7.61093 8.9422 7.80491 8.98079C7.9989 9.01937 8.19996 8.99957 8.38269 8.92388C8.56541 8.84819 8.72159 8.72002 8.83147 8.55557C8.94136 8.39112 9 8.19778 9 8C8.99973 7.73487 8.89428 7.48068 8.7068 7.2932C8.51933 7.10572 8.26514 7.00028 8 7Z" fill="black"/>
</svg>
