<svg width="16" height="16" viewBox="0 0 16 16" fill="none" xmlns="http://www.w3.org/2000/svg">
<path fill-rule="evenodd" clip-rule="evenodd" d="M10 5.99998C9.48464 6.01374 8.98482 5.82274 8.60997 5.46879C8.23512 5.11484 8.01579 4.62679 8 4.11148C8.00937 3.74358 8.12261 3.38582 8.32665 3.07953L9.585 1.20703C9.63336 1.14274 9.69601 1.09056 9.768 1.05463C9.83999 1.0187 9.91934 1 9.9998 1C10.0803 1 10.1596 1.0187 10.2316 1.05463C10.3036 1.09056 10.3662 1.14274 10.4146 1.20703L11.6577 3.05498C11.87 3.3674 11.9888 3.73392 12 4.11148C11.9842 4.62679 11.7649 5.11484 11.39 5.46879C11.0152 5.82274 10.5154 6.01374 10 5.99998ZM10 2.38158L9.1719 3.61283C9.06843 3.75937 9.00881 3.93232 9 4.11148C9.01584 4.36152 9.12982 4.59517 9.31711 4.76158C9.5044 4.92799 9.74984 5.01367 10 4.99998C10.2502 5.01367 10.4956 4.92799 10.6829 4.76158C10.8702 4.59517 10.9842 4.36152 11 4.11148C10.9888 3.92272 10.9237 3.74113 10.8125 3.58818L10 2.38158ZM9 8H8V9H9V10H8V11H9V10H10V11H11V10H10V9H11V8H10V9H9V8ZM13.2932 2.29323C13.4807 2.10576 13.7349 2.0003 14 2H15V3H14V13C13.9997 13.2651 13.8942 13.5193 13.7068 13.7068C13.5193 13.8942 13.2651 13.9997 13 14H3C2.73488 13.9997 2.4807 13.8942 2.29323 13.7068C2.10576 13.5193 2.0003 13.2651 2 13V3H1V2H2C2.26512 2.0003 2.5193 2.10576 2.70677 2.29323C2.89424 2.4807 2.9997 2.73488 3 3V4H7V7L6.5 8L6 7V5H5V9L4.5 10L4 9V5H3V13H13V3C13.0003 2.73488 13.1058 2.4807 13.2932 2.29323Z" fill="black"/>
</svg>
