<svg width="16" height="16" viewBox="0 0 16 16" fill="none" xmlns="http://www.w3.org/2000/svg">
<path fill-rule="evenodd" clip-rule="evenodd" d="M13.2932 2.29323C13.4807 2.10576 13.7349 2.0003 14 2H15V3H14V13C13.9997 13.2651 13.8942 13.5193 13.7068 13.7068C13.5193 13.8942 13.2651 13.9997 13 14H3C2.73488 13.9997 2.4807 13.8942 2.29323 13.7068C2.10576 13.5193 2.0003 13.2651 2 13V3H1V2H2C2.26512 2.0003 2.5193 2.10576 2.70677 2.29323C2.89424 2.4807 2.9997 2.73488 3 3V4H8V7L7.5 8L7 7V5H3V7H5V8H3V10H5V11H3V13H13V3C13.0003 2.73488 13.1058 2.4807 13.2932 2.29323ZM9 4V9L9.5 10L10 9V4H9ZM11 4V8L11.5 9L12 8V4H11Z" fill="black"/>
</svg>
