<svg width="16" height="16" viewBox="0 0 16 16" fill="none" xmlns="http://www.w3.org/2000/svg">
<path fill-rule="evenodd" clip-rule="evenodd" d="M6 1H7V2H6V1ZM8 2H7V3H6V4H7V3H8V4H9V3H8V2ZM8 2V1H9V2H8ZM7 9H8V10H7V9ZM9 10H8V11H7V12H8V11H9V12H10V11H9V10ZM9 10V9H10V10H9ZM10 5H9V6H10V7H9V8H10V7H11V8H12V7H11V6H12V5H11V6H10V5ZM13.2932 2.29323C13.4807 2.10576 13.7349 2.0003 14 2H15V3H14V13C13.9997 13.2651 13.8942 13.5193 13.7068 13.7068C13.5193 13.8942 13.2651 13.9997 13 14H3C2.73488 13.9997 2.4807 13.8942 2.29323 13.7068C2.10576 13.5193 2.0003 13.2651 2 13V3H1V2H2C2.26512 2.0003 2.5193 2.10576 2.70677 2.29323C2.89424 2.4807 2.9997 2.73488 3 3V4H5V5H3V7H5V8H3V10H5V11H3V13H13V3C13.0003 2.73488 13.1058 2.4807 13.2932 2.29323Z" fill="black"/>
</svg>
