<svg width="16" height="16" viewBox="0 0 16 16" fill="none" xmlns="http://www.w3.org/2000/svg">
<path fill-rule="evenodd" clip-rule="evenodd" d="M8 14.5L8.87 15L10.58 12H13C13.5304 12 14.0391 11.7893 14.4142 11.4142C14.7893 11.0391 15 10.5304 15 10V4C15 3.46957 14.7893 2.96086 14.4142 2.58579C14.0391 2.21071 13.5304 2 13 2H3C2.46957 2 1.96086 2.21071 1.58579 2.58579C1.21071 2.96086 1 3.46957 1 4V10C1 10.5304 1.21071 11.0391 1.58579 11.4142C1.96086 11.7893 2.46957 12 3 12H7.5V11H3C2.73478 11 2.48043 10.8946 2.29289 10.7071C2.10536 10.5196 2 10.2652 2 10V4C2 3.73478 2.10536 3.48043 2.29289 3.29289C2.48043 3.10536 2.73478 3 3 3H13C13.2652 3 13.5196 3.10536 13.7071 3.29289C13.8946 3.48043 14 3.73478 14 4V10C14 10.2652 13.8946 10.5196 13.7071 10.7071C13.5196 10.8946 13.2652 11 13 11H10L8 14.5ZM7.5 4.5H8.5V6.5H10.5V7.5H8.5V9.5H7.5V7.5H5.5V6.5H7.5V4.5Z" fill="black"/>
</svg>
