<svg width="16" height="16" viewBox="0 0 16 16" fill="none" xmlns="http://www.w3.org/2000/svg">
<path fill-rule="evenodd" clip-rule="evenodd" d="M5.5 5.5V8H8V9H1V8H4.5V5.5H4C3.20462 5.49913 2.44206 5.18278 1.87964 4.62036C1.31722 4.05794 1.00087 3.29538 1 2.5V1H2.5C3.03669 1.00045 3.56345 1.14478 4.02541 1.41797C4.48737 1.69116 4.86764 2.08322 5.1266 2.5533C5.49614 2.199 5.98806 2.00082 6.5 2H8V3.5C7.99939 4.03025 7.78848 4.5386 7.41354 4.91354C7.0386 5.28848 6.53025 5.49939 6 5.5H5.5ZM7 3H6.5C6.23486 3.00025 5.98065 3.10569 5.79317 3.29317C5.60569 3.48065 5.50025 3.73486 5.5 4V4.5H6C6.26514 4.49974 6.51934 4.39429 6.70681 4.20681C6.89429 4.01934 6.99974 3.76514 7 3.5V3ZM2.58646 3.91354C2.9614 4.28848 3.46975 4.49939 4 4.5H4.5V4C4.4994 3.46975 4.2885 2.96139 3.91356 2.58644C3.53861 2.2115 3.03025 2.0006 2.5 2H2V2.5C2.00061 3.03025 2.21152 3.5386 2.58646 3.91354ZM13.2226 11.416L12.1255 10.6846L10.4717 13H15V14H10C9.73488 13.9997 9.4807 13.8942 9.29323 13.7068C9.10576 13.5193 9.0003 13.2651 9 13V8H10V11.9395L11.593 9.70945C11.6685 9.60377 11.7821 9.53159 11.9098 9.50817C12.0375 9.48476 12.1693 9.51195 12.2774 9.584L13.3837 10.3218L14.6 8.7L15.4 9.3L13.9 11.3C13.8233 11.4022 13.7104 11.4712 13.5844 11.4928C13.4584 11.5144 13.329 11.4869 13.2226 11.416ZM1 11.5V10.5H8V11.5H1ZM8 14V13H1V14H8Z" fill="black"/>
</svg>
