<svg width="16" height="16" viewBox="0 0 16 16" fill="none" xmlns="http://www.w3.org/2000/svg">
<path fill-rule="evenodd" clip-rule="evenodd" d="M4.32032 7.71083C4.56572 8.24623 4.93898 8.71309 5.40725 9.0703L5.40757 9.07059C5.94482 9.5671 6.5 10.0802 6.5 11H5.5C5.5 10.5407 5.23585 10.2754 4.73 9.8081C4.16057 9.3558 3.70677 8.77466 3.40599 8.11258C3.10521 7.45049 2.96605 6.72641 3 6C3.00147 4.67437 3.52872 3.40345 4.46609 2.46609C5.40345 1.52872 6.67437 1.00147 8 1V2C6.93951 2.00122 5.9228 2.42304 5.17292 3.17292C4.42303 3.9228 4.00122 4.93951 4 6C3.96492 6.58791 4.07493 7.17543 4.32032 7.71083ZM10.5 12H5.5V13H10.5V12ZM9.5 14H6.5V15H9.5V14ZM14 7H10C9.73487 6.99972 9.48068 6.89428 9.2932 6.7068C9.10572 6.51932 9.00028 6.26513 9 6V2C9.00028 1.73487 9.10572 1.48068 9.2932 1.2932C9.48068 1.10572 9.73487 1.00028 10 1H14C14.2651 1.00028 14.5193 1.10572 14.7068 1.2932C14.8943 1.48068 14.9997 1.73487 15 2V6C14.9997 6.26513 14.8943 6.51932 14.7068 6.7068C14.5193 6.89428 14.2651 6.99972 14 7ZM10 2V6H14V2H10ZM10.5889 9.0713C10.9512 8.76293 11.2651 8.40179 11.52 8H12.6378C12.3258 8.69953 11.8569 9.31787 11.2676 9.80715C10.7632 10.275 10.5 10.5403 10.5 11H9.5C9.5 10.0806 10.0535 9.5674 10.5889 9.0713Z" fill="black"/>
</svg>
