<svg width="16" height="16" viewBox="0 0 16 16" fill="none" xmlns="http://www.w3.org/2000/svg">
<path fill-rule="evenodd" clip-rule="evenodd" d="M8 2.00015C8.64282 2.00007 9.27601 2.15633 9.845 2.45545L10.2929 1.55995C9.53112 1.16526 8.68052 0.97343 7.82307 1.00296C6.96562 1.03249 6.13023 1.28238 5.39742 1.72855C4.6646 2.17472 4.05905 2.80212 3.63914 3.5503C3.21923 4.29847 2.99911 5.14219 3 6.00015C2.96605 6.72656 3.10521 7.45064 3.40599 8.11273C3.70677 8.77481 4.16057 9.35595 4.73 9.80825C5.23585 10.2756 5.5 10.5409 5.5 11.0002H6.5C6.5 10.0803 5.94482 9.56725 5.40757 9.07075L5.40725 9.07045C4.93898 8.71324 4.56572 8.24638 4.32032 7.71098C4.07493 7.17558 3.96492 6.58806 4 6.00015C4.00122 4.93966 4.42303 3.92295 5.17292 3.17307C5.9228 2.42319 6.93951 2.00137 8 2.00015ZM10.5888 9.0713C10.9521 8.76257 11.2674 8.40152 11.5244 8H12.6407C12.3278 8.69978 11.8579 9.31813 11.2676 9.80715C10.7632 10.275 10.5 10.5403 10.5 11H9.5C9.5 10.0806 10.0534 9.5674 10.5888 9.0713ZM10.5 12H5.5V13H10.5V12ZM9.5 14H6.5V15H9.5V14ZM9.25648 6.93674C9.33094 6.97825 9.41476 7.00003 9.5 7.00002H14.5C14.5852 7.00001 14.669 6.97822 14.7435 6.93671C14.8179 6.8952 14.8805 6.83535 14.9253 6.76284C14.9701 6.69034 14.9956 6.60759 14.9995 6.52244C15.0033 6.4373 14.9853 6.35259 14.9471 6.27637L12.4471 1.27637C12.4056 1.19332 12.3418 1.12348 12.2628 1.07467C12.1838 1.02585 12.0928 1 11.9999 1C11.9071 1 11.8161 1.02585 11.7371 1.07467C11.6581 1.12348 11.5943 1.19332 11.5527 1.27637L9.05275 6.27637C9.01462 6.3526 8.99662 6.43732 9.00044 6.52247C9.00427 6.60762 9.0298 6.69038 9.07462 6.76289C9.11943 6.83539 9.18203 6.89524 9.25648 6.93674ZM12 2.61807L13.6909 6.00002H10.3091L12 2.61807Z" fill="black"/>
</svg>
