<svg width="16" height="16" viewBox="0 0 16 16" fill="none" xmlns="http://www.w3.org/2000/svg">
<path fill-rule="evenodd" clip-rule="evenodd" d="M4.32032 7.71083C4.56572 8.24623 4.93898 8.71309 5.40725 9.0703L5.40757 9.07059C5.94482 9.5671 6.5 10.0802 6.5 11H5.5C5.5 10.5407 5.23585 10.2754 4.73 9.8081C4.16057 9.3558 3.70677 8.77466 3.40599 8.11258C3.10521 7.45049 2.96605 6.72641 3 6C3.00147 4.67437 3.52872 3.40345 4.46609 2.46609C5.40345 1.52872 6.67437 1.00147 8 1V2C6.93951 2.00122 5.9228 2.42304 5.17292 3.17292C4.42303 3.9228 4.00122 4.93951 4 6C3.96492 6.58791 4.07493 7.17543 4.32032 7.71083ZM10.5 12H5.5V13H10.5V12ZM9.5 14H6.5V15H9.5V14ZM12 7C11.4067 7 10.8266 6.82405 10.3333 6.49441C9.83994 6.16477 9.45543 5.69623 9.22836 5.14805C9.0013 4.59987 8.94189 3.99667 9.05765 3.41473C9.1734 2.83279 9.45912 2.29824 9.87868 1.87868C10.2982 1.45912 10.8328 1.1734 11.4147 1.05765C11.9967 0.94189 12.5999 1.0013 13.1481 1.22836C13.6962 1.45543 14.1648 1.83994 14.4944 2.33329C14.8241 2.82664 15 3.40666 15 4C14.9991 4.79538 14.6828 5.55793 14.1203 6.12034C13.5579 6.68276 12.7954 6.99911 12 7ZM12 2C11.6044 2 11.2178 2.1173 10.8889 2.33706C10.56 2.55682 10.3036 2.86918 10.1522 3.23463C10.0009 3.60009 9.96126 4.00222 10.0384 4.39018C10.1156 4.77814 10.3061 5.13451 10.5858 5.41422C10.8655 5.69392 11.2219 5.8844 11.6098 5.96157C11.9978 6.03874 12.3999 5.99914 12.7654 5.84776C13.1308 5.69639 13.4432 5.44004 13.6629 5.11114C13.8827 4.78224 14 4.39556 14 4C13.9994 3.46975 13.7885 2.96139 13.4136 2.58645C13.0386 2.2115 12.5303 2.0006 12 2ZM10.5889 9.0713C10.9512 8.76293 11.2651 8.40179 11.52 8H12.6378C12.3258 8.69953 11.8569 9.31787 11.2676 9.80715C10.7632 10.275 10.5 10.5403 10.5 11H9.5C9.5 10.0806 10.0535 9.5674 10.5889 9.0713Z" fill="black"/>
</svg>
