<svg width="16" height="16" viewBox="0 0 16 16" fill="none" xmlns="http://www.w3.org/2000/svg">
<path fill-rule="evenodd" clip-rule="evenodd" d="M8 4.0001C7.99916 4.55077 8.15013 5.09101 8.43632 5.56147C8.72252 6.03193 9.13286 6.41438 9.62226 6.66682C10.1117 6.91926 10.6612 7.0319 11.2104 6.99237C11.7597 6.95284 12.2874 6.76267 12.7356 6.44275L14.293 8.0001L15 7.2931L13.4425 5.7357C13.7159 5.35103 13.8947 4.90725 13.9643 4.44045C14.0338 3.97366 13.9922 3.49704 13.8428 3.04936C13.6934 2.60168 13.4405 2.19559 13.1045 1.86411C12.7686 1.53263 12.3592 1.28513 11.9095 1.14174C11.4599 0.998355 10.9827 0.963128 10.5169 1.03893C10.0511 1.11472 9.60975 1.29941 9.22877 1.57795C8.84779 1.8565 8.53794 2.22104 8.32442 2.64193C8.11091 3.06281 7.99975 3.52815 8 4.0001ZM9 4.0001C9 3.60454 9.1173 3.21786 9.33706 2.88896C9.55683 2.56006 9.86918 2.30372 10.2346 2.15234C10.6001 2.00097 11.0022 1.96136 11.3902 2.03853C11.7781 2.1157 12.1345 2.30618 12.4142 2.58589C12.6939 2.86559 12.8844 3.22196 12.9616 3.60992C13.0387 3.99788 12.9991 4.40001 12.8478 4.76547C12.6964 5.13092 12.44 5.44328 12.1111 5.66304C11.7822 5.8828 11.3956 6.0001 11 6.0001C10.4698 5.9995 9.96139 5.7886 9.58645 5.41366C9.2115 5.03871 9.0006 4.53035 9 4.0001ZM10.5 12H5.5V13H10.5V12ZM6.5 14H9.5V15H6.5V14ZM5.40725 9.0702C4.93898 8.71299 4.56572 8.24613 4.32032 7.71074C4.07493 7.17534 3.96492 6.58782 4 5.9999C4.00143 5.11398 4.29673 4.25357 4.83962 3.55348C5.38251 2.85339 6.14233 2.35319 7 2.13125L6.8069 1.1499C5.72198 1.41728 4.75775 2.04005 4.06784 2.91901C3.37792 3.79796 3.00201 4.88252 3 5.9999C2.96605 6.72631 3.10521 7.45039 3.40599 8.11248C3.70677 8.77456 4.16057 9.3557 4.73 9.808C5.23585 10.2753 5.5 10.5407 5.5 10.9999H6.5C6.5 10.0801 5.94482 9.567 5.40757 9.07049L5.40725 9.0702ZM10.5889 9.0713C10.9523 8.76266 11.2677 8.4016 11.5246 8L12.4519 8.3906C12.14 8.92633 11.7396 9.4053 11.2676 9.80715C10.7632 10.275 10.5 10.5403 10.5 11H9.5C9.5 10.0806 10.0535 9.5674 10.5889 9.0713Z" fill="black"/>
</svg>
