<svg width="16" height="16" viewBox="0 0 16 16" fill="none" xmlns="http://www.w3.org/2000/svg">
<path fill-rule="evenodd" clip-rule="evenodd" d="M10 2.54127C9.39299 2.187 8.70282 2.00022 8 2.00002C6.93951 2.00123 5.9228 2.42305 5.17292 3.17293C4.42303 3.92281 4.00122 4.93952 4 6.00002C3.96492 6.58793 4.07493 7.17545 4.32032 7.71085C4.56572 8.24625 4.93898 8.71311 5.40725 9.07032L5.40757 9.07061C5.94482 9.56712 6.5 10.0802 6.5 11H5.5C5.5 10.5408 5.23585 10.2754 4.73 9.80812C4.16057 9.35581 3.70677 8.77468 3.40599 8.11259C3.10521 7.45051 2.96605 6.72643 3 6.00002C2.99906 5.16953 3.20523 4.35191 3.59985 3.62117C3.99448 2.89043 4.5651 2.26963 5.26007 1.81496C5.95504 1.36029 6.75243 1.08611 7.58005 1.01721C8.40768 0.948323 9.23942 1.0869 10 1.42042V2.54127ZM12 1H13V4.5H12V1ZM12.0833 5.6264C12.2067 5.54399 12.3517 5.5 12.5 5.5C12.6989 5.5 12.8897 5.57902 13.0303 5.71967C13.171 5.86032 13.25 6.05109 13.25 6.25C13.25 6.39834 13.206 6.54334 13.1236 6.66668C13.0412 6.79001 12.9241 6.88614 12.787 6.94291C12.65 6.99968 12.4992 7.01453 12.3537 6.98559C12.2082 6.95665 12.0746 6.88522 11.9697 6.78033C11.8648 6.67544 11.7934 6.5418 11.7644 6.39632C11.7355 6.25083 11.7503 6.10003 11.8071 5.96299C11.8639 5.82594 11.96 5.70881 12.0833 5.6264ZM10.5 12H5.5V13H10.5V12ZM6.5 14H9.5V15H6.5V14ZM11.5244 8C11.2674 8.40152 10.9521 8.76257 10.5889 9.0713C10.0535 9.5674 9.5 10.0806 9.5 11H10.5C10.5 10.5403 10.7632 10.275 11.2676 9.80715C11.8579 9.31813 12.3278 8.69978 12.6407 8H11.5244Z" fill="black"/>
</svg>
