<svg width="16" height="16" viewBox="0 0 16 16" fill="none" xmlns="http://www.w3.org/2000/svg">
<path fill-rule="evenodd" clip-rule="evenodd" d="M4.32032 7.71083C4.56572 8.24623 4.93898 8.71309 5.40725 9.0703L5.40757 9.07059C5.94482 9.5671 6.5 10.0802 6.5 11H5.5C5.5 10.5407 5.23585 10.2754 4.73 9.8081C4.16057 9.3558 3.70677 8.77466 3.40599 8.11258C3.10521 7.45049 2.96605 6.72641 3 6C3.00147 4.67437 3.52872 3.40345 4.46609 2.46609C5.40345 1.52872 6.67437 1.00147 8 1V2C6.93951 2.00122 5.9228 2.42304 5.17292 3.17292C4.42303 3.9228 4.00122 4.93951 4 6C3.96492 6.58791 4.07493 7.17543 4.32032 7.71083ZM10.5 12H5.5V13H10.5V12ZM9.5 14H6.5V15H9.5V14ZM11.52 8C11.2651 8.40179 10.9512 8.76293 10.5889 9.0713C10.0535 9.5674 9.5 10.0806 9.5 11H10.5C10.5 10.5403 10.7632 10.275 11.2676 9.80715C11.8569 9.31787 12.3258 8.69953 12.6378 8H11.52ZM14.4944 2.33329C14.8241 2.82664 15 3.40666 15 4C14.9991 4.79538 14.6828 5.55794 14.1204 6.12036C13.5579 6.68278 12.7954 6.99913 12 7C11.4067 7 10.8266 6.82405 10.3333 6.49441C9.83994 6.16477 9.45543 5.69623 9.22836 5.14805C9.0013 4.59987 8.94189 3.99667 9.05765 3.41473C9.1734 2.83279 9.45912 2.29824 9.87868 1.87868C10.2982 1.45912 10.8328 1.1734 11.4147 1.05765C11.9967 0.94189 12.5999 1.0013 13.1481 1.22836C13.6962 1.45543 14.1648 1.83994 14.4944 2.33329ZM13.7166 5.0095C13.9002 4.70467 13.9981 4.35589 14 4C13.9994 3.46975 13.7885 2.96139 13.4136 2.58645C13.0386 2.2115 12.5303 2.0006 12 2C11.6441 2.00187 11.2953 2.0998 10.9905 2.28345L13.7166 5.0095ZM10.2835 2.9905C10.0998 3.29534 10.0019 3.64412 10 4C10.0006 4.53025 10.2115 5.03861 10.5864 5.41356C10.9614 5.7885 11.4698 5.99941 12 6C12.3559 5.99813 12.7047 5.9002 13.0095 5.71655L10.2835 2.9905Z" fill="black"/>
</svg>
