<svg width="16" height="16" viewBox="0 0 16 16" fill="none" xmlns="http://www.w3.org/2000/svg">
<path fill-rule="evenodd" clip-rule="evenodd" d="M4.32032 7.71083C4.56572 8.24623 4.93898 8.71309 5.40725 9.0703L5.40757 9.07059C5.94482 9.5671 6.5 10.0802 6.5 11H5.5C5.5 10.5407 5.23585 10.2754 4.73 9.8081C4.16057 9.3558 3.70677 8.77466 3.40599 8.11258C3.10521 7.45049 2.96605 6.72641 3 6C3.00147 4.67437 3.52872 3.40345 4.46609 2.46609C5.40345 1.52872 6.67437 1.00147 8 1V2C6.93951 2.00122 5.9228 2.42304 5.17292 3.17292C4.42303 3.9228 4.00122 4.93951 4 6C3.96492 6.58791 4.07493 7.17543 4.32032 7.71083ZM10 7.00008C9.90714 7.00009 9.81612 6.97424 9.73712 6.92543C9.65813 6.87662 9.59429 6.80678 9.55275 6.72373L8.6909 5.00008H7V4.00008H9C9.09286 4.00007 9.18388 4.02591 9.26288 4.07472C9.34187 4.12353 9.40571 4.19338 9.44725 4.27643L10 5.38203L11.5527 2.27643C11.5989 2.199 11.6644 2.1349 11.7428 2.09038C11.8212 2.04586 11.9098 2.02246 12 2.02246C12.0902 2.02246 12.1788 2.04586 12.2572 2.09038C12.3356 2.1349 12.4011 2.199 12.4473 2.27643L13.3091 4.00008H15V5.00008H13C12.9071 5.00009 12.8161 4.97424 12.7371 4.92543C12.6581 4.87662 12.5943 4.80678 12.5527 4.72373L12 3.61813L10.4473 6.72373C10.4057 6.80678 10.3419 6.87662 10.2629 6.92543C10.1839 6.97424 10.0929 7.00009 10 7.00008ZM10.5889 9.0713C10.9512 8.76293 11.2651 8.40179 11.52 8H12.6378C12.3258 8.69953 11.8569 9.31787 11.2676 9.80715C10.7632 10.275 10.5 10.5403 10.5 11H9.5C9.5 10.0806 10.0535 9.5674 10.5889 9.0713ZM10.5 12H5.5V13H10.5V12ZM9.5 14H6.5V15H9.5V14Z" fill="black"/>
</svg>
