<svg width="16" height="16" viewBox="0 0 16 16" fill="none" xmlns="http://www.w3.org/2000/svg">
<path fill-rule="evenodd" clip-rule="evenodd" d="M4.32032 7.71083C4.56572 8.24623 4.93898 8.71309 5.40725 9.0703L5.40757 9.07059C5.94482 9.5671 6.5 10.0802 6.5 11H5.5C5.5 10.5407 5.23585 10.2754 4.73 9.8081C4.16057 9.3558 3.70677 8.77466 3.40599 8.11258C3.10521 7.45049 2.96605 6.72641 3 6C3.00147 4.67437 3.52872 3.40345 4.46609 2.46609C5.40345 1.52872 6.67437 1.00147 8 1V2C6.93951 2.00122 5.9228 2.42304 5.17292 3.17292C4.42303 3.9228 4.00122 4.93951 4 6C3.96492 6.58791 4.07493 7.17543 4.32032 7.71083ZM10.5 12H5.5V13H10.5V12ZM9.5 14H6.5V15H9.5V14ZM11.9 7C11.7156 7.82123 11.2524 8.5532 10.5891 9.0713C10.0535 9.5674 9.5 10.0806 9.5 11H10.5C10.5 10.5403 10.7632 10.275 11.2676 9.80715C12.1442 9.10598 12.7322 8.10679 12.9194 7H11.9ZM14.295 1L15 1.705L13.205 3.5L15 5.295L14.295 6L12.5 4.205L10.705 6L10 5.295L11.795 3.5L10 1.705L10.705 1L12.5 2.795L14.295 1Z" fill="black"/>
</svg>
