<svg width="16" height="16" viewBox="0 0 16 16" fill="none" xmlns="http://www.w3.org/2000/svg">
<path fill-rule="evenodd" clip-rule="evenodd" d="M4.32032 7.71083C4.56572 8.24623 4.93898 8.71309 5.40725 9.0703L5.40757 9.07059C5.94482 9.5671 6.5 10.0802 6.5 11H5.5C5.5 10.5407 5.23585 10.2754 4.73 9.8081C4.16057 9.3558 3.70677 8.77466 3.40599 8.11258C3.10521 7.45049 2.96605 6.72641 3 6C3.00147 4.67437 3.52872 3.40345 4.46609 2.46609C5.40345 1.52872 6.67437 1.00147 8 1V2C6.93951 2.00122 5.9228 2.42304 5.17292 3.17292C4.42303 3.9228 4.00122 4.93951 4 6C3.96492 6.58791 4.07493 7.17543 4.32032 7.71083ZM10.5 12H5.5V13H10.5V12ZM9.5 14H6.5V15H9.5V14ZM10.5889 9.0713C10.0535 9.5674 9.5 10.0806 9.5 11H10.5C10.5 10.5403 10.7632 10.275 11.2676 9.80715C11.8369 9.35482 12.2908 8.77388 12.5919 8.11205C12.8931 7.45022 13.033 6.72638 13 6H12C12.034 6.58832 11.9231 7.17599 11.6771 7.71147C11.4311 8.24695 11.0574 8.71388 10.5889 9.0713ZM10 3.75C10 4.16421 9.66421 4.5 9.25 4.5C8.83579 4.5 8.5 4.16421 8.5 3.75C8.5 3.33579 8.83579 3 9.25 3C9.66421 3 10 3.33579 10 3.75ZM14.25 4.5C14.6642 4.5 15 4.16421 15 3.75C15 3.33579 14.6642 3 14.25 3C13.8358 3 13.5 3.33579 13.5 3.75C13.5 4.16421 13.8358 4.5 14.25 4.5ZM12.5 3.75C12.5 4.16421 12.1642 4.5 11.75 4.5C11.3358 4.5 11 4.16421 11 3.75C11 3.33579 11.3358 3 11.75 3C12.1642 3 12.5 3.33579 12.5 3.75Z" fill="black"/>
</svg>
