<svg width="16" height="16" viewBox="0 0 16 16" fill="none" xmlns="http://www.w3.org/2000/svg">
<path fill-rule="evenodd" clip-rule="evenodd" d="M6.33336 3.2528C6.08668 3.08797 5.79667 3 5.5 3C5.10218 3 4.72065 3.15804 4.43934 3.43934C4.15804 3.72064 4 4.10218 4 4.5C4 4.79667 4.08797 5.08668 4.2528 5.33336C4.41762 5.58003 4.65189 5.77229 4.92598 5.88582C5.20007 5.99935 5.50167 6.02906 5.79264 5.97118C6.08361 5.9133 6.35088 5.77044 6.56066 5.56066C6.77044 5.35088 6.9133 5.08361 6.97118 4.79264C7.02906 4.50166 6.99935 4.20006 6.88582 3.92597C6.77229 3.65189 6.58003 3.41762 6.33336 3.2528ZM4.11108 2.42133C4.5222 2.14662 5.00555 2 5.5 2C6.16304 2 6.79893 2.26339 7.26777 2.73223C7.73661 3.20107 8 3.83696 8 4.5C8 4.99445 7.85338 5.4778 7.57867 5.88893C7.30397 6.30005 6.91353 6.62048 6.45671 6.8097C5.99989 6.99892 5.49723 7.04843 5.01228 6.95196C4.52732 6.8555 4.08187 6.6174 3.73223 6.26777C3.3826 5.91814 3.1445 5.47268 3.04804 4.98773C2.95157 4.50277 3.00108 4.00011 3.1903 3.54329C3.37952 3.08648 3.69995 2.69603 4.11108 2.42133ZM8 11.5H9V10.5C8.99922 9.8372 8.73558 9.20177 8.2669 8.7331C7.79823 8.26442 7.1628 8.00078 6.5 8H4.5C3.83719 8.00077 3.20176 8.26441 2.73308 8.73308C2.26441 9.20176 2.00077 9.83719 2 10.5V11.5H3V10.5C3.00044 10.1023 3.15861 9.72103 3.43982 9.43982C3.72103 9.15861 4.10231 9.00044 4.5 9H6.5C6.89769 9.00044 7.27897 9.15861 7.56018 9.43982C7.84139 9.72103 7.99956 10.1023 8 10.5V11.5ZM1 13V14H15V13H1ZM15.7499 5.56724C15.8647 5.63351 15.9485 5.74264 15.9829 5.87065C16.0172 5.99872 15.9992 6.13517 15.9329 6.25C15.8666 6.36482 15.7575 6.44862 15.6294 6.48295L10.5792 7.83475C10.5157 7.85178 10.4496 7.85615 10.3845 7.8476C10.3194 7.83904 10.2566 7.81774 10.1997 7.78491C10.1429 7.75208 10.093 7.70837 10.0531 7.65626C10.0131 7.60416 9.98381 7.54468 9.96685 7.48125L9.5 5.7371L10 5.6033L10.8461 6.7282L12.2292 6.35795L11.5 3.6338L12 3.5L13.8275 5.93015L15.3706 5.51715C15.4987 5.48294 15.6351 5.50096 15.7499 5.56724Z" fill="black"/>
</svg>
