<svg width="16" height="16" viewBox="0 0 16 16" fill="none" xmlns="http://www.w3.org/2000/svg">
<path fill-rule="evenodd" clip-rule="evenodd" d="M6.33336 3.2528C6.08668 3.08797 5.79667 3 5.5 3C5.10218 3 4.72065 3.15804 4.43934 3.43934C4.15804 3.72064 4 4.10218 4 4.5C4 4.79667 4.08797 5.08668 4.2528 5.33336C4.41762 5.58003 4.65189 5.77229 4.92598 5.88582C5.20007 5.99935 5.50167 6.02906 5.79264 5.97118C6.08361 5.9133 6.35088 5.77044 6.56066 5.56066C6.77044 5.35088 6.9133 5.08361 6.97118 4.79264C7.02906 4.50166 6.99935 4.20006 6.88582 3.92597C6.77229 3.65189 6.58003 3.41762 6.33336 3.2528ZM4.11108 2.42133C4.5222 2.14662 5.00555 2 5.5 2C6.16304 2 6.79893 2.26339 7.26777 2.73223C7.73661 3.20107 8 3.83696 8 4.5C8 4.99445 7.85338 5.4778 7.57867 5.88893C7.30397 6.30005 6.91353 6.62048 6.45671 6.8097C5.99989 6.99892 5.49723 7.04843 5.01228 6.95196C4.52732 6.8555 4.08187 6.6174 3.73223 6.26777C3.3826 5.91814 3.1445 5.47268 3.04804 4.98773C2.95157 4.50277 3.00108 4.00011 3.1903 3.54329C3.37952 3.08648 3.69995 2.69603 4.11108 2.42133ZM8 11.5H9V10.5C8.99922 9.8372 8.73558 9.20177 8.2669 8.7331C7.79823 8.26442 7.1628 8.00078 6.5 8H4.5C3.8372 8.00078 3.20177 8.26442 2.7331 8.7331C2.26442 9.20177 2.00078 9.8372 2 10.5V11.5H3V10.5C3.00044 10.1023 3.15861 9.72103 3.43982 9.43982C3.72103 9.15861 4.10231 9.00044 4.5 9H6.5C6.89769 9.00044 7.27897 9.15861 7.56018 9.43982C7.84139 9.72103 7.99956 10.1023 8 10.5V11.5ZM1 13V14H15V13H1ZM13.1337 4.10486C13.2976 4.03566 13.4736 4 13.6515 4C13.8294 4.00001 14.0054 4.03567 14.1693 4.10487C14.3331 4.17407 14.4814 4.27541 14.6054 4.4029C14.8585 4.66401 15 5.01337 15 5.377C15 5.74063 14.8585 6.08999 14.6054 6.3511L12.5 8.5L10.3946 6.3511C10.1415 6.08999 10 5.74063 10 5.377C10 5.01337 10.1415 4.66401 10.3946 4.4029C10.5186 4.27541 10.6669 4.17406 10.8308 4.10486C10.9946 4.03566 11.1707 4.00001 11.3485 4.00001C11.5264 4.00001 11.7024 4.03566 11.8663 4.10486C12.0301 4.17406 12.1784 4.27541 12.3025 4.4029L12.5 4.6056L12.6976 4.4029C12.8216 4.2754 12.9699 4.17406 13.1337 4.10486Z" fill="black"/>
</svg>
