<svg width="16" height="16" viewBox="0 0 16 16" fill="none" xmlns="http://www.w3.org/2000/svg">
<path fill-rule="evenodd" clip-rule="evenodd" d="M12 12H14C14.2651 11.9997 14.5193 11.8943 14.7068 11.7068C14.8943 11.5193 14.9997 11.2651 15 11V3C14.9997 2.73487 14.8943 2.48068 14.7068 2.2932C14.5193 2.10572 14.2651 2.00028 14 2H2C1.73487 2.00028 1.48068 2.10572 1.2932 2.2932C1.10572 2.48068 1.00028 2.73487 1 3V11C1.00028 11.2651 1.10572 11.5193 1.2932 11.7068C1.48068 11.8943 1.73487 11.9997 2 12H4V11H2V3H14V11H12V12ZM4.24192 14.9274C4.32028 14.9749 4.41019 15.0001 4.50185 15.0001H11.4979C11.5896 15.0001 11.6795 14.9749 11.7579 14.9274C11.8362 14.8798 11.9001 14.8117 11.9424 14.7304C11.9847 14.6491 12.0039 14.5577 11.998 14.4663C11.992 14.3748 11.961 14.2867 11.9085 14.2116L8.4096 9.21339C8.3635 9.14749 8.30219 9.09369 8.23087 9.05654C8.15955 9.0194 8.08032 9 7.9999 9C7.91948 9 7.84025 9.0194 7.76893 9.05654C7.69761 9.09369 7.6363 9.14749 7.5902 9.21339L4.09135 14.2116C4.03879 14.2867 4.00783 14.3748 4.00184 14.4663C3.99586 14.5577 4.01508 14.6491 4.05741 14.7304C4.09974 14.8117 4.16356 14.8798 4.24192 14.9274Z" fill="black"/>
</svg>
