<svg width="16" height="16" viewBox="0 0 16 16" fill="none" xmlns="http://www.w3.org/2000/svg">
<path fill-rule="evenodd" clip-rule="evenodd" d="M12.2076 1.99731L11.4997 2.70368L13.2904 4.49807L13.9982 3.79171L12.2076 1.99731ZM2.00018 3.79609L3.79082 2.0017L4.49867 2.70806L2.70803 4.50245L2.00018 3.79609ZM4.94437 13.0732C5.84884 13.6775 6.9122 14.0001 8 14.0001C9.45869 14.0001 10.8576 13.4206 11.8891 12.3892C12.9205 11.3577 13.5 9.95876 13.5 8.50007C13.5 7.41227 13.1774 6.3489 12.5731 5.44443C11.9687 4.53996 11.1098 3.83501 10.1048 3.41873C9.09977 3.00245 7.9939 2.89353 6.92701 3.10575C5.86011 3.31797 4.8801 3.84179 4.11092 4.61098C3.34173 5.38017 2.8179 6.36018 2.60568 7.42707C2.39346 8.49397 2.50238 9.59984 2.91867 10.6048C3.33495 11.6098 4.0399 12.4688 4.94437 13.0732ZM5.49994 4.75846C6.23996 4.26399 7.10999 4.00007 8 4.00007C9.19348 4.00007 10.3381 4.47418 11.182 5.31809C12.0259 6.162 12.5 7.3066 12.5 8.50007C12.5 9.39009 12.2361 10.2601 11.7416 11.0001C11.2471 11.7402 10.5443 12.3169 9.72208 12.6575C8.89981 12.9981 7.99501 13.0872 7.1221 12.9136C6.24918 12.74 5.44736 12.3114 4.81802 11.6821C4.18869 11.0527 3.7601 10.2509 3.58647 9.37798C3.41284 8.50506 3.50195 7.60026 3.84254 6.77799C4.18314 5.95573 4.75991 5.25292 5.49994 4.75846ZM8.5 8.00007H10.5V9.00007H8.5V11.0001H7.5V9.00007H5.5V8.00007H7.5V6.00007H8.5V8.00007Z" fill="black"/>
</svg>
