<svg width="16" height="16" viewBox="0 0 16 16" fill="none" xmlns="http://www.w3.org/2000/svg">
<path fill-rule="evenodd" clip-rule="evenodd" d="M13.7068 14.7068C13.5193 14.8942 13.2651 14.9997 13 15H3C2.73488 14.9997 2.4807 14.8942 2.29323 14.7068C2.10576 14.5193 2.0003 14.2651 2 14V2C2.0003 1.73488 2.10576 1.4807 2.29323 1.29323C2.4807 1.10576 2.73488 1.0003 3 1H13C13.2651 1.0003 13.5193 1.10576 13.7068 1.29323C13.8942 1.4807 13.9997 1.73488 14 2V14C13.9997 14.2651 13.8942 14.5193 13.7068 14.7068ZM3 2V14H13V2H3ZM10 3.5H4.5V4.5H10V3.5ZM4.5 6H8V7H4.5V6Z" fill="black"/>
</svg>
