<svg width="16" height="16" viewBox="0 0 16 16" fill="none" xmlns="http://www.w3.org/2000/svg">
<path fill-rule="evenodd" clip-rule="evenodd" d="M1 1H2V14H6V15H2C1.73478 15 1.48043 14.8946 1.29289 14.7071C1.10536 14.5196 1 14.2652 1 14V1ZM15 2H11.5V3H13.2929L9.5 6.79295L7.3535 4.6465C7.25974 4.55276 7.13258 4.50011 7 4.50011C6.86742 4.50011 6.74026 4.55276 6.6465 4.6465L3 8.29295L3.70705 9L7 5.70705L9.1465 7.8535C9.24026 7.94724 9.36742 7.99989 9.5 7.99989C9.63258 7.99989 9.75974 7.94724 9.8535 7.8535L14 3.70705V5.5H15V2ZM14.8535 9.64652L13.3535 8.14652C13.3071 8.10007 13.252 8.06322 13.1913 8.03808C13.1307 8.01294 13.0657 8 13 8C12.9343 8 12.8693 8.01294 12.8087 8.03808C12.748 8.06322 12.6929 8.10007 12.6465 8.14652L8 12.793V15H10.2071L14.8535 10.3535C14.8999 10.3071 14.9368 10.252 14.9619 10.1913C14.9871 10.1307 15 10.0657 15 10C15 9.93436 14.9871 9.86934 14.9619 9.80869C14.9368 9.74803 14.8999 9.69292 14.8535 9.64652ZM9.79295 14H9V13.2071L11.5 10.7071L12.2929 11.5L9.79295 14ZM13 10.793L12.2071 10L13 9.20707L13.7929 10L13 10.793Z" fill="black"/>
</svg>
