<svg width="16" height="16" viewBox="0 0 16 16" fill="none" xmlns="http://www.w3.org/2000/svg">
<path fill-rule="evenodd" clip-rule="evenodd" d="M1 1H2V8H1V1ZM11.5 2H15V5.5H14V3.70705L9.8535 7.8535C9.75974 7.94724 9.63258 7.99989 9.5 7.99989C9.36742 7.99989 9.24026 7.94724 9.1465 7.8535L7 5.70705L4.7071 8L4 7.2929L6.6465 4.6465C6.74026 4.55276 6.86742 4.50011 7 4.50011C7.13258 4.50011 7.25974 4.55276 7.3535 4.6465L9.5 6.79295L13.2929 3H11.5V2ZM2 11V10H6V14H5V11.707L1.707 15L1 14.293L4.293 11H2ZM8 14V15H15V14H8Z" fill="black"/>
</svg>
