<svg width="16" height="16" viewBox="0 0 16 16" fill="none" xmlns="http://www.w3.org/2000/svg">
<path fill-rule="evenodd" clip-rule="evenodd" d="M1 1H2V14H15V15H2C1.73478 15 1.48043 14.8946 1.29289 14.7071C1.10536 14.5196 1 14.2652 1 14V1ZM11.5 4.5H15V8H14V6.205L9.855 10.355C9.80852 10.4019 9.75322 10.4391 9.69229 10.4644C9.63136 10.4898 9.56601 10.5029 9.5 10.5029C9.43399 10.5029 9.36864 10.4898 9.30771 10.4644C9.24678 10.4391 9.19148 10.4019 9.145 10.355L7 8.205L3.705 11.5L3 10.795L6.645 7.145C6.69148 7.09814 6.74678 7.06094 6.80771 7.03555C6.86864 7.01017 6.93399 6.9971 7 6.9971C7.06601 6.9971 7.13136 7.01017 7.19229 7.03555C7.25322 7.06094 7.30852 7.09814 7.355 7.145L9.5 9.295L13.295 5.5H11.5V4.5Z" fill="black"/>
</svg>
