<svg width="16" height="16" viewBox="0 0 16 16" fill="none" xmlns="http://www.w3.org/2000/svg">
<path fill-rule="evenodd" clip-rule="evenodd" d="M4.06003 11.0698C4.29631 11.3289 4.44956 11.6528 4.50003 11.9998H14V12.9998H4.32503C4.1907 13.283 3.98277 13.5249 3.72298 13.7003C3.46319 13.8756 3.16107 13.978 2.8482 13.9967C2.53532 14.0153 2.22316 13.9497 1.94435 13.8064C1.66554 13.6632 1.43031 13.4478 1.26324 13.1826C1.09616 12.9174 1.00338 12.6122 0.994586 12.2989C0.98579 11.9856 1.0613 11.6756 1.21324 11.4015C1.36517 11.1273 1.58794 10.899 1.85828 10.7404C2.12862 10.5818 2.4366 10.4987 2.75003 10.4998C2.89381 10.4997 3.03689 10.5199 3.17503 10.5598L7.96003 2.27979L8.82503 2.77979L4.06003 11.0698ZM2.33335 12.8734C2.45669 12.9558 2.60169 12.9998 2.75003 12.9998C2.94894 12.9998 3.13971 12.9208 3.28036 12.7801C3.42101 12.6395 3.50003 12.4487 3.50003 12.2498C3.50003 12.1014 3.45604 11.9564 3.37363 11.8331C3.29122 11.7098 3.17409 11.6136 3.03704 11.5569C2.9 11.5001 2.7492 11.4853 2.60371 11.5142C2.45823 11.5431 2.32459 11.6146 2.2197 11.7195C2.11481 11.8243 2.04338 11.958 2.01444 12.1035C1.9855 12.249 2.00036 12.3998 2.05712 12.5368C2.11389 12.6738 2.21002 12.791 2.33335 12.8734ZM12 10.5002H11C11.0007 9.62684 10.7933 8.76587 10.3951 7.98856C9.99684 7.21125 9.41923 6.53995 8.71004 6.03022L9.29004 5.22021C10.1285 5.82197 10.8116 6.61471 11.2828 7.53287C11.7541 8.45102 11.9999 9.46819 12 10.5002Z" fill="black"/>
</svg>
