<svg width="16" height="16" viewBox="0 0 16 16" fill="none" xmlns="http://www.w3.org/2000/svg">
<path fill-rule="evenodd" clip-rule="evenodd" d="M2 2H14C14.2652 2 14.5196 2.10536 14.7071 2.29289C14.8946 2.48043 15 2.73478 15 3V13C15 13.2652 14.8946 13.5196 14.7071 13.7071C14.5196 13.8946 14.2652 14 14 14H2C1.73478 14 1.48043 13.8946 1.29289 13.7071C1.10536 13.5196 1 13.2652 1 13V3C1 2.73478 1.10536 2.48043 1.29289 2.29289C1.48043 2.10536 1.73478 2 2 2ZM2 13H14V3H2V13ZM6.5 10H10.5V11H6.325C6.19067 11.2832 5.98274 11.5251 5.72295 11.7005C5.46316 11.8758 5.16104 11.9782 4.84816 11.9969C4.53528 12.0156 4.22313 11.9499 3.94432 11.8067C3.66551 11.6635 3.43028 11.448 3.26321 11.1828C3.09613 10.9176 3.00335 10.6124 2.99456 10.2991C2.98576 9.98578 3.06127 9.67586 3.21321 9.40171C3.36514 9.12756 3.58791 8.89924 3.85825 8.74062C4.12859 8.582 4.43657 8.4989 4.75 8.5C4.90203 8.49949 5.05342 8.51967 5.2 8.56L7.09 5.25L7.96 5.75L6.06 9.07C6.29628 9.32908 6.44953 9.65301 6.5 10ZM4.33332 10.8736C4.45666 10.956 4.60166 11 4.75 11C4.94891 11 5.13968 10.921 5.28033 10.7803C5.42098 10.6397 5.5 10.4489 5.5 10.25C5.5 10.1017 5.45601 9.95666 5.3736 9.83332C5.29119 9.70999 5.17406 9.61386 5.03701 9.55709C4.89997 9.50032 4.74917 9.48547 4.60368 9.51441C4.4582 9.54335 4.32456 9.61478 4.21967 9.71967C4.11478 9.82456 4.04335 9.9582 4.01441 10.1037C3.98547 10.2492 4.00032 10.4 4.05709 10.537C4.11386 10.6741 4.20999 10.7912 4.33332 10.8736ZM13 4H9.5V5H13V4ZM9.5 6H11.5V7H9.5V6Z" fill="black"/>
</svg>
