<svg width="16" height="16" viewBox="0 0 16 16" fill="none" xmlns="http://www.w3.org/2000/svg">
<path fill-rule="evenodd" clip-rule="evenodd" d="M4 4.5H2C1.73478 4.5 1.48043 4.60536 1.29289 4.79289C1.10536 4.98043 1 5.23478 1 5.5V11.5H2V9H4V11.5H5V5.5C5 5.23478 4.89464 4.98043 4.70711 4.79289C4.51957 4.60536 4.26522 4.5 4 4.5ZM2 8V5.5H4V8H2ZM11 5.5H12.5V10.5H11V11.5H15V10.5H13.5V5.5H15V4.5H11V5.5ZM6 11.5H7V9H9C9.26522 9 9.51957 8.89464 9.70711 8.70711C9.89464 8.51957 10 8.26522 10 8V5.5C10 5.23478 9.89464 4.98043 9.70711 4.79289C9.51957 4.60536 9.26522 4.5 9 4.5H6V11.5ZM9 8H7V5.5H9V8Z" fill="black"/>
</svg>
