<svg width="16" height="16" viewBox="0 0 16 16" fill="none" xmlns="http://www.w3.org/2000/svg">
<path fill-rule="evenodd" clip-rule="evenodd" d="M10 1H12V3H10V1ZM15 1H13V3H15V1ZM15 4H13V6H15V4ZM12 4H10V6H12V4ZM14 11V8H15V11C15 11.2652 14.8946 11.5196 14.7071 11.7071C14.5196 11.8946 14.2652 12 14 12H10V14H12V15H4V14H6V12H2C1.73478 12 1.48043 11.8946 1.29289 11.7071C1.10536 11.5196 1 11.2652 1 11V3C1 2.73478 1.10536 2.48043 1.29289 2.29289C1.48043 2.10536 1.73478 2 2 2H8V3H2V11H14ZM7 12V14H9V12H7Z" fill="black"/>
</svg>
