<svg width="16" height="16" viewBox="0 0 16 16" fill="none" xmlns="http://www.w3.org/2000/svg">
<path fill-rule="evenodd" clip-rule="evenodd" d="M3.29323 14.7068C3.4807 14.8942 3.73488 14.9997 4 15H10.5C10.7651 14.9997 11.0193 14.8942 11.2068 14.7068C11.3942 14.5193 11.4997 14.2651 11.5 14V10H10.5V14H4V2H10.5V1H4C3.73488 1.0003 3.4807 1.10576 3.29323 1.29323C3.10576 1.4807 3.0003 1.73488 3 2V14C3.0003 14.2651 3.10576 14.5193 3.29323 14.7068ZM10.5 3.5H8.5V5.5H10.5V3.5ZM11.5 3.5H13.5V5.5H11.5V3.5ZM11.5 6.5H13.5V8.5H11.5V6.5ZM8.5 6.5H10.5V8.5H8.5V6.5ZM7.25 13C7.66421 13 8 12.6642 8 12.25C8 11.8358 7.66421 11.5 7.25 11.5C6.83579 11.5 6.5 11.8358 6.5 12.25C6.5 12.6642 6.83579 13 7.25 13Z" fill="black"/>
</svg>
