<svg width="16" height="16" viewBox="0 0 16 16" fill="none" xmlns="http://www.w3.org/2000/svg">
<path fill-rule="evenodd" clip-rule="evenodd" d="M10 2H9.5C8.9477 2 8.5 2.4477 8.5 3V3.5H9C9.5523 3.5 10 3.0523 10 2.5V2ZM3.54149 5.83571L2.70409 5.28931C2.25099 5.98366 2.00769 6.90456 2.00049 7.95266L3.00049 7.95951C3.00634 7.10356 3.19334 6.36916 3.54149 5.83571ZM3.04271 8.9082L2.04736 9.0049C2.14171 9.9739 2.37696 10.8418 2.74646 11.5845L3.64171 11.139C3.32666 10.5059 3.12511 9.7551 3.04271 8.9082ZM3.33447 12.5183L4.11887 11.8982C4.61177 12.5218 5.26172 12.9307 5.85732 12.9924L5.75427 13.9871C4.88307 13.897 4.00097 13.3616 3.33447 12.5183ZM8.00024 12.5C7.63354 12.5 7.26109 12.6355 6.90089 12.7666L6.87787 12.775L6.87786 12.775L6.87782 12.775L6.87778 12.775L6.87774 12.775L6.87771 12.775C6.79485 12.805 6.71131 12.8352 6.62744 12.8638L6.94874 13.8108C7.04724 13.7773 7.14554 13.7417 7.24269 13.7063L7.24609 13.7051C7.52383 13.6041 7.81047 13.5 8.00024 13.5C8.18942 13.5 8.47514 13.6036 8.7521 13.704L8.75769 13.706C8.84814 13.739 8.93944 13.7722 9.03099 13.8037L9.35494 12.8574C9.26939 12.8281 9.18404 12.7971 9.09944 12.7663L9.09778 12.7657L9.09777 12.7657C8.73804 12.6351 8.36627 12.5 8.00024 12.5ZM10.2202 13.9898L10.1274 12.9939C10.7222 12.9385 11.3734 12.5342 11.8696 11.9124L12.6512 12.5362C11.9791 13.3784 11.093 13.9082 10.2202 13.9898ZM12.3501 11.1557L13.2436 11.6045C13.6161 10.8628 13.8539 9.9956 13.9505 9.0266L12.9554 8.92725C12.871 9.77415 12.6673 10.5239 12.3501 11.1557ZM13.3093 5.30908C13.7575 6.00638 13.9964 6.92773 14.0002 7.97463L13.0003 7.97803C12.9971 7.12228 12.8131 6.38648 12.4683 5.85008L13.3093 5.30908ZM12.458 4.4314L11.9063 5.2654C11.64 5.08935 11.3351 5 11 5C10.4338 5 10.0419 5.11247 9.6274 5.23143L9.62559 5.23195C9.16709 5.36375 8.69299 5.5 7.99999 5.5C7.30699 5.5 6.83289 5.3638 6.37439 5.23195L6.3727 5.23146C5.95817 5.11249 5.56622 5 4.99999 5C4.66489 5 4.35999 5.08935 4.09374 5.2654L3.54199 4.4314C3.97474 4.145 4.46534 4 4.99999 4C5.70732 4 6.20807 4.14386 6.64976 4.27075L6.65064 4.271C6.89819 4.34205 7.14159 4.4075 7.41369 4.4507C7.17319 3.61595 6.41114 3 5.49999 3V2C6.97339 2 8.19944 3.06885 8.45044 4.4712C8.78129 4.43115 9.06119 4.35375 9.34939 4.271L9.35018 4.27077C9.79189 4.14388 10.2927 4 11 4C11.5347 4 12.0253 4.145 12.458 4.4314Z" fill="black"/>
</svg>
