<svg width="16" height="16" viewBox="0 0 16 16" fill="none" xmlns="http://www.w3.org/2000/svg">
<path d="M13.5 11.071V4.92905C13.8411 4.84157 14.153 4.66539 14.404 4.4184C14.655 4.17141 14.8362 3.86239 14.9292 3.52273C15.0222 3.18306 15.0236 2.82485 14.9334 2.48444C14.8432 2.14404 14.6645 1.83357 14.4155 1.58456C14.1665 1.33554 13.856 1.15685 13.5156 1.06662C13.1752 0.976392 12.817 0.977839 12.4773 1.07082C12.1376 1.16379 11.8286 1.34499 11.5816 1.59601C11.3346 1.84702 11.1585 2.15893 11.071 2.50005H4.92899C4.84151 2.15893 4.66533 1.84702 4.41834 1.59601C4.17135 1.34499 3.86233 1.16379 3.52267 1.07082C3.183 0.977839 2.82479 0.976392 2.48438 1.06662C2.14398 1.15685 1.83351 1.33554 1.5845 1.58456C1.33548 1.83357 1.15679 2.14404 1.06656 2.48444C0.976331 2.82485 0.977778 3.18306 1.07075 3.52273C1.16373 3.86239 1.34493 4.17141 1.59594 4.4184C1.84696 4.66539 2.15886 4.84157 2.49999 4.92905V11.071C2.15886 11.1585 1.84696 11.3347 1.59594 11.5817C1.34493 11.8287 1.16373 12.1377 1.07075 12.4774C0.977778 12.817 0.976331 13.1752 1.06656 13.5157C1.15679 13.8561 1.33548 14.1665 1.5845 14.4155C1.83351 14.6646 2.14398 14.8432 2.48438 14.9335C2.82479 15.0237 3.183 15.0223 3.52267 14.9293C3.86233 14.8363 4.17135 14.6551 4.41834 14.4041C4.66533 14.1531 4.84151 13.8412 4.92899 13.5H11.071C11.1585 13.8412 11.3346 14.1531 11.5816 14.4041C11.8286 14.6551 12.1376 14.8363 12.4773 14.9293C12.817 15.0223 13.1752 15.0237 13.5156 14.9335C13.856 14.8432 14.1665 14.6646 14.4155 14.4155C14.6645 14.1665 14.8432 13.8561 14.9334 13.5157C15.0236 13.1752 15.0222 12.817 14.9292 12.4774C14.8362 12.1377 14.655 11.8287 14.404 11.5817C14.153 11.3347 13.8411 11.1585 13.5 11.071ZM13 2.00005C13.1978 2.00005 13.3911 2.0587 13.5556 2.16858C13.72 2.27846 13.8482 2.43464 13.9239 2.61736C13.9996 2.80009 14.0194 3.00116 13.9808 3.19514C13.9422 3.38912 13.8469 3.5673 13.7071 3.70715C13.5672 3.84701 13.3891 3.94225 13.1951 3.98083C13.0011 4.01942 12.8 3.99962 12.6173 3.92393C12.4346 3.84824 12.2784 3.72007 12.1685 3.55562C12.0586 3.39117 12 3.19783 12 3.00005C12.0003 2.73492 12.1057 2.48075 12.2932 2.29328C12.4807 2.10581 12.7349 2.00035 13 2.00005ZM1.99999 3.00005C1.99999 2.80227 2.05864 2.60893 2.16852 2.44448C2.2784 2.28003 2.43458 2.15186 2.6173 2.07617C2.80003 2.00048 3.0011 1.98068 3.19508 2.01926C3.38906 2.05785 3.56724 2.15309 3.70709 2.29294C3.84695 2.43279 3.94219 2.61098 3.98077 2.80496C4.01936 2.99894 3.99955 3.20001 3.92387 3.38273C3.84818 3.56546 3.72001 3.72164 3.55556 3.83152C3.39111 3.9414 3.19777 4.00005 2.99999 4.00005C2.73485 3.99978 2.48065 3.89434 2.29317 3.70686C2.10569 3.51938 2.00025 3.26518 1.99999 3.00005ZM2.99999 14C2.80221 14 2.60887 13.9414 2.44442 13.8315C2.27997 13.7216 2.15179 13.5655 2.07611 13.3827C2.00042 13.2 1.98062 12.9989 2.0192 12.805C2.05779 12.611 2.15303 12.4328 2.29288 12.2929C2.43273 12.1531 2.61092 12.0578 2.8049 12.0193C2.99888 11.9807 3.19994 12.0005 3.38267 12.0762C3.5654 12.1519 3.72157 12.28 3.83146 12.4445C3.94134 12.6089 3.99999 12.8023 3.99999 13C3.99968 13.2652 3.89423 13.5193 3.70676 13.7068C3.51929 13.8943 3.26511 13.9997 2.99999 14ZM11.071 12.5H4.92899C4.83944 12.1563 4.6598 11.8426 4.40861 11.5914C4.15741 11.3402 3.84376 11.1606 3.49999 11.071V4.92905C3.84373 4.83945 4.15737 4.6598 4.40855 4.40861C4.65974 4.15743 4.83939 3.84379 4.92899 3.50005H11.071C11.1605 3.84382 11.3402 4.15748 11.5914 4.40867C11.8426 4.65986 12.1562 4.8395 12.5 4.92905V11.071C12.1562 11.1606 11.8425 11.3402 11.5913 11.5914C11.3401 11.8426 11.1605 12.1563 11.071 12.5ZM13 14C12.8022 14 12.6089 13.9414 12.4444 13.8315C12.28 13.7216 12.1518 13.5655 12.0761 13.3827C12.0004 13.2 11.9806 12.9989 12.0192 12.805C12.0578 12.611 12.153 12.4328 12.2929 12.2929C12.4327 12.1531 12.6109 12.0578 12.8049 12.0193C12.9989 11.9807 13.1999 12.0005 13.3827 12.0762C13.5654 12.1519 13.7216 12.28 13.8315 12.4445C13.9413 12.6089 14 12.8023 14 13C13.9996 13.2652 13.8942 13.5193 13.7067 13.7068C13.5192 13.8942 13.2651 13.9997 13 14Z" fill="black"/>
</svg>
