<svg width="16" height="16" viewBox="0 0 16 16" fill="none" xmlns="http://www.w3.org/2000/svg">
<path fill-rule="evenodd" clip-rule="evenodd" d="M9.3 2.80506L8.605 2.61506L7.20001 7.76006L4.20001 6.95006L3.89501 4.36006L3.17501 4.17006L2.30001 7.42006C2.23724 7.66068 2.27186 7.91635 2.39634 8.13162C2.52083 8.3469 2.72515 8.50443 2.96501 8.57006L12.315 11.0701C12.479 11.1124 12.651 11.1124 12.815 11.0701C12.9904 11.0231 13.1484 10.9263 13.27 10.7914C13.3915 10.6566 13.4714 10.4894 13.5 10.3101C13.5247 10.0685 13.4607 9.82629 13.32 9.62849C13.1792 9.43069 12.9713 9.29085 12.735 9.23506L9.8 8.45006L9.3 2.80506ZM7.89044 1.64364C7.94991 1.58329 8.02374 1.53905 8.105 1.51506L8.11501 1.50006C8.19715 1.48012 8.28286 1.48012 8.36501 1.50006L9.905 1.93006C10.0004 1.95721 10.0856 2.01211 10.1497 2.08779C10.2138 2.16347 10.2539 2.2565 10.265 2.35506L10.74 7.68506L13 8.29006C13.4784 8.40882 13.8962 8.70009 14.173 9.10796C14.4498 9.51584 14.5663 10.0116 14.5 10.5001C14.4529 10.7662 14.3505 11.0195 14.1995 11.2437C14.0485 11.4678 13.8522 11.6579 13.6232 11.8015C13.3943 11.9452 13.1378 12.0393 12.8703 12.0778C12.6028 12.1163 12.3302 12.0983 12.07 12.0251L2.71501 9.52506C2.46939 9.45948 2.2391 9.34614 2.0373 9.19152C1.8355 9.0369 1.66614 8.84404 1.53891 8.62394C1.41169 8.40384 1.32907 8.16083 1.2958 7.90879C1.26253 7.65676 1.27925 7.40063 1.34501 7.15506L2.34501 3.41006C2.36854 3.32938 2.41203 3.25593 2.47145 3.19651C2.53088 3.13708 2.60433 3.09359 2.68501 3.07006C2.76681 3.04749 2.8532 3.04749 2.93501 3.07006L4.50001 3.50006C4.58845 3.52749 4.66754 3.57895 4.72845 3.6487C4.78937 3.71844 4.82972 3.80373 4.84501 3.89506L5.09501 6.16006L6.50001 6.53506L7.76501 1.86006C7.7878 1.77846 7.83097 1.70399 7.89044 1.64364ZM1 14.0001H15V15.0001H1V14.0001Z" fill="black"/>
</svg>
