<svg width="16" height="16" viewBox="0 0 16 16" fill="none" xmlns="http://www.w3.org/2000/svg">
<path d="M11.5 3V8H14C14.0989 8.00002 14.1955 8.02936 14.2777 8.0843C14.3599 8.13924 14.424 8.21732 14.4618 8.30867C14.4997 8.40002 14.5096 8.50054 14.4903 8.59752C14.471 8.69449 14.4234 8.78357 14.3535 8.8535L8.35349 14.8535C8.30708 14.8999 8.25197 14.9368 8.19132 14.9619C8.13066 14.9871 8.06564 15 7.99999 15C7.93433 15 7.86931 14.9871 7.80865 14.9619C7.748 14.9368 7.69289 14.8999 7.64649 14.8535L1.64649 8.8535C1.57658 8.78357 1.52898 8.69449 1.50969 8.59752C1.49041 8.50054 1.50031 8.40002 1.53815 8.30867C1.57598 8.21732 1.64005 8.13924 1.72226 8.0843C1.80446 8.02936 1.90111 8.00002 1.99999 8H4.49998V3C4.50029 2.73488 4.60574 2.4807 4.79321 2.29323C4.98068 2.10576 5.23486 2.0003 5.49998 2H10.5C10.7651 2.00036 11.0192 2.10583 11.2067 2.29329C11.3942 2.48075 11.4996 2.73489 11.5 3ZM7.99999 13.7929L12.7929 9H10.5V3H5.49998V9H3.20704L7.99999 13.7929Z" fill="black"/>
</svg>
