<svg width="16" height="16" viewBox="0 0 16 16" fill="none" xmlns="http://www.w3.org/2000/svg">
<path fill-rule="evenodd" clip-rule="evenodd" d="M8 2L8.75 2.45L9.25 1.6L8.5 1.15C8.35 1.05 8.2 1 8 1C7.8 1 7.65 1.05 7.5 1.15L6.75 1.6L7.25 2.45L8 2ZM10.2343 2.15961L9.72562 3.02051L11.2322 3.91073L11.7409 3.04983L10.2343 2.15961ZM4.21916 3.07227L5.72574 2.18187L6.23454 3.04277L4.72796 3.93317L4.21916 3.07227ZM2 4.9499V5.9999H3V4.9499L3.75 4.4999L3.25 3.6499L2.5 4.0999C2.2 4.2499 2 4.5999 2 4.9499ZM2 7V9H3V7H2ZM2.5 11.9L3.25 12.35L3.75 11.5L3 11.05V10H2V11.05C2 11.4 2.2 11.7 2.5 11.9ZM4.72447 12.0522L4.21577 12.9131L5.72235 13.8033L6.23105 12.9424L4.72447 12.0522ZM8 13.9998L8.75 13.5498L9.25 14.3998L8.5 14.8498C8.35 14.9498 8.2 14.9998 8 14.9998C7.85 14.9998 7.65 14.9498 7.5 14.8498L6.75 14.3998L7.25 13.5498L8 13.9998ZM11.2676 12.0632L9.76106 12.9536L10.2699 13.8145L11.7764 12.9241L11.2676 12.0632ZM12.1 11.6L12.6 12.45L13.5 11.9C13.8 11.75 14 11.4 14 11.05V10H13V11.1L12.1 11.6ZM14 7H13V9H14V7ZM13 6.0001H14V4.9501C14 4.6001 13.8 4.3001 13.5 4.1001L12.6 3.6001L12.1 4.4501L13 4.9501V6.0001Z" fill="black"/>
</svg>
