<svg width="16" height="16" viewBox="0 0 16 16" fill="none" xmlns="http://www.w3.org/2000/svg">
<path fill-rule="evenodd" clip-rule="evenodd" d="M12.075 1.24005C12.3584 1.08377 12.6764 1.00124 13 1.00005C13.3417 0.997693 13.6782 1.08351 13.977 1.24922C14.2758 1.41492 14.5268 1.6549 14.7058 1.94596C14.8848 2.23703 14.9856 2.56933 14.9986 2.91077C15.0116 3.2522 14.9363 3.59122 14.78 3.89505L12.655 8.00005H11.535L13.095 4.99005C13.0768 4.99005 13.06 4.99274 13.0438 4.99534C13.0289 4.99774 13.0144 5.00005 13 5.00005C12.7374 5.00012 12.4773 4.94844 12.2346 4.84795C11.9919 4.74747 11.7714 4.60015 11.5856 4.41442C11.3999 4.22869 11.2526 4.00818 11.1521 3.7655C11.0516 3.52282 11 3.26271 11 3.00005C11 2.98187 11.0027 2.96505 11.0053 2.94887C11.0077 2.93389 11.01 2.91947 11.01 2.90505L6.82002 5.07505C7.83992 5.24703 8.78145 5.7309 9.51502 6.46005L8.81502 7.16005C8.34842 6.69726 7.77498 6.35656 7.1454 6.16808C6.51582 5.9796 5.8495 5.94915 5.20535 6.07941C4.5612 6.20968 3.95908 6.49665 3.45221 6.91495C2.94533 7.33325 2.54934 7.87 2.29922 8.47773C2.04911 9.08546 1.95259 9.74545 2.0182 10.3994C2.0838 11.0533 2.30951 11.6809 2.67537 12.2269C3.04123 12.7728 3.53596 13.2202 4.11583 13.5294C4.6957 13.8387 5.34284 14.0003 6.00002 14V15C4.8631 15.0011 3.75984 14.6143 2.8725 13.9035C1.98516 13.1927 1.36685 12.2005 1.11972 11.0908C0.872598 9.98105 1.01144 8.82021 1.51332 7.80007C2.0152 6.77992 2.85008 5.96151 3.88002 5.48005L12.075 1.24005ZM12.4445 3.83152C12.6089 3.9414 12.8022 4.00005 13 4.00005C13.265 3.99928 13.5189 3.89368 13.7063 3.70631C13.8937 3.51894 13.9993 3.26503 14 3.00005C14 2.80227 13.9414 2.60893 13.8315 2.44448C13.7216 2.28003 13.5654 2.15186 13.3827 2.07617C13.2 2.00048 12.9989 1.98068 12.8049 2.01926C12.611 2.05785 12.4328 2.15309 12.2929 2.29294C12.1531 2.43279 12.0578 2.61098 12.0192 2.80496C11.9807 2.99894 12.0005 3.2 12.0761 3.38273C12.1518 3.56546 12.28 3.72164 12.4445 3.83152ZM5.99994 12C5.66634 12 5.33803 11.9166 5.04491 11.7573C4.75179 11.598 4.50317 11.3679 4.32169 11.088C4.14021 10.808 4.03164 10.4872 4.00586 10.1546C3.98008 9.82196 4.03791 9.48818 4.17408 9.18363C4.31025 8.87909 4.52044 8.61344 4.78551 8.41088C5.05058 8.20832 5.36211 8.07528 5.69173 8.02388C6.02136 7.97248 6.3586 8.00435 6.67276 8.11659C6.98692 8.22883 7.26801 8.41787 7.49044 8.6665L6.74544 9.3335C6.63426 9.20914 6.49373 9.11457 6.33666 9.0584C6.17958 9.00223 6.01095 8.98624 5.84612 9.0119C5.68129 9.03756 5.5255 9.10405 5.39293 9.20531C5.26036 9.30656 5.15523 9.43938 5.08711 9.59165C5.01899 9.74393 4.99005 9.91082 5.00292 10.0771C5.01578 10.2435 5.07006 10.4039 5.16079 10.5439C5.25152 10.6839 5.37583 10.7989 5.52239 10.8786C5.66896 10.9583 5.83313 11 5.99994 11V12ZM13.3552 9.78629C14.0464 10.2732 14.5795 10.9522 14.8884 11.7393L15 12L14.8884 12.2607C14.5795 13.0478 14.0464 13.7268 13.3552 14.2137C12.664 14.7006 11.8451 14.974 11 15C10.1549 14.974 9.33603 14.7006 8.64484 14.2137C7.95365 13.7268 7.42052 13.0478 7.11155 12.2607L7 12L7.11155 11.7393C7.42052 10.9522 7.95365 10.2732 8.64484 9.78629C9.33603 9.29937 10.1549 9.02598 11 9C11.8451 9.02598 12.664 9.29937 13.3552 9.78629ZM9.88886 13.6629C10.2178 13.8827 10.6044 14 11 14C11.5303 13.9994 12.0386 13.7885 12.4136 13.4136C12.7885 13.0386 12.9994 12.5303 13 12C13 11.6044 12.8827 11.2178 12.6629 10.8889C12.4432 10.56 12.1308 10.3036 11.7654 10.1522C11.3999 10.0009 10.9978 9.96126 10.6098 10.0384C10.2219 10.1156 9.86549 10.3061 9.58579 10.5858C9.30608 10.8655 9.1156 11.2219 9.03843 11.6098C8.96126 11.9978 9.00087 12.3999 9.15224 12.7654C9.30362 13.1308 9.55996 13.4432 9.88886 13.6629ZM12 12C12 12.5523 11.5523 13 11 13C10.4477 13 10 12.5523 10 12C10 11.4477 10.4477 11 11 11C11.5523 11 12 11.4477 12 12Z" fill="black"/>
</svg>
