<svg width="16" height="16" viewBox="0 0 16 16" fill="none" xmlns="http://www.w3.org/2000/svg">
<g clip-path="url(#clip0_3_14127)">
<path fill-rule="evenodd" clip-rule="evenodd" d="M13.5942 1.00195C13.5942 1.2781 13.3703 1.50195 13.0942 1.50195C12.8181 1.50195 12.5942 1.2781 12.5942 1.00195C12.5942 0.725811 12.8181 0.501953 13.0942 0.501953C13.3703 0.501953 13.5942 0.725811 13.5942 1.00195ZM11.6616 1.95117C11.9377 1.95117 12.1616 1.72731 12.1616 1.45117C12.1616 1.17503 11.9377 0.951172 11.6616 0.951172C11.3854 0.951172 11.1616 1.17503 11.1616 1.45117C11.1616 1.72731 11.3854 1.95117 11.6616 1.95117ZM10.8081 2.15186C10.8081 2.428 10.5842 2.65186 10.3081 2.65186C10.0319 2.65186 9.80809 2.428 9.80809 2.15186C9.80809 1.87571 10.0319 1.65186 10.3081 1.65186C10.5842 1.65186 10.8081 1.87571 10.8081 2.15186ZM9.45445 2.85254C9.45445 3.12868 9.23059 3.35254 8.95445 3.35254C8.67831 3.35254 8.45445 3.12868 8.45445 2.85254C8.45445 2.5764 8.67831 2.35254 8.95445 2.35254C9.23059 2.35254 9.45445 2.5764 9.45445 2.85254ZM13.5 3.5C13.5 4.05228 13.0523 4.5 12.5 4.5C11.9477 4.5 11.5 4.05228 11.5 3.5C11.5 2.94772 11.9477 2.5 12.5 2.5C13.0523 2.5 13.5 2.94772 13.5 3.5ZM5.16665 11.2472C5.41332 11.412 5.70333 11.5 6 11.5C6.39769 11.4996 6.77897 11.3414 7.06018 11.0602C7.34139 10.779 7.49956 10.3977 7.5 10C7.5 9.70333 7.41203 9.41332 7.2472 9.16665C7.08238 8.91997 6.84811 8.72771 6.57403 8.61418C6.29994 8.50065 5.99834 8.47094 5.70737 8.52882C5.41639 8.5867 5.14912 8.72956 4.93934 8.93934C4.72956 9.14912 4.5867 9.41639 4.52882 9.70737C4.47094 9.99834 4.50065 10.2999 4.61418 10.574C4.72771 10.8481 4.91997 11.0824 5.16665 11.2472ZM5.72222 9.58427C5.80444 9.52932 5.90111 9.5 6 9.5C6.13257 9.50013 6.25967 9.55285 6.35341 9.64659C6.44715 9.74033 6.49987 9.86743 6.5 10C6.5 10.0989 6.47068 10.1956 6.41574 10.2778C6.3608 10.36 6.28271 10.4241 6.19134 10.4619C6.09998 10.4998 5.99945 10.5097 5.90246 10.4904C5.80547 10.4711 5.71637 10.4235 5.64645 10.3536C5.57652 10.2836 5.5289 10.1945 5.50961 10.0975C5.49032 10.0006 5.50022 9.90002 5.53806 9.80866C5.5759 9.7173 5.63999 9.63921 5.72222 9.58427ZM6 7.5C6.27614 7.5 6.5 7.27614 6.5 7C6.5 6.72386 6.27614 6.5 6 6.5C5.72386 6.5 5.5 6.72386 5.5 7C5.5 7.27614 5.72386 7.5 6 7.5ZM4.89371 5.45361C5.16985 5.45361 5.39371 5.22976 5.39371 4.95361C5.39371 4.67747 5.16985 4.45361 4.89371 4.45361C4.61756 4.45361 4.39371 4.67747 4.39371 4.95361C4.39371 5.22976 4.61756 5.45361 4.89371 5.45361ZM6.74739 4.25293C6.74739 4.52907 6.52353 4.75293 6.24739 4.75293C5.97125 4.75293 5.74739 4.52907 5.74739 4.25293C5.74739 3.97679 5.97125 3.75293 6.24739 3.75293C6.52353 3.75293 6.74739 3.97679 6.74739 4.25293ZM7.60081 4.05273C7.87696 4.05273 8.10082 3.82888 8.10082 3.55273C8.10082 3.27659 7.87696 3.05273 7.60081 3.05273C7.32467 3.05273 7.10081 3.27659 7.10081 3.55273C7.10081 3.82888 7.32467 4.05273 7.60081 4.05273ZM2.84805 6.59375C2.84805 6.86989 2.6242 7.09375 2.34805 7.09375C2.07191 7.09375 1.84805 6.86989 1.84805 6.59375C1.84805 6.31761 2.07191 6.09375 2.34805 6.09375C2.6242 6.09375 2.84805 6.31761 2.84805 6.59375ZM1.0663 11.3154C1.34244 11.3154 1.5663 11.0916 1.5663 10.8154C1.5663 10.5393 1.34244 10.3154 1.0663 10.3154C0.790157 10.3154 0.566299 10.5393 0.566299 10.8154C0.566299 11.0916 0.790157 11.3154 1.0663 11.3154ZM2.0394 12.2578C2.0394 12.534 1.81554 12.7578 1.5394 12.7578C1.26326 12.7578 1.0394 12.534 1.0394 12.2578C1.0394 11.9817 1.26326 11.7578 1.5394 11.7578C1.81554 11.7578 2.0394 11.9817 2.0394 12.2578ZM2.42418 13.9912C2.70032 13.9912 2.92418 13.7674 2.92418 13.4912C2.92418 13.2151 2.70032 12.9912 2.42418 12.9912C2.14804 12.9912 1.92418 13.2151 1.92418 13.4912C1.92418 13.7674 2.14804 13.9912 2.42418 13.9912ZM4.13621 14.4048C4.13621 14.6809 3.91236 14.9048 3.63622 14.9048C3.36007 14.9048 3.13622 14.6809 3.13622 14.4048C3.13622 14.1286 3.36007 13.9048 3.63622 13.9048C3.91236 13.9048 4.13621 14.1286 4.13621 14.4048ZM1.04913 9.79834C1.32528 9.79834 1.54913 9.57448 1.54913 9.29834C1.54913 9.0222 1.32528 8.79834 1.04913 8.79834C0.772991 8.79834 0.549133 9.0222 0.549133 9.29834C0.549133 9.57448 0.772991 9.79834 1.04913 9.79834ZM1.98965 7.8457C1.98965 8.12185 1.7658 8.3457 1.48965 8.3457C1.21351 8.3457 0.989655 8.12185 0.989655 7.8457C0.989655 7.56956 1.21351 7.3457 1.48965 7.3457C1.7658 7.3457 1.98965 7.56956 1.98965 7.8457ZM3.54047 6.15381C3.81661 6.15381 4.04047 5.92995 4.04047 5.65381C4.04047 5.37767 3.81661 5.15381 3.54047 5.15381C3.26432 5.15381 3.04047 5.37767 3.04047 5.65381C3.04047 5.92995 3.26432 6.15381 3.54047 6.15381ZM14.9941 4.44482C14.9941 4.72097 14.7702 4.94482 14.4941 4.94482C14.2179 4.94482 13.9941 4.72097 13.9941 4.44482C13.9941 4.16868 14.2179 3.94482 14.4941 3.94482C14.7702 3.94482 14.9941 4.16868 14.9941 4.44482ZM13.7933 6.29834C14.0695 6.29834 14.2933 6.07448 14.2933 5.79834C14.2933 5.5222 14.0695 5.29834 13.7933 5.29834C13.5172 5.29834 13.2933 5.5222 13.2933 5.79834C13.2933 6.07448 13.5172 6.29834 13.7933 6.29834ZM13.5928 7.15137C13.5928 7.42751 13.369 7.65137 13.0928 7.65137C12.8167 7.65137 12.5928 7.42751 12.5928 7.15137C12.5928 6.87522 12.8167 6.65137 13.0928 6.65137C13.369 6.65137 13.5928 6.87522 13.5928 7.15137ZM12.3921 9.00488C12.6682 9.00488 12.8921 8.78102 12.8921 8.50488C12.8921 8.22874 12.6682 8.00488 12.3921 8.00488C12.116 8.00488 11.8921 8.22874 11.8921 8.50488C11.8921 8.78102 12.116 9.00488 12.3921 9.00488ZM12.1916 9.8584C12.1916 10.1345 11.9677 10.3584 11.6916 10.3584C11.4154 10.3584 11.1916 10.1345 11.1916 9.8584C11.1916 9.58226 11.4154 9.3584 11.6916 9.3584C11.9677 9.3584 12.1916 9.58226 12.1916 9.8584ZM10.991 11.7119C11.2672 11.7119 11.491 11.4881 11.491 11.2119C11.491 10.9358 11.2672 10.7119 10.991 10.7119C10.7149 10.7119 10.491 10.9358 10.491 11.2119C10.491 11.4881 10.7149 11.7119 10.991 11.7119ZM9.81815 13.7319C9.81815 14.0081 9.59429 14.2319 9.31815 14.2319C9.042 14.2319 8.81815 14.0081 8.81815 13.7319C8.81815 13.4558 9.042 13.2319 9.31815 13.2319C9.59429 13.2319 9.81815 13.4558 9.81815 13.7319ZM8.04601 15.0605C8.32215 15.0605 8.54601 14.8367 8.54601 14.5605C8.54601 14.2844 8.32215 14.0605 8.04601 14.0605C7.76986 14.0605 7.54601 14.2844 7.54601 14.5605C7.54601 14.8367 7.76986 15.0605 8.04601 15.0605ZM7.0831 14.9663C7.0831 15.2425 6.85924 15.4663 6.5831 15.4663C6.30696 15.4663 6.0831 15.2425 6.0831 14.9663C6.0831 14.6902 6.30696 14.4663 6.5831 14.4663C6.85924 14.4663 7.0831 14.6902 7.0831 14.9663ZM5.0663 15.4126C5.34244 15.4126 5.5663 15.1887 5.5663 14.9126C5.5663 14.6365 5.34244 14.4126 5.0663 14.4126C4.79016 14.4126 4.5663 14.6365 4.5663 14.9126C4.5663 15.1887 4.79016 15.4126 5.0663 15.4126ZM10.7859 12.5625C10.7859 12.8386 10.562 13.0625 10.2859 13.0625C10.0097 13.0625 9.78586 12.8386 9.78586 12.5625C9.78586 12.2864 10.0097 12.0625 10.2859 12.0625C10.562 12.0625 10.7859 12.2864 10.7859 12.5625ZM14.4464 2.12012C14.7226 2.12012 14.9464 1.89626 14.9464 1.62012C14.9464 1.34397 14.7226 1.12012 14.4464 1.12012C14.1703 1.12012 13.9464 1.34397 13.9464 1.62012C13.9464 1.89626 14.1703 2.12012 14.4464 2.12012ZM6 13.5C6.27614 13.5 6.5 13.2761 6.5 13C6.5 12.7239 6.27614 12.5 6 12.5C5.72386 12.5 5.5 12.7239 5.5 13C5.5 13.2761 5.72386 13.5 6 13.5ZM3.5 10C3.5 10.2761 3.27614 10.5 3 10.5C2.72386 10.5 2.5 10.2761 2.5 10C2.5 9.72386 2.72386 9.5 3 9.5C3.27614 9.5 3.5 9.72386 3.5 10ZM9 10.5C9.27614 10.5 9.5 10.2761 9.5 10C9.5 9.72386 9.27614 9.5 9 9.5C8.72386 9.5 8.5 9.72386 8.5 10C8.5 10.2761 8.72386 10.5 9 10.5ZM3.90195 8.5C3.90195 8.77614 3.67809 9 3.40195 9C3.1258 9 2.90195 8.77614 2.90195 8.5C2.90195 8.22386 3.1258 8 3.40195 8C3.67809 8 3.90195 8.22386 3.90195 8.5ZM8.59805 12C8.8742 12 9.09805 11.7761 9.09805 11.5C9.09805 11.2239 8.8742 11 8.59805 11C8.32191 11 8.09805 11.2239 8.09805 11.5C8.09805 11.7761 8.32191 12 8.59805 12ZM5 12.5981C5 12.8743 4.77614 13.0981 4.5 13.0981C4.22386 13.0981 4 12.8743 4 12.5981C4 12.322 4.22386 12.0981 4.5 12.0981C4.77614 12.0981 5 12.322 5 12.5981ZM7.5 7.90186C7.77614 7.90186 8 7.678 8 7.40186C8 7.12571 7.77614 6.90186 7.5 6.90186C7.22386 6.90186 7 7.12571 7 7.40186C7 7.678 7.22386 7.90186 7.5 7.90186ZM5 7.40186C5 7.678 4.77614 7.90186 4.5 7.90186C4.22386 7.90186 4 7.678 4 7.40186C4 7.12571 4.22386 6.90186 4.5 6.90186C4.77614 6.90186 5 7.12571 5 7.40186ZM7.5 13.0981C7.77614 13.0981 8 12.8743 8 12.5981C8 12.322 7.77614 12.0981 7.5 12.0981C7.22386 12.0981 7 12.322 7 12.5981C7 12.8743 7.22386 13.0981 7.5 13.0981ZM3.90195 11.5C3.90195 11.7761 3.67809 12 3.40195 12C3.1258 12 2.90195 11.7761 2.90195 11.5C2.90195 11.2239 3.1258 11 3.40195 11C3.67809 11 3.90195 11.2239 3.90195 11.5ZM8.59805 9C8.8742 9 9.09805 8.77614 9.09805 8.5C9.09805 8.22386 8.8742 8 8.59805 8C8.32191 8 8.09805 8.22386 8.09805 8.5C8.09805 8.77614 8.32191 9 8.59805 9ZM15.5002 3.0127C15.5002 3.28884 15.2763 3.5127 15.0002 3.5127C14.7241 3.5127 14.5002 3.28884 14.5002 3.0127C14.5002 2.73655 14.7241 2.5127 15.0002 2.5127C15.2763 2.5127 15.5002 2.73655 15.5002 3.0127Z" fill="black"/>
</g>
<defs>
<clipPath id="clip0_3_14127">
<rect width="16" height="16" fill="white"/>
</clipPath>
</defs>
</svg>
