<svg width="16" height="16" viewBox="0 0 16 16" fill="none" xmlns="http://www.w3.org/2000/svg">
<path fill-rule="evenodd" clip-rule="evenodd" d="M12.075 1.24005C12.3584 1.08377 12.6764 1.00124 13 1.00005C13.3417 0.997693 13.6782 1.08351 13.977 1.24922C14.2758 1.41492 14.5268 1.6549 14.7058 1.94596C14.8848 2.23703 14.9856 2.56933 14.9986 2.91077C15.0116 3.2522 14.9363 3.59122 14.78 3.89505L11.36 10.5H9.97002C9.99012 10.3341 10.0001 10.1672 10 10C10 9.20892 9.76543 8.43556 9.3259 7.77777C8.88638 7.11997 8.26166 6.60728 7.53076 6.30453C6.79985 6.00178 5.99559 5.92257 5.21966 6.07691C4.44374 6.23125 3.73101 6.61221 3.1716 7.17162C2.61219 7.73103 2.23122 8.44376 2.07688 9.21969C1.92254 9.99561 2.00175 10.7999 2.3045 11.5308C2.60725 12.2617 3.11994 12.8864 3.77774 13.3259C4.43554 13.7655 5.2089 14 6.00002 14C6.33722 13.9995 6.67307 13.9575 7.00002 13.875V14.895C6.67144 14.9659 6.33616 15.0011 6.00002 15C4.8631 15.0011 3.75984 14.6143 2.8725 13.9035C1.98516 13.1927 1.36685 12.2005 1.11972 11.0908C0.872598 9.98105 1.01144 8.82021 1.51332 7.80007C2.0152 6.77992 2.85008 5.96151 3.88002 5.48005L12.075 1.24005ZM9.52821 6.46697C10.2646 7.20071 10.7546 8.14539 10.93 9.17005L13.095 4.99005C13.0768 4.99005 13.06 4.99274 13.0438 4.99534C13.0289 4.99774 13.0144 5.00005 13 5.00005C12.7374 5.00012 12.4773 4.94844 12.2346 4.84795C11.9919 4.74747 11.7714 4.60015 11.5856 4.41442C11.3999 4.22869 11.2526 4.00818 11.1521 3.7655C11.0516 3.52282 11 3.26271 11 3.00005C11 2.98187 11.0027 2.96505 11.0053 2.94887C11.0077 2.93389 11.01 2.91947 11.01 2.90505L6.82002 5.07505C7.84531 5.24677 8.79178 5.73322 9.52821 6.46697ZM12.4445 3.83152C12.6089 3.9414 12.8022 4.00005 13 4.00005C13.265 3.99928 13.5189 3.89368 13.7063 3.70631C13.8937 3.51894 13.9993 3.26503 14 3.00005C14 2.80227 13.9414 2.60893 13.8315 2.44448C13.7216 2.28003 13.5654 2.15186 13.3827 2.07617C13.2 2.00048 12.9989 1.98068 12.8049 2.01926C12.611 2.05785 12.4328 2.15309 12.2929 2.29294C12.1531 2.43279 12.0578 2.61098 12.0192 2.80496C11.9807 2.99894 12.0005 3.2 12.0761 3.38273C12.1518 3.56546 12.28 3.72164 12.4445 3.83152ZM6 12C5.60444 12 5.21776 11.8827 4.88886 11.6629C4.55996 11.4432 4.30362 11.1308 4.15224 10.7654C4.00087 10.3999 3.96126 9.99778 4.03843 9.60982C4.1156 9.22186 4.30608 8.86549 4.58579 8.58579C4.86549 8.30608 5.22186 8.1156 5.60982 8.03843C5.99778 7.96126 6.39992 8.00087 6.76537 8.15224C7.13082 8.30362 7.44318 8.55996 7.66294 8.88886C7.8827 9.21776 8 9.60444 8 10C7.99944 10.5303 7.78855 11.0386 7.4136 11.4136C7.03865 11.7886 6.53026 11.9994 6 12ZM6 9C5.80222 9 5.60888 9.05865 5.44443 9.16853C5.27998 9.27841 5.15181 9.43459 5.07612 9.61732C5.00043 9.80004 4.98063 10.0011 5.01922 10.1951C5.0578 10.3891 5.15304 10.5673 5.29289 10.7071C5.43275 10.847 5.61093 10.9422 5.80491 10.9808C5.99889 11.0194 6.19996 10.9996 6.38268 10.9239C6.56541 10.8482 6.72159 10.72 6.83147 10.5556C6.94135 10.3911 7 10.1978 7 10C6.9997 9.73488 6.89424 9.4807 6.70677 9.29323C6.5193 9.10576 6.26512 9.00031 6 9ZM10.5 13.5899L9.205 12.2949L8.5 12.9999L10.5 14.9999L14 11.4999L13.295 10.7949L10.5 13.5899Z" fill="black"/>
</svg>
