<svg width="16" height="16" viewBox="0 0 16 16" fill="none" xmlns="http://www.w3.org/2000/svg">
<path fill-rule="evenodd" clip-rule="evenodd" d="M14.4136 1.5864C14.7886 1.96135 14.9994 2.46974 15 3C14.9979 3.31227 14.9219 3.61959 14.778 3.89675L10.533 12.0964C10.1964 12.8263 9.6886 13.4642 9.05282 13.9559C8.41703 14.4477 7.67199 14.7787 6.88093 14.9211C6.08988 15.0634 5.27616 15.0128 4.50885 14.7735C3.74154 14.5342 3.04328 14.1133 2.47336 13.5465C1.90344 12.9798 1.47867 12.2839 1.23511 11.5179C0.991547 10.7519 0.936385 9.93852 1.0743 9.14668C1.21222 8.35485 1.53915 7.60797 2.02734 6.96946C2.51553 6.33095 3.15057 5.81964 3.87855 5.47895L12.0731 1.2384C12.3579 1.08413 12.6762 1.00226 13 1C13.5303 1.00056 14.0386 1.21145 14.4136 1.5864ZM13.5556 2.16853C13.3911 2.05865 13.1978 2 13 2C12.7349 2.0003 12.4807 2.10576 12.2932 2.29323C12.1058 2.4807 12.0003 2.73488 12 3C12 3.19778 12.0586 3.39112 12.1685 3.55557C12.2784 3.72002 12.4346 3.84819 12.6173 3.92388C12.8 3.99957 13.0011 4.01937 13.1951 3.98079C13.3891 3.9422 13.5673 3.84696 13.7071 3.70711C13.847 3.56725 13.9422 3.38907 13.9808 3.19509C14.0194 3.00111 13.9996 2.80004 13.9239 2.61732C13.8482 2.43459 13.72 2.27841 13.5556 2.16853ZM11.005 2.94696C11.007 2.93282 11.009 2.91868 11.0097 2.90415L6.8203 5.07325C7.8457 5.24543 8.79209 5.73247 9.52818 6.4668C10.2643 7.20114 10.7536 8.14637 10.9282 9.17135L13.0941 4.9905C13.0798 4.99117 13.0659 4.99315 13.052 4.99513C13.0349 4.99757 13.0178 5 13 5C12.4697 4.99944 11.9614 4.78855 11.5864 4.4136C11.2114 4.03865 11.0006 3.53026 11 3C11 2.98186 11.0025 2.96441 11.005 2.94696ZM3.77772 13.3259C4.43551 13.7654 5.20887 14 6 14C7.06049 13.9988 8.0772 13.577 8.82708 12.8271C9.57696 12.0772 9.99878 11.0605 10 10C10 9.20887 9.7654 8.43552 9.32588 7.77772C8.88635 7.11992 8.26164 6.60723 7.53073 6.30448C6.79983 6.00173 5.99556 5.92252 5.21964 6.07686C4.44371 6.2312 3.73098 6.61216 3.17157 7.17157C2.61216 7.73098 2.2312 8.44371 2.07686 9.21964C1.92252 9.99556 2.00173 10.7998 2.30448 11.5307C2.60723 12.2616 3.11992 12.8864 3.77772 13.3259ZM4.92646 11.6629C5.25536 11.8827 5.64204 12 6.0376 12C6.56786 11.9994 7.07625 11.7886 7.4512 11.4136C7.82615 11.0386 8.03704 10.5303 8.0376 10C8.0376 9.60444 7.9203 9.21776 7.70054 8.88886C7.48078 8.55996 7.16842 8.30362 6.80297 8.15224C6.43751 8.00087 6.03538 7.96126 5.64742 8.03843C5.25946 8.1156 4.90309 8.30608 4.62339 8.58579C4.34368 8.86549 4.1532 9.22186 4.07603 9.60982C3.99886 9.99778 4.03846 10.3999 4.18984 10.7654C4.34121 11.1308 4.59756 11.4432 4.92646 11.6629ZM5.48203 9.16853C5.64648 9.05865 5.83982 9 6.0376 9C6.30272 9.00031 6.5569 9.10576 6.74437 9.29323C6.93184 9.4807 7.03729 9.73488 7.0376 10C7.0376 10.1978 6.97895 10.3911 6.86907 10.5556C6.75919 10.72 6.60301 10.8482 6.42028 10.9239C6.23756 10.9996 6.03649 11.0194 5.84251 10.9808C5.64853 10.9422 5.47035 10.847 5.33049 10.7071C5.19064 10.5673 5.0954 10.3891 5.05681 10.1951C5.01823 10.0011 5.03803 9.80004 5.11372 9.61732C5.18941 9.43459 5.31758 9.27841 5.48203 9.16853Z" fill="black"/>
</svg>
