<svg width="16" height="16" viewBox="0 0 16 16" fill="none" xmlns="http://www.w3.org/2000/svg">
<path fill-rule="evenodd" clip-rule="evenodd" d="M10.65 2.45L8.4 1.1C8.36869 1.08956 8.33956 1.07913 8.3117 1.06915C8.20608 1.03131 8.11869 1 8 1C7.85 1 7.75 1.05 7.65 1.1L5.4 2.45C5.15 2.6 5 2.85 5 3.1V5.9C5 6.15 5.15 6.4 5.35 6.55L7.6 7.9C7.7 7.95 7.85 8 7.95 8C8.05 8 8.2 7.95 8.3 7.9L10.55 6.55C10.75 6.4 10.9 6.2 10.9 5.9V3.1C11 2.85 10.85 2.6 10.65 2.45ZM10 5.75L8 6.95L6 5.75V3.25L8 2.05L10 3.25V5.75ZM14.65 9.45L12.4 8.1C12.3687 8.08956 12.3396 8.07913 12.3117 8.06915C12.2061 8.03131 12.1187 8 12 8C11.85 8 11.75 8.05 11.65 8.1L9.4 9.45C9.2 9.6 9.05 9.8 9.05 10.1V12.9C9.05 13.15 9.2 13.4 9.4 13.55L11.65 14.9C11.75 14.95 11.9 15 12 15C12.1 15 12.25 14.95 12.35 14.9L14.6 13.55C14.8 13.4 14.95 13.2 14.95 12.9V10.1C15 9.85 14.85 9.6 14.65 9.45ZM14 12.75L12 13.95L10 12.75V10.25L12 9.05L14 10.25V12.75ZM4.4 8.1L6.65 9.45C6.85 9.6 7 9.85 6.95 10.1V12.9C6.95 13.2 6.8 13.4 6.6 13.55L4.35 14.9C4.25 14.95 4.15 15 4 15C3.88131 15 3.79392 14.9687 3.6883 14.9309C3.66044 14.9209 3.63131 14.9104 3.6 14.9L1.35 13.55C1.15 13.4 1 13.15 1 12.9V10.1C1 9.85 1.15 9.6 1.4 9.45L3.65 8.1C3.75 8.05 3.85 8 4 8C4.11869 8 4.20608 8.03131 4.3117 8.06915C4.33956 8.07913 4.36869 8.08956 4.4 8.1ZM2 12.75L4 13.95L6 12.75V10.25L4 9.05L2 10.25V12.75Z" fill="black"/>
</svg>
