<svg width="16" height="16" viewBox="0 0 16 16" fill="none" xmlns="http://www.w3.org/2000/svg">
<path fill-rule="evenodd" clip-rule="evenodd" d="M8.5 1.15L13.5 4.1C13.8 4.25 14 4.6 14 4.95V11.05C14 11.4 13.8 11.7 13.5 11.9L8.5 14.85C8.35 14.95 8.15 15 8 15C7.85 15 7.65 14.95 7.5 14.85L2.5 11.9C2.2 11.75 2 11.4 2 11.05V4.95C2 4.6 2.2 4.3 2.5 4.1L7.5 1.15C7.65 1.05 7.8 1 8 1C8.2 1 8.35 1.05 8.5 1.15ZM8 14L13 11.05V4.95L8 2L3 4.95V11.05L8 14ZM4 10.3498L8 12.6998L12 10.3498V5.64981L8 3.2998L4 5.64981V10.3498ZM8 11.5498L5 9.7998V6.2498L8 4.4998L11 6.2498V9.7998L8 11.5498Z" fill="black"/>
</svg>
