<svg width="16" height="16" viewBox="0 0 16 16" fill="none" xmlns="http://www.w3.org/2000/svg">
<path d="M8 1.50011C7.14493 1.4948 6.29731 1.6593 5.50629 1.98408C4.71528 2.30885 3.99661 2.78744 3.39197 3.39208C2.78733 3.99672 2.30874 4.71538 1.98397 5.5064C1.65919 6.29741 1.49469 7.14504 1.5 8.00011V8.50011C1.5 10.224 2.18482 11.8773 3.40381 13.0963C4.6228 14.3153 6.2761 15.0001 8 15.0001H11.5V14.0001H8C6.54131 14.0001 5.14237 13.4206 4.11092 12.3892C3.07947 11.3577 2.5 9.9588 2.5 8.50011V8.00011C2.49602 7.27673 2.63557 6.55974 2.91056 5.89065C3.18555 5.22157 3.59053 4.61367 4.10205 4.10215C4.61356 3.59064 5.22146 3.18566 5.89055 2.91067C6.55963 2.63568 7.27662 2.49613 8 2.50011C8.72904 2.475 9.45546 2.60008 10.1341 2.8676C10.8128 3.13511 11.4291 3.53933 11.945 4.05515C12.4608 4.57097 12.865 5.18735 13.1325 5.866C13.4 6.54465 13.5251 7.27107 13.5 8.00011C13.5 9.79511 12.8 10.5001 11.67 10.5001C10.88 10.5001 10.5 9.85511 10.5 9.00011V5.00011H9.5V5.97011C9.32566 5.66318 9.07008 5.41026 8.76134 5.23914C8.45261 5.06801 8.10268 4.9853 7.75 5.00011C7.02503 4.99745 6.32855 5.28221 5.81311 5.79202C5.29767 6.30184 5.00529 6.99515 5 7.72011V8.78011C5.00529 9.50507 5.29767 10.1984 5.81311 10.7082C6.32855 11.218 7.02503 11.5028 7.75 11.5001C8.16697 11.5123 8.57842 11.4024 8.93375 11.1839C9.28908 10.9654 9.5728 10.6478 9.75 10.2701C9.92749 10.638 10.205 10.9485 10.5507 11.1661C10.8965 11.3836 11.2965 11.4994 11.705 11.5001C13.24 11.5001 14.5 10.5001 14.5 8.00011C14.5191 7.14128 14.3641 6.28748 14.0442 5.49022C13.7243 4.69296 13.2462 3.96877 12.6388 3.36134C12.0313 2.7539 11.3072 2.27582 10.5099 1.95593C9.71263 1.63605 8.85883 1.48099 8 1.50011ZM9.5 8.78011C9.5 9.24424 9.31563 9.68936 8.98744 10.0175C8.65925 10.3457 8.21413 10.5301 7.75 10.5301C7.28587 10.5301 6.84075 10.3457 6.51257 10.0175C6.18438 9.68936 6 9.24424 6 8.78011V7.72011C6 7.25598 6.18438 6.81086 6.51257 6.48267C6.84075 6.15449 7.28587 5.97011 7.75 5.97011C8.21413 5.97011 8.65925 6.15449 8.98744 6.48267C9.31563 6.81086 9.5 7.25598 9.5 7.72011V8.78011Z" fill="black"/>
</svg>
