<svg width="16" height="16" viewBox="0 0 16 16" fill="none" xmlns="http://www.w3.org/2000/svg">
<g clip-path="url(#clip0_3_14119)">
<path d="M14.05 9.45009L6.55001 1.95009C5.30001 0.650092 3.25001 0.650092 1.95001 1.90009C0.650006 3.15009 0.650006 5.25009 1.95001 6.50009L2.00001 6.55009L3.40001 8.00009L4.10001 7.30009L2.65001 5.85009C1.80001 5.00009 1.80001 3.55009 2.65001 2.70009C3.50001 1.85009 4.95001 1.80009 5.80001 2.65009C5.80001 2.65009 5.80001 2.65009 5.85001 2.70009L13.3 10.1501C14.2 11.0001 14.2 12.4501 13.35 13.3001C12.5 14.2001 11.05 14.2001 10.2 13.3501C10.2 13.3501 10.2 13.3501 10.15 13.3001L6.45001 9.60009C5.95001 9.10009 6.00001 8.30009 6.45001 7.85009C6.95001 7.40009 7.70001 7.40009 8.20001 7.85009L10.25 9.90009L10.95 9.20009L8.85001 7.10009C7.95001 6.25009 6.55001 6.30009 5.70001 7.20009C4.90001 8.05009 4.90001 9.40009 5.70001 10.3001L9.45001 14.0501C10.7 15.3501 12.75 15.3501 14.05 14.1001C15.35 12.8501 15.35 10.7501 14.05 9.45009C14.05 9.50009 14.05 9.45009 14.05 9.45009Z" fill="black"/>
</g>
<defs>
<clipPath id="clip0_3_14119">
<rect width="16" height="16" fill="white"/>
</clipPath>
</defs>
</svg>
