<svg width="16" height="16" viewBox="0 0 16 16" fill="none" xmlns="http://www.w3.org/2000/svg">
<path fill-rule="evenodd" clip-rule="evenodd" d="M2.79323 14.7068C2.9807 14.8942 3.23488 14.9997 3.5 15H10C10.2651 14.9997 10.5193 14.8942 10.7068 14.7068C10.8942 14.5193 10.9997 14.2651 11 14V12H10V14H3.5V2H10V1H3.5C3.23488 1.0003 2.9807 1.10576 2.79323 1.29323C2.60576 1.4807 2.5003 1.73488 2.5 2V14C2.5003 14.2651 2.60576 14.5193 2.79323 14.7068ZM13.7236 4.55276L10.7236 3.05276C10.6542 3.01806 10.5776 3 10.5 3C10.4224 3 10.3458 3.01806 10.2764 3.05276L7.27635 4.55276C7.1933 4.5943 7.12346 4.65814 7.07465 4.73713C7.02584 4.81613 6.99999 4.90715 7 5.00001V8.50001C6.99999 8.59287 7.02584 8.6839 7.07465 8.76289C7.12346 8.84188 7.1933 8.90573 7.27635 8.94726L10.2764 10.4473C10.3458 10.482 10.4224 10.5 10.5 10.5C10.5776 10.5 10.6542 10.482 10.7236 10.4473L13.7236 8.94726C13.8067 8.90573 13.8765 8.84188 13.9254 8.76289C13.9742 8.6839 14 8.59287 14 8.50001V5.00001C14 4.90715 13.9742 4.81613 13.9254 4.73713C13.8765 4.65814 13.8067 4.5943 13.7236 4.55276ZM10.5 4.05911L12.3819 5.00001L10.5 5.94091L8.61815 5.00001L10.5 4.05911ZM8 5.80911L10 6.80911V9.19091L8 8.19091V5.80911ZM11 9.19091V6.80911L13 5.80911V8.19091L11 9.19091ZM6.75 13C7.16421 13 7.5 12.6642 7.5 12.25C7.5 11.8358 7.16421 11.5 6.75 11.5C6.33579 11.5 6 11.8358 6 12.25C6 12.6642 6.33579 13 6.75 13Z" fill="black"/>
</svg>
