<svg width="16" height="16" viewBox="0 0 16 16" fill="none" xmlns="http://www.w3.org/2000/svg">
<path fill-rule="evenodd" clip-rule="evenodd" d="M12.6077 5H10V6H14V2H13V3.84245C12.145 2.81532 10.9943 2.07657 9.70453 1.72674C8.41472 1.37691 7.04845 1.43299 5.79165 1.88735C4.53485 2.34172 3.44858 3.17229 2.68067 4.26604C1.91275 5.35979 1.50049 6.66359 1.5 8H2.5C2.49969 6.81445 2.88255 5.66056 3.59151 4.71035C4.30047 3.76014 5.29755 3.06452 6.4341 2.72719C7.57064 2.38986 8.78577 2.4289 9.89832 2.83848C11.0109 3.24806 11.9612 4.00625 12.6077 5ZM13 8H11C10.7349 8.00026 10.4807 8.10571 10.2932 8.29319C10.1057 8.48066 10.0003 8.73486 10 9V15H11V12.5H13V15H14V9C13.9997 8.73486 13.8943 8.48066 13.7068 8.29319C13.5193 8.10571 13.2651 8.00026 13 8ZM11 11.5V9H13V11.5H11ZM8 13.5C7.08446 13.5003 6.18336 13.2717 5.37863 12.8351C4.5739 12.3985 3.89106 11.7677 3.3922 11H6V10H2V14H3V12.1574C3.61091 12.8904 4.37541 13.4801 5.23943 13.8849C6.10344 14.2897 7.04586 14.4997 8 14.5V13.5Z" fill="black"/>
</svg>
