<svg width="16" height="16" viewBox="0 0 16 16" fill="none" xmlns="http://www.w3.org/2000/svg">
<path fill-rule="evenodd" clip-rule="evenodd" d="M8.5 1H7.5V3.48H8.5V1ZM12.597 2.69169L10.8433 4.44531L11.5504 5.15242L13.3041 3.39879L12.597 2.69169ZM12.52 7.5H15V8.5H12.52V7.5ZM11.5534 10.8447L10.8463 11.5518L12.5999 13.3054L13.307 12.5983L11.5534 10.8447ZM7.5 12.52H8.5V15H7.5V12.52ZM4.45197 10.8476L2.69835 12.6012L3.40546 13.3083L5.15908 11.5547L4.45197 10.8476ZM1 7.5H3.48V8.5H1V7.5ZM3.40253 2.69463L2.69542 3.40173L4.44904 5.15536L5.15615 4.44825L3.40253 2.69463ZM9.11114 6.33706C8.78224 6.1173 8.39556 6 8 6C7.46957 6 6.96086 6.21071 6.58579 6.58579C6.21071 6.96086 6 7.46957 6 8C6 8.39556 6.1173 8.78224 6.33706 9.11114C6.55683 9.44004 6.86918 9.69638 7.23463 9.84776C7.60009 9.99914 8.00222 10.0387 8.39018 9.96157C8.77814 9.8844 9.13451 9.69392 9.41421 9.41421C9.69392 9.13451 9.8844 8.77814 9.96157 8.39018C10.0387 8.00222 9.99914 7.60009 9.84776 7.23463C9.69639 6.86918 9.44004 6.55682 9.11114 6.33706ZM6.33329 5.50559C6.82664 5.17595 7.40666 5 8 5C8.79565 5 9.55871 5.31607 10.1213 5.87868C10.6839 6.44129 11 7.20435 11 8C11 8.59334 10.8241 9.17336 10.4944 9.66671C10.1648 10.1601 9.69623 10.5446 9.14805 10.7716C8.59987 10.9987 7.99667 11.0581 7.41473 10.9424C6.83279 10.8266 6.29824 10.5409 5.87868 10.1213C5.45912 9.70176 5.1734 9.16721 5.05765 8.58527C4.94189 8.00333 5.0013 7.40013 5.22836 6.85195C5.45543 6.30377 5.83994 5.83524 6.33329 5.50559Z" fill="black"/>
</svg>
