<svg width="16" height="16" viewBox="0 0 16 16" fill="none" xmlns="http://www.w3.org/2000/svg">
<path fill-rule="evenodd" clip-rule="evenodd" d="M7 3H5V11H2.00245C1.87079 11 1.74043 10.9741 1.61879 10.9237C1.49716 10.8733 1.38664 10.7995 1.29355 10.7064C1.20046 10.6133 1.12662 10.5028 1.07625 10.3811C1.02588 10.2595 0.999974 10.1291 1 9.99745V3.00245C0.999987 2.8708 1.02591 2.74044 1.07628 2.61881C1.12665 2.49718 1.20049 2.38667 1.29358 2.29358C1.38667 2.20049 1.49718 2.12665 1.61881 2.07628C1.74044 2.02591 1.8708 1.99999 2.00245 2H12.9976C13.1292 1.99999 13.2596 2.02591 13.3812 2.07628C13.5028 2.12665 13.6133 2.20049 13.7064 2.29358C13.7995 2.38667 13.8733 2.49718 13.9237 2.61881C13.9741 2.74044 14 2.8708 14 3.00245V6H13V3H11V6H10V3H8V6H7V3ZM2 10H4V3H2V10ZM14 9H12.5V8C12.4997 7.73488 12.3942 7.4807 12.2068 7.29323C12.0193 7.10576 11.7651 7.0003 11.5 7H9.5C9.23488 7.0003 8.9807 7.10576 8.79323 7.29323C8.60576 7.4807 8.5003 7.73488 8.5 8V9H7C6.73488 9.0003 6.4807 9.10576 6.29323 9.29323C6.10576 9.4807 6.0003 9.73488 6 10V14C6.0003 14.2651 6.10576 14.5193 6.29323 14.7068C6.4807 14.8942 6.73488 14.9997 7 15H14C14.2651 14.9997 14.5193 14.8942 14.7068 14.7068C14.8942 14.5193 14.9997 14.2651 15 14V10C14.9997 9.73488 14.8942 9.4807 14.7068 9.29323C14.5193 9.10576 14.2651 9.0003 14 9ZM9.5 8H11.5V9H9.5V8ZM14 14H7V10H14V14ZM3 14C3.55228 14 4 13.5523 4 13C4 12.4477 3.55228 12 3 12C2.44772 12 2 12.4477 2 13C2 13.5523 2.44772 14 3 14Z" fill="black"/>
</svg>
