<svg width="16" height="16" viewBox="0 0 16 16" fill="none" xmlns="http://www.w3.org/2000/svg">
<path fill-rule="evenodd" clip-rule="evenodd" d="M4.99997 0.5H7.49997C7.63258 0.5 7.75976 0.552678 7.85353 0.646447C7.94729 0.740215 7.99997 0.867392 7.99997 1V4H6.99997V1.5H5.49997V5.36035L5.15817 5.47435C5.11547 5.49 3.99997 5.90625 3.99997 7.5V14H5.99997V15H3.49997C3.36737 15 3.24019 14.9473 3.14642 14.8536C3.05265 14.7598 2.99997 14.6326 2.99997 14.5V7.5C2.96533 6.93802 3.08717 6.37744 3.35197 5.88055C3.61677 5.38366 4.01416 4.96992 4.49997 4.6853V1C4.49997 0.867392 4.55265 0.740215 4.64642 0.646447C4.74019 0.552678 4.86737 0.5 4.99997 0.5ZM7.49997 5.5H12.5C12.6326 5.5 12.7598 5.55268 12.8535 5.64645C12.9473 5.74021 13 5.86739 13 6V8C12.9988 8.70831 12.7472 9.3934 12.2897 9.93415C11.8323 10.4749 11.1983 10.8365 10.5 10.955V14H12V15H7.99997V14H9.49997V10.955C8.80164 10.8365 8.1677 10.4749 7.71021 9.93415C7.25272 9.3934 7.00115 8.70831 6.99997 8V6C6.99997 5.86739 7.05265 5.74021 7.14642 5.64645C7.24019 5.55268 7.36736 5.5 7.49997 5.5ZM11.4142 9.41421C11.7893 9.03914 12 8.53043 12 8V6.5H7.99997V8C7.99997 8.53043 8.21069 9.03914 8.58576 9.41421C8.96083 9.78929 9.46954 10 9.99997 10C10.5304 10 11.0391 9.78929 11.4142 9.41421Z" fill="black"/>
</svg>
