<svg width="16" height="16" viewBox="0 0 16 16" fill="none" xmlns="http://www.w3.org/2000/svg">
<path fill-rule="evenodd" clip-rule="evenodd" d="M3 5H13C13.2651 4.9997 13.5193 4.89424 13.7068 4.70677C13.8942 4.5193 13.9997 4.26512 14 4V2C13.9997 1.73488 13.8942 1.4807 13.7068 1.29323C13.5193 1.10576 13.2651 1.0003 13 1H3C2.73488 1.0003 2.4807 1.10576 2.29323 1.29323C2.10576 1.4807 2.0003 1.73488 2 2V4C2.0003 4.26512 2.10576 4.5193 2.29323 4.70677C2.4807 4.89424 2.73488 4.9997 3 5ZM3 4V2H13V4H3ZM4.5 3.5C4.77614 3.5 5 3.27614 5 3C5 2.72386 4.77614 2.5 4.5 2.5C4.22386 2.5 4 2.72386 4 3C4 3.27614 4.22386 3.5 4.5 3.5ZM3 10H13C13.2651 9.9997 13.5193 9.89424 13.7068 9.70677C13.8942 9.5193 13.9997 9.26512 14 9V7C13.9997 6.73488 13.8942 6.4807 13.7068 6.29323C13.5193 6.10576 13.2651 6.0003 13 6H3C2.73488 6.0003 2.4807 6.10576 2.29323 6.29323C2.10576 6.4807 2.0003 6.73488 2 7V9C2.0003 9.26512 2.10576 9.5193 2.29323 9.70677C2.4807 9.89424 2.73488 9.9997 3 10ZM3 9V7H13V9H3ZM4.5 8.5C4.77614 8.5 5 8.27614 5 8C5 7.72386 4.77614 7.5 4.5 7.5C4.22386 7.5 4 7.72386 4 8C4 8.27614 4.22386 8.5 4.5 8.5ZM8.5 14V11H7.5V14H2.5V15H13.5V14H8.5Z" fill="black"/>
</svg>
