<svg width="16" height="16" viewBox="0 0 16 16" fill="none" xmlns="http://www.w3.org/2000/svg">
<path fill-rule="evenodd" clip-rule="evenodd" d="M3 10H13C13.2651 9.9997 13.5193 9.89424 13.7068 9.70677C13.8942 9.5193 13.9997 9.26512 14 9V7C13.9997 6.73488 13.8942 6.4807 13.7068 6.29323C13.5193 6.10576 13.2651 6.0003 13 6H3C2.73488 6.0003 2.4807 6.10576 2.29323 6.29323C2.10576 6.4807 2.0003 6.73488 2 7V9C2.0003 9.26512 2.10576 9.5193 2.29323 9.70677C2.4807 9.89424 2.73488 9.9997 3 10ZM3 9V7H13V9H3ZM4.5 8.5C4.77614 8.5 5 8.27614 5 8C5 7.72386 4.77614 7.5 4.5 7.5C4.22386 7.5 4 7.72386 4 8C4 8.27614 4.22386 8.5 4.5 8.5ZM8.5 14V11H7.5V14H2.5V15H13.5V14H8.5Z" fill="black"/>
</svg>
