<svg width="16" height="16" viewBox="0 0 16 16" fill="none" xmlns="http://www.w3.org/2000/svg">
<path d="M13.7636 1.3545C13.6698 1.24333 13.5529 1.15399 13.421 1.09276C13.2891 1.03152 13.1454 0.999864 12.9999 1H11.6545C11.5152 0.999987 11.3786 1.03878 11.2601 1.11203C11.1416 1.18527 11.0458 1.29008 10.9835 1.4147L10.6908 2H9.99995V1.75C9.99995 1.55109 9.92093 1.36032 9.78028 1.21967C9.63962 1.07902 9.44886 1 9.24995 1H6.74995C6.55103 1 6.36027 1.07902 6.21962 1.21967C6.07896 1.36032 5.99995 1.55109 5.99995 1.75V2H5.30905L5.01655 1.415C4.95418 1.29029 4.85831 1.18541 4.73969 1.11211C4.62107 1.03881 4.48438 0.999991 4.34495 1H2.99995C2.85455 1.00003 2.71091 1.03176 2.57903 1.09299C2.44716 1.15422 2.33022 1.24346 2.23637 1.35451C2.14252 1.46556 2.07401 1.59574 2.03562 1.73598C1.99723 1.87621 1.98989 2.02313 2.0141 2.1665L2.36615 4.25C2.42522 4.59949 2.60614 4.91676 2.87684 5.14557C3.14753 5.37439 3.4905 5.49995 3.84495 5.5H3.99995V11.5C3.60226 11.5004 3.22098 11.6586 2.93977 11.9398C2.65856 12.221 2.50038 12.6023 2.49995 13V15H13.4999V13C13.4995 12.6023 13.3413 12.221 13.0601 11.9398C12.7789 11.6586 12.3976 11.5004 11.9999 11.5V5.5H12.1549C12.5094 5.49998 12.8524 5.37444 13.1231 5.14562C13.3939 4.91681 13.5748 4.59951 13.6339 4.25L13.9859 2.1665C14.0104 2.02313 14.0031 1.87615 13.9647 1.73588C13.9263 1.59561 13.8576 1.46544 13.7636 1.3545ZM12.4999 13V14H3.49995V13C3.50007 12.8674 3.55278 12.7403 3.64652 12.6466C3.74027 12.5528 3.86737 12.5001 3.99995 12.5H11.9999C12.1325 12.5001 12.2596 12.5528 12.3534 12.6466C12.4471 12.7403 12.4998 12.8674 12.4999 13ZM10.9999 11.5H4.99995V5.5H10.9999V11.5ZM12.6479 4.0835C12.6284 4.20007 12.5681 4.30593 12.4779 4.38221C12.3876 4.45849 12.2731 4.50023 12.1549 4.5H3.84495C3.72668 4.50027 3.61217 4.45852 3.52184 4.38218C3.43152 4.30585 3.37125 4.1999 3.3518 4.08325L2.99995 2H4.19085L4.69085 3H6.99995V2H8.99995V3H11.3085L11.809 2H12.9999L12.6479 4.0835Z" fill="black"/>
</svg>
