<svg width="16" height="16" viewBox="0 0 16 16" fill="none" xmlns="http://www.w3.org/2000/svg">
<g clip-path="url(#clip0_3_14085)">
<path d="M15.9547 3.292C15.9148 3.20489 15.8508 3.13106 15.7702 3.0793C15.6896 3.02753 15.5958 3.00001 15.5 3C13.1159 3 11.3697 3.44435 10 4.4219V1.5H9V3H7V1.5H6V4.4219C4.6304 3.44435 2.8842 3 0.500002 3C0.404179 2.99999 0.310372 3.02752 0.229748 3.07931C0.149124 3.1311 0.0850792 3.20496 0.0452376 3.29211C0.00539596 3.37926 -0.00856439 3.47602 0.0050184 3.57087C0.0186012 3.66573 0.059155 3.75469 0.121852 3.82715C0.972702 4.81105 1.5 5.85205 1.5 8C1.5 8.13261 1.55268 8.25979 1.64645 8.35355C1.74022 8.44732 1.86739 8.5 2 8.5C3.3839 8.5 5 9.155 5 11C5.00045 11.1268 5.04886 11.2487 5.13549 11.3413C5.22213 11.4338 5.34058 11.4902 5.46705 11.499C5.675 11.5136 7.5 11.6936 7.5 13.5C7.5 13.6326 7.55268 13.7598 7.64645 13.8536C7.74022 13.9473 7.86739 14 8 14C8.13261 14 8.25979 13.9473 8.35356 13.8536C8.44732 13.7598 8.5 13.6326 8.5 13.5C8.5 11.6936 10.325 11.5136 10.5311 11.499C10.6581 11.4911 10.7773 11.4351 10.8644 11.3424C10.9515 11.2497 11 11.1272 11 11C11 9.155 12.6161 8.5 14 8.5C14.1326 8.5 14.2598 8.44732 14.3536 8.35355C14.4473 8.25979 14.5 8.13261 14.5 8C14.5 5.85205 15.0274 4.81105 15.8782 3.82715C15.9409 3.75466 15.9814 3.66567 15.995 3.5708C16.0085 3.47592 15.9945 3.37915 15.9547 3.292ZM13.5082 7.522C11.8153 7.67605 10.2315 8.6365 10.0232 10.5613C9.217 10.7082 8.49515 11.1518 8 11.8047C7.50485 11.1519 6.78304 10.7083 5.97695 10.5615C5.76855 8.6365 4.1847 7.67625 2.49195 7.5222C2.50058 6.29124 2.16482 5.08239 1.5226 4.0322C3.5885 4.1684 5.03895 4.74605 6.1466 5.85345C6.21653 5.92332 6.3056 5.97089 6.40255 5.99016C6.49951 6.00942 6.6 5.99952 6.69133 5.96169C6.78265 5.92387 6.86072 5.85982 6.91566 5.77764C6.9706 5.69547 6.99995 5.59885 7 5.5V4H9V5.5C9.00002 5.59888 9.02936 5.69552 9.0843 5.77773C9.13924 5.85993 9.21733 5.924 9.30867 5.96184C9.40002 5.99967 9.50054 6.00958 9.59752 5.99029C9.69449 5.97101 9.78358 5.9234 9.8535 5.8535C10.9612 4.7461 12.4116 4.1685 14.4775 4.03225C13.8353 5.08242 13.4995 6.29125 13.5082 7.5222V7.522Z" fill="black"/>
</g>
<defs>
<clipPath id="clip0_3_14085">
<rect width="16" height="16" fill="white"/>
</clipPath>
</defs>
</svg>
