<svg width="16" height="16" viewBox="0 0 16 16" fill="none" xmlns="http://www.w3.org/2000/svg">
<path fill-rule="evenodd" clip-rule="evenodd" d="M6 8.5H10C10.5523 8.5 11 8.0523 11 7.5V2C11 1.4477 10.5523 1 10 1H6C5.4477 1 5 1.4477 5 2V7.5C5 8.0523 5.4477 8.5 6 8.5ZM10 7.5H6V2H10V7.5ZM14.9494 12H16V13H14.9494C14.8845 13.3186 14.7573 13.6142 14.5835 13.8764L15.3284 14.6213L14.6213 15.3284L13.8764 14.5835C13.6142 14.7573 13.3186 14.8845 13 14.9494V16H12V14.9494C11.6814 14.8845 11.3858 14.7573 11.1236 14.5835L10.3787 15.3284L9.67165 14.6213L10.4165 13.8764C10.2427 13.6142 10.1155 13.3186 10.0506 13H9V12H10.0506C10.1155 11.6814 10.2427 11.3858 10.4165 11.1236L9.67165 10.3787L10.3787 9.67165L11.1236 10.4165C11.3858 10.2427 11.6814 10.1155 12 10.0506V9H13V10.0506C13.3186 10.1155 13.6142 10.2427 13.8764 10.4165L14.6213 9.67165L15.3284 10.3787L14.5835 11.1236C14.7573 11.3858 14.8845 11.6814 14.9494 12ZM11 12.5C11 13.3272 11.6728 14 12.5 14C13.3272 14 14 13.3272 14 12.5C14 11.6728 13.3272 11 12.5 11C11.6728 11 11 11.6728 11 12.5ZM8.5 10.5H4C3.4477 10.5 3 10.0523 3 9.5V3.5H4V9.5H8.5V10.5ZM2 12.5H6.5V11.5H2V5.5H1V11.5C1 12.0514 1.4486 12.5 2 12.5Z" fill="black"/>
</svg>
