<svg width="16" height="16" viewBox="0 0 16 16" fill="none" xmlns="http://www.w3.org/2000/svg">
<path fill-rule="evenodd" clip-rule="evenodd" d="M3 12H12C12.2651 11.9996 12.5193 11.8942 12.7067 11.7067C12.8942 11.5193 12.9996 11.2651 13 11V10.5H13.5C13.7651 10.4996 14.0193 10.3942 14.2067 10.2067C14.3942 10.0193 14.4996 9.76511 14.5 9.5V6.5C14.4997 6.23488 14.3942 5.9807 14.2068 5.79323C14.0193 5.60576 13.7651 5.5003 13.5 5.5H13V5C12.9997 4.73488 12.8942 4.4807 12.7068 4.29323C12.5193 4.10576 12.2651 4.0003 12 4H3C2.73486 4.00026 2.48066 4.10571 2.29319 4.29319C2.10571 4.48066 2.00026 4.73486 2 5V11C2.0003 11.2651 2.10576 11.5193 2.29323 11.7068C2.4807 11.8942 2.73488 11.9997 3 12ZM3 11V5H12V6.5H13.5V9.5H12V11H3ZM5 6V10H4V6H5Z" fill="black"/>
</svg>
