<svg width="16" height="16" viewBox="0 0 16 16" fill="none" xmlns="http://www.w3.org/2000/svg">
<path fill-rule="evenodd" clip-rule="evenodd" d="M6.5 5C7.05228 5 7.5 4.55228 7.5 4C7.5 3.44772 7.05228 3 6.5 3C5.94772 3 5.5 3.44772 5.5 4C5.5 4.55228 5.94772 5 6.5 5ZM9.5 5C10.0523 5 10.5 4.55228 10.5 4C10.5 3.44772 10.0523 3 9.5 3C8.94771 3 8.5 3.44772 8.5 4C8.5 4.55228 8.94771 5 9.5 5ZM15.743 4.13617C15.815 4.18423 15.8711 4.25256 15.9042 4.3325C15.9373 4.41245 15.9459 4.50043 15.9291 4.58531C15.9122 4.67019 15.8705 4.74816 15.8093 4.80935L15.7577 4.86085C15.3215 5.21355 15.0063 5.69359 14.856 6.23401C14.7058 6.77443 14.7279 7.34828 14.9194 7.8755C14.9388 7.94078 14.9426 8.00968 14.9307 8.07671C14.9187 8.14375 14.8913 8.20707 14.8506 8.26164C14.8099 8.31621 14.757 8.36052 14.6961 8.39105C14.6352 8.42158 14.5681 8.43749 14.5 8.4375C14.3049 8.42204 14.1087 8.44629 13.9232 8.50877C13.7378 8.57126 13.5669 8.67069 13.4209 8.80105C12.9318 9.29175 12.9352 10.2446 12.9375 10.875V11C12.9375 11.116 12.8914 11.2273 12.8094 11.3094C12.7273 11.3914 12.616 11.4375 12.5 11.4375H10.4375V11.5C10.4375 12.1465 10.1807 12.7665 9.72357 13.2236C9.26645 13.6807 8.64646 13.9375 8 13.9375C7.35353 13.9375 6.73355 13.6807 6.27643 13.2236C5.81931 12.7665 5.5625 12.1465 5.5625 11.5V11.4375H3.5C3.44255 11.4375 3.38566 11.4261 3.33259 11.4041C3.27953 11.3821 3.23132 11.3498 3.19071 11.3092C3.15011 11.2685 3.11791 11.2203 3.09596 11.1672C3.074 11.1141 3.06272 11.0572 3.06275 10.9998V10.8748C3.06505 10.2444 3.0685 9.2915 2.57935 8.8008C2.43333 8.67045 2.2624 8.57105 2.07688 8.50861C1.89137 8.44616 1.69512 8.42198 1.5 8.4375C1.43191 8.43749 1.36476 8.42158 1.3039 8.39105C1.24303 8.36052 1.19013 8.31621 1.14941 8.26164C1.10869 8.20707 1.08126 8.14375 1.06931 8.07671C1.05737 8.00968 1.06123 7.94078 1.0806 7.8755C1.2722 7.3481 1.29435 6.77403 1.14395 6.23344C0.993562 5.69284 0.678135 5.21269 0.2417 4.86L0.1908 4.80955C0.129534 4.74839 0.0877901 4.67043 0.0708525 4.58554C0.0539149 4.50065 0.0625451 4.41264 0.0956505 4.33265C0.128756 4.25267 0.184848 4.1843 0.256827 4.13621C0.328806 4.08812 0.413434 4.06247 0.5 4.0625H1.5C3.605 4.0625 5.3605 5.0635 6.0826 6.5132C6.30738 6.21773 6.59739 5.97821 6.93001 5.81332C7.26263 5.64843 7.62885 5.56264 8.0001 5.56264C8.37135 5.56264 8.73757 5.64843 9.07019 5.81332C9.40281 5.97821 9.69282 6.21773 9.9176 6.5132C10.6395 5.0635 12.395 4.0625 14.5 4.0625H15.5C15.5865 4.06247 15.6711 4.08811 15.743 4.13617ZM9.10433 6.89567C8.81141 6.60275 8.41425 6.43798 8 6.4375C7.58574 6.43798 7.18859 6.60275 6.89567 6.89567C6.60275 7.18859 6.43798 7.58575 6.4375 8V8.0625H9.5625V8C9.56202 7.58575 9.39725 7.18859 9.10433 6.89567ZM9.5625 8.9375H6.4375V10.5625H9.5625V8.9375ZM3.1991 8.1831C3.8452 8.83155 3.92825 9.833 3.93715 10.5625H5.5625V8C5.5625 6.2825 3.7781 4.9375 1.5 4.9375H1.4762C1.75416 5.31708 1.94849 5.75128 2.04638 6.21146C2.14427 6.67164 2.14349 7.14734 2.0441 7.6072C2.48014 7.67276 2.88434 7.87431 3.1991 8.1831ZM9.10485 12.6049C9.39788 12.3118 9.5625 11.9144 9.5625 11.5V11.4375H6.4375V11.5C6.4375 11.9144 6.60212 12.3118 6.89514 12.6049C7.18817 12.8979 7.5856 13.0625 8 13.0625C8.4144 13.0625 8.81183 12.8979 9.10485 12.6049ZM12.8009 8.1831C13.1157 7.87431 13.5199 7.67276 13.9559 7.6072C13.8565 7.14733 13.8558 6.67161 13.9537 6.21143C14.0516 5.75124 14.246 5.31705 14.524 4.9375H14.5C12.2219 4.9375 10.4375 6.2827 10.4375 8V10.5625H12.0628C12.0717 9.8331 12.1548 8.83155 12.8009 8.1831Z" fill="black"/>
</svg>
