<svg width="16" height="16" viewBox="0 0 16 16" fill="none" xmlns="http://www.w3.org/2000/svg">
<path d="M10.3584 6.88521C10.7207 6.60341 11.0124 6.2412 11.2105 5.82722C11.4086 5.41324 11.5078 4.95884 11.5 4.49996C11.5 2.73361 10.0608 1.49996 8 1.49996C7.53329 1.47286 7.06612 1.54483 6.62921 1.71113C6.19229 1.87744 5.7955 2.13431 5.46493 2.46489C5.13436 2.79546 4.87748 3.19224 4.71118 3.62916C4.54487 4.06608 4.4729 4.53324 4.5 4.99996V15.5H5.5V12.5603C5.88797 12.962 6.35461 13.2795 6.87079 13.4929C7.38696 13.7062 7.94158 13.8109 8.5 13.8003C9.0053 13.8189 9.50904 13.7336 9.98001 13.5496C10.451 13.3656 10.8791 13.0868 11.2379 12.7304C11.5966 12.3741 11.8784 11.9479 12.0656 11.4782C12.2529 11.0085 12.3416 10.5054 12.3264 9.99996C12.3428 9.34442 12.1647 8.6987 11.8144 8.14434C11.4642 7.58998 10.9575 7.15183 10.3584 6.88521ZM8.5 12.8C8.11712 12.8217 7.7338 12.7657 7.37317 12.6353C7.01253 12.5048 6.68207 12.3027 6.40171 12.041C6.12135 11.7793 5.89691 11.4636 5.74193 11.1128C5.58696 10.762 5.50466 10.3834 5.5 9.99996V4.99996C5.47671 4.66565 5.5254 4.33024 5.6428 4.01636C5.76019 3.70248 5.94356 3.41744 6.18052 3.18048C6.41749 2.94352 6.70253 2.76015 7.01641 2.64275C7.33029 2.52535 7.6657 2.47666 8 2.49996C9.5187 2.49996 10.5 3.28496 10.5 4.49996C10.5088 4.76498 10.4631 5.029 10.3658 5.27565C10.2684 5.52229 10.1214 5.74631 9.93386 5.93381C9.74635 6.12132 9.52234 6.26832 9.27569 6.36571C9.02905 6.46309 8.76503 6.50878 8.5 6.49996V7.49996C10.2171 7.49996 11.3264 8.48141 11.3264 9.99996C11.3414 10.3739 11.2783 10.7469 11.1412 11.0952C11.0042 11.4434 10.796 11.7593 10.5302 12.0227C10.2643 12.2861 9.94644 12.4913 9.59691 12.6251C9.24738 12.7589 8.87381 12.8185 8.5 12.8Z" fill="black"/>
</svg>
