<svg width="16" height="16" viewBox="0 0 16 16" fill="none" xmlns="http://www.w3.org/2000/svg">
<g clip-path="url(#clip0_3_14061)">
<path d="M13 8C12.956 8 12.9134 8.00465 12.87 8.0066L12.1184 4.5H14V3.5H11.5C11.4254 3.49998 11.3518 3.51664 11.2845 3.54877C11.2171 3.58091 11.1579 3.62769 11.111 3.6857C11.0641 3.7437 11.0308 3.81147 11.0135 3.88402C10.9962 3.95657 10.9953 4.03208 11.011 4.105L11.31 5.5H6.1936L5.6936 4H7V3H3.5V4H4.64L5.16055 5.5615L3.87555 8.1311C3.29237 7.95249 2.66861 7.95588 2.08741 8.14081C1.50621 8.32574 0.995183 8.68342 0.622445 9.16618C0.249707 9.64894 0.0329682 10.2338 0.00111888 10.8429C-0.0307305 11.452 0.123823 12.0563 0.444178 12.5753C0.764532 13.0943 1.23547 13.5034 1.79421 13.7479C2.35295 13.9924 2.97296 14.0609 3.57158 13.9441C4.1702 13.8272 4.719 13.5307 5.14482 13.0941C5.57064 12.6574 5.85326 12.1014 5.955 11.5H7.26C7.40999 11.5004 7.55812 11.4668 7.69332 11.4019C7.82852 11.3369 7.94731 11.2423 8.0408 11.125L11.57 6.7129L11.8918 8.21485C11.2001 8.492 10.6366 9.01707 10.3114 9.68747C9.98616 10.3579 9.92255 11.1254 10.133 11.8402C10.3434 12.555 10.8128 13.1657 11.4494 13.5529C12.086 13.9402 12.8441 14.0762 13.5756 13.9344C14.3071 13.7925 14.9594 13.3831 15.4052 12.786C15.851 12.1889 16.0581 11.4471 15.9862 10.7055C15.9143 9.96381 15.5684 9.27562 15.0162 8.77533C14.464 8.27504 13.7451 7.9986 13 8ZM3 13C2.71915 13.0008 2.44129 12.9424 2.1845 12.8286C1.92772 12.7149 1.69777 12.5483 1.50963 12.3398C1.32149 12.1313 1.17937 11.8855 1.09252 11.6184C1.00568 11.3513 0.976065 11.069 1.0056 10.7897C1.03514 10.5104 1.12316 10.2404 1.26395 9.99744C1.40473 9.75443 1.59512 9.54379 1.82271 9.37924C2.05031 9.21469 2.31001 9.09992 2.5849 9.0424C2.8598 8.98488 3.14372 8.9859 3.4182 9.0454L2.55275 10.7764L2.55725 10.7786C2.52102 10.8468 2.50141 10.9227 2.5 11C2.49923 11.1125 2.5367 11.222 2.60628 11.3104C2.67586 11.3989 2.77342 11.4611 2.88297 11.4868C2.99253 11.5125 3.10757 11.5003 3.20925 11.4521C3.31094 11.4039 3.39323 11.3226 3.44265 11.2214L3.44725 11.2236L4.3091 9.5C4.61741 9.76591 4.83683 10.1199 4.93779 10.5144C5.03875 10.9088 5.01641 11.3247 4.87378 11.706C4.73115 12.0874 4.47507 12.4158 4.14004 12.6472C3.80502 12.8786 3.40714 13.0017 3 13ZM5.955 10.5C5.8241 9.73056 5.39841 9.04245 4.76835 8.5818L5.6077 6.9031L6.8065 10.5H5.955ZM7.68385 9.97L6.527 6.5H10.4597L7.68385 9.97ZM13 13C12.5498 13.0013 12.1125 12.8503 11.7591 12.5715C11.4056 12.2927 11.157 11.9025 11.0535 11.4644C10.95 11.0263 10.9978 10.566 11.1891 10.1585C11.3803 9.75104 11.7039 9.42026 12.107 9.22L12.511 11.105L12.521 11.1028C12.543 11.214 12.6027 11.3142 12.6899 11.3865C12.7772 11.4589 12.8867 11.499 13 11.5C13.1326 11.5 13.2598 11.4473 13.3536 11.3536C13.4473 11.2598 13.5 11.1326 13.5 11C13.4969 10.9651 13.49 10.9306 13.4792 10.8972L13.4892 10.895L13.0849 9.00855C13.6074 9.02978 14.1006 9.25508 14.4587 9.63604C14.8167 10.017 15.0111 10.5232 15 11.0459C14.9889 11.5687 14.7731 12.0661 14.3992 12.4315C14.0252 12.7969 13.5228 13.001 13 13Z" fill="black"/>
</g>
<defs>
<clipPath id="clip0_3_14061">
<rect width="16" height="16" fill="white"/>
</clipPath>
</defs>
</svg>
