<svg width="16" height="16" viewBox="0 0 16 16" fill="none" xmlns="http://www.w3.org/2000/svg">
<path fill-rule="evenodd" clip-rule="evenodd" d="M7.5 5.5H4V2H7.5V5.5ZM5 4.5H6.5V3H5V4.5ZM7.5 10H4V6.5H7.5V10ZM5 9H6.5V7.5H5V9ZM13 10H14C14.2651 10.0003 14.5193 10.1058 14.7068 10.2932C14.8942 10.4807 14.9997 10.7349 15 11V14C14.9997 14.2651 14.8942 14.5193 14.7068 14.7068C14.5193 14.8942 14.2651 14.9997 14 15H2C1.73488 14.9997 1.48071 14.8942 1.29324 14.7068C1.10578 14.5193 1.00032 14.2651 1 14V11C1.00032 10.7349 1.10578 10.4807 1.29324 10.2932C1.48071 10.1058 1.73488 10.0003 2 10H3V11H2V14H14V11H13V10ZM4 12.5C4 12.7761 3.77614 13 3.5 13C3.22386 13 3 12.7761 3 12.5C3 12.2239 3.22386 12 3.5 12C3.77614 12 4 12.2239 4 12.5ZM8.5 10H12V6.5H8.5V10ZM11 9H9.5V7.5H11V9ZM8.5 5.5H12V2H8.5V5.5ZM11 4.5H9.5V3H11V4.5Z" fill="black"/>
</svg>
