<svg width="16" height="16" viewBox="0 0 16 16" fill="none" xmlns="http://www.w3.org/2000/svg">
<path fill-rule="evenodd" clip-rule="evenodd" d="M7 6H11V2H7V6ZM6 6V2C6 1.73478 6.10536 1.48043 6.29289 1.29289C6.48043 1.10536 6.73478 1 7 1H11C11.2652 1 11.5196 1.10536 11.7071 1.29289C11.8946 1.48043 12 1.73478 12 2V6C12 6.26522 11.8946 6.51957 11.7071 6.70711C11.5196 6.89464 11.2652 7 11 7H7C6.73478 7 6.48043 6.89464 6.29289 6.70711C6.10536 6.51957 6 6.26522 6 6ZM4.5 5V6H2V14H10V9.5H11V14C11 14.2652 10.8946 14.5196 10.7071 14.7071C10.5196 14.8946 10.2652 15 10 15H2C1.73478 15 1.48043 14.8946 1.29289 14.7071C1.10536 14.5196 1 14.2652 1 14V6C1 5.73478 1.10536 5.48043 1.29289 5.29289C1.48043 5.10536 1.73478 5 2 5H4.5ZM7 9V11H5V9H7ZM4 9V11C4 11.2652 4.10536 11.5196 4.29289 11.7071C4.48043 11.8946 4.73478 12 5 12H7C7.26522 12 7.51957 11.8946 7.70711 11.7071C7.89464 11.5196 8 11.2652 8 11V9C8 8.73478 7.89464 8.48043 7.70711 8.29289C7.51957 8.10536 7.26522 8 7 8H5C4.73478 8 4.48043 8.10536 4.29289 8.29289C4.10536 8.48043 4 8.73478 4 9ZM13 9.5H14V8.5H13V9.5ZM12 10V8C12 7.86739 12.0527 7.74021 12.1464 7.64645C12.2402 7.55268 12.3674 7.5 12.5 7.5H14.5C14.6326 7.5 14.7598 7.55268 14.8536 7.64645C14.9473 7.74021 15 7.86739 15 8V10C15 10.1326 14.9473 10.2598 14.8536 10.3536C14.7598 10.4473 14.6326 10.5 14.5 10.5H12.5C12.3674 10.5 12.2402 10.4473 12.1464 10.3536C12.0527 10.2598 12 10.1326 12 10Z" fill="black"/>
</svg>
