<svg width="16" height="16" viewBox="0 0 16 16" fill="none" xmlns="http://www.w3.org/2000/svg">
<path fill-rule="evenodd" clip-rule="evenodd" d="M4.11101 2.17971C5.26216 1.41054 6.61553 1 8 1C9.85652 1 11.637 1.7375 12.9497 3.05025C14.2625 4.36301 15 6.14348 15 8C15 9.38447 14.5895 10.7378 13.8203 11.889C13.0511 13.0401 11.9579 13.9373 10.6788 14.4672C9.3997 14.997 7.99224 15.1356 6.63437 14.8655C5.2765 14.5954 4.02922 13.9287 3.05026 12.9497C2.07129 11.9708 1.4046 10.7235 1.13451 9.36563C0.86441 8.00776 1.00303 6.6003 1.53285 5.32122C2.06266 4.04213 2.95987 2.94888 4.11101 2.17971ZM11.3834 3.04967C10.387 2.36723 9.20775 2.00139 8 2C6.79516 1.99942 5.61805 2.36159 4.62192 3.03935C3.62579 3.71711 2.85678 4.67907 2.415 5.8C3.9989 5.01169 5.7321 4.56859 7.5 4.5V5.5C5.5777 5.58415 3.70797 6.1535 2.065 7.155C1.97834 7.715 1.97834 8.285 2.065 8.845C3.85516 9.92812 5.90768 10.5005 8 10.5C10.0957 10.5023 12.1519 9.92988 13.945 8.845C14.0317 8.285 14.0317 7.715 13.945 7.155C13.0993 6.64041 12.1899 6.23866 11.24 5.96L11.74 5.075C12.3735 5.27687 12.9903 5.52763 13.585 5.825C13.1472 4.6994 12.3799 3.73212 11.3834 3.04967ZM4.61658 12.9503C5.61304 13.6328 6.79225 13.9986 8 14C9.20775 13.9986 10.387 13.6328 11.3834 12.9503C12.3799 12.2679 13.1472 11.3006 13.585 10.175C11.8521 11.046 9.9395 11.4997 8 11.5C6.0605 11.4997 4.14793 11.046 2.415 10.175C2.85281 11.3006 3.62012 12.2679 4.61658 12.9503ZM10.065 3.41992L10.935 3.91992L8.865 7.49992C8.95313 7.65184 8.99969 7.82429 9 7.99992C9 8.1977 8.94136 8.39104 8.83147 8.55549C8.72159 8.71994 8.56541 8.84811 8.38269 8.9238C8.19996 8.99949 7.9989 9.01929 7.80491 8.98071C7.61093 8.94212 7.43275 8.84688 7.2929 8.70703C7.15305 8.56718 7.0578 8.38899 7.01922 8.19501C6.98063 8.00103 7.00044 7.79997 7.07612 7.61724C7.15181 7.43451 7.27998 7.27833 7.44443 7.16845C7.60888 7.05857 7.80222 6.99992 8 6.99992L10.065 3.41992Z" fill="black"/>
</svg>
