<svg width="16" height="16" viewBox="0 0 16 16" fill="none" xmlns="http://www.w3.org/2000/svg">
<path fill-rule="evenodd" clip-rule="evenodd" d="M8.5 2.58486V6.37486L7.5 5.37486V1.49986C7.50349 1.40765 7.53243 1.31821 7.58362 1.24144C7.6348 1.16466 7.70623 1.10355 7.79 1.06486C7.87699 1.02481 7.97366 1.01059 8.0685 1.02389C8.16334 1.03718 8.25237 1.07743 8.325 1.13986L11.825 4.13986C11.8774 4.18457 11.92 4.23963 11.9501 4.30158C11.9802 4.36353 11.9972 4.43104 12 4.49986C12.0004 4.56566 11.9878 4.63089 11.9629 4.69181C11.938 4.75273 11.9013 4.80814 11.855 4.85486L9.415 7.28986L8.71 6.58486L10.765 4.52986L8.5 2.58486ZM2.705 1.99988L14 13.2949L13.295 13.9999L11.475 12.1799L8.325 14.8799C8.23443 14.9573 8.11917 14.9999 8 14.9999C7.92766 14.9994 7.8562 14.9841 7.79 14.9549C7.70321 14.9147 7.62976 14.8505 7.57836 14.7699C7.52696 14.6892 7.49976 14.5955 7.5 14.4999V9.20488L4.205 12.4999L3.5 11.7949L7.295 7.99988L2 2.70488L2.705 1.99988ZM8.5 9.20488V13.4149L10.765 11.4699L8.5 9.20488Z" fill="black"/>
</svg>
