<svg width="16" height="16" viewBox="0 0 16 16" fill="none" xmlns="http://www.w3.org/2000/svg">
<path d="M8 15.0001C7.92766 14.9996 7.8562 14.9843 7.79 14.9551C7.70321 14.9149 7.62976 14.8507 7.57836 14.7701C7.52696 14.6894 7.49976 14.5957 7.5 14.5001V9.20508L4.205 12.5001L3.5 11.7951L7.295 8.00008L3.5 4.20508L4.205 3.50008L7.5 6.79508V1.50008C7.49976 1.40445 7.52696 1.31076 7.57836 1.23011C7.62976 1.14946 7.70321 1.08525 7.79 1.04508C7.87699 1.00504 7.97366 0.990814 8.0685 1.00411C8.16334 1.01741 8.25237 1.05766 8.325 1.12008L11.825 4.12008C11.8799 4.16703 11.9239 4.2253 11.9542 4.2909C11.9844 4.3565 12 4.42786 12 4.50008C12.0031 4.56922 11.9918 4.63825 11.9669 4.7028C11.9419 4.76735 11.9038 4.82602 11.855 4.87508L8.705 8.00008L11.855 11.1451C11.9013 11.1918 11.938 11.2472 11.9629 11.3081C11.9878 11.369 12.0004 11.4343 12 11.5001C11.9972 11.5689 11.9802 11.6364 11.9501 11.6984C11.92 11.7603 11.8774 11.8154 11.825 11.8601L8.325 14.8601C8.23735 14.9448 8.12178 14.9946 8 15.0001ZM8.5 9.20508V13.4151L10.765 11.4701L8.5 9.20508ZM8.5 2.58508V6.79508L10.765 4.53008L8.5 2.58508Z" fill="black"/>
</svg>
