<svg width="16" height="16" viewBox="0 0 16 16" fill="none" xmlns="http://www.w3.org/2000/svg">
<path fill-rule="evenodd" clip-rule="evenodd" d="M8 8.00263C7.99858 9.93442 6.43212 11.5 4.5 11.5C2.567 11.5 1 9.933 1 8C1 6.067 2.567 4.5 4.5 4.5C6.4318 4.5 7.99806 6.06506 8 7.9964C8.00023 7.76943 8.02254 7.54195 8.06725 7.31719C8.2023 6.63825 8.53564 6.01461 9.02513 5.52513C9.51461 5.03564 10.1383 4.7023 10.8172 4.56725C11.4961 4.4322 12.1999 4.50152 12.8394 4.76642C13.4789 5.03133 14.0256 5.47993 14.4101 6.05551C14.7947 6.63108 15 7.30777 15 8C14.999 8.92794 14.6299 9.81758 13.9737 10.4737C13.3176 11.1299 12.4279 11.499 11.5 11.5C10.8078 11.5 10.1311 11.2947 9.5555 10.9101C8.97993 10.5256 8.53133 9.97893 8.26642 9.33939C8.09002 8.91351 8.00035 8.45917 8 8.00263ZM10.1111 5.92133C10.5222 5.64662 11.0055 5.5 11.5 5.5C12.1628 5.50073 12.7983 5.76436 13.267 6.23304C13.7356 6.70172 13.9993 7.33718 14 8C14 8.49445 13.8534 8.9778 13.5787 9.38893C13.304 9.80005 12.9135 10.1205 12.4567 10.3097C11.9999 10.4989 11.4972 10.5484 11.0123 10.452C10.5273 10.3555 10.0819 10.1174 9.73223 9.76777C9.3826 9.41814 9.1445 8.97268 9.04804 8.48773C8.95157 8.00277 9.00108 7.50011 9.1903 7.04329C9.37952 6.58648 9.69995 6.19603 10.1111 5.92133Z" fill="black"/>
</svg>
