<svg width="16" height="16" viewBox="0 0 16 16" fill="none" xmlns="http://www.w3.org/2000/svg">
<path fill-rule="evenodd" clip-rule="evenodd" d="M2 13.5H4V12.5H2V2.5H5.79285L7.79285 4.5H14V8H15V4.5C14.9993 3.948 14.552 3.50065 14 3.5H8.20715L6.5 1.79295C6.3129 1.60475 6.05825 1.49925 5.79285 1.5H2C1.448 1.50065 1.00065 1.948 1 2.5V12.5C1.00065 13.052 1.448 13.4994 2 13.5ZM6 7V12H7L6.9999 8.707L11.2912 13L12 12.2928L7.70695 7.9999L11 8V7H6ZM13 15H9.5C8.9486 15 8.5 14.5514 8.5 14V13H9.5V14H13V10.5H12V9.5H13C13.5514 9.5 14 9.9486 14 10.5V14C14 14.5514 13.5514 15 13 15Z" fill="black"/>
</svg>
