<svg width="16" height="16" viewBox="0 0 16 16" fill="none" xmlns="http://www.w3.org/2000/svg">
<path fill-rule="evenodd" clip-rule="evenodd" d="M2 2.5V7H1V2.5C1.00065 1.94795 1.44795 1.50065 2 1.5H5.79285C6.05825 1.4993 6.3129 1.60475 6.5 1.79295L8.20715 3.5H14C14.552 3.50065 14.9993 3.94795 15 4.5V8H14V4.5H7.79285L5.79285 2.5H2ZM2.5 10H1V8H0V15H2.5C3.05125 15 3.5 14.5513 3.5 14V11C3.5 10.4485 3.05125 10 2.5 10ZM1 14V11H2.5V14H1ZM16 11V10H14.5V9H13.5V10H13V11H13.5V14C13.5 14.5513 13.9487 15 14.5 15H16V14H14.5V11H16ZM11.5 15H10C9.44875 15 9 14.5513 9 14V11C9 10.4485 9.44875 10 10 10H11.5C12.0513 10 12.5 10.4485 12.5 11V14C12.5 14.5513 12.0513 15 11.5 15ZM10 11V14H11.5V11H10ZM5.5 15H7C7.55125 15 8 14.5513 8 14V11C8 10.4485 7.55125 10 7 10H5.5C4.94875 10 4.5 10.4485 4.5 11V14C4.5 14.5513 4.94875 15 5.5 15ZM5.5 14V11H7V14H5.5Z" fill="black"/>
</svg>
