<svg width="16" height="16" viewBox="0 0 16 16" fill="none" xmlns="http://www.w3.org/2000/svg">
<path fill-rule="evenodd" clip-rule="evenodd" d="M2.5 2.5V1.5H1.5V2.5H2.5ZM4.5 1.5V2.5H3.5V1.5H4.5ZM6.5 2.5V1.5H5.5V2.5H6.5ZM8.5 1.5V2.5H7.5V1.5H8.5ZM10.5 2.5V1.5H9.5V2.5H10.5ZM12.5 1.5V2.5H11.5V1.5H12.5ZM14.5 1.5V14.5H13.5V1.5H14.5ZM2.5 3.5V4.5H1.5V3.5H2.5ZM2.5 6.5V5.5H1.5V6.5H2.5ZM2.5 7.5V8.5H1.5V7.5H2.5ZM2.5 12.5V11.5H1.5V12.5H2.5ZM2.5 9.5V10.5H1.5V9.5H2.5ZM12.5 14.5V13.5H11.5V14.5H12.5ZM10.5 13.5V14.5H9.5V13.5H10.5ZM8.5 14.5V13.5H7.5V14.5H8.5ZM6.5 13.5V14.5H5.5V13.5H6.5ZM4.5 14.5V13.5H3.5V14.5H4.5ZM2.5 13.5V14.5H1.5V13.5H2.5ZM4 7.5H7V8.5H4V7.5ZM9 5H4V6H9V5Z" fill="black"/>
</svg>
