<svg width="16" height="16" viewBox="0 0 16 16" fill="none" xmlns="http://www.w3.org/2000/svg">
<path fill-rule="evenodd" clip-rule="evenodd" d="M1.5 1.5H2.5V2.5H1.5V1.5ZM3.5 1.5H4.5V2.5H3.5V1.5ZM6.5 1.5H5.5V2.5H6.5V1.5ZM7.5 1.5H8.5V2.5H7.5V1.5ZM2.5 3.5H1.5V4.5H2.5V3.5ZM1.5 5.5H2.5V6.5H1.5V5.5ZM2.5 7.5H1.5V8.5H2.5V7.5ZM1.5 9.5H2.5V10.5H1.5V9.5ZM2.5 11.5H1.5V12.5H2.5V11.5ZM1.5 13.5H2.5V14.5H1.5V13.5ZM14.5 1.5H13.5V2.5H14.5V1.5ZM11.5 1.5H12.5V2.5H11.5V1.5ZM10.5 1.5H9.5V2.5H10.5V1.5ZM4.5 13.5V14.5H3.5V13.5H4.5ZM6.5 13.5H5.5V14.5H6.5V13.5ZM7.5 13.5H8.5V14.5H7.5V13.5ZM12.5 13.5H11.5V14.5H12.5V13.5ZM9.5 13.5H10.5V14.5H9.5V13.5ZM14.5 3.5H13.5V4.5H14.5V3.5ZM13.5 5.5H14.5V6.5H13.5V5.5ZM14.5 7.5H13.5V8.5H14.5V7.5ZM13.5 9.5H14.5V10.5H13.5V9.5ZM14.5 11.5H13.5V12.5H14.5V11.5ZM13.5 13.5H14.5V14.5H13.5V13.5ZM9 5H4V6H9V5ZM4 7.5H7V8.5H4V7.5Z" fill="black"/>
</svg>
