<svg width="16" height="16" viewBox="0 0 16 16" fill="none" xmlns="http://www.w3.org/2000/svg">
<path fill-rule="evenodd" clip-rule="evenodd" d="M13.5 2.5H14.5V1.5H13.5V2.5ZM14.5 4.5H13.5V3.5H14.5V4.5ZM13.5 6.5H14.5V5.5H13.5V6.5ZM14.5 8.5H13.5V7.5H14.5V8.5ZM13.5 10.5H14.5V9.5H13.5V10.5ZM14.5 12.5H13.5V11.5H14.5V12.5ZM14.5 14.5H1.5V13.5H14.5V14.5ZM12.5 2.5H11.5V1.5H12.5V2.5ZM9.5 2.5H10.5V1.5H9.5V2.5ZM8.5 2.5H7.5V1.5H8.5V2.5ZM3.5 2.5H4.5V1.5H3.5V2.5ZM6.5 2.5H5.5V1.5H6.5V2.5ZM1.5 12.5H2.5V11.5H1.5V12.5ZM2.5 10.5H1.5V9.5H2.5V10.5ZM1.5 8.5H2.5V7.5H1.5V8.5ZM2.5 6.5H1.5V5.5H2.5V6.5ZM1.5 4.5H2.5V3.5H1.5V4.5ZM2.5 2.5H1.5V1.5H2.5V2.5ZM9 5H4V6H9V5ZM4 8.5V7.5H7V8.5H4Z" fill="black"/>
</svg>
