<svg width="16" height="16" viewBox="0 0 16 16" fill="none" xmlns="http://www.w3.org/2000/svg">
<path fill-rule="evenodd" clip-rule="evenodd" d="M1.5 14.5V1.5H2.5V14.5H1.5ZM3.5 14.5V13.5H4.5V14.5H3.5ZM5.5 13.5V14.5H6.5V13.5H5.5ZM7.5 14.5V13.5H8.5V14.5H7.5ZM9.5 13.5V14.5H10.5V13.5H9.5ZM11.5 14.5V13.5H12.5V14.5H11.5ZM13.5 13.5V14.5H14.5V13.5H13.5ZM13.5 12.5V11.5H14.5V12.5H13.5ZM13.5 9.5V10.5H14.5V9.5H13.5ZM13.5 8.5V7.5H14.5V8.5H13.5ZM13.5 3.5V4.5H14.5V3.5H13.5ZM13.5 5.5H14.5V6.5H13.5V5.5ZM3.5 1.5V2.5H4.5V1.5H3.5ZM5.5 2.5V1.5H6.5V2.5H5.5ZM7.5 1.5V2.5H8.5V1.5H7.5ZM9.5 2.5V1.5H10.5V2.5H9.5ZM11.5 1.5V2.5H12.5V1.5H11.5ZM13.5 2.5V1.5H14.5V2.5H13.5ZM4 5V6H9V5H4ZM4 7.5H7V8.5H4V7.5Z" fill="black"/>
</svg>
