<svg width="16" height="16" viewBox="0 0 16 16" fill="none" xmlns="http://www.w3.org/2000/svg">
<path fill-rule="evenodd" clip-rule="evenodd" d="M10.5 10H13C13.2651 10.0003 13.5193 10.1058 13.7068 10.2932C13.8942 10.4807 13.9997 10.7349 14 11V15H13V11H3V15H2V11C2.0003 10.7349 2.10576 10.4807 2.29323 10.2932C2.4807 10.1058 2.73488 10.0003 3 10H5.5V9H5C4.73488 8.9997 4.4807 8.89424 4.29323 8.70677C4.10576 8.5193 4.0003 8.26512 4 8V6H3V5H4V4C4.0003 3.73488 4.10576 3.4807 4.29323 3.29323C4.4807 3.10576 4.73488 3.0003 5 3H6V1H7V3H9V1H10V3H11C11.2651 3.0003 11.5193 3.10576 11.7068 3.29323C11.8942 3.4807 11.9997 3.73488 12 4V5H13V6H12V8C11.9997 8.26512 11.8942 8.5193 11.7068 8.70677C11.5193 8.89424 11.2651 8.9997 11 9H10.5V10ZM11 4H5V8H11V4ZM9.5 9H6.5V10H9.5V9ZM7 5H6V6H7V5ZM10 5H9V6H10V5Z" fill="black"/>
</svg>
