<svg width="16" height="16" viewBox="0 0 16 16" fill="none" xmlns="http://www.w3.org/2000/svg">
<path fill-rule="evenodd" clip-rule="evenodd" d="M2 1H14C14.5523 1 15 1.4477 15 2V14C15 14.5523 14.5523 15 14 15H2C1.4477 15 1 14.5523 1 14V2C1 1.4477 1.4477 1 2 1ZM2 2V14H14V2H2ZM7.5 5V4C7.5 3.7239 7.2761 3.5 7 3.5H5C4.7239 3.5 4.5 3.7239 4.5 4V5C3.86145 5.57055 3.5 6.3679 3.5 7.22435V12C3.5 12.2761 3.7239 12.5 4 12.5H8C8.2761 12.5 8.5 12.2761 8.5 12V7.22435C8.5 6.3679 8.13855 5.57055 7.5 5ZM7.5 11.5H4.5V7.22435C4.5 6.04635 5.5 5.48435 5.5 5.48435V4.49995H6.5V5.48435C6.5 5.48435 7.5 6.04635 7.5 7.22435V11.5ZM11.5 4C11.5 3.7239 11.2761 3.5 11 3.5H9.5V4.5H10.5V5.4844C10.5 5.4844 11.5 6.0463 11.5 7.2244V11.5H9.5V12.5H12C12.2761 12.5 12.5 12.2761 12.5 12V7.22435C12.5 6.3679 12.1385 5.57055 11.5 5V4Z" fill="black"/>
</svg>
