<svg width="16" height="16" viewBox="0 0 16 16" fill="none" xmlns="http://www.w3.org/2000/svg">
<path fill-rule="evenodd" clip-rule="evenodd" d="M8 3V4.52565C8.63855 5.0962 9 5.89355 9 6.75V13C9 13.2761 8.7761 13.5 8.5 13.5H3.5C3.2239 13.5 3 13.2761 3 13V6.75C3 5.89355 3.36145 5.0962 4 4.52565V3C4 2.7239 4.2239 2.5 4.5 2.5H7.5C7.7761 2.5 8 2.7239 8 3ZM4 12.5H8V6.75C8 5.572 7 5.01 7 5.01V3.5H5V5.01C5 5.01 4 5.572 4 6.75V12.5ZM12 3V4.52565C12.6385 5.0962 13 5.89355 13 6.75V13C13 13.2761 12.7761 13.5 12.5 13.5H10V12.5H12V6.75C12 5.5719 11 5.01 11 5.01V3.5H10V2.5H11.5C11.7761 2.5 12 2.7239 12 3Z" fill="black"/>
</svg>
