<svg width="16" height="16" viewBox="0 0 16 16" fill="none" xmlns="http://www.w3.org/2000/svg">
<path fill-rule="evenodd" clip-rule="evenodd" d="M9.5 4.6853V1.5C9.5 1.2239 9.2761 1 9 1H7.5V2H8.5V5.36035C8.5 5.36035 10 5.61365 10 7.5V14H8.5V15H10.5C10.7761 15 11 14.7761 11 14.5V7.5C11 5.77415 10.0337 4.98805 9.5 4.6853ZM13 4.6853V1.5C13 1.2239 12.7761 1 12.5 1H11V2H12V5.36035C12 5.36035 13.5 5.61365 13.5 7.5V14H12V15H14C14.2761 15 14.5 14.7761 14.5 14.5V7.5C14.5 5.77415 13.5337 4.98805 13 4.6853ZM5 14H6.5V12.5H7.5V14.5C7.5 14.7761 7.2761 15 7 15H5V14ZM2.5 12.5H1.5V14.5C1.5 14.7761 1.7239 15 2 15H4V14H2.5V12.5ZM6.5 9H7.5V11.5H6.5V9ZM2.5 9H1.5V11.5H2.5V9ZM6 1.5V4.6853C6.5337 4.98805 7.5 5.77415 7.5 7.5V8H6.5V7.5C6.5 5.61375 5 5.36035 5 5.36035V2H4V5.36035C4 5.36035 2.5 5.61375 2.5 7.5V8H1.5V7.5C1.5 5.77415 2.4663 4.98805 3 4.6853V1.5C3 1.2239 3.2239 1 3.5 1H5.5C5.7761 1 6 1.2239 6 1.5Z" fill="black"/>
</svg>
