<svg width="16" height="16" viewBox="0 0 16 16" fill="none" xmlns="http://www.w3.org/2000/svg">
<path fill-rule="evenodd" clip-rule="evenodd" d="M2 2H14C14.2652 2 14.5196 2.10536 14.7071 2.29289C14.8946 2.48043 15 2.73478 15 3V5C15 5.26522 14.8946 5.51957 14.7071 5.70711C14.5196 5.89464 14.2652 6 14 6V14C14 14.2652 13.8946 14.5196 13.7071 14.7071C13.5196 14.8946 13.2652 15 13 15H3C2.73478 15 2.48043 14.8946 2.29289 14.7071C2.10536 14.5196 2 14.2652 2 14V6C1.73478 6 1.48043 5.89464 1.29289 5.70711C1.10536 5.51957 1 5.26522 1 5V3C1 2.73478 1.10536 2.48043 1.29289 2.29289C1.48043 2.10536 1.73478 2 2 2ZM3 14H13V6H3V14ZM2 5H14V3H2V5ZM6 10.5H10C10.2652 10.5 10.5196 10.3946 10.7071 10.2071C10.8946 10.0196 11 9.76522 11 9.5V8.5C11 8.23478 10.8946 7.98043 10.7071 7.79289C10.5196 7.60536 10.2652 7.5 10 7.5H6C5.73478 7.5 5.48043 7.60536 5.29289 7.79289C5.10536 7.98043 5 8.23478 5 8.5V9.5C5 9.76522 5.10536 10.0196 5.29289 10.2071C5.48043 10.3946 5.73478 10.5 6 10.5ZM6 9.5V8.5H10V9.5H6Z" fill="black"/>
</svg>
