<svg width="16" height="16" viewBox="0 0 16 16" fill="none" xmlns="http://www.w3.org/2000/svg">
<path d="M13 9C12.5578 9.00128 12.1285 9.14923 11.7794 9.42069C11.4303 9.69214 11.1812 10.0717 11.071 10.5H9C8.60231 10.4996 8.22103 10.3414 7.93982 10.0602C7.65861 9.77897 7.50044 9.3977 7.5 9V7C7.49809 6.45731 7.31792 5.93028 6.9872 5.5H11.071C11.1927 5.97133 11.4821 6.3821 11.885 6.65531C12.2879 6.92851 12.7766 7.0454 13.2595 6.98406C13.7424 6.92273 14.1864 6.68737 14.5082 6.32212C14.83 5.95687 15.0075 5.48679 15.0075 5C15.0075 4.51322 14.83 4.04314 14.5082 3.67789C14.1864 3.31264 13.7424 3.07728 13.2595 3.01595C12.7766 2.95461 12.2879 3.0715 11.885 3.3447C11.4821 3.61791 11.1927 4.02868 11.071 4.5H4.929C4.8073 4.02868 4.51788 3.61791 4.115 3.3447C3.71211 3.0715 3.22341 2.95461 2.7405 3.01595C2.25759 3.07728 1.81363 3.31264 1.49184 3.67789C1.17004 4.04314 0.992508 4.51322 0.992508 5C0.992508 5.48679 1.17004 5.95687 1.49184 6.32212C1.81363 6.68737 2.25759 6.92273 2.7405 6.98406C3.22341 7.0454 3.71211 6.92851 4.115 6.65531C4.51788 6.3821 4.8073 5.97133 4.929 5.5H5C5.39769 5.50044 5.77897 5.65862 6.06018 5.93983C6.34139 6.22104 6.49956 6.60231 6.5 7V9C6.50078 9.66281 6.76442 10.2982 7.23309 10.7669C7.70177 11.2356 8.3372 11.4992 9 11.5H11.071C11.1651 11.8614 11.3587 12.1891 11.6297 12.446C11.9007 12.7029 12.2384 12.8786 12.6043 12.9532C12.9701 13.0278 13.3496 12.9984 13.6996 12.8682C14.0496 12.7379 14.356 12.5122 14.5842 12.2165C14.8123 11.9209 14.9529 11.5672 14.9901 11.1956C15.0273 10.8241 14.9596 10.4495 14.7946 10.1145C14.6296 9.77954 14.374 9.49752 14.0568 9.30051C13.7395 9.1035 13.3734 8.99939 13 9ZM13 4C13.1978 4 13.3911 4.05865 13.5556 4.16854C13.72 4.27842 13.8482 4.4346 13.9239 4.61732C13.9996 4.80005 14.0194 5.00111 13.9808 5.1951C13.9422 5.38908 13.847 5.56726 13.7071 5.70711C13.5673 5.84696 13.3891 5.9422 13.1951 5.98079C13.0011 6.01938 12.8 5.99957 12.6173 5.92388C12.4346 5.8482 12.2784 5.72002 12.1685 5.55557C12.0586 5.39113 12 5.19779 12 5C12.0003 4.73488 12.1058 4.4807 12.2932 4.29323C12.4807 4.10576 12.7349 4.00031 13 4ZM3 6C2.80222 6 2.60888 5.94136 2.44443 5.83147C2.27998 5.72159 2.15181 5.56541 2.07612 5.38269C2.00043 5.19996 1.98063 4.9989 2.01921 4.80491C2.0578 4.61093 2.15304 4.43275 2.29289 4.2929C2.43275 4.15305 2.61093 4.0578 2.80491 4.01922C2.99889 3.98063 3.19996 4.00044 3.38268 4.07613C3.56541 4.15181 3.72159 4.27999 3.83147 4.44443C3.94135 4.60888 4 4.80222 4 5C3.99973 5.26514 3.89429 5.51934 3.70681 5.70682C3.51933 5.8943 3.26513 5.99974 3 6ZM13 12C12.8022 12 12.6089 11.9414 12.4444 11.8315C12.28 11.7216 12.1518 11.5654 12.0761 11.3827C12.0004 11.2 11.9806 10.9989 12.0192 10.8049C12.0578 10.6109 12.153 10.4328 12.2929 10.2929C12.4327 10.153 12.6109 10.0578 12.8049 10.0192C12.9989 9.98063 13.2 10.0004 13.3827 10.0761C13.5654 10.1518 13.7216 10.28 13.8315 10.4444C13.9414 10.6089 14 10.8022 14 11C13.9996 11.2651 13.8942 11.5193 13.7067 11.7067C13.5193 11.8942 13.2651 11.9996 13 12Z" fill="black"/>
</svg>
