<svg width="16" height="16" viewBox="0 0 16 16" fill="none" xmlns="http://www.w3.org/2000/svg">
<path fill-rule="evenodd" clip-rule="evenodd" d="M13 4.5H2V12H8V13H2C1.73478 13 1.48043 12.8946 1.29289 12.7071C1.10536 12.5196 1 12.2652 1 12V2C1 1.73478 1.10536 1.48043 1.29289 1.29289C1.48043 1.10536 1.73478 1 2 1H13C13.2652 1 13.5196 1.10536 13.7071 1.29289C13.8946 1.48043 14 1.73478 14 2V8H13V4.5ZM13 2H2V3.5H13V2ZM5.20499 8L6.49999 6.705L5.78999 6L3.78999 8L5.78999 10L6.49999 9.295L5.20499 8ZM8.5 9.295L9.795 8L8.5 6.705L9.21 6L11.21 8L9.21 10L8.5 9.295ZM14.9944 10.8333C15.3241 11.3266 15.5 11.9067 15.5 12.5C15.4991 13.2954 15.1828 14.0579 14.6204 14.6204C14.0579 15.1828 13.2954 15.4991 12.5 15.5C11.9067 15.5 11.3266 15.3241 10.8333 14.9944C10.3399 14.6648 9.95543 14.1962 9.72836 13.6481C9.5013 13.0999 9.44189 12.4967 9.55765 11.9147C9.6734 11.3328 9.95912 10.7982 10.3787 10.3787C10.7982 9.95912 11.3328 9.6734 11.9147 9.55765C12.4967 9.44189 13.0999 9.5013 13.6481 9.72836C14.1962 9.95543 14.6648 10.3399 14.9944 10.8333ZM14.2166 13.5095C14.4002 13.2047 14.4981 12.8559 14.5 12.5C14.4994 11.9698 14.2885 11.4614 13.9136 11.0864C13.5386 10.7115 13.0303 10.5006 12.5 10.5C12.1441 10.5019 11.7953 10.5998 11.4905 10.7835L14.2166 13.5095ZM10.7835 11.4905C10.5998 11.7953 10.5019 12.1441 10.5 12.5C10.5006 13.0303 10.7115 13.5386 11.0864 13.9136C11.4614 14.2885 11.9698 14.4994 12.5 14.5C12.8559 14.4981 13.2047 14.4002 13.5095 14.2166L10.7835 11.4905Z" fill="black"/>
</svg>
