<svg width="16" height="16" viewBox="0 0 16 16" fill="none" xmlns="http://www.w3.org/2000/svg">
<path fill-rule="evenodd" clip-rule="evenodd" d="M8.5 1H7.5V2.5H8.5V1ZM15 7.5H13.5V8.5H15V7.5ZM7.5 15V13.5H8.5V15H7.5ZM2.5 7.5H1V8.5H2.5V7.5ZM2.72496 3.44177L3.43207 2.73467L4.49273 3.79533L3.78562 4.50243L2.72496 3.44177ZM12.5605 2.72981L11.4998 3.79047L12.2069 4.49757L13.2676 3.43691L12.5605 2.72981ZM11.5012 12.2083L12.2083 11.5011L13.2689 12.5618L12.5618 13.2689L11.5012 12.2083ZM2.735 12.565L3.795 11.5L4.5 12.21L3.44 13.27L2.735 12.565ZM5.77772 4.67412C6.43552 4.2346 7.20887 4 8 4C9.06087 4 10.0783 4.42143 10.8284 5.17157C11.5786 5.92172 12 6.93913 12 8C12 8.79113 11.7654 9.56448 11.3259 10.2223C10.8864 10.8801 10.2616 11.3928 9.53073 11.6955C8.79983 11.9983 7.99556 12.0775 7.21964 11.9231C6.44371 11.7688 5.73098 11.3878 5.17157 10.8284C4.61216 10.269 4.2312 9.55628 4.07686 8.78036C3.92252 8.00444 4.00173 7.20017 4.30448 6.46927C4.60723 5.73836 5.11992 5.11365 5.77772 4.67412ZM5.87868 10.1213C6.44129 10.6839 7.20435 11 8 11V5C7.20435 5 6.44129 5.31607 5.87868 5.87868C5.31607 6.44129 5 7.20435 5 8C5 8.79565 5.31607 9.55871 5.87868 10.1213Z" fill="black"/>
</svg>
