<svg width="16" height="16" viewBox="0 0 16 16" fill="none" xmlns="http://www.w3.org/2000/svg">
<path fill-rule="evenodd" clip-rule="evenodd" d="M2 11H4V10H2V2H10V4H11V2C10.9997 1.73488 10.8942 1.4807 10.7068 1.29323C10.5193 1.10576 10.2651 1.0003 10 1H2C1.73488 1.0003 1.4807 1.10576 1.29323 1.29323C1.10576 1.4807 1.0003 1.73488 1 2V10C1.0003 10.2651 1.10576 10.5193 1.29323 10.7068C1.4807 10.8942 1.73488 10.9997 2 11ZM6 7.5H5V6C5.0003 5.73488 5.10576 5.4807 5.29323 5.29323C5.4807 5.10576 5.73488 5.0003 6 5H7.5V6H6V7.5ZM7.5 15H6C5.73488 14.9997 5.4807 14.8942 5.29323 14.7068C5.10576 14.5193 5.0003 14.2651 5 14V12.5H6V14H7.5V15ZM9 15V14H11V15H9ZM14 15H12.5V14H14V12.5H15V14C14.9997 14.2651 14.8942 14.5193 14.7068 14.7068C14.5193 14.8942 14.2651 14.9997 14 15ZM5 9H6V11H5V9ZM15 9H14V11H15V9ZM14 7.5H15V6C14.9997 5.73488 14.8942 5.4807 14.7068 5.29323C14.5193 5.10576 14.2651 5.0003 14 5H12.5V6H14V7.5ZM11 6V5H9V6H11Z" fill="black"/>
</svg>
