<svg width="16" height="16" viewBox="0 0 16 16" fill="none" xmlns="http://www.w3.org/2000/svg">
<path fill-rule="evenodd" clip-rule="evenodd" d="M2.27776 7.20526C2.56556 7.3975 2.90391 7.50006 3.25001 7.49999C3.4799 7.50065 3.70763 7.45569 3.92002 7.36772C4.13241 7.27975 4.32523 7.15051 4.48731 6.98749L6.50001 4.97534L5.79271 4.26834L3.78026 6.28049C3.63733 6.41681 3.4474 6.49286 3.24989 6.49286C3.05237 6.49286 2.86244 6.41681 2.71951 6.28049C2.57914 6.13972 2.50031 5.94903 2.50031 5.75024C2.50031 5.55144 2.57914 5.36075 2.71951 5.21999L4.47001 3.47023C4.79761 3.14181 4.98158 2.69686 4.98158 2.23298C4.98158 1.76911 4.79761 1.32416 4.47001 0.995735C4.13659 0.677536 3.6934 0.5 3.23251 0.5C2.77162 0.5 2.32844 0.677536 1.99501 0.995735L1.00001 1.98998L1.70751 2.69678L2.70191 1.70248C2.84485 1.56616 3.03479 1.4901 3.23231 1.4901C3.42984 1.4901 3.61978 1.56616 3.76271 1.70248C3.90308 1.84325 3.98191 2.03394 3.98191 2.23273C3.98191 2.43153 3.90308 2.62222 3.76271 2.76298L2.01246 4.51299C1.76772 4.7577 1.60104 5.0695 1.53353 5.40896C1.46601 5.74841 1.50068 6.10026 1.63316 6.42C1.76563 6.73975 1.98995 7.01302 2.27776 7.20526ZM13 1.01904C13.5267 1.01904 14.0332 1.22208 14.4141 1.58593C14.5998 1.77161 14.7472 1.99208 14.8477 2.23473C14.9483 2.47737 15 2.73745 15 3.00011C15 3.26276 14.9483 3.52284 14.8477 3.76549C14.7472 4.00814 14.5998 4.2286 14.4141 4.41428L4.85296 13.975C4.52872 14.301 4.14301 14.5595 3.71817 14.7355C3.29332 14.9114 2.83779 15.0013 2.37796 15H1.00001V13.6206C0.998764 13.1608 1.08871 12.7054 1.26465 12.2806C1.44059 11.8559 1.69903 11.4702 2.02501 11.146L11.586 1.58593C11.9668 1.22208 12.4733 1.01904 13 1.01904ZM6.86931 10.5443L5.45501 9.12998L4.39431 10.1909L5.80861 11.605L6.86931 10.5443ZM3.33522 13.811C3.63866 13.6853 3.91416 13.5007 4.14576 13.2678L5.10151 12.3121L3.68721 10.898L2.73221 11.853C2.49936 12.0846 2.31475 12.3601 2.18907 12.6635C2.06339 12.9669 1.99913 13.2922 2.00001 13.6206V14H2.37796C2.70641 14.0009 3.03177 13.9367 3.33522 13.811ZM7.57641 9.83738L13.7071 3.70703V3.70718C13.7999 3.61434 13.8736 3.50412 13.9239 3.3828C13.9741 3.26148 14 3.13145 14 3.00013C14 2.86881 13.9741 2.73878 13.9239 2.61747C13.8736 2.49615 13.7999 2.38592 13.7071 2.29308C13.5166 2.11117 13.2634 2.00966 13 2.00966C12.7366 2.00966 12.4834 2.11117 12.293 2.29308L6.16211 8.42308L7.57641 9.83738Z" fill="black"/>
</svg>
