<svg width="16" height="16" viewBox="0 0 16 16" fill="none" xmlns="http://www.w3.org/2000/svg">
<path fill-rule="evenodd" clip-rule="evenodd" d="M8 1H14C14.2651 1.0003 14.5193 1.10576 14.7068 1.29323C14.8942 1.4807 14.9997 1.73488 15 2V15H1V8C1.00026 7.73486 1.10571 7.48066 1.29319 7.29319C1.48066 7.10571 1.73486 7.00026 2 7H7V2C7.00026 1.73486 7.10571 1.48066 7.29319 1.29319C7.48066 1.10571 7.73486 1.00026 8 1ZM4.5 10.5V14H6.5V10.5H4.5ZM7.5 14H14V2H8V8H2V14H3.5V10C3.5 9.86739 3.55268 9.74021 3.64645 9.64645C3.74021 9.55268 3.86739 9.5 4 9.5H7C7.13261 9.5 7.25979 9.55268 7.35355 9.64645C7.44732 9.74021 7.5 9.86739 7.5 10V14ZM9 4H10V5H9V4ZM13 4H12V5H13V4ZM9 7H10V8H9V7ZM13 7H12V8H13V7ZM9 9.99982H10V10.9998H9V9.99982ZM13 9.99982H12V10.9998H13V9.99982ZM1.51256 5.48744C1.84075 5.81563 2.28587 6 2.75 6H6V5H2.75C2.55109 5 2.36032 4.92098 2.21967 4.78033C2.07902 4.63968 2 4.44891 2 4.25C2 4.05109 2.07902 3.86032 2.21967 3.71967C2.36032 3.57902 2.55109 3.5 2.75 3.5H4V3C4.0003 2.73488 4.10576 2.4807 4.29323 2.29323C4.4807 2.10576 4.73488 2.0003 5 2H6V1H5C4.55674 1.00053 4.12618 1.14807 3.77575 1.41951C3.42532 1.69094 3.17483 2.07095 3.0635 2.5H2.75C2.28587 2.5 1.84075 2.68437 1.51256 3.01256C1.18437 3.34075 1 3.78587 1 4.25C1 4.71413 1.18437 5.15925 1.51256 5.48744Z" fill="black"/>
</svg>
