<svg width="16" height="16" viewBox="0 0 16 16" fill="none" xmlns="http://www.w3.org/2000/svg">
<path d="M14 7H13.5V3.5C13.5 2.95 13.05 2.5 12.5 2.5H9.5V3.5H12.5V7H12C11.45 7 11 7.45 11 8V12.5H4.95C4.75 11.8 4.2 11.25 3.5 11.05V3.5H6.6L5.3 4.8L6 5.5L8.5 3L6 0.5L5.3 1.2L6.6 2.5H3.5C2.95 2.5 2.5 2.95 2.5 3.5V11.05C1.65 11.25 1 12.05 1 13C1 14.1 1.9 15 3 15C3.95 15 4.7 14.35 4.95 13.5H11V14C11 14.55 11.45 15 12 15H14C14.55 15 15 14.55 15 14V8C15 7.45 14.55 7 14 7ZM3 14C2.45 14 2 13.55 2 13C2 12.45 2.45 12 3 12C3.55 12 4 12.45 4 13C4 13.55 3.55 14 3 14ZM12 14V8H14V14H12Z" fill="black"/>
</svg>
