<svg width="16" height="16" viewBox="0 0 16 16" fill="none" xmlns="http://www.w3.org/2000/svg">
<path d="M13 3V4.085L2.82 5.935C2.58705 5.9776 2.37677 6.10149 2.2266 6.28461C2.07644 6.46774 1.99614 6.69821 2 6.935V9.105C1.99614 9.34179 2.07644 9.57226 2.2266 9.75539C2.37677 9.93851 2.58705 10.0624 2.82 10.105L4 10.28V12C4 12.2652 4.10536 12.5196 4.2929 12.7071C4.48043 12.8946 4.73479 13 5 13H9C9.26522 13 9.51957 12.8946 9.70711 12.7071C9.89465 12.5196 10 12.2652 10 12V11.37L13 11.915V13H14V3H13ZM9 12H5V10.465L9 11.19V12ZM3 9.085V6.915L13 5.1V10.9L3 9.085Z" fill="black"/>
</svg>
