<svg width="16" height="16" viewBox="0 0 16 16" fill="none" xmlns="http://www.w3.org/2000/svg">
<path fill-rule="evenodd" clip-rule="evenodd" d="M9.7143 3.26578C9.89859 3.43542 10.013 3.66773 10.035 3.91725L10.8567 9.5H9.8462L9.47865 7H6.51805L6.15075 9.5H5.14025L5.9658 3.88575C5.99329 3.64179 6.10979 3.41654 6.293 3.25311C6.4762 3.08968 6.71325 2.99956 6.95875 3H7.5V1H8.5V3H9.03855C9.28904 3.00136 9.53 3.09613 9.7143 3.26578ZM6.95885 4L6.665 6H9.33165L9.04235 4.03125L6.95885 4ZM13.0609 10.6531C13.3326 10.8594 13.6595 10.9801 14 11H15V12H14C13.612 12.0034 13.2286 11.9152 12.8811 11.7426C12.5335 11.5699 12.2317 11.3177 12 11.0063C11.8549 11.1919 11.6869 11.3584 11.5 11.5019C11.5 12.4302 11.1313 13.3204 10.4749 13.9768C9.8185 14.6332 8.92826 15.0019 8 15.0019C7.07174 15.0019 6.1815 14.6332 5.52513 13.9768C4.86875 13.3204 4.5 12.4302 4.5 11.5019C4.31313 11.3584 4.14514 11.1919 4 11.0063C3.76834 11.3177 3.46647 11.5699 3.11894 11.7426C2.77141 11.9152 2.38804 12.0034 2 12H1V11H2C2.34094 10.9799 2.66819 10.8589 2.94007 10.6522C3.21194 10.4455 3.41612 10.1625 3.5266 9.83934C3.55819 9.73918 3.6214 9.65197 3.70676 9.59079C3.79211 9.5296 3.895 9.49774 4 9.49999C4.10481 9.50051 4.20684 9.53371 4.29187 9.59499C4.3769 9.65625 4.44069 9.74253 4.47435 9.84179C4.58502 10.1644 4.7892 10.4469 5.06088 10.6531C5.33257 10.8594 5.65948 10.9801 6 11C6.34094 10.9799 6.66819 10.8589 6.94007 10.6522C7.21194 10.4455 7.41612 10.1625 7.5266 9.83934C7.55946 9.73997 7.623 9.65358 7.70806 9.59261C7.79313 9.53163 7.89534 9.4992 8 9.49999C8.10481 9.50051 8.20684 9.53371 8.29187 9.59499C8.3769 9.65625 8.44069 9.74253 8.47435 9.84179C8.58502 10.1644 8.7892 10.4469 9.06088 10.6531C9.33257 10.8594 9.65948 10.9801 10 11C10.3409 10.9799 10.6682 10.8589 10.9401 10.6522C11.2119 10.4455 11.4161 10.1625 11.5266 9.83934C11.5603 9.7402 11.6242 9.65413 11.7094 9.59326C11.7945 9.53239 11.8967 9.4998 12.0014 9.50007C12.106 9.50034 12.208 9.53346 12.2929 9.59477C12.3777 9.65608 12.4412 9.74248 12.4743 9.84179C12.585 10.1644 12.7892 10.4469 13.0609 10.6531ZM6.40478 13.4211C6.8528 13.7941 7.41704 13.9988 8 14C8.58296 13.9988 9.1472 13.7941 9.59522 13.4211C10.0433 13.0481 10.3469 12.5304 10.4537 11.9573C10.304 11.9847 10.1522 11.999 10 12C9.61196 12.0034 9.22859 11.9152 8.88106 11.7426C8.53353 11.5699 8.23166 11.3177 8 11.0063C7.76834 11.3177 7.46647 11.5699 7.11894 11.7426C6.77141 11.9152 6.38804 12.0034 6 12C5.8478 11.999 5.69597 11.9847 5.54625 11.9573C5.65308 12.5304 5.95675 13.0481 6.40478 13.4211Z" fill="black"/>
</svg>
