<svg width="16" height="16" viewBox="0 0 16 16" fill="none" xmlns="http://www.w3.org/2000/svg">
<path fill-rule="evenodd" clip-rule="evenodd" d="M5.5 2H10.5C11.1628 2.00078 11.7982 2.26442 12.2669 2.7331C12.7356 3.20177 12.9992 3.8372 13 4.5V11.5C12.9996 11.7651 12.8942 12.0193 12.7067 12.2067C12.5193 12.3942 12.2651 12.4996 12 12.5V14H11V12.5H5V14H4V12.5C3.73488 12.4997 3.4807 12.3942 3.29323 12.2068C3.10576 12.0193 3.0003 11.7651 3 11.5V4.5C3.00078 3.8372 3.26442 3.20177 3.7331 2.7331C4.20177 2.26442 4.8372 2.00078 5.5 2ZM12.0005 8L12 5H4V8H12.0005ZM10.5 3H5.5C5.19081 3.00095 4.88949 3.09758 4.63742 3.27663C4.38534 3.45568 4.19487 3.70837 4.09215 4H11.9079C11.8051 3.70837 11.6147 3.45568 11.3626 3.27663C11.1105 3.09758 10.8092 3.00095 10.5 3ZM4 9V11.5H12.001L12.0006 9H4ZM2.5 5.5H1.5V7.5H2.5V5.5ZM14.5 5.5H13.5V7.5H14.5V5.5ZM10 11V10H11V11H10ZM6 10H5V11H6V10Z" fill="black"/>
</svg>
