<svg width="16" height="16" viewBox="0 0 16 16" fill="none" xmlns="http://www.w3.org/2000/svg">
<path fill-rule="evenodd" clip-rule="evenodd" d="M2 11H14C14.2651 10.9997 14.5193 10.8943 14.7068 10.7068C14.8943 10.5193 14.9997 10.2651 15 10V6C14.9997 5.73487 14.8943 5.48068 14.7068 5.2932C14.5193 5.10572 14.2651 5.00028 14 5H2C1.73487 5.00028 1.48068 5.10572 1.2932 5.2932C1.10572 5.48068 1.00028 5.73487 1 6V10C1.00028 10.2651 1.10572 10.5193 1.2932 10.7068C1.48068 10.8943 1.73487 10.9997 2 11ZM2 10V6H14V10H2ZM4.5 7.5H11.5V8.5H4.5V7.5Z" fill="black"/>
</svg>
