<svg width="16" height="16" viewBox="0 0 16 16" fill="none" xmlns="http://www.w3.org/2000/svg">
<path fill-rule="evenodd" clip-rule="evenodd" d="M13.1337 1.10487C13.2976 1.03566 13.4736 1 13.6515 1.00001C13.8294 1.00001 14.0054 1.03567 14.1692 1.10488C14.3331 1.17409 14.4814 1.27545 14.6054 1.40296C14.8585 1.66406 15 2.01341 15 2.37703C15 2.74066 14.8585 3.09001 14.6054 3.35111L12.5 5.50001L10.3946 3.35111C10.1415 3.09001 9.99999 2.74066 9.99999 2.37703C9.99999 2.01341 10.1415 1.66406 10.3946 1.40296C10.5186 1.27544 10.6669 1.17408 10.8307 1.10487C10.9946 1.03566 11.1707 1 11.3485 1C11.5264 1 11.7024 1.03566 11.8663 1.10487C12.0301 1.17408 12.1784 1.27544 12.3024 1.40296L12.5 1.60561L12.6975 1.40296C12.8215 1.27544 12.9699 1.17408 13.1337 1.10487ZM15 11.5V12.5H12V14H15V15H0.99999V14H3.99999V12.5H3.38499C3.16454 12.4998 2.9503 12.427 2.77547 12.2927C2.60063 12.1584 2.47496 11.9702 2.41794 11.7573L0.51709 4.62889L1.48289 4.37109L2.71739 8.99999H6.49999V9.99999H2.98379L3.38379 11.5H7.99999V12.5H4.99999V14H11V12.5H10.385C10.1645 12.4998 9.9503 12.427 9.77547 12.2927C9.60063 12.1584 9.47496 11.9702 9.41794 11.7573L7.51709 4.62889L8.48289 4.37109L9.71739 8.99999H13.5V9.99999H9.98379L10.3838 11.5H15Z" fill="black"/>
</svg>
