<svg width="16" height="16" viewBox="0 0 16 16" fill="none" xmlns="http://www.w3.org/2000/svg">
<path fill-rule="evenodd" clip-rule="evenodd" d="M13 1H12V4.5H13V1ZM13.25 6.25C13.25 5.83579 12.9142 5.5 12.5 5.5C12.0858 5.5 11.75 5.83579 11.75 6.25C11.75 6.66421 12.0858 7 12.5 7C12.9142 7 13.25 6.66421 13.25 6.25ZM7.5415 8.99999H11.9109C12.4183 8.9914 12.911 9.17032 13.2946 9.50246C13.6783 9.8346 13.9259 10.2966 13.99 10.8C14.0176 11.078 13.9867 11.3588 13.8993 11.6241C13.8118 11.8895 13.6699 12.1337 13.4824 12.3409C13.295 12.5481 13.0663 12.7138 12.811 12.8273C12.5556 12.9408 12.2794 12.9996 12 13H10.5V14C10.5 14.2652 10.3946 14.5196 10.2071 14.7071C10.0196 14.8946 9.76522 15 9.5 15H2V14H9.5V13H5.23875C5.01854 13 4.80449 12.9273 4.62981 12.7932C4.45513 12.6591 4.3296 12.4711 4.2727 12.2584L2.06835 4.01764C1.9311 3.50527 2.00301 2.95936 2.26826 2.50001C2.53351 2.04065 2.97038 1.70549 3.48275 1.56824C3.99512 1.43099 4.54103 1.5029 5.00038 1.76815C5.45973 2.0334 5.7949 2.47027 5.93215 2.98264L7.5415 8.99999ZM5.23875 12H12C12.2652 12 12.5196 11.8946 12.7071 11.7071C12.8946 11.5196 13 11.2652 13 11C13 10.7348 12.8946 10.4804 12.7071 10.2929C12.5196 10.1053 12.2652 9.99999 12 9.99999H6.7733L4.9662 3.24144C4.89756 2.98525 4.72997 2.76683 4.50028 2.63421C4.2706 2.50159 3.99764 2.46565 3.74145 2.53429C3.48526 2.60293 3.26684 2.77052 3.13422 3.00021C3.0016 3.22989 2.96566 3.50285 3.0343 3.75904L5.23875 12Z" fill="black"/>
</svg>
