<svg width="16" height="16" viewBox="0 0 16 16" fill="none" xmlns="http://www.w3.org/2000/svg">
<path fill-rule="evenodd" clip-rule="evenodd" d="M13.1333 1.10489C13.2972 1.03568 13.4732 1.00002 13.6511 1.00001C13.829 1.00002 14.005 1.03568 14.1689 1.10489C14.3327 1.1741 14.481 1.27545 14.605 1.40296C14.8581 1.66407 14.9996 2.01341 14.9996 2.37703C14.9996 2.74066 14.8581 3.09 14.605 3.35111L12.5006 5.50001L10.3942 3.35111C10.1411 3.09 9.99962 2.74066 9.99962 2.37703C9.99962 2.01341 10.1411 1.66407 10.3942 1.40296C10.5182 1.27544 10.6665 1.17409 10.8304 1.10487C10.9942 1.03566 11.1703 1 11.3482 1C11.526 1 11.7021 1.03566 11.8659 1.10487C12.0298 1.17409 12.1781 1.27544 12.3021 1.40296L12.5006 1.60561L12.6972 1.40296C12.8212 1.27546 12.9695 1.1741 13.1333 1.10489ZM7.5415 8.99999H11.9109C12.4183 8.99139 12.911 9.1703 13.2946 9.50244C13.6783 9.83459 13.9259 10.2966 13.99 10.8C14.0176 11.078 13.9867 11.3588 13.8993 11.6241C13.8118 11.8895 13.6699 12.1337 13.4824 12.3409C13.295 12.5481 13.0663 12.7138 12.811 12.8273C12.5556 12.9408 12.2794 12.9996 12 13H10.5V14C10.5 14.2652 10.3946 14.5196 10.2071 14.7071C10.0196 14.8946 9.76522 15 9.5 15H2V14H9.5V13H5.23875C5.01854 13 4.80449 12.9273 4.62981 12.7932C4.45513 12.6591 4.3296 12.4711 4.2727 12.2584L2.06835 4.01764C1.9311 3.50527 2.00301 2.95936 2.26826 2.50001C2.53351 2.04065 2.97038 1.70549 3.48275 1.56824C3.99512 1.43099 4.54103 1.5029 5.00038 1.76815C5.45973 2.0334 5.7949 2.47027 5.93215 2.98264L7.5415 8.99999ZM5.2388 12H12C12.2652 12 12.5196 11.8946 12.7071 11.7071C12.8946 11.5196 13 11.2652 13 11C13 10.7348 12.8946 10.4804 12.7071 10.2929C12.5196 10.1053 12.2652 9.99999 12 9.99999H6.7733L4.9662 3.24144C4.89756 2.98525 4.72997 2.76683 4.50028 2.63421C4.2706 2.50159 3.99764 2.46565 3.74145 2.53429C3.48526 2.60293 3.26684 2.77052 3.13422 3.00021C3.0016 3.22989 2.96566 3.50285 3.0343 3.75904L5.2388 12Z" fill="black"/>
</svg>
