<svg width="16" height="16" viewBox="0 0 16 16" fill="none" xmlns="http://www.w3.org/2000/svg">
<path fill-rule="evenodd" clip-rule="evenodd" d="M2 11.5H5V10.5H2V5.5H5V4.5H2C1.73478 4.5 1.48043 4.60536 1.29289 4.79289C1.10536 4.98043 1 5.23478 1 5.5V10.5C1 10.7652 1.10536 11.0196 1.29289 11.2071C1.48043 11.3946 1.73478 11.5 2 11.5ZM9 4.5H7C6.73478 4.5 6.48043 4.60536 6.29289 4.79289C6.10536 4.98043 6 5.23478 6 5.5V11.5H7V9H9V11.5H10V5.5C10 5.23478 9.89464 4.98043 9.70711 4.79289C9.51957 4.60536 9.26522 4.5 9 4.5ZM7 8V5.5H9V8H7ZM14.4142 10.9142C14.0391 11.2893 13.5304 11.5 13 11.5H11V4.5H13C13.5304 4.5 14.0391 4.71071 14.4142 5.08579C14.7893 5.46086 15 5.96957 15 6.5V9.5C15 10.0304 14.7893 10.5391 14.4142 10.9142ZM12 10.5H13C13.2652 10.5 13.5196 10.3946 13.7071 10.2071C13.8946 10.0196 14 9.76522 14 9.5V6.5C14 6.23478 13.8946 5.98043 13.7071 5.79289C13.5196 5.60536 13.2652 5.5 13 5.5H12V10.5Z" fill="black"/>
</svg>
