<svg width="16" height="16" viewBox="0 0 16 16" fill="none" xmlns="http://www.w3.org/2000/svg">
<path fill-rule="evenodd" clip-rule="evenodd" d="M13 2V14H3V2H13ZM13 1H3C2.73478 1 2.48043 1.10536 2.29289 1.29289C2.10536 1.48043 2 1.73478 2 2V14C2 14.2652 2.10536 14.5196 2.29289 14.7071C2.48043 14.8946 2.73478 15 3 15H13C13.2652 15 13.5196 14.8946 13.7071 14.7071C13.8946 14.5196 14 14.2652 14 14V2C14 1.73478 13.8946 1.48043 13.7071 1.29289C13.5196 1.10536 13.2652 1 13 1ZM5.5 11.5H4.5V12.5H5.5V11.5ZM10.5 11.5H11.5V12.5H10.5V11.5ZM5.5 9H4.5V10H5.5V9ZM10.5 9H11.5V10H10.5V9ZM5.5 6.5H4.5V7.5H5.5V6.5ZM7.5 11.5H8.5V12.5H7.5V11.5ZM8.5 9H7.5V10H8.5V9ZM7.5 6.5H8.5V7.5H7.5V6.5ZM11.5 6.5H10.5V7.5H11.5V6.5ZM4.5 3.5H11.5V5H4.5V3.5Z" fill="black"/>
</svg>
