<svg width="16" height="16" viewBox="0 0 16 16" fill="none" xmlns="http://www.w3.org/2000/svg">
<path fill-rule="evenodd" clip-rule="evenodd" d="M2.5 1.5H13.5C13.7651 1.5003 14.0193 1.60576 14.2068 1.79323C14.3942 1.9807 14.4997 2.23488 14.5 2.5V13.5C14.4997 13.7651 14.3942 14.0193 14.2068 14.2068C14.0193 14.3942 13.7651 14.4997 13.5 14.5H2.5C2.23488 14.4997 1.9807 14.3942 1.79323 14.2068C1.60576 14.0193 1.5003 13.7651 1.5 13.5V2.5C1.5003 2.23488 1.60576 1.9807 1.79323 1.79323C1.9807 1.60576 2.23488 1.5003 2.5 1.5ZM7.5 7.5V2.5H2.5V7.5H7.5ZM7.5 8.5H2.5V13.5H7.5V8.5ZM8.5 2.5V13.5H13.5V2.5H8.5ZM3.5 4.5H6.5V5.5H3.5V4.5ZM12.5 6.5H9.5V7.5H12.5V6.5ZM6.5 10.5H5.5V9.5H4.5V10.5H3.5V11.5H4.5V12.5H5.5V11.5H6.5V10.5ZM12.5 8.5H9.5V9.5H12.5V8.5Z" fill="black"/>
</svg>
