<svg width="16" height="16" viewBox="0 0 16 16" fill="none" xmlns="http://www.w3.org/2000/svg">
<path fill-rule="evenodd" clip-rule="evenodd" d="M3.0023 15H8.5V14H3V2H13V9H14V1.99805C13.9997 1.73343 13.8944 1.47974 13.7073 1.29264C13.5202 1.10553 13.2665 1.00029 13.0019 1H2.99805C2.73344 1.0003 2.47976 1.10555 2.29266 1.29266C2.10555 1.47976 2.0003 1.73344 2 1.99805V13.9976C2.00028 14.2633 2.10596 14.5181 2.29386 14.706C2.48177 14.894 2.73655 14.9997 3.0023 15ZM11.5 3.5H4.5V5H11.5V3.5ZM10.5 6.5H11.5V7.5H10.5V6.5ZM11.5 9H10.5V10H11.5V9ZM12 13.295L10.705 12L10 12.705L12 14.705L15.5 11.205L14.795 10.5L12 13.295ZM8.5 11.5H7.5V12.5H8.5V11.5ZM4.5 11.5H5.5V12.5H4.5V11.5ZM7.5 9H8.5V10H7.5V9ZM5.5 9H4.5V10H5.5V9ZM8.5 6.5H7.5V7.5H8.5V6.5ZM4.5 6.5H5.5V7.5H4.5V6.5Z" fill="black"/>
</svg>
