<svg width="16" height="16" viewBox="0 0 16 16" fill="none" xmlns="http://www.w3.org/2000/svg">
<path fill-rule="evenodd" clip-rule="evenodd" d="M13 2C13.55 2 14 2.45 14 3V6H13V3H11V4H10V3H6V4H5V3H3V13H6V14H3C2.45 14 2 13.55 2 13V3C2 2.45 2.45 2 3 2H5V1H6V2H10V1H11V2H13ZM11 15C8.8 15 7 13.2 7 11C7 8.8 8.8 7 11 7C13.2 7 15 8.8 15 11C15 13.2 13.2 15 11 15ZM11 8C9.35 8 8 9.35 8 11C8 12.65 9.35 14 11 14C12.65 14 14 12.65 14 11C14 9.35 12.65 8 11 8ZM13 10.5H11.5V9H10.5V10.5H9V11.5H10.5V13H11.5V11.5H13V10.5Z" fill="black"/>
</svg>
