<svg width="16" height="16" viewBox="0 0 16 16" fill="none" xmlns="http://www.w3.org/2000/svg">
<path fill-rule="evenodd" clip-rule="evenodd" d="M11 2H13C13.2652 2 13.5196 2.10536 13.7071 2.29289C13.8946 2.48043 14 2.73478 14 3V7H13V3H11V4H10V3H6V4H5V3H3V13H7V14H3C2.73478 14 2.48043 13.8946 2.29289 13.7071C2.10536 13.5196 2 13.2652 2 13V3C2 2.73478 2.10536 2.48043 2.29289 2.29289C2.48043 2.10536 2.73478 2 3 2H5V1H6V2H10V1H11V2ZM13 12.5C12.6441 12.4981 12.2954 12.4002 11.9905 12.2167L9.20705 15L8.5 14.293L11.2835 11.5096C11.0998 11.2047 11.0019 10.8559 11 10.5C11.0006 9.96975 11.2115 9.46139 11.5864 9.08644C11.9614 8.7115 12.4697 8.5006 13 8.5C13.173 8.50235 13.3449 8.52741 13.5113 8.57455L12.2929 9.79295L12.2932 9.7932C12.2004 9.88602 12.1268 9.99621 12.0765 10.1175C12.0263 10.2388 12.0004 10.3687 12.0004 10.5C12.0004 10.6313 12.0263 10.7612 12.0765 10.8825C12.1268 11.0038 12.2004 11.114 12.2932 11.2068C12.386 11.2996 12.4962 11.3732 12.6175 11.4235C12.7388 11.4737 12.8687 11.4996 13 11.4996C13.1313 11.4996 13.2612 11.4737 13.3825 11.4235C13.5038 11.3732 13.614 11.2996 13.7068 11.2068L13.7071 11.2071L14.9254 9.9886C14.9726 10.1551 14.9977 10.327 15 10.5C14.9994 11.0303 14.7885 11.5386 14.4136 11.9136C14.0386 12.2885 13.5303 12.4994 13 12.5Z" fill="black"/>
</svg>
