<svg width="16" height="16" viewBox="0 0 16 16" fill="none" xmlns="http://www.w3.org/2000/svg">
<path fill-rule="evenodd" clip-rule="evenodd" d="M13.7071 2.29289C13.8946 2.48043 14 2.73478 14 3V6H13V3H11V4H10V3H6V4H5V3H3V13H5V14H3C2.73478 14 2.48043 13.8946 2.29289 13.7071C2.10536 13.5196 2 13.2652 2 13V3C2 2.73478 2.10536 2.48043 2.29289 2.29289C2.48043 2.10536 2.73478 2 3 2H5V1H6V2H10V1H11V2H13C13.2652 2 13.5196 2.10536 13.7071 2.29289ZM13.955 10.5H15V11.5H13.955C13.8801 11.9453 13.7049 12.3678 13.4426 12.7355L14.182 13.475L13.475 14.1819L12.7354 13.4428C12.3678 13.705 11.9453 13.8801 11.5 13.955V15H10.5V13.955C10.0546 13.8801 9.63211 13.7049 9.2644 13.4426L8.525 14.1819L7.818 13.475L8.5572 12.7353C8.29511 12.3677 8.11997 11.9453 8.045 11.5H7V10.5H8.045C8.11999 10.0547 8.29518 9.63221 8.55735 9.2645L7.818 8.525L8.525 7.8181L9.26455 8.5572C9.63223 8.29504 10.0547 8.1199 10.5 8.045V7H11.5V8.045C11.9454 8.11992 12.3679 8.29512 12.7356 8.55735L13.475 7.8181L14.182 8.525L13.4428 9.26465C13.7049 9.6323 13.8801 10.0547 13.955 10.5ZM9.88886 12.6629C10.2178 12.8827 10.6044 13 11 13C11.5303 12.9994 12.0386 12.7885 12.4136 12.4136C12.7885 12.0386 12.9994 11.5303 13 11C13 10.6044 12.8827 10.2178 12.6629 9.88886C12.4432 9.55996 12.1308 9.30362 11.7654 9.15224C11.3999 9.00087 10.9978 8.96126 10.6098 9.03843C10.2219 9.1156 9.86549 9.30608 9.58579 9.58579C9.30608 9.86549 9.1156 10.2219 9.03843 10.6098C8.96126 10.9978 9.00087 11.3999 9.15224 11.7654C9.30362 12.1308 9.55996 12.4432 9.88886 12.6629Z" fill="black"/>
</svg>
