<svg width="16" height="16" viewBox="0 0 16 16" fill="none" xmlns="http://www.w3.org/2000/svg">
<path d="M14.415 10.585L12.5 8.68503L12.835 8.35003C12.9281 8.25635 12.9804 8.12962 12.9804 7.99753C12.9804 7.86544 12.9281 7.73871 12.835 7.64503L9.83501 4.64503C9.74133 4.5519 9.6146 4.49963 9.48251 4.49963C9.35042 4.49963 9.22369 4.5519 9.13001 4.64503L8.73501 5.04003L5.35501 1.64503C5.26133 1.5519 5.1346 1.49963 5.00251 1.49963C4.87042 1.49963 4.74369 1.5519 4.65001 1.64503L2.65001 3.64503L2.59001 3.72003L0.590009 6.72003C0.525815 6.81585 0.49672 6.93091 0.507655 7.04573C0.518589 7.16055 0.568881 7.26805 0.650009 7.35003L2.15001 8.85003C2.19649 8.89689 2.25179 8.93409 2.31272 8.95948C2.37365 8.98486 2.439 8.99793 2.50501 8.99793C2.57102 8.99793 2.63637 8.98486 2.6973 8.95948C2.75823 8.93409 2.81353 8.89689 2.86001 8.85003L5.00001 6.70503L6.04501 7.75003L3.64501 10.145C3.55188 10.2387 3.49961 10.3654 3.49961 10.4975C3.49961 10.6296 3.55188 10.7563 3.64501 10.85L4.64501 11.85C4.69132 11.8973 4.74654 11.9349 4.80748 11.9606C4.86842 11.9864 4.93386 11.9998 5.00001 12C5.09192 11.9994 5.18188 11.9735 5.26001 11.925L7.42501 10.625L8.64501 11.85C8.73869 11.9432 8.86542 11.9954 8.99751 11.9954C9.1296 11.9954 9.25633 11.9432 9.35001 11.85L9.68501 11.5L11.58 13.415C11.9553 13.7903 12.4643 14.0011 12.995 14.0011C13.5257 14.0011 14.0347 13.7903 14.41 13.415C14.7853 13.0397 14.9961 12.5308 14.9961 12C14.9961 11.4693 14.7853 10.9603 14.41 10.585H14.415ZM5.00001 5.29003L2.50001 7.79003L1.64501 6.93503L3.39001 4.31503L5.00001 2.70503L8.04501 5.75003L6.75001 7.04003L5.00001 5.29003ZM9.00001 10.79L7.58001 9.37003L5.08001 10.87L4.71001 10.5L9.50001 5.70503L11.795 8.00003L9.00001 10.79ZM13.71 12.705C13.6171 12.798 13.5069 12.8718 13.3855 12.9221C13.2641 12.9724 13.1339 12.9983 13.0025 12.9983C12.8711 12.9983 12.741 12.9724 12.6196 12.9221C12.4982 12.8718 12.3879 12.798 12.295 12.705L10.395 10.81L11.81 9.39503L13.71 11.29C13.803 11.3829 13.8767 11.4932 13.9271 11.6146C13.9774 11.736 14.0033 11.8661 14.0033 11.9975C14.0033 12.1289 13.9774 12.2591 13.9271 12.3805C13.8767 12.5019 13.803 12.6122 13.71 12.705Z" fill="black"/>
</svg>
