<svg width="16" height="16" viewBox="0 0 16 16" fill="none" xmlns="http://www.w3.org/2000/svg">
<path fill-rule="evenodd" clip-rule="evenodd" d="M1.5 13.5H14.5C14.6326 13.5 14.7598 13.4473 14.8536 13.3536C14.9473 13.2598 15 13.1326 15 13V3C15 2.86739 14.9473 2.74021 14.8536 2.64645C14.7598 2.55268 14.6326 2.5 14.5 2.5H1.5C1.36739 2.5 1.24021 2.55268 1.14645 2.64645C1.05268 2.74021 1 2.86739 1 3V13C1 13.1326 1.05268 13.2598 1.14645 13.3536C1.24021 13.4473 1.36739 13.5 1.5 13.5ZM14 12.5H2V3.5H14V12.5ZM4.33329 10.9944C4.82664 11.3241 5.40666 11.5 6 11.5C6.79565 11.5 7.55871 11.1839 8.12132 10.6213C8.68393 10.0587 9 9.29565 9 8.5C9 7.90666 8.82405 7.32664 8.49441 6.83329C8.16477 6.33994 7.69623 5.95543 7.14805 5.72836C6.59987 5.5013 5.99667 5.44189 5.41473 5.55765C4.83279 5.6734 4.29824 5.95912 3.87868 6.37868C3.45912 6.79824 3.1734 7.33279 3.05765 7.91473C2.94189 8.49667 3.0013 9.09987 3.22836 9.64805C3.45543 10.1962 3.83994 10.6648 4.33329 10.9944ZM4.88886 6.83706C5.21776 6.6173 5.60444 6.5 6 6.5C6.53043 6.5 7.03914 6.71071 7.41421 7.08579C7.78929 7.46086 8 7.96957 8 8.5C8 8.89556 7.8827 9.28224 7.66294 9.61114C7.44318 9.94004 7.13082 10.1964 6.76537 10.3478C6.39992 10.4991 5.99778 10.5387 5.60982 10.4616C5.22186 10.3844 4.86549 10.1939 4.58579 9.91421C4.30608 9.63451 4.1156 9.27814 4.03843 8.89018C3.96126 8.50222 4.00087 8.10009 4.15224 7.73463C4.30362 7.36918 4.55996 7.05683 4.88886 6.83706ZM13 4.5H9.5V5.5H13V4.5ZM6.5 8.5C6.5 8.77614 6.27614 9 6 9C5.72386 9 5.5 8.77614 5.5 8.5C5.5 8.22386 5.72386 8 6 8C6.27614 8 6.5 8.22386 6.5 8.5Z" fill="black"/>
</svg>
