<svg width="16" height="16" viewBox="0 0 16 16" fill="none" xmlns="http://www.w3.org/2000/svg">
<path fill-rule="evenodd" clip-rule="evenodd" d="M12.0843 4.725L12.7205 7H14V8H13V11.5C12.9997 11.7651 12.8942 12.0193 12.7067 12.2067C12.5193 12.3942 12.2651 12.4997 12 12.5V14H11V12.5H5V14H4V12.5C3.73488 12.4997 3.48072 12.3942 3.29326 12.2067C3.10579 12.0193 3.00033 11.7651 3 11.5V8H2V7H3.26575L3.91565 4.72535C3.97599 4.51676 4.10229 4.33333 4.27564 4.20256C4.449 4.07179 4.66006 4.00072 4.8772 4H11.1228C11.3399 4.00071 11.5509 4.07173 11.7243 4.20243C11.8976 4.33313 12.0239 4.51648 12.0843 4.725ZM11.1229 5H4.8772L4.16285 7.5H11.8371L11.1229 5ZM12 11.5V10.5H11V9.5H12V8.5H4V9.5H5V10.5H4V11.5H12ZM6.5 9.5H9.5V10.5H6.5V9.5Z" fill="black"/>
</svg>
