<svg width="16" height="16" viewBox="0 0 16 16" fill="none" xmlns="http://www.w3.org/2000/svg">
<path fill-rule="evenodd" clip-rule="evenodd" d="M13.5002 7.49992H12.5002V3.79142L8.75021 1.66717L4.74661 3.93497L4.25391 3.06487L8.50386 0.657367C8.65671 0.570917 8.84371 0.570917 8.99656 0.657367L13.2466 3.06487C13.4033 3.15372 13.5002 3.31972 13.5002 3.49992V7.49992ZM10.7464 7.06506L6.49635 4.65761C6.3435 4.57116 6.1565 4.57116 6.00365 4.65761L1.75365 7.06506C1.5969 7.15391 1.5 7.31996 1.5 7.50011V12.5001C1.5 12.6803 1.5969 12.8463 1.75365 12.9352L6.00365 15.3426L6.49635 14.4725L2.5 12.2086V7.79161L6.25 5.66736L10 7.79161V9.00011H11V7.50011C11 7.31991 10.9031 7.15391 10.7464 7.06506ZM15 10H12V11H15V10ZM14.5 13C14.7761 13 15 12.7761 15 12.5C15 12.2239 14.7761 12 14.5 12C14.2239 12 14 12.2239 14 12.5C14 12.7761 14.2239 13 14.5 13ZM11 14.5C11 14.7761 10.7761 15 10.5 15C10.2239 15 10 14.7761 10 14.5C10 14.2239 10.2239 14 10.5 14C10.7761 14 11 14.2239 11 14.5ZM12 14H15V15H12V14ZM13 13H10V12H13V13ZM11 10.5C11 10.7761 10.7761 11 10.5 11C10.2239 11 10 10.7761 10 10.5C10 10.2239 10.2239 10 10.5 10C10.7761 10 11 10.2239 11 10.5Z" fill="black"/>
</svg>
