<svg width="16" height="16" viewBox="0 0 16 16" fill="none" xmlns="http://www.w3.org/2000/svg">
<path fill-rule="evenodd" clip-rule="evenodd" d="M2 1H14C14.5515 1 15 1.4485 15 2V7H14V5H2V12H6.5V13H2C1.4485 13 1 12.5515 1 12V2C1 1.4485 1.4485 1 2 1ZM2 2V4H14V2H2ZM3.5 3C3.5 3.27614 3.27614 3.5 3 3.5C2.72386 3.5 2.5 3.27614 2.5 3C2.5 2.72386 2.72386 2.5 3 2.5C3.27614 2.5 3.5 2.72386 3.5 3ZM11.7545 7.0695L14.7545 8.8445C14.9065 8.9345 15 9.098 15 9.275V12.725C15 12.902 14.9065 13.0655 14.7545 13.155L11.7545 14.93C11.676 14.977 11.588 15 11.5 15C11.412 15 11.324 14.977 11.2455 14.93L8.2455 13.155C8.0935 13.0655 8 12.902 8 12.725V9.275C8 9.098 8.0935 8.9345 8.2455 8.845L11.2455 7.07C11.324 7.023 11.412 7 11.5 7C11.588 7 11.676 7.023 11.7545 7.0695ZM11.5 13.919L14 12.44V9.56L11.5 8.081L9 9.56V12.44L11.5 13.919ZM4.5 3.5C4.77614 3.5 5 3.27614 5 3C5 2.72386 4.77614 2.5 4.5 2.5C4.22386 2.5 4 2.72386 4 3C4 3.27614 4.22386 3.5 4.5 3.5Z" fill="black"/>
</svg>
