<svg width="16" height="16" viewBox="0 0 16 16" fill="none" xmlns="http://www.w3.org/2000/svg">
<path fill-rule="evenodd" clip-rule="evenodd" d="M13 8.50008H14V3.50008C14 3.41161 13.9765 3.32474 13.9319 3.24832C13.8874 3.17189 13.8233 3.10866 13.7464 3.06508L9.49635 0.657577C9.4212 0.615097 9.33633 0.592773 9.25 0.592773C9.16367 0.592773 9.07881 0.615097 9.00365 0.657577L4.75365 3.06508L5.24635 3.93508L9.25 1.66733L13 3.79158V8.50008ZM6.50365 15.3425C6.57879 15.3851 6.66365 15.4075 6.75 15.4075C6.83634 15.4075 6.92121 15.3851 6.99635 15.3426L11.2464 12.9351C11.3233 12.8915 11.3874 12.8283 11.4319 12.7518C11.4765 12.6754 11.5 12.5885 11.5 12.5001V7.50008C11.5 7.41161 11.4765 7.32474 11.4319 7.24832C11.3874 7.17189 11.3233 7.10866 11.2464 7.06508L6.99635 4.65758C6.92119 4.6151 6.83633 4.59277 6.75 4.59277C6.66367 4.59277 6.57881 4.6151 6.50365 4.65758L2.25365 7.06508C2.17667 7.10866 2.11263 7.17189 2.06807 7.24832C2.02351 7.32474 2.00002 7.41161 2 7.50008V12.5001C2.00003 12.5885 2.02352 12.6754 2.06808 12.7518C2.11264 12.8282 2.17668 12.8914 2.25365 12.935L6.50365 15.3425ZM6.75 14.3328L3 12.2086V7.79158L6.75 5.66733L10.5 7.79158V12.2086L6.75 14.3328Z" fill="black"/>
</svg>
