<svg width="16" height="16" viewBox="0 0 16 16" fill="none" xmlns="http://www.w3.org/2000/svg">
<path fill-rule="evenodd" clip-rule="evenodd" d="M11 13H5C4.73478 13 4.48043 12.8946 4.29289 12.7071C4.10536 12.5196 4 12.2652 4 12V4C4 3.73478 4.10536 3.48043 4.29289 3.29289C4.48043 3.10536 4.73478 3 5 3H11C11.2652 3 11.5196 3.10536 11.7071 3.29289C11.8946 3.48043 12 3.73478 12 4V12C12 12.2652 11.8946 12.5196 11.7071 12.7071C11.5196 12.8946 11.2652 13 11 13ZM5 4V12H11V4H5ZM2 12H0V11H2V5H0V4H2C2.26522 4 2.51957 4.10536 2.70711 4.29289C2.89464 4.48043 3 4.73478 3 5V11C3 11.2652 2.89464 11.5196 2.70711 11.7071C2.51957 11.8946 2.26522 12 2 12ZM14 12H16V11H14V5H16V4H14C13.7348 4 13.4804 4.10536 13.2929 4.29289C13.1054 4.48043 13 4.73478 13 5V11C13 11.2652 13.1054 11.5196 13.2929 11.7071C13.4804 11.8946 13.7348 12 14 12Z" fill="black"/>
</svg>
