<svg width="16" height="16" viewBox="0 0 16 16" fill="none" xmlns="http://www.w3.org/2000/svg">
<path fill-rule="evenodd" clip-rule="evenodd" d="M1.5 1H4.5C4.76514 1.00026 5.01934 1.10571 5.20681 1.29319C5.39429 1.48066 5.49974 1.73486 5.5 2V5C5.49974 5.26513 5.39429 5.51933 5.20681 5.70681C5.01934 5.89429 4.76514 5.99973 4.5 6H3.5V11.071C3.97133 11.1927 4.38209 11.4821 4.6553 11.885C4.92851 12.2879 5.0454 12.7766 4.98406 13.2595C4.92272 13.7424 4.68737 14.1864 4.32212 14.5082C3.95686 14.83 3.48679 15.0075 3 15.0075C2.51321 15.0075 2.04314 14.83 1.67788 14.5082C1.31263 14.1864 1.07728 13.7424 1.01594 13.2595C0.954603 12.7766 1.07149 12.2879 1.3447 11.885C1.61791 11.4821 2.02867 11.1927 2.5 11.071V6H1.5C1.23486 5.99973 0.980665 5.89429 0.793186 5.70681C0.605707 5.51933 0.500265 5.26513 0.5 5V2C0.500265 1.73486 0.605707 1.48066 0.793186 1.29319C0.980665 1.10571 1.23486 1.00026 1.5 1ZM3.83147 13.5556C3.94135 13.3911 4 13.1978 4 13C3.9997 12.7349 3.89424 12.4807 3.70677 12.2932C3.5193 12.1058 3.26512 12.0003 3 12C2.80222 12 2.60888 12.0586 2.44443 12.1685C2.27998 12.2784 2.15181 12.4346 2.07612 12.6173C2.00043 12.8 1.98063 13.0011 2.01921 13.1951C2.0578 13.3891 2.15304 13.5673 2.29289 13.7071C2.43275 13.847 2.61093 13.9422 2.80491 13.9808C2.99889 14.0194 3.19996 13.9996 3.38268 13.9239C3.56541 13.8482 3.72159 13.72 3.83147 13.5556ZM1.5 2V5H4.50075L4.5 2H1.5ZM9.5 3H7V4H9.5V7H6V8H7.5V11.071C7.02867 11.1927 6.6179 11.4821 6.3447 11.885C6.07149 12.2879 5.9546 12.7766 6.01594 13.2595C6.07728 13.7424 6.31263 14.1864 6.67788 14.5082C7.04313 14.83 7.51321 15.0075 8 15.0075C8.48678 15.0075 8.95686 14.83 9.32211 14.5082C9.68737 14.1864 9.92272 13.7424 9.98406 13.2595C10.0454 12.7766 9.9285 12.2879 9.6553 11.885C9.38209 11.4821 8.97133 11.1927 8.5 11.071V8H9.5C9.76512 7.9997 10.0193 7.89424 10.2068 7.70677C10.3942 7.5193 10.4997 7.26512 10.5 7V4C10.4997 3.73488 10.3942 3.4807 10.2068 3.29323C10.0193 3.10576 9.76512 3.0003 9.5 3ZM9 13C9 13.1978 8.94135 13.3911 8.83147 13.5556C8.72159 13.72 8.56541 13.8482 8.38268 13.9239C8.19995 13.9996 7.99889 14.0194 7.80491 13.9808C7.61093 13.9422 7.43274 13.847 7.29289 13.7071C7.15304 13.5673 7.0578 13.3891 7.01921 13.1951C6.98063 13.0011 7.00043 12.8 7.07612 12.6173C7.15181 12.4346 7.27998 12.2784 7.44443 12.1685C7.60888 12.0586 7.80222 12 8 12C8.2651 12.0004 8.51925 12.1058 8.70671 12.2933C8.89417 12.4807 8.99964 12.7349 9 13ZM14.5 5H12V6H14.5V9H11V10H12.5V11.071C12.0287 11.1927 11.6179 11.4821 11.3447 11.885C11.0715 12.2879 10.9546 12.7766 11.0159 13.2595C11.0773 13.7424 11.3126 14.1864 11.6779 14.5082C12.0431 14.83 12.5132 15.0075 13 15.0075C13.4868 15.0075 13.9569 14.83 14.3221 14.5082C14.6874 14.1864 14.9227 13.7424 14.9841 13.2595C15.0454 12.7766 14.9285 12.2879 14.6553 11.885C14.3821 11.4821 13.9713 11.1927 13.5 11.071V10H14.5C14.7651 9.99964 15.0193 9.89417 15.2067 9.70671C15.3942 9.51925 15.4996 9.26511 15.5 9V6C15.4997 5.73488 15.3942 5.4807 15.2068 5.29323C15.0193 5.10576 14.7651 5.0003 14.5 5ZM14 13C14 13.1978 13.9413 13.3911 13.8315 13.5556C13.7216 13.72 13.5654 13.8482 13.3827 13.9239C13.2 13.9996 12.9989 14.0194 12.8049 13.9808C12.6109 13.9422 12.4327 13.847 12.2929 13.7071C12.153 13.5673 12.0578 13.3891 12.0192 13.1951C11.9806 13.0011 12.0004 12.8 12.0761 12.6173C12.1518 12.4346 12.28 12.2784 12.4444 12.1685C12.6089 12.0586 12.8022 12 13 12C13.2651 12.0004 13.5193 12.1058 13.7067 12.2933C13.8942 12.4807 13.9996 12.7349 14 13Z" fill="black"/>
</svg>
