<svg width="16" height="16" viewBox="0 0 16 16" fill="none" xmlns="http://www.w3.org/2000/svg">
<path fill-rule="evenodd" clip-rule="evenodd" d="M10.9732 4.99993C10.9061 5.70062 10.693 6.3795 10.3477 6.99283L11.542 8.49993H10.266L9.70215 7.78828C9.15341 8.26705 8.44424 8.52119 7.7163 8.49993H7.7134C7.17966 8.4947 6.66557 8.29787 6.2648 7.94533C5.86403 7.59279 5.60326 7.10799 5.53 6.57928C5.45755 6.10542 5.53096 5.62072 5.74047 5.18956C5.94998 4.7584 6.28568 4.40116 6.703 4.16528C6.2927 3.66933 5.8202 2.88733 6.0724 2.11143C6.22541 1.70084 6.52815 1.36338 6.91979 1.16687C7.31143 0.97036 7.76293 0.929367 8.18355 1.05213C8.42048 1.10549 8.64312 1.20928 8.83632 1.35645C9.02952 1.50361 9.18872 1.69069 9.3031 1.90493C9.41499 2.11013 9.48132 2.33704 9.49759 2.5702C9.51385 2.80336 9.47966 3.03728 9.39735 3.25603C9.17542 3.75503 8.79991 4.1701 8.32555 4.44073L9.66795 6.13518C9.87672 5.61469 9.98923 5.06062 10 4.49993V3.99993H11.5V4.99993H10.9732ZM7.29415 2.09468C7.17063 2.17069 7.07553 2.2852 7.0235 2.42058C6.90435 2.78653 7.29155 3.34073 7.62205 3.69743C7.98058 3.52918 8.2754 3.24995 8.46285 2.90108C8.49426 2.81653 8.50699 2.72618 8.50017 2.63625C8.49334 2.54631 8.46712 2.45892 8.4233 2.38008C8.37652 2.29267 8.31173 2.21617 8.2332 2.15565C8.15467 2.09513 8.0642 2.05195 7.96775 2.02898C7.88217 2.00984 7.79475 2.0001 7.70705 1.99993C7.56275 1.98537 7.41767 2.01866 7.29415 2.09468ZM7.71385 7.49993H7.7158C8.21748 7.51607 8.70594 7.33741 9.0788 7.00138L7.42305 4.91203C7.12315 5.02428 6.87027 5.23507 6.70584 5.50986C6.54142 5.78465 6.47521 6.10714 6.51805 6.42448C6.55341 6.71812 6.6941 6.98897 6.91401 7.18675C7.13392 7.38453 7.41811 7.4958 7.71385 7.49993ZM2 12.9999V14.9999H1V12.9999C1 12.7347 1.10536 12.4804 1.29289 12.2928C1.48043 12.1053 1.73478 11.9999 2 11.9999H7.5V9.49994H8.5V11.9999H14C14.2652 11.9999 14.5196 12.1053 14.7071 12.2928C14.8946 12.4804 15 12.7347 15 12.9999V14.9999H14V12.9999H8.5V14.9999H7.5V12.9999H2Z" fill="black"/>
</svg>
