<svg width="16" height="16" viewBox="0 0 16 16" fill="none" xmlns="http://www.w3.org/2000/svg">
<path fill-rule="evenodd" clip-rule="evenodd" d="M8.5 11.77C7.49468 12.0862 6.41517 12.0766 5.41562 11.7426C4.41607 11.4087 3.54759 10.7675 2.9342 9.9105C2.32081 9.05354 1.99388 8.02468 2.00009 6.97084C2.0063 5.917 2.34534 4.89206 2.96878 4.04239C3.59223 3.19272 4.46821 2.56177 5.47163 2.23963C6.47505 1.91749 7.5546 1.92064 8.55612 2.24862C9.55765 2.57661 10.4299 3.21266 11.0484 4.06595C11.6669 4.91925 11.9999 5.94614 12 7V7.00002C12 7.17002 12 7.33501 11.975 7.5H12.975C12.975 7.41812 12.9812 7.33624 12.9874 7.25375V7.25374V7.25373C12.9937 7.16999 13 7.08563 13 7C13 5.81332 12.6481 4.65328 11.9888 3.66658C11.3295 2.67989 10.3925 1.91085 9.2961 1.45673C8.19975 1.0026 6.99335 0.88378 5.82946 1.11529C4.66558 1.3468 3.59648 1.91825 2.75736 2.75736C1.91825 3.59648 1.3468 4.66558 1.11529 5.82946C0.88378 6.99335 1.0026 8.19975 1.45673 9.2961C1.91085 10.3925 2.67989 11.3295 3.66658 11.9888C4.65328 12.6481 5.81332 13 7 13C7.50611 12.9968 8.0099 12.9313 8.5 12.805V11.77ZM5.33329 9.49441C5.82664 9.82405 6.40666 10 7 10C7.79565 10 8.55871 9.68393 9.12132 9.12132C9.68393 8.55871 10 7.79565 10 7C10 6.40666 9.82405 5.82664 9.49441 5.33329C9.16477 4.83994 8.69623 4.45543 8.14805 4.22836C7.59987 4.0013 6.99667 3.94189 6.41473 4.05765C5.83279 4.1734 5.29824 4.45912 4.87868 4.87868C4.45912 5.29824 4.1734 5.83279 4.05765 6.41473C3.94189 6.99667 4.0013 7.59987 4.22836 8.14805C4.45543 8.69623 4.83994 9.16477 5.33329 9.49441ZM5.88886 5.33706C6.21776 5.1173 6.60444 5 7 5C7.53043 5 8.03914 5.21071 8.41421 5.58579C8.78929 5.96086 9 6.46957 9 7C9 7.39556 8.8827 7.78224 8.66294 8.11114C8.44318 8.44004 8.13082 8.69638 7.76537 8.84776C7.39992 8.99914 6.99778 9.03874 6.60982 8.96157C6.22186 8.8844 5.86549 8.69392 5.58579 8.41421C5.30608 8.13451 5.1156 7.77814 5.03843 7.39018C4.96126 7.00222 5.00087 6.60009 5.15224 6.23463C5.30362 5.86918 5.55996 5.55682 5.88886 5.33706ZM8 7C8 7.55228 7.55228 8 7 8C6.44772 8 6 7.55228 6 7C6 6.44772 6.44772 6 7 6C7.55228 6 8 6.44772 8 7ZM11.43 14.5L12.5 15L13.57 14.5C13.9987 14.297 14.3607 13.9762 14.614 13.5752C14.8672 13.1741 15.0011 12.7093 15 12.235V9H10V12.235C9.99895 12.7093 10.1328 13.1741 10.3861 13.5752C10.6393 13.9762 11.0013 14.297 11.43 14.5ZM11 12.235V10H14V12.235C13.9997 12.5191 13.9187 12.7973 13.7665 13.0372C13.6142 13.2771 13.397 13.4688 13.14 13.59L12.5 13.895L11.86 13.59C11.603 13.4688 11.3858 13.2771 11.2336 13.0372C11.0813 12.7973 11.0003 12.5191 11 12.235Z" fill="black"/>
</svg>
