<svg width="16" height="16" viewBox="0 0 16 16" fill="none" xmlns="http://www.w3.org/2000/svg">
<path fill-rule="evenodd" clip-rule="evenodd" d="M2.75736 2.75741C3.88258 1.63219 5.4087 1.00005 7 1.00005C7.79003 0.99676 8.57294 1.14953 9.30378 1.44958C10.0346 1.74963 10.699 2.19107 11.2588 2.74855C11.8186 3.30603 12.2628 3.96857 12.5659 4.69816C12.869 5.42775 13.025 6.21001 13.025 7.00005C13.025 7.08568 13.0187 7.17003 13.0124 7.25376V7.25378V7.25379C13.0062 7.33628 13 7.41817 13 7.50005H12C12.0101 7.33354 12.0101 7.16657 12 7.00005C12 6.01115 11.7068 5.04445 11.1573 4.2222C10.6079 3.39996 9.82705 2.75909 8.91342 2.38065C7.99979 2.00222 6.99445 1.9032 6.02455 2.09613C5.05464 2.28905 4.16373 2.76526 3.46447 3.46452C2.7652 4.16378 2.289 5.0547 2.09607 6.0246C1.90315 6.99451 2.00216 7.99984 2.3806 8.91347C2.75904 9.8271 3.3999 10.608 4.22215 11.1574C5.04439 11.7068 6.01109 12.0001 7 12.0001V13.0001C5.4087 13.0001 3.88258 12.3679 2.75736 11.2427C1.63214 10.1175 1 8.59135 1 7.00005C1 5.40875 1.63214 3.88263 2.75736 2.75741ZM8 7C8 7.55228 7.55228 8 7 8C6.44772 8 6 7.55228 6 7C6 6.44772 6.44772 6 7 6C7.55228 6 8 6.44772 8 7ZM8.5 12H13.085L11.79 13.295L12.5 14L15 11.5L12.5 9L11.79 9.71L13.085 11H8.5V12ZM5.33329 9.49441C5.82664 9.82405 6.40666 10 7 10C7.79565 10 8.55871 9.68393 9.12132 9.12132C9.68393 8.55871 10 7.79565 10 7C10 6.40666 9.82405 5.82664 9.49441 5.33329C9.16477 4.83994 8.69623 4.45543 8.14805 4.22836C7.59987 4.0013 6.99667 3.94189 6.41473 4.05765C5.83279 4.1734 5.29824 4.45912 4.87868 4.87868C4.45912 5.29824 4.1734 5.83279 4.05765 6.41473C3.94189 6.99667 4.0013 7.59987 4.22836 8.14805C4.45543 8.69623 4.83994 9.16477 5.33329 9.49441ZM5.88886 5.33706C6.21776 5.1173 6.60444 5 7 5C7.53043 5 8.03914 5.21071 8.41421 5.58579C8.78929 5.96086 9 6.46957 9 7C9 7.39556 8.8827 7.78224 8.66294 8.11114C8.44318 8.44004 8.13082 8.69638 7.76537 8.84776C7.39992 8.99914 6.99778 9.03874 6.60982 8.96157C6.22186 8.8844 5.86549 8.69392 5.58579 8.41421C5.30608 8.13451 5.1156 7.77814 5.03843 7.39018C4.96126 7.00222 5.00087 6.60009 5.15224 6.23463C5.30362 5.86918 5.55996 5.55682 5.88886 5.33706Z" fill="black"/>
</svg>
