<svg width="16" height="16" viewBox="0 0 16 16" fill="none" xmlns="http://www.w3.org/2000/svg">
<path fill-rule="evenodd" clip-rule="evenodd" d="M5.14995 3.15L4.44995 2.45C5.34995 1.55 6.59995 1 7.99995 1C9.39995 1 10.65 1.55 11.55 2.45L10.85 3.15C10.1 2.45 9.09995 2 7.99995 2C6.89995 2 5.89995 2.45 5.14995 3.15ZM7.9999 3C7.1499 3 6.3999 3.35 5.8999 3.9L6.5999 4.6C6.9499 4.2 7.4499 4 7.9999 4C8.5499 4 9.0499 4.2 9.3999 4.6L10.0999 3.9C9.5999 3.35 8.8499 3 7.9999 3ZM12.5 5.5V8H8.5V5.5H7.5V8H3.5V5.5H2.5V11.5H3.5V9H5V15H6V9H7.5V11.5H8.5V9H10V15H11V9H12.5V11.5H13.5V5.5H12.5Z" fill="black"/>
</svg>
