<svg width="16" height="16" viewBox="0 0 16 16" fill="none" xmlns="http://www.w3.org/2000/svg">
<path fill-rule="evenodd" clip-rule="evenodd" d="M2 13H8V14H2C1.73478 14 1.48043 13.8946 1.29289 13.7071C1.10536 13.5196 1 13.2652 1 13V3C1 2.73478 1.10536 2.48043 1.29289 2.29289C1.48043 2.10536 1.73478 2 2 2H14C14.2652 2 14.5196 2.10536 14.7071 2.29289C14.8946 2.48043 15 2.73478 15 3V8H14V3H2V13ZM8 4H3V5H8V4ZM3 6H8V7H3V6ZM6 8H3V9H6V8ZM12 8.5L12.956 10.3515L15 10.6485L13.5 12L13.8855 14L12 12.875L10.1145 14L10.5 12L9 10.6485L11.1 10.3515L12 8.5Z" fill="black"/>
</svg>
