<svg width="16" height="16" viewBox="0 0 16 16" fill="none" xmlns="http://www.w3.org/2000/svg">
<path fill-rule="evenodd" clip-rule="evenodd" d="M7 13H2V3H14V8H15V3C15 2.73478 14.8946 2.48043 14.7071 2.29289C14.5196 2.10536 14.2652 2 14 2H2C1.73478 2 1.48043 2.10536 1.29289 2.29289C1.10536 2.48043 1 2.73478 1 3V13C1 13.2652 1.10536 13.5196 1.29289 13.7071C1.48043 13.8946 1.73478 14 2 14H7V13ZM3 4H8V5H3V4ZM8 6H3V7H8V6ZM6 8H3V9H6V8ZM9.705 11.5L11 12.795L14.295 9.5L15 10.205L11 14.205L9 12.205L9.705 11.5Z" fill="black"/>
</svg>
