<svg width="16" height="16" viewBox="0 0 16 16" fill="none" xmlns="http://www.w3.org/2000/svg">
<path d="M13 3.00001C12.5578 3.00136 12.1286 3.14935 11.7795 3.42079C11.4305 3.69223 11.1813 4.07179 11.0711 4.50001H8.96526C8.872 3.75757 8.57226 3.05621 8.10014 2.47568C7.62803 1.89515 7.00247 1.45876 6.29463 1.21613C5.58678 0.97351 4.82506 0.934393 4.09609 1.10323C3.36711 1.27207 2.70015 1.64209 2.17105 2.1712C1.64194 2.70031 1.27194 3.36729 1.10312 4.09626C0.934297 4.82524 0.973431 5.58697 1.21607 6.29481C1.45871 7.00264 1.89512 7.62819 2.47566 8.10029C3.05619 8.5724 3.75757 8.87212 4.50001 8.96536V11.0711C4.02868 11.1928 3.61791 11.4822 3.34471 11.8851C3.0715 12.288 2.95461 12.7767 3.01595 13.2596C3.07728 13.7425 3.31264 14.1864 3.67789 14.5082C4.04314 14.83 4.51322 15.0076 5.00001 15.0076C5.48679 15.0076 5.95687 14.83 6.32212 14.5082C6.68738 14.1864 6.92273 13.7425 6.98407 13.2596C7.0454 12.7767 6.92851 12.288 6.65531 11.8851C6.3821 11.4822 5.97133 11.1928 5.50001 11.0711V8.96536C6.21068 8.87598 6.884 8.59626 7.44881 8.15576L9.28346 9.99076C9.09985 10.2955 9.00192 10.6442 9.00001 11C9.00001 11.3956 9.1173 11.7823 9.33707 12.1111C9.55683 12.44 9.86919 12.6964 10.2346 12.8478C10.6001 12.9991 11.0022 13.0388 11.3902 12.9616C11.7781 12.8844 12.1345 12.6939 12.4142 12.4142C12.6939 12.1345 12.8844 11.7782 12.9616 11.3902C13.0387 11.0022 12.9991 10.6001 12.8478 10.2346C12.6964 9.86919 12.44 9.55683 12.1111 9.33707C11.7822 9.11731 11.3956 9.00001 11 9.00001C10.6441 9.00186 10.2953 9.09979 9.99051 9.28346L8.15581 7.44876C8.59628 6.88397 8.87595 6.21066 8.96526 5.50001H11.0711C11.1652 5.86136 11.3587 6.18908 11.6298 6.44594C11.9008 6.7028 12.2384 6.87852 12.6043 6.95314C12.9702 7.02775 13.3496 6.99828 13.6996 6.86805C14.0496 6.73783 14.356 6.51208 14.5841 6.21645C14.8122 5.92081 14.9529 5.56713 14.9901 5.19558C15.0272 4.82403 14.9595 4.4495 14.7945 4.11451C14.6295 3.77953 14.3739 3.49752 14.0567 3.30051C13.7395 3.1035 13.3734 2.9994 13 3.00001ZM6.00001 13C6.00001 13.1978 5.94136 13.3911 5.83148 13.5556C5.72159 13.72 5.56541 13.8482 5.38269 13.9239C5.19996 13.9996 4.9989 14.0194 4.80492 13.9808C4.61093 13.9422 4.43275 13.847 4.2929 13.7071C4.15305 13.5673 4.05781 13.3891 4.01922 13.1951C3.98064 13.0011 4.00044 12.8001 4.07613 12.6173C4.15181 12.4346 4.27999 12.2784 4.44444 12.1685C4.60889 12.0587 4.80222 12 5.00001 12C5.26513 12.0003 5.51931 12.1058 5.70678 12.2932C5.89425 12.4807 5.9997 12.7349 6.00001 13ZM5.00001 8.00001C4.40666 8.00001 3.82664 7.82406 3.3333 7.49442C2.83995 7.16477 2.45543 6.69624 2.22837 6.14806C2.0013 5.59988 1.94189 4.99668 2.05765 4.41474C2.17341 3.83279 2.45913 3.29825 2.87869 2.87869C3.29824 2.45913 3.83279 2.17341 4.41474 2.05765C4.99668 1.9419 5.59988 2.00131 6.14806 2.22837C6.69623 2.45543 7.16477 2.83995 7.49441 3.3333C7.82406 3.82665 8.00001 4.40667 8.00001 5.00001C7.99913 5.79539 7.68278 6.55794 7.12036 7.12037C6.55794 7.68279 5.79539 7.99914 5.00001 8.00001ZM12 11C12 11.1978 11.9414 11.3911 11.8315 11.5556C11.7216 11.72 11.5654 11.8482 11.3827 11.9239C11.2 11.9996 10.9989 12.0194 10.8049 11.9808C10.6109 11.9422 10.4328 11.847 10.2929 11.7071C10.153 11.5673 10.0578 11.3891 10.0192 11.1951C9.98063 11.0011 10.0004 10.8001 10.0761 10.6173C10.1518 10.4346 10.28 10.2784 10.4444 10.1685C10.6089 10.0587 10.8022 10 11 10C11.2651 10.0003 11.5193 10.1058 11.7068 10.2932C11.8942 10.4807 11.9997 10.7349 12 11ZM13 6.00001C12.8022 6.00001 12.6089 5.94136 12.4444 5.83148C12.28 5.7216 12.1518 5.56542 12.0761 5.38269C12.0004 5.19997 11.9806 4.9989 12.0192 4.80492C12.0578 4.61094 12.153 4.43275 12.2929 4.2929C12.4328 4.15305 12.6109 4.05781 12.8049 4.01922C12.9989 3.98064 13.2 4.00044 13.3827 4.07613C13.5654 4.15182 13.7216 4.27999 13.8315 4.44444C13.9414 4.60889 14 4.80223 14 5.00001C13.9997 5.26513 13.8942 5.51931 13.7068 5.70678C13.5193 5.89425 13.2651 5.9997 13 6.00001Z" fill="black"/>
</svg>
