<svg width="16" height="16" viewBox="0 0 16 16" fill="none" xmlns="http://www.w3.org/2000/svg">
<path fill-rule="evenodd" clip-rule="evenodd" d="M15 2C15 2.55228 14.5523 3 14 3C13.4477 3 13 2.55228 13 2C13 1.44772 13.4477 1 14 1C14.5523 1 15 1.44772 15 2ZM5 8C5.55228 8 6 7.55228 6 7C6 6.44772 5.55228 6 5 6C4.44772 6 4 6.44772 4 7C4 7.55228 4.44772 8 5 8ZM6 10C6 10.5523 5.55228 11 5 11C4.44772 11 4 10.5523 4 10C4 9.44771 4.44772 9 5 9C5.55228 9 6 9.44771 6 10ZM6 14C6 14.5523 5.55228 15 5 15C4.44772 15 4 14.5523 4 14C4 13.4477 4.44772 13 5 13C5.55228 13 6 13.4477 6 14ZM11 4C11.5523 4 12 3.55228 12 3C12 2.44772 11.5523 2 11 2C10.4477 2 10 2.44772 10 3C10 3.55228 10.4477 4 11 4ZM15 5C15 5.55228 14.5523 6 14 6C13.4477 6 13 5.55228 13 5C13 4.44772 13.4477 4 14 4C14.5523 4 15 4.44772 15 5ZM10 7C10.5523 7 11 6.55228 11 6C11 5.44772 10.5523 5 10 5C9.44771 5 9 5.44772 9 6C9 6.55228 9.44771 7 10 7ZM15 11C15 11.5523 14.5523 12 14 12C13.4477 12 13 11.5523 13 11C13 10.4477 13.4477 10 14 10C14.5523 10 15 10.4477 15 11ZM13 15C13.5523 15 14 14.5523 14 14C14 13.4477 13.5523 13 13 13C12.4477 13 12 13.4477 12 14C12 14.5523 12.4477 15 13 15ZM11 13C11 13.5523 10.5523 14 10 14C9.44771 14 9 13.5523 9 13C9 12.4477 9.44771 12 10 12C10.5523 12 11 12.4477 11 13ZM11 11C11.5523 11 12 10.5523 12 10C12 9.44771 11.5523 9 11 9C10.4477 9 10 9.44771 10 10C10 10.5523 10.4477 11 11 11ZM9 2C9 2.55228 8.55228 3 8 3C7.44772 3 7 2.55228 7 2C7 1.44772 7.44772 1 8 1C8.55228 1 9 1.44772 9 2ZM2 13C2.55228 13 3 12.5523 3 12C3 11.4477 2.55228 11 2 11C1.44772 11 1 11.4477 1 12C1 12.5523 1.44772 13 2 13ZM3 8C3 8.55228 2.55228 9 2 9C1.44772 9 1 8.55228 1 8C1 7.44772 1.44772 7 2 7C2.55228 7 3 7.44772 3 8Z" fill="black"/>
</svg>
