<svg width="16" height="16" viewBox="0 0 16 16" fill="none" xmlns="http://www.w3.org/2000/svg">
<path d="M7.99998 1C7.86737 1 7.74019 1.05268 7.64643 1.14645C7.55266 1.24021 7.49998 1.36739 7.49998 1.5V5.045C7.0558 5.12353 6.63524 5.30185 6.26998 5.5665L3.91918 3.21555C3.85055 3.14658 3.76879 3.09208 3.67873 3.05526C3.58867 3.01845 3.49214 3.00006 3.39485 3.0012C3.29756 3.00234 3.20149 3.02297 3.11232 3.06189C3.02314 3.1008 2.94268 3.1572 2.87568 3.22775C2.13246 4.02875 1.58634 4.99207 1.28073 6.04115C0.975118 7.09022 0.918439 8.19613 1.1152 9.27095C1.31196 10.3458 1.75673 11.3599 2.41416 12.2327C3.07159 13.1054 3.92356 13.8128 4.90233 14.2986C5.206 14.4562 5.5239 14.5847 5.85178 14.6824C7.04099 15.0569 8.30825 15.1092 9.5243 14.8341C10.7404 14.559 11.8617 13.9663 12.7739 13.1165C12.8442 13.0505 12.9004 12.9711 12.9393 12.883C12.9781 12.7948 12.9988 12.6998 13.0001 12.6034C13.0014 12.5071 12.9833 12.4115 12.9468 12.3223C12.9103 12.2332 12.8563 12.1523 12.7878 12.0845L10.4385 9.735C10.702 9.3678 10.8786 8.9455 10.955 8.5H14.5C14.6326 8.5 14.7598 8.44732 14.8535 8.35355C14.9473 8.25979 15 8.13261 15 8C14.9979 6.14413 14.2597 4.36486 12.9474 3.05256C11.6351 1.74026 9.85585 1.00209 7.99998 1ZM7.99998 6C8.39554 6 8.78222 6.1173 9.11112 6.33706C9.44002 6.55682 9.69636 6.86918 9.84774 7.23463C9.99911 7.60009 10.0387 8.00222 9.96155 8.39018C9.88438 8.77814 9.6939 9.13451 9.41419 9.41421C9.13449 9.69392 8.77812 9.8844 8.39016 9.96157C8.0022 10.0387 7.60006 9.99913 7.23461 9.84776C6.86916 9.69638 6.5568 9.44004 6.33704 9.11114C6.11728 8.78224 5.99998 8.39556 5.99998 8C6.00057 7.46975 6.21148 6.96139 6.58642 6.58644C6.96137 6.2115 7.46973 6.0006 7.99998 6ZM3.41498 4.1255L5.56293 6.27345C5.19798 6.77661 5.00099 7.38204 4.99997 8.00361C4.99896 8.62519 5.19397 9.23125 5.55728 9.7356L3.41903 11.8741C2.50409 10.7907 2.00182 9.41856 2.00108 8.00051C2.00034 6.58247 2.50117 5.20985 3.41498 4.1255ZM4.12638 12.5805L6.26433 10.4425C6.63205 10.7048 7.05458 10.88 7.49998 10.955V13.976C6.25685 13.8766 5.07655 13.3884 4.12643 12.5806L4.12638 12.5805ZM8.49998 13.9781V10.9546C8.94365 10.8785 9.36431 10.7029 9.73043 10.441L11.8713 12.5818C10.9217 13.3891 9.74234 13.8775 8.49998 13.9781ZM10.955 7.5C10.8503 6.88696 10.5579 6.32153 10.1182 5.88178C9.67844 5.44203 9.11302 5.14965 8.49998 5.045V2.0205C9.91292 2.14072 11.2378 2.75663 12.2405 3.75937C13.2432 4.7621 13.8591 6.08706 13.9792 7.5H10.955Z" fill="black"/>
</svg>
