<svg width="16" height="16" viewBox="0 0 16 16" fill="none" xmlns="http://www.w3.org/2000/svg">
<path fill-rule="evenodd" clip-rule="evenodd" d="M1.5 1H4C4.26512 1.0003 4.5193 1.10576 4.70677 1.29323C4.89424 1.4807 4.9997 1.73488 5 2V6H2C1.73478 6 1.48043 5.89464 1.29289 5.70711C1.10536 5.51957 1 5.26522 1 5V4C1 3.73478 1.10536 3.48043 1.29289 3.29289C1.48043 3.10536 1.73478 3 2 3H4V2H1.5V1ZM2 5H4V4H2V5ZM13 3V7.08595L14.7929 5.29295L15.5 6L12.5 9L9.5 6L10.2071 5.29295L12 7.08595V3H7V2H12C12.2651 2.00032 12.5193 2.10578 12.7068 2.29324C12.8942 2.48071 12.9997 2.73488 13 3ZM3 8.91405V13C3.00032 13.2651 3.10578 13.5193 3.29324 13.7068C3.48071 13.8942 3.73488 13.9997 4 14H9V13H4V8.91405L5.79295 10.7071L6.5 10L3.5 7L0.5 10L1.20705 10.7071L3 8.91405ZM15 10V11L12.2535 14H15V15H11V14L13.75 11H11V10H15Z" fill="black"/>
</svg>
