<svg width="16" height="16" viewBox="0 0 16 16" fill="none" xmlns="http://www.w3.org/2000/svg">
<path fill-rule="evenodd" clip-rule="evenodd" d="M2 15H15V14H2V1H1V14C1.0003 14.2651 1.10576 14.5193 1.29323 14.7068C1.4807 14.8942 1.73488 14.9997 2 15ZM6 3C6 3.82843 5.32843 4.5 4.5 4.5C3.67157 4.5 3 3.82843 3 3C3 2.17157 3.67157 1.5 4.5 1.5C5.32843 1.5 6 2.17157 6 3ZM4.5 12.5C5.32843 12.5 6 11.8284 6 11C6 10.1716 5.32843 9.5 4.5 9.5C3.67157 9.5 3 10.1716 3 11C3 11.8284 3.67157 12.5 4.5 12.5ZM10.5 7C10.5 7.82843 9.82843 8.5 9 8.5C8.17157 8.5 7.5 7.82843 7.5 7C7.5 6.17157 8.17157 5.5 9 5.5C9.82843 5.5 10.5 6.17157 10.5 7ZM4.5 8.5C4.20333 8.5 3.91332 8.41203 3.66665 8.24721C3.41997 8.08238 3.22771 7.84812 3.11418 7.57403C3.00065 7.29994 2.97094 6.99834 3.02882 6.70737C3.0867 6.41639 3.22956 6.14912 3.43934 5.93934C3.64912 5.72956 3.91639 5.5867 4.20737 5.52882C4.49834 5.47094 4.79994 5.50065 5.07403 5.61418C5.34811 5.72771 5.58238 5.91997 5.7472 6.16665C5.91203 6.41332 6 6.70333 6 7C5.99956 7.39769 5.84139 7.77897 5.56018 8.06018C5.27897 8.34139 4.89769 8.49956 4.5 8.5ZM4.5 6.5C4.40111 6.5 4.30444 6.52933 4.22222 6.58427C4.13999 6.63921 4.0759 6.7173 4.03806 6.80866C4.00022 6.90002 3.99032 7.00056 4.00961 7.09755C4.0289 7.19454 4.07652 7.28363 4.14645 7.35355C4.21637 7.42348 4.30546 7.4711 4.40246 7.49039C4.49945 7.50969 4.59998 7.49978 4.69134 7.46194C4.78271 7.4241 4.86079 7.36001 4.91574 7.27779C4.97068 7.19556 5 7.09889 5 7C4.99987 6.86743 4.94715 6.74033 4.85341 6.64659C4.75967 6.55285 4.63257 6.50013 4.5 6.5ZM15 3C15 3.82843 14.3284 4.5 13.5 4.5C12.6716 4.5 12 3.82843 12 3C12 2.17157 12.6716 1.5 13.5 1.5C14.3284 1.5 15 2.17157 15 3ZM13.5 12.5C14.3284 12.5 15 11.8284 15 11C15 10.1716 14.3284 9.5 13.5 9.5C12.6716 9.5 12 10.1716 12 11C12 11.8284 12.6716 12.5 13.5 12.5ZM12.6666 8.24721C12.9133 8.41203 13.2033 8.5 13.5 8.5C13.8977 8.49956 14.279 8.34139 14.5602 8.06018C14.8414 7.77897 14.9996 7.39769 15 7C15 6.70333 14.912 6.41332 14.7472 6.16665C14.5824 5.91997 14.3481 5.72771 14.074 5.61418C13.7999 5.50065 13.4983 5.47094 13.2074 5.52882C12.9164 5.5867 12.6491 5.72956 12.4393 5.93934C12.2296 6.14912 12.0867 6.41639 12.0288 6.70737C11.9709 6.99834 12.0007 7.29994 12.1142 7.57403C12.2277 7.84812 12.42 8.08238 12.6666 8.24721ZM13.2222 6.58427C13.3044 6.52933 13.4011 6.5 13.5 6.5C13.6326 6.50013 13.7597 6.55285 13.8534 6.64659C13.9471 6.74033 13.9999 6.86743 14 7C14 7.09889 13.9707 7.19556 13.9157 7.27779C13.8608 7.36001 13.7827 7.4241 13.6913 7.46194C13.6 7.49978 13.4994 7.50969 13.4025 7.49039C13.3055 7.4711 13.2164 7.42348 13.1464 7.35355C13.0765 7.28363 13.0289 7.19454 13.0096 7.09755C12.9903 7.00056 13.0002 6.90002 13.0381 6.80866C13.0759 6.7173 13.14 6.63921 13.2222 6.58427ZM9 13C8.70333 13 8.41332 12.912 8.16665 12.7472C7.91997 12.5824 7.72771 12.3481 7.61418 12.074C7.50065 11.7999 7.47094 11.4983 7.52882 11.2074C7.5867 10.9164 7.72956 10.6491 7.93934 10.4393C8.14912 10.2296 8.41639 10.0867 8.70737 10.0288C8.99834 9.97095 9.29994 10.0007 9.57403 10.1142C9.84811 10.2277 10.0824 10.42 10.2472 10.6666C10.412 10.9133 10.5 11.2033 10.5 11.5C10.4996 11.8977 10.3414 12.279 10.0602 12.5602C9.77897 12.8414 9.39769 12.9996 9 13ZM9 11C8.90111 11 8.80444 11.0293 8.72222 11.0843C8.63999 11.1392 8.5759 11.2173 8.53806 11.3087C8.50022 11.4 8.49032 11.5006 8.50961 11.5975C8.5289 11.6945 8.57652 11.7836 8.64645 11.8536C8.71637 11.9235 8.80546 11.9711 8.90246 11.9904C8.99945 12.0097 9.09998 11.9998 9.19134 11.9619C9.28271 11.9241 9.3608 11.86 9.41574 11.7778C9.47068 11.6956 9.5 11.5989 9.5 11.5C9.49987 11.3674 9.44715 11.2403 9.35341 11.1466C9.25967 11.0529 9.13257 11.0001 9 11ZM8.16665 3.7472C8.41332 3.91203 8.70333 4 9 4C9.39769 3.99956 9.77897 3.84139 10.0602 3.56018C10.3414 3.27897 10.4996 2.89769 10.5 2.5C10.5 2.20333 10.412 1.91332 10.2472 1.66665C10.0824 1.41997 9.84811 1.22771 9.57403 1.11418C9.29994 1.00065 8.99834 0.970945 8.70737 1.02882C8.41639 1.0867 8.14912 1.22956 7.93934 1.43934C7.72956 1.64912 7.5867 1.91639 7.52882 2.20737C7.47094 2.49834 7.50065 2.79994 7.61418 3.07403C7.72771 3.34811 7.91997 3.58238 8.16665 3.7472ZM8.72222 2.08427C8.80444 2.02933 8.90111 2 9 2C9.13257 2.00013 9.25967 2.05285 9.35341 2.14659C9.44715 2.24033 9.49987 2.36743 9.5 2.5C9.5 2.59889 9.47068 2.69556 9.41574 2.77779C9.3608 2.86001 9.28271 2.9241 9.19134 2.96194C9.09998 2.99978 8.99945 3.00969 8.90246 2.99039C8.80546 2.9711 8.71637 2.92348 8.64645 2.85355C8.57652 2.78363 8.5289 2.69454 8.50961 2.59755C8.49032 2.50056 8.50022 2.40002 8.53806 2.30866C8.5759 2.2173 8.63999 2.13921 8.72222 2.08427Z" fill="black"/>
</svg>
