<svg width="16" height="16" viewBox="0 0 16 16" fill="none" xmlns="http://www.w3.org/2000/svg">
<path fill-rule="evenodd" clip-rule="evenodd" d="M4.5 1H2V2H3.5V7H2V8H6V7H4.5V1ZM11.293 4.00002L3.50002 11.793L4.20705 12.5L12 4.70705L11.293 4.00002ZM14 15H10V12C10.0003 11.7349 10.1057 11.4807 10.2932 11.2932C10.4807 11.1057 10.7349 11.0003 11 11H13V9H10V8H13C13.2651 8.0003 13.5193 8.10576 13.7068 8.29323C13.8942 8.4807 13.9997 8.73488 14 9V11C13.9997 11.2651 13.8942 11.5193 13.7068 11.7068C13.5193 11.8942 13.2651 11.9997 13 12H11V14H14V15Z" fill="black"/>
</svg>
