<svg width="16" height="16" viewBox="0 0 16 16" fill="none" xmlns="http://www.w3.org/2000/svg">
<path fill-rule="evenodd" clip-rule="evenodd" d="M14.5 3.5H15V6.5H14.5V12.25C14.5 12.7141 14.3156 13.1592 13.9874 13.4874C13.6592 13.8156 13.2141 14 12.75 14C12.2859 14 11.8408 13.8156 11.5126 13.4874C11.1844 13.1592 11 12.7141 11 12.25V8.5H9.5V13H10.5V14H1V13H2V2.5C2 2.36739 2.05268 2.24021 2.14645 2.14645C2.24021 2.05268 2.36739 2 2.5 2H9C9.13261 2 9.25979 2.05268 9.35355 2.14645C9.44732 2.24021 9.5 2.36739 9.5 2.5V7.5H11.5C11.6326 7.5 11.7598 7.55268 11.8536 7.64645C11.9473 7.74021 12 7.86739 12 8V12.25C12 12.4489 12.079 12.6397 12.2197 12.7803C12.3603 12.921 12.5511 13 12.75 13C12.9489 13 13.1397 12.921 13.2803 12.7803C13.421 12.6397 13.5 12.4489 13.5 12.25V6.5H13V3.5H13.5V2H14.5V3.5ZM3 13H8.5V3H3V13ZM5.0715 10.243L5.9285 10.757L7.883 7.49998H5.383L6.4285 5.75698L5.5715 5.24298L3.617 8.49998H6.117L5.0715 10.243Z" fill="black"/>
</svg>
