<svg width="16" height="16" viewBox="0 0 16 16" fill="none" xmlns="http://www.w3.org/2000/svg">
<path fill-rule="evenodd" clip-rule="evenodd" d="M13.5 8V14H15V15H2C1.73478 15 1.48043 14.8946 1.29289 14.7071C1.10536 14.5196 1 14.2652 1 14V1H2V14H3.5V6H7.5V14H9.5V8H13.5ZM6.5 10V7H4.5V10H6.5ZM12.5 12V9H10.5V12H12.5ZM10.8034 6.80675C10.9743 6.93238 11.1808 7.0001 11.3928 7C11.5492 7.00023 11.7035 6.96379 11.8433 6.89361C11.9831 6.82342 12.1045 6.72144 12.1977 6.59585L14 4.1653L13.1967 3.5696L11.3945 6.00025L6.1838 2.18025C5.97073 2.03121 5.70795 1.97113 5.45128 2.01277C5.19462 2.05442 4.96431 2.19449 4.8093 2.40325L3.3187 4.40325L4.12095 5L5.60205 2.9935L10.8034 6.80675Z" fill="black"/>
</svg>
