<svg width="16" height="16" viewBox="0 0 16 16" fill="none" xmlns="http://www.w3.org/2000/svg">
<path fill-rule="evenodd" clip-rule="evenodd" d="M2 14V13H3V12H2V1H1V14C1 14.2652 1.10536 14.5196 1.29289 14.7071C1.48043 14.8946 1.73478 15 2 15H15V14H2ZM5 12H4V13H5V12ZM6 12H7V13H6V12ZM11 12H10V13H11V12ZM12 12H13V13H12V12ZM15 12H14V13H15V12ZM12.9863 2L13.9731 2.16405C13.2453 6.5283 12.0185 11.465 9 11.9565V13H8V11.9565C4.98155 11.465 3.755 6.5283 3.02685 2.16405L4.01355 2C5.02565 8.0542 6.49315 11 8.5 11C10.5068 11 11.9743 8.0542 12.9863 2Z" fill="black"/>
</svg>
