<svg width="16" height="16" viewBox="0 0 16 16" fill="none" xmlns="http://www.w3.org/2000/svg">
<path fill-rule="evenodd" clip-rule="evenodd" d="M2 4.5H4C4.26514 4.50026 4.51934 4.60571 4.70681 4.79319C4.89429 4.98066 4.99974 5.23486 5 5.5V11.5H4V9H2V11.5H1V5.5C1.00026 5.23486 1.10571 4.98066 1.29319 4.79319C1.48066 4.60571 1.73486 4.50026 2 4.5ZM2 5.5V8H4V5.5H2ZM9 6.5H7V4.5H6V11.5H9C9.26511 11.4996 9.51925 11.3942 9.70671 11.2067C9.89417 11.0193 9.99964 10.7651 10 10.5V7.5C9.9997 7.23488 9.89424 6.9807 9.70677 6.79323C9.5193 6.60576 9.26512 6.5003 9 6.5ZM9 10.5H7V7.5H9V10.5ZM14.5 11.5H12C11.7349 11.4996 11.4807 11.3942 11.2933 11.2067C11.1058 11.0193 11.0004 10.7651 11 10.5V7.5C11.0003 7.23488 11.1058 6.9807 11.2932 6.79323C11.4807 6.60576 11.7349 6.5003 12 6.5H14.5V7.5H12V10.5H14.5V11.5Z" fill="black"/>
</svg>
