<svg width="16" height="16" viewBox="0 0 16 16" fill="none" xmlns="http://www.w3.org/2000/svg">
<path d="M13.7661 8.5862C14.1914 8.13637 14.5192 7.60355 14.7289 7.02113C14.9387 6.43871 15.0258 5.81924 14.985 5.20155C14.9441 4.58386 14.7762 3.98127 14.4915 3.43153C14.2069 2.8818 13.8119 2.39678 13.331 2.00687C12.8502 1.61695 12.2941 1.33055 11.6974 1.16562C11.1008 1.00068 10.4765 0.960769 9.86366 1.04838C9.25085 1.13598 8.66274 1.34922 8.13619 1.67472C7.60964 2.00023 7.15601 2.43099 6.80371 2.94C6.63352 2.48927 6.35722 2.08619 5.99822 1.76488C5.63921 1.44358 5.20807 1.21352 4.74129 1.09418C4.27452 0.974836 3.78586 0.96973 3.31669 1.07929C2.84752 1.18886 2.41167 1.40986 2.04603 1.72359C1.68039 2.03733 1.39573 2.43455 1.21616 2.88162C1.03659 3.3287 0.967398 3.81246 1.01444 4.29195C1.06148 4.77144 1.22337 5.23253 1.48641 5.63618C1.74944 6.03983 2.10587 6.37416 2.52551 6.61085C2.14382 6.87136 1.81753 7.20491 1.56547 7.59224C1.31342 7.97957 1.14061 8.413 1.05701 8.86749C0.973418 9.32198 0.980697 9.78854 1.07843 10.2402C1.17616 10.6919 1.36242 11.1197 1.62643 11.499C1.89044 11.8782 2.22698 12.2015 2.61661 12.4499C3.00624 12.6984 3.44124 12.8672 3.89648 12.9466C4.35172 13.0261 4.81819 13.0145 5.26893 12.9126C5.71968 12.8107 6.14578 12.6205 6.52261 12.3531C6.61233 13.1128 6.989 13.8095 7.57553 14.3006C8.16206 14.7918 8.91411 15.0402 9.67779 14.9951C10.4415 14.95 11.159 14.6148 11.6837 14.058C12.2083 13.5012 12.5003 12.765 12.5 12C12.5 11.9392 12.4945 11.88 12.491 11.8203C12.7071 11.926 12.9428 11.9858 13.1832 11.996C13.4236 12.0061 13.6635 11.9664 13.8878 11.8794C14.1121 11.7923 14.316 11.6598 14.4866 11.4901C14.6572 11.3204 14.7908 11.1172 14.879 10.8934C14.9673 10.6695 15.0082 10.4299 14.9993 10.1894C14.9904 9.94896 14.9319 9.71295 14.8273 9.49624C14.7228 9.27953 14.5745 9.0868 14.3919 8.93018C14.2092 8.77357 13.9961 8.65645 13.766 8.5862H13.7661ZM10.5 2C11.1922 2 11.8689 2.20527 12.4445 2.58986C13.0201 2.97444 13.4687 3.52107 13.7336 4.16061C13.9985 4.80015 14.0678 5.50388 13.9328 6.18282C13.7977 6.86175 13.4644 7.48539 12.9749 7.97487C12.4854 8.46436 11.8618 8.7977 11.1828 8.93275C10.5039 9.0678 9.80016 8.99849 9.16062 8.73358C8.52107 8.46867 7.97445 8.02007 7.58986 7.4445C7.20528 6.86892 7.00001 6.19223 7.00001 5.5C7.00104 4.57206 7.37012 3.68242 8.02627 3.02627C8.68243 2.37011 9.57207 2.00103 10.5 2ZM4.00001 2C4.39557 2 4.78225 2.1173 5.11115 2.33706C5.44005 2.55682 5.69639 2.86918 5.84777 3.23463C5.99914 3.60009 6.03875 4.00222 5.96158 4.39018C5.88441 4.77814 5.69393 5.13451 5.41422 5.41421C5.13452 5.69392 4.77815 5.8844 4.39019 5.96157C4.00223 6.03874 3.60009 5.99913 3.23464 5.84776C2.86919 5.69638 2.55683 5.44004 2.33707 5.11114C2.11731 4.78224 2.00001 4.39556 2.00001 4C2.0006 3.46975 2.21151 2.96139 2.58645 2.58644C2.9614 2.2115 3.46976 2.0006 4.00001 2ZM9.50001 14C9.10445 14 8.71777 13.8827 8.38887 13.6629C8.05997 13.4432 7.80362 13.1308 7.65225 12.7654C7.50087 12.3999 7.46127 11.9978 7.53844 11.6098C7.61561 11.2219 7.80609 10.8655 8.08579 10.5858C8.3655 10.3061 8.72187 10.1156 9.10983 10.0384C9.49779 9.96126 9.89992 10.0009 10.2654 10.1522C10.6308 10.3036 10.9432 10.56 11.1629 10.8889C11.3827 11.2178 11.5 11.6044 11.5 12C11.4994 12.5302 11.2885 13.0386 10.9136 13.4136C10.5386 13.7885 10.0303 13.9994 9.50001 14Z" fill="black"/>
</svg>
