<svg width="16" height="16" viewBox="0 0 16 16" fill="none" xmlns="http://www.w3.org/2000/svg">
<path fill-rule="evenodd" clip-rule="evenodd" d="M3 15H6V14H3V2H11V7H12V2C11.9997 1.73487 11.8943 1.48068 11.7068 1.2932C11.5193 1.10572 11.2651 1.00028 11 1H3C2.73487 1.00028 2.48068 1.10572 2.2932 1.2932C2.10572 1.48068 2.00028 1.73487 2 2V14C2.00028 14.2651 2.10572 14.5193 2.2932 14.7068C2.48068 14.8943 2.73487 14.9997 3 15ZM5 4V9H6V4H5ZM7 9V6H8V9H7ZM9 7V9H10V7H9ZM14.8535 9.64649L13.3535 8.14649C13.3071 8.10004 13.252 8.06319 13.1913 8.03805C13.1307 8.01291 13.0657 7.99997 13 7.99997C12.9343 7.99997 12.8693 8.01291 12.8087 8.03805C12.748 8.06319 12.6929 8.10004 12.6465 8.14649L8 12.7929V15H10.2071L14.8535 10.3535C14.8999 10.3071 14.9368 10.252 14.9619 10.1913C14.9871 10.1307 15 10.0656 15 9.99999C15 9.93433 14.9871 9.86931 14.9619 9.80866C14.9368 9.748 14.8999 9.69289 14.8535 9.64649ZM9.79295 14H9V13.207L11.5 10.707L12.2929 11.5L9.79295 14ZM13 10.7929L12.2071 9.99999L13 9.20704L13.7929 9.99999L13 10.7929Z" fill="black"/>
</svg>
