<svg width="16" height="16" viewBox="0 0 16 16" fill="none" xmlns="http://www.w3.org/2000/svg">
<path fill-rule="evenodd" clip-rule="evenodd" d="M13.2676 3H15V2H12.7324L10.7324 5H9V1H8V7C8 7.26522 8.10536 7.51957 8.2929 7.70711C8.48043 7.89464 8.73479 8 9 8H15V7H9V6H11.2676L13.2676 3ZM2.55551 8.58986C3.13108 8.20527 3.80777 8 4.5 8C5.42794 8.00103 6.31758 8.37011 6.97373 9.02627C7.62989 9.68242 7.99897 10.5721 8 11.5C8 12.1922 7.79473 12.8689 7.41014 13.4445C7.02556 14.0201 6.47893 14.4687 5.83939 14.7336C5.19985 14.9985 4.49612 15.0678 3.81719 14.9327C3.13825 14.7977 2.51461 14.4644 2.02513 13.9749C1.53564 13.4854 1.2023 12.8617 1.06725 12.1828C0.932205 11.5039 1.00152 10.8001 1.26642 10.1606C1.53133 9.52107 1.97993 8.97444 2.55551 8.58986ZM5 11H6.94945C6.85053 10.5201 6.61318 10.0797 6.26672 9.73328C5.92026 9.38682 5.47988 9.14947 5 9.05055V11ZM2.82355 13.3544C3.28308 13.7699 3.8805 14 4.5 14C5.07603 13.9992 5.63418 13.7999 6.08037 13.4356C6.52656 13.0713 6.8335 12.5642 6.94945 12H5C4.73478 12 4.48043 11.8946 4.29289 11.7071C4.10536 11.5196 4 11.2652 4 11V9.05055C3.39302 9.1745 2.85368 9.5194 2.48654 10.0184C2.11939 10.5174 1.95059 11.1349 2.01286 11.7513C2.07512 12.3676 2.36402 12.9389 2.82355 13.3544ZM12 9H13V15H12V9ZM14 11H15V15H14V11ZM11 13H10V15H11V13ZM6 3.5C6 3.77614 5.77614 4 5.5 4C5.22386 4 5 3.77614 5 3.5C5 3.22386 5.22386 3 5.5 3C5.77614 3 6 3.22386 6 3.5ZM4.5 6C4.77614 6 5 5.77614 5 5.5C5 5.22386 4.77614 5 4.5 5C4.22386 5 4 5.22386 4 5.5C4 5.77614 4.22386 6 4.5 6ZM4 2.5C4 2.77614 3.77614 3 3.5 3C3.22386 3 3 2.77614 3 2.5C3 2.22386 3.22386 2 3.5 2C3.77614 2 4 2.22386 4 2.5ZM2.5 5C2.77614 5 3 4.77614 3 4.5C3 4.22386 2.77614 4 2.5 4C2.22386 4 2 4.22386 2 4.5C2 4.77614 2.22386 5 2.5 5ZM2 6.5C2 6.77614 1.77614 7 1.5 7C1.22386 7 1 6.77614 1 6.5C1 6.22386 1.22386 6 1.5 6C1.77614 6 2 6.22386 2 6.5Z" fill="black"/>
</svg>
