<svg width="16" height="16" viewBox="0 0 16 16" fill="none" xmlns="http://www.w3.org/2000/svg">
<path fill-rule="evenodd" clip-rule="evenodd" d="M13.981 13.9185L13.9945 14H15V15H2C1.73478 15 1.48043 14.8946 1.29289 14.7071C1.10536 14.5196 1 14.2652 1 14V1H2V3H3V4H2V14H2.9933L3.00685 13.9185C3.7335 9.53125 4.958 4.5315 8 4.0425V3H9V4.04445C12.0331 4.5447 13.2552 9.5371 13.981 13.9185ZM8.4939 5C6.48705 5 5.01955 7.9458 4.00755 14H12.9802C11.9683 7.9458 10.5008 5 8.4939 5ZM4 3H5V4H4V3ZM6 3H7V4H6V3ZM11 3H10V4H11V3ZM12 3H13V4H12V3ZM15 3H14V4H15V3Z" fill="black"/>
</svg>
