<svg width="16" height="16" viewBox="0 0 16 16" fill="none" xmlns="http://www.w3.org/2000/svg">
<path fill-rule="evenodd" clip-rule="evenodd" d="M2 15H15V14H2V1H1V14C1 14.2652 1.10536 14.5196 1.29289 14.7071C1.48043 14.8946 1.73478 15 2 15ZM6 11C6 11.5523 5.55228 12 5 12C4.44772 12 4 11.5523 4 11C4 10.4477 4.44772 10 5 10C5.55228 10 6 10.4477 6 11ZM7 8.5C7.55228 8.5 8 8.05228 8 7.5C8 6.94772 7.55228 6.5 7 6.5C6.44772 6.5 6 6.94772 6 7.5C6 8.05228 6.44772 8.5 7 8.5ZM12 7.5C12 8.05228 11.5523 8.5 11 8.5C10.4477 8.5 10 8.05228 10 7.5C10 6.94772 10.4477 6.5 11 6.5C11.5523 6.5 12 6.94772 12 7.5ZM13 4C13.5523 4 14 3.55228 14 3C14 2.44772 13.5523 2 13 2C12.4477 2 12 2.44772 12 3C12 3.55228 12.4477 4 13 4ZM8 4C8 4.55228 7.55228 5 7 5C6.44772 5 6 4.55228 6 4C6 3.44772 6.44772 3 7 3C7.55228 3 8 3.44772 8 4Z" fill="black"/>
</svg>
