<svg width="16" height="16" viewBox="0 0 16 16" fill="none" xmlns="http://www.w3.org/2000/svg">
<path fill-rule="evenodd" clip-rule="evenodd" d="M1.70705 1L15 14.2929L14.2929 15L11.2929 12H9.0823L7.3679 15L6.5 14.5L8.5 11H10.2929L2.4597 3.16675C2.31929 3.25589 2.20359 3.37894 2.12325 3.52456C2.04291 3.67019 2.00053 3.83369 2 4V10C1.99977 10.1314 2.02548 10.2615 2.07565 10.383C2.12582 10.5044 2.19947 10.6147 2.29238 10.7076C2.38528 10.8005 2.49561 10.8742 2.61704 10.9243C2.73847 10.9745 2.86861 11.0002 3 11H6V12H3C2.73734 12.0001 2.47725 11.9484 2.23457 11.8479C1.9919 11.7474 1.7714 11.6001 1.58567 11.4143C1.39994 11.2286 1.25262 11.0081 1.15213 10.7654C1.05164 10.5228 0.999948 10.2627 1 10V4C1.0003 3.70294 1.06815 3.40984 1.19843 3.14286C1.3287 2.87589 1.51798 2.64204 1.75195 2.459L1 1.70705L1.70705 1ZM14 10.5V4C14.0002 3.86861 13.9745 3.73847 13.9243 3.61704C13.8742 3.49561 13.8005 3.38528 13.7076 3.29238C13.6147 3.19947 13.5044 3.12582 13.383 3.07565C13.2615 3.02548 13.1314 2.99977 13 3H5.12145L4.12145 2H13C13.2627 1.99991 13.5228 2.05158 13.7655 2.15205C14.0082 2.25253 14.2287 2.39985 14.4144 2.58558C14.6002 2.77132 14.7475 2.99183 14.8479 3.23452C14.9484 3.47722 15.0001 3.73733 15 4V10.5H14Z" fill="black"/>
</svg>
