<svg width="16" height="16" viewBox="0 0 16 16" fill="none" xmlns="http://www.w3.org/2000/svg">
<path fill-rule="evenodd" clip-rule="evenodd" d="M11 6.707L14 3.707V6H15V2H11V3H13.293L10.293 6L11 6.707ZM6 11H2V4H8V3H2C1.73478 3 1.48043 3.10536 1.29289 3.29289C1.10536 3.48043 1 3.73478 1 4V11C1 11.2652 1.10536 11.5196 1.29289 11.7071C1.48043 11.8946 1.73478 12 2 12H6V11ZM5.94765 14.4L6.74765 15L9 12H12C12.2651 11.9997 12.5193 11.8942 12.7068 11.7068C12.8942 11.5193 12.9997 11.2651 13 11V8H12V11H8.5L5.94765 14.4Z" fill="black"/>
</svg>
