<svg width="16" height="16" viewBox="0 0 16 16" fill="none" xmlns="http://www.w3.org/2000/svg">
<path fill-rule="evenodd" clip-rule="evenodd" d="M7 12C6.0111 12 5.0444 11.7068 4.22215 11.1574C3.39991 10.6079 2.75904 9.82705 2.38061 8.91342C2.00217 7.99979 1.90315 6.99446 2.09608 6.02455C2.289 5.05465 2.76521 4.16373 3.46447 3.46447C4.16373 2.76521 5.05465 2.289 6.02455 2.09608C6.99446 1.90315 7.99979 2.00217 8.91342 2.38061C9.82705 2.75904 10.6079 3.39991 11.1574 4.22215C11.7068 5.0444 12 6.0111 12 7H13C13 5.81332 12.6481 4.65328 11.9888 3.66658C11.3295 2.67989 10.3925 1.91085 9.2961 1.45673C8.19975 1.0026 6.99335 0.88378 5.82946 1.11529C4.66558 1.3468 3.59648 1.91825 2.75736 2.75736C1.91825 3.59648 1.3468 4.66558 1.11529 5.82946C0.88378 6.99335 1.0026 8.19975 1.45673 9.2961C1.91085 10.3925 2.67989 11.3295 3.66658 11.9888C4.65328 12.6481 5.81332 13 7 13V12ZM6 7.795L4.705 6.5L4 7.205L6 9.205L9.5 5.705L8.795 5L6 7.795ZM14.4944 10.3333C14.8241 10.8266 15 11.4067 15 12C14.9991 12.7954 14.6828 13.5579 14.1204 14.1204C13.5579 14.6828 12.7954 14.9991 12 15C11.4067 15 10.8266 14.8241 10.3333 14.4944C9.83994 14.1648 9.45543 13.6962 9.22836 13.1481C9.0013 12.5999 8.94189 11.9967 9.05765 11.4147C9.1734 10.8328 9.45912 10.2982 9.87868 9.87868C10.2982 9.45912 10.8328 9.1734 11.4147 9.05765C11.9967 8.94189 12.5999 9.0013 13.1481 9.22836C13.6962 9.45543 14.1648 9.83994 14.4944 10.3333ZM13.7166 13.0095C13.9002 12.7047 13.9981 12.3559 14 12C13.9994 11.4698 13.7885 10.9614 13.4136 10.5864C13.0386 10.2115 12.5303 10.0006 12 10C11.6441 10.0019 11.2953 10.0998 10.9905 10.2835L13.7166 13.0095ZM10.2835 10.9905C10.0998 11.2953 10.0019 11.6441 10 12C10.0006 12.5303 10.2115 13.0386 10.5864 13.4136C10.9614 13.7885 11.4698 13.9994 12 14C12.3559 13.9981 12.7047 13.9002 13.0095 13.7166L10.2835 10.9905Z" fill="black"/>
</svg>
