<svg width="16" height="16" viewBox="0 0 16 16" fill="none" xmlns="http://www.w3.org/2000/svg">
<path fill-rule="evenodd" clip-rule="evenodd" d="M4.57746 1.49547C5.34181 1.1639 6.16684 0.995153 7 0.999979C7.87382 0.9952 8.73802 1.18239 9.53155 1.54831C10.3251 1.91424 11.0285 2.44997 11.5923 3.11766C12.156 3.78535 12.5662 4.56869 12.7939 5.41233C13.0216 6.25597 13.0612 7.13933 12.91 7.99998H12C10.9391 7.99998 9.92172 8.42141 9.17157 9.17155C8.42143 9.9217 8 10.9391 8 12V12.91C7.17931 13.0537 6.3377 13.0249 5.52876 12.8254C4.71982 12.6259 3.96129 12.2601 3.30149 11.7514C2.64168 11.2426 2.09507 10.602 1.69646 9.8704C1.29786 9.13877 1.056 8.33214 0.986287 7.50189C0.916577 6.67164 1.02055 5.83597 1.29157 5.04812C1.5626 4.26026 1.99474 3.53748 2.56046 2.92583C3.12619 2.31417 3.81311 1.82704 4.57746 1.49547ZM4 7.29538L6 9.29538L9.5 5.79538L8.7046 4.99998L6 7.70458L4.7954 6.49998L4 7.29538ZM14.4944 10.3333C14.8241 10.8266 15 11.4066 15 12C14.9991 12.7954 14.6828 13.5579 14.1204 14.1203C13.5579 14.6828 12.7954 14.9991 12 15C11.4067 15 10.8266 14.824 10.3333 14.4944C9.83994 14.1648 9.45543 13.6962 9.22836 13.148C9.0013 12.5999 8.94189 11.9967 9.05765 11.4147C9.1734 10.8328 9.45912 10.2982 9.87868 9.87867C10.2982 9.45911 10.8328 9.17339 11.4147 9.05763C11.9967 8.94187 12.5999 9.00128 13.1481 9.22835C13.6962 9.45541 14.1648 9.83993 14.4944 10.3333ZM13.7166 13.0095C13.9002 12.7047 13.9981 12.3559 14 12C13.9994 11.4697 13.7885 10.9614 13.4136 10.5864C13.0386 10.2115 12.5303 10.0006 12 9.99999C11.6441 10.0019 11.2953 10.0998 10.9905 10.2834L13.7166 13.0095ZM10.2835 10.9905C10.0998 11.2953 10.0019 11.6441 10 12C10.0006 12.5302 10.2115 13.0386 10.5864 13.4135C10.9614 13.7885 11.4698 13.9994 12 14C12.3559 13.9981 12.7047 13.9002 13.0095 13.7165L10.2835 10.9905Z" fill="black"/>
</svg>
