<svg width="16" height="16" viewBox="0 0 16 16" fill="none" xmlns="http://www.w3.org/2000/svg">
<path fill-rule="evenodd" clip-rule="evenodd" d="M4.50436 1.54016C5.28784 1.18312 6.139 0.998881 7 0.999967C7.87382 0.995188 8.73803 1.18238 9.53155 1.5483C10.3251 1.91423 11.0285 2.44996 11.5923 3.11765C12.156 3.78533 12.5662 4.56868 12.7939 5.41232C13.0216 6.25596 13.0612 7.13932 12.91 7.99997H12C11.7214 7.99906 11.4481 8.07618 11.211 8.22257C10.974 8.36897 10.7827 8.5788 10.6587 8.82832L8.6964 12.7529C7.87085 12.9974 7.00234 13.0614 6.14987 12.9405C5.29739 12.8196 4.48093 12.5166 3.75593 12.0522C3.03093 11.5878 2.41438 10.9727 1.94816 10.2489C1.48194 9.525 1.17697 8.70928 1.05397 7.85711C0.930971 7.00494 0.992818 6.13627 1.23531 5.31012C1.47781 4.48397 1.89527 3.71968 2.45934 3.06918C3.02341 2.41868 3.72087 1.8972 4.50436 1.54016ZM4 7.29537L6 9.29537L9.5 5.79537L8.7046 4.99997L6 7.70457L4.7954 6.49997L4 7.29537ZM10.3089 14H13.69L12 10.6179L10.3089 14ZM11.7371 9.07459C11.8161 9.02578 11.9071 8.99994 12 8.99997C12.0929 8.99995 12.1839 9.02579 12.2629 9.0746C12.3419 9.12341 12.4058 9.19326 12.4473 9.27632L14.9607 14.3054C14.9928 14.3814 15.0056 14.4642 14.998 14.5464C14.9903 14.6285 14.9624 14.7076 14.9168 14.7763C14.8712 14.8451 14.8093 14.9015 14.7365 14.9406C14.6638 14.9796 14.5825 15 14.5 15H9.5C9.41478 14.9999 9.33099 14.9781 9.25656 14.9366C9.18214 14.8951 9.11955 14.8353 9.07474 14.7628C9.02993 14.6903 9.00438 14.6075 9.00051 14.5224C8.99665 14.4373 9.0146 14.3526 9.05265 14.2763L11.5527 9.27632C11.5942 9.19325 11.6581 9.1234 11.7371 9.07459Z" fill="black"/>
</svg>
