<svg width="16" height="16" viewBox="0 0 16 16" fill="none" xmlns="http://www.w3.org/2000/svg">
<path fill-rule="evenodd" clip-rule="evenodd" d="M10 2V6.835L13.615 11.81C13.8333 12.1096 13.9644 12.4638 13.9937 12.8333C14.0231 13.2029 13.9496 13.5733 13.7813 13.9036C13.613 14.2339 13.3566 14.5112 13.0404 14.7047C12.7243 14.8982 12.3607 15.0004 11.99 15H7.5V14H11.99C12.2039 13.999 12.412 13.9308 12.585 13.805C12.6923 13.7271 12.7831 13.6287 12.8523 13.5156C12.9215 13.4024 12.9676 13.2767 12.988 13.1457C13.0085 13.0147 13.0028 12.8809 12.9714 12.7521C12.94 12.6233 12.8834 12.5019 12.805 12.395L9 7.165V2H7V7.165L6.02835 8.5H4.79L6 6.835V2H5V1H11V2H10ZM2 11V10H6V14H5V11.707L1.707 15L1 14.293L4.293 11H2Z" fill="black"/>
</svg>
