<svg width="16" height="16" viewBox="0 0 16 16" fill="none" xmlns="http://www.w3.org/2000/svg">
<path fill-rule="evenodd" clip-rule="evenodd" d="M15 5.5V6.5H13V9.5H15V10.5H13V12C13 12.2652 12.8946 12.5196 12.7071 12.7071C12.5196 12.8946 12.2652 13 12 13H10.5V15H9.5V13H6.5V15H5.5V13H4C3.73478 13 3.48043 12.8946 3.29289 12.7071C3.10536 12.5196 3 12.2652 3 12V10.5H1V9.5H3V6.5H1V5.5H3V4C3 3.73478 3.10536 3.48043 3.29289 3.29289C3.48043 3.10536 3.73478 3 4 3H5.5V1H6.5V3H9.5V1H10.5V3H12C12.2652 3 12.5196 3.10536 12.7071 3.29289C12.8946 3.48043 13 3.73478 13 4V5.5H15ZM4 12H12V4H4V12ZM5.5 10.5V5.5H10.5V10.5H5.5ZM6.5 9.5H9.5V6.5H6.5V9.5Z" fill="black"/>
</svg>
