<svg width="16" height="16" viewBox="0 0 16 16" fill="none" xmlns="http://www.w3.org/2000/svg">
<path fill-rule="evenodd" clip-rule="evenodd" d="M4.5 2H2V14H4.5V15H2C1.73502 14.9992 1.48112 14.8936 1.29375 14.7062C1.10638 14.5189 1.00078 14.265 1 14V2C1.00078 1.73502 1.10638 1.48112 1.29375 1.29375C1.48112 1.10638 1.73502 1.00078 2 1H4.5V2ZM11.5 1H14C14.265 1.00078 14.5189 1.10638 14.7062 1.29375C14.8936 1.48112 14.9992 1.73502 15 2V14C14.9992 14.265 14.8936 14.5189 14.7062 14.7062C14.5189 14.8936 14.265 14.9992 14 15H11.5V14H14V2H11.5V1ZM4 8.49988H7C7.06671 8.49586 7.13352 8.50603 7.19601 8.52973C7.25849 8.55344 7.31524 8.59013 7.3625 8.63739C7.40976 8.68464 7.44645 8.74139 7.47015 8.80388C7.49385 8.86636 7.50403 8.93317 7.5 8.99988V11.9999C7.50403 12.0666 7.49385 12.1334 7.47015 12.1959C7.44645 12.2584 7.40976 12.3151 7.3625 12.3624C7.31524 12.4096 7.25849 12.4463 7.19601 12.47C7.13352 12.4937 7.06671 12.5039 7 12.4999H4C3.93329 12.5039 3.86649 12.4937 3.804 12.47C3.74151 12.4463 3.68477 12.4096 3.63751 12.3624C3.59025 12.3151 3.55356 12.2584 3.52986 12.1959C3.50615 12.1334 3.49598 12.0666 3.5 11.9999V8.99988C3.49598 8.93317 3.50615 8.86636 3.52986 8.80388C3.55356 8.74139 3.59025 8.68464 3.63751 8.63739C3.68477 8.59013 3.74151 8.55344 3.804 8.52973C3.86649 8.50603 3.93329 8.49586 4 8.49988ZM4.5 11.4999H6.5V9.49988H4.5V11.4999ZM12.5 11.9999V8.99988C12.504 8.93317 12.4939 8.86636 12.4702 8.80388C12.4464 8.74139 12.4098 8.68464 12.3625 8.63739C12.3152 8.59013 12.2585 8.55344 12.196 8.52973C12.1335 8.50603 12.0667 8.49586 12 8.49988H9C8.93329 8.49586 8.86649 8.50603 8.804 8.52973C8.74151 8.55344 8.68477 8.59013 8.63751 8.63739C8.59025 8.68464 8.55356 8.74139 8.52986 8.80388C8.50615 8.86636 8.49598 8.93317 8.5 8.99988V11.9999C8.49598 12.0666 8.50615 12.1334 8.52986 12.1959C8.55356 12.2584 8.59025 12.3151 8.63751 12.3624C8.68477 12.4096 8.74151 12.4463 8.804 12.47C8.86649 12.4937 8.93329 12.5039 9 12.4999H12C12.1325 12.4996 12.2595 12.4468 12.3532 12.3531C12.447 12.2594 12.4997 12.1324 12.5 11.9999ZM11.5 11.4999H9.5V9.49988H11.5V11.4999ZM4 3.49988H7C7.06671 3.49586 7.13352 3.50603 7.19601 3.52973C7.25849 3.55344 7.31524 3.59013 7.3625 3.63739C7.40976 3.68464 7.44645 3.74139 7.47015 3.80388C7.49385 3.86637 7.50403 3.93317 7.5 3.99988V6.99988C7.50403 7.06659 7.49385 7.1334 7.47015 7.19588C7.44645 7.25837 7.40976 7.31512 7.3625 7.36238C7.31524 7.40963 7.25849 7.44633 7.19601 7.47003C7.13352 7.49373 7.06671 7.50391 7 7.49988H4C3.93329 7.50391 3.86649 7.49373 3.804 7.47003C3.74151 7.44633 3.68477 7.40963 3.63751 7.36238C3.59025 7.31512 3.55356 7.25837 3.52986 7.19588C3.50615 7.1334 3.49598 7.06659 3.5 6.99988V3.99988C3.49598 3.93317 3.50615 3.86637 3.52986 3.80388C3.55356 3.74139 3.59025 3.68464 3.63751 3.63739C3.68477 3.59013 3.74151 3.55344 3.804 3.52973C3.86649 3.50603 3.93329 3.49586 4 3.49988ZM4.5 6.49988H6.5V4.49988H4.5V6.49988ZM9 7.49988H12C12.0667 7.50391 12.1335 7.49373 12.196 7.47003C12.2585 7.44633 12.3152 7.40963 12.3625 7.36238C12.4098 7.31512 12.4464 7.25837 12.4702 7.19588C12.4939 7.1334 12.504 7.06659 12.5 6.99988V3.99988C12.504 3.93317 12.4939 3.86637 12.4702 3.80388C12.4464 3.74139 12.4098 3.68464 12.3625 3.63739C12.3152 3.59013 12.2585 3.55344 12.196 3.52973C12.1335 3.50603 12.0667 3.49586 12 3.49988H9C8.93329 3.49586 8.86649 3.50603 8.804 3.52973C8.74151 3.55344 8.68477 3.59013 8.63751 3.63739C8.59025 3.68464 8.55356 3.74139 8.52986 3.80388C8.50615 3.86637 8.49598 3.93317 8.5 3.99988V6.99988C8.50028 7.1324 8.55305 7.25942 8.64676 7.35313C8.74046 7.44684 8.86748 7.4996 9 7.49988ZM9.5 4.49988H11.5V6.49988H9.5V4.49988Z" fill="black"/>
</svg>
