<svg width="16" height="16" viewBox="0 0 16 16" fill="none" xmlns="http://www.w3.org/2000/svg">
<path fill-rule="evenodd" clip-rule="evenodd" d="M0.5 9.5V6.5C0.5 5.94875 0.9486 5.5 1.5 5.5H3.5V6.5H1.5V9.5H3.5V10.5H1.5C0.9486 10.5 0.5 10.0512 0.5 9.5ZM4.5 6.5H5.5V9.5H4.5V10.5H7.5V9.5H6.5V6.5H7.5V5.5H4.5V6.5ZM8.5 9.5V6.5C8.5 5.94875 8.9486 5.5 9.5 5.5H11.5V6.5H9.5V9.5H11.5V10.5H9.5C8.9486 10.5 8.5 10.0512 8.5 9.5ZM15.5 5.5V6.5H13.5V7.5H14.5C15.0514 7.5 15.5 7.94875 15.5 8.5V9.5C15.5 10.0512 15.0514 10.5 14.5 10.5H12.5V9.5H14.5V8.5H13.5C12.9486 8.5 12.5 8.05125 12.5 7.5V6.5C12.5 5.94875 12.9486 5.5 13.5 5.5H15.5Z" fill="black"/>
</svg>
