<svg width="16" height="16" viewBox="0 0 16 16" fill="none" xmlns="http://www.w3.org/2000/svg">
<path fill-rule="evenodd" clip-rule="evenodd" d="M3 2H13C13.265 2.00078 13.5189 2.10638 13.7062 2.29375C13.8936 2.48112 13.9992 2.73502 14 3V13C13.9992 13.265 13.8936 13.5189 13.7062 13.7062C13.5189 13.8936 13.265 13.9992 13 14H3C2.73502 13.9992 2.48112 13.8936 2.29375 13.7062C2.10638 13.5189 2.00078 13.265 2 13V3C2.00078 2.73502 2.10638 2.48112 2.29375 2.29375C2.48112 2.10638 2.73502 2.00078 3 2ZM3 3V13H13V3H3ZM8 6.5V5.5H6.5V4H5.5V5.5H4V6.5H5.5V8H6.5V6.5H8ZM11.75 9L10.5 9.35V8H9.5V9.35L8.25 9L8 9.95L9.2 10.3L8.5 11.5L9.35 12L10 10.9L10.65 12L11.5 11.5L10.8 10.3L12 9.95L11.75 9Z" fill="black"/>
</svg>
