<svg width="16" height="16" viewBox="0 0 16 16" fill="none" xmlns="http://www.w3.org/2000/svg">
<path fill-rule="evenodd" clip-rule="evenodd" d="M10 9V10H8V14.5H2.5C1.67285 14.5 1 13.8272 1 13V3C1 2.17285 1.67285 1.5 2.5 1.5H12.5C13.3272 1.5 14 2.17285 14 3V6.5H13V5.5H8V9H10ZM2 9H7V5.5H2V9ZM12.5 2.5H2.5C2.22425 2.5 2 2.7241 2 3V4.5H13V3C13 2.7241 12.7758 2.5 12.5 2.5ZM2.5 13.5H7V10H2V13C2 13.2759 2.22425 13.5 2.5 13.5ZM14.3535 8.64647L15.8535 10.1465C16.0489 10.3418 16.0488 10.6582 15.8535 10.8535L11.2071 15.5H9V13.293L13.6465 8.64647C13.8416 8.45118 14.1585 8.45118 14.3535 8.64647ZM10.7928 14.5L12.1465 13.1465L13.2929 12L12.5 11.207L11.3535 12.3535L10 13.707V14.5H10.7928ZM13.207 10.5L14 11.293L14.7928 10.5L14 9.70708L13.207 10.5Z" fill="black"/>
</svg>
