<svg width="16" height="16" viewBox="0 0 16 16" fill="none" xmlns="http://www.w3.org/2000/svg">
<path fill-rule="evenodd" clip-rule="evenodd" d="M2 1H6C6.26498 1.00078 6.51888 1.10638 6.70625 1.29375C6.89361 1.48112 6.99922 1.73502 7 2V6C6.99922 6.26498 6.89361 6.51888 6.70625 6.70625C6.51888 6.89361 6.26498 6.99922 6 7H2C1.73502 6.99922 1.48112 6.89361 1.29375 6.70625C1.10638 6.51888 1.00078 6.26498 1 6V2C1.00078 1.73502 1.10638 1.48112 1.29375 1.29375C1.48112 1.10638 1.73502 1.00078 2 1ZM2 2V6H6V2H2ZM12 6.70001V7.50001H13V6.70001C13.0011 6.21381 12.9061 5.73218 12.7206 5.28278C12.535 4.83338 12.2625 4.42506 11.9187 4.08126C11.575 3.73746 11.1666 3.46497 10.7172 3.27941C10.2678 3.09386 9.7862 2.99891 9.3 3.00001H8.5V4.00001H9.3C9.65499 3.99852 10.0068 4.06734 10.335 4.2025C10.6633 4.33766 10.9615 4.53649 11.2125 4.7875C11.4635 5.03852 11.6623 5.33675 11.7975 5.66501C11.9327 5.99326 12.0015 6.34502 12 6.70001ZM4 8.5V9.3C3.99851 9.65499 4.06733 10.0068 4.20249 10.335C4.33765 10.6633 4.53648 10.9615 4.78749 11.2125C5.03851 11.4635 5.33675 11.6623 5.665 11.7975C5.99325 11.9327 6.34501 12.0015 6.7 12H7.5V13H6.7C6.2138 13.0011 5.73217 12.9061 5.28277 12.7206C4.83337 12.535 4.42505 12.2625 4.08125 11.9187C3.73745 11.575 3.46496 11.1666 3.2794 10.7172C3.09385 10.2678 2.9989 9.7862 3 9.3V8.5H4ZM14 9C14.265 9.00078 14.5189 9.10638 14.7062 9.29375C14.8936 9.48112 14.9992 9.73502 15 10V14C14.9992 14.265 14.8936 14.5189 14.7062 14.7062C14.5189 14.8936 14.265 14.9992 14 15H10C9.73502 14.9992 9.48112 14.8936 9.29375 14.7062C9.10638 14.5189 9.00078 14.265 9 14V10C9.00078 9.73502 9.10638 9.48112 9.29375 9.29375C9.48112 9.10638 9.73502 9.00078 10 9H14ZM14 10H10V14H14V10Z" fill="black"/>
</svg>
