<svg width="16" height="16" viewBox="0 0 16 16" fill="none" xmlns="http://www.w3.org/2000/svg">
<path fill-rule="evenodd" clip-rule="evenodd" d="M3 2H13C13.265 2.00078 13.5189 2.10638 13.7062 2.29375C13.8936 2.48112 13.9992 2.73502 14 3V9H13V3H3V9H2V3C2.00078 2.73502 2.10638 2.48112 2.29375 2.29375C2.48112 2.10638 2.73502 2.00078 3 2ZM8 5.5H6.5V4H5.5V5.5H4V6.5H5.5V8H6.5V6.5H8V5.5ZM5 14.25L5.1 10H6L5.64 15H4.5L4 11.75L3.5 15H2.36L2 10H2.9L3 14.25L3.5 11H4.5L5 14.25ZM9 14H8V10H7V14.3C7.0069 14.4922 7.08972 14.6738 7.23031 14.805C7.3709 14.9362 7.55779 15.0064 7.75 15H9.25C9.44221 15.0064 9.6291 14.9362 9.76969 14.805C9.91028 14.6738 9.9931 14.4922 10 14.3V10H9V14ZM11 11H12V14H11V15H14V14H13V11H14V10H11V11Z" fill="black"/>
</svg>
