<svg width="16" height="16" viewBox="0 0 16 16" fill="none" xmlns="http://www.w3.org/2000/svg">
<path fill-rule="evenodd" clip-rule="evenodd" d="M13 3H3.00001V9H2.00001V3C2.00079 2.73502 2.10639 2.48112 2.29376 2.29375C2.48113 2.10638 2.73503 2.00078 3.00001 2H13C13.265 2.00078 13.5189 2.10638 13.7063 2.29375C13.8936 2.48112 13.9992 2.73502 14 3V9H13V3ZM6.50001 4H5.50001V5.5H4.00001V6.5H5.50001V8H6.50001V6.5H8.00001V5.5H6.50001V4ZM0.500007 14.25V11C0.500785 10.735 0.606392 10.4811 0.79376 10.2938C0.981128 10.1064 1.23503 10.0008 1.50001 10H3.50001V11H1.50001V14H3.50001V15H1.25001C1.15101 15.0019 1.05265 14.9837 0.960817 14.9467C0.868985 14.9096 0.785566 14.8545 0.71555 14.7845C0.645533 14.7144 0.590357 14.631 0.553322 14.5392C0.516287 14.4474 0.498154 14.349 0.500007 14.25ZM8.00001 10H7.00001L6.25001 12L5.50001 10H4.50001V15H5.50001V11.5L6.25001 13.5L7.00001 11.5V15H8.00001V10ZM9.83326 10H11.1668C11.3877 10 11.5997 10.0878 11.756 10.2441C11.9122 10.4003 12 10.6123 12 10.8333V15H11V13H10V15H9.00001V10.8333C9.00001 10.6123 9.0878 10.4003 9.24406 10.2441C9.40032 10.0878 9.61227 10 9.83326 10ZM10 12H11V11H10V12ZM13 15H15.1668C15.3877 14.9997 15.5995 14.9119 15.7557 14.7557C15.9119 14.5995 15.9998 14.3877 16 14.1667V13C15.9997 12.7349 15.8943 12.4807 15.7068 12.2932C15.5193 12.1057 15.2651 12.0003 15 12H14V11H16V10H13.8333C13.6123 10.0003 13.4005 10.0881 13.2443 10.2443C13.0881 10.4005 13.0003 10.6123 13 10.8333V12C13.0003 12.2651 13.1057 12.5193 13.2932 12.7068C13.4807 12.8943 13.7349 12.9997 14 13H15V14H13V15Z" fill="black"/>
</svg>
