<svg width="16" height="16" viewBox="0 0 16 16" fill="none" xmlns="http://www.w3.org/2000/svg">
<path fill-rule="evenodd" clip-rule="evenodd" d="M2.5 3C2.5 1.626 5.35105 1 8 1C10.6488 1 13.4997 1.62575 13.5 2.99975V5.99995C13.5 7.37395 10.649 7.99995 8 7.99995C6.3213 7.99995 4.56395 7.7475 3.5 7.2138V8.99995C3.5613 9.2192 4.56105 9.74145 6.5 9.93015V10.929C5.3369 10.8215 4.24685 10.5884 3.5 10.2139V12C3.52735 12.113 4.00305 12.4482 5 12.6846V13.7075C3.567 13.399 2.5 12.8399 2.5 12V3ZM8 2C5.07495 2 3.5754 2.72995 3.49925 3.00755C3.57545 3.27 5.07495 4 8 4C10.8988 4 12.3974 3.28295 12.4984 3C12.3974 2.71705 10.8988 2 8 2ZM8 7C10.9207 7 12.4197 6.2722 12.5 5.99365V4.21385C11.4361 4.74755 9.6787 5 8 5C6.3213 5 4.56395 4.74755 3.5 4.21385V6C3.57545 6.27 5.07495 7 8 7ZM11.25 15C10.285 15 9.5 14.215 9.5 13.25C9.5 12.7827 9.6819 12.3433 10.0122 12.0129L10.7195 12.7198C10.578 12.8614 10.5 13.0497 10.5 13.25C10.5 13.6636 10.8364 14 11.25 14C11.4504 14 11.6388 13.922 11.7805 13.7802L14.2804 11.2803C14.422 11.1387 14.5 10.9503 14.5 10.75C14.5 10.3364 14.1636 10 13.75 10C13.5494 10 13.3609 10.0782 13.2191 10.2202L12.5113 9.51365C12.8421 9.1824 13.282 9 13.75 9C14.7149 9 15.5 9.78505 15.5 10.75C15.5 11.2174 15.318 11.6568 14.9875 11.9874L12.4876 14.4872C12.1572 14.8179 11.7177 15 11.25 15ZM8.25 15.5C7.28505 15.5 6.5 14.7149 6.5 13.75C6.5 13.2826 6.682 12.8432 7.01245 12.5126L9.51235 10.0127C9.8428 9.6821 10.2824 9.5 10.75 9.5C11.7149 9.5 12.5 10.2851 12.5 11.25C12.5 11.7173 12.3181 12.1567 11.9878 12.4871L11.2805 11.7802C11.422 11.6386 11.5 11.4503 11.5 11.25C11.5 10.8364 11.1636 10.5 10.75 10.5C10.5496 10.5 10.3612 10.578 10.2195 10.7198L7.7196 13.2197C7.578 13.3614 7.5 13.5497 7.5 13.75C7.5 14.1636 7.83645 14.5 8.25 14.5C8.45055 14.5 8.63915 14.4219 8.7809 14.2799L9.48865 14.9864C9.15785 15.3176 8.718 15.5 8.25 15.5Z" fill="black"/>
</svg>
