<svg width="16" height="16" viewBox="0 0 16 16" fill="none" xmlns="http://www.w3.org/2000/svg">
<path fill-rule="evenodd" clip-rule="evenodd" d="M1.5 9H2.5V7C2.5 4.5187 4.5187 2.5 7 2.5H10.5V1.5H7C3.9673 1.5 1.5 3.9673 1.5 7V9ZM14 6C14.5523 6 15 5.55228 15 5C15 4.44772 14.5523 4 14 4C13.4477 4 13 4.44772 13 5C13 5.55228 13.4477 6 14 6ZM9 14.5H5.5V13.5H9C11.4813 13.5 13.5 11.4813 13.5 9V7H14.5V9C14.5 12.0327 12.0327 14.5 9 14.5ZM5.5 8C5.5 9.37855 6.62145 10.5 8 10.5C9.37855 10.5 10.5 9.37855 10.5 8C10.5 6.62145 9.37855 5.5 8 5.5C6.62145 5.5 5.5 6.62145 5.5 8ZM6.5 8C6.5 7.17285 7.17285 6.5 8 6.5C8.82715 6.5 9.5 7.17285 9.5 8C9.5 8.82715 8.82715 9.5 8 9.5C7.17285 9.5 6.5 8.82715 6.5 8ZM2 12C2.55228 12 3 11.5523 3 11C3 10.4477 2.55228 10 2 10C1.44772 10 1 10.4477 1 11C1 11.5523 1.44772 12 2 12Z" fill="black"/>
</svg>
