<svg width="16" height="16" viewBox="0 0 16 16" fill="none" xmlns="http://www.w3.org/2000/svg">
<path fill-rule="evenodd" clip-rule="evenodd" d="M13 0H14V1.5H13V0ZM16 2H14.5V3H16V2ZM14 3.5H13V5H14V3.5ZM12.5 2H11V3H12.5V2ZM9.5 9.35V8H10.5V9.35L11.75 9L12 9.95L10.8 10.3L11.5 11.5L10.65 12L10 10.9L9.35 12L8.5 11.5L9.2 10.3L8 9.95L8.25 9L9.5 9.35ZM6.5 8V6.5H8V5.5H6.5V4H5.5V5.5H4V6.5H5.5V8H6.5ZM3 13H13V6.5H14V13C13.9992 13.265 13.8936 13.5189 13.7062 13.7062C13.5189 13.8936 13.265 13.9992 13 14H3C2.73502 13.9992 2.48112 13.8936 2.29375 13.7062C2.10638 13.5189 2.00078 13.265 2 13V3C2.00078 2.73502 2.10638 2.48112 2.29375 2.29375C2.48112 2.10638 2.73502 2.00078 3 2H9.5V3H3V13Z" fill="black"/>
</svg>
