<svg width="16" height="16" viewBox="0 0 16 16" fill="none" xmlns="http://www.w3.org/2000/svg">
<path fill-rule="evenodd" clip-rule="evenodd" d="M5.85001 1.34997L6.15001 2.29997C6.74607 2.09929 7.37107 1.99794 8.00001 1.99997V0.999972C7.26838 0.98999 6.54069 1.10845 5.85001 1.34997ZM2.35001 3.89998C2.77106 3.31235 3.2765 2.79007 3.85001 2.34998L4.45001 3.14998C3.95493 3.53615 3.51723 3.99069 3.15001 4.49998L2.35001 3.89998ZM1.35 5.84998L2.3 6.14998C2.09932 6.74604 1.99797 7.37104 2 7.99998H1C0.990021 7.26835 1.10848 6.54066 1.35 5.84998ZM1.35001 10.2C1.58189 10.8972 1.91913 11.5548 2.35001 12.15L3.15001 11.55C2.78855 11.0439 2.50224 10.4881 2.30001 9.89996L1.35001 10.2ZM5.84999 14.65C5.15278 14.4181 4.49516 14.0809 3.89999 13.65L4.49999 12.85C5.0061 13.2114 5.56186 13.4977 6.14999 13.7L5.84999 14.65ZM13.65 12.1C13.2111 12.6889 12.6889 13.211 12.1 13.65L11.5 12.85C12.0219 12.4781 12.4782 12.0219 12.85 11.5L13.65 12.1ZM13.7 9.84997L14.65 10.15C14.8675 9.4534 14.9853 8.72956 15 7.99997H14C14.002 8.62891 13.9007 9.2539 13.7 9.84997ZM13.6 3.84998C14.0309 4.44514 14.3681 5.10276 14.6 5.79998L13.65 6.09998C13.4478 5.51184 13.1615 4.95608 12.8 4.44998L13.6 3.84998ZM12.05 2.29997C11.4548 1.86909 10.7972 1.53185 10.1 1.29997L9.8 2.24997C10.3881 2.45221 10.9439 2.73851 11.45 3.09997L12.05 2.29997ZM9.85 13.7L10.15 14.65C9.44709 14.8394 8.7267 14.9567 8 15V14C8.62894 14.002 9.25393 13.9007 9.85 13.7Z" fill="black"/>
</svg>
