<svg width="16" height="16" viewBox="0 0 16 16" fill="none" xmlns="http://www.w3.org/2000/svg">
<path fill-rule="evenodd" clip-rule="evenodd" d="M4.65531 4.11602C4.3821 4.51891 3.97133 4.80832 3.5 4.93002V7.00002H4.5V8.00002H1V7.00002H2.5V4.93002C2.02868 4.80832 1.61791 4.51891 1.3447 4.11602C1.0715 3.71313 0.954608 3.22443 1.01595 2.74152C1.07728 2.25861 1.31264 1.81466 1.67789 1.49286C2.04314 1.17107 2.51322 0.99353 3 0.99353C3.48679 0.99353 3.95687 1.17107 4.32212 1.49286C4.68737 1.81466 4.92273 2.25861 4.98406 2.74152C5.0454 3.22443 4.92851 3.71313 4.65531 4.11602ZM2.16854 2.44445C2.05865 2.6089 2 2.80224 2 3.00002C2 3.26524 2.10536 3.51959 2.2929 3.70713C2.48043 3.89466 2.73479 4.00002 3 4.00002C3.19779 4.00002 3.39113 3.94137 3.55557 3.83149C3.72002 3.72161 3.8482 3.56543 3.92388 3.38271C3.99957 3.19998 4.01938 2.99891 3.98079 2.80493C3.9422 2.61095 3.84696 2.43277 3.70711 2.29291C3.56726 2.15306 3.38908 2.05782 3.1951 2.01924C3.00111 1.98065 2.80005 2.00045 2.61732 2.07614C2.4346 2.15183 2.27842 2.28 2.16854 2.44445ZM15 1.00002V5.00002H13.5V7.00002H15V8.00002H11.5V7.00002H12.5V5.00002H11V1.00002H15ZM14 2.00002H12V4.00002H14V2.00002ZM9.295 11L10 11.705L8.705 13L10 14.295L9.295 15L8 13.705L6.705 15L6 14.295L7.295 13L6 11.705L6.705 11L8 12.295L9.295 11ZM10 7.00002H6V8.00002H7.5V10.5H8.5V8.00002H10V7.00002Z" fill="black"/>
</svg>
