<svg width="16" height="16" viewBox="0 0 16 16" fill="none" xmlns="http://www.w3.org/2000/svg">
<path fill-rule="evenodd" clip-rule="evenodd" d="M8.17469 8.79871C8.38533 9.16428 8.4979 9.5781 8.50146 10C8.50146 10.0268 8.53076 12.772 10.3006 14.1C10.3846 14.163 10.4466 14.2507 10.4779 14.3509C10.5092 14.4511 10.5081 14.5586 10.475 14.6581C10.4418 14.7577 10.3781 14.8443 10.293 14.9056C10.2078 14.967 10.1056 15 10.0006 15H2.50501C2.37579 15.0001 2.25156 14.9502 2.15834 14.8607C2.06513 14.7712 2.01018 14.6491 2.00501 14.52C1.99816 14.3411 1.85321 10.12 3.72501 8.31445C4.06433 7.98 4.4821 7.73598 4.94009 7.6047C5.39809 7.47343 5.88169 7.45909 6.34666 7.563L10.1346 1L11 1.5L7.29926 7.91355C7.66248 8.12822 7.96405 8.43313 8.17469 8.79871ZM7.03457 8.9411C6.74828 8.66144 6.3652 8.50293 5.96501 8.49855C5.71452 8.47265 5.46138 8.4968 5.22031 8.56959C4.97924 8.64239 4.75504 8.76239 4.56076 8.9226L7.51046 10.2344C7.50301 10.104 7.50206 10.019 7.50206 10C7.4883 9.60003 7.32086 9.22076 7.03457 8.9411ZM7.00001 12.5C7.07052 13.066 7.32516 13.593 7.72471 14H8.79841C8.23502 13.2265 7.84902 12.3383 7.66786 11.3987L3.90136 9.72365C3.14501 11.054 3.01551 13.0818 3.00001 14H4.33261C4.14392 13.3486 4.03229 12.6774 4.00001 12H5.00001C5.04179 12.6794 5.16692 13.3511 5.37256 14H6.48421C6.20216 13.5473 6.03587 13.0322 6.00001 12.5H7.00001ZM13 10H10V9H13V10ZM15 14H12V13H15V14ZM11 12H14V11H11V12Z" fill="black"/>
</svg>
