<svg width="16" height="16" viewBox="0 0 16 16" fill="none" xmlns="http://www.w3.org/2000/svg">
<g clip-path="url(#clip0_3_13585)">
<path fill-rule="evenodd" clip-rule="evenodd" d="M11.88 4.36693L11.0875 4.99998C10.544 4.3046 9.78074 3.81403 8.92244 3.60838C8.42888 3.49095 7.91743 3.46889 7.41559 3.54338C6.57947 3.68109 5.80649 4.07429 5.20284 4.66899C4.59919 5.26369 4.19447 6.03071 4.04429 6.86468L3.93734 7.41968L3.26304 7.54173C2.90584 7.60625 2.56493 7.74076 2.25991 7.93753C1.95489 8.1343 1.69179 8.38944 1.48575 8.68827C1.27971 8.9871 1.13479 9.32372 1.05934 9.67877C0.983886 10.0338 0.979384 10.4003 1.04609 10.7571C1.17931 11.3983 1.53188 11.9731 2.04314 12.3825C2.5544 12.7919 3.19237 13.0102 3.84724 13H7.99999V14H3.88459C2.95096 14.0132 2.04447 13.6859 1.33457 13.0794C0.624656 12.4729 0.159911 11.6286 0.0271924 10.7043C-0.0886615 9.75345 0.1635 8.79426 0.732012 8.02328C1.30052 7.25231 2.14234 6.72793 3.08499 6.55758C3.209 5.91219 3.45898 5.29757 3.82067 4.74885C4.18235 4.20013 4.64863 3.72808 5.19286 3.35968C5.73709 2.99127 6.34859 2.73375 6.9924 2.60181C7.63622 2.46988 8.29973 2.46613 8.94499 2.59078C10.1029 2.81622 11.1431 3.4457 11.88 4.36693ZM12 6.99998H13V14H12V6.99998ZM14 8.99998H15V14H14V8.99998ZM11 11H10V14H11V11Z" fill="black"/>
</g>
<defs>
<clipPath id="clip0_3_13585">
<rect width="16" height="16" fill="white"/>
</clipPath>
</defs>
</svg>
