<svg width="16" height="16" viewBox="0 0 16 16" fill="none" xmlns="http://www.w3.org/2000/svg">
<path fill-rule="evenodd" clip-rule="evenodd" d="M11.1855 3.64685C12.0822 4.38713 12.6934 5.41622 12.9144 6.55774C13.836 6.72408 14.662 7.22909 15.2301 7.97352C15.7982 8.71795 16.0673 9.64795 15.9845 10.5807C15.9016 11.5135 15.4729 12.3815 14.7826 13.0143C14.0923 13.647 13.1902 13.9986 12.2538 14H8V13H12.2538C12.9405 12.9986 13.6019 12.7405 14.1079 12.2763C14.614 11.8121 14.9281 11.1754 14.9886 10.4913C15.0491 9.80729 14.8515 9.12536 14.4348 8.57957C14.018 8.03377 13.4122 7.66358 12.7364 7.54174L12.062 7.41969L11.9325 6.74669C11.7551 5.83351 11.2658 5.01036 10.5485 4.4181C9.83113 3.82584 8.93025 3.50129 8 3.49999V2.50024C9.16273 2.50121 10.2889 2.90657 11.1855 3.64685ZM4 12H7V13H4V12ZM3 12H2V13H3V12ZM3 9.99999H7V11H3V9.99999ZM2 9.99999H1V11H2V9.99999ZM4 7.99999H7V8.99999H4V7.99999ZM3 7.99999H2V8.99999H3V7.99999ZM5 5.99999H7V6.99999H5V5.99999ZM4 5.99999H3V6.99999H4V5.99999ZM6 3.99999H7V4.99999H6V3.99999Z" fill="black"/>
</svg>
