<svg width="16" height="16" viewBox="0 0 16 16" fill="none" xmlns="http://www.w3.org/2000/svg">
<g clip-path="url(#clip0_3_13557)">
<path fill-rule="evenodd" clip-rule="evenodd" d="M1.5 11.2129L5.6538 13.6363L5.15 14.5L0.74805 11.9322C0.672557 11.8881 0.609932 11.825 0.566411 11.7492C0.52289 11.6733 0.499993 11.5874 0.5 11.5V4.50002C0.499967 4.41262 0.522855 4.32675 0.56638 4.25096C0.609906 4.17518 0.672546 4.11213 0.74805 4.06812L6.74805 0.568119C6.82452 0.523507 6.91147 0.5 7 0.5C7.08853 0.5 7.17548 0.523507 7.25195 0.568119L13.252 4.06812L12.748 4.93192L7 1.57887L1.5 4.78712V11.2129ZM10.5 7C11.0523 7 11.5 6.55228 11.5 6C11.5 5.44772 11.0523 5 10.5 5C9.94771 5 9.5 5.44772 9.5 6C9.5 6.55228 9.94771 7 10.5 7ZM5.88886 9.66294C6.21776 9.8827 6.60444 10 7 10C7.52996 9.99844 8.03776 9.78723 8.41249 9.41249C8.78723 9.03776 8.99844 8.52996 9 8C9 7.60444 8.8827 7.21776 8.66294 6.88886C8.44318 6.55996 8.13082 6.30362 7.76537 6.15224C7.39992 6.00087 6.99778 5.96126 6.60982 6.03843C6.22186 6.1156 5.86549 6.30608 5.58579 6.58579C5.30608 6.86549 5.1156 7.22186 5.03843 7.60982C4.96126 7.99778 5.00087 8.39992 5.15224 8.76537C5.30362 9.13082 5.55996 9.44318 5.88886 9.66294ZM6.44443 7.16853C6.60888 7.05865 6.80222 7 7 7C7.26498 7.00078 7.51888 7.10639 7.70625 7.29375C7.89362 7.48112 7.99922 7.73502 8 8C8 8.19778 7.94135 8.39112 7.83147 8.55557C7.72159 8.72002 7.56541 8.84819 7.38268 8.92388C7.19996 8.99957 6.99889 9.01937 6.80491 8.98079C6.61093 8.9422 6.43275 8.84696 6.29289 8.70711C6.15304 8.56726 6.0578 8.38907 6.01922 8.19509C5.98063 8.00111 6.00043 7.80004 6.07612 7.61732C6.15181 7.43459 6.27998 7.27841 6.44443 7.16853ZM3.5 11C4.05228 11 4.5 10.5523 4.5 10C4.5 9.44771 4.05228 9 3.5 9C2.94772 9 2.5 9.44771 2.5 10C2.5 10.5523 2.94772 11 3.5 11ZM12.9874 14.9882L15.4881 12.4875H15.4882C15.8138 12.1586 15.9959 11.7142 15.9948 11.2515C15.9936 10.7888 15.8093 10.3453 15.4821 10.0181C15.1549 9.69087 14.7114 9.50653 14.2487 9.50538C13.7859 9.50422 13.3415 9.68634 13.0127 10.0119L13.72 10.7192C13.8607 10.5785 14.0515 10.4995 14.2504 10.4995C14.4494 10.4995 14.6402 10.5785 14.7808 10.7192C14.9215 10.8599 15.0006 11.0507 15.0006 11.2496C15.0006 11.4486 14.9215 11.6394 14.7808 11.7801L12.28 14.2809C12.1393 14.4216 11.9485 14.5006 11.7496 14.5006C11.5506 14.5006 11.3598 14.4216 11.2191 14.2809C11.0785 14.1402 10.9994 13.9494 10.9994 13.7505C10.9994 13.5515 11.0785 13.3607 11.2191 13.2201L10.5118 12.5127C10.1863 12.8415 10.0042 13.2859 10.0053 13.7486C10.0065 14.2114 10.1908 14.6548 10.518 14.9821C10.8452 15.3093 11.2887 15.4936 11.7514 15.4948C12.2142 15.4959 12.6586 15.3138 12.9874 14.9882ZM7.51185 13.0128L10.0126 10.512V10.5119C10.3414 10.1863 10.7858 10.0042 11.2486 10.0054C11.7113 10.0065 12.1548 10.1909 12.482 10.5181C12.8092 10.8453 12.9935 11.2888 12.9947 11.7515C12.9958 12.2142 12.8137 12.6586 12.4881 12.9875L11.7808 12.2802C11.9215 12.1395 12.0006 11.9487 12.0006 11.7497C12.0006 11.5508 11.9215 11.36 11.7808 11.2193C11.6402 11.0786 11.4494 10.9996 11.2504 10.9996C11.0515 10.9996 10.8607 11.0786 10.72 11.2193L8.21915 13.7202C8.07847 13.8608 7.99944 14.0516 7.99944 14.2506C7.99944 14.4495 8.07847 14.6403 8.21915 14.781C8.35983 14.9217 8.55063 15.0007 8.74957 15.0007C8.94852 15.0007 9.13932 14.9217 9.28 14.781L9.9874 15.4883C9.65856 15.8139 9.21418 15.996 8.75143 15.9949C8.28869 15.9937 7.84522 15.8094 7.51801 15.4822C7.1908 15.1549 7.00646 14.7115 7.00531 14.2487C7.00415 13.786 7.18627 13.3416 7.51185 13.0128Z" fill="black"/>
</g>
<defs>
<clipPath id="clip0_3_13557">
<rect width="16" height="16" fill="white"/>
</clipPath>
</defs>
</svg>
