<svg width="16" height="16" viewBox="0 0 16 16" fill="none" xmlns="http://www.w3.org/2000/svg">
<path fill-rule="evenodd" clip-rule="evenodd" d="M7.74805 15.4322C7.82454 15.4767 7.91149 15.5001 8 15.5C8.08851 15.5001 8.17546 15.4767 8.25195 15.4322L14.252 11.9322C14.3274 11.8881 14.3901 11.825 14.4336 11.7492C14.4771 11.6733 14.5 11.5874 14.5 11.5V7.50002H13.5V11.2129L8 14.4214L2.5 11.2129V4.78712L8 1.57887L13.748 4.93192L14.252 4.06812L8.25195 0.568119C8.17548 0.523507 8.08853 0.5 8 0.5C7.91147 0.5 7.82452 0.523507 7.74805 0.568119L1.74805 4.06812C1.67255 4.11213 1.60991 4.17518 1.56638 4.25096C1.52285 4.32675 1.49997 4.41262 1.5 4.50002V11.5C1.49999 11.5874 1.52289 11.6733 1.56641 11.7492C1.60993 11.825 1.67256 11.8881 1.74805 11.9322L7.74805 15.4322ZM11.5 7.00002C12.0523 7.00002 12.5 6.5523 12.5 6.00002C12.5 5.44773 12.0523 5.00002 11.5 5.00002C10.9477 5.00002 10.5 5.44773 10.5 6.00002C10.5 6.5523 10.9477 7.00002 11.5 7.00002ZM6.88886 9.66296C7.21776 9.88272 7.60444 10 8 10C8.52996 9.99846 9.03776 9.78725 9.41249 9.41251C9.78723 9.03777 9.99844 8.52997 10 8.00002C10 7.60445 9.8827 7.21777 9.66294 6.88888C9.44318 6.55998 9.13082 6.30363 8.76537 6.15226C8.39992 6.00088 7.99778 5.96128 7.60982 6.03845C7.22186 6.11562 6.86549 6.3061 6.58579 6.5858C6.30608 6.86551 6.1156 7.22187 6.03843 7.60984C5.96126 7.9978 6.00087 8.39993 6.15224 8.76538C6.30362 9.13084 6.55996 9.44319 6.88886 9.66296ZM7.44443 7.16855C7.60888 7.05867 7.80222 7.00002 8 7.00002C8.26498 7.00079 8.51888 7.1064 8.70625 7.29377C8.89362 7.48114 8.99922 7.73504 9 8.00002C9 8.1978 8.94135 8.39114 8.83147 8.55559C8.72159 8.72004 8.56541 8.84821 8.38268 8.9239C8.19996 8.99958 7.99889 9.01939 7.80491 8.9808C7.61093 8.94222 7.43275 8.84698 7.29289 8.70712C7.15304 8.56727 7.0578 8.38909 7.01922 8.19511C6.98063 8.00113 7.00043 7.80006 7.07612 7.61733C7.15181 7.43461 7.27998 7.27843 7.44443 7.16855ZM5.5 10C5.5 10.5523 5.05228 11 4.5 11C3.94772 11 3.5 10.5523 3.5 10C3.5 9.44773 3.94772 9.00002 4.5 9.00002C5.05228 9.00002 5.5 9.44773 5.5 10Z" fill="black"/>
</svg>
