<svg width="16" height="16" viewBox="0 0 16 16" fill="none" xmlns="http://www.w3.org/2000/svg">
<g clip-path="url(#clip0_3_13553)">
<path fill-rule="evenodd" clip-rule="evenodd" d="M11.1866 2.14713C12.083 2.88859 12.6928 3.91943 12.9109 5.0621C13.8333 5.22686 14.6605 5.7311 15.2295 6.47547C15.7986 7.21984 16.0682 8.15035 15.9853 9.08364C15.9024 10.0169 15.4729 10.8853 14.7815 11.5177C14.0901 12.1501 13.187 12.5006 12.25 12.5001H12V11.5001H12.25C12.9628 11.5006 13.6479 11.2241 14.1607 10.729C14.6735 10.2338 14.9738 9.55881 14.9983 8.84641C15.0228 8.13401 14.7695 7.43997 14.2919 6.91081C13.8143 6.38165 13.1498 6.05878 12.4386 6.01035L12.0204 5.9818L11.9754 5.56505C11.8684 4.58544 11.4035 3.67981 10.6699 3.02191C9.93623 2.364 8.9855 2.00014 8.00006 2.00014C7.01463 2.00014 6.06389 2.364 5.33024 3.02191C4.59659 3.67981 4.13169 4.58544 4.02474 5.56505L3.97974 5.9818L3.56154 6.01035C2.85038 6.05878 2.18586 6.38164 1.70826 6.91079C1.23066 7.43993 0.977349 8.13394 1.0018 8.84633C1.02626 9.55872 1.32656 10.2337 1.83932 10.7289C2.35208 11.224 3.03718 11.5006 3.74999 11.5001H3.99999V12.5001H3.74999C2.81302 12.5005 1.90986 12.15 1.21848 11.5177C0.527099 10.8853 0.0976356 10.0169 0.0147147 9.08362C-0.0682061 8.15033 0.20143 7.21982 0.770491 6.47546C1.33955 5.73109 2.16677 5.22686 3.08914 5.0621C3.30726 3.91943 3.91703 2.88859 4.81342 2.14713C5.70981 1.40567 6.8367 1 8.00001 1C9.16332 1 10.2902 1.40567 11.1866 2.14713ZM10.4494 10.0001H11.5V11.0001H10.4494C10.385 11.3131 10.2607 11.6107 10.0835 11.8766L10.8285 12.6216L10.1215 13.3286L9.37645 12.5836C9.11056 12.7608 8.81297 12.885 8.5 12.9495V14.0001H7.5V12.9495C7.18701 12.885 6.8894 12.7608 6.6235 12.5835L5.8785 13.3285L5.1715 12.6215L5.9165 11.8765C5.73928 11.6106 5.61502 11.313 5.55055 11.0001H4.5V10.0001H5.55055C5.61503 9.68707 5.7393 9.38946 5.91655 9.12356L5.17155 8.37856L5.87855 7.67156L6.62355 8.41656C6.88944 8.23934 7.18703 8.11508 7.5 8.05061V7.00006H8.5V8.05061C8.81299 8.11509 9.1106 8.23936 9.3765 8.41661L10.1215 7.67161L10.8285 8.37861L10.0835 9.12361C10.2607 9.3895 10.385 9.68709 10.4494 10.0001ZM7.16664 11.7473C7.41332 11.9121 7.70333 12.0001 8 12.0001C8.39769 11.9996 8.77897 11.8414 9.06018 11.5602C9.34139 11.279 9.49956 10.8978 9.5 10.5001C9.5 10.2034 9.41203 9.91338 9.2472 9.66671C9.08238 9.42003 8.84811 9.22777 8.57403 9.11424C8.29994 9.00071 7.99834 8.971 7.70736 9.02888C7.41639 9.08676 7.14912 9.22962 6.93934 9.4394C6.72956 9.64918 6.5867 9.91645 6.52882 10.2074C6.47094 10.4984 6.50065 10.8 6.61418 11.0741C6.72771 11.3482 6.91997 11.5824 7.16664 11.7473Z" fill="black"/>
</g>
<defs>
<clipPath id="clip0_3_13553">
<rect width="16" height="16" fill="white"/>
</clipPath>
</defs>
</svg>
