<svg width="16" height="16" viewBox="0 0 16 16" fill="none" xmlns="http://www.w3.org/2000/svg">
<g clip-path="url(#clip0_3_13555)">
<path fill-rule="evenodd" clip-rule="evenodd" d="M1.5 11.2129L6.51025 14.1358L6.00635 15L0.74805 11.9322C0.672557 11.8881 0.609932 11.825 0.566411 11.7492C0.52289 11.6733 0.499993 11.5874 0.5 11.5V4.50002C0.499967 4.41262 0.522855 4.32675 0.56638 4.25096C0.609906 4.17518 0.672546 4.11213 0.74805 4.06812L6.74805 0.568119C6.82452 0.523507 6.91147 0.5 7 0.5C7.08853 0.5 7.17548 0.523507 7.25195 0.568119L13.252 4.06812L12.748 4.93192L7 1.57887L1.5 4.78712V11.2129ZM10.5 7C11.0523 7 11.5 6.55228 11.5 6C11.5 5.44772 11.0523 5 10.5 5C9.94771 5 9.5 5.44772 9.5 6C9.5 6.55228 9.94771 7 10.5 7ZM5.88886 9.66294C6.21776 9.8827 6.60444 10 7 10C7.52996 9.99844 8.03776 9.78723 8.41249 9.41249C8.78723 9.03776 8.99844 8.52996 9 8C9 7.60444 8.8827 7.21776 8.66294 6.88886C8.44318 6.55996 8.13082 6.30362 7.76537 6.15224C7.39992 6.00087 6.99778 5.96126 6.60982 6.03843C6.22186 6.1156 5.86549 6.30608 5.58579 6.58579C5.30608 6.86549 5.1156 7.22186 5.03843 7.60982C4.96126 7.99778 5.00087 8.39992 5.15224 8.76537C5.30362 9.13082 5.55996 9.44318 5.88886 9.66294ZM6.44443 7.16853C6.60888 7.05865 6.80222 7 7 7C7.26498 7.00078 7.51888 7.10639 7.70625 7.29375C7.89362 7.48112 7.99922 7.73502 8 8C8 8.19778 7.94135 8.39112 7.83147 8.55557C7.72159 8.72002 7.56541 8.84819 7.38268 8.92388C7.19996 8.99957 6.99889 9.01937 6.80491 8.98079C6.61093 8.9422 6.43275 8.84696 6.29289 8.70711C6.15304 8.56726 6.0578 8.38907 6.01922 8.19509C5.98063 8.00111 6.00043 7.80004 6.07612 7.61732C6.15181 7.43459 6.27998 7.27841 6.44443 7.16853ZM14.5 13C14.1622 13.0014 13.8351 13.118 13.5725 13.3304L12.5 12.7112V11.9079C12.8336 11.7899 13.1148 11.5578 13.2938 11.2526C13.4729 10.9474 13.5382 10.5887 13.4784 10.24C13.4186 9.89125 13.2374 9.57488 12.9668 9.34681C12.6963 9.11874 12.3538 8.99365 12 8.99365C11.6462 8.99365 11.3037 9.11874 11.0332 9.34681C10.7626 9.57488 10.5814 9.89125 10.5216 10.24C10.4618 10.5887 10.5271 10.9474 10.7062 11.2526C10.8852 11.5578 11.1664 11.7899 11.5 11.9079V12.7112L10.4276 13.3304C10.1649 13.118 9.83776 13.0014 9.5 13C9.18659 12.9979 8.8803 13.0935 8.62361 13.2733C8.36692 13.4531 8.17255 13.7084 8.06746 14.0037C7.96237 14.2989 7.95176 14.6196 8.03711 14.9212C8.12245 15.2227 8.29953 15.4903 8.54377 15.6867C8.78801 15.8831 9.08732 15.9987 9.40018 16.0173C9.71304 16.036 10.024 15.9568 10.2898 15.7908C10.5557 15.6248 10.7633 15.3802 10.8838 15.0909C11.0044 14.8016 11.032 14.4819 10.9627 14.1763L12 13.5774L13.0373 14.1763C12.9705 14.4794 12.9994 14.7957 13.1201 15.0817C13.2407 15.3676 13.4472 15.609 13.7109 15.7726C13.9747 15.9362 14.2827 16.014 14.5925 15.995C14.9023 15.9761 15.1985 15.8615 15.4404 15.667C15.6822 15.4725 15.8578 15.2077 15.9427 14.9092C16.0277 14.6107 16.0179 14.2932 15.9147 14.0005C15.8115 13.7078 15.6199 13.4543 15.3665 13.2751C15.1131 13.0959 14.8104 12.9998 14.5 13ZM9.5 15C9.40111 15 9.30444 14.9707 9.22222 14.9158C9.13999 14.8608 9.07591 14.7827 9.03806 14.6914C9.00022 14.6 8.99032 14.4995 9.00961 14.4025C9.0289 14.3055 9.07652 14.2164 9.14645 14.1465C9.21638 14.0765 9.30547 14.0289 9.40246 14.0096C9.49945 13.9903 9.59998 14.0002 9.69135 14.0381C9.78271 14.0759 9.8608 14.14 9.91574 14.2222C9.97068 14.3045 10 14.4011 10 14.5C9.99992 14.6326 9.94722 14.7597 9.85347 14.8535C9.75972 14.9472 9.63259 14.9999 9.5 15ZM12 10C12.0989 10 12.1956 10.0293 12.2778 10.0843C12.36 10.1392 12.4241 10.2173 12.4619 10.3087C12.4998 10.4 12.5097 10.5006 12.4904 10.5976C12.4711 10.6946 12.4235 10.7836 12.3536 10.8536C12.2836 10.9235 12.1945 10.9711 12.0975 10.9904C12.0006 11.0097 11.9 10.9998 11.8087 10.962C11.7173 10.9241 11.6392 10.86 11.5843 10.7778C11.5293 10.6956 11.5 10.5989 11.5 10.5C11.5001 10.3674 11.5528 10.2403 11.6466 10.1466C11.7403 10.0529 11.8674 10.0001 12 10ZM14.5 15C14.4011 15 14.3044 14.9707 14.2222 14.9158C14.14 14.8608 14.0759 14.7827 14.0381 14.6914C14.0002 14.6 13.9903 14.4995 14.0096 14.4025C14.0289 14.3055 14.0765 14.2164 14.1465 14.1465C14.2164 14.0765 14.3055 14.0289 14.4025 14.0096C14.4994 13.9903 14.6 14.0002 14.6913 14.0381C14.7827 14.0759 14.8608 14.14 14.9157 14.2222C14.9707 14.3045 15 14.4011 15 14.5C14.9999 14.6326 14.9472 14.7597 14.8535 14.8535C14.7597 14.9472 14.6326 14.9999 14.5 15ZM3.5 11C4.05228 11 4.5 10.5523 4.5 10C4.5 9.44771 4.05228 9 3.5 9C2.94772 9 2.5 9.44771 2.5 10C2.5 10.5523 2.94772 11 3.5 11Z" fill="black"/>
</g>
<defs>
<clipPath id="clip0_3_13555">
<rect width="16" height="16" fill="white"/>
</clipPath>
</defs>
</svg>
