<svg width="16" height="16" viewBox="0 0 16 16" fill="none" xmlns="http://www.w3.org/2000/svg">
<path fill-rule="evenodd" clip-rule="evenodd" d="M11.5 11H11.75C12.5518 10.995 13.3234 10.6937 13.9165 10.1541C14.5096 9.6145 14.8823 8.87472 14.9629 8.07697C15.0436 7.27922 14.8265 6.47982 14.3534 5.83246C13.8803 5.1851 13.1846 4.73547 12.4 4.57003C12.1841 3.56329 11.6296 2.66102 10.8288 2.01376C10.0281 1.36651 9.02961 1.01343 7.99999 1.01343C6.97037 1.01343 5.97189 1.36651 5.17115 2.01376C4.37041 2.66102 3.81584 3.56329 3.59999 4.57003C2.81543 4.73547 2.11972 5.1851 1.64662 5.83246C1.17351 6.47982 0.956412 7.27922 1.03706 8.07697C1.1177 8.87472 1.49039 9.6145 2.08348 10.1541C2.67657 10.6937 3.44819 10.995 4.24999 11H4.49999V10H4.24999C3.65325 10.0239 3.07148 9.80974 2.63264 9.40466C2.1938 8.99958 1.93386 8.43677 1.90999 7.84003C1.88612 7.24329 2.10028 6.66151 2.50536 6.22268C2.91044 5.78384 3.47325 5.5239 4.06999 5.50003H4.49999L4.50999 5.09003C4.62092 4.24825 5.03406 3.4755 5.67244 2.91572C6.31083 2.35594 7.13094 2.0473 7.97999 2.0473C8.82904 2.0473 9.64915 2.35594 10.2875 2.91572C10.9259 3.4755 11.3391 4.24825 11.45 5.09003L11.5 5.50003H11.93C12.5267 5.5239 13.0895 5.78384 13.4946 6.22268C13.8997 6.66151 14.1139 7.24329 14.09 7.84003C14.0661 8.43677 13.8062 8.99958 13.3673 9.40466C12.9285 9.80974 12.3467 10.0239 11.75 10H11.5V11ZM6.20499 9.70503L5.49999 9.00003L7.99999 6.50003L10.5 9.00003L9.79499 9.70503L8.49999 8.41503V14.5H7.49999V8.41503L6.20499 9.70503Z" fill="black"/>
</svg>
