<svg width="16" height="16" viewBox="0 0 16 16" fill="none" xmlns="http://www.w3.org/2000/svg">
<path fill-rule="evenodd" clip-rule="evenodd" d="M13.9494 4H15V5H13.9494C13.885 5.31299 13.7607 5.6106 13.5835 5.8765L14.3285 6.6215L13.6215 7.3285L12.8764 6.5835C12.6106 6.76072 12.313 6.88498 12 6.94945V8H11V6.94945C10.687 6.88497 10.3894 6.7607 10.1235 6.58345L9.3785 7.32845L8.6715 6.62145L9.4165 5.87645C9.23928 5.61056 9.11502 5.31297 9.05055 5H8V4H9.05055C9.11503 3.68701 9.2393 3.3894 9.41655 3.1235L8.67155 2.3785L9.37855 1.6715L10.1236 2.4165C10.3894 2.23928 10.687 2.11502 11 2.05055V1H12V2.05055C12.313 2.11503 12.6106 2.2393 12.8765 2.41655L13.6215 1.67155L14.3285 2.37855L13.5835 3.12355C13.7607 3.38944 13.885 3.68703 13.9494 4ZM10.6666 5.7472C10.9133 5.91203 11.2033 6 11.5 6C11.8977 5.99956 12.279 5.84139 12.5602 5.56018C12.8414 5.27897 12.9996 4.89769 13 4.5C13 4.20333 12.912 3.91332 12.7472 3.66664C12.5824 3.41997 12.3481 3.22771 12.074 3.11418C11.7999 3.00065 11.4983 2.97094 11.2074 3.02882C10.9164 3.0867 10.6491 3.22956 10.4393 3.43934C10.2296 3.64912 10.0867 3.91639 10.0288 4.20736C9.97094 4.49834 10.0006 4.79994 10.1142 5.07403C10.2277 5.34811 10.42 5.58238 10.6666 5.7472ZM14 11V8.5H15V11C15 11.2652 14.8946 11.5196 14.7071 11.7071C14.5196 11.8946 14.2652 12 14 12H10V14H12V15H4V14H6V12H2C1.73478 12 1.48043 11.8946 1.29289 11.7071C1.10536 11.5196 1 11.2652 1 11V3C1 2.73478 1.10536 2.48043 1.29289 2.29289C1.48043 2.10536 1.73478 2 2 2H7V3H2V11H14ZM7 12V14H9V12H7Z" fill="black"/>
</svg>
