<svg width="16" height="16" viewBox="0 0 16 16" fill="none" xmlns="http://www.w3.org/2000/svg">
<path fill-rule="evenodd" clip-rule="evenodd" d="M11.9107 4.7964C12.1384 5.19254 12.3036 5.6215 12.4004 6.0681C13.1894 6.22898 13.8906 6.67717 14.3679 7.32572C14.8451 7.97428 15.0646 8.77698 14.9836 9.57815C14.9025 10.3793 14.5269 11.1218 13.9294 11.6617C13.3319 12.2016 12.5553 12.5003 11.75 12.5H4.2071L1.7071 15L1 14.2936L14.2936 1L15 1.7071L11.9107 4.7964ZM5.20705 11.5H11.75C12.3311 11.5002 12.8898 11.2755 13.3088 10.8729C13.7279 10.4703 13.9748 9.92109 13.9979 9.34042C14.0209 8.75975 13.8183 8.19271 13.4324 7.75816C13.0466 7.32362 12.5075 7.05532 11.9282 7.0095L11.5205 6.97755L11.4712 6.57155C11.4259 6.21282 11.3246 5.86343 11.1709 5.53615L5.20705 11.5ZM2.86386 11.0089L2.14821 11.7244C1.68309 11.3307 1.33827 10.8139 1.15322 10.2333C0.968169 9.65269 0.950378 9.03169 1.10188 8.44143C1.25338 7.85117 1.56806 7.31551 2.00987 6.89579C2.45167 6.47606 3.00276 6.18925 3.60001 6.06819C3.75276 5.3419 4.08306 4.66477 4.56139 4.09729C5.03971 3.52981 5.65117 3.08966 6.34112 2.81617C7.03107 2.54268 7.77802 2.44437 8.51524 2.53002C9.25246 2.61567 9.95698 2.88261 10.5659 3.30699L9.84431 4.02839C9.34581 3.71782 8.77705 3.53796 8.19063 3.50542C7.60421 3.47288 7.01905 3.58872 6.48925 3.84223C5.95946 4.09574 5.50213 4.47874 5.15955 4.9558C4.81698 5.43287 4.60022 5.98861 4.52931 6.57164L4.47976 6.97764L4.07201 7.00959C3.62102 7.04326 3.19081 7.21272 2.83803 7.49567C2.48524 7.77861 2.22641 8.16177 2.09563 8.59468C1.96485 9.02759 1.96825 9.48997 2.10538 9.92091C2.24251 10.3519 2.50694 10.7312 2.86386 11.0089Z" fill="black"/>
</svg>
