<svg width="16" height="16" viewBox="0 0 16 16" fill="none" xmlns="http://www.w3.org/2000/svg">
<path fill-rule="evenodd" clip-rule="evenodd" d="M10.5 7.99997H11.5C12.145 8.00023 12.7652 7.75118 13.2309 7.30486C13.6965 6.85855 13.9717 6.24951 13.9988 5.60506C14.0259 4.96061 13.8029 4.33061 13.3764 3.84676C12.9498 3.3629 12.3528 3.06264 11.71 3.00872C11.4307 2.31191 10.9608 1.70789 10.354 1.26586C9.74725 0.823826 9.02824 0.561674 8.27937 0.509441C7.5305 0.457208 6.78205 0.617006 6.11981 0.970526C5.45757 1.32405 4.90832 1.85698 4.535 2.50827C3.82617 2.56346 3.16626 2.89104 2.69373 3.42228C2.2212 3.95351 1.97278 4.64711 2.0006 5.35755C2.02841 6.06798 2.33029 6.74004 2.84291 7.23271C3.35552 7.72537 4.03902 8.00036 4.75 7.99997H5.5V6.99997H4.75C4.28576 7.00308 3.83931 6.82164 3.50885 6.49558C3.17838 6.16951 2.99098 5.72553 2.98787 5.26129C2.98476 4.79706 3.1662 4.3506 3.49226 4.02014C3.81833 3.68968 4.26231 3.50228 4.72655 3.49917L5.1477 3.52192L5.2893 3.22222C5.54796 2.67157 5.96811 2.2127 6.49388 1.90662C7.01966 1.60055 7.62615 1.46177 8.2327 1.50875C8.83926 1.55572 9.41715 1.78622 9.88954 2.1696C10.3619 2.55297 10.7064 3.07106 10.8772 3.65497L10.9905 4.04172L11.3923 4.01312C11.4231 4.01092 11.4531 4.00717 11.5 3.99997C11.8978 3.99997 12.2794 4.158 12.5607 4.43931C12.842 4.72061 13 5.10214 13 5.49997C13 5.89779 12.842 6.27932 12.5607 6.56063C12.2794 6.84193 11.8978 6.99997 11.5 6.99997H10.5V7.99997ZM8.5 13.0835V8.91597L9.793 10.207L10.5 9.49997L8 6.99997L5.5 9.49997L6.2065 10.2075L7.5 8.91597V13.0835L6.2065 11.792L5.5 12.5L8 15L10.5 12.5L9.793 11.793L8.5 13.0835ZM1 14H5.5V15H1V14ZM10.5 14H15V15H10.5V14Z" fill="black"/>
</svg>
