<svg width="16" height="16" viewBox="0 0 16 16" fill="none" xmlns="http://www.w3.org/2000/svg">
<path d="M15.0003 7.7503C14.9967 7.00246 14.7366 6.2785 14.2635 5.69937C13.7903 5.12024 13.1328 4.72101 12.4007 4.5684C12.1876 3.55925 11.6341 2.65401 10.833 2.00439C10.0319 1.35476 9.0319 1.00024 8.00051 1.00024C6.96912 1.00024 5.96907 1.35476 5.16797 2.00439C4.36687 2.65401 3.81341 3.55925 3.60036 4.5684C2.86817 4.72091 2.2105 5.12009 1.73727 5.69924C1.26404 6.27838 1.00391 7.0024 1.00036 7.7503C1.00071 8.55523 1.30186 9.33097 1.84471 9.9253C1.43482 10.3477 1.15863 10.8816 1.05073 11.4601C0.942817 12.0387 1.00798 12.6363 1.23806 13.178C1.46813 13.7197 1.8529 14.1816 2.34419 14.5057C2.83547 14.8298 3.41145 15.0017 4.00001 15H9.50001C9.98505 15.002 10.4633 14.8858 10.8934 14.6615C11.3235 14.4373 11.6925 14.1117 11.9686 13.7129C12.2447 13.3141 12.4196 12.8541 12.4782 12.3726C12.5367 11.8911 12.4772 11.4026 12.3047 10.9492C13.0585 10.8182 13.742 10.4257 14.235 9.8406C14.728 9.25553 14.9989 8.51538 15.0003 7.7503ZM9.50001 14H4.00001C3.49911 14.001 3.01614 13.8137 2.64694 13.4752C2.27774 13.1367 2.04929 12.6718 2.00692 12.1727C1.96455 11.6735 2.11136 11.1768 2.41822 10.7809C2.72508 10.385 3.16956 10.1189 3.66346 10.0354L3.99501 9.97905L4.06791 9.65095C4.20372 9.04081 4.54349 8.4952 5.03114 8.10416C5.51879 7.71313 6.12518 7.50002 6.75026 7.50002C7.37533 7.50002 7.98172 7.71313 8.46937 8.10416C8.95703 8.4952 9.29679 9.04081 9.43261 9.65095L9.50551 9.97905L9.83681 10.0354C10.3307 10.1189 10.7752 10.385 11.0821 10.7809C11.3889 11.1768 11.5357 11.6737 11.4933 12.1728C11.4509 12.6719 11.2224 13.1368 10.8532 13.4753C10.4839 13.8138 10.0009 14.0011 9.50001 14ZM11.75 10H11.7223C11.3484 9.58142 10.8638 9.27699 10.3244 9.12185C10.0849 8.36139 9.6092 7.69711 8.96635 7.22555C8.3235 6.754 7.54702 6.49974 6.74976 6.49974C5.9525 6.49974 5.17601 6.754 4.53316 7.22555C3.89031 7.69711 3.41459 8.36139 3.17516 9.12185C2.99731 9.17363 2.82465 9.2418 2.65941 9.3255C2.45106 9.11939 2.28553 8.8741 2.17237 8.60376C2.0592 8.33342 2.00062 8.04337 2.00001 7.7503C2.00259 7.18537 2.21679 6.64192 2.60036 6.22716C2.98393 5.81241 3.509 5.55645 4.07201 5.5098L4.47976 5.47785L4.52931 5.07185C4.63313 4.22439 5.04341 3.44419 5.68279 2.87836C6.32216 2.31253 7.14646 2.00017 8.00026 2.00017C8.85405 2.00017 9.67835 2.31253 10.3177 2.87836C10.9571 3.44419 11.3674 4.22439 11.4712 5.07185L11.5205 5.47785L11.9282 5.5098C12.5075 5.55561 13.0466 5.82392 13.4325 6.25846C13.8183 6.69301 14.0209 7.26005 13.9979 7.84071C13.9749 8.42138 13.7279 8.97058 13.3088 9.37319C12.8898 9.77579 12.3311 10.0005 11.75 10.0003V10Z" fill="black"/>
</svg>
