<svg width="16" height="16" viewBox="0 0 16 16" fill="none" xmlns="http://www.w3.org/2000/svg">
<path fill-rule="evenodd" clip-rule="evenodd" d="M2 15H8V14H2V2H14V8H15V2C14.9997 1.73488 14.8942 1.4807 14.7068 1.29323C14.5193 1.10576 14.2651 1.0003 14 1H2C1.73488 1.0003 1.4807 1.10576 1.29323 1.29323C1.10576 1.4807 1.0003 1.73488 1 2V14C1.0003 14.2651 1.10576 14.5193 1.29323 14.7068C1.4807 14.8942 1.73488 14.9997 2 15ZM8 11.5H5.5C5.23488 11.4997 4.9807 11.3942 4.79323 11.2068C4.60576 11.0193 4.5003 10.7651 4.5 10.5V5.5C4.5003 5.23488 4.60576 4.9807 4.79323 4.79323C4.9807 4.60576 5.23488 4.5003 5.5 4.5H10.5C10.7651 4.5003 11.0193 4.60576 11.2068 4.79323C11.3942 4.9807 11.4997 5.23488 11.5 5.5V8H10.5V5.5H5.5V10.5H8V11.5ZM14 15H11.5C11.2349 14.9997 10.9807 14.8942 10.7932 14.7068C10.6058 14.5193 10.5003 14.2651 10.5 14V11.5C10.5003 11.2349 10.6058 10.9807 10.7932 10.7932C10.9807 10.6058 11.2349 10.5003 11.5 10.5H14C14.2651 10.5003 14.5193 10.6058 14.7068 10.7932C14.8942 10.9807 14.9997 11.2349 15 11.5V14C14.9997 14.2651 14.8942 14.5193 14.7068 14.7068C14.5193 14.8942 14.2651 14.9997 14 15ZM11.5 11.5H11.4994L11.5 14H14V11.5H11.5Z" fill="black"/>
</svg>
