<svg width="16" height="16" viewBox="0 0 16 16" fill="none" xmlns="http://www.w3.org/2000/svg">
<path fill-rule="evenodd" clip-rule="evenodd" d="M8.00001 3.5C8.25354 3.49995 8.50644 3.52508 8.75501 3.575C9.54049 3.72544 10.2628 4.10788 10.8288 4.67295C11.3948 5.23801 11.7783 5.95976 11.93 6.745L12.06 7.42L12.735 7.54C13.4168 7.65726 14.0293 8.02716 14.4505 8.57595C14.8716 9.12474 15.0705 9.8121 15.0074 10.501C14.9443 11.1899 14.6239 11.8297 14.1101 12.2929C13.5963 12.756 12.9267 13.0085 12.235 13H3.75001C3.05828 13.0085 2.38876 12.756 1.87492 12.2929C1.36108 11.8297 1.04067 11.1899 0.977586 10.501C0.914501 9.8121 1.11337 9.12474 1.53454 8.57595C1.95571 8.02716 2.56824 7.65726 3.25001 7.54L3.92001 7.42L4.05001 6.745C4.22621 5.82815 4.71759 5.00183 5.43899 4.40918C6.1604 3.81653 7.06639 3.49489 8.00001 3.5ZM8.00001 2.5C6.83631 2.49904 5.70873 2.904 4.81155 3.64511C3.91436 4.38622 3.30378 5.41706 3.08501 6.56C2.16417 6.72672 1.33895 7.23171 0.771418 7.97578C0.203888 8.71985 -0.0649316 9.64923 0.0177586 10.5814C0.100449 11.5135 0.528673 12.3811 1.21832 13.0136C1.90797 13.6462 2.8092 13.998 3.74501 14H12.245C13.1808 13.998 14.082 13.6462 14.7717 13.0136C15.4613 12.3811 15.8896 11.5135 15.9723 10.5814C16.0549 9.64923 15.7861 8.71985 15.2186 7.97578C14.6511 7.23171 13.8258 6.72672 12.905 6.56C12.7167 5.57691 12.2376 4.67297 11.5298 3.96518C10.822 3.25739 9.9181 2.77833 8.93501 2.59C8.62674 2.5315 8.31377 2.50137 8.00001 2.5ZM7.00001 12H5.50001C5.23479 12 4.98044 11.8946 4.7929 11.7071C4.60536 11.5196 4.50001 11.2652 4.50001 11V9.5C4.50001 9.23479 4.60536 8.98043 4.7929 8.7929C4.98044 8.60536 5.23479 8.5 5.50001 8.5H7.00001V9.5H5.50001V11H7.00001V12ZM10.5 6.5V7.5H9.50001V8.5H10.5V9.5H9.50001V12H8.50001V9.5H8.00001V8.5H8.50001V7.5C8.50001 7.23479 8.60536 6.98043 8.7929 6.7929C8.98044 6.60536 9.23479 6.5 9.50001 6.5H10.5Z" fill="black"/>
</svg>
