<svg width="16" height="16" viewBox="0 0 16 16" fill="none" xmlns="http://www.w3.org/2000/svg">
<path fill-rule="evenodd" clip-rule="evenodd" d="M8.24814 6.93194C8.32457 6.9765 8.41145 6.99999 8.49993 7H14.4999C14.5884 7.00004 14.6753 6.97659 14.7518 6.93205C14.8283 6.88751 14.8916 6.82347 14.9352 6.74647C14.9788 6.66948 15.0012 6.58228 15.0001 6.49379C14.999 6.4053 14.9744 6.31869 14.9289 6.2428L11.9289 1.2428C11.8845 1.16872 11.8217 1.1074 11.7465 1.06483C11.6714 1.02225 11.5865 0.999878 11.5001 0.999878C11.4137 0.999878 11.3288 1.02225 11.2536 1.06483C11.1785 1.1074 11.1156 1.16872 11.0712 1.2428L8.07122 6.2428C8.02572 6.31867 8.00115 6.40525 8.00004 6.49372C7.99893 6.58218 8.02131 6.66936 8.0649 6.74634C8.10848 6.82333 8.17172 6.88738 8.24814 6.93194ZM13.6169 6H9.38297L11.4999 2.4718L13.6169 6ZM14 11V8.5H15V11C15 11.2652 14.8946 11.5196 14.7071 11.7071C14.5196 11.8946 14.2652 12 14 12H10V14H12V15H4V14H6V12H2C1.73478 12 1.48043 11.8946 1.29289 11.7071C1.10536 11.5196 1 11.2652 1 11V3C1 2.73478 1.10536 2.48043 1.29289 2.29289C1.48043 2.10536 1.73478 2 2 2H7.5V3H2V11H14ZM7 12V14H9V12H7Z" fill="black"/>
</svg>
