<svg width="16" height="16" viewBox="0 0 16 16" fill="none" xmlns="http://www.w3.org/2000/svg">
<path fill-rule="evenodd" clip-rule="evenodd" d="M8.995 9.00005H9C9.1069 9.00004 9.21099 8.96576 9.29698 8.90225C9.38298 8.83873 9.44635 8.74933 9.4778 8.64715L11.019 3.63815L11.5257 5.15815C11.5588 5.25771 11.6225 5.34431 11.7076 5.40567C11.7928 5.46703 11.8951 5.50005 12 5.50005H15V4.50005H12.3603L11.4743 1.84195C11.4425 1.74155 11.3792 1.65408 11.2938 1.59249C11.2083 1.53091 11.1053 1.4985 11 1.50005C10.8934 1.50118 10.7898 1.53588 10.7041 1.59924C10.6183 1.66259 10.5547 1.75137 10.5223 1.85295L9.01785 6.7421L8.48075 4.86265C8.45089 4.75819 8.38782 4.66629 8.30108 4.60087C8.21434 4.53544 8.10865 4.50005 8 4.50005H5.5V5.50005H7.6228L8.51945 8.6374C8.54905 8.74103 8.61134 8.83232 8.69703 8.89767C8.78272 8.96302 8.88724 8.99893 8.995 9.00005ZM14 11V8H15V11C15 11.2652 14.8946 11.5196 14.7071 11.7071C14.5196 11.8946 14.2652 12 14 12H10V14H12V15H4V14H6V12H2C1.73478 12 1.48043 11.8946 1.29289 11.7071C1.10536 11.5196 1 11.2652 1 11V3C1 2.73478 1.10536 2.48043 1.29289 2.29289C1.48043 2.10536 1.73478 2 2 2H5.5V3H2V11H14ZM7 12V14H9V12H7Z" fill="black"/>
</svg>
