<svg width="16" height="16" viewBox="0 0 16 16" fill="none" xmlns="http://www.w3.org/2000/svg">
<g clip-path="url(#clip0_3_13559)">
<path fill-rule="evenodd" clip-rule="evenodd" d="M1.5 11.2129L6.51025 14.1358L6.00635 15L0.74805 11.9322C0.672557 11.8881 0.609932 11.825 0.566411 11.7492C0.52289 11.6733 0.499993 11.5874 0.5 11.5V4.50002C0.499967 4.41262 0.522855 4.32675 0.56638 4.25096C0.609906 4.17518 0.672546 4.11213 0.74805 4.06812L6.74805 0.568119C6.82452 0.523507 6.91147 0.5 7 0.5C7.08853 0.5 7.17548 0.523507 7.25195 0.568119L13.252 4.06812L12.748 4.93192L7 1.57887L1.5 4.78712V11.2129ZM10.5 7C11.0523 7 11.5 6.55228 11.5 6C11.5 5.44772 11.0523 5 10.5 5C9.94771 5 9.5 5.44772 9.5 6C9.5 6.55228 9.94771 7 10.5 7ZM5.88886 9.66294C6.21776 9.8827 6.60444 10 7 10C7.52996 9.99844 8.03776 9.78723 8.41249 9.41249C8.78723 9.03776 8.99844 8.52996 9 8C9 7.60444 8.8827 7.21776 8.66294 6.88886C8.44318 6.55996 8.13082 6.30362 7.76537 6.15224C7.39992 6.00087 6.99778 5.96126 6.60982 6.03843C6.22186 6.1156 5.86549 6.30608 5.58579 6.58579C5.30608 6.86549 5.1156 7.22186 5.03843 7.60982C4.96126 7.99778 5.00087 8.39992 5.15224 8.76537C5.30362 9.13082 5.55996 9.44318 5.88886 9.66294ZM6.44443 7.16853C6.60888 7.05865 6.80222 7 7 7C7.26498 7.00078 7.51888 7.10639 7.70625 7.29375C7.89362 7.48112 7.99922 7.73502 8 8C8 8.19778 7.94135 8.39112 7.83147 8.55557C7.72159 8.72002 7.56541 8.84819 7.38268 8.92388C7.19996 8.99957 6.99889 9.01937 6.80491 8.98079C6.61093 8.9422 6.43275 8.84696 6.29289 8.70711C6.15304 8.56726 6.0578 8.38907 6.01922 8.19509C5.98063 8.00111 6.00043 7.80004 6.07612 7.61732C6.15181 7.43459 6.27998 7.27841 6.44443 7.16853ZM3.5 11C4.05228 11 4.5 10.5523 4.5 10C4.5 9.44771 4.05228 9 3.5 9C2.94772 9 2.5 9.44771 2.5 10C2.5 10.5523 2.94772 11 3.5 11ZM16 12H14.9494C14.885 11.687 14.7607 11.3894 14.5835 11.1236L15.3285 10.3785L14.6215 9.67155L13.8765 10.4165C13.6106 10.2393 13.313 10.115 13 10.0506V9H12V10.0506C11.687 10.115 11.3894 10.2393 11.1236 10.4165L10.3785 9.6715L9.67155 10.3785L10.4165 11.1235C10.2393 11.3894 10.115 11.687 10.0506 12H9V13H10.0506C10.115 13.313 10.2393 13.6106 10.4165 13.8764L9.6715 14.6215L10.3785 15.3285L11.1235 14.5835C11.3894 14.7607 11.687 14.885 12 14.9494V16H13V14.9494C13.313 14.885 13.6106 14.7607 13.8764 14.5835L14.6215 15.3285L15.3285 14.6215L14.5835 13.8765C14.7607 13.6106 14.885 13.313 14.9494 13H16V12ZM12.5 14C12.2033 14 11.9133 13.912 11.6666 13.7472C11.42 13.5824 11.2277 13.3481 11.1142 13.074C11.0006 12.7999 10.9709 12.4983 11.0288 12.2074C11.0867 11.9164 11.2296 11.6491 11.4393 11.4393C11.6491 11.2296 11.9164 11.0867 12.2074 11.0288C12.4983 10.9709 12.7999 11.0006 13.074 11.1142C13.3481 11.2277 13.5824 11.42 13.7472 11.6666C13.912 11.9133 14 12.2033 14 12.5C13.9996 12.8977 13.8414 13.279 13.5602 13.5602C13.279 13.8414 12.8977 13.9996 12.5 14Z" fill="black"/>
</g>
<defs>
<clipPath id="clip0_3_13559">
<rect width="16" height="16" fill="white"/>
</clipPath>
</defs>
</svg>
