<svg width="16" height="16" viewBox="0 0 16 16" fill="none" xmlns="http://www.w3.org/2000/svg">
<path fill-rule="evenodd" clip-rule="evenodd" d="M10.5 4.46489L6.62 3.42989V3.41989C6.36434 3.35182 6.14607 3.18521 6.013 2.95654C5.87992 2.72788 5.84289 2.4558 5.91 2.19989L6.17 1.23489C6.23909 0.979041 6.40692 0.761082 6.63661 0.628893C6.8663 0.496703 7.13907 0.461094 7.395 0.529888L11.295 1.56489C11.5508 1.63398 11.7688 1.80181 11.901 2.0315C12.0332 2.26119 12.0688 2.53396 12 2.78989L11.725 3.75989C11.6676 3.97298 11.5414 4.1611 11.3659 4.29495C11.1905 4.4288 10.9757 4.50086 10.755 4.49989C10.6689 4.49806 10.5834 4.48632 10.5 4.46489ZM11 2.53489L7.12 1.49989L6.88 2.46489L10.74 3.49989L11 2.53489ZM10 8.5V7.5C10 7.23478 9.89464 6.98043 9.70711 6.79289C9.51957 6.60536 9.26522 6.5 9 6.5H5C4.73478 6.5 4.48043 6.60536 4.29289 6.79289C4.10536 6.98043 4 7.23478 4 7.5V8.5C4 8.76522 4.10536 9.01957 4.29289 9.20711C4.48043 9.39464 4.73478 9.5 5 9.5H9C9.26522 9.5 9.51957 9.39464 9.70711 9.20711C9.89464 9.01957 10 8.76522 10 8.5ZM5 7.5H9V8.5H5V7.5ZM11.71 12.2398C11.6418 11.9864 11.4768 11.7699 11.2504 11.637C11.024 11.5042 10.7545 11.4657 10.5 11.5298L6.635 12.5648C6.37934 12.6329 6.16107 12.7995 6.028 13.0282C5.89492 13.2568 5.85789 13.5289 5.925 13.7848L6.185 14.7498C6.23961 14.9615 6.36207 15.1494 6.53364 15.2849C6.70521 15.4203 6.91644 15.4958 7.135 15.4998C7.22252 15.4958 7.30952 15.4841 7.395 15.4648L11.26 14.4298C11.5158 14.3607 11.7338 14.1929 11.866 13.9632C11.9982 13.7335 12.0338 13.4607 11.965 13.2048L11.71 12.2398ZM7.135 14.4998L6.88 13.5298L10.74 12.4998L11 13.4598L7.135 14.4998ZM8 10.5H7V11.5H8V10.5ZM7 4.5H8V5.5H7V4.5Z" fill="black"/>
</svg>
