<svg width="16" height="16" viewBox="0 0 16 16" fill="none" xmlns="http://www.w3.org/2000/svg">
<path fill-rule="evenodd" clip-rule="evenodd" d="M2 1H1V3H2V1ZM2 4H1V8H2V4ZM3 4H4V8H3V4ZM9.70705 15H7.5V12.7929L10.0169 10.276C10.0057 10.1845 10.0001 10.0923 10 10C9.99968 9.49372 10.1531 8.99925 10.44 8.58205C10.7268 8.16485 11.1336 7.84457 11.6065 7.66361C12.0793 7.48265 12.596 7.44953 13.0881 7.56863C13.5802 7.68773 14.0245 7.95344 14.3623 8.3306C14.7001 8.70776 14.9154 9.17859 14.9797 9.68079C15.0441 10.183 14.9544 10.6929 14.7226 11.143C14.4908 11.5932 14.1278 11.9623 13.6816 12.2016C13.2354 12.4409 12.7271 12.5391 12.2239 12.4832L9.70705 15ZM8.5 14H9.29295L11.896 11.3969L12.1657 11.4588C12.4872 11.5354 12.8249 11.5049 13.1274 11.3721C13.43 11.2393 13.681 11.0113 13.8422 10.7229C14.0034 10.4344 14.066 10.1012 14.0206 9.77392C13.9752 9.44662 13.8241 9.14308 13.5905 8.90943C13.3568 8.67578 13.0533 8.52479 12.7259 8.47939C12.3986 8.43399 12.0654 8.49667 11.777 8.6579C11.4886 8.81913 11.2606 9.0701 11.1278 9.37269C10.995 9.67528 10.9646 10.0129 11.0413 10.3344L11.1031 10.604L8.5 13.2072V14ZM12.5 10.5C12.7761 10.5 13 10.2761 13 10C13 9.72386 12.7761 9.5 12.5 9.5C12.2239 9.5 12 9.72386 12 10C12 10.2761 12.2239 10.5 12.5 10.5ZM9 4H10V7H9V4ZM7 8H6C5.73478 8 5.48043 7.89464 5.29289 7.70711C5.10536 7.51957 5 7.26522 5 7V5C5 4.73478 5.10536 4.48043 5.29289 4.29289C5.48043 4.10536 5.73478 4 6 4H7C7.26522 4 7.51957 4.10536 7.70711 4.29289C7.89464 4.48043 8 4.73478 8 5V7C8 7.26522 7.89464 7.51957 7.70711 7.70711C7.51957 7.89464 7.26522 8 7 8ZM6 7H7V5H6V7ZM1 9H2V13H1V9ZM8 9H7V11H8V9ZM4 13H5C5.26522 13 5.51957 12.8946 5.70711 12.7071C5.89464 12.5196 6 12.2652 6 12V10C6 9.73478 5.89464 9.48043 5.70711 9.29289C5.51957 9.10536 5.26522 9 5 9H4C3.73478 9 3.48043 9.10536 3.29289 9.29289C3.10536 9.48043 3 9.73478 3 10V12C3 12.2652 3.10536 12.5196 3.29289 12.7071C3.48043 12.8946 3.73478 13 4 13ZM5 12H4V10H5V12ZM7 1H8V3H7V1ZM10 1H9V3H10V1ZM4 3H5C5.26522 3 5.51957 2.89464 5.70711 2.70711C5.89464 2.51957 6 2.26522 6 2V1H5V2H4V1H3V2C3 2.26522 3.10536 2.51957 3.29289 2.70711C3.48043 2.89464 3.73478 3 4 3Z" fill="black"/>
</svg>
