<svg width="16" height="16" viewBox="0 0 16 16" fill="none" xmlns="http://www.w3.org/2000/svg">
<path fill-rule="evenodd" clip-rule="evenodd" d="M2.29498 4.29L3.58498 3L2.28998 1.705L2.99998 1L4.99998 3L2.99998 5L2.29498 4.29ZM14 2.5H6.99998V3.5H14V2.5ZM2.29498 9.29L3.58498 8L2.28998 6.705L2.99998 6L4.99998 8L2.99998 10L2.29498 9.29ZM14 7.5H6.99998V8.5H14V7.5ZM2.29498 14.29L3.58498 13L2.28998 11.705L2.99998 11L4.99998 13L2.99998 15L2.29498 14.29ZM6.99998 12.5H14V13.5H6.99998V12.5Z" fill="black"/>
</svg>
