<svg width="16" height="16" viewBox="0 0 16 16" fill="none" xmlns="http://www.w3.org/2000/svg">
<path fill-rule="evenodd" clip-rule="evenodd" d="M5.50823 1.45326C6.38892 1.11779 7.32828 0.96361 8.27 0.99996C10.0317 1.07251 11.7016 1.80485 12.9484 3.05159C14.1951 4.29833 14.9275 5.9683 15 7.72996C15.0364 8.67168 14.8822 9.61104 14.5467 10.4917C14.2112 11.3724 13.7014 12.1763 13.0477 12.8552C12.394 13.5341 11.61 14.074 10.7427 14.4425C9.87528 14.8111 8.94242 15.0007 8 15C7.60218 15 7.22065 14.8419 6.93934 14.5606C6.65804 14.2793 6.5 13.8978 6.5 13.5V11.62C6.50045 11.389 6.44759 11.1611 6.34551 10.954C6.24344 10.7469 6.09492 10.5661 5.91153 10.4257C5.72814 10.2854 5.51482 10.1893 5.2882 10.145C5.06158 10.1006 4.82777 10.1091 4.605 10.17L4.045 10.325C3.68744 10.4226 3.31217 10.4365 2.94837 10.3655C2.58457 10.2945 2.24205 10.1405 1.94745 9.91559C1.65285 9.69065 1.4141 9.40079 1.24977 9.06854C1.08545 8.73629 0.999977 8.37062 1 7.99996C0.999301 7.05754 1.18891 6.12468 1.55745 5.25731C1.926 4.38994 2.4659 3.60592 3.14477 2.95225C3.82365 2.29859 4.62754 1.78873 5.50823 1.45326ZM10.352 13.5216C11.0954 13.2044 11.7667 12.7395 12.325 12.155V12.16C12.8884 11.5798 13.3276 10.8908 13.6156 10.1351C13.9036 9.37945 14.0344 8.57294 14 7.76496C13.9217 6.26136 13.2892 4.84008 12.2245 3.77544C11.1599 2.71079 9.7386 2.07827 8.235 1.99996C7.42752 1.96831 6.62196 2.1001 5.86667 2.38743C5.11137 2.67475 4.4219 3.11169 3.83962 3.67202C3.25733 4.23236 2.79424 4.90455 2.47813 5.64825C2.16201 6.39196 1.99938 7.19186 2 7.99996C1.99953 8.2165 2.04894 8.43024 2.1444 8.62461C2.23986 8.81897 2.37881 8.98874 2.55046 9.12074C2.72211 9.25274 2.92186 9.34344 3.13422 9.38579C3.34658 9.42814 3.56584 9.42101 3.775 9.36496L4.335 9.20996C4.5517 9.15062 4.77533 9.12036 5 9.11996C5.66304 9.11996 6.29893 9.38335 6.76777 9.85219C7.23661 10.321 7.5 10.9569 7.5 11.62V13.5C7.5 13.6326 7.55268 13.7597 7.64645 13.8535C7.74022 13.9473 7.86739 14 8 14C8.8083 14.0015 9.60849 13.8388 10.352 13.5216ZM9 4.49996C9 5.05225 8.55228 5.49996 8 5.49996C7.44772 5.49996 7 5.05225 7 4.49996C7 3.94768 7.44772 3.49996 8 3.49996C8.55228 3.49996 9 3.94768 9 4.49996ZM6 5.99996C6 6.55225 5.55228 6.99996 5 6.99996C4.44772 6.99996 4 6.55225 4 5.99996C4 5.44768 4.44772 4.99996 5 4.99996C5.55228 4.99996 6 5.44768 6 5.99996ZM11 6.99996C11.5523 6.99996 12 6.55225 12 5.99996C12 5.44768 11.5523 4.99996 11 4.99996C10.4477 4.99996 10 5.44768 10 5.99996C10 6.55225 10.4477 6.99996 11 6.99996ZM12.5 8.99996C12.5 9.55225 12.0523 9.99996 11.5 9.99996C10.9477 9.99996 10.5 9.55225 10.5 8.99996C10.5 8.44768 10.9477 7.99996 11.5 7.99996C12.0523 7.99996 12.5 8.44768 12.5 8.99996ZM9.5 12.5C10.0523 12.5 10.5 12.0522 10.5 11.5C10.5 10.9477 10.0523 10.5 9.5 10.5C8.94772 10.5 8.5 10.9477 8.5 11.5C8.5 12.0522 8.94772 12.5 9.5 12.5Z" fill="black"/>
</svg>
