<svg width="16" height="16" viewBox="0 0 16 16" fill="none" xmlns="http://www.w3.org/2000/svg">
<path fill-rule="evenodd" clip-rule="evenodd" d="M8 4.5L10.793 1.707L10.086 1L8 3.086L5.914 1L5.207 1.707L8 4.5ZM14 15H11C10.7349 14.9997 10.4807 14.8943 10.2932 14.7068C10.1057 14.5193 10.0003 14.2651 10 14V5C10.0003 4.73487 10.1057 4.48068 10.2932 4.2932C10.4807 4.10572 10.7349 4.00028 11 4H14C14.2651 4.00028 14.5193 4.10572 14.7068 4.2932C14.8943 4.48068 14.9997 4.73487 15 5V14C14.9997 14.2651 14.8943 14.5193 14.7068 14.7068C14.5193 14.8943 14.2651 14.9997 14 15ZM11 5V14H14V5H11ZM2 15H5C5.26513 14.9997 5.51932 14.8943 5.7068 14.7068C5.89428 14.5193 5.99972 14.2651 6 14V5C5.99972 4.73487 5.89428 4.48068 5.7068 4.2932C5.51932 4.10572 5.26513 4.00028 5 4H2C1.73487 4.00028 1.48068 4.10572 1.2932 4.2932C1.10572 4.48068 1.00028 4.73487 1 5V14C1.00028 14.2651 1.10572 14.5193 1.2932 14.7068C1.48068 14.8943 1.73487 14.9997 2 15ZM2 14V5H5V14H2Z" fill="black"/>
</svg>
