<svg width="16" height="16" viewBox="0 0 16 16" fill="none" xmlns="http://www.w3.org/2000/svg">
<path fill-rule="evenodd" clip-rule="evenodd" d="M7 4.1L8.5 3V6L7 4.9V6C6.99968 6.26512 6.89422 6.51929 6.70676 6.70676C6.51929 6.89422 6.26512 6.99968 6 7H2C1.73488 6.99968 1.48071 6.89422 1.29324 6.70676C1.10578 6.51929 1.00032 6.26512 1 6V3C1.00032 2.73488 1.10578 2.48071 1.29324 2.29324C1.48071 2.10578 1.73488 2.00032 2 2H6C6.26512 2.00032 6.51929 2.10578 6.70676 2.29324C6.89422 2.48071 6.99968 2.73488 7 3V4.1ZM2 3V6H6V3H2ZM15 2.5H10.5V3.5H15V2.5ZM10.5 4.5H14V5.5H10.5V4.5ZM4.33346 12.0543L4.76416 11.6236C4.82183 11.5659 4.89514 11.5264 4.97503 11.51C5.05491 11.4937 5.13785 11.5011 5.21356 11.5314L5.73821 11.7414C5.81549 11.7723 5.88175 11.8256 5.92843 11.8946C5.9751 11.9635 6.00007 12.0448 6.00011 12.1281V13.0822C6.00024 13.1389 5.98879 13.195 5.96648 13.2471C5.94416 13.2993 5.91143 13.3463 5.87031 13.3853C5.82918 13.4244 5.78052 13.4546 5.7273 13.4742C5.67408 13.4938 5.61743 13.5023 5.56081 13.4992C1.88351 13.2703 1.14081 10.1561 1.00291 8.96305C0.996237 8.90474 1.00199 8.84567 1.01978 8.78974C1.03758 8.7338 1.06702 8.68227 1.10616 8.63853C1.1453 8.59479 1.19325 8.55983 1.24687 8.53596C1.30049 8.51208 1.35856 8.49983 1.41726 8.5H2.35436C2.43762 8.50001 2.51898 8.52497 2.58793 8.57165C2.65688 8.61833 2.71027 8.6846 2.74121 8.7619L2.95121 9.28655C2.9815 9.36227 2.98891 9.44521 2.97251 9.52509C2.95612 9.60498 2.91663 9.6783 2.85896 9.73595L2.42826 10.1667C2.50317 10.6433 2.72842 11.0835 3.07115 11.4231C3.41389 11.7626 3.85616 11.9838 4.33346 12.0543ZM14 8.5H9C8.73489 8.50033 8.48072 8.60579 8.29326 8.79326C8.10579 8.98072 8.00033 9.23489 8 9.5V12.5C8.00033 12.7651 8.10579 13.0193 8.29326 13.2067C8.48072 13.3942 8.73489 13.4997 9 13.5H11V12.5H9V9.5H14V12.5H12.7324L11.4355 14.4453L12.2676 15L13.2676 13.5H14C14.2651 13.4997 14.5193 13.3942 14.7067 13.2067C14.8942 13.0193 14.9997 12.7651 15 12.5V9.5C14.9997 9.23489 14.8942 8.98072 14.7067 8.79326C14.5193 8.60579 14.2651 8.50033 14 8.5Z" fill="black"/>
</svg>
