<svg width="16" height="16" viewBox="0 0 16 16" fill="none" xmlns="http://www.w3.org/2000/svg">
<path d="M15 7.50005H10.955C10.8378 6.80105 10.4766 6.16623 9.93558 5.70837C9.39456 5.25052 8.70876 4.99927 8 4.99927C7.29124 4.99927 6.60543 5.25052 6.06442 5.70837C5.5234 6.16623 5.1622 6.80105 5.045 7.50005H1V8.50005H5.045C5.1622 9.19905 5.5234 9.83387 6.06442 10.2917C6.60543 10.7496 7.29124 11.0008 8 11.0008C8.70876 11.0008 9.39456 10.7496 9.93558 10.2917C10.4766 9.83387 10.8378 9.19905 10.955 8.50005H15V7.50005ZM8 10C7.60444 10 7.21776 9.88275 6.88886 9.66299C6.55996 9.44323 6.30362 9.13087 6.15224 8.76542C6.00087 8.39996 5.96126 7.99783 6.03843 7.60987C6.1156 7.22191 6.30608 6.86554 6.58579 6.58584C6.86549 6.30613 7.22186 6.11565 7.60982 6.03848C7.99778 5.96131 8.39991 6.00091 8.76537 6.15229C9.13082 6.30367 9.44318 6.56001 9.66294 6.88891C9.8827 7.21781 10 7.60449 10 8.00005C9.9994 8.5303 9.7885 9.03866 9.41356 9.41361C9.03861 9.78855 8.53025 9.99945 8 10Z" fill="black"/>
</svg>
