<svg width="16" height="16" viewBox="0 0 16 16" fill="none" xmlns="http://www.w3.org/2000/svg">
<path d="M10.4425 9.73557C10.805 9.22947 11 8.62255 11 8.00002C11 7.37748 10.805 6.77057 10.4425 6.26447L11.5 5.20707L12.1465 5.85352C12.1929 5.89996 12.248 5.9368 12.3087 5.96194C12.3693 5.98708 12.4343 6.00001 12.5 6.00001C12.5656 6.00001 12.6307 5.98708 12.6913 5.96194C12.752 5.9368 12.8071 5.89996 12.8535 5.85352L14.8535 3.85352C14.8999 3.80711 14.9368 3.752 14.9619 3.69135C14.9871 3.63069 15 3.56568 15 3.50002C15 3.43436 14.9871 3.36934 14.9619 3.30869C14.9368 3.24803 14.8999 3.19292 14.8535 3.14652L12.8535 1.14652C12.8071 1.10007 12.752 1.06322 12.6913 1.03808C12.6307 1.01294 12.5656 1 12.5 1C12.4343 1 12.3693 1.01294 12.3087 1.03808C12.248 1.06322 12.1929 1.10007 12.1465 1.14652L10.1465 3.14652C10.1 3.19292 10.0632 3.24803 10.038 3.30869C10.0129 3.36934 9.99997 3.43436 9.99997 3.50002C9.99997 3.56568 10.0129 3.63069 10.038 3.69135C10.0632 3.752 10.1 3.80711 10.1465 3.85352L10.7929 4.50002L9.73554 5.55747C9.22943 5.19496 8.62252 5.00002 7.99999 5.00002C7.37745 5.00002 6.77054 5.19496 6.26444 5.55747L4.99999 4.29297V1.00002H0.999987V5.00002H4.29294L5.55744 6.26447C5.19493 6.77057 4.99999 7.37748 4.99999 8.00002C4.99999 8.62255 5.19493 9.22947 5.55744 9.73557L4.49999 10.793L3.85349 10.1465C3.80708 10.1001 3.75197 10.0632 3.69132 10.0381C3.63066 10.0129 3.56565 10 3.49999 10C3.43433 10 3.36931 10.0129 3.30866 10.0381C3.248 10.0632 3.19289 10.1001 3.14649 10.1465L1.14649 12.1465C1.10004 12.1929 1.06319 12.248 1.03805 12.3087C1.01291 12.3693 0.999969 12.4344 0.999969 12.5C0.999969 12.5657 1.01291 12.6307 1.03805 12.6913C1.06319 12.752 1.10004 12.8071 1.14649 12.8535L3.14649 14.8535C3.1929 14.9 3.24801 14.9368 3.30866 14.9619C3.36932 14.9871 3.43433 15 3.49999 15C3.56564 15 3.63066 14.9871 3.69131 14.9619C3.75197 14.9368 3.80708 14.9 3.85349 14.8535L5.85349 12.8535C5.89994 12.8071 5.93678 12.752 5.96192 12.6913C5.98706 12.6307 6 12.5657 6 12.5C6 12.4344 5.98706 12.3693 5.96192 12.3087C5.93678 12.248 5.89994 12.1929 5.85349 12.1465L5.20704 11.5L6.26444 10.4426C6.77054 10.8051 7.37745 11 7.99999 11C8.62252 11 9.22943 10.8051 9.73554 10.4426L11 11.7071V15H15V11H11.707L10.4425 9.73557ZM12.5 2.20707L13.7929 3.50002L12.5 4.79297L11.207 3.50002L12.5 2.20707ZM3.49999 13.793L2.20704 12.5L3.49999 11.2071L4.79294 12.5L3.49999 13.793ZM3.99999 4.00002H1.99999V2.00002H3.99999V4.00002ZM5.99999 8.00002C5.99999 7.60445 6.11729 7.21778 6.33705 6.88888C6.55681 6.55998 6.86917 6.30363 7.23462 6.15226C7.60007 6.00088 8.00221 5.96128 8.39017 6.03845C8.77813 6.11562 9.13449 6.3061 9.4142 6.5858C9.6939 6.86551 9.88439 7.22188 9.96156 7.60984C10.0387 7.9978 9.99912 8.39993 9.84775 8.76538C9.69637 9.13084 9.44003 9.44319 9.11113 9.66296C8.78223 9.88272 8.39555 10 7.99999 10C7.46974 9.99942 6.96138 9.78852 6.58643 9.41357C6.21149 9.03863 6.00058 8.53027 5.99999 8.00002ZM12 12H14V14H12V12Z" fill="black"/>
</svg>
