<svg width="16" height="16" viewBox="0 0 16 16" fill="none" xmlns="http://www.w3.org/2000/svg">
<path fill-rule="evenodd" clip-rule="evenodd" d="M11 14H14V10H15V15H1V2C1 1.73478 1.10536 1.48043 1.29289 1.29289C1.48043 1.10536 1.73478 1 2 1H10C10.2652 1 10.5196 1.10536 10.7071 1.29289C10.8946 1.48043 11 1.73478 11 2V3H10V2H2V14H10V10H11V14ZM4 4H5V6H4V4ZM4 7H5V9H4V7ZM8 4H7V6H8V4ZM7 7H8V9H7V7ZM5 10H4V12H5V10ZM7 10H8V12H7V10ZM9 7H13.085L11.795 8.295L12.5 9L15 6.5L12.5 4L11.795 4.705L13.085 6H9V7Z" fill="black"/>
</svg>
