<svg width="16" height="16" viewBox="0 0 16 16" fill="none" xmlns="http://www.w3.org/2000/svg">
<path fill-rule="evenodd" clip-rule="evenodd" d="M14 14V13H15V15H1V2C1 1.73478 1.10536 1.48043 1.29289 1.29289C1.48043 1.10536 1.73478 1 2 1H10C10.2652 1 10.5196 1.10536 10.7071 1.29289C10.8946 1.48043 11 1.73478 11 2V3H10V2H2V14H14ZM9.5 6H13.585L12.295 7.295L13 8L15.5 5.5L13 3L12.295 3.705L13.585 5H9.5V6ZM5 4H4V6H5V4ZM5 7H4V9H5V7ZM7 4H8V6H7V4ZM8 7H7V9H8V7ZM4 10H5V12H4V10ZM8 10H7V12H8V10ZM10.915 11H15V10H10.915L12.205 8.705L11.5 8L9 10.5L11.5 13L12.205 12.295L10.915 11Z" fill="black"/>
</svg>
