<svg width="16" height="16" viewBox="0 0 16 16" fill="none" xmlns="http://www.w3.org/2000/svg">
<path fill-rule="evenodd" clip-rule="evenodd" d="M4.2 10.9C3.51692 10.3877 2.9625 9.72336 2.58065 8.95965C2.1988 8.19595 2 7.35382 2 6.49998C2 5.64613 2.1988 4.80401 2.58065 4.0403C2.9625 3.2766 3.51692 2.61228 4.2 2.09998L4.8 2.89998C4.24112 3.31914 3.7875 3.86267 3.47508 4.48751C3.16265 5.11236 3 5.80137 3 6.49998C3 7.19858 3.16265 7.88759 3.47508 8.51244C3.7875 9.13729 4.24112 9.68081 4.8 10.1L4.2 10.9ZM5.665 9.10998C5.29755 8.78167 5.00355 8.37947 4.80227 7.9297C4.60098 7.47994 4.49693 6.99273 4.49693 6.49998C4.49693 6.00722 4.60098 5.52002 4.80227 5.07025C5.00355 4.62048 5.29755 4.21828 5.665 3.88998L6.335 4.63498C6.0723 4.86949 5.8621 5.15686 5.71818 5.47825C5.57426 5.79965 5.49987 6.14783 5.49987 6.49998C5.49987 6.85213 5.57426 7.2003 5.71818 7.5217C5.8621 7.8431 6.0723 8.13046 6.335 8.36498L5.665 9.10998ZM8.5 5.99998H7.5V15H8.5V5.99998ZM9.665 8.36498L10.335 9.10998C10.7025 8.78167 10.9964 8.37947 11.1977 7.9297C11.399 7.47994 11.5031 6.99273 11.5031 6.49998C11.5031 6.00722 11.399 5.52002 11.1977 5.07025C10.9964 4.62048 10.7025 4.21828 10.335 3.88998L9.665 4.63498C9.9277 4.86949 10.1379 5.15686 10.2818 5.47825C10.4257 5.79965 10.5001 6.14783 10.5001 6.49998C10.5001 6.85213 10.4257 7.2003 10.2818 7.5217C10.1379 7.8431 9.9277 8.13046 9.665 8.36498ZM11.2 10.1L11.8 10.9C12.4831 10.3877 13.0375 9.72336 13.4193 8.95965C13.8012 8.19595 14 7.35382 14 6.49998C14 5.64613 13.8012 4.80401 13.4193 4.0403C13.0375 3.2766 12.4831 2.61228 11.8 2.09998L11.2 2.89998C11.7589 3.31914 12.2125 3.86267 12.5249 4.48751C12.8373 5.11236 13 5.80137 13 6.49998C13 7.19858 12.8373 7.88759 12.5249 8.51244C12.2125 9.13729 11.7589 9.68081 11.2 10.1Z" fill="black"/>
</svg>
