<svg width="16" height="16" viewBox="0 0 16 16" fill="none" xmlns="http://www.w3.org/2000/svg">
<path fill-rule="evenodd" clip-rule="evenodd" d="M14 1H15V15H14V1ZM9.29295 5.70705L10 5L13 8L10 11L9.29295 10.2929L11.086 8.5H5.94945C5.82554 9.10702 5.48066 9.64641 4.98166 10.0136C4.48266 10.3808 3.86509 10.5496 3.24869 10.4873C2.63229 10.4251 2.06096 10.1361 1.64548 9.67658C1.23 9.21701 0.999962 8.61954 0.999962 8C0.999962 7.38046 1.23 6.78299 1.64548 6.32342C2.06096 5.86385 2.63229 5.57493 3.24869 5.51266C3.86509 5.45039 4.48266 5.61921 4.98166 5.9864C5.48066 6.35359 5.82554 6.89298 5.94945 7.5H11.086L9.29295 5.70705ZM2.66665 9.2472C2.91332 9.41203 3.20333 9.5 3.5 9.5C3.89769 9.49956 4.27897 9.34139 4.56018 9.06018C4.84139 8.77897 4.99956 8.39769 5 8C5 7.70333 4.91203 7.41332 4.74721 7.16664C4.58238 6.91997 4.34812 6.72771 4.07403 6.61418C3.79994 6.50065 3.49834 6.47094 3.20737 6.52882C2.91639 6.5867 2.64912 6.72956 2.43934 6.93934C2.22956 7.14912 2.0867 7.41639 2.02882 7.70736C1.97095 7.99834 2.00065 8.29994 2.11418 8.57403C2.22771 8.84811 2.41997 9.08238 2.66665 9.2472Z" fill="black"/>
</svg>
