<svg width="16" height="16" viewBox="0 0 16 16" fill="none" xmlns="http://www.w3.org/2000/svg">
<path fill-rule="evenodd" clip-rule="evenodd" d="M9.40935 8.69595C9.9938 8.25795 10.7152 8 11.5 8C13.4297 8 15 9.57005 15 11.5C15 13.4299 13.4297 15 11.5 15C9.5703 15 8 13.4299 8 11.5C8 10.7151 8.26435 9.98745 8.7023 9.403L6.59365 7.2943C6.0092 7.73225 5.2848 8 4.5 8C2.5703 8 1 6.42995 1 4.5C1 2.57005 2.5703 1 4.5 1C6.4297 1 8 2.57005 8 4.5C8 5.28485 7.7387 6.0028 7.3007 6.58725L9.40935 8.69595ZM4.5 2C3.1216 2 2 3.1216 2 4.5C2 5.8784 3.1216 7 4.5 7C5.8784 7 7 5.8784 7 4.5C7 3.1216 5.8784 2 4.5 2ZM2 11V10H6V14H5V11.707L1.707 15L1 14.293L4.293 11H2Z" fill="black"/>
</svg>
