<svg width="16" height="16" viewBox="0 0 16 16" fill="none" xmlns="http://www.w3.org/2000/svg">
<path d="M11.5 8.00497C10.7467 8.00568 10.0137 8.24942 9.40999 8.69997L7.29999 6.58997C7.75586 5.99065 8.00185 5.25797 7.99999 4.50497C8.00197 3.71642 7.73759 2.95031 7.24973 2.3308C6.76186 1.71129 6.07908 1.27468 5.31205 1.09172C4.54502 0.90877 3.73868 0.990197 3.02371 1.32281C2.30874 1.65542 1.72703 2.21972 1.37287 2.92426C1.01871 3.6288 0.912843 4.4323 1.07243 5.20453C1.23201 5.97677 1.64769 6.67248 2.25211 7.17894C2.85652 7.68539 3.61425 7.97289 4.4025 7.99486C5.19074 8.01683 5.96331 7.77197 6.59499 7.29997L8.69999 9.40997C8.22812 10.0415 7.98326 10.8138 8.00508 11.6018C8.0269 12.3899 8.31412 13.1475 8.82021 13.7519C9.32631 14.3563 10.0216 14.7722 10.7936 14.9322C11.5655 15.0921 12.3688 14.9868 13.0735 14.6332C13.7781 14.2797 14.3427 13.6986 14.6758 12.9841C15.009 12.2696 15.0912 11.4636 14.9091 10.6966C14.727 9.92956 14.2913 9.24647 13.6726 8.75796C13.0539 8.26945 12.2883 8.00413 11.5 8.00497ZM1.99999 4.50497C1.99999 4.01052 2.14662 3.52717 2.42132 3.11604C2.69602 2.70492 3.08647 2.38449 3.54328 2.19527C4.0001 2.00605 4.50277 1.95654 4.98772 2.05301C5.47267 2.14947 5.91813 2.38757 6.26776 2.7372C6.61739 3.08683 6.85549 3.53229 6.95196 4.01724C7.04842 4.5022 6.99891 5.00486 6.80969 5.46168C6.62047 5.91849 6.30004 6.30894 5.88892 6.58364C5.4778 6.85835 4.99445 7.00497 4.49999 7.00497C3.83695 7.00497 3.20107 6.74158 2.73223 6.27274C2.26339 5.8039 1.99999 5.16801 1.99999 4.50497Z" fill="black"/>
</svg>
