<svg width="16" height="16" viewBox="0 0 16 16" fill="none" xmlns="http://www.w3.org/2000/svg">
<path d="M12 5L11.2929 5.70705L13.0859 7.5H5.94944C5.85052 7.02012 5.61317 6.57974 5.26671 6.23328C4.92025 5.88682 4.47987 5.64947 3.99999 5.55055V1H2.99999V5.55055C2.43543 5.66584 1.92803 5.9726 1.56363 6.41894C1.19922 6.86528 1.00018 7.4238 1.00018 8C1.00018 8.5762 1.19922 9.13472 1.56363 9.58106C1.92803 10.0274 2.43543 10.3342 2.99999 10.4494V15H3.99999V10.4494C4.47987 10.3505 4.92025 10.1132 5.26671 9.76672C5.61317 9.42026 5.85052 8.97988 5.94944 8.5H13.0859L11.2929 10.2929L12 11L15 8L12 5ZM3.49999 9.5C3.20332 9.5 2.91331 9.41203 2.66663 9.2472C2.41996 9.08238 2.2277 8.84811 2.11417 8.57403C2.00064 8.29994 1.97093 7.99834 2.02881 7.70736C2.08669 7.41639 2.22955 7.14912 2.43933 6.93934C2.64911 6.72956 2.91638 6.5867 3.20735 6.52882C3.49832 6.47094 3.79992 6.50065 4.07401 6.61418C4.3481 6.72771 4.58237 6.91997 4.74719 7.16664C4.91201 7.41332 4.99999 7.70333 4.99999 8C4.99955 8.39769 4.84138 8.77897 4.56017 9.06018C4.27896 9.34139 3.89768 9.49956 3.49999 9.5Z" fill="black"/>
</svg>
