<svg width="16" height="16" viewBox="0 0 16 16" fill="none" xmlns="http://www.w3.org/2000/svg">
<path d="M14 3.5H6.91404L8.70704 1.70705L7.99999 1L4.99999 4L7.99999 7L8.70704 6.29295L6.91404 4.5H14V10H5.94944C5.85052 9.52012 5.61317 9.07974 5.26671 8.73328C4.92025 8.38682 4.47987 8.14947 3.99999 8.05055V1H2.99999V8.05055C2.43543 8.16584 1.92803 8.4726 1.56363 8.91894C1.19922 9.36528 1.00018 9.9238 1.00018 10.5C1.00018 11.0762 1.19922 11.6347 1.56363 12.0811C1.92803 12.5274 2.43543 12.8342 2.99999 12.9494V15H3.99999V12.9494C4.47987 12.8505 4.92025 12.6132 5.26671 12.2667C5.61317 11.9203 5.85052 11.4799 5.94944 11H14C14.2651 10.9997 14.5193 10.8942 14.7068 10.7068C14.8942 10.5193 14.9997 10.2651 15 10V4.5C14.9997 4.23488 14.8942 3.9807 14.7068 3.79323C14.5193 3.60576 14.2651 3.5003 14 3.5ZM3.49999 12C3.20332 12 2.91331 11.912 2.66663 11.7472C2.41996 11.5824 2.2277 11.3481 2.11417 11.074C2.00064 10.7999 1.97093 10.4983 2.02881 10.2074C2.08669 9.91639 2.22955 9.64912 2.43933 9.43934C2.64911 9.22956 2.91638 9.0867 3.20735 9.02882C3.49832 8.97094 3.79992 9.00065 4.07401 9.11418C4.3481 9.22771 4.58237 9.41997 4.74719 9.66665C4.91201 9.91332 4.99999 10.2033 4.99999 10.5C4.99955 10.8977 4.84138 11.279 4.56017 11.5602C4.27896 11.8414 3.89768 11.9996 3.49999 12Z" fill="black"/>
</svg>
