<svg width="16" height="16" viewBox="0 0 16 16" fill="none" xmlns="http://www.w3.org/2000/svg">
<path fill-rule="evenodd" clip-rule="evenodd" d="M11 14H14V10H15V15H1V2C1 1.73478 1.10536 1.48043 1.29289 1.29289C1.48043 1.10536 1.73478 1 2 1H10C10.2652 1 10.5196 1.10536 10.7071 1.29289C10.8946 1.48043 11 1.73478 11 2V3H10V2H2V14H10V10H11V14ZM4 4H5V6H4V4ZM4 7H5V9H4V7ZM8 4H7V6H8V4ZM7 7H8V9H7V7ZM5 10H4V12H5V10ZM7 10H8V12H7V10ZM15 7H10.915L12.205 8.295L11.5 9L9 6.5L11.5 4L12.205 4.705L10.915 6H15V7Z" fill="black"/>
</svg>
