<svg width="16" height="16" viewBox="0 0 16 16" fill="none" xmlns="http://www.w3.org/2000/svg">
<path d="M15.95 7.75L13.1 2.75C12.95 2.6 12.8 2.5 12.65 2.5H3.35C3.2 2.5 3.05 2.6 2.95 2.75L0.1 7.75C0 7.85 0 7.9 0 8C0 8.1 0 8.15 0.05 8.25L2.9 13.25C3.05 13.4 3.2 13.5 3.35 13.5H12.6C12.8 13.5 12.95 13.4 13.05 13.25L15.9 8.25C16 8.15 16 8.1 16 8C16 7.9 16 7.85 15.95 7.75ZM8.9 7.5H4.9L6.9 4L8.9 7.5ZM7.75 3.5H11.75L9.75 7L7.75 3.5ZM8.9 8.5L6.9 12L4.9 8.5H8.9ZM9.75 9L11.75 12.5H7.75L9.75 9ZM10.6 8.5H14.6L12.6 12L10.6 8.5ZM10.6 7.5L12.6 4L14.6 7.5H10.6ZM3.65 3.5H6L3.7 7.5H1.35L3.65 3.5ZM3.65 12.5L1.35 8.5H3.7L6 12.5H3.65Z" fill="black"/>
</svg>
