<svg width="16" height="16" viewBox="0 0 16 16" fill="none" xmlns="http://www.w3.org/2000/svg">
<path fill-rule="evenodd" clip-rule="evenodd" d="M6.15 2.30009L5.85 1.35009C6.54068 1.10858 7.26838 0.990123 8 1.00009V2.00009C7.37106 1.99802 6.74606 2.09938 6.15 2.30009ZM3.85 2.3501C3.27651 2.7902 2.77107 3.31249 2.35 3.9001L3.15 4.5001C3.51724 3.99083 3.95494 3.53629 4.45 3.1501L3.85 2.3501ZM2.3 6.1501L1.35 5.8501C1.10849 6.54078 0.990031 7.26848 1 8.0001H2C1.99793 7.37116 2.09928 6.74615 2.3 6.1501ZM2.35 12.1499C1.91914 11.5547 1.5819 10.8971 1.35 10.1999L2.3 9.8999C2.50222 10.488 2.78852 11.0438 3.15 11.5499L2.35 12.1499ZM3.9 13.6501C4.49518 14.081 5.15279 14.4182 5.85 14.6501L6.15 13.7001C5.56186 13.4979 5.0061 13.2116 4.5 12.8501L3.9 13.6501ZM12.1 13.65C12.6889 13.2111 13.2111 12.6889 13.65 12.1L12.85 11.5C12.4782 12.0219 12.0219 12.4782 11.5 12.85L12.1 13.65ZM14.65 10.15L13.7 9.85C13.9007 9.25394 14.0021 8.62894 14 8H15C14.9853 8.72959 14.8675 9.45342 14.65 10.15ZM14.6 5.8001C14.3681 5.10289 14.0309 4.44528 13.6 3.8501L12.8 4.4501C13.1615 4.95619 13.4478 5.51196 13.65 6.1001L14.6 5.8001ZM10.1 1.2998C10.7972 1.53171 11.4548 1.86894 12.05 2.2998L11.45 3.0998C10.9439 2.73832 10.3881 2.45202 9.8 2.2498L10.1 1.2998ZM10.15 14.6502L9.85 13.7002C9.25394 13.9009 8.62894 14.0023 8 14.0002V15.0002C8.7267 14.9569 9.44709 14.8396 10.15 14.6502ZM5.22215 12.1573C6.0444 12.7068 7.0111 13 8 13C9.32562 12.9985 10.5965 12.4712 11.5339 11.5339C12.4712 10.5965 12.9985 9.32562 13 8C13 7.0111 12.7068 6.0444 12.1573 5.22215C11.6079 4.39991 10.8271 3.75904 9.91342 3.3806C8.99979 3.00217 7.99446 2.90315 7.02455 3.09608C6.05465 3.289 5.16373 3.76521 4.46447 4.46447C3.76521 5.16373 3.289 6.05465 3.09608 7.02455C2.90315 7.99446 3.00217 8.99979 3.3806 9.91342C3.75904 10.8271 4.39991 11.6079 5.22215 12.1573ZM5.77772 4.67412C6.43552 4.2346 7.20888 4 8 4C9.06049 4.00122 10.0772 4.42304 10.8271 5.17292C11.577 5.9228 11.9988 6.93951 12 8C12 8.79113 11.7654 9.56449 11.3259 10.2223C10.8864 10.8801 10.2616 11.3928 9.53074 11.6955C8.79983 11.9983 7.99557 12.0775 7.21964 11.9231C6.44372 11.7688 5.73098 11.3878 5.17157 10.8284C4.61216 10.269 4.2312 9.55629 4.07686 8.78036C3.92252 8.00444 4.00173 7.20017 4.30448 6.46927C4.60723 5.73836 5.11992 5.11365 5.77772 4.67412Z" fill="black"/>
</svg>
