<svg width="16" height="16" viewBox="0 0 16 16" fill="none" xmlns="http://www.w3.org/2000/svg">
<path d="M14.685 5.92C14.5508 5.48498 14.3732 5.06454 14.155 4.665C13.8323 4.07201 13.4266 3.52818 12.95 3.05C11.971 2.07111 10.7237 1.40449 9.36587 1.13445C8.00802 0.864415 6.6006 1.00308 5.32155 1.53291C4.04251 2.06275 2.9493 2.95996 2.18017 4.11109C1.41103 5.26221 1.0005 6.61556 1.0005 8C1.0005 9.38444 1.41103 10.7378 2.18017 11.8889C2.9493 13.04 4.04251 13.9373 5.32155 14.4671C6.6006 14.9969 8.00802 15.1356 9.36587 14.8656C10.7237 14.5955 11.971 13.9289 12.95 12.95C13.4266 12.4718 13.8323 11.928 14.155 11.335C14.3732 10.9355 14.5508 10.515 14.685 10.08C15.1066 8.72538 15.1066 7.27463 14.685 5.92ZM2 8C2 6.4087 2.63214 4.88258 3.75736 3.75736C4.88258 2.63214 6.4087 2 8 2V14C6.4087 14 4.88258 13.3679 3.75736 12.2426C2.63214 11.1174 2 9.5913 2 8Z" fill="black"/>
</svg>
