<svg width="16" height="16" viewBox="0 0 16 16" fill="none" xmlns="http://www.w3.org/2000/svg">
<path fill-rule="evenodd" clip-rule="evenodd" d="M5.8499 1.35009L6.1499 2.30009C6.74596 2.09938 7.37096 1.99802 7.9999 2.00009V1.00009C7.26828 0.990123 6.54059 1.10858 5.8499 1.35009ZM2.3499 3.9001C2.77097 3.31249 3.27641 2.7902 3.8499 2.3501L4.4499 3.1501C3.95485 3.53629 3.51714 3.99083 3.1499 4.5001L2.3499 3.9001ZM1.34991 5.8501L2.29991 6.1501C2.09919 6.74615 1.99784 7.37116 1.99991 8.0001H0.999907C0.989938 7.26848 1.1084 6.54078 1.34991 5.8501ZM13.65 12.1C13.2111 12.6889 12.6889 13.2111 12.1 13.65L11.5 12.85C12.0219 12.4782 12.4782 12.0219 12.85 11.5L13.65 12.1ZM13.7001 9.85L14.6501 10.15C14.8675 9.45342 14.9854 8.72959 15.0001 8H14.0001C14.0021 8.62894 13.9008 9.25394 13.7001 9.85ZM13.5999 3.8501C14.0308 4.44528 14.368 5.10289 14.5999 5.8001L13.6499 6.1001C13.4477 5.51196 13.1614 4.95619 12.7999 4.4501L13.5999 3.8501ZM12.0499 2.2998C11.4548 1.86894 10.7972 1.53171 10.0999 1.2998L9.79995 2.2498C10.3881 2.45202 10.9439 2.73832 11.4499 3.0998L12.0499 2.2998ZM9.85 13.7002L10.15 14.6502C9.44709 14.8396 8.7267 14.9569 8 15.0002V14.0002C8.62894 14.0023 9.25394 13.9009 9.85 13.7002ZM7.70116 12.1242C7.5044 11.5266 7.21446 10.9637 6.84206 10.4565L7.64871 9.86523C8.08317 10.4573 8.4214 11.1142 8.65091 11.8117L7.70116 12.1242ZM3.83663 8.28613C4.43563 8.47844 5.0004 8.76437 5.50998 9.13328L6.09593 8.32298C5.50098 7.89233 4.84162 7.55854 4.14233 7.33398L3.83663 8.28613Z" fill="black"/>
</svg>
