<svg width="16" height="16" viewBox="0 0 16 16" fill="none" xmlns="http://www.w3.org/2000/svg">
<path fill-rule="evenodd" clip-rule="evenodd" d="M9.5 5.5H14V1H9.5V5.5ZM13 4.5H10.5V2H13V4.5ZM8.5 3V6.5H12V11H4V3H8.5ZM7.5 4H5V6.5H7.5V4ZM7.5 7.5H5V10H7.5V7.5ZM8.5 10H11V7.5H8.5V10ZM14 10H13V11H14V14H2V11H3V10H2C1.73488 10.0003 1.48071 10.1058 1.29324 10.2932C1.10578 10.4807 1.00032 10.7349 1 11V14C1.00032 14.2651 1.10578 14.5193 1.29324 14.7068C1.48071 14.8942 1.73488 14.9997 2 15H14C14.2651 14.9997 14.5193 14.8942 14.7068 14.7068C14.8942 14.5193 14.9997 14.2651 15 14V11C14.9997 10.7349 14.8942 10.4807 14.7068 10.2932C14.5193 10.1058 14.2651 10.0003 14 10ZM4 12.5C4 12.7761 3.77614 13 3.5 13C3.22386 13 3 12.7761 3 12.5C3 12.2239 3.22386 12 3.5 12C3.77614 12 4 12.2239 4 12.5Z" fill="black"/>
</svg>
