<svg width="16" height="16" viewBox="0 0 16 16" fill="none" xmlns="http://www.w3.org/2000/svg">
<path fill-rule="evenodd" clip-rule="evenodd" d="M2.29323 13.7068C2.4807 13.8942 2.73488 13.9997 3 14H13C13.2651 13.9997 13.5193 13.8942 13.7068 13.7068C13.8942 13.5193 13.9997 13.2651 14 13V8H13V13H3V3H8V2H3C2.73488 2.0003 2.4807 2.10576 2.29323 2.29323C2.10576 2.4807 2.0003 2.73488 2 3V13C2.0003 13.2651 2.10576 13.5193 2.29323 13.7068ZM14 6H10V2H14V6ZM11 5H13V3H11V5ZM8.5 7.5V4.5H4.5V11.5H11.5V7.5H8.5ZM5.5 5.5H7.5V7.5H5.5V5.5ZM7.5 10.5H5.5V8.5H7.5V10.5ZM10.5 10.5H8.5V8.5H10.5V10.5Z" fill="black"/>
</svg>
