<svg width="16" height="16" viewBox="0 0 16 16" fill="none" xmlns="http://www.w3.org/2000/svg">
<path fill-rule="evenodd" clip-rule="evenodd" d="M6.1499 2.30009L5.8499 1.35009C6.54058 1.10858 7.26828 0.990123 7.9999 1.00009V2.00009C7.37096 1.99802 6.74596 2.09938 6.1499 2.30009ZM8 14.0002V15.0002C9.66768 15 11.2805 14.4045 12.5482 13.3209C13.8158 12.2372 14.655 10.7367 14.9147 9.08937C15.1744 7.44203 14.8375 5.75609 13.9647 4.33504C13.0919 2.91399 11.7405 1.85117 10.1538 1.33789L9.8462 2.28954C11.2062 2.72956 12.3645 3.64058 13.1126 4.85862C13.8606 6.07667 14.1493 7.52174 13.9267 8.93372C13.7041 10.3457 12.9848 11.6319 11.8983 12.5607C10.8118 13.4895 9.42942 14 8 14.0002ZM2.3499 3.9001C2.77097 3.31249 3.27641 2.7902 3.8499 2.3501L4.4499 3.1501C3.95484 3.53629 3.51714 3.99083 3.1499 4.5001L2.3499 3.9001ZM2.29991 6.1501L1.34991 5.8501C1.1084 6.54078 0.989939 7.26848 0.999909 8.0001H1.99991C1.99784 7.37116 2.09919 6.74615 2.29991 6.1501ZM7.70116 12.1242C7.5044 11.5266 7.21446 10.9637 6.84206 10.4565L7.64871 9.86523C8.08317 10.4573 8.4214 11.1142 8.65091 11.8117L7.70116 12.1242ZM3.83663 8.28613C4.43563 8.47844 5.0004 8.76437 5.50998 9.13328L6.09593 8.32298C5.50098 7.89233 4.84162 7.55854 4.14233 7.33398L3.83663 8.28613Z" fill="black"/>
</svg>
