<svg width="16" height="16" viewBox="0 0 16 16" fill="none" xmlns="http://www.w3.org/2000/svg">
<path fill-rule="evenodd" clip-rule="evenodd" d="M4.64645 13.8534C4.74021 13.9472 4.86739 13.9999 5 13.9999C5.088 13.9998 5.17443 13.9765 5.2505 13.9323L14.7505 8.43228C14.8263 8.38832 14.8892 8.32524 14.9329 8.24933C14.9766 8.17343 14.9996 8.08737 14.9996 7.99978C14.9996 7.91218 14.9766 7.82612 14.9329 7.75022C14.8892 7.67432 14.8263 7.61123 14.7505 7.56728L5.2505 2.06728C5.17451 2.02329 5.08827 2.00008 5.00046 2C4.91266 1.99992 4.82638 2.02296 4.7503 2.06681C4.67423 2.11066 4.61105 2.17377 4.56711 2.24979C4.52317 2.32582 4.50002 2.41207 4.5 2.49988V13.4999C4.5 13.6325 4.55268 13.7597 4.64645 13.8534ZM13.5 7.99988L5.5 12.6327V3.36708L13.5 7.99988ZM2 2H3V14H2V2Z" fill="black"/>
</svg>
