<svg width="16" height="16" viewBox="0 0 16 16" fill="none" xmlns="http://www.w3.org/2000/svg">
<path d="M12 1L9 4L9.7 4.7L11.5 2.9V9.5C11.5 12 9.5 14 7 14C6.2 14 5.45 13.8 4.85 13.45C5.05 13.5 5.25 13.5 5.5 13.5C7.7 13.5 9.5 11.7 9.5 9.5C9.5 7.3 7.7 5.5 5.5 5.5C3.3 5.5 1.5 7.3 1.5 9.5C1.5 12.55 3.95 15 7 15C10.05 15 12.5 12.55 12.5 9.5V2.9L14.3 4.7L15 4L12 1ZM2.5 9.8C2.5 9.7 2.5 9.6 2.5 9.5C2.5 7.85 3.85 6.5 5.5 6.5C7.15 6.5 8.5 7.85 8.5 9.5C8.5 11.15 7.15 12.5 5.5 12.5C3.95 12.5 2.65 11.3 2.5 9.8Z" fill="black"/>
</svg>
