<svg width="16" height="16" viewBox="0 0 16 16" fill="none" xmlns="http://www.w3.org/2000/svg">
<path fill-rule="evenodd" clip-rule="evenodd" d="M1 8C1 11.85 4.15 15 8 15C11.85 15 15 11.85 15 8C15 7.75 15 7.45 14.95 7.15L14.85 6.5L14.25 6.75C13.55 7 12.9 6.45 12.9 5.8C12.9 5.55 13 5.3 13.2 5.1L12.55 4.35C12.1 4.65 11.6 4.8 11.1 4.8C9.7 4.8 8.6 3.7 8.6 2.3C8.6 2.1 8.65 1.85 8.7 1.65L8.85 1.05L8.15 1H8C4.15 1 1 4.15 1 8ZM2 8C2 4.8 4.5 2.2 7.65 2C7.6 2.1 7.6 2.2 7.6 2.3C7.6 4.25 9.15 5.8 11.1 5.8C11.4 5.8 11.65 5.75 11.9 5.7V5.8C11.9 6.95 12.85 7.85 14 7.8V8C14 11.3 11.3 14 8 14C4.7 14 2 11.3 2 8ZM15 1.5C15 1.77614 14.7761 2 14.5 2C14.2239 2 14 1.77614 14 1.5C14 1.22386 14.2239 1 14.5 1C14.7761 1 15 1.22386 15 1.5ZM11.5 3.5C12.0523 3.5 12.5 3.05228 12.5 2.5C12.5 1.94772 12.0523 1.5 11.5 1.5C10.9477 1.5 10.5 1.94772 10.5 2.5C10.5 3.05228 10.9477 3.5 11.5 3.5ZM6.5 6C7.05228 6 7.5 5.55228 7.5 5C7.5 4.44772 7.05228 4 6.5 4C5.94772 4 5.5 4.44772 5.5 5C5.5 5.55228 5.94772 6 6.5 6ZM12.5 10C12.5 10.5523 12.0523 11 11.5 11C10.9477 11 10.5 10.5523 10.5 10C10.5 9.44771 10.9477 9 11.5 9C12.0523 9 12.5 9.44771 12.5 10ZM6 10.5C6 11.0523 5.55228 11.5 5 11.5C4.44772 11.5 4 11.0523 4 10.5C4 9.94771 4.44772 9.5 5 9.5C5.55228 9.5 6 9.94771 6 10.5ZM7.5 7.5C7.5 7.77614 7.27614 8 7 8C6.72386 8 6.5 7.77614 6.5 7.5C6.5 7.22386 6.72386 7 7 7C7.27614 7 7.5 7.22386 7.5 7.5ZM8 12C8.27614 12 8.5 11.7761 8.5 11.5C8.5 11.2239 8.27614 11 8 11C7.72386 11 7.5 11.2239 7.5 11.5C7.5 11.7761 7.72386 12 8 12Z" fill="black"/>
</svg>
