<svg width="16" height="16" viewBox="0 0 16 16" fill="none" xmlns="http://www.w3.org/2000/svg">
<path fill-rule="evenodd" clip-rule="evenodd" d="M9.97369 8.50005C9.48435 8.50016 9.00597 8.35513 8.59907 8.08332C8.19216 7.81151 7.87501 7.42512 7.68773 6.97304C7.50044 6.52096 7.45144 6.02348 7.54693 5.54355C7.64241 5.06361 7.87809 4.62278 8.22414 4.2768L8.50044 4.0005L9.20759 4.7078L8.93129 4.98395C8.79441 5.12081 8.68583 5.28329 8.61175 5.46212C8.53767 5.64095 8.49954 5.83261 8.49954 6.02618C8.49954 6.21974 8.53767 6.41141 8.61175 6.59024C8.68583 6.76906 8.79441 6.93154 8.93129 7.0684C9.21218 7.33646 9.58553 7.48602 9.97379 7.48602C10.3621 7.48602 10.7354 7.33646 11.0163 7.0684L11.024 7.06066C11.2166 6.86814 13.3839 4.70078 13.5689 4.51615C13.8449 4.23954 13.9999 3.86474 13.9999 3.47398C13.9999 3.08322 13.8449 2.70842 13.5689 2.4318C13.2881 2.16374 12.9147 2.01418 12.5264 2.01418C12.1382 2.01418 11.7648 2.16374 11.4839 2.4318L10.7768 1.72455C11.2409 1.26126 11.87 1.00118 12.5258 1.00147C13.1816 1.00175 13.8104 1.26239 14.2742 1.72609C14.7379 2.18979 14.9985 2.81863 14.9989 3.47442C14.9992 4.13021 14.7391 4.7593 14.2758 5.22345C14.0876 5.41145 11.8538 7.64485 11.7239 7.7752C11.4946 8.00572 11.2218 8.18847 10.9214 8.31289C10.621 8.43731 10.2989 8.50092 9.97369 8.50005ZM5.97369 9.50005C5.48435 9.50016 5.00597 9.35513 4.59907 9.08332C4.19216 8.81151 3.87501 8.42512 3.68772 7.97304C3.50044 7.52095 3.45144 7.02348 3.54693 6.54355C3.64241 6.06361 3.87809 5.62278 4.22414 5.2768L6.77679 2.72465C7.24076 2.26065 7.87005 1.99996 8.52623 1.99994C9.18241 1.99992 9.81172 2.26056 10.2757 2.72453C10.7397 3.1885 11.0004 3.81779 11.0004 4.47396C11.0005 5.13014 10.7398 5.75945 10.2758 6.22345L9.99969 6.49975L9.29179 5.7933L9.57064 5.51435C9.84599 5.23761 10.0004 4.86301 10 4.47262C9.99967 4.08224 9.84456 3.70792 9.56869 3.4317C9.28781 3.16364 8.91446 3.01408 8.52619 3.01408C8.13793 3.01408 7.76458 3.16364 7.48369 3.4317L4.93134 5.9837C4.79443 6.12056 4.68582 6.28305 4.61171 6.46189C4.53761 6.64073 4.49947 6.83242 4.49947 7.026C4.49947 7.21959 4.53761 7.41128 4.61171 7.59012C4.68582 7.76896 4.79443 7.93145 4.93134 8.0683C5.21223 8.33636 5.58558 8.48592 5.97384 8.48592C6.36211 8.48592 6.73546 8.33636 7.01634 8.0683L7.72349 8.77555C7.4942 9.00599 7.2215 9.18867 6.92115 9.31303C6.6208 9.43739 6.29877 9.50096 5.97369 9.50005ZM2 15.0001H12C12.2651 14.9998 12.5193 14.8943 12.7068 14.7069C12.8943 14.5194 12.9997 14.2652 13 14.0001V9.00005H12V14.0001H2V4.00005H4V3.00005H2C1.73487 3.00033 1.48068 3.10578 1.2932 3.29325C1.10572 3.48073 1.00028 3.73492 1 4.00005V14.0001C1.00028 14.2652 1.10572 14.5194 1.2932 14.7069C1.48068 14.8943 1.73487 14.9998 2 15.0001Z" fill="black"/>
</svg>
