<svg width="16" height="16" viewBox="0 0 16 16" fill="none" xmlns="http://www.w3.org/2000/svg">
<path fill-rule="evenodd" clip-rule="evenodd" d="M12.9746 7.5H14V6.5H15V9.5H14V8.5H12.9746C12.8762 9.47671 12.491 10.4025 11.8674 11.1607L12.5858 11.8789L13.2929 11.1716L14 11.8786L11.8789 14L11.1719 13.2929L11.8789 12.5859L11.1604 11.8677C10.4023 12.4911 9.4766 12.8763 8.5 12.9746V14H9.5V15H6.5V14H7.5V12.9746C6.5234 12.8763 5.59774 12.4911 4.8396 11.8677L4.1211 12.5859L4.8281 13.2929L4.1211 14L2 11.8786L2.70705 11.1716L3.4142 11.8789L4.13255 11.1607C3.50903 10.4025 3.1238 9.47671 3.0254 8.5H2V9.5H1V6.5H2V7.5H3.0254C3.1238 6.52329 3.50903 5.59755 4.13255 4.83935L3.4142 4.1211L2.70705 4.82835L2 4.12135L4.1211 2L4.8281 2.70705L4.1211 3.41405L4.8396 4.1323C5.59774 3.50888 6.5234 3.12375 7.5 3.0254V2H6.5V1H9.5V2H8.5V3.0254C9.4766 3.12375 10.4023 3.50888 11.1604 4.1323L11.8789 3.41405L11.1719 2.70705L11.8789 2L14 4.12135L13.2929 4.82835L12.5858 4.1211L11.8674 4.83935C12.491 5.59755 12.8762 6.52329 12.9746 7.5ZM5.77772 11.3259C6.43552 11.7654 7.20887 12 8 12C9.06049 11.9988 10.0772 11.577 10.8271 10.8271C11.577 10.0772 11.9988 9.06049 12 8C12 7.20887 11.7654 6.43552 11.3259 5.77772C10.8864 5.11992 10.2616 4.60723 9.53073 4.30448C8.79983 4.00173 7.99556 3.92252 7.21964 4.07686C6.44371 4.2312 5.73098 4.61216 5.17157 5.17157C4.61216 5.73098 4.2312 6.44371 4.07686 7.21964C3.92252 7.99556 4.00173 8.79983 4.30448 9.53073C4.60723 10.2616 5.11992 10.8864 5.77772 11.3259ZM8.5 5.75C8.5 6.16421 8.16421 6.5 7.75 6.5C7.33579 6.5 7 6.16421 7 5.75C7 5.33579 7.33579 5 7.75 5C8.16421 5 8.5 5.33579 8.5 5.75ZM11 7.75C11 8.16421 10.6642 8.5 10.25 8.5C9.83579 8.5 9.5 8.16421 9.5 7.75C9.5 7.33579 9.83579 7 10.25 7C10.6642 7 11 7.33579 11 7.75ZM8 8.5C8.27614 8.5 8.5 8.27614 8.5 8C8.5 7.72386 8.27614 7.5 8 7.5C7.72386 7.5 7.5 7.72386 7.5 8C7.5 8.27614 7.72386 8.5 8 8.5ZM9 10.25C9 10.6642 8.66421 11 8.25 11C7.83579 11 7.5 10.6642 7.5 10.25C7.5 9.83579 7.83579 9.5 8.25 9.5C8.66421 9.5 9 9.83579 9 10.25ZM5.75 9C6.16421 9 6.5 8.66421 6.5 8.25C6.5 7.83579 6.16421 7.5 5.75 7.5C5.33579 7.5 5 7.83579 5 8.25C5 8.66421 5.33579 9 5.75 9Z" fill="black"/>
</svg>
