<svg width="16" height="16" viewBox="0 0 16 16" fill="none" xmlns="http://www.w3.org/2000/svg">
<path fill-rule="evenodd" clip-rule="evenodd" d="M14.2929 2.5L15 3.20705L13.1953 5.0117C13.8558 6.15374 14.1208 7.48191 13.9491 8.78998C13.7774 10.098 13.1786 11.3128 12.2457 12.2457C11.3128 13.1786 10.098 13.7774 8.78998 13.9491C7.48191 14.1208 6.15374 13.8558 5.0117 13.1953L3.20705 15L2.5 14.2929L4.175 12.6181C3.88666 12.3789 3.6212 12.1134 3.38205 11.825L1.70705 13.5L1 12.7929L2.8047 10.9883C2.14419 9.84626 1.87922 8.51809 2.05093 7.21003C2.22264 5.90196 2.82142 4.68717 3.75429 3.75429C4.68717 2.82142 5.90196 2.22264 7.21003 2.05093C8.51809 1.87922 9.84626 2.14419 10.9883 2.8047L12.7929 1L13.5 1.70705L11.825 3.38185C12.1133 3.62107 12.3788 3.8866 12.618 4.175L14.2929 2.5ZM5.22215 12.1573C6.04439 12.7068 7.01109 13 8 13C9.32562 12.9985 10.5965 12.4712 11.5339 11.5339C12.4712 10.5965 12.9985 9.32562 13 8C13 7.01109 12.7068 6.04439 12.1573 5.22215C11.6079 4.3999 10.827 3.75904 9.91342 3.3806C8.99979 3.00216 7.99445 2.90315 7.02455 3.09607C6.05464 3.289 5.16373 3.7652 4.46447 4.46447C3.7652 5.16373 3.289 6.05464 3.09607 7.02455C2.90315 7.99445 3.00216 8.99979 3.3806 9.91342C3.75904 10.827 4.3999 11.6079 5.22215 12.1573ZM11 6.5H5V7.5H11V6.5ZM11 9H5V10H11V9Z" fill="black"/>
</svg>
