<svg width="16" height="16" viewBox="0 0 16 16" fill="none" xmlns="http://www.w3.org/2000/svg">
<path fill-rule="evenodd" clip-rule="evenodd" d="M14.2929 2.5L15 3.20705L13.1953 5.0117C13.8558 6.15374 14.1208 7.48191 13.9491 8.78998C13.7774 10.098 13.1786 11.3128 12.2457 12.2457C11.3128 13.1786 10.098 13.7774 8.78998 13.9491C7.48191 14.1208 6.15374 13.8558 5.0117 13.1953L3.20705 15L2.5 14.2929L4.175 12.6181C3.88666 12.3789 3.6212 12.1134 3.38205 11.825L1.70705 13.5L1 12.7929L2.8047 10.9883C2.14419 9.84626 1.87922 8.51809 2.05093 7.21003C2.22264 5.90196 2.82142 4.68717 3.75429 3.75429C4.68717 2.82142 5.90196 2.22264 7.21003 2.05093C8.51809 1.87922 9.84626 2.14419 10.9883 2.8047L12.7929 1L13.5 1.70705L11.825 3.38185C12.1133 3.62107 12.3788 3.8866 12.618 4.175L14.2929 2.5ZM5.22215 12.1573C6.04439 12.7068 7.01109 13 8 13C9.32562 12.9985 10.5965 12.4712 11.5339 11.5339C12.4712 10.5965 12.9985 9.32562 13 8C13 7.01109 12.7068 6.04439 12.1573 5.22215C11.6079 4.3999 10.827 3.75904 9.91342 3.3806C8.99979 3.00216 7.99445 2.90315 7.02455 3.09607C6.05464 3.289 5.16373 3.7652 4.46447 4.46447C3.7652 5.16373 3.289 6.05464 3.09607 7.02455C2.90315 7.99445 3.00216 8.99979 3.3806 9.91342C3.75904 10.827 4.3999 11.6079 5.22215 12.1573ZM6.0555 10.9101C6.63107 11.2947 7.30776 11.5 8 11.5C8.92794 11.499 9.81758 11.1299 10.4737 10.4737C11.1299 9.81758 11.499 8.92794 11.5 8C11.5 7.30777 11.2947 6.63108 10.9101 6.05551C10.5256 5.47993 9.97893 5.03133 9.33939 4.76642C8.69985 4.50152 7.99612 4.4322 7.31718 4.56725C6.63825 4.7023 6.01461 5.03564 5.52513 5.52513C5.03564 6.01461 4.7023 6.63825 4.56725 7.31719C4.4322 7.99612 4.50151 8.69985 4.76642 9.33939C5.03133 9.97893 5.47993 10.5256 6.0555 10.9101ZM6.61107 5.92133C7.0222 5.64662 7.50555 5.5 8 5.5C8.66281 5.50076 9.29825 5.76439 9.76693 6.23307C10.2356 6.70175 10.4992 7.33719 10.5 8C10.5 8.49445 10.3534 8.9778 10.0787 9.38893C9.80397 9.80005 9.41352 10.1205 8.95671 10.3097C8.49989 10.4989 7.99723 10.5484 7.51227 10.452C7.02732 10.3555 6.58186 10.1174 6.23223 9.76777C5.8826 9.41814 5.6445 8.97268 5.54804 8.48773C5.45157 8.00277 5.50108 7.50011 5.6903 7.04329C5.87952 6.58648 6.19995 6.19603 6.61107 5.92133Z" fill="black"/>
</svg>
