<svg width="16" height="16" viewBox="0 0 16 16" fill="none" xmlns="http://www.w3.org/2000/svg">
<path fill-rule="evenodd" clip-rule="evenodd" d="M12 13.5V15H13V13C13 12.8674 12.9473 12.7402 12.8536 12.6464C12.7598 12.5527 12.6326 12.5 12.5 12.5H10C9.60231 12.4996 9.22103 12.3414 8.93982 12.0602C8.65861 11.779 8.50044 11.3977 8.5 11V10C8.5 9.89506 8.46698 9.79277 8.40562 9.70764C8.34425 9.6225 8.25766 9.55883 8.1581 9.52565L7.2494 9.2228L8.4287 7.2572C8.47535 7.17952 8.5 7.09061 8.5 7V5.5C8.50103 4.57206 8.87011 3.68242 9.52627 3.02627C10.1824 2.37011 11.0721 2.00103 12 2H14.5V1H12C10.8069 1.00132 9.66311 1.47585 8.81948 2.31948C7.97585 3.16311 7.50132 4.30693 7.5 5.5V6.86145L6.0713 9.2428C6.03279 9.307 6.00918 9.37903 6.00222 9.45357C5.99527 9.52812 6.00514 9.60327 6.03112 9.67349C6.05709 9.7437 6.0985 9.80719 6.15229 9.85927C6.20608 9.91134 6.27088 9.95067 6.3419 9.97435L7.5 10.3603V11C7.50073 11.6628 7.76435 12.2983 8.23304 12.767C8.70172 13.2356 9.33718 13.4993 10 13.5H12ZM5 11.5C5 11.7761 4.77614 12 4.5 12C4.22386 12 4 11.7761 4 11.5C4 11.2239 4.22386 11 4.5 11C4.77614 11 5 11.2239 5 11.5ZM3 10.5C3.27614 10.5 3.5 10.2761 3.5 10C3.5 9.72386 3.27614 9.5 3 9.5C2.72386 9.5 2.5 9.72386 2.5 10C2.5 10.2761 2.72386 10.5 3 10.5ZM3.5 13C3.5 13.2761 3.27614 13.5 3 13.5C2.72386 13.5 2.5 13.2761 2.5 13C2.5 12.7239 2.72386 12.5 3 12.5C3.27614 12.5 3.5 12.7239 3.5 13ZM1.5 9C1.77614 9 2 8.77614 2 8.5C2 8.22386 1.77614 8 1.5 8C1.22386 8 1 8.22386 1 8.5C1 8.77614 1.22386 9 1.5 9ZM2 14.5C2 14.7761 1.77614 15 1.5 15C1.22386 15 1 14.7761 1 14.5C1 14.2239 1.22386 14 1.5 14C1.77614 14 2 14.2239 2 14.5ZM1.5 12C1.77614 12 2 11.7761 2 11.5C2 11.2239 1.77614 11 1.5 11C1.22386 11 1 11.2239 1 11.5C1 11.7761 1.22386 12 1.5 12ZM9.5 6H11.5V7H9.5V6Z" fill="black"/>
</svg>
