<svg width="16" height="16" viewBox="0 0 16 16" fill="none" xmlns="http://www.w3.org/2000/svg">
<path fill-rule="evenodd" clip-rule="evenodd" d="M4 1H12C12.2651 1.0003 12.5193 1.10576 12.7068 1.29323C12.8942 1.4807 12.9997 1.73488 13 2V14C12.9996 14.2651 12.8942 14.5193 12.7067 14.7067C12.5193 14.8942 12.2651 14.9996 12 15H4C3.73488 14.9997 3.4807 14.8942 3.29323 14.7068C3.10576 14.5193 3.0003 14.2651 3 14V2C3.00026 1.73486 3.10571 1.48066 3.29319 1.29319C3.48066 1.10571 3.73486 1.00026 4 1ZM6 13V14H10V13C10 12.8674 9.94732 12.7402 9.85355 12.6464C9.75979 12.5527 9.63261 12.5 9.5 12.5H6.5C6.36739 12.5 6.24021 12.5527 6.14645 12.6464C6.05268 12.7402 6 12.8674 6 13ZM11 13V14H12V2H4V14H5V13C5 12.6022 5.15804 12.2206 5.43934 11.9393C5.72064 11.658 6.10218 11.5 6.5 11.5H9.5C9.89782 11.5 10.2794 11.658 10.5607 11.9393C10.842 12.2206 11 12.6022 11 13ZM9 3H7V4H9V3ZM8 11C8.39556 11 8.78224 10.8827 9.11114 10.6629C9.44004 10.4432 9.69638 10.1308 9.84776 9.76537C9.99913 9.39992 10.0387 8.99778 9.96157 8.60982C9.8844 8.22186 9.69392 7.86549 9.41421 7.58579C9.13451 7.30608 8.77814 7.1156 8.39018 7.03843C8.00222 6.96126 7.60009 7.00087 7.23463 7.15224C6.86918 7.30362 6.55682 7.55996 6.33706 7.88886C6.1173 8.21776 6 8.60444 6 9C6 9.53043 6.21071 10.0391 6.58579 10.4142C6.96086 10.7893 7.46957 11 8 11ZM8 8C8.19778 8 8.39112 8.05865 8.55557 8.16853C8.72002 8.27841 8.84819 8.43459 8.92388 8.61732C8.99957 8.80004 9.01937 9.00111 8.98079 9.19509C8.9422 9.38907 8.84696 9.56726 8.70711 9.70711C8.56725 9.84696 8.38907 9.9422 8.19509 9.98079C8.00111 10.0194 7.80004 9.99957 7.61732 9.92388C7.43459 9.84819 7.27841 9.72002 7.16853 9.55557C7.05865 9.39112 7 9.19778 7 9C7 8.73478 7.10536 8.48043 7.29289 8.29289C7.48043 8.10536 7.73478 8 8 8Z" fill="black"/>
</svg>
