<svg width="16" height="16" viewBox="0 0 16 16" fill="none" xmlns="http://www.w3.org/2000/svg">
<path fill-rule="evenodd" clip-rule="evenodd" d="M5.5 5.5V8H8V9H1V8H4.5V5.5H4C3.20462 5.49913 2.44206 5.18278 1.87964 4.62036C1.31722 4.05794 1.00087 3.29538 1 2.5V1H2.5C3.0367 1.00046 3.56346 1.1448 4.02542 1.418C4.48738 1.6912 4.86764 2.08326 5.1266 2.55335C5.49612 2.19902 5.98805 2.00082 6.5 2H8V3.5C7.9994 4.03025 7.7885 4.53861 7.41356 4.91356C7.03861 5.2885 6.53025 5.4994 6 5.5H5.5ZM7 3H6.5C6.23486 3.00026 5.98066 3.10571 5.79319 3.29319C5.60571 3.48066 5.50026 3.73486 5.5 4V4.5H6C6.26514 4.49974 6.51934 4.39429 6.70681 4.20681C6.89429 4.01934 6.99974 3.76514 7 3.5V3ZM2.58644 3.91356C2.96139 4.2885 3.46975 4.4994 4 4.5H4.5V4C4.4994 3.46975 4.2885 2.96139 3.91356 2.58644C3.53861 2.2115 3.03025 2.0006 2.5 2H2V2.5C2.0006 3.03025 2.2115 3.53861 2.58644 3.91356ZM8.5 14.5C8.42502 14.5 8.35101 14.4831 8.28343 14.4507C8.21585 14.4182 8.15644 14.3709 8.1096 14.3124L6.26 12H1V11H6.5C6.57498 11 6.64899 11.0169 6.71657 11.0493C6.78415 11.0818 6.84356 11.1291 6.8904 11.1876L8.4634 13.1537L11.084 9.22265C11.1284 9.15611 11.188 9.10119 11.258 9.06249C11.328 9.02378 11.4062 9.00243 11.4861 9.00021C11.5661 8.99799 11.6454 9.01497 11.7174 9.04974C11.7894 9.0845 11.852 9.13603 11.9 9.2L13.25 11H15V12H13C12.9224 12 12.8458 11.982 12.7764 11.9473C12.7069 11.9125 12.6465 11.8621 12.6 11.8L11.5239 10.3653L8.9159 14.2773C8.87232 14.3428 8.8139 14.397 8.74539 14.4356C8.67688 14.4742 8.60022 14.4961 8.52165 14.4994L8.5 14.5ZM5 14H1V15H5V14Z" fill="black"/>
</svg>
