<svg width="16" height="16" viewBox="0 0 16 16" fill="none" xmlns="http://www.w3.org/2000/svg">
<path fill-rule="evenodd" clip-rule="evenodd" d="M6.0555 7.41014C6.63108 7.79473 7.30777 8 8 8C8.92826 8 9.8185 7.63125 10.4749 6.97487C11.1313 6.3185 11.5 5.42826 11.5 4.5C11.5 3.80777 11.2947 3.13108 10.9101 2.55551C10.5256 1.97993 9.97893 1.53133 9.33939 1.26642C8.69985 1.00152 7.99612 0.932205 7.31718 1.06725C6.63825 1.2023 6.01461 1.53564 5.52513 2.02513C5.03564 2.51461 4.7023 3.13825 4.56725 3.81719C4.4322 4.49612 4.50151 5.19985 4.76642 5.83939C5.03133 6.47893 5.47993 7.02556 6.0555 7.41014ZM6.23223 2.73223C6.70107 2.26339 7.33696 2 8 2C8.66304 2 9.29893 2.26339 9.76777 2.73223C10.2366 3.20108 10.5 3.83696 10.5 4.5C10.5 5.16304 10.2366 5.79893 9.76777 6.26777C9.29893 6.73661 8.66304 7 8 7C7.33696 7 6.70107 6.73661 6.23223 6.26777C5.76339 5.79893 5.5 5.16304 5.5 4.5C5.5 3.83696 5.76339 3.20108 6.23223 2.73223ZM4.5 11.0001C4.73066 10.6873 5.03217 10.4336 5.37981 10.2597C5.72746 10.0859 6.11134 9.99696 6.5 10.0001H9.5C9.88663 10.0082 10.2666 10.1022 10.6125 10.2751C10.9584 10.448 11.2615 10.6957 11.5 11.0001H12.65C12.3735 10.3987 11.9291 9.88995 11.3702 9.53513C10.8114 9.18031 10.1619 8.99453 9.5 9.00012H6.5C5.83806 8.99453 5.1886 9.18031 4.62977 9.53513C4.07093 9.88995 3.62652 10.3987 3.35 11.0001H4.5ZM2.5 12H4.5V13H2.5V12ZM5.5 12H7.5V13H5.5V12ZM13.5 12H11.5V13H13.5V12ZM8.5 12H10.5V13H8.5V12ZM12 14H13V15H12V14ZM4 14H3V15H4V14Z" fill="black"/>
</svg>
