<svg width="16" height="16" viewBox="0 0 16 16" fill="none" xmlns="http://www.w3.org/2000/svg">
<path fill-rule="evenodd" clip-rule="evenodd" d="M9 11.5H7C6.73478 11.5 6.48043 11.3946 6.29289 11.2071C6.10536 11.0196 6 10.7652 6 10.5V4.5H7V10.5H9V4.5H10V10.5C10 10.7652 9.89464 11.0196 9.70711 11.2071C9.51957 11.3946 9.26522 11.5 9 11.5ZM5 11.5H2.5C2.23478 11.5 1.98043 11.3946 1.79289 11.2071C1.60536 11.0196 1.5 10.7652 1.5 10.5V7.5C1.5 7.23478 1.60536 6.98043 1.79289 6.79289C1.98043 6.60536 2.23478 6.5 2.5 6.5H5V7.5H2.5V10.5H5V11.5ZM11 4.5H14C14.2652 4.5 14.5196 4.60536 14.7071 4.79289C14.8946 4.98043 15 5.23478 15 5.5V10.5C15 10.7652 14.8946 11.0196 14.7071 11.2071C14.5196 11.3946 14.2652 11.5 14 11.5H11V10.5H14V8.5H11.5V7.5H14V5.5H11V4.5Z" fill="black"/>
</svg>
