<svg width="16" height="16" viewBox="0 0 16 16" fill="none" xmlns="http://www.w3.org/2000/svg">
<path fill-rule="evenodd" clip-rule="evenodd" d="M3.5 13.5H4.5V3.5H7.5C7.89769 3.50044 8.27897 3.65861 8.56018 3.93982C8.84139 4.22103 8.99956 4.60231 9 5V11H10V5C9.99925 4.33719 9.73561 3.70174 9.26693 3.23307C8.79826 2.76439 8.16281 2.50075 7.5 2.5H3.5V13.5ZM6 13.5H10C10.6628 13.4992 11.2983 13.2356 11.7669 12.7669C12.2356 12.2983 12.4992 11.6628 12.5 11V2.5H11.5V11C11.4996 11.3977 11.3414 11.779 11.0602 12.0602C10.779 12.3414 10.3977 12.4996 10 12.5H7V5H6V13.5Z" fill="black"/>
</svg>
