<svg width="16" height="16" viewBox="0 0 16 16" fill="none" xmlns="http://www.w3.org/2000/svg">
<path d="M6.22655 12.5C6.7326 11.7648 7.00241 10.8926 7 10C7.00171 9.66462 6.97158 9.32978 6.91 9.00005H11V8.00005H6.60875C6.56665 7.8946 6.52375 7.79035 6.48095 7.68805C6.15483 7.00529 5.99026 6.25663 6 5.50005C5.98524 5.16781 6.0398 4.83614 6.16021 4.52615C6.28063 4.21615 6.46425 3.93461 6.69941 3.69946C6.93457 3.4643 7.2161 3.28067 7.5261 3.16026C7.8361 3.03985 8.16777 2.98528 8.5 3.00005C9.01027 2.984 9.51645 3.09581 9.97248 3.3253C10.4285 3.55478 10.8199 3.89466 11.1111 4.314L11.8889 3.6861C11.5038 3.15063 10.9938 2.7172 10.4032 2.42339C9.81271 2.12958 9.15941 1.98427 8.5 2.00005C8.0362 1.9846 7.57417 2.06456 7.14255 2.23499C6.71092 2.40541 6.31889 2.66266 5.99075 2.9908C5.66261 3.31894 5.40536 3.71096 5.23494 4.14259C5.06452 4.57422 4.98455 5.03625 5 5.50005C4.98879 6.36218 5.16911 7.21606 5.52795 8.00005H4V9.00005H5.88645C5.96518 9.32746 6.00331 9.66332 6 10C6 11.2617 5.2571 12.5 4.5 12.5V13.5H12V12.5H6.22655Z" fill="black"/>
</svg>
