<svg width="16" height="16" viewBox="0 0 16 16" fill="none" xmlns="http://www.w3.org/2000/svg">
<path d="M11.5 10.2576C11.5 7.94995 9.61001 7.687 8.09146 7.47605C6.43646 7.2456 5.50001 7.04605 5.50001 5.62105C5.50001 4.42455 6.75356 4 7.82691 4C8.36189 3.9827 8.89332 4.09281 9.37738 4.32126C9.86144 4.54972 10.2843 4.88997 10.611 5.31395L11.3891 4.68605C11.0392 4.23615 10.6038 3.85984 10.108 3.57875C9.6122 3.29765 9.06574 3.11732 8.50001 3.0481V1.5H7.50001V3.011C5.69241 3.1206 4.50001 4.141 4.50001 5.621C4.50001 7.986 6.41501 8.25235 7.95376 8.466C9.58001 8.6924 10.5 8.8872 10.5 10.2576C10.5 11.7737 8.93371 12 8.00001 12C6.28531 12 5.56091 11.5181 4.88906 10.6861L4.11096 11.3139C4.50736 11.8363 5.02004 12.259 5.60833 12.5486C6.19662 12.8383 6.84431 12.9868 7.50001 12.9824V14.5H8.50001V12.9775C10.3628 12.8254 11.5 11.814 11.5 10.2576Z" fill="black"/>
</svg>
