<svg width="16" height="16" viewBox="0 0 16 16" fill="none" xmlns="http://www.w3.org/2000/svg">
<path fill-rule="evenodd" clip-rule="evenodd" d="M12 14H14C14.2651 13.9997 14.5193 13.8942 14.7068 13.7068C14.8942 13.5193 14.9997 13.2651 15 13V2C14.9997 1.73488 14.8942 1.4807 14.7068 1.29323C14.5193 1.10576 14.2651 1.0003 14 1H3.50001C3.23488 1.0003 2.98071 1.10576 2.79324 1.29323C2.60577 1.4807 2.50031 1.73488 2.50001 2V4H3.50001V2H14V13H12V14ZM9.02501 6L9.52501 6.8663L4.96401 9.5003L7.79571 11.1353L7.29571 12L3.96386 10.0777L3.47036 10.3623C3.71778 10.5704 3.89226 10.8521 3.96835 11.1663C4.04445 11.4805 4.01818 11.8108 3.89338 12.109C3.76858 12.4073 3.55177 12.6578 3.27457 12.8242C2.99737 12.9905 2.67427 13.064 2.35239 13.0339C2.0305 13.0037 1.72667 12.8715 1.48519 12.6566C1.2437 12.4416 1.0772 12.1551 1.00996 11.8389C0.942713 11.5227 0.978244 11.1933 1.11137 10.8987C1.24449 10.604 1.46825 10.3597 1.75001 10.2012L2.96401 9.50025L1.75001 8.7993C1.49312 8.65092 1.28599 8.4297 1.15482 8.16361C1.02365 7.89751 0.97433 7.5985 1.0131 7.30438C1.05186 7.01026 1.17698 6.73423 1.37261 6.51122C1.56825 6.2882 1.82562 6.1282 2.11219 6.05145C2.39876 5.97471 2.70165 5.98466 2.98256 6.08005C3.26347 6.17545 3.50979 6.35199 3.69036 6.58738C3.87094 6.82276 3.97766 7.1064 3.99703 7.40243C4.01641 7.69846 3.94756 7.99359 3.79921 8.2505C3.71111 8.39702 3.59824 8.52712 3.46561 8.635L3.96401 8.92285L9.02501 6ZM2.04465 7.29421C1.99694 7.39959 1.98724 7.51827 2.01721 7.63C2.03403 7.69347 2.06328 7.75297 2.10326 7.80506C2.14324 7.85714 2.19315 7.90079 2.25011 7.93345C2.35029 7.9913 2.46744 8.01262 2.58158 7.99378C2.69572 7.97493 2.79979 7.91709 2.87606 7.83011C2.95234 7.74314 2.99609 7.6324 2.99987 7.51678C3.00365 7.40115 2.96721 7.2878 2.89678 7.19603C2.82634 7.10426 2.72627 7.03975 2.6136 7.0135C2.50093 6.98724 2.38265 7.00087 2.2789 7.05206C2.17516 7.10325 2.09237 7.18882 2.04465 7.29421ZM2.74959 11.0667C2.6735 11.0229 2.58721 10.9999 2.49941 11C2.41171 11.0001 2.32558 11.0233 2.24968 11.0673C2.17377 11.1112 2.11076 11.1743 2.06697 11.2503C2.02318 11.3263 2.00014 11.4125 2.00017 11.5002C2.00021 11.5879 2.02331 11.674 2.06716 11.75C2.11106 11.826 2.17421 11.8892 2.25026 11.9331C2.3263 11.9769 2.41256 12 2.50036 12C2.58816 12 2.67441 11.9768 2.75042 11.9329C2.82643 11.8889 2.88953 11.8257 2.93338 11.7497C2.97722 11.6736 3.00026 11.5873 3.00017 11.4995C3.00009 11.4117 2.97689 11.3255 2.9329 11.2495C2.88891 11.1735 2.82569 11.1105 2.74959 11.0667ZM8.50001 13H10.5V14H8.50001V13ZM7.00001 13H5.00001V14H7.00001V13Z" fill="black"/>
</svg>
