<svg width="16" height="16" viewBox="0 0 16 16" fill="none" xmlns="http://www.w3.org/2000/svg">
<path fill-rule="evenodd" clip-rule="evenodd" d="M9.77775 3.70507C10.0655 3.89736 10.4039 4 10.75 4C11.214 3.99944 11.6588 3.81489 11.9868 3.48682C12.3149 3.15876 12.4994 2.71396 12.5 2.25C12.5 1.90388 12.3974 1.56554 12.2051 1.27775C12.0128 0.989967 11.7395 0.765665 11.4197 0.633212C11.0999 0.500758 10.7481 0.466102 10.4086 0.533627C10.0691 0.601151 9.75731 0.767822 9.51256 1.01256C9.26782 1.25731 9.10115 1.56913 9.03363 1.90859C8.9661 2.24806 9.00076 2.59993 9.13321 2.9197C9.26567 3.23947 9.48997 3.51278 9.77775 3.70507ZM10.3333 1.6264C10.4567 1.54399 10.6017 1.5 10.75 1.5C10.9488 1.50023 11.1395 1.57932 11.2801 1.71992C11.4207 1.86052 11.4998 2.05116 11.5 2.25C11.5 2.39834 11.456 2.54334 11.3736 2.66668C11.2912 2.79002 11.1741 2.88614 11.037 2.94291C10.9 2.99968 10.7492 3.01453 10.6037 2.98559C10.4582 2.95665 10.3246 2.88522 10.2197 2.78033C10.1148 2.67544 10.0434 2.5418 10.0144 2.39632C9.98547 2.25083 10.0003 2.10003 10.0571 1.96299C10.1139 1.82594 10.21 1.70881 10.3333 1.6264ZM8.5 13.5H7.5V10.207L4.79245 7.50001C4.60516 7.31226 4.49999 7.05789 4.49999 6.79271C4.49999 6.52752 4.60516 6.27315 4.79245 6.08541L7.0854 3.79246C7.2731 3.60519 7.52741 3.50002 7.79255 3.50002C8.05769 3.50002 8.31201 3.60519 8.4997 3.79246L10.707 6.00001H13.5V6.99966L10.2927 7.00001L7.79265 4.50001L5.5 6.79246L8.5 9.79246V13.5ZM1.83329 14.4944C2.32664 14.8241 2.90666 15 3.5 15C4.29537 14.9991 5.0579 14.6827 5.62031 14.1203C6.18272 13.5579 6.49909 12.7954 6.5 12C6.5 11.4067 6.32406 10.8266 5.99441 10.3333C5.66477 9.83994 5.19623 9.45543 4.64805 9.22836C4.09987 9.0013 3.49667 8.94189 2.91473 9.05765C2.33279 9.1734 1.79824 9.45912 1.37868 9.87868C0.959123 10.2982 0.673401 10.8328 0.557646 11.4147C0.44189 11.9967 0.5013 12.5999 0.728363 13.1481C0.955426 13.6962 1.33994 14.1648 1.83329 14.4944ZM2.38886 10.3371C2.71776 10.1173 3.10444 10 3.5 10C4.03025 10.0006 4.53861 10.2115 4.91356 10.5864C5.2885 10.9614 5.49941 11.4698 5.5 12C5.5 12.3956 5.3827 12.7822 5.16294 13.1111C4.94318 13.44 4.63082 13.6964 4.26537 13.8478C3.89992 13.9991 3.49778 14.0387 3.10982 13.9616C2.72186 13.8844 2.36549 13.6939 2.08579 13.4142C1.80608 13.1345 1.6156 12.7781 1.53843 12.3902C1.46126 12.0022 1.50087 11.6001 1.65224 11.2346C1.80362 10.8692 2.05996 10.5568 2.38886 10.3371ZM10.8333 14.4944C11.3266 14.8241 11.9067 15 12.5 15C13.2954 14.9991 14.0579 14.6827 14.6203 14.1203C15.1827 13.5579 15.4991 12.7954 15.5 12C15.5 11.4067 15.3241 10.8266 14.9944 10.3333C14.6648 9.83994 14.1962 9.45543 13.6481 9.22836C13.0999 9.0013 12.4967 8.94189 11.9147 9.05765C11.3328 9.1734 10.7982 9.45912 10.3787 9.87868C9.95912 10.2982 9.6734 10.8328 9.55765 11.4147C9.44189 11.9967 9.5013 12.5999 9.72836 13.1481C9.95543 13.6962 10.3399 14.1648 10.8333 14.4944ZM11.3889 10.3371C11.7178 10.1173 12.1044 10 12.5 10C13.0303 10.0006 13.5386 10.2115 13.9136 10.5864C14.2885 10.9614 14.4994 11.4698 14.5 12C14.5 12.3956 14.3827 12.7822 14.1629 13.1111C13.9432 13.44 13.6308 13.6964 13.2654 13.8478C12.8999 13.9991 12.4978 14.0387 12.1098 13.9616C11.7219 13.8844 11.3655 13.6939 11.0858 13.4142C10.8061 13.1345 10.6156 12.7781 10.5384 12.3902C10.4613 12.0022 10.5009 11.6001 10.6522 11.2346C10.8036 10.8692 11.06 10.5568 11.3889 10.3371Z" fill="black"/>
</svg>
