<svg width="16" height="16" viewBox="0 0 16 16" fill="none" xmlns="http://www.w3.org/2000/svg">
<path fill-rule="evenodd" clip-rule="evenodd" d="M2 1H14C14.2651 1.0003 14.5193 1.10576 14.7068 1.29323C14.8942 1.4807 14.9997 1.73488 15 2V14C14.9996 14.2651 14.8942 14.5193 14.7067 14.7067C14.5193 14.8942 14.2651 14.9996 14 15H8V14H14.001L14.0005 6.5H2V8H1V2C1.00026 1.73486 1.10571 1.48066 1.29319 1.29319C1.48066 1.10571 1.73486 1.00026 2 1ZM2 5.5H6V2H2V5.5ZM7 2V5.5H14.0003L14 2H7ZM10 8H11V13H10V8ZM2 10V11H4.293L1 14.293L1.707 15L5 11.707V14H6V10H2ZM13 10.5H12V13H13V10.5ZM9 9H8V13H9V9Z" fill="black"/>
</svg>
