<svg width="16" height="16" viewBox="0 0 16 16" fill="none" xmlns="http://www.w3.org/2000/svg">
<path fill-rule="evenodd" clip-rule="evenodd" d="M2.5 1.5H13.5C13.7651 1.50036 14.0193 1.60583 14.2067 1.79329C14.3942 1.98075 14.4996 2.23489 14.5 2.5V13.5C14.4996 13.7651 14.3942 14.0193 14.2067 14.2067C14.0193 14.3942 13.7651 14.4996 13.5 14.5H8V13.5H13.5V5.5H2.5V8H1.5V2.5C1.50036 2.23489 1.60583 1.98075 1.79329 1.79329C1.98075 1.60583 2.23489 1.50036 2.5 1.5ZM2.5 4.5H13.5V2.5H2.5V4.5ZM10 7H12V8H10V7ZM10 9H8V10H10V9ZM2 11V10H6V14H5V11.707L1.707 15L1 14.293L4.293 11H2ZM10 11H12V12H10V11ZM6 7H4V8H6V7Z" fill="black"/>
</svg>
