<svg width="16" height="16" viewBox="0 0 16 16" fill="none" xmlns="http://www.w3.org/2000/svg">
<path fill-rule="evenodd" clip-rule="evenodd" d="M13.5 9V11.07C13.9713 11.1917 14.3821 11.4811 14.6553 11.884C14.9285 12.2869 15.0454 12.7756 14.9841 13.2585C14.9227 13.7414 14.6874 14.1854 14.3221 14.5072C13.9569 14.829 13.4868 15.0065 13 15.0065C12.5132 15.0065 12.0431 14.829 11.6779 14.5072C11.3126 14.1854 11.0773 13.7414 11.0159 13.2585C10.9546 12.7756 11.0715 12.2869 11.3447 11.884C11.6179 11.4811 12.0287 11.1917 12.5 11.07V9H8.5V11H10V15H6V11H7.5V9H3.5V11.07C3.97133 11.1917 4.3821 11.4811 4.65531 11.884C4.92851 12.2869 5.0454 12.7756 4.98406 13.2585C4.92273 13.7414 4.68737 14.1854 4.32212 14.5072C3.95687 14.829 3.48679 15.0065 3 15.0065C2.51322 15.0065 2.04314 14.829 1.67789 14.5072C1.31264 14.1854 1.07728 13.7414 1.01595 13.2585C0.954608 12.7756 1.0715 12.2869 1.3447 11.884C1.61791 11.4811 2.02868 11.1917 2.5 11.07V9C2.5 8.73478 2.60536 8.48043 2.7929 8.29289C2.98043 8.10536 3.23479 8 3.5 8H7.5V6H3C2.73479 6 2.48043 5.89464 2.2929 5.70711C2.10536 5.51957 2 5.26522 2 5V2C2 1.73478 2.10536 1.48043 2.2929 1.29289C2.48043 1.10536 2.73479 1 3 1H13C13.2652 1 13.5196 1.10536 13.7071 1.29289C13.8946 1.48043 14 1.73478 14 2V5C14 5.26522 13.8946 5.51957 13.7071 5.70711C13.5196 5.89464 13.2652 6 13 6H8.5V8H12.5C12.7652 8 13.0196 8.10536 13.2071 8.29289C13.3946 8.48043 13.5 8.73478 13.5 9ZM3.83147 13.5556C3.94136 13.3911 4 13.1978 4 13C4 12.7348 3.89465 12.4804 3.70711 12.2929C3.51958 12.1054 3.26522 12 3 12C2.80222 12 2.60888 12.0586 2.44443 12.1685C2.27999 12.2784 2.15181 12.4346 2.07613 12.6173C2.00044 12.8 1.98063 13.0011 2.01922 13.1951C2.0578 13.3891 2.15305 13.5673 2.2929 13.7071C2.43275 13.847 2.61093 13.9422 2.80491 13.9808C2.9989 14.0194 3.19996 13.9996 3.38269 13.9239C3.56541 13.8482 3.72159 13.72 3.83147 13.5556ZM7 14H9V12H7V14ZM3 2V5H13V2H3ZM12.4444 13.8315C12.6089 13.9414 12.8022 14 13 14C13.2652 14 13.5196 13.8946 13.7071 13.7071C13.8946 13.5196 14 13.2652 14 13C14 12.8022 13.9414 12.6089 13.8315 12.4444C13.7216 12.28 13.5654 12.1518 13.3827 12.0761C13.2 12.0004 12.9989 11.9806 12.8049 12.0192C12.6109 12.0578 12.4328 12.153 12.2929 12.2929C12.153 12.4327 12.0578 12.6109 12.0192 12.8049C11.9806 12.9989 12.0004 13.2 12.0761 13.3827C12.1518 13.5654 12.28 13.7216 12.4444 13.8315ZM5.00001 3.5C5.00001 3.77614 4.77615 4 4.50001 4C4.22387 4 4.00001 3.77614 4.00001 3.5C4.00001 3.22386 4.22387 3 4.50001 3C4.77615 3 5.00001 3.22386 5.00001 3.5Z" fill="black"/>
</svg>
