<svg width="16" height="16" viewBox="0 0 16 16" fill="none" xmlns="http://www.w3.org/2000/svg">
<path fill-rule="evenodd" clip-rule="evenodd" d="M4 1.5H12C12.2652 1.5 12.5196 1.60536 12.7071 1.79289C12.8946 1.98043 13 2.23478 13 2.5V10.5H4V13.5H8V14.5H4C3.73478 14.5 3.48043 14.3946 3.29289 14.2071C3.10536 14.0196 3 13.7652 3 13.5V2.5C3 2.23478 3.10536 1.98043 3.29289 1.79289C3.48043 1.60536 3.73478 1.5 4 1.5ZM4 9.5H12V6.5H4V9.5ZM4 5.5H12V2.5H4V5.5ZM5.5 4.5C5.77614 4.5 6 4.27614 6 4C6 3.72386 5.77614 3.5 5.5 3.5C5.22386 3.5 5 3.72386 5 4C5 4.27614 5.22386 4.5 5.5 4.5ZM11.5 13.59L10.205 12.295L9.5 13L11.5 15L15 11.5L14.295 10.795L11.5 13.59ZM6 8C6 8.27614 5.77614 8.5 5.5 8.5C5.22386 8.5 5 8.27614 5 8C5 7.72386 5.22386 7.5 5.5 7.5C5.77614 7.5 6 7.72386 6 8ZM5.5 12.5C5.77614 12.5 6 12.2761 6 12C6 11.7239 5.77614 11.5 5.5 11.5C5.22386 11.5 5 11.7239 5 12C5 12.2761 5.22386 12.5 5.5 12.5Z" fill="black"/>
</svg>
