<svg width="16" height="16" viewBox="0 0 16 16" fill="none" xmlns="http://www.w3.org/2000/svg">
<path fill-rule="evenodd" clip-rule="evenodd" d="M2 13.5H6.5V12.5H2V2.5H5.79285L7.79285 4.5H14V8H15V4.5C14.9993 3.948 14.552 3.50065 14 3.5H8.20715L6.5 1.79295C6.3129 1.60475 6.05825 1.49925 5.79285 1.5H2C1.448 1.50065 1.00065 1.948 1 2.5V12.5C1.00065 13.052 1.448 13.4994 2 13.5ZM7.5 9.5C6.67285 9.5 6 8.8271 6 8C6 7.1729 6.67285 6.5 7.5 6.5C8.32715 6.5 9 7.1729 9 8C9 8.8271 8.32715 9.5 7.5 9.5ZM7.5 7.5C7.22425 7.5 7 7.7243 7 8C7 8.2757 7.22425 8.5 7.5 8.5C7.77575 8.5 8 8.2757 8 8C8 7.7243 7.77575 7.5 7.5 7.5ZM11 10.5C11 11.0523 10.5523 11.5 10 11.5C9.44771 11.5 9 11.0523 9 10.5C9 9.94771 9.44771 9.5 10 9.5C10.5523 9.5 11 9.94771 11 10.5ZM11 13C11 13.8271 11.6728 14.5 12.5 14.5C13.3272 14.5 14 13.8271 14 13C14 12.1729 13.3272 11.5 12.5 11.5C11.6728 11.5 11 12.1729 11 13ZM12 13C12 12.7243 12.2242 12.5 12.5 12.5C12.7758 12.5 13 12.7243 13 13C13 13.2757 12.7758 13.5 12.5 13.5C12.2242 13.5 12 13.2757 12 13Z" fill="black"/>
</svg>
