<svg width="16" height="16" viewBox="0 0 16 16" fill="none" xmlns="http://www.w3.org/2000/svg">
<path fill-rule="evenodd" clip-rule="evenodd" d="M2.83002 3.9751H1.11722V12.0001H2.55422V6.2401H2.60037L3.22122 7.5161L4.86527 10.5511L6.50932 7.5161L7.13037 6.2401H7.17627V12.0001H8.61357V3.9751H6.96927L4.93427 7.89575H4.88812L2.83002 3.9751ZM9.88025 13.0231C9.88025 13.9084 10.6505 14.4373 12.6741 14.4373C14.9737 14.4373 15.8243 13.759 15.8241 12.5059C15.8241 11.4252 15.1918 10.7928 13.7201 10.7928H12.1109C11.5819 10.7928 11.3289 10.6434 11.3289 10.3444C11.338 10.2222 11.3833 10.1054 11.4591 10.0092C11.5349 9.91288 11.6378 9.84144 11.7545 9.80402C12.0555 9.87705 12.3645 9.91182 12.6741 9.90752C14.3067 9.90752 15.1575 9.10272 15.1575 7.89547C15.1748 7.55811 15.0966 7.22273 14.9318 6.92783C14.7671 6.63293 14.5225 6.39048 14.2261 6.22832V6.06732H15.5023V4.94062H14.5712C14.454 4.92643 14.3352 4.93948 14.2239 4.97873C14.1125 5.01798 14.0118 5.08239 13.9294 5.16694C13.8471 5.25148 13.7854 5.35389 13.7491 5.4662C13.7127 5.5785 13.7028 5.69766 13.7201 5.81442V6.00982C13.3816 5.90469 13.0285 5.85417 12.6741 5.86017C11.0528 5.86017 10.1905 6.67642 10.1905 7.89517C10.1734 8.26296 10.2688 8.62724 10.4639 8.93947C10.659 9.25169 10.9447 9.49704 11.2828 9.64282V9.68872C10.7081 9.81522 10.1793 10.1256 10.1793 10.7466C10.1705 10.9771 10.2428 11.2033 10.3835 11.386C10.5242 11.5687 10.7245 11.6963 10.9495 11.7466V11.8731C10.8036 11.8778 10.6601 11.9114 10.5272 11.9718C10.3943 12.0323 10.2747 12.1184 10.1753 12.2253C10.0759 12.3323 9.99864 12.4578 9.948 12.5947C9.89736 12.7317 9.87433 12.8772 9.88025 13.0231ZM11.3751 12.0688H13.4215C14.1688 12.0688 14.4451 12.2988 14.4451 12.6782C14.4451 13.184 14.0194 13.4255 13.0651 13.4255H12.3292C11.4093 13.4255 11.0645 13.1496 11.0645 12.6896C11.0613 12.5686 11.0879 12.4486 11.1421 12.3403C11.1963 12.232 11.2763 12.1388 11.3751 12.0688ZM13.755 7.79167V7.98727H13.7551C13.7551 8.58482 13.3755 8.90727 12.6741 8.90727C11.9727 8.90727 11.5933 8.58502 11.5933 7.98727V7.79167C11.5933 7.18212 11.9727 6.87167 12.6741 6.87167C13.3756 6.87167 13.755 7.18232 13.755 7.79167Z" fill="black"/>
</svg>
