<svg width="16" height="16" viewBox="0 0 16 16" fill="none" xmlns="http://www.w3.org/2000/svg">
<path fill-rule="evenodd" clip-rule="evenodd" d="M12.8003 10.9999H12.8578V11.9999H14.3294V3.49219H12.8578V6.98719H12.8003C12.6857 6.64404 12.4617 6.34798 12.1626 6.14445C11.8635 5.94092 11.5059 5.84116 11.1446 5.86049C9.63844 5.86049 8.79904 6.98719 8.79904 8.98779C8.79904 10.9999 9.63844 12.1381 11.1446 12.1381C11.5062 12.1512 11.8624 12.0476 12.1606 11.8426C12.4588 11.6377 12.683 11.3422 12.8003 10.9999ZM12.8578 8.03324V9.94179C12.8578 10.5627 12.3174 10.9191 11.6161 10.9193C11.437 10.9214 11.2594 10.8855 11.0951 10.8141C10.9308 10.7426 10.7836 10.6371 10.663 10.5046C10.5424 10.3721 10.4513 10.2155 10.3956 10.0453C10.34 9.87498 10.321 9.69483 10.34 9.51669V8.48169C10.3208 8.30295 10.3396 8.12219 10.3951 7.95121C10.4505 7.78022 10.5414 7.62286 10.6619 7.4894C10.7823 7.35594 10.9295 7.24938 11.0939 7.17669C11.2583 7.104 11.4362 7.0668 11.6159 7.06754C12.3174 7.06754 12.8578 7.44689 12.8578 8.03324ZM1.76123 12.0001H3.27893V8.90735H4.71618L6.21103 12.0001H7.90103L6.25683 8.7351C6.72421 8.57675 7.12522 8.26666 7.39605 7.85415C7.66689 7.44164 7.792 6.95041 7.75148 6.4586C7.75148 4.9409 6.84293 3.9751 5.38293 3.9751H1.76123V12.0001ZM5.60306 7.59344C5.4842 7.63327 5.35797 7.64613 5.23353 7.6311H3.27893V5.2971H5.23353C5.35722 5.28077 5.483 5.29233 5.60164 5.33094C5.72029 5.36954 5.82878 5.43421 5.91918 5.5202C6.00958 5.60619 6.0796 5.71132 6.12408 5.82789C6.16857 5.94445 6.1864 6.06949 6.17628 6.19385V6.72275C6.18668 6.84766 6.16913 6.97333 6.12492 7.09062C6.08071 7.20791 6.01094 7.31389 5.92067 7.40086C5.83041 7.48784 5.72191 7.55362 5.60306 7.59344Z" fill="black"/>
</svg>
