<svg width="16" height="16" viewBox="0 0 16 16" fill="none" xmlns="http://www.w3.org/2000/svg">
<path fill-rule="evenodd" clip-rule="evenodd" d="M1.96823 12.0001H3.48583V8.90735H4.92308L6.41788 12.0001H8.10788L6.46398 8.7351C6.93136 8.57675 7.33237 8.26666 7.6032 7.85415C7.87404 7.44164 7.99915 6.95041 7.95863 6.4586C7.95863 4.9409 7.04998 3.9751 5.58998 3.9751H1.96823V12.0001ZM5.80997 7.59344C5.69111 7.63326 5.56488 7.64613 5.44043 7.6311H3.48583V5.2971H5.44043C5.56413 5.28076 5.68991 5.29232 5.80857 5.33092C5.92722 5.36952 6.03572 5.43419 6.12613 5.52018C6.21654 5.60617 6.28656 5.7113 6.33106 5.82787C6.37555 5.94444 6.3934 6.06949 6.38328 6.19385V6.72275C6.39366 6.84767 6.3761 6.97334 6.33188 7.09063C6.28766 7.20792 6.21788 7.31389 6.1276 7.40086C6.03733 7.48783 5.92883 7.55362 5.80997 7.59344ZM11.5357 8.5279C9.90286 8.5279 8.97171 9.1375 8.97171 10.3675C8.97171 11.4369 9.66161 12.1382 10.8806 12.138C11.7773 12.138 12.4326 11.7356 12.6282 10.9652H12.697C12.7118 11.2488 12.8365 11.5156 13.0446 11.7088C13.2528 11.902 13.5281 12.0066 13.812 12.0002H14.6284V10.8271H14.0305V7.99875C14.0305 6.6302 13.1682 5.8602 11.5471 5.8602C11.0885 5.82008 10.6276 5.90599 10.2143 6.10866C9.80093 6.31134 9.45079 6.62307 9.20166 7.0102L10.0757 7.79205C10.2169 7.55649 10.4178 7.36232 10.658 7.22911C10.8982 7.0959 11.1692 7.02836 11.4439 7.0333C12.2256 7.0333 12.5589 7.42415 12.5589 8.091V8.5279H11.5357ZM12.5589 9.4133V10.2066C12.5589 10.7702 12.03 11.069 11.3744 11.069C10.7997 11.069 10.4662 10.8275 10.4662 10.3446V10.1492C10.4662 9.6777 10.8457 9.4133 11.6162 9.4133H12.5589Z" fill="black"/>
</svg>
