<svg width="16" height="16" viewBox="0 0 16 16" fill="none" xmlns="http://www.w3.org/2000/svg">
<path fill-rule="evenodd" clip-rule="evenodd" d="M3.34232 3.9751V12.0001H8.63152V10.6551H4.86002V8.60845H8.19452V7.2632H4.86002V5.3201H8.63137V3.9751H3.34232ZM10.4721 7.1707V10.4707C10.4494 10.6791 10.4741 10.8899 10.5444 11.0874C10.6147 11.2849 10.7288 11.4639 10.8782 11.611C11.0275 11.7581 11.2082 11.8695 11.4067 11.9368C11.6052 12.0042 11.8164 12.0257 12.0244 11.9999H13.0823V10.8271H11.9441V7.17085H13.1741V5.99815H11.9441V4.354H10.6218V5.3773C10.6218 5.79125 10.4839 5.99815 10.0471 5.99815H9.58714V7.1707H10.4721Z" fill="black"/>
</svg>
