<svg width="16" height="16" viewBox="0 0 16 16" fill="none" xmlns="http://www.w3.org/2000/svg">
<path fill-rule="evenodd" clip-rule="evenodd" d="M2 13V10H6V9H2V6H11V2C11 1.73478 10.8946 1.48043 10.7071 1.29289C10.5196 1.10536 10.2652 1 10 1H2C1.73478 1 1.48043 1.10536 1.29289 1.29289C1.10536 1.48043 1 1.73478 1 2V13C1 13.2652 1.10536 13.5196 1.29289 13.7071C1.48043 13.8946 1.73478 14 2 14H6V13H2ZM2 2H10V5H2V2ZM3.5 4C3.77614 4 4 3.77614 4 3.5C4 3.22386 3.77614 3 3.5 3C3.22386 3 3 3.22386 3 3.5C3 3.77614 3.22386 4 3.5 4ZM3.5 8C3.77614 8 4 7.77614 4 7.5C4 7.22386 3.77614 7 3.5 7C3.22386 7 3 7.22386 3 7.5C3 7.77614 3.22386 8 3.5 8ZM4 11.5C4 11.7761 3.77614 12 3.5 12C3.22386 12 3 11.7761 3 11.5C3 11.2239 3.22386 11 3.5 11C3.77614 11 4 11.2239 4 11.5ZM14.0001 9.70658V8.50003H15.0001V11.5H12.0001V10.5H13.2882C13.1078 10.0868 12.8191 9.73005 12.4525 9.46753C12.086 9.20501 11.6553 9.0465 11.206 9.00879C10.7567 8.97108 10.3056 9.05557 9.9004 9.25331C9.49522 9.45105 9.15106 9.75468 8.90435 10.1321C8.65764 10.5094 8.51758 10.9465 8.499 11.397C8.48041 11.8475 8.58399 12.2946 8.79878 12.691C9.01356 13.0874 9.33154 13.4183 9.71906 13.6488C10.1066 13.8792 10.5492 14.0006 11.0001 14V15C10.3882 15.0004 9.787 14.8403 9.2564 14.5356C8.72579 14.231 8.28436 13.7926 7.97618 13.264C7.66799 12.7355 7.50383 12.1353 7.50007 11.5235C7.49631 10.9117 7.65309 10.3096 7.95476 9.77731C8.25642 9.24502 8.69243 8.80116 9.21925 8.49004C9.74608 8.17892 10.3453 8.01143 10.9571 8.00427C11.5689 7.99711 12.1718 8.15054 12.7058 8.44925C13.2397 8.74796 13.686 9.18149 14.0001 9.70658Z" fill="black"/>
</svg>
