<svg width="16" height="16" viewBox="0 0 16 16" fill="none" xmlns="http://www.w3.org/2000/svg">
<path fill-rule="evenodd" clip-rule="evenodd" d="M9.8573 6.6504C10.0575 6.55254 10.2772 6.50113 10.5 6.5C10.7967 6.5 11.0867 6.58797 11.3334 6.7528C11.58 6.91762 11.7723 7.15189 11.8858 7.42598C11.9994 7.70006 12.0291 8.00167 11.9712 8.29264C11.9133 8.58361 11.7704 8.85088 11.5607 9.06066C11.3509 9.27044 11.0836 9.4133 10.7926 9.47118C10.5017 9.52906 10.2001 9.49935 9.92598 9.38582C9.65189 9.27229 9.41762 9.08003 9.2528 8.83336C9.08797 8.58668 9 8.29667 9 8C9.00111 7.77725 9.05238 7.55762 9.15 7.3574L8 6.20705L6.85 7.3574C6.94762 7.55762 6.99889 7.77725 7 8C7 8.29667 6.91203 8.58668 6.7472 8.83336C6.58238 9.08003 6.34811 9.27229 6.07403 9.38582C5.79994 9.49935 5.49834 9.52906 5.20737 9.47118C4.91639 9.4133 4.64912 9.27044 4.43934 9.06066C4.22956 8.85088 4.0867 8.58361 4.02882 8.29264C3.97094 8.00167 4.00065 7.70006 4.11418 7.42598C4.22771 7.15189 4.41997 6.91762 4.66665 6.7528C4.91332 6.58797 5.20333 6.5 5.5 6.5C5.72282 6.50113 5.94252 6.55254 6.1427 6.6504L7.29295 5.5L6.1427 4.3496C5.94252 4.44746 5.72282 4.49887 5.5 4.5C5.20333 4.5 4.91332 4.41203 4.66665 4.24721C4.41997 4.08238 4.22771 3.84811 4.11418 3.57403C4.00065 3.29994 3.97094 2.99834 4.02882 2.70737C4.0867 2.41639 4.22956 2.14912 4.43934 1.93934C4.64912 1.72956 4.91639 1.5867 5.20737 1.52882C5.49834 1.47094 5.79994 1.50065 6.07403 1.61418C6.34811 1.72771 6.58238 1.91997 6.7472 2.16665C6.91203 2.41332 7 2.70333 7 3C6.99889 3.22275 6.94762 3.44238 6.85 3.6426L8 4.79295L9.15 3.6426C9.05238 3.44238 9.00111 3.22275 9 3C9 2.70333 9.08797 2.41332 9.2528 2.16665C9.41762 1.91997 9.65189 1.72771 9.92598 1.61418C10.2001 1.50065 10.5017 1.47094 10.7926 1.52882C11.0836 1.5867 11.3509 1.72956 11.5607 1.93934C11.7704 2.14912 11.9133 2.41639 11.9712 2.70737C12.0291 2.99834 11.9994 3.29994 11.8858 3.57403C11.7723 3.84811 11.58 4.08238 11.3334 4.24721C11.0867 4.41203 10.7967 4.5 10.5 4.5C10.2771 4.49891 10.0573 4.4475 9.85705 4.3496L8.70705 5.5L9.8573 6.6504ZM10.7778 2.58427C10.6956 2.52933 10.5989 2.5 10.5 2.5C10.3674 2.50012 10.2403 2.55284 10.1466 2.64658C10.0528 2.74032 10.0001 2.86743 10 3C10 3.09889 10.0293 3.19556 10.0843 3.27779C10.1392 3.36001 10.2173 3.4241 10.3087 3.46194C10.4 3.49978 10.5006 3.50969 10.5975 3.49039C10.6945 3.4711 10.7836 3.42348 10.8536 3.35355C10.9235 3.28363 10.9711 3.19454 10.9904 3.09755C11.0097 3.00056 10.9998 2.90002 10.9619 2.80866C10.9241 2.7173 10.86 2.63921 10.7778 2.58427ZM5.08427 2.72222C5.02933 2.80444 5 2.90111 5 3C5.00012 3.13257 5.05284 3.25968 5.14658 3.35342C5.24032 3.44716 5.36743 3.49988 5.5 3.5C5.59889 3.5 5.69556 3.47068 5.77779 3.41574C5.86001 3.36079 5.9241 3.28271 5.96194 3.19134C5.99978 3.09998 6.00969 2.99945 5.99039 2.90246C5.9711 2.80547 5.92348 2.71637 5.85355 2.64645C5.78363 2.57652 5.69454 2.5289 5.59755 2.50961C5.50056 2.49032 5.40002 2.50022 5.30866 2.53806C5.2173 2.5759 5.13921 2.63999 5.08427 2.72222ZM5.22222 8.41574C5.30444 8.47068 5.40111 8.5 5.5 8.5C5.63257 8.49988 5.75968 8.44717 5.85342 8.35342C5.94717 8.25968 5.99988 8.13257 6 8C6 7.90111 5.97068 7.80444 5.91574 7.72222C5.8608 7.63999 5.78271 7.5759 5.69134 7.53806C5.59998 7.50022 5.49945 7.49031 5.40246 7.50961C5.30547 7.5289 5.21637 7.57652 5.14645 7.64645C5.07652 7.71637 5.0289 7.80546 5.00961 7.90246C4.99032 7.99945 5.00022 8.09998 5.03806 8.19134C5.0759 8.2827 5.13999 8.3608 5.22222 8.41574ZM10.2222 8.41574C10.3044 8.47068 10.4011 8.5 10.5 8.5C10.6326 8.49988 10.7597 8.44717 10.8534 8.35342C10.9472 8.25968 10.9999 8.13257 11 8C11 7.90111 10.9707 7.80444 10.9157 7.72222C10.8608 7.63999 10.7827 7.5759 10.6913 7.53806C10.6 7.50022 10.4994 7.49031 10.4025 7.50961C10.3055 7.5289 10.2164 7.57652 10.1464 7.64645C10.0765 7.71637 10.0289 7.80546 10.0096 7.90246C9.99032 7.99945 10.0002 8.09998 10.0381 8.19134C10.0759 8.2827 10.14 8.3608 10.2222 8.41574ZM14 10H13V11H14V14H2V11H3V10H2C1.73488 10.0003 1.48071 10.1058 1.29324 10.2932C1.10578 10.4807 1.00032 10.7349 1 11V14C1.00032 14.2651 1.10578 14.5193 1.29324 14.7068C1.48071 14.8942 1.73488 14.9997 2 15H14C14.2651 14.9997 14.5193 14.8942 14.7068 14.7068C14.8942 14.5193 14.9997 14.2651 15 14V11C14.9997 10.7349 14.8942 10.4807 14.7068 10.2932C14.5193 10.1058 14.2651 10.0003 14 10ZM3.5 13C3.77614 13 4 12.7761 4 12.5C4 12.2239 3.77614 12 3.5 12C3.22386 12 3 12.2239 3 12.5C3 12.7761 3.22386 13 3.5 13Z" fill="black"/>
</svg>
