<svg width="16" height="16" viewBox="0 0 16 16" fill="none" xmlns="http://www.w3.org/2000/svg">
<path fill-rule="evenodd" clip-rule="evenodd" d="M2 1H11C11.265 1.00077 11.5189 1.10637 11.7063 1.29374C11.8936 1.48111 11.9992 1.73502 12 2V7.5H11V2H2V14H6V15H2C1.73502 14.9992 1.48111 14.8936 1.29374 14.7063C1.10637 14.5189 1.00077 14.265 1 14V2C1.00077 1.73502 1.10637 1.48111 1.29374 1.29374C1.48111 1.10637 1.73502 1.00077 2 1ZM9.5 3.5H3.5V4.5H9.5V3.5ZM3.5 6H9.5V7H3.5V6ZM6 8.5H3.5V9.5H6V8.5ZM13.3552 9.78629C14.0464 10.2732 14.5795 10.9522 14.8884 11.7393L15 12L14.8884 12.2607C14.5795 13.0478 14.0464 13.7268 13.3552 14.2137C12.664 14.7006 11.8451 14.974 11 15C10.1549 14.974 9.33603 14.7006 8.64484 14.2137C7.95365 13.7268 7.42052 13.0478 7.11155 12.2607L7 12L7.11155 11.7393C7.42052 10.9522 7.95365 10.2732 8.64484 9.78629C9.33603 9.29937 10.1549 9.02598 11 9C11.8451 9.02598 12.664 9.29937 13.3552 9.78629ZM9.88886 13.6629C10.2178 13.8827 10.6044 14 11 14C11.5303 13.9994 12.0386 13.7885 12.4136 13.4136C12.7885 13.0386 12.9994 12.5303 13 12C13 11.6044 12.8827 11.2178 12.6629 10.8889C12.4432 10.56 12.1308 10.3036 11.7654 10.1522C11.3999 10.0009 10.9978 9.96126 10.6098 10.0384C10.2219 10.1156 9.86549 10.3061 9.58579 10.5858C9.30608 10.8655 9.1156 11.2219 9.03843 11.6098C8.96126 11.9978 9.00087 12.3999 9.15224 12.7654C9.30362 13.1308 9.55996 13.4432 9.88886 13.6629ZM12 12C12 12.5523 11.5523 13 11 13C10.4477 13 10 12.5523 10 12C10 11.4477 10.4477 11 11 11C11.5523 11 12 11.4477 12 12Z" fill="black"/>
</svg>
