<svg width="16" height="16" viewBox="0 0 16 16" fill="none" xmlns="http://www.w3.org/2000/svg">
<path fill-rule="evenodd" clip-rule="evenodd" d="M2 2H14C14.2651 2.0003 14.5193 2.10576 14.7068 2.29323C14.8942 2.4807 14.9997 2.73488 15 3V14C14.9997 14.2651 14.8942 14.5193 14.7068 14.7068C14.5193 14.8942 14.2651 14.9997 14 15H2C1.73488 14.9997 1.4807 14.8942 1.29323 14.7068C1.10576 14.5193 1.0003 14.2651 1 14V3C1.0003 2.73488 1.10576 2.4807 1.29323 2.29323C1.4807 2.10576 1.73488 2.0003 2 2ZM7.5 3H2V14H7.5V3ZM8.5 3V14H14V3H8.5ZM6 4H3.5V5H6V4ZM6 6H3.5V7H6V6ZM3.5 8H6V9H3.5V8ZM12.5 4H10V5H12.5V4ZM10 6H12.5V7H10V6ZM12.5 8H10V9H12.5V8Z" fill="black"/>
</svg>
