<svg width="16" height="16" viewBox="0 0 16 16" fill="none" xmlns="http://www.w3.org/2000/svg">
<path fill-rule="evenodd" clip-rule="evenodd" d="M5.22225 3.29493C4.93446 3.10264 4.59612 3 4.25 3C3.78587 3 3.34075 3.18437 3.01256 3.51256C2.68438 3.84075 2.5 4.28587 2.5 4.75C2.5 5.09612 2.60264 5.43446 2.79493 5.72225C2.98722 6.01003 3.26053 6.23434 3.58031 6.36679C3.90008 6.49924 4.25194 6.5339 4.59141 6.46637C4.93088 6.39885 5.2427 6.23218 5.48744 5.98744C5.73218 5.74269 5.89885 5.43088 5.96638 5.09141C6.0339 4.75194 5.99924 4.40007 5.86679 4.0803C5.73434 3.76053 5.51004 3.48722 5.22225 3.29493ZM2.72218 2.46346C3.17442 2.16128 3.7061 2 4.25 2C4.97935 2 5.67882 2.28973 6.19454 2.80546C6.71027 3.32118 7 4.02065 7 4.75C7 5.2939 6.83872 5.82558 6.53654 6.27782C6.23437 6.73005 5.80488 7.08253 5.30238 7.29067C4.79988 7.49881 4.24695 7.55327 3.7135 7.44716C3.18006 7.34105 2.69005 7.07914 2.30546 6.69454C1.92086 6.30995 1.65895 5.81995 1.55284 5.2865C1.44673 4.75305 1.50119 4.20012 1.70933 3.69762C1.91747 3.19512 2.26995 2.76563 2.72218 2.46346ZM12.5 2V6.5H14V7.5H10V6.5H11.5V4H10V3H11.5V2H12.5ZM4.25 10C4.59612 10 4.93446 10.1026 5.22225 10.2949C5.51004 10.4872 5.73434 10.7605 5.86679 11.0803C5.99924 11.4001 6.0339 11.7519 5.96638 12.0914C5.89885 12.4309 5.73218 12.7427 5.48744 12.9874C5.2427 13.2322 4.93088 13.3989 4.59141 13.4664C4.25194 13.5339 3.90008 13.4992 3.58031 13.3668C3.26053 13.2343 2.98722 13.01 2.79493 12.7222C2.60264 12.4345 2.5 12.0961 2.5 11.75C2.5 11.2859 2.68438 10.8408 3.01256 10.5126C3.34075 10.1844 3.78587 10 4.25 10ZM4.25 9C3.7061 9 3.17442 9.16128 2.72218 9.46346C2.26995 9.76563 1.91747 10.1951 1.70933 10.6976C1.50119 11.2001 1.44673 11.7531 1.55284 12.2865C1.65895 12.8199 1.92086 13.3099 2.30546 13.6945C2.69005 14.0791 3.18006 14.3411 3.7135 14.4472C4.24695 14.5533 4.79988 14.4988 5.30238 14.2907C5.80488 14.0825 6.23437 13.7301 6.53654 13.2778C6.83872 12.8256 7 12.2939 7 11.75C7 11.0207 6.71027 10.3212 6.19454 9.80546C5.67882 9.28973 4.97935 9 4.25 9ZM12.7223 10.2949C12.4345 10.1026 12.0961 10 11.75 10C11.2859 10 10.8408 10.1844 10.5126 10.5126C10.1844 10.8408 10 11.2859 10 11.75C10 12.0961 10.1026 12.4345 10.2949 12.7222C10.4872 13.01 10.7605 13.2343 11.0803 13.3668C11.4001 13.4992 11.7519 13.5339 12.0914 13.4664C12.4309 13.3989 12.7427 13.2322 12.9874 12.9874C13.2322 12.7427 13.3989 12.4309 13.4664 12.0914C13.5339 11.7519 13.4992 11.4001 13.3668 11.0803C13.2343 10.7605 13.01 10.4872 12.7223 10.2949ZM10.2222 9.46346C10.6744 9.16128 11.2061 9 11.75 9C12.4794 9 13.1788 9.28973 13.6945 9.80546C14.2103 10.3212 14.5 11.0207 14.5 11.75C14.5 12.2939 14.3387 12.8256 14.0365 13.2778C13.7344 13.7301 13.3049 14.0825 12.8024 14.2907C12.2999 14.4988 11.747 14.5533 11.2135 14.4472C10.6801 14.3411 10.1901 14.0791 9.80546 13.6945C9.42087 13.3099 9.15895 12.8199 9.05285 12.2865C8.94674 11.7531 9.0012 11.2001 9.20934 10.6976C9.41748 10.1951 9.76995 9.76563 10.2222 9.46346Z" fill="black"/>
</svg>
