<svg width="16" height="16" viewBox="0 0 16 16" fill="none" xmlns="http://www.w3.org/2000/svg">
<path fill-rule="evenodd" clip-rule="evenodd" d="M5.04034 3.9751H2.11989V12.0001H5.04044C7.13294 12.0001 8.50099 10.6555 8.50099 7.9878C8.50099 5.3201 7.13284 3.9751 5.04034 3.9751ZM6.89139 8.6201C6.89139 9.9882 6.16704 10.6551 5.04034 10.6551H3.63769V5.3201H5.04034C6.16704 5.3201 6.89139 5.9869 6.89139 7.3551V8.6201ZM10.3312 10.1604L9.43433 11.0342C9.73463 11.3977 10.1152 11.6866 10.5461 11.8781C10.9771 12.0696 11.4465 12.1585 11.9176 12.1378C13.4123 12.1378 14.3896 11.333 14.3896 10.1717C14.3896 9.17148 13.7572 8.58503 12.4466 8.40108L11.8372 8.32063C11.2737 8.22858 11.0553 8.04473 11.0553 7.64228C11.0553 7.27438 11.3312 7.02143 11.9637 7.02143C12.2345 7.02488 12.5017 7.08378 12.7489 7.19451C12.9961 7.30524 13.218 7.46544 13.4008 7.66523L14.2631 6.80293C13.9705 6.47663 13.6068 6.22192 13.2001 6.05846C12.7935 5.895 12.3547 5.82716 11.9176 5.86018C10.5495 5.86018 9.64118 6.59603 9.64118 7.75728C9.64118 8.84958 10.3539 9.41293 11.6416 9.57378L12.2395 9.65438C12.7685 9.72333 12.9754 9.94168 12.9754 10.2867C12.9754 10.7123 12.6764 10.9767 11.9751 10.9767C11.6573 10.9733 11.3444 10.8981 11.0597 10.7567C10.775 10.6154 10.526 10.4115 10.3312 10.1604Z" fill="black"/>
</svg>
