<svg width="16" height="16" viewBox="0 0 16 16" fill="none" xmlns="http://www.w3.org/2000/svg">
<path d="M14 1.50005C13.6907 1.50067 13.3892 1.59716 13.137 1.77625C12.8848 1.95535 12.6944 2.20822 12.5918 2.50005H10.929C10.82 2.07116 10.5711 1.69083 10.2218 1.41918C9.87244 1.14754 9.44253 1.00006 9 1.00006C8.55747 1.00006 8.12756 1.14754 7.77821 1.41918C7.42887 1.69083 7.18002 2.07116 7.071 2.50005H4.929C4.84152 2.15893 4.66534 1.84702 4.41835 1.59601C4.17136 1.34499 3.86234 1.16379 3.52268 1.07082C3.18301 0.977839 2.8248 0.976392 2.48439 1.06662C2.14399 1.15685 1.83352 1.33554 1.58451 1.58456C1.33549 1.83357 1.1568 2.14404 1.06657 2.48444C0.976342 2.82485 0.97779 3.18306 1.07077 3.52273C1.16374 3.86239 1.34494 4.17141 1.59596 4.4184C1.84697 4.66539 2.15888 4.84157 2.5 4.92905V7.07105C2.07111 7.18007 1.69078 7.42892 1.41914 7.77826C1.14749 8.12761 1.00001 8.55752 1.00001 9.00005C1.00001 9.44258 1.14749 9.87249 1.41914 10.2218C1.69078 10.5712 2.07111 10.82 2.5 10.929V12.5919C2.16639 12.7098 1.88522 12.9419 1.70618 13.2471C1.52714 13.5523 1.46176 13.911 1.5216 14.2598C1.58144 14.6085 1.76263 14.9249 2.03317 15.153C2.3037 15.381 2.64615 15.5061 3 15.5061C3.35384 15.5061 3.69629 15.381 3.96683 15.153C4.23736 14.9249 4.41856 14.6085 4.4784 14.2598C4.53823 13.911 4.47285 13.5523 4.29381 13.2471C4.11478 12.9419 3.83361 12.7098 3.5 12.5919V10.929C3.81123 10.8483 4.09824 10.6933 4.33645 10.4773L6.01835 11.3183C6.0085 11.3784 6.00237 11.4391 6 11.5C5.99865 11.8475 6.11748 12.1847 6.33635 12.4545C6.55522 12.7243 6.86067 12.9102 7.2009 12.9805C7.54114 13.0509 7.89523 13.0014 8.20317 12.8405C8.51111 12.6797 8.75393 12.4172 8.89049 12.0978C9.02705 11.7783 9.04894 11.4214 8.95244 11.0877C8.85595 10.7539 8.64701 10.4638 8.36104 10.2664C8.07508 10.0691 7.72968 9.97677 7.3834 10.005C7.03711 10.0333 6.71125 10.1804 6.46105 10.4214L4.8872 9.63455C4.95928 9.43065 4.99739 9.2163 5 9.00005C4.99866 8.55786 4.85067 8.12861 4.57923 7.77953C4.30779 7.43046 3.92823 7.18129 3.5 7.07105V4.92905C3.84374 4.83945 4.15738 4.6598 4.40856 4.40861C4.65975 4.15743 4.8394 3.84379 4.929 3.50005H7.071C7.13271 3.75202 7.24362 3.9893 7.39735 4.19826C7.55108 4.40721 7.7446 4.58372 7.96679 4.71762C8.18897 4.85153 8.43543 4.9402 8.692 4.97852C8.94857 5.01685 9.21018 5.00408 9.4618 4.94095L10.3677 6.5262C10.1322 6.79831 10.0008 7.14504 9.99659 7.50487C9.99243 7.86469 10.1158 8.21437 10.345 8.49186C10.5741 8.76935 10.8941 8.95672 11.2482 9.02074C11.6023 9.08476 11.9676 9.02129 12.2794 8.84158C12.5912 8.66187 12.8292 8.37755 12.9513 8.03904C13.0734 7.70053 13.0716 7.32972 12.9463 6.99238C12.821 6.65505 12.5803 6.37299 12.2669 6.19624C11.9534 6.01949 11.5875 5.95948 11.234 6.02685L10.3446 4.47055C10.6293 4.21042 10.8322 3.87329 10.929 3.50005H12.5918C12.684 3.75863 12.8454 3.98692 13.0584 4.15997C13.2715 4.33302 13.5281 4.44418 13.8 4.48129C14.072 4.51841 14.349 4.48006 14.6006 4.37042C14.8523 4.26079 15.0689 4.0841 15.227 3.85965C15.385 3.63521 15.4783 3.37164 15.4967 3.09776C15.515 2.82388 15.4578 2.55022 15.3311 2.30668C15.2045 2.06314 15.0134 1.85909 14.7786 1.71684C14.5438 1.57458 14.2745 1.49959 14 1.50005ZM4 9.00005C4 9.19783 3.94135 9.39117 3.83147 9.55562C3.72159 9.72007 3.56541 9.84824 3.38268 9.92393C3.19996 9.99961 2.99889 10.0194 2.80491 9.98083C2.61093 9.94225 2.43274 9.84701 2.29289 9.70715C2.15304 9.5673 2.0578 9.38912 2.01921 9.19514C1.98063 9.00116 2.00043 8.80009 2.07612 8.61736C2.15181 8.43464 2.27998 8.27846 2.44443 8.16858C2.60888 8.0587 2.80222 8.00005 3 8.00005C3.26512 8.00035 3.5193 8.10581 3.70677 8.29328C3.89424 8.48075 3.99969 8.73492 4 9.00005ZM3 4.00005C2.80222 4.00005 2.60888 3.9414 2.44443 3.83152C2.27998 3.72164 2.15181 3.56546 2.07612 3.38273C2.00043 3.20001 1.98063 2.99894 2.01921 2.80496C2.0578 2.61098 2.15304 2.43279 2.29289 2.29294C2.43274 2.15309 2.61093 2.05785 2.80491 2.01926C2.99889 1.98068 3.19996 2.00048 3.38268 2.07617C3.56541 2.15186 3.72159 2.28003 3.83147 2.44448C3.94135 2.60893 4 2.80227 4 3.00005C3.99973 3.26518 3.89429 3.51938 3.70681 3.70686C3.51933 3.89434 3.26513 3.99978 3 4.00005ZM8 3.00005C8 2.80227 8.05865 2.60893 8.16853 2.44448C8.27841 2.28003 8.43459 2.15186 8.61731 2.07617C8.80004 2.00048 9.00111 1.98068 9.19509 2.01926C9.38907 2.05785 9.56725 2.15309 9.7071 2.29294C9.84696 2.43279 9.9422 2.61098 9.98078 2.80496C10.0194 2.99894 9.99957 3.20001 9.92388 3.38273C9.84819 3.56546 9.72002 3.72164 9.55557 3.83152C9.39112 3.9414 9.19778 4.00005 9 4.00005C8.73486 3.99978 8.48066 3.89434 8.29318 3.70686C8.1057 3.51938 8.00026 3.26518 8 3.00005Z" fill="black"/>
</svg>
