<svg width="16" height="16" viewBox="0 0 16 16" fill="none" xmlns="http://www.w3.org/2000/svg">
<path fill-rule="evenodd" clip-rule="evenodd" d="M2 2.5V7H1V2.5C1.00065 1.94795 1.44795 1.50065 2 1.5H5.79285C6.05825 1.4993 6.3129 1.60475 6.5 1.79295L8.20715 3.5H14C14.552 3.50065 14.9993 3.94795 15 4.5V8.5H14V4.5H7.79285L5.79285 2.5H2ZM2.5 8.00024V10.0002H1C0.44875 10.0002 0 10.4487 0 11.0002V14C0 14.5512 0.44875 15 1 15H3.5V8.00024H2.5ZM1 11H2.5V14H1V11ZM12 11V10H10.5V9H9.5V10H8.5V11H9.5V14C9.5 14.5513 9.94875 15 10.5 15H12V14H10.5V11H12ZM16 11C16 10.4485 15.5513 10 15 10H13V11H15V12H13.5C12.9477 12 12.5 12.4477 12.5 13V14C12.5 14.5523 12.9477 15 13.5 15H16V11ZM15 14H13.5V13H15V14ZM5 10H7C7.55125 10 8 10.4485 8 11V15H5.5C4.9477 15 4.5 14.5523 4.5 14V13C4.5 12.4477 4.9477 12 5.5 12H7V11H5V10ZM5.5 14H7V13H5.5V14Z" fill="black"/>
</svg>
