<svg width="16" height="16" viewBox="0 0 16 16" fill="none" xmlns="http://www.w3.org/2000/svg">
<path fill-rule="evenodd" clip-rule="evenodd" d="M5.22215 10.1573C6.04439 10.7068 7.01109 11 8 11C9.32562 10.9985 10.5965 10.4712 11.5339 9.53388C12.4712 8.59653 12.9985 7.32563 13 6C13 5.0111 12.7068 4.0444 12.1573 3.22215C11.6079 2.39991 10.827 1.75904 9.91342 1.3806C8.99978 1.00217 7.99445 0.90315 7.02455 1.09608C6.05464 1.289 5.16373 1.76521 4.46446 2.46447C3.7652 3.16373 3.289 4.05465 3.09607 5.02455C2.90315 5.99446 3.00216 6.99979 3.3806 7.91342C3.75904 8.82705 4.3999 9.60794 5.22215 10.1573ZM5.77772 2.67412C6.43551 2.2346 7.20887 2 8 2C9.06049 2.00122 10.0772 2.42304 10.8271 3.17292C11.577 3.9228 11.9988 4.93951 12 6C12 6.79113 11.7654 7.56449 11.3259 8.22228C10.8864 8.88008 10.2616 9.39277 9.53073 9.69552C8.79983 9.99827 7.99556 10.0775 7.21964 9.92314C6.44371 9.7688 5.73098 9.38784 5.17157 8.82843C4.61216 8.26902 4.2312 7.55629 4.07686 6.78036C3.92252 6.00444 4.00173 5.20017 4.30448 4.46927C4.60723 3.73836 5.11992 3.11365 5.77772 2.67412ZM6.5 3.75V8.2495L10.5 6L6.5 3.75ZM14 12V13H7.9082C7.80623 12.7078 7.61589 12.4546 7.36358 12.2754C7.11127 12.0962 6.80946 12 6.5 12C6.19054 12 5.88873 12.0962 5.63642 12.2754C5.38411 12.4546 5.19377 12.7078 5.0918 13H2V12H1V15H2V14H5.0918C5.19377 14.2922 5.38411 14.5454 5.63642 14.7246C5.88873 14.9038 6.19054 15 6.5 15C6.80946 15 7.11127 14.9038 7.36358 14.7246C7.61589 14.5454 7.80623 14.2922 7.9082 14H14V15H15V12H14Z" fill="black"/>
</svg>
