<svg width="16" height="16" viewBox="0 0 16 16" fill="none" xmlns="http://www.w3.org/2000/svg">
<path fill-rule="evenodd" clip-rule="evenodd" d="M2.5 1.5H13.5C13.7651 1.50033 14.0193 1.60579 14.2067 1.79326C14.3942 1.98072 14.4997 2.23489 14.5 2.5V13.5C14.4997 13.7651 14.3942 14.0193 14.2067 14.2067C14.0193 14.3942 13.7651 14.4997 13.5 14.5H2.5C2.23489 14.4997 1.98072 14.3942 1.79326 14.2067C1.60579 14.0193 1.50033 13.7651 1.5 13.5V2.5C1.50033 2.23489 1.60579 1.98072 1.79326 1.79326C1.98072 1.60579 2.23489 1.50033 2.5 1.5ZM13.5 4.5V2.5H2.5V4.5H13.5ZM2.5 5.5V13.5H13.5V5.5H2.5ZM4 7H6V8H4V7ZM6 9H4V10H6V9ZM9 9H7V10H9V9ZM9 11H7V12H9V11ZM10 7H12V8H10V7ZM12 11H10V12H12V11Z" fill="black"/>
</svg>
