<svg width="16" height="16" viewBox="0 0 16 16" fill="none" xmlns="http://www.w3.org/2000/svg">
<path d="M13 7.99999C12.644 8.00179 12.2951 8.0995 11.99 8.28284L10.5607 6.85359L11.7072 5.70709C11.8947 5.51955 12.0001 5.2652 12.0001 4.99999C12.0001 4.73477 11.8947 4.48042 11.7072 4.29289L8.7072 1.29289C8.51967 1.10535 8.26531 1 8.0001 1C7.73489 1 7.48054 1.10535 7.293 1.29289L4.293 4.29289C4.10547 4.48042 4.00011 4.73477 4.00011 4.99999C4.00011 5.2652 4.10547 5.51955 4.293 5.70709L5.4395 6.85359L4.01 8.28284C3.58644 8.03155 3.08571 7.94354 2.60184 8.03533C2.11797 8.12711 1.68426 8.39238 1.38213 8.78132C1.08001 9.17026 0.93027 9.65611 0.961025 10.1476C0.99178 10.6392 1.20092 11.1026 1.54916 11.4508C1.89741 11.7991 2.36081 12.0082 2.85234 12.039C3.34388 12.0697 3.82973 11.92 4.21867 11.6179C4.60761 11.3157 4.87288 10.882 4.96466 10.3981C5.05645 9.91428 4.96844 9.41355 4.71715 8.98999L6.1464 7.56069L7.2929 8.70719C7.35488 8.76751 7.42451 8.81943 7.5 8.86164V11H6V15H10V11H8.5V8.86164C8.5755 8.8194 8.64513 8.76744 8.7071 8.70709L9.8536 7.56059L11.2829 8.98999C11.0615 9.36978 10.9718 9.81208 11.0278 10.2481C11.0837 10.6841 11.2822 11.0895 11.5923 11.401C11.9024 11.7126 12.3068 11.913 12.7425 11.971C13.1783 12.0291 13.621 11.9415 14.0019 11.7219C14.3827 11.5023 14.6803 11.1631 14.8484 10.7569C15.0166 10.3507 15.0458 9.90036 14.9315 9.47587C14.8172 9.05138 14.5659 8.67653 14.2166 8.40963C13.8673 8.14272 13.4396 7.99871 13 7.99999ZM4 9.99999C4 10.1978 3.94135 10.3911 3.83147 10.5556C3.72159 10.72 3.56541 10.8482 3.38268 10.9239C3.19996 10.9996 2.99889 11.0194 2.80491 10.9808C2.61093 10.9422 2.43275 10.8469 2.29289 10.7071C2.15304 10.5672 2.0578 10.3891 2.01922 10.1951C1.98063 10.0011 2.00043 9.80003 2.07612 9.6173C2.15181 9.43458 2.27998 9.2784 2.44443 9.16852C2.60888 9.05864 2.80222 8.99999 3 8.99999C3.26512 9.00029 3.5193 9.10575 3.70677 9.29322C3.89424 9.48069 3.9997 9.73486 4 9.99999ZM9 12V14H7V12H9ZM8 7.99999L5 4.99999L8 1.99999L11 4.99999L8 7.99999ZM13 11C12.8022 11 12.6089 10.9413 12.4444 10.8315C12.28 10.7216 12.1518 10.5654 12.0761 10.3827C12.0004 10.1999 11.9806 9.99888 12.0192 9.8049C12.0578 9.61092 12.153 9.43273 12.2929 9.29288C12.4327 9.15303 12.6109 9.05779 12.8049 9.0192C12.9989 8.98062 13.2 9.00042 13.3827 9.07611C13.5654 9.15179 13.7216 9.27997 13.8315 9.44442C13.9414 9.60886 14 9.80221 14 9.99999C13.9997 10.2651 13.8942 10.5193 13.7068 10.7068C13.5193 10.8942 13.2651 10.9997 13 11Z" fill="black"/>
</svg>
