<svg width="16" height="16" viewBox="0 0 16 16" fill="none" xmlns="http://www.w3.org/2000/svg">
<path fill-rule="evenodd" clip-rule="evenodd" d="M11.5 5H14C14.2651 5.0003 14.5193 5.10576 14.7068 5.29323C14.8942 5.4807 14.9997 5.73488 15 6V14C14.9997 14.2651 14.8942 14.5193 14.7068 14.7068C14.5193 14.8942 14.2651 14.9997 14 15H2C1.73488 14.9997 1.4807 14.8942 1.29323 14.7068C1.10576 14.5193 1.0003 14.2651 1 14V6C1.0003 5.73488 1.10576 5.4807 1.29323 5.29323C1.4807 5.10576 1.73488 5.0003 2 5H4.5V3C4.5003 2.73488 4.60576 2.4807 4.79323 2.29323C4.9807 2.10576 5.23488 2.0003 5.5 2H10.5C10.7651 2.0003 11.0193 2.10576 11.2068 2.29323C11.3942 2.4807 11.4997 2.73488 11.5 3V5ZM2 6V14H4.5V12H3.5V11H4.5V10H3.5V9H4.5V8H3.5V7H4.5V6H2ZM5.5 14H10.5V3H5.5V14ZM11.5 14H14V6H11.5V7H12.5V8H11.5V9H12.5V10H11.5V11H12.5V12H11.5V14ZM7 4H9V5H7V4ZM9 6H7V7H9V6ZM7 8H9V9H7V8Z" fill="black"/>
</svg>
