<svg width="16" height="16" viewBox="0 0 16 16" fill="none" xmlns="http://www.w3.org/2000/svg">
<path fill-rule="evenodd" clip-rule="evenodd" d="M5.22225 3.29493C4.93446 3.10264 4.59612 3 4.25 3C3.78603 3.00053 3.34122 3.18507 3.01315 3.51315C2.68507 3.84122 2.50053 4.28603 2.5 4.75C2.5 5.09612 2.60264 5.43446 2.79493 5.72225C2.98722 6.01003 3.26053 6.23434 3.58031 6.36679C3.90008 6.49924 4.25194 6.5339 4.59141 6.46637C4.93088 6.39885 5.2427 6.23218 5.48744 5.98744C5.73218 5.74269 5.89885 5.43088 5.96638 5.09141C6.0339 4.75194 5.99924 4.40007 5.86679 4.0803C5.73434 3.76053 5.51004 3.48722 5.22225 3.29493ZM2.72218 2.46346C3.17442 2.16128 3.7061 2 4.25 2C4.97935 2 5.67882 2.28973 6.19454 2.80546C6.71027 3.32118 7 4.02065 7 4.75C7 5.2939 6.83872 5.82558 6.53654 6.27782C6.23437 6.73005 5.80488 7.08253 5.30238 7.29067C4.79988 7.49881 4.24695 7.55327 3.7135 7.44716C3.18006 7.34105 2.69005 7.07914 2.30546 6.69454C1.92086 6.30995 1.65895 5.81995 1.55284 5.2865C1.44673 4.75305 1.50119 4.20012 1.70933 3.69762C1.91747 3.19512 2.26995 2.76563 2.72218 2.46346ZM12.5 2V6.5H14V7.5H10V6.5H11.5V4H10V3H11.5V2H12.5ZM11.75 10C12.0961 10 12.4345 10.1026 12.7222 10.2949C13.01 10.4872 13.2343 10.7605 13.3668 11.0803C13.4992 11.4001 13.5339 11.7519 13.4664 12.0914C13.3989 12.4309 13.2322 12.7427 12.9874 12.9874C12.7427 13.2322 12.4309 13.3989 12.0914 13.4664C11.7519 13.5339 11.4001 13.4992 11.0803 13.3668C10.7605 13.2343 10.4872 13.01 10.2949 12.7222C10.1026 12.4345 10 12.0961 10 11.75C10.0005 11.286 10.1851 10.8412 10.5131 10.5131C10.8412 10.1851 11.286 10.0005 11.75 10ZM11.75 9C11.2061 9 10.6744 9.16128 10.2222 9.46346C9.76995 9.76563 9.41747 10.1951 9.20933 10.6976C9.00119 11.2001 8.94673 11.7531 9.05284 12.2865C9.15895 12.8199 9.42086 13.3099 9.80546 13.6945C10.1901 14.0791 10.6801 14.3411 11.2135 14.4472C11.747 14.5533 12.2999 14.4988 12.8024 14.2907C13.3049 14.0825 13.7344 13.7301 14.0365 13.2778C14.3387 12.8256 14.5 12.2939 14.5 11.75C14.5 11.0207 14.2103 10.3212 13.6945 9.80546C13.1788 9.28973 12.4793 9 11.75 9ZM3 10.5V9.5H6.5V13H5.5V11.207L2.707 14L2 13.293L4.793 10.5H3Z" fill="black"/>
</svg>
