<svg width="16" height="16" viewBox="0 0 16 16" fill="none" xmlns="http://www.w3.org/2000/svg">
<path fill-rule="evenodd" clip-rule="evenodd" d="M2.30148 3.9751V12.0001H3.81933V8.942H5.91148C7.39473 8.942 8.29148 7.95325 8.29148 6.4586C8.29148 4.9751 7.39488 3.9751 5.91148 3.9751H2.30148ZM5.77393 7.6311H3.81933V5.2971H5.77393C5.89762 5.28078 6.02339 5.29235 6.14202 5.33095C6.26065 5.36956 6.36914 5.43423 6.45952 5.52022C6.54991 5.60622 6.61991 5.71135 6.66438 5.82791C6.70885 5.94447 6.72667 6.0695 6.71653 6.19385V6.72275C6.72695 6.84765 6.70942 6.97331 6.66522 7.0906C6.62102 7.20789 6.55127 7.31387 6.46102 7.40084C6.37076 7.48781 6.26228 7.5536 6.14343 7.59343C6.02459 7.63326 5.89837 7.64612 5.77393 7.6311ZM8.69611 13.0233C8.69611 13.9086 9.46636 14.4375 11.4901 14.4375C13.7891 14.4375 14.6401 13.7592 14.6399 12.5059C14.6399 11.4252 14.0076 10.7927 12.5359 10.7927H10.9263C10.3975 10.7927 10.1446 10.6433 10.1446 10.3444C10.1536 10.2222 10.1988 10.1055 10.2746 10.0092C10.3504 9.91293 10.4532 9.84147 10.5698 9.804C10.8709 9.87703 11.18 9.9118 11.4898 9.9075C13.1221 9.9075 13.9732 9.1027 13.9732 7.89545C13.9904 7.5581 13.9122 7.22273 13.7474 6.92785C13.5827 6.63296 13.3381 6.3905 13.0418 6.2283V6.0673H14.3182V4.9406H13.387C13.2699 4.92644 13.151 4.93951 13.0397 4.97878C12.9285 5.01804 12.8277 5.08246 12.7454 5.167C12.6631 5.25155 12.6014 5.35395 12.5651 5.46624C12.5288 5.57852 12.5189 5.69767 12.5362 5.8144V6.0098C12.1976 5.90477 11.8445 5.85434 11.4901 5.8604C9.86871 5.8604 9.00641 6.67665 9.00641 7.8954C8.98923 8.26321 9.08457 8.62751 9.27972 8.93975C9.47487 9.25199 9.76057 9.49732 10.0987 9.64305V9.68895C9.52376 9.81545 8.99496 10.1258 8.99496 10.7468C8.9862 10.9773 9.05849 11.2036 9.19925 11.3863C9.34002 11.569 9.54037 11.6966 9.76546 11.7468V11.8733C9.61954 11.878 9.47598 11.9115 9.34308 11.972C9.21018 12.0324 9.09057 12.1186 8.99115 12.2255C8.89173 12.3324 8.81447 12.458 8.76383 12.5949C8.71319 12.7319 8.69018 12.8775 8.69611 13.0233ZM10.1905 12.069H12.2369C12.9845 12.069 13.2603 12.299 13.2605 12.6786C13.2605 13.1844 12.8351 13.4259 11.8805 13.4259H11.1447C10.2251 13.4259 9.88006 13.15 9.88006 12.69C9.8768 12.569 9.90342 12.449 9.95757 12.3407C10.0117 12.2324 10.0917 12.139 10.1905 12.069ZM12.5706 7.7919V7.9875H12.5704C12.5704 8.58505 12.1917 8.9075 11.4901 8.9075C10.7884 8.9075 10.409 8.58525 10.409 7.9875V7.7919C10.409 7.18235 10.7889 6.8719 11.4901 6.8719C12.1912 6.8719 12.5706 7.18255 12.5706 7.7919Z" fill="black"/>
</svg>
