<svg width="16" height="16" viewBox="0 0 16 16" fill="none" xmlns="http://www.w3.org/2000/svg">
<path fill-rule="evenodd" clip-rule="evenodd" d="M7.5 0H8.5V1H7.5V0ZM12.5961 1.69134L11.889 2.39844L12.5961 3.10554L13.3032 2.39844L12.5961 1.69134ZM15 6.5H14V7.5H15V6.5ZM2.6967 2.40911L3.4038 3.11621L4.1109 2.40911L3.4038 1.70201L2.6967 2.40911ZM1 6.5H2V7.5H1V6.5ZM10 6.5H8.5V5H7.5V6.5H6V7.5H7.5V9H8.5V7.5H10V6.5ZM6.5 16V15H9.5V16H6.5ZM10.5 14V13H5.5V14H10.5ZM3 7C3 4.25 5.25 2 8 2C10.75 2 13 4.25 13 7C13 9.2 12 10.15 11.25 10.8C10.75 11.25 10.5 11.55 10.5 12H9.5C9.5 11.05 10.05 10.55 10.6 10.05C11.3 9.45 12 8.75 12 7C12 4.8 10.2 3 8 3C5.8 3 4 4.8 4 7C4 8.75 4.7 9.45 5.4 10.05C5.95 10.55 6.5 11.1 6.5 12H5.5C5.5 11.55 5.25 11.25 4.75 10.8C4 10.15 3 9.2 3 7Z" fill="black"/>
</svg>
