<svg width="16" height="16" viewBox="0 0 16 16" fill="none" xmlns="http://www.w3.org/2000/svg">
<path fill-rule="evenodd" clip-rule="evenodd" d="M4 1.5H12C12.55 1.5 13 1.95 13 2.5V10.5H4V13.5H7.5V14.5H4C3.45 14.5 3 14.05 3 13.5V2.5C3 1.95 3.45 1.5 4 1.5ZM4 9.5H12V6.5H4V9.5ZM4 5.5H12V2.5H4V5.5ZM5.5 4.5C5.77614 4.5 6 4.27614 6 4C6 3.72386 5.77614 3.5 5.5 3.5C5.22386 3.5 5 3.72386 5 4C5 4.27614 5.22386 4.5 5.5 4.5ZM9.9 13.5L11.2 12.2L10.5 11.5L8.5 13.5L10.5 15.5L11.2 14.8L9.9 13.5ZM13.6 13.5L12.3 12.2L13 11.5L15 13.5L13 15.5L12.3 14.8L13.6 13.5ZM6 8C6 8.27614 5.77614 8.5 5.5 8.5C5.22386 8.5 5 8.27614 5 8C5 7.72386 5.22386 7.5 5.5 7.5C5.77614 7.5 6 7.72386 6 8ZM5.5 12.5C5.77614 12.5 6 12.2761 6 12C6 11.7239 5.77614 11.5 5.5 11.5C5.22386 11.5 5 11.7239 5 12C5 12.2761 5.22386 12.5 5.5 12.5Z" fill="black"/>
</svg>
