<svg width="16" height="16" viewBox="0 0 16 16" fill="none" xmlns="http://www.w3.org/2000/svg">
<path fill-rule="evenodd" clip-rule="evenodd" d="M1.2932 14.7068C1.48068 14.8943 1.73487 14.9997 2 15H6V14H2V2H14V6H15V2C14.9997 1.73487 14.8943 1.48068 14.7068 1.2932C14.5193 1.10572 14.2651 1.00028 14 1H2C1.73487 1.00028 1.48068 1.10572 1.2932 1.2932C1.10572 1.48068 1.00028 1.73487 1 2V14C1.00028 14.2651 1.10572 14.5193 1.2932 14.7068ZM10 15C9.93433 15.0001 9.8693 14.9872 9.80863 14.962C9.74796 14.9369 9.69286 14.9 9.6465 14.8535L4.29295 9.5C4.10599 9.3121 4.00072 9.05802 4 8.79295V5C4.00026 4.73487 4.10571 4.48067 4.29319 4.29319C4.48066 4.10571 4.73486 4.00027 5 4H8.79295C8.92432 3.99965 9.05446 4.02535 9.17583 4.07564C9.29719 4.12593 9.40738 4.19979 9.5 4.29295L14.8535 9.6465C14.8999 9.69291 14.9368 9.74802 14.9619 9.80867C14.9871 9.86933 15 9.93434 15 10C15 10.0657 14.9871 10.1307 14.9619 10.1913C14.9368 10.252 14.8999 10.3071 14.8535 10.3535L10.3535 14.8535C10.3071 14.9 10.252 14.9369 10.1914 14.962C10.1307 14.9872 10.0657 15.0001 10 15ZM5 5V8.79295L10 13.793L13.7929 10L8.79295 5H5ZM7 8C7.55228 8 8 7.55228 8 7C8 6.44772 7.55228 6 7 6C6.44772 6 6 6.44772 6 7C6 7.55228 6.44772 8 7 8Z" fill="black"/>
</svg>
