<svg width="16" height="16" viewBox="0 0 16 16" fill="none" xmlns="http://www.w3.org/2000/svg">
<path fill-rule="evenodd" clip-rule="evenodd" d="M14 1H10C9.73488 1.0003 9.4807 1.10576 9.29323 1.29323C9.10576 1.4807 9.0003 1.73488 9 2V14C9.0003 14.2651 9.10576 14.5193 9.29323 14.7068C9.4807 14.8942 9.73488 14.9997 10 15H14C14.2651 14.9997 14.5193 14.8942 14.7068 14.7068C14.8942 14.5193 14.9997 14.2651 15 14V2C14.9997 1.73488 14.8942 1.4807 14.7068 1.29323C14.5193 1.10576 14.2651 1.0003 14 1ZM14 2V5.5H10V2H14ZM10 6.5H14V9.5H10V6.5ZM10 14V10.5H14V14H10ZM6 7.5H5V6.5H4V7.5H3V8.5H4V9.5H5V8.5H6V7.5ZM8 2V3H5V4.54C5.83303 4.65879 6.59524 5.07412 7.14664 5.70973C7.69804 6.34534 8.00162 7.15855 8.00162 8C8.00162 8.84145 7.69804 9.65466 7.14664 10.2903C6.59524 10.9259 5.83303 11.3412 5 11.46V13H8V14H5C4.73488 13.9997 4.4807 13.8942 4.29323 13.7068C4.10576 13.5193 4.00031 13.2651 4 13V11.46C3.16697 11.3412 2.40477 10.9259 1.85336 10.2903C1.30196 9.65466 0.998383 8.84145 0.998383 8C0.998383 7.15855 1.30196 6.34534 1.85336 5.70973C2.40477 5.07412 3.16697 4.65879 4 4.54V3C4.00031 2.73488 4.10576 2.4807 4.29323 2.29323C4.4807 2.10576 4.73488 2.0003 5 2H8ZM6.57868 9.38893C6.85338 8.9778 7 8.49445 7 8C6.99922 7.3372 6.73558 6.70177 6.26691 6.2331C5.79823 5.76442 5.1628 5.50078 4.5 5.5C4.00555 5.5 3.5222 5.64662 3.11108 5.92133C2.69995 6.19603 2.37952 6.58648 2.1903 7.04329C2.00108 7.50011 1.95158 8.00277 2.04804 8.48773C2.1445 8.97268 2.3826 9.41814 2.73223 9.76777C3.08187 10.1174 3.52732 10.3555 4.01228 10.452C4.49723 10.5484 4.9999 10.4989 5.45671 10.3097C5.91353 10.1205 6.30397 9.80005 6.57868 9.38893Z" fill="black"/>
</svg>
