<svg width="16" height="16" viewBox="0 0 16 16" fill="none" xmlns="http://www.w3.org/2000/svg">
<path fill-rule="evenodd" clip-rule="evenodd" d="M2.62357 3.9751V12.0001H7.91252V10.6551H4.14127V8.60845H7.47562V7.2632H4.14127V5.3201H7.91252V3.9751H2.62357ZM9.81088 10.1604L8.91403 11.0342C9.21434 11.3977 9.59492 11.6866 10.0258 11.8781C10.4567 12.0696 10.9262 12.1585 11.3973 12.1378C12.8919 12.1378 13.8692 11.333 13.8692 10.1717C13.8692 9.17148 13.2369 8.58503 11.9262 8.40108L11.3168 8.32063C10.7533 8.22858 10.535 8.04473 10.535 7.64228C10.535 7.27438 10.8108 7.02143 11.4433 7.02143C11.7141 7.02486 11.9814 7.08375 12.2285 7.19448C12.4757 7.30521 12.6976 7.46542 12.8804 7.66523L13.7427 6.80293C13.4501 6.47663 13.0864 6.22193 12.6798 6.05847C12.2731 5.89501 11.8343 5.82717 11.3973 5.86018C10.0291 5.86018 9.12078 6.59603 9.12078 7.75728C9.12078 8.84958 9.83353 9.41293 11.1213 9.57378L11.7192 9.65438C12.2481 9.72333 12.455 9.94168 12.455 10.2867C12.455 10.7123 12.1562 10.9767 11.455 10.9767C11.1371 10.9733 10.8242 10.8981 10.5395 10.7568C10.2548 10.6154 10.0057 10.4115 9.81088 10.1604Z" fill="black"/>
</svg>
