<svg width="16" height="16" viewBox="0 0 16 16" fill="none" xmlns="http://www.w3.org/2000/svg">
<path fill-rule="evenodd" clip-rule="evenodd" d="M8.5 1V4.085L9.795 2.795L10.5 3.5L8 6L5.5 3.5L6.205 2.795L7.5 4.085V1H8.5ZM3.5 5.5L2.795 6.205L4.085 7.5H1V8.5H4.085L2.795 9.795L3.5 10.5L6 8L3.5 5.5ZM15 7.5H11.915L13.205 6.205L12.5 5.5L10 8L12.5 10.5L13.205 9.795L11.915 8.5H15V7.5ZM8 9C8.55228 9 9 8.55228 9 8C9 7.44772 8.55228 7 8 7C7.44772 7 7 7.44772 7 8C7 8.55228 7.44772 9 8 9ZM7.5 15V11.915L6.205 13.205L5.5 12.5L8 10L10.5 12.5L9.795 13.205L8.5 11.915V15H7.5Z" fill="black"/>
</svg>
