<svg width="16" height="16" viewBox="0 0 16 16" fill="none" xmlns="http://www.w3.org/2000/svg">
<path fill-rule="evenodd" clip-rule="evenodd" d="M1 15H4V14H2V2H4V1H1V15ZM15 15H12V14H14V2H12V1H15V15ZM12.455 9.79499C12.381 9.43747 12.2213 9.10326 11.9897 8.82108C11.758 8.53889 11.4613 8.31718 11.125 8.17499C10.8477 8.05947 10.5504 7.99999 10.25 7.99999C9.94964 7.99999 9.65226 8.05947 9.375 8.17499C9.26417 8.22536 9.15721 8.28386 9.055 8.35L7.65 6.945C7.94767 6.47386 8.0612 5.90953 7.96888 5.35994C7.87656 4.81035 7.58486 4.31409 7.14959 3.96608C6.71431 3.61808 6.16602 3.44275 5.60959 3.47366C5.05315 3.50456 4.52765 3.73951 4.13358 4.13357C3.73952 4.52764 3.50456 5.05315 3.47366 5.60958C3.44276 6.16601 3.61808 6.71431 3.96609 7.14958C4.3141 7.58485 4.81036 7.87655 5.35995 7.96887C5.90954 8.0612 6.47387 7.94766 6.945 7.64999L8.35 9.05499C8.0384 9.5447 7.92905 10.1363 8.045 10.705C8.11899 11.0625 8.27867 11.3967 8.51034 11.6789C8.74201 11.9611 9.03873 12.1828 9.375 12.325C9.65226 12.4405 9.94964 12.5 10.25 12.5C10.5504 12.5 10.8477 12.4405 11.125 12.325C11.4613 12.1828 11.758 11.9611 11.9897 11.6789C12.2213 11.3967 12.381 11.0625 12.455 10.705C12.5149 10.4046 12.5149 10.0954 12.455 9.79499ZM5.75 7C5.50278 7 5.2611 6.92668 5.05554 6.78933C4.84998 6.65198 4.68976 6.45676 4.59515 6.22835C4.50054 5.99994 4.47579 5.74861 4.52402 5.50613C4.57225 5.26366 4.6913 5.04093 4.86612 4.86611C5.04094 4.6913 5.26366 4.57225 5.50614 4.52401C5.74862 4.47578 5.99995 4.50054 6.22836 4.59515C6.45676 4.68976 6.65199 4.84997 6.78934 5.05553C6.92669 5.26109 7 5.50277 7 5.75C7 6.08152 6.86831 6.39946 6.63389 6.63388C6.39947 6.8683 6.08152 7 5.75 7Z" fill="black"/>
</svg>
