<svg width="16" height="16" viewBox="0 0 16 16" fill="none" xmlns="http://www.w3.org/2000/svg">
<path fill-rule="evenodd" clip-rule="evenodd" d="M14.2949 3.7949L13 5.08495V2C13 1.44875 12.5514 1 12 1H7.5V2H12V5.08495L10.7051 3.7949L10 4.5L12.5 7L15 4.5L14.2949 3.7949ZM10 10C10 9.145 11.0747 8.5 12.5 8.5C13.9253 8.5 15 9.145 15 10V13.5C15 14.355 13.9253 15 12.5 15C11.0747 15 10 14.355 10 13.5V10ZM14 10C14 9.8755 13.468 9.5 12.5 9.5C11.532 9.5 11 9.8755 11 10C11 10.1245 11.532 10.5 12.5 10.5C13.468 10.5 14 10.1245 14 10ZM11 13.5C11 13.6245 11.532 14 12.5 14C13.468 14 14 13.6245 14 13.5V11.2102C13.5868 11.3914 13.0746 11.5 12.5 11.5C11.9254 11.5 11.4132 11.3914 11 11.2102V13.5ZM4 10.915V14H8.5V15H4C3.4486 15 3 14.5513 3 14V10.915L1.7051 12.2051L1 11.5L3.5 9L6 11.5L5.2949 12.2051L4 10.915ZM6 6C6 6.855 4.9253 7.5 3.5 7.5C2.0747 7.5 1 6.855 1 6V2.5C1 1.645 2.0747 1 3.5 1C4.9253 1 6 1.645 6 2.5V6ZM5 2.5C5 2.3755 4.468 2 3.5 2C2.532 2 2 2.3755 2 2.5C2 2.6245 2.532 3 3.5 3C4.468 3 5 2.6245 5 2.5ZM3.5 4C2.9254 4 2.4132 3.89135 2 3.7102V6C2 6.1245 2.532 6.5 3.5 6.5C4.468 6.5 5 6.1245 5 6V3.7102C4.5868 3.89135 4.0746 4 3.5 4Z" fill="black"/>
</svg>
