<svg width="16" height="16" viewBox="0 0 16 16" fill="none" xmlns="http://www.w3.org/2000/svg">
<path fill-rule="evenodd" clip-rule="evenodd" d="M13.5 5.5H2.5V13.5H10V14.5H2.5C1.9486 14.5 1.5 14.0513 1.5 13.5V2.5C1.5 1.94875 1.9486 1.5 2.5 1.5H13.5C14.0514 1.5 14.5 1.94875 14.5 2.5V8H13.5V5.5ZM13.5 4.5V2.5H2.5V4.5H13.5ZM6 7H4V8H6V7ZM13.169 15.5L12.301 15L13.4447 13H11.5L13.4965 9.5L14.365 10L13.2232 12H15.1684L13.169 15.5ZM10 7H12V8H10V7ZM6 9H4V10H6V9ZM7 9H9V10H7V9ZM9 11H7V12H9V11Z" fill="black"/>
</svg>
