<svg width="16" height="16" viewBox="0 0 16 16" fill="none" xmlns="http://www.w3.org/2000/svg">
<g clip-path="url(#clip0_3_13259)">
<path d="M14.915 10L15.085 9L12.5 8.575V6.5C12.5 6.46 12.5 6.425 12.5 6.385L15.03 5.705L14.775 4.74L12.36 5.385C12.1956 4.76343 11.8998 4.18432 11.4927 3.68667C11.0856 3.18901 10.5766 2.78437 10 2.5V1H9V2.115C8.34215 1.96166 7.65785 1.96166 7 2.115V1H6V2.5C5.4216 2.7876 4.9119 3.19636 4.50553 3.69849C4.09917 4.20062 3.80568 4.78435 3.645 5.41L1.23 4.74L0.999998 5.705L3.5 6.385C3.5 6.425 3.5 6.46 3.5 6.5V8.575L0.919998 9L1.08 10L3.5 9.59C3.51142 10.207 3.65104 10.8149 3.91 11.375L1.645 13.645L2.355 14.355L4.45 12.255C4.87077 12.7952 5.40925 13.2322 6.02444 13.5328C6.63963 13.8333 7.3153 13.9896 8 13.9896C8.6847 13.9896 9.36037 13.8333 9.97555 13.5328C10.5907 13.2322 11.1292 12.7952 11.55 12.255L13.645 14.355L14.355 13.645L12.085 11.375C12.3457 10.8152 12.487 10.2073 12.5 9.59L14.915 10ZM7.5 12.96C6.6677 12.8399 5.90648 12.4241 5.35559 11.7887C4.8047 11.1534 4.50098 10.3409 4.5 9.5V6.5H7.5V12.96ZM4.645 5.5C4.85985 4.77698 5.30253 4.14271 5.90709 3.69168C6.51164 3.24065 7.24573 2.99698 8 2.99698C8.75427 2.99698 9.48835 3.24065 10.0929 3.69168C10.6975 4.14271 11.1401 4.77698 11.355 5.5H4.645ZM11.5 9.5C11.499 10.3409 11.1953 11.1534 10.6444 11.7887C10.0935 12.4241 9.3323 12.8399 8.5 12.96V6.5H11.5V9.5Z" fill="black"/>
</g>
<defs>
<clipPath id="clip0_3_13259">
<rect width="16" height="16" fill="white"/>
</clipPath>
</defs>
</svg>
