<svg width="16" height="16" viewBox="0 0 16 16" fill="none" xmlns="http://www.w3.org/2000/svg">
<path fill-rule="evenodd" clip-rule="evenodd" d="M13.4595 4.8032L14.9595 8.3032C14.9862 8.36537 15 8.43233 15 8.5V12C15 12.1326 14.9473 12.2598 14.8536 12.3536C14.7598 12.4473 14.6326 12.5 14.5 12.5H13.429C13.3199 12.9289 13.0711 13.3092 12.7218 13.5808C12.3724 13.8525 11.9425 13.9999 11.5 13.9999C11.0575 13.9999 10.6276 13.8525 10.2783 13.5808C9.92892 13.3092 9.68008 12.9289 9.57105 12.5H6.42895C6.30726 12.9713 6.01784 13.3821 5.61495 13.6553C5.21206 13.9285 4.72336 14.0454 4.24045 13.9841C3.75755 13.9227 3.31359 13.6874 2.99179 13.3221C2.67 12.9569 2.49246 12.4868 2.49246 12C2.49246 11.5132 2.67 11.0431 2.99179 10.6779C3.31359 10.3126 3.75755 10.0773 4.24045 10.0159C4.72336 9.9546 5.21206 10.0715 5.61495 10.3447C6.01784 10.6179 6.30726 11.0287 6.42895 11.5H9.57105C9.63761 11.2451 9.75396 11.0059 9.91339 10.7962C10.0728 10.5865 10.2722 10.4104 10.5 10.2781V4H3V3H11C11.1326 3 11.2598 3.05268 11.3536 3.14645C11.4473 3.24021 11.5 3.36739 11.5 3.5V4.5H13C13.0979 4.49994 13.1936 4.52865 13.2753 4.58256C13.357 4.63646 13.421 4.71319 13.4595 4.8032ZM3.94443 12.8315C4.10888 12.9414 4.30222 13 4.5 13C4.76513 12.9997 5.0193 12.8942 5.20677 12.7068C5.39424 12.5193 5.4997 12.2651 5.5 12C5.5 11.8022 5.44135 11.6089 5.33147 11.4444C5.22159 11.28 5.06541 11.1518 4.88269 11.0761C4.69996 11.0004 4.49889 10.9806 4.30491 11.0192C4.11093 11.0578 3.93275 11.153 3.7929 11.2929C3.65304 11.4327 3.5578 11.6109 3.51922 11.8049C3.48063 11.9989 3.50044 12.2 3.57612 12.3827C3.65181 12.5654 3.77998 12.7216 3.94443 12.8315ZM12.6704 5.5H11.5V8H13.742L12.6704 5.5ZM10.9444 12.8315C11.1089 12.9414 11.3022 13 11.5 13C11.7651 12.9997 12.0193 12.8942 12.2068 12.7068C12.3942 12.5193 12.4997 12.2651 12.5 12C12.5 11.8022 12.4414 11.6089 12.3315 11.4444C12.2216 11.28 12.0654 11.1518 11.8827 11.0761C11.7 11.0004 11.4989 10.9806 11.3049 11.0192C11.1109 11.0578 10.9327 11.153 10.7929 11.2929C10.653 11.4327 10.5578 11.6109 10.5192 11.8049C10.4806 11.9989 10.5004 12.2 10.5761 12.3827C10.6518 12.5654 10.78 12.7216 10.9444 12.8315ZM13.429 11.5H14V9H11.5V10C11.9422 10.0013 12.3715 10.1492 12.7206 10.4207C13.0696 10.6921 13.3188 11.0717 13.429 11.5ZM6 5.5H1V6.5H6V5.5ZM8 8H2V9H8V8Z" fill="black"/>
</svg>
