<svg width="16" height="16" viewBox="0 0 16 16" fill="none" xmlns="http://www.w3.org/2000/svg">
<path fill-rule="evenodd" clip-rule="evenodd" d="M9.74095 1.56201L14.7409 4.31201C14.8194 4.35514 14.8848 4.41854 14.9304 4.49559C14.9759 4.57263 15 4.6605 15 4.75001V11.25C15 11.3395 14.9759 11.4274 14.9304 11.5044C14.8848 11.5815 14.8194 11.6449 14.7409 11.688L9.74095 14.438C9.66715 14.4787 9.58426 14.5 9.5 14.5C9.41574 14.5 9.33285 14.4787 9.25905 14.438L7 13.1956L7.4819 12.3197L9 13.1543V7.79566L4.25905 5.18801C4.18066 5.14485 4.11528 5.08144 4.06975 5.00439C4.02422 4.92735 4.00021 4.8395 4.00021 4.75001C4.00021 4.66052 4.02422 4.57267 4.06975 4.49563C4.11528 4.41858 4.18066 4.35517 4.25905 4.31201L9.25905 1.56201C9.33287 1.52141 9.41575 1.50012 9.5 1.50012C9.58425 1.50012 9.66713 1.52141 9.74095 1.56201ZM13.4624 4.75001L9.5 2.57081L5.5376 4.75001L9.5 6.92921L13.4624 4.75001ZM10 13.1544L14 10.9544V5.59566L10 7.79566V13.1544ZM5 8H1V7H5V8ZM2 12H6V11H2V12ZM7 10H3V9H7V10Z" fill="black"/>
</svg>
