<svg width="16" height="16" viewBox="0 0 16 16" fill="none" xmlns="http://www.w3.org/2000/svg">
<path fill-rule="evenodd" clip-rule="evenodd" d="M4 3H6V4H4V6H3V4H1V3H3V1H4V3ZM13.4594 4.8032L14.9594 8.3032C14.9862 8.36537 15 8.43233 15 8.5V12C15 12.1326 14.9473 12.2598 14.8536 12.3536C14.7598 12.4473 14.6326 12.5 14.5 12.5H13.429C13.3199 12.9289 13.0711 13.3092 12.7217 13.5808C12.3724 13.8525 11.9425 13.9999 11.5 13.9999C11.0575 13.9999 10.6276 13.8525 10.2783 13.5808C9.92892 13.3092 9.68007 12.9289 9.57105 12.5H6.42895C6.31993 12.9289 6.07108 13.3092 5.72175 13.5808C5.37242 13.8525 4.94252 13.9999 4.5 13.9999C4.05748 13.9999 3.62758 13.8525 3.27825 13.5808C2.92892 13.3092 2.68007 12.9289 2.57105 12.5H1.5C1.36739 12.5 1.24021 12.4473 1.14645 12.3536C1.05268 12.2598 1 12.1326 1 12V7H2V11.5H2.57105C2.68007 11.0711 2.92892 10.6908 3.27825 10.4192C3.62758 10.1475 4.05748 10.0001 4.5 10.0001C4.94252 10.0001 5.37242 10.1475 5.72175 10.4192C6.07108 10.6908 6.31993 11.0711 6.42895 11.5H9.57105C9.6376 11.2451 9.75395 11.0059 9.91339 10.7962C10.0728 10.5865 10.2722 10.4104 10.5 10.2781V4H7.5V3H11C11.1326 3 11.2598 3.05268 11.3536 3.14645C11.4473 3.24021 11.5 3.36739 11.5 3.5V4.5H13C13.0979 4.49994 13.1936 4.52865 13.2753 4.58256C13.357 4.63646 13.421 4.71319 13.4594 4.8032ZM3.94443 12.8315C4.10888 12.9414 4.30222 13 4.5 13C4.76511 12.9996 5.01925 12.8942 5.20671 12.7067C5.39417 12.5193 5.49964 12.2651 5.5 12C5.5 11.8022 5.44135 11.6089 5.33147 11.4444C5.22159 11.28 5.06541 11.1518 4.88268 11.0761C4.69996 11.0004 4.49889 10.9806 4.30491 11.0192C4.11093 11.0578 3.93275 11.153 3.79289 11.2929C3.65304 11.4327 3.5578 11.6109 3.51921 11.8049C3.48063 11.9989 3.50043 12.2 3.57612 12.3827C3.65181 12.5654 3.77998 12.7216 3.94443 12.8315ZM12.6704 5.5H11.5V8H13.742L12.6704 5.5ZM10.9444 12.8315C11.1089 12.9414 11.3022 13 11.5 13C11.7651 12.9997 12.0193 12.8942 12.2068 12.7068C12.3942 12.5193 12.4997 12.2651 12.5 12C12.5 11.8022 12.4414 11.6089 12.3315 11.4444C12.2216 11.28 12.0654 11.1518 11.8827 11.0761C11.7 11.0004 11.4989 10.9806 11.3049 11.0192C11.1109 11.0578 10.9327 11.153 10.7929 11.2929C10.653 11.4327 10.5578 11.6109 10.5192 11.8049C10.4806 11.9989 10.5004 12.2 10.5761 12.3827C10.6518 12.5654 10.78 12.7216 10.9444 12.8315ZM13.429 11.5H14V9H11.5V10C11.9422 10.0013 12.3715 10.1492 12.7206 10.4207C13.0696 10.6921 13.3188 11.0717 13.429 11.5Z" fill="black"/>
</svg>
