<svg width="16" height="16" viewBox="0 0 16 16" fill="none" xmlns="http://www.w3.org/2000/svg">
<path fill-rule="evenodd" clip-rule="evenodd" d="M2 13H7V14H2C1.73478 14 1.48043 13.8946 1.29289 13.7071C1.10536 13.5196 1 13.2652 1 13V3C1 2.73478 1.10536 2.48043 1.29289 2.29289C1.48043 2.10536 1.73478 2 2 2H5.5858C5.71713 2 5.84717 2.02586 5.96851 2.07612C6.08984 2.12637 6.20009 2.20004 6.29295 2.2929L8 4H14C14.2652 4 14.5196 4.10536 14.7071 4.29289C14.8946 4.48043 15 4.73478 15 5V9H14V5H7.5858L7.29285 4.70715L5.5858 3H2V13ZM7.5 7.7075L6.793 7L5.5 8.2935L4.207 7L3.5 7.7075L4.793 9L3.5 10.293L4.207 11L5.5 9.707L6.793 11L7.5 10.293L6.207 9L7.5 7.7075ZM9.33706 10.1111C9.1173 9.78224 9 9.39556 9 9C9 8.46957 9.21071 7.96086 9.58579 7.58579C9.96086 7.21071 10.4696 7 11 7C11.3956 7 11.7822 7.1173 12.1111 7.33706C12.44 7.55682 12.6964 7.86918 12.8478 8.23463C12.9991 8.60009 13.0387 9.00222 12.9616 9.39018C12.8844 9.77814 12.6939 10.1345 12.4142 10.4142C12.1345 10.6939 11.7781 10.8844 11.3902 10.9616C11.0022 11.0387 10.6001 10.9991 10.2346 10.8478C9.86918 10.6964 9.55682 10.44 9.33706 10.1111ZM11.8315 9.55557C11.9414 9.39112 12 9.19778 12 9C12 8.73478 11.8946 8.48043 11.7071 8.29289C11.5196 8.10536 11.2652 8 11 8C10.8022 8 10.6089 8.05865 10.4444 8.16853C10.28 8.27841 10.1518 8.43459 10.0761 8.61732C10.0004 8.80004 9.98063 9.00111 10.0192 9.19509C10.0578 9.38907 10.153 9.56725 10.2929 9.70711C10.4327 9.84696 10.6109 9.9422 10.8049 9.98079C10.9989 10.0194 11.2 9.99957 11.3827 9.92388C11.5654 9.84819 11.7216 9.72002 11.8315 9.55557ZM8.43934 11.9393C8.72064 11.658 9.10218 11.5 9.5 11.5H12.5C12.8978 11.5 13.2794 11.658 13.5607 11.9393C13.842 12.2206 14 12.6022 14 13V14H13V13C13 12.8674 12.9473 12.7402 12.8536 12.6464C12.7598 12.5527 12.6326 12.5 12.5 12.5H9.5C9.36739 12.5 9.24021 12.5527 9.14645 12.6464C9.05268 12.7402 9 12.8674 9 13V14H8V13C8 12.6022 8.15804 12.2206 8.43934 11.9393Z" fill="black"/>
</svg>
