<svg width="16" height="16" viewBox="0 0 16 16" fill="none" xmlns="http://www.w3.org/2000/svg">
<path fill-rule="evenodd" clip-rule="evenodd" d="M9.58498 6.64506L6.73998 2.57506L6.03998 2.76006L7.16998 6.94006L7.42998 7.90506L6.45998 8.16506L5.05998 8.54006L4.40498 8.71506L3.99998 8.17506L2.84998 6.62506L2.12998 6.82006L2.49998 8.19006L2.87498 9.59506L2.99998 10.0601C3.04046 10.2174 3.12123 10.3614 3.23433 10.4781C3.34743 10.5947 3.48896 10.6798 3.64498 10.7251C3.80822 10.7728 3.98174 10.7728 4.14498 10.7251L13.5 8.22506C13.6235 8.18916 13.7383 8.12814 13.8372 8.04583C13.9361 7.96352 14.017 7.86169 14.0747 7.74671C14.1324 7.63172 14.1658 7.50606 14.1727 7.37758C14.1797 7.24911 14.16 7.12059 14.115 7.00006C14.0624 6.86176 13.9772 6.73819 13.8666 6.63983C13.7561 6.54147 13.6235 6.47123 13.48 6.43506C13.2967 6.3851 13.1033 6.3851 12.92 6.43506L10.66 7.04006L9.98498 7.22006L9.58498 6.64506ZM6.82998 1.50006C6.91212 1.48012 6.99784 1.48012 7.07998 1.50006C7.19111 1.53487 7.2866 1.60737 7.34998 1.70506L10.385 6.07506L12.64 5.47006C12.994 5.3775 13.3659 5.3775 13.72 5.47006C14.133 5.5758 14.499 5.81599 14.7604 6.15277C15.0219 6.48954 15.1637 6.90374 15.1637 7.33006C15.1637 7.75638 15.0219 8.17058 14.7604 8.50735C14.499 8.84412 14.133 9.08431 13.72 9.19006L4.36998 11.6901C4.04228 11.7768 3.69768 11.7768 3.36998 11.6901C3.04136 11.6023 2.74169 11.4294 2.50116 11.1889C2.26064 10.9484 2.08777 10.6487 1.99998 10.3201L1.87498 9.85006L1.49998 8.45006L0.99998 6.58006C0.975317 6.45576 0.99877 6.32673 1.0656 6.21906C1.13243 6.11139 1.23765 6.03312 1.35998 6.00006L2.91498 5.57006C2.99712 5.55012 3.08284 5.55012 3.16498 5.57006C3.26884 5.60035 3.36007 5.66351 3.42498 5.75006L4.78998 7.55506L6.19498 7.18006L4.94498 2.50006C4.91804 2.37768 4.93803 2.24965 5.001 2.14131C5.06396 2.03297 5.16531 1.95223 5.28498 1.91506L6.82998 1.50006ZM0.999985 14.0001H15V15.0001H0.999985V14.0001Z" fill="black"/>
</svg>
