<svg width="16" height="16" viewBox="0 0 16 16" fill="none" xmlns="http://www.w3.org/2000/svg">
<path fill-rule="evenodd" clip-rule="evenodd" d="M5 5.5H3.5V4.5H7.5V5.5H6V11.5H5V5.5ZM8.5 4.5V11.5H10.5C11.0303 11.4994 11.5386 11.2886 11.9136 10.9136C12.2886 10.5386 12.4994 10.0303 12.5 9.5V6.5C12.4994 5.96975 12.2885 5.46139 11.9136 5.08644C11.5386 4.7115 11.0303 4.5006 10.5 4.5H8.5ZM10.5 10.5H9.5V5.5H10.5C10.7651 5.50026 11.0193 5.60571 11.2068 5.79319C11.3943 5.98066 11.4997 6.23486 11.5 6.5V9.5C11.4997 9.76512 11.3942 10.0193 11.2068 10.2068C11.0193 10.3942 10.7651 10.4997 10.5 10.5Z" fill="black"/>
</svg>
