<svg width="16" height="16" viewBox="0 0 16 16" fill="none" xmlns="http://www.w3.org/2000/svg">
<path fill-rule="evenodd" clip-rule="evenodd" d="M7.5 6V2.914L6.3535 4.0605L5.6465 3.3535L8 1L10.3535 3.3535L9.6465 4.0605L8.5 2.914V6H7.5ZM9.5 8.00001V7.00001H13.0855L11.939 5.85351L12.646 5.14651L15 7.50001L12.646 9.85351L11.939 9.14651L13.0855 8.00001H9.5ZM8.5 9.00002V10.0506C9.10702 10.1745 9.64641 10.5194 10.0136 11.0184C10.3808 11.5174 10.5496 12.1349 10.4873 12.7513C10.4251 13.3677 10.1361 13.9391 9.67658 14.3545C9.21701 14.77 8.61954 15.0001 8 15.0001C7.38046 15.0001 6.78299 14.77 6.32342 14.3545C5.86385 13.9391 5.57493 13.3677 5.51266 12.7513C5.45039 12.1349 5.61921 11.5174 5.9864 11.0184C6.35359 10.5194 6.89298 10.1745 7.5 10.0506V9.00002C7.49967 8.7349 7.39421 8.48074 7.20674 8.29327C7.01928 8.10581 6.76511 8.00035 6.5 8.00002H2.91405L4.06055 9.14652L3.3535 9.85352L1 7.50002L3.3535 5.14651L4.06055 5.85352L2.91405 7.00002H6.5C7.03025 7.00061 7.53861 7.21152 7.91356 7.58646C8.2885 7.9614 8.4994 8.46977 8.5 9.00002ZM7.16664 13.7472C7.41332 13.912 7.70333 14 8 14C8.39769 13.9996 8.77897 13.8414 9.06018 13.5602C9.34139 13.279 9.49956 12.8977 9.5 12.5C9.5 12.2033 9.41203 11.9133 9.2472 11.6667C9.08238 11.42 8.84811 11.2277 8.57403 11.1142C8.29994 11.0007 7.99834 10.971 7.70736 11.0288C7.41639 11.0867 7.14912 11.2296 6.93934 11.4394C6.72956 11.6491 6.5867 11.9164 6.52882 12.2074C6.47094 12.4984 6.50065 12.8 6.61418 13.074C6.72771 13.3481 6.91997 13.5824 7.16664 13.7472Z" fill="black"/>
</svg>
