<svg width="16" height="16" viewBox="0 0 16 16" fill="none" xmlns="http://www.w3.org/2000/svg">
<g clip-path="url(#clip0_3_13239)">
<path fill-rule="evenodd" clip-rule="evenodd" d="M12.707 2.50002L10.5 0.292969L8.29294 2.50002L9.99999 4.20707V9.00002H11V4.20707L12.707 2.50002ZM10.5 1.70707L11.2929 2.50002L10.5 3.29297L9.70704 2.50002L10.5 1.70707ZM13.9995 4.63245C14.1516 4.54456 14.3244 4.49884 14.5 4.50002C14.6754 4.49998 14.8478 4.54611 14.9997 4.63378C15.1517 4.72145 15.2779 4.84757 15.3657 4.99947C15.4535 5.15137 15.4997 5.32369 15.4998 5.49913C15.4999 5.67456 15.4538 5.84693 15.3661 5.9989C15.2785 6.15088 15.1524 6.27711 15.0005 6.36492C14.8486 6.45272 14.6763 6.49901 14.5009 6.49912C14.3254 6.49924 14.1531 6.45317 14.0011 6.36556C13.8491 6.27796 13.7228 6.15189 13.635 6.00002H12V5.00002H13.635C13.7216 4.84724 13.8475 4.72035 13.9995 4.63245ZM2.36499 10H3.99999V11H2.36499C2.27835 11.1528 2.15251 11.2797 2.00045 11.3676C1.84839 11.4555 1.67562 11.5012 1.49999 11.5C1.23477 11.5 0.980418 11.3947 0.792882 11.2071C0.605345 11.0196 0.499989 10.7652 0.499989 10.5C0.499989 10.2348 0.605345 9.98045 0.792882 9.79292C0.980418 9.60538 1.23477 9.50002 1.49999 9.50002C1.67562 9.49884 1.84839 9.54456 2.00045 9.63245C2.15251 9.72035 2.27835 9.84724 2.36499 10ZM5.99999 7.00003V11.793L7.70704 13.5L5.49999 15.7071L3.29294 13.5L4.99999 11.793V7.00003H5.99999ZM5.49999 12.7071L4.70704 13.5L5.49999 14.293L6.29294 13.5L5.49999 12.7071ZM8.99999 5.00002H4.20704L2.49999 3.29297L0.292938 5.50002L2.49999 7.70707L4.20704 6.00002H8.99999V5.00002ZM2.49999 6.29297L1.70704 5.50002L2.49999 4.70707L3.29294 5.50002L2.49999 6.29297ZM6.2071 0.792924C6.39463 0.98046 6.49999 1.23481 6.49999 1.50003C6.50118 1.67567 6.45547 1.84844 6.36757 2.0005C6.27967 2.15256 6.15278 2.2784 5.99999 2.36503V4.00003H4.99999V2.36503C4.8472 2.2784 4.7203 2.15256 4.63241 2.0005C4.54451 1.84844 4.4988 1.67567 4.49999 1.50003C4.49999 1.23481 4.60535 0.98046 4.79288 0.792924C4.98042 0.605387 5.23477 0.500031 5.49999 0.500031C5.7652 0.500031 6.01956 0.605387 6.2071 0.792924ZM11 13.635V12H9.99999V13.635C9.80935 13.7451 9.66035 13.915 9.57611 14.1184C9.49187 14.3218 9.47709 14.5472 9.53406 14.7599C9.59104 14.9725 9.71658 15.1604 9.89123 15.2944C10.0659 15.4284 10.2799 15.5011 10.5 15.5011C10.7201 15.5011 10.9341 15.4284 11.1088 15.2944C11.2834 15.1604 11.4089 14.9725 11.4659 14.7599C11.5229 14.5472 11.5081 14.3218 11.4239 14.1184C11.3396 13.915 11.1906 13.7451 11 13.635ZM13.5 8.29297L15.707 10.5L13.5 12.7071L11.7929 11H6.99999V10H11.7929L13.5 8.29297ZM14.2929 10.5L13.5 9.70707L12.707 10.5L13.5 11.293L14.2929 10.5Z" fill="black"/>
</g>
<defs>
<clipPath id="clip0_3_13239">
<rect width="16" height="16" fill="white"/>
</clipPath>
</defs>
</svg>
