<svg width="16" height="16" viewBox="0 0 16 16" fill="none" xmlns="http://www.w3.org/2000/svg">
<path fill-rule="evenodd" clip-rule="evenodd" d="M8.5 4L11.5 1L14.5 4L13.7929 4.70115L12 2.9077V14C11.9997 14.2651 11.8942 14.5193 11.7067 14.7067C11.5193 14.8942 11.2651 14.9997 11 15H3C2.73489 14.9997 2.48072 14.8942 2.29326 14.7067C2.10579 14.5193 2.00033 14.2651 2 14V6H3V14H11V2.9092L9.2073 4.70115L8.5 4ZM6 12H8C8.26512 11.9997 8.5193 11.8942 8.70677 11.7068C8.89424 11.5193 8.9997 11.2651 9 11V9C8.9997 8.73488 8.89424 8.4807 8.70677 8.29323C8.5193 8.10576 8.26512 8.0003 8 8H6C5.73488 8.0003 5.4807 8.10576 5.29323 8.29323C5.10576 8.4807 5.0003 8.73488 5 9V11C5.0003 11.2651 5.10576 11.5193 5.29323 11.7068C5.4807 11.8942 5.73488 11.9997 6 12ZM6 11V9H8V11H6Z" fill="black"/>
</svg>
