<svg width="16" height="16" viewBox="0 0 16 16" fill="none" xmlns="http://www.w3.org/2000/svg">
<path fill-rule="evenodd" clip-rule="evenodd" d="M10.8889 4.66294C11.2178 4.8827 11.6044 5 12 5C12.5303 4.99941 13.0386 4.7885 13.4136 4.41356C13.7885 4.03861 13.9994 3.53025 14 3C14 2.60444 13.8827 2.21776 13.6629 1.88886C13.4432 1.55996 13.1308 1.30362 12.7654 1.15224C12.3999 1.00087 11.9978 0.96126 11.6098 1.03843C11.2219 1.1156 10.8655 1.30608 10.5858 1.58579C10.3061 1.86549 10.1156 2.22186 10.0384 2.60982C9.96126 2.99778 10.0009 3.39992 10.1522 3.76537C10.3036 4.13082 10.56 4.44318 10.8889 4.66294ZM11.4444 2.16853C11.6089 2.05865 11.8022 2 12 2C12.2651 2.00028 12.5193 2.10572 12.7068 2.2932C12.8943 2.48068 12.9997 2.73487 13 3C13 3.19778 12.9414 3.39112 12.8315 3.55557C12.7216 3.72002 12.5654 3.84819 12.3827 3.92388C12.2 3.99957 11.9989 4.01937 11.8049 3.98079C11.6109 3.9422 11.4327 3.84696 11.2929 3.70711C11.153 3.56726 11.0578 3.38907 11.0192 3.19509C10.9806 3.00111 11.0004 2.80004 11.0761 2.61732C11.1518 2.43459 11.28 2.27841 11.4444 2.16853ZM5.30843 14.1986C5.82398 14.7123 6.52223 15.0005 7.25 15C7.97777 15.0005 8.67602 14.7123 9.19157 14.1986C9.70712 13.685 9.99786 12.9878 10 12.26C10 10.5387 7.8279 1.75296 7.73535 1.38001C7.70851 1.27157 7.64613 1.17525 7.55816 1.10641C7.47019 1.03756 7.36171 1.00015 7.25 1.00015C7.13829 1.00015 7.02981 1.03756 6.94184 1.10641C6.85387 1.17525 6.79149 1.27157 6.76465 1.38001C6.6721 1.75296 4.5 10.5387 4.5 12.26C4.50214 12.9878 4.79288 13.685 5.30843 14.1986ZM5.5 12.26C5.5 11.2045 6.51955 6.69001 7.25 3.62196C7.98045 6.69001 9 11.2045 9 12.26C9 12.7241 8.81563 13.1693 8.48744 13.4974C8.15925 13.8256 7.71413 14.01 7.25 14.01C6.78587 14.01 6.34075 13.8256 6.01256 13.4974C5.68437 13.1693 5.5 12.7241 5.5 12.26Z" fill="black"/>
</svg>
