<svg width="16" height="16" viewBox="0 0 16 16" fill="none" xmlns="http://www.w3.org/2000/svg">
<path fill-rule="evenodd" clip-rule="evenodd" d="M9.9975 7.00003H14.5029C14.5691 6.99944 14.6345 6.98574 14.6954 6.95974C14.7563 6.93374 14.8114 6.89595 14.8576 6.84854C14.9038 6.80113 14.9402 6.74505 14.9646 6.68352C14.9891 6.62199 15.0011 6.55623 15 6.49003C14.9957 5.03531 14.4159 3.6414 13.3873 2.61275C12.3586 1.58411 10.9647 1.00432 9.51 1.00003C9.44365 0.999262 9.37781 1.01159 9.31623 1.03633C9.25466 1.06106 9.19858 1.0977 9.15119 1.14415C9.10381 1.1906 9.06607 1.24595 9.04012 1.30702C9.01418 1.36809 9.00054 1.43368 9 1.50003V6.00003C8.99972 6.13123 9.02531 6.26118 9.07531 6.38247C9.12531 6.50376 9.19873 6.61401 9.29138 6.70689C9.38403 6.79977 9.49409 6.87347 9.61525 6.92377C9.73642 6.97407 9.86631 6.99999 9.9975 7.00003ZM13.9724 6.00003H10V2.02763C11.0139 2.14258 11.9589 2.59804 12.6804 3.31959C13.402 4.04114 13.8575 4.9861 13.9724 6.00003ZM7.5 14V13C8.60653 12.9986 9.67387 12.5902 10.4987 11.8525C11.3234 11.1149 11.848 10.0995 11.9724 9.00003H8C7.73487 8.99975 7.48068 8.89431 7.2932 8.70683C7.10572 8.51935 7.00028 8.26516 7 8.00003V4.02763C5.90048 4.15203 4.88516 4.67659 4.1475 5.50138C3.40984 6.32616 3.00139 7.3935 3 8.50003H2C2.00165 7.04185 2.58165 5.64386 3.61274 4.61277C4.64383 3.58168 6.04182 3.00168 7.5 3.00003C7.63261 3.00003 7.75979 3.05271 7.85355 3.14648C7.94732 3.24025 8 3.36742 8 3.50003V8.00003H12.5C12.6326 8.00003 12.7598 8.05271 12.8536 8.14648C12.9473 8.24024 13 8.36742 13 8.50003C12.9983 9.95821 12.4184 11.3562 11.3873 12.3873C10.3562 13.4184 8.95818 13.9984 7.5 14ZM2 10V11H4.293L1 14.293L1.707 15L5 11.707V14H6V10H2Z" fill="black"/>
</svg>
