<svg width="16" height="16" viewBox="0 0 16 16" fill="none" xmlns="http://www.w3.org/2000/svg">
<path fill-rule="evenodd" clip-rule="evenodd" d="M9.5 7H14C14.1326 7 14.2598 6.94732 14.3536 6.85355C14.4473 6.75979 14.5 6.63261 14.5 6.5C14.5 5.04131 13.9205 3.64236 12.8891 2.61091C11.8576 1.57946 10.4587 1 9 1C8.86739 1 8.74021 1.05268 8.64645 1.14645C8.55268 1.24021 8.5 1.36739 8.5 1.5V6C8.5 6.26522 8.60536 6.51957 8.79289 6.70711C8.98043 6.89464 9.23478 7 9.5 7ZM13.47 6H9.5V2.03C10.5137 2.14378 11.4587 2.59862 12.1801 3.31994C12.9014 4.04126 13.3562 4.98626 13.47 6ZM2.61091 13.3891C3.64236 14.4205 5.04131 15 6.5 15C7.95869 15 9.35764 14.4205 10.3891 13.3891C11.4205 12.3576 12 10.9587 12 9.5C12 9.36739 11.9473 9.24021 11.8536 9.14645C11.7598 9.05268 11.6326 9 11.5 9H7V4.5C7 4.36739 6.94732 4.24021 6.85355 4.14645C6.75979 4.05268 6.63261 4 6.5 4C5.04131 4 3.64236 4.57946 2.61091 5.61091C1.57946 6.64236 1 8.04131 1 9.5C1 10.9587 1.57946 12.3576 2.61091 13.3891ZM3.69558 5.98123C4.35881 5.45345 5.1576 5.12372 6 5.03V9C6 9.26522 6.10536 9.51957 6.29289 9.70711C6.48043 9.89464 6.73478 10 7 10H10.97C10.8763 10.8424 10.5465 11.6412 10.0188 12.3044C9.491 12.9677 8.78665 13.4683 7.98682 13.7488C7.18698 14.0293 6.32419 14.0782 5.49778 13.8899C4.67138 13.7016 3.91495 13.2837 3.31562 12.6844C2.71628 12.085 2.29839 11.3286 2.11007 10.5022C1.92175 9.67581 1.97066 8.81302 2.25116 8.01318C2.53166 7.21335 3.03235 6.509 3.69558 5.98123Z" fill="black"/>
</svg>
