<svg width="16" height="16" viewBox="0 0 16 16" fill="none" xmlns="http://www.w3.org/2000/svg">
<path fill-rule="evenodd" clip-rule="evenodd" d="M2 13H14V3H2V13ZM2 2H14C14.2652 2 14.5196 2.10536 14.7071 2.29289C14.8946 2.48043 15 2.73478 15 3V13C15 13.2652 14.8946 13.5196 14.7071 13.7071C14.5196 13.8946 14.2652 14 14 14H2C1.73478 14 1.48043 13.8946 1.29289 13.7071C1.10536 13.5196 1 13.2652 1 13V3C1 2.73478 1.10536 2.48043 1.29289 2.29289C1.48043 2.10536 1.73478 2 2 2ZM3 4H8V5H3V4ZM8 6H3V7H8V6ZM3 8H6V9H3V8Z" fill="black"/>
</svg>
