<svg width="16" height="16" viewBox="0 0 16 16" fill="none" xmlns="http://www.w3.org/2000/svg">
<path fill-rule="evenodd" clip-rule="evenodd" d="M6.97373 3.02627C6.31758 2.37011 5.42794 2.00103 4.5 2C3.57174 2 2.6815 2.36875 2.02513 3.02513C1.36875 3.6815 1 4.57174 1 5.5C1 6.42826 1.36875 7.3185 2.02513 7.97487C2.6815 8.63125 3.57174 9 4.5 9H13.0859L10.7929 11.2929L11.5 12L15 8.5L11.5 5L10.7929 5.70705L13.0859 8H4.5C4.00555 8 3.5222 7.85338 3.11107 7.57867C2.69995 7.30397 2.37952 6.91352 2.1903 6.45671C2.00108 5.99989 1.95157 5.49723 2.04804 5.01227C2.1445 4.52732 2.3826 4.08186 2.73223 3.73223C3.08186 3.3826 3.52732 3.1445 4.01227 3.04804C4.49723 2.95157 4.99989 3.00108 5.45671 3.1903C5.91352 3.37952 6.30397 3.69995 6.57867 4.11107C6.85338 4.5222 7 5.00555 7 5.5V7H8V5.5C7.99897 4.57206 7.62989 3.68242 6.97373 3.02627ZM7 10H8V14H7V10Z" fill="black"/>
</svg>
