<svg width="16" height="16" viewBox="0 0 16 16" fill="none" xmlns="http://www.w3.org/2000/svg">
<path fill-rule="evenodd" clip-rule="evenodd" d="M2 1H14C14.2652 1 14.5196 1.10536 14.7071 1.29289C14.8946 1.48043 15 1.73478 15 2V14C15 14.2652 14.8946 14.5196 14.7071 14.7071C14.5196 14.8946 14.2652 15 14 15H2C1.73478 15 1.48043 14.8946 1.29289 14.7071C1.10536 14.5196 1 14.2652 1 14V2C1 1.73478 1.10536 1.48043 1.29289 1.29289C1.48043 1.10536 1.73478 1 2 1ZM8 13H13V8H12V11.2929L7.5835 6.87645C7.87991 6.42883 8.02471 5.89784 7.99657 5.36171C7.96843 4.82559 7.76883 4.31268 7.42719 3.89855C7.08555 3.48442 6.61993 3.19097 6.09893 3.06143C5.57793 2.9319 5.02909 2.97313 4.53329 3.17905C4.03749 3.38497 3.62094 3.74469 3.345 4.20521C3.06907 4.66574 2.94834 5.20271 3.00062 5.73703C3.05289 6.27134 3.2754 6.77473 3.63536 7.17305C3.99532 7.57136 4.47369 7.84353 5 7.94945V13H6V7.94945C6.31297 7.88498 6.61056 7.76072 6.87645 7.5835L11.2929 12H8V13ZM7 5.5C7 6.32843 6.32843 7 5.5 7C4.67157 7 4 6.32843 4 5.5C4 4.67157 4.67157 4 5.5 4C6.32843 4 7 4.67157 7 5.5Z" fill="black"/>
</svg>
