<svg width="16" height="16" viewBox="0 0 16 16" fill="none" xmlns="http://www.w3.org/2000/svg">
<path fill-rule="evenodd" clip-rule="evenodd" d="M6.20801 3.29346L10.2066 7.29201C10.2996 7.38495 10.3734 7.49532 10.4237 7.6168C10.4741 7.73828 10.5 7.8685 10.5 8.00001C10.5 8.13151 10.4741 8.26173 10.4237 8.38321C10.3734 8.50469 10.2996 8.61506 10.2066 8.70801L9.4573 9.45731L8.75 8.75001L9.49951 8.00101L5.49901 4.00051L1.50051 8.00101L5.49901 11.9995L6.62816 10.8709L7.33596 11.5786L6.20801 12.7066C6.11506 12.7996 6.00469 12.8734 5.88321 12.9237C5.76173 12.9741 5.63151 13 5.50001 13C5.3685 13 5.23828 12.9741 5.1168 12.9237C4.99532 12.8734 4.88495 12.7996 4.79201 12.7066L3.14626 11.0608L2.20706 12L1.50001 11.293L2.43921 10.3538L0.793455 8.70801C0.700424 8.61506 0.626623 8.50469 0.57627 8.38321C0.525917 8.26173 0.5 8.13151 0.5 8.00001C0.5 7.8685 0.525917 7.73828 0.57627 7.6168C0.626623 7.49532 0.700424 7.38495 0.793455 7.29201L4.79201 3.29346C4.88495 3.20042 4.99532 3.12662 5.1168 3.07627C5.23828 3.02592 5.3685 3 5.50001 3C5.63151 3 5.76173 3.02592 5.88321 3.07627C6.00469 3.12662 6.11506 3.20042 6.20801 3.29346ZM13.5608 5.64626L15.2066 7.29201C15.2996 7.38495 15.3734 7.49532 15.4237 7.6168C15.4741 7.73828 15.5 7.8685 15.5 8.00001C15.5 8.13151 15.4741 8.26173 15.4237 8.38321C15.3734 8.50469 15.2996 8.61506 15.2066 8.70801L11.208 12.7066C11.1151 12.7996 11.0047 12.8734 10.8832 12.9237C10.7617 12.9741 10.6315 13 10.5 13C10.3685 13 10.2383 12.9741 10.1168 12.9237C9.99532 12.8734 9.88495 12.7996 9.79201 12.7066L5.79346 8.70801C5.70042 8.61506 5.62662 8.50469 5.57627 8.38321C5.52592 8.26173 5.5 8.13151 5.5 8.00001C5.5 7.8685 5.52592 7.73828 5.57627 7.6168C5.62662 7.49532 5.70042 7.38495 5.79346 7.29201L6.54271 6.54271L7.25051 7.25051L6.50051 8.00101L10.499 11.9995L14.4995 8.00101L10.499 4.00051L9.37136 5.12866L8.66405 4.42141L9.79201 3.29346C9.88495 3.20042 9.99532 3.12662 10.1168 3.07627C10.2383 3.02592 10.3685 3 10.5 3C10.6315 3 10.7617 3.02592 10.8832 3.07627C11.0047 3.12662 11.1151 3.20042 11.208 3.29346L12.8538 4.93921L13.793 4.00001L14.5 4.70706L13.5608 5.64626Z" fill="black"/>
</svg>
