<svg width="16" height="16" viewBox="0 0 16 16" fill="none" xmlns="http://www.w3.org/2000/svg">
<path fill-rule="evenodd" clip-rule="evenodd" d="M2 1H14C14.2652 1 14.5196 1.10536 14.7071 1.29289C14.8946 1.48043 15 1.73478 15 2V14C15 14.2652 14.8946 14.5196 14.7071 14.7071C14.5196 14.8946 14.2652 15 14 15H2C1.73478 15 1.48043 14.8946 1.29289 14.7071C1.10536 14.5196 1 14.2652 1 14V2C1 1.73478 1.10536 1.48043 1.29289 1.29289C1.48043 1.10536 1.73478 1 2 1ZM9.29295 8.29295L10 9L13.5 5.5L10 2L9.29295 2.70705L11.5859 5H7.94945C7.85913 4.55746 7.6506 4.14766 7.34603 3.81413C7.04147 3.48061 6.65223 3.23583 6.21969 3.1058C5.78715 2.97576 5.32747 2.96534 4.88948 3.07563C4.45149 3.18592 4.05156 3.41281 3.73218 3.73218C3.41281 4.05156 3.18592 4.45149 3.07563 4.88948C2.96534 5.32747 2.97576 5.78715 3.1058 6.21969C3.23583 6.65223 3.48061 7.04147 3.81413 7.34603C4.14766 7.6506 4.55746 7.85913 5 7.94945V13H6V7.94945C6.47988 7.85053 6.92026 7.61318 7.26672 7.26672C7.61318 6.92026 7.85053 6.47988 7.94945 6H11.5859L9.29295 8.29295ZM7 5.5C7 6.32843 6.32843 7 5.5 7C4.67157 7 4 6.32843 4 5.5C4 4.67157 4.67157 4 5.5 4C6.32843 4 7 4.67157 7 5.5Z" fill="black"/>
</svg>
