<svg width="16" height="16" viewBox="0 0 16 16" fill="none" xmlns="http://www.w3.org/2000/svg">
<path d="M11 2L10.293 2.70705L12.5859 5H8.455C8.36349 4.45725 8.12434 3.95016 7.76377 3.53431C7.40319 3.11845 6.9351 2.80988 6.41079 2.6424C5.88648 2.47492 5.32618 2.455 4.7913 2.58482C4.25642 2.71464 3.7676 2.9892 3.3784 3.3784C2.9892 3.76759 2.71464 4.25642 2.58482 4.7913C2.455 5.32618 2.47492 5.88648 2.6424 6.41079C2.80988 6.9351 3.11845 7.40319 3.53431 7.76377C3.95016 8.12434 4.45725 8.36349 5 8.455V14H6V8.455C6.61304 8.35037 7.17848 8.05799 7.61823 7.61823C8.05799 7.17848 8.35037 6.61304 8.455 6H12.5861L10.2931 8.29295L11 9L14.5 5.5L11 2ZM5.5 7.5C5.10444 7.5 4.71776 7.3827 4.38886 7.16294C4.05996 6.94318 3.80362 6.63082 3.65224 6.26537C3.50087 5.89991 3.46126 5.49778 3.53843 5.10982C3.6156 4.72186 3.80608 4.36549 4.08579 4.08579C4.36549 3.80608 4.72186 3.6156 5.10982 3.53843C5.49778 3.46126 5.89992 3.50087 6.26537 3.65224C6.63082 3.80362 6.94318 4.05996 7.16294 4.38886C7.3827 4.71776 7.5 5.10444 7.5 5.5C7.4994 6.03025 7.2885 6.53861 6.91356 6.91356C6.53861 7.2885 6.03025 7.4994 5.5 7.5Z" fill="black"/>
</svg>
