<svg width="16" height="16" viewBox="0 0 16 16" fill="none" xmlns="http://www.w3.org/2000/svg">
<path fill-rule="evenodd" clip-rule="evenodd" d="M9.02627 3.02627C9.68242 2.37011 10.5721 2.00103 11.5 2C12.4283 2 13.3185 2.36875 13.9749 3.02513C14.6313 3.6815 15 4.57174 15 5.5C15 6.42826 14.6313 7.3185 13.9749 7.97487C13.3185 8.63125 12.4283 9 11.5 9H2.91405L5.20705 11.2929L4.5 12L1 8.5L4.5 5L5.20705 5.70705L2.91405 8H11.5C11.9945 8 12.4778 7.85338 12.8889 7.57867C13.3 7.30397 13.6205 6.91352 13.8097 6.45671C13.9989 5.99989 14.0484 5.49723 13.952 5.01227C13.8555 4.52732 13.6174 4.08186 13.2678 3.73223C12.9181 3.3826 12.4727 3.1445 11.9877 3.04804C11.5028 2.95157 11.0001 3.00108 10.5433 3.1903C10.0865 3.37952 9.69603 3.69995 9.42133 4.11107C9.14662 4.5222 9 5.00555 9 5.5V7H8V5.5C8.00103 4.57206 8.37011 3.68242 9.02627 3.02627ZM8 10H9V14H8V10Z" fill="black"/>
</svg>
