<svg width="16" height="16" viewBox="0 0 16 16" fill="none" xmlns="http://www.w3.org/2000/svg">
<path d="M13 8.99999V12.2929L7.9356 7.22849C8.3003 6.72574 8.49774 6.12108 8.5 5.49999C8.50058 4.92789 8.33757 4.36756 8.03018 3.88505C7.72279 3.40255 7.28385 3.018 6.76511 2.77675C6.24637 2.53549 5.66946 2.44759 5.10241 2.52341C4.53536 2.59924 4.00181 2.83561 3.56467 3.20468C3.12754 3.57375 2.80505 4.06011 2.63522 4.60642C2.4654 5.15273 2.45533 5.73621 2.60619 6.28806C2.75706 6.83991 3.06257 7.33711 3.4867 7.72105C3.91083 8.10498 4.43591 8.35964 5 8.45499V14H6V8.45499C6.44327 8.37666 6.86302 8.19887 7.2277 7.93499L12.293 13H9V14H14V8.99999H13ZM5.5 7.49999C5.10444 7.49999 4.71776 7.38269 4.38886 7.16293C4.05996 6.94317 3.80362 6.63081 3.65224 6.26536C3.50087 5.8999 3.46126 5.49777 3.53843 5.10981C3.6156 4.72185 3.80608 4.36548 4.08579 4.08578C4.36549 3.80607 4.72186 3.61559 5.10982 3.53842C5.49778 3.46125 5.89992 3.50086 6.26537 3.65223C6.63082 3.80361 6.94318 4.05995 7.16294 4.38885C7.3827 4.71775 7.5 5.10443 7.5 5.49999C7.49941 6.03024 7.2885 6.5386 6.91356 6.91354C6.53861 7.28849 6.03025 7.49939 5.5 7.49999Z" fill="black"/>
</svg>
