<svg width="16" height="16" viewBox="0 0 16 16" fill="none" xmlns="http://www.w3.org/2000/svg">
<path fill-rule="evenodd" clip-rule="evenodd" d="M5.5 3H6C6.26512 3.0003 6.5193 3.10576 6.70677 3.29323C6.89424 3.4807 6.9997 3.73488 7 4V12C6.9997 12.2651 6.89424 12.5193 6.70677 12.7068C6.5193 12.8942 6.26512 12.9997 6 13H5.5V15H4.5V13H4C3.73488 12.9997 3.4807 12.8942 3.29323 12.7068C3.10576 12.5193 3.0003 12.2651 3 12V4C3.0003 3.73488 3.10576 3.4807 3.29323 3.29323C3.4807 3.10576 3.73488 3.0003 4 3H4.5V1H5.5V3ZM4 12H6V4H4V12ZM11.5 5H12C12.2651 5.0003 12.5193 5.10576 12.7068 5.29323C12.8942 5.4807 12.9997 5.73488 13 6V10C12.9997 10.2651 12.8942 10.5193 12.7068 10.7068C12.5193 10.8942 12.2651 10.9997 12 11H11.5V15H10.5V11H10C9.73488 10.9997 9.4807 10.8942 9.29323 10.7068C9.10576 10.5193 9.0003 10.2651 9 10V6C9.0003 5.73488 9.10576 5.4807 9.29323 5.29323C9.4807 5.10576 9.73488 5.0003 10 5H10.5V1H11.5V5ZM10 10H12V6H10V10Z" fill="black"/>
</svg>
