<svg width="16" height="16" viewBox="0 0 16 16" fill="none" xmlns="http://www.w3.org/2000/svg">
<path fill-rule="evenodd" clip-rule="evenodd" d="M7 1H6V15H7V1ZM14 1H15V15H14V1ZM10 11H12C12.2651 10.9997 12.5193 10.8943 12.7068 10.7068C12.8943 10.5193 12.9997 10.2651 13 10V6C12.9997 5.73487 12.8943 5.48068 12.7068 5.2932C12.5193 5.10572 12.2651 5.00028 12 5H10C9.73487 5.00028 9.48068 5.10572 9.2932 5.2932C9.10572 5.48068 9.00028 5.73487 9 6V10C9.00028 10.2651 9.10572 10.5193 9.2932 10.7068C9.48068 10.8943 9.73487 10.9997 10 11ZM9.99925 6H10H12V10H10L9.99925 6ZM2 13H4C4.26513 12.9997 4.51932 12.8943 4.7068 12.7068C4.89428 12.5193 4.99972 12.2651 5 12V4C4.99972 3.73487 4.89428 3.48068 4.7068 3.2932C4.51932 3.10572 4.26513 3.00028 4 3H2C1.73487 3.00028 1.48068 3.10572 1.2932 3.2932C1.10572 3.48068 1.00028 3.73487 1 4V12C1.00028 12.2651 1.10572 12.5193 1.2932 12.7068C1.48068 12.8943 1.73487 12.9997 2 13ZM1.99925 4H2H4V12H2L1.99925 4Z" fill="black"/>
</svg>
