<svg width="16" height="16" viewBox="0 0 16 16" fill="none" xmlns="http://www.w3.org/2000/svg">
<path fill-rule="evenodd" clip-rule="evenodd" d="M11 4.5H15V5.5H11V6C10.9997 6.26512 10.8942 6.5193 10.7068 6.70677C10.5193 6.89424 10.2651 6.9997 10 7H6C5.73488 6.9997 5.4807 6.89424 5.29323 6.70677C5.10576 6.5193 5.0003 6.26512 5 6V5.5H1V4.5H5V4C5.0003 3.73488 5.10576 3.4807 5.29323 3.29323C5.4807 3.10576 5.73488 3.0003 6 3H10C10.2651 3.0003 10.5193 3.10576 10.7068 3.29323C10.8942 3.4807 10.9997 3.73488 11 4V4.5ZM6 6H10V3.9995L6 4V6ZM13 10.5H15V11.5H13V12C12.9997 12.2651 12.8942 12.5193 12.7068 12.7068C12.5193 12.8942 12.2651 12.9997 12 13H4C3.73488 12.9997 3.4807 12.8942 3.29323 12.7068C3.10576 12.5193 3.0003 12.2651 3 12V11.5H1V10.5H3V10C3.0003 9.73488 3.10576 9.4807 3.29323 9.29323C3.4807 9.10576 3.73488 9.0003 4 9H12C12.2651 9.0003 12.5193 9.10576 12.7068 9.29323C12.8942 9.4807 12.9997 9.73488 13 10V10.5ZM4 12H12V9.9995L4 10V12Z" fill="black"/>
</svg>
