<svg width="16" height="16" viewBox="0 0 16 16" fill="none" xmlns="http://www.w3.org/2000/svg">
<path fill-rule="evenodd" clip-rule="evenodd" d="M6 5H10C10.2651 4.99972 10.5193 4.89428 10.7068 4.7068C10.8943 4.51932 10.9997 4.26513 11 4V2C10.9997 1.73487 10.8943 1.48068 10.7068 1.2932C10.5193 1.10572 10.2651 1.00028 10 1H6C5.73487 1.00028 5.48068 1.10572 5.2932 1.2932C5.10572 1.48068 5.00028 1.73487 5 2V4C5.00028 4.26513 5.10572 4.51932 5.2932 4.7068C5.48068 4.89428 5.73487 4.99972 6 5ZM6 2L10 1.9994V4H6V2ZM15 6H1V7H15V6ZM4 13H12C12.2651 12.9997 12.5193 12.8943 12.7068 12.7068C12.8943 12.5193 12.9997 12.2651 13 12V10C12.9997 9.73487 12.8943 9.48068 12.7068 9.2932C12.5193 9.10572 12.2651 9.00028 12 9H4C3.73487 9.00028 3.48068 9.10572 3.2932 9.2932C3.10572 9.48068 3.00028 9.73487 3 10V12C3.00028 12.2651 3.10572 12.5193 3.2932 12.7068C3.48068 12.8943 3.73487 12.9997 4 13ZM4 10L12 9.9994V12H4V10ZM1 14H15V15H1V14Z" fill="black"/>
</svg>
