<svg width="16" height="16" viewBox="0 0 16 16" fill="none" xmlns="http://www.w3.org/2000/svg">
<path fill-rule="evenodd" clip-rule="evenodd" d="M1 1H2V15H1V1ZM9 1H10V15H9V1ZM12 11H14C14.2651 10.9997 14.5193 10.8943 14.7068 10.7068C14.8943 10.5193 14.9997 10.2651 15 10V6C14.9997 5.73487 14.8943 5.48068 14.7068 5.2932C14.5193 5.10572 14.2651 5.00028 14 5H12C11.7349 5.00028 11.4807 5.10572 11.2932 5.2932C11.1057 5.48068 11.0003 5.73487 11 6V10C11.0003 10.2651 11.1057 10.5193 11.2932 10.7068C11.4807 10.8943 11.7349 10.9997 12 11ZM12 10V6H14V10H12ZM6 13H4C3.73487 12.9997 3.48068 12.8943 3.2932 12.7068C3.10572 12.5193 3.00028 12.2651 3 12V4C3.00028 3.73487 3.10572 3.48068 3.2932 3.2932C3.48068 3.10572 3.73487 3.00028 4 3H6C6.26513 3.00028 6.51932 3.10572 6.7068 3.2932C6.89428 3.48068 6.99972 3.73487 7 4V12C6.99972 12.2651 6.89428 12.5193 6.7068 12.7068C6.51932 12.8943 6.26513 12.9997 6 13ZM4 4V12H6V4H4Z" fill="black"/>
</svg>
