<svg width="16" height="16" viewBox="0 0 16 16" fill="none" xmlns="http://www.w3.org/2000/svg">
<path fill-rule="evenodd" clip-rule="evenodd" d="M15 7.99992V8.49992H6.01299C6.04138 10.4548 6.63361 12.3599 7.71854 13.9863C7.75124 13.9878 7.78376 13.9899 7.81627 13.992C7.8772 13.996 7.93809 13.9999 8.00004 13.9999C8.46637 14.0002 8.93115 13.9463 9.38504 13.8393L9.61504 14.8124C8.20186 15.1464 6.71976 15.0322 5.37442 14.4857C4.02907 13.9392 2.88721 12.9875 2.10729 11.7626C1.32736 10.5377 0.948062 9.10041 1.02202 7.65018C1.09598 6.19996 1.61952 4.80872 2.52 3.66953C3.42049 2.53034 4.65325 1.6997 6.04721 1.29288C7.44117 0.886061 8.92719 0.923241 10.2991 1.39926C11.6709 1.87528 12.8606 2.76653 13.703 3.94933C14.5454 5.13212 14.9987 6.54781 15 7.99992ZM10.9876 7.49992H13.9793C13.8748 6.27846 13.3994 5.11814 12.6168 4.17453C11.8342 3.23093 10.7818 2.54915 9.60074 2.22062C10.4577 3.85232 10.932 5.6577 10.9876 7.49992ZM9.98709 7.49992C9.9587 5.54506 9.36646 3.63998 8.28154 2.01357C8.24884 2.01205 8.21632 2.00994 8.18382 2.00783C8.12288 2.00387 8.06199 1.99992 8.00004 1.99992C7.93809 1.99992 7.8772 2.00387 7.81626 2.00783C7.78376 2.00994 7.75124 2.01205 7.71854 2.01357C6.63361 3.63998 6.04138 5.54506 6.01299 7.49992H9.98709ZM5.01249 7.49992C5.0681 5.6577 5.54237 3.85232 6.39934 2.22062C5.21827 2.54915 4.16587 3.23093 3.38326 4.17453C2.60065 5.11814 2.12525 6.27846 2.02079 7.49992H5.01249ZM3.38326 11.8253C4.16587 12.7689 5.21827 13.4507 6.39934 13.7792C5.54237 12.1475 5.0681 10.3421 5.01249 8.49992H2.02079C2.12525 9.72137 2.60065 10.8817 3.38326 11.8253ZM15 10H10V11H15V10ZM13 12H10V13H13V12Z" fill="black"/>
</svg>
