<svg width="16" height="16" viewBox="0 0 16 16" fill="none" xmlns="http://www.w3.org/2000/svg">
<path fill-rule="evenodd" clip-rule="evenodd" d="M8.3535 1.1465L11.7495 4.5425C11.8689 4.66188 11.9502 4.814 11.9832 4.9796C12.0162 5.1452 11.9993 5.31686 11.9347 5.47287C11.8701 5.62887 11.7607 5.76222 11.6203 5.85605C11.4799 5.94988 11.3149 5.99997 11.146 6H8C7.73488 5.9997 7.4807 5.89424 7.29323 5.70677C7.10576 5.5193 7.0003 5.26512 7 5V2H3V14H7V15H3C2.73502 14.9992 2.48111 14.8936 2.29374 14.7063C2.10637 14.5189 2.00077 14.265 2 14V2C2.00077 1.73502 2.10637 1.48111 2.29374 1.29374C2.48111 1.10637 2.73502 1.00077 3 1H8C8.1326 1.00003 8.25975 1.05273 8.3535 1.1465ZM8 2.20705V5H10.7927L8 2.20705ZM11 10.5H14C14.2651 10.5003 14.5193 10.6058 14.7067 10.7933C14.8942 10.9807 14.9997 11.2349 15 11.5V14C14.9997 14.2651 14.8942 14.5193 14.7067 14.7067C14.5193 14.8942 14.2651 14.9997 14 15H10C9.73489 14.9997 9.48072 14.8942 9.29326 14.7067C9.10579 14.5193 9.00033 14.2651 9 14V11.5C9.00033 11.2349 9.10579 10.9807 9.29326 10.7933C9.48072 10.6058 9.73489 10.5003 10 10.5V9C10 8.46957 10.2107 7.96086 10.5858 7.58579C10.9609 7.21071 11.4696 7 12 7C12.5304 7 13.0391 7.21071 13.4142 7.58579C13.7893 7.96086 14 8.46957 14 9H13C13 8.73478 12.8946 8.48043 12.7071 8.29289C12.5196 8.10536 12.2652 8 12 8C11.7348 8 11.4804 8.10536 11.2929 8.29289C11.1054 8.48043 11 8.73478 11 9V10.5ZM10 11.5V14H14V11.5H10Z" fill="black"/>
</svg>
