<svg width="16" height="16" viewBox="0 0 16 16" fill="none" xmlns="http://www.w3.org/2000/svg">
<path fill-rule="evenodd" clip-rule="evenodd" d="M3 14.0002H8V15.0002H3C2.73502 14.9994 2.48111 14.8938 2.29374 14.7064C2.10637 14.5191 2.00077 14.2652 2 14.0002V2.00017C2.00077 1.73519 2.10637 1.48128 2.29374 1.29391C2.48111 1.10654 2.73502 1.00094 3 1.00017H8C8.06572 0.998364 8.13104 1.01084 8.19147 1.03674C8.2519 1.06263 8.30599 1.10134 8.35 1.15017L11.85 4.65017C11.8988 4.6942 11.9375 4.74828 11.9634 4.80871C11.9893 4.86913 12.0018 4.93446 12 5.00017V7.50017H11V6.00017H8C7.73502 5.99941 7.48111 5.8938 7.29374 5.70643C7.10637 5.51906 7.00077 5.26515 7 5.00017V2.00017H3V14.0002ZM10.8 5.00017L8 2.20017V5.00017H10.8ZM9 8H4V9H9V8ZM10.3333 14.4944C10.8266 14.8241 11.4067 15 12 15C12.7954 14.9991 13.5579 14.6828 14.1203 14.1203C14.6828 13.5579 14.9991 12.7954 15 12C15 11.4067 14.8241 10.8266 14.4944 10.3333C14.1648 9.83994 13.6962 9.45543 13.1481 9.22836C12.5999 9.0013 11.9967 8.94189 11.4147 9.05765C10.8328 9.1734 10.2982 9.45912 9.87868 9.87868C9.45912 10.2982 9.1734 10.8328 9.05765 11.4147C8.94189 11.9967 9.0013 12.5999 9.22836 13.1481C9.45543 13.6962 9.83994 14.1648 10.3333 14.4944ZM10.8889 10.3371C11.2178 10.1173 11.6044 10 12 10C12.5303 10.0006 13.0386 10.2115 13.4136 10.5864C13.7885 10.9614 13.9994 11.4698 14 12C14 12.3956 13.8827 12.7822 13.6629 13.1111C13.4432 13.44 13.1308 13.6964 12.7654 13.8478C12.3999 13.9991 11.9978 14.0387 11.6098 13.9616C11.2219 13.8844 10.8655 13.6939 10.5858 13.4142C10.3061 13.1345 10.1156 12.7781 10.0384 12.3902C9.96126 12.0022 10.0009 11.6001 10.1522 11.2346C10.3036 10.8692 10.56 10.5568 10.8889 10.3371ZM4 11H8V12H4V11Z" fill="black"/>
</svg>
