<svg width="16" height="16" viewBox="0 0 16 16" fill="none" xmlns="http://www.w3.org/2000/svg">
<path fill-rule="evenodd" clip-rule="evenodd" d="M3 13.9999H8V14.9999H3C2.73502 14.9992 2.48111 14.8936 2.29374 14.7062C2.10637 14.5188 2.00077 14.2649 2 13.9999V1.99993C2.00077 1.73495 2.10637 1.48104 2.29374 1.29367C2.48111 1.1063 2.73502 1.00069 3 0.999928H8C8.06572 0.99812 8.13104 1.01059 8.19147 1.03649C8.2519 1.06239 8.30599 1.10109 8.35 1.14993L11.85 4.64993C11.8988 4.69395 11.9375 4.74804 11.9634 4.80847C11.9893 4.86889 12.0018 4.93421 12 4.99993V7.49993H11V5.99993H8C7.73502 5.99916 7.48111 5.89356 7.29374 5.70619C7.10637 5.51882 7.00077 5.26491 7 4.99993V1.99993H3V13.9999ZM10.8 4.99993L8 2.19993V4.99993H10.8ZM10.4306 14.4937L11.5 15L12.5694 14.4939C12.9966 14.2903 13.3575 13.9701 13.6107 13.5703C13.8638 13.1704 13.9988 12.7071 14 12.2339V9H9V12.2339C9.00129 12.7071 9.13627 13.1703 9.3894 13.5701C9.64252 13.9699 10.0035 14.2901 10.4306 14.4937ZM10 12.2339V10H13V12.2339C12.9992 12.5178 12.9182 12.7956 12.7663 13.0354C12.6144 13.2753 12.3979 13.4673 12.1416 13.5893L11.5 13.8931L10.8584 13.5893C10.6021 13.4673 10.3856 13.2753 10.2337 13.0354C10.0818 12.7956 10.0008 12.5178 10 12.2339Z" fill="black"/>
</svg>
