<svg width="16" height="16" viewBox="0 0 16 16" fill="none" xmlns="http://www.w3.org/2000/svg">
<path fill-rule="evenodd" clip-rule="evenodd" d="M4 14H6V15H4C3.73502 14.9992 3.48111 14.8936 3.29374 14.7063C3.10637 14.5189 3.00077 14.265 3 14V1.99999C3.00077 1.73501 3.10637 1.4811 3.29374 1.29373C3.48111 1.10636 3.73502 1.00075 4 0.999989H9C9.06572 0.998181 9.13104 1.01066 9.19147 1.03655C9.2519 1.06245 9.30599 1.10115 9.35 1.14999L12.85 4.64999C12.8988 4.69401 12.9375 4.7481 12.9634 4.80853C12.9893 4.86895 13.0018 4.93427 13 4.99999V7.99999H12V5.99999H9C8.73502 5.99922 8.48111 5.89362 8.29374 5.70625C8.10637 5.51888 8.00077 5.26497 8 4.99999V1.99999H4V14ZM11.8 4.99999L9 2.19999V4.99999H11.8ZM14.8884 11.7393C14.5795 10.9522 14.0464 10.2732 13.3552 9.78629C12.664 9.29937 11.8451 9.02598 11 9C10.1549 9.02598 9.33604 9.29937 8.64484 9.78629C7.95365 10.2732 7.42052 10.9522 7.11155 11.7393L7 12L7.11155 12.2607C7.42052 13.0478 7.95365 13.7268 8.64484 14.2137C9.33604 14.7006 10.1549 14.974 11 15C11.8451 14.974 12.664 14.7006 13.3552 14.2137C14.0464 13.7268 14.5795 13.0478 14.8884 12.2607L15 12L14.8884 11.7393ZM11 14C10.6044 14 10.2178 13.8827 9.88886 13.6629C9.55996 13.4432 9.30362 13.1308 9.15224 12.7654C9.00087 12.3999 8.96126 11.9978 9.03843 11.6098C9.1156 11.2219 9.30608 10.8655 9.58579 10.5858C9.86549 10.3061 10.2219 10.1156 10.6098 10.0384C10.9978 9.96126 11.3999 10.0009 11.7654 10.1522C12.1308 10.3036 12.4432 10.56 12.6629 10.8889C12.8827 11.2178 13 11.6044 13 12C12.9994 12.5303 12.7885 13.0386 12.4136 13.4136C12.0386 13.7885 11.5303 13.9994 11 14ZM11 13C11.5523 13 12 12.5523 12 12C12 11.4477 11.5523 11 11 11C10.4477 11 10 11.4477 10 12C10 12.5523 10.4477 13 11 13Z" fill="black"/>
</svg>
