<svg width="16" height="16" viewBox="0 0 16 16" fill="none" xmlns="http://www.w3.org/2000/svg">
<path fill-rule="evenodd" clip-rule="evenodd" d="M2 3H14C14.2651 3.0003 14.5193 3.10576 14.7068 3.29323C14.8942 3.4807 14.9997 3.73488 15 4V12C14.9997 12.2651 14.8942 12.5193 14.7068 12.7068C14.5193 12.8942 14.2651 12.9997 14 13H2C1.73488 12.9997 1.4807 12.8942 1.29323 12.7068C1.10576 12.5193 1.0003 12.2651 1 12V4C1.0003 3.73488 1.10576 3.4807 1.29323 3.29323C1.4807 3.10576 1.73488 3.0003 2 3ZM6 11V12H10V11C10 10.8674 9.94732 10.7402 9.85355 10.6464C9.75979 10.5527 9.63261 10.5 9.5 10.5H6.5C6.36739 10.5 6.24021 10.5527 6.14645 10.6464C6.05268 10.7402 6 10.8674 6 11ZM11 12H14V4H2V12H5V11C5 10.6022 5.15804 10.2206 5.43934 9.93934C5.72064 9.65804 6.10218 9.5 6.5 9.5H9.5C9.89782 9.5 10.2794 9.65804 10.5607 9.93934C10.842 10.2206 11 10.6022 11 11V12ZM9.11114 8.66294C8.78224 8.8827 8.39556 9 8 9C7.46957 9 6.96086 8.78929 6.58579 8.41421C6.21071 8.03914 6 7.53043 6 7C6 6.60444 6.1173 6.21776 6.33706 5.88886C6.55682 5.55996 6.86918 5.30362 7.23463 5.15224C7.60009 5.00087 8.00222 4.96126 8.39018 5.03843C8.77814 5.1156 9.13451 5.30608 9.41421 5.58579C9.69392 5.86549 9.8844 6.22186 9.96157 6.60982C10.0387 6.99778 9.99913 7.39992 9.84776 7.76537C9.69638 8.13082 9.44004 8.44318 9.11114 8.66294ZM8.55557 6.16853C8.39112 6.05865 8.19778 6 8 6C7.73478 6 7.48043 6.10536 7.29289 6.29289C7.10536 6.48043 7 6.73478 7 7C7 7.19778 7.05865 7.39112 7.16853 7.55557C7.27841 7.72002 7.43459 7.84819 7.61732 7.92388C7.80004 7.99957 8.00111 8.01937 8.19509 7.98079C8.38907 7.9422 8.56725 7.84696 8.70711 7.70711C8.84696 7.56726 8.9422 7.38907 8.98079 7.19509C9.01937 7.00111 8.99957 6.80004 8.92388 6.61732C8.84819 6.43459 8.72002 6.27841 8.55557 6.16853Z" fill="black"/>
</svg>
