<svg width="16" height="16" viewBox="0 0 16 16" fill="none" xmlns="http://www.w3.org/2000/svg">
<path fill-rule="evenodd" clip-rule="evenodd" d="M9.3535 1.1465L12.8535 4.6465C12.9473 4.74025 13 4.8674 13 5V8H12V6H9C8.73486 5.99974 8.48066 5.89429 8.29319 5.70681C8.10571 5.51934 8.00026 5.26514 8 5V2H4V8H3V2C3.00026 1.73486 3.10571 1.48066 3.29319 1.29319C3.48066 1.10571 3.73486 1.00026 4 1H9C9.1326 1.00003 9.25975 1.05273 9.3535 1.1465ZM9 2.20705V5H11.7929L9 2.20705ZM2 10V11H4.293L1 14.293L1.707 15L5 11.707V14H6V10H2ZM14.15 10L13.6955 14.3055L13 10H12L11.3045 14.3055L10.85 10H10L10.68 15H11.82L12.5 10.813L13.18 15H14.32L15 10H14.15Z" fill="black"/>
</svg>
