<svg width="16" height="16" viewBox="0 0 16 16" fill="none" xmlns="http://www.w3.org/2000/svg">
<path fill-rule="evenodd" clip-rule="evenodd" d="M4 14H7.5V15H4C3.73502 14.9992 3.48111 14.8936 3.29374 14.7063C3.10637 14.5189 3.00077 14.265 3 14V1.99999C3.00077 1.73501 3.10637 1.4811 3.29374 1.29373C3.48111 1.10636 3.73502 1.00075 4 0.999989H9C9.06572 0.998181 9.13104 1.01066 9.19147 1.03655C9.2519 1.06245 9.30599 1.10115 9.35 1.14999L12.85 4.64999C12.8988 4.69401 12.9375 4.7481 12.9634 4.80853C12.9893 4.86895 13.0018 4.93427 13 4.99999V8.99999H12V5.99999H9C8.73502 5.99922 8.48111 5.89362 8.29374 5.70625C8.10637 5.51888 8.00077 5.26497 8 4.99999V1.99999H4V14ZM11.8 4.99999L9 2.19999V4.99999H11.8ZM9.705 12.295L11 13.59L14.295 10.295L15 11L11 15L9 13L9.705 12.295Z" fill="black"/>
</svg>
