<svg width="16" height="16" viewBox="0 0 16 16" fill="none" xmlns="http://www.w3.org/2000/svg">
<path fill-rule="evenodd" clip-rule="evenodd" d="M9.3535 1.1465L12.8535 4.6465C12.9473 4.74025 13 4.8674 13 5V8H12V6H9C8.73486 5.99974 8.48066 5.89429 8.29319 5.70681C8.10571 5.51934 8.00026 5.26514 8 5V2H4V14H8V15H4C3.73488 14.9997 3.4807 14.8942 3.29323 14.7068C3.10576 14.5193 3.0003 14.2651 3 14V2C3.00026 1.73486 3.10571 1.48066 3.29319 1.29319C3.48066 1.10571 3.73486 1.00026 4 1H9C9.1326 1.00003 9.25975 1.05273 9.3535 1.1465ZM11.7929 5L9 2.20705V5H11.7929ZM13.7068 10.2932C13.8942 10.4807 13.9997 10.7349 14 11V13H11V14H13.5V15H11C10.7351 14.999 10.4813 14.8933 10.294 14.706C10.1067 14.5187 10.001 14.2649 10 14V11C10.0003 10.7349 10.1058 10.4807 10.2932 10.2932C10.4807 10.1058 10.7349 10.0003 11 10H13C13.2651 10.0003 13.5193 10.1058 13.7068 10.2932ZM13 12V11H11V12H13Z" fill="black"/>
</svg>
