<svg width="16" height="16" viewBox="0 0 16 16" fill="none" xmlns="http://www.w3.org/2000/svg">
<path fill-rule="evenodd" clip-rule="evenodd" d="M12 5.00001V7.00001H11V6.00001H8C7.73478 6.00001 7.48043 5.89465 7.29289 5.70712C7.10536 5.51958 7 5.26523 7 5.00001V2.00001H3V14H11V13H12V14C12 14.2652 11.8946 14.5196 11.7071 14.7071C11.5196 14.8947 11.2652 15 11 15H3C2.73478 15 2.48043 14.8947 2.29289 14.7071C2.10536 14.5196 2 14.2652 2 14V2.00001C2 1.73479 2.10536 1.48044 2.29289 1.2929C2.48043 1.10537 2.73478 1.00001 3 1.00001H8C8.0658 0.999628 8.13103 1.01224 8.19195 1.03712C8.25287 1.06201 8.30828 1.09867 8.355 1.14501L11.855 4.64501C11.9013 4.69173 11.938 4.74714 11.9629 4.80806C11.9878 4.86897 12.0004 4.93421 12 5.00001ZM8 2.20501V5.00001H10.795L8 2.20501ZM7.415 9.5H14V10.5H7.415L8.705 11.795L8 12.5L5.5 10L8 7.5L8.705 8.205L7.415 9.5Z" fill="black"/>
</svg>
