<svg width="16" height="16" viewBox="0 0 16 16" fill="none" xmlns="http://www.w3.org/2000/svg">
<path fill-rule="evenodd" clip-rule="evenodd" d="M10.9634 4.80853C10.9893 4.86895 11.0018 4.93427 11 4.99999V6.99999H10V5.99999H7C6.73502 5.99921 6.48112 5.8936 6.29375 5.70624C6.10639 5.51887 6.00078 5.26497 6 4.99999V1.99999H2V14H10V15H2C1.73478 15 1.48043 14.8946 1.29289 14.7071C1.10536 14.5196 1 14.2652 1 14V1.99999C1.00078 1.73501 1.10638 1.48111 1.29375 1.29374C1.48112 1.10637 1.73502 1.00077 2 0.999989H7C7.06572 0.998181 7.13105 1.01066 7.19147 1.03655C7.2519 1.06245 7.30599 1.10115 7.35 1.14999L10.85 4.64999C10.8988 4.69401 10.9375 4.7481 10.9634 4.80853ZM7 2.19999V4.99999H9.8L7 2.19999ZM5.5 8H3V13H4V11.5H5.5C5.76511 11.4996 6.01925 11.3942 6.20671 11.2067C6.39417 11.0193 6.49964 10.7651 6.5 10.5V9C6.4997 8.73488 6.39424 8.4807 6.20677 8.29323C6.0193 8.10576 5.76512 8.0003 5.5 8ZM4 10.5V9H5.5L5.5005 10.5H4ZM9.5 13C9.89769 12.9996 10.279 12.8414 10.5602 12.5602C10.8414 12.279 10.9996 11.8977 11 11.5V9.5C10.9996 9.10231 10.8414 8.72103 10.5602 8.43982C10.279 8.15861 9.89769 8.00044 9.5 8H7.5V13H9.5ZM9.5 12H8.5V9H9.5C9.63256 9.00015 9.75966 9.05287 9.85339 9.14661C9.94713 9.24034 9.99985 9.36744 10 9.5V11.5C9.99985 11.6326 9.94713 11.7597 9.85339 11.8534C9.75966 11.9471 9.63256 11.9999 9.5 12ZM15 8V9H13V10H14.5V11H13V13H12V8H15Z" fill="black"/>
</svg>
