<svg width="16" height="16" viewBox="0 0 16 16" fill="none" xmlns="http://www.w3.org/2000/svg">
<path fill-rule="evenodd" clip-rule="evenodd" d="M10.35 1.14999L13.85 4.64999C13.8988 4.69401 13.9375 4.7481 13.9634 4.80853C13.9893 4.86895 14.0018 4.93427 14 4.99999V14C13.9992 14.265 13.8936 14.5189 13.7063 14.7063C13.5189 14.8936 13.265 14.9992 13 15H7V14H13V5.99999H10C9.73502 5.99922 9.48111 5.89362 9.29374 5.70625C9.10637 5.51888 9.00077 5.26497 9 4.99999V1.99999H5V5.99999H4V1.99999C4.00077 1.73501 4.10637 1.4811 4.29374 1.29373C4.48111 1.10636 4.73502 1.00076 5 0.99999H10C10.0657 0.998175 10.131 1.01065 10.1915 1.03655C10.2519 1.06244 10.306 1.10115 10.35 1.14999ZM10 2.19999V4.99999H12.8L10 2.19999ZM5 12.5H4V10.5H5C5.26522 10.5 5.51957 10.3946 5.70711 10.2071C5.89464 10.0196 6 9.76522 6 9.5C6 9.23478 5.89464 8.98043 5.70711 8.79289C5.51957 8.60536 5.26522 8.5 5 8.5H4C3.73488 8.5003 3.4807 8.60576 3.29323 8.79323C3.10576 8.9807 3.0003 9.23488 3 9.5V9.75H2V9.5C2.0006 8.96975 2.2115 8.46139 2.58644 8.08644C2.96139 7.7115 3.46975 7.5006 4 7.5H5C5.53043 7.5 6.03914 7.71071 6.41421 8.08579C6.78929 8.46086 7 8.96957 7 9.5C7 10.0304 6.78929 10.5391 6.41421 10.9142C6.03914 11.2893 5.53043 11.5 5 11.5V12.5ZM4.49995 15C4.91416 15 5.24995 14.6642 5.24995 14.25C5.24995 13.8358 4.91416 13.5 4.49995 13.5C4.08574 13.5 3.74995 13.8358 3.74995 14.25C3.74995 14.6642 4.08574 15 4.49995 15Z" fill="black"/>
</svg>
