<svg width="16" height="16" viewBox="0 0 16 16" fill="none" xmlns="http://www.w3.org/2000/svg">
<path fill-rule="evenodd" clip-rule="evenodd" d="M11 5.00001V7.00001H10V6.00001H7C6.73478 6.00001 6.48043 5.89465 6.29289 5.70712C6.10536 5.51958 6 5.26523 6 5.00001V2.00001H2V14H10V13H11V14C11 14.2652 10.8946 14.5196 10.7071 14.7071C10.5196 14.8947 10.2652 15 10 15H2C1.73478 15 1.48043 14.8947 1.29289 14.7071C1.10536 14.5196 1 14.2652 1 14V2.00001C1 1.73479 1.10536 1.48044 1.29289 1.2929C1.48043 1.10537 1.73478 1.00001 2 1.00001H7C7.0658 0.999628 7.13103 1.01224 7.19195 1.03712C7.25287 1.06201 7.30828 1.09867 7.355 1.14501L10.855 4.64501C10.9013 4.69173 10.938 4.74714 10.9629 4.80806C10.9878 4.86897 11.0004 4.93421 11 5.00001ZM7 2.20501V5.00001H9.795L7 2.20501ZM13.085 10.5H6.5V9.5H13.085L11.795 8.205L12.5 7.5L15 10L12.5 12.5L11.795 11.795L13.085 10.5Z" fill="black"/>
</svg>
