<svg width="16" height="16" viewBox="0 0 16 16" fill="none" xmlns="http://www.w3.org/2000/svg">
<path fill-rule="evenodd" clip-rule="evenodd" d="M9.35 1.14999L12.85 4.64999C12.8989 4.69399 12.9376 4.74807 12.9635 4.8085C12.9894 4.86894 13.0018 4.93427 13 4.99999V14C12.9992 14.265 12.8936 14.5189 12.7062 14.7062C12.5189 14.8936 12.265 14.9992 12 15H4C3.73502 14.9992 3.48112 14.8936 3.29375 14.7062C3.10638 14.5189 3.00078 14.265 3 14V1.99999C3.00078 1.73502 3.10638 1.48112 3.29375 1.29375C3.48112 1.10638 3.73502 1.00077 4 0.999994H9C9.06572 0.998156 9.13106 1.01062 9.19149 1.03652C9.25192 1.06242 9.30601 1.10113 9.35 1.14999ZM11.8 4.99999L9 2.19999V4.99999H11.8ZM4 14H12V5.99999H9C8.73502 5.99922 8.48112 5.89361 8.29375 5.70624C8.10638 5.51887 8.00078 5.26497 8 4.99999V1.99999H4V14ZM8.63374 8.10486C8.79759 8.03566 8.97364 8 9.15151 8C9.32936 8.00001 9.50541 8.03567 9.66925 8.10487C9.83309 8.17407 9.9814 8.27541 10.1054 8.4029C10.3585 8.66401 10.5 9.01337 10.5 9.377C10.5 9.74063 10.3585 10.09 10.1054 10.3511L8.00096 12.5L5.89461 10.3511C5.64152 10.09 5.5 9.74063 5.5 9.377C5.5 9.01337 5.64152 8.66401 5.89461 8.4029C6.01862 8.2754 6.16693 8.17406 6.33077 8.10486C6.49462 8.03566 6.67067 8.00001 6.84853 8.00001C7.02639 8.00001 7.20245 8.03566 7.36629 8.10486C7.53014 8.17406 7.67845 8.2754 7.80246 8.4029L8.00096 8.6056L8.19756 8.4029C8.32157 8.2754 8.46989 8.17406 8.63374 8.10486Z" fill="black"/>
</svg>
