<svg width="16" height="16" viewBox="0 0 16 16" fill="none" xmlns="http://www.w3.org/2000/svg">
<path fill-rule="evenodd" clip-rule="evenodd" d="M4 1H12C12.2651 1.0003 12.5193 1.10576 12.7068 1.29323C12.8942 1.4807 12.9997 1.73488 13 2V14C12.9997 14.2651 12.8942 14.5193 12.7068 14.7068C12.5193 14.8942 12.2651 14.9997 12 15H4C3.73488 14.9997 3.4807 14.8942 3.29323 14.7068C3.10576 14.5193 3.0003 14.2651 3 14V2C3.0003 1.73488 3.10576 1.4807 3.29323 1.29323C3.4807 1.10576 3.73488 1.0003 4 1ZM6 9V12H7V14H9V12H10V9C10.004 8.93329 9.99386 8.86648 9.97016 8.80399C9.94646 8.7415 9.90977 8.68475 9.86251 8.63749C9.81525 8.59023 9.7585 8.55354 9.69601 8.52984C9.63352 8.50614 9.56671 8.49597 9.5 8.5H6.5C6.43329 8.49597 6.36648 8.50614 6.30399 8.52984C6.2415 8.55354 6.18475 8.59023 6.13749 8.63749C6.09023 8.68475 6.05354 8.7415 6.02984 8.80399C6.00613 8.86648 5.99597 8.93329 6 9ZM10 13V14H12V2H4V14H6V13C5.73502 12.9992 5.48111 12.8936 5.29374 12.7063C5.10637 12.5189 5.00077 12.265 5 12V9C4.99636 8.80201 5.03267 8.60533 5.10676 8.42169C5.18085 8.23806 5.29121 8.07125 5.43123 7.93123C5.57125 7.79121 5.73806 7.68085 5.92169 7.60676C6.10533 7.53267 6.30202 7.49636 6.5 7.5H9.5C9.69799 7.49636 9.89467 7.53267 10.0783 7.60676C10.2619 7.68085 10.4288 7.79121 10.5688 7.93123C10.7088 8.07125 10.8191 8.23806 10.8932 8.42169C10.9673 8.60533 11.0036 8.80201 11 9V12C10.9992 12.265 10.8936 12.5189 10.7063 12.7063C10.5189 12.8936 10.265 12.9992 10 13ZM6.88886 6.66294C7.21776 6.8827 7.60444 7 8 7C8.52995 6.99844 9.03776 6.78723 9.41249 6.4125C9.78723 6.03776 9.99844 5.52996 10 5C10 4.60444 9.8827 4.21776 9.66294 3.88886C9.44318 3.55996 9.13082 3.30362 8.76537 3.15224C8.39991 3.00087 7.99778 2.96126 7.60982 3.03843C7.22186 3.1156 6.86549 3.30608 6.58579 3.58579C6.30608 3.86549 6.1156 4.22186 6.03843 4.60982C5.96126 4.99778 6.00087 5.39992 6.15224 5.76537C6.30362 6.13082 6.55996 6.44318 6.88886 6.66294ZM7.44443 4.16853C7.60888 4.05865 7.80222 4 8 4C8.26498 4.00078 8.51888 4.10639 8.70625 4.29375C8.89362 4.48112 8.99922 4.73502 9 5C9 5.19778 8.94135 5.39112 8.83147 5.55557C8.72159 5.72002 8.56541 5.84819 8.38268 5.92388C8.19996 5.99957 7.99889 6.01937 7.80491 5.98079C7.61093 5.9422 7.43275 5.84696 7.29289 5.70711C7.15304 5.56726 7.0578 5.38907 7.01921 5.19509C6.98063 5.00111 7.00043 4.80004 7.07612 4.61732C7.15181 4.43459 7.27998 4.27841 7.44443 4.16853Z" fill="black"/>
</svg>
