<svg width="16" height="16" viewBox="0 0 16 16" fill="none" xmlns="http://www.w3.org/2000/svg">
<path fill-rule="evenodd" clip-rule="evenodd" d="M10.8889 4.16294C11.2178 4.3827 11.6044 4.5 12 4.5C12.5303 4.49941 13.0386 4.2885 13.4136 3.91356C13.7885 3.53861 13.9994 3.03025 14 2.5C14 2.10444 13.8827 1.71776 13.6629 1.38886C13.4432 1.05996 13.1308 0.803617 12.7654 0.652242C12.3999 0.500867 11.9978 0.46126 11.6098 0.53843C11.2219 0.615601 10.8655 0.806082 10.5858 1.08579C10.3061 1.36549 10.1156 1.72186 10.0384 2.10982C9.96126 2.49778 10.0009 2.89992 10.1522 3.26537C10.3036 3.63082 10.56 3.94318 10.8889 4.16294ZM11.4444 1.66853C11.6089 1.55865 11.8022 1.5 12 1.5C12.2651 1.50028 12.5193 1.60573 12.7068 1.7932C12.8943 1.98068 12.9997 2.23487 13 2.5C13 2.69778 12.9414 2.89112 12.8315 3.05557C12.7216 3.22002 12.5654 3.34819 12.3827 3.42388C12.2 3.49957 11.9989 3.51937 11.8049 3.48079C11.6109 3.4422 11.4327 3.34696 11.2929 3.20711C11.153 3.06726 11.0578 2.88907 11.0192 2.69509C10.9806 2.50111 11.0004 2.30004 11.0761 2.11732C11.1518 1.93459 11.28 1.77841 11.4444 1.66853ZM13.5 5.00001H10.677C10.377 4.99904 10.0836 5.08847 9.83518 5.25665C9.58674 5.42483 9.39473 5.66396 9.28418 5.94286L8.56323 7.74561L6.75928 10.0006L7.54028 10.6251L9.39028 8.31261L10.2128 6.31456C10.2496 6.22153 10.3135 6.14176 10.3963 6.08564C10.4791 6.02953 10.5769 5.99969 10.677 6.00001H13.5C13.6325 6.00013 13.7597 6.05284 13.8534 6.14659C13.9471 6.24033 13.9999 6.36744 14 6.50001V10H12.5V15H13.5V11H14C14.2651 10.9997 14.5193 10.8942 14.7067 10.7068C14.8942 10.5193 14.9997 10.2651 15 10V6.50001C14.9995 6.10232 14.8414 5.72104 14.5602 5.43983C14.2789 5.15862 13.8977 5.00044 13.5 5.00001ZM2.51316 10.4868C2.84123 10.8149 3.28604 10.9995 3.75 11C4.21396 10.9995 4.65877 10.8149 4.98684 10.4868C5.31491 10.1588 5.49946 9.71396 5.5 9.25V8.5H6.5V7.5H4.5V9.25C4.5 9.44891 4.42098 9.63968 4.28033 9.78033C4.13968 9.92098 3.94891 10 3.75 10C3.55109 10 3.36032 9.92098 3.21967 9.78033C3.07902 9.63968 3 9.44891 3 9.25V7.5H1V8.5H2V9.25C2.00054 9.71396 2.18509 10.1588 2.51316 10.4868ZM10 10H11V15H10V10ZM2 11.5H3V15H2V11.5ZM8 15H7V13C6.99985 12.8674 6.94713 12.7403 6.85339 12.6466C6.75966 12.5529 6.63256 12.5001 6.5 12.5H5.5V15H4.5V11.5H6.5C6.89769 11.5004 7.27897 11.6586 7.56018 11.9398C7.84139 12.221 7.99956 12.6023 8 13V15Z" fill="black"/>
</svg>
