<svg width="16" height="16" viewBox="0 0 16 16" fill="none" xmlns="http://www.w3.org/2000/svg">
<path fill-rule="evenodd" clip-rule="evenodd" d="M2 13H9V14H2C1.73478 14 1.48043 13.8946 1.29289 13.7071C1.10536 13.5196 1 13.2652 1 13V3C1 2.73478 1.10536 2.48043 1.29289 2.29289C1.48043 2.10536 1.73478 2 2 2H14C14.2652 2 14.5196 2.10536 14.7071 2.29289C14.8946 2.48043 15 2.73478 15 3V8H14V3H2V13ZM8 6.5C8 6.10444 7.8827 5.71776 7.66294 5.38886C7.44318 5.05996 7.13082 4.80362 6.76537 4.65224C6.39991 4.50087 5.99778 4.46126 5.60982 4.53843C5.22186 4.6156 4.86549 4.80608 4.58579 5.08579C4.30608 5.36549 4.1156 5.72186 4.03843 6.10982C3.96126 6.49778 4.00086 6.89992 4.15224 7.26537C4.30362 7.63082 4.55996 7.94318 4.88886 8.16294C5.21776 8.3827 5.60444 8.5 6 8.5C6.53043 8.5 7.03914 8.28929 7.41421 7.91422C7.78929 7.53914 8 7.03043 8 6.5ZM7 6.5C7 6.69778 6.94135 6.89112 6.83147 7.05557C6.72159 7.22002 6.56541 7.34819 6.38268 7.42388C6.19996 7.49957 5.99889 7.51937 5.80491 7.48079C5.61093 7.4422 5.43274 7.34696 5.29289 7.20711C5.15304 7.06726 5.0578 6.88907 5.01921 6.69509C4.98063 6.50111 5.00043 6.30004 5.07612 6.11732C5.15181 5.93459 5.27998 5.77841 5.44443 5.66853C5.60888 5.55865 5.80222 5.5 6 5.5C6.26522 5.5 6.51957 5.60536 6.70711 5.79289C6.89464 5.98043 7 6.23478 7 6.5ZM13 5H9.5V6H13V5ZM9.5 7H11.5V8H9.5V7ZM14.293 11.793L15 12.5L12.5 15L10 12.5L10.707 11.793L12 13.086V9H13V13.086L14.293 11.793ZM7.5 9H4.5C4.10218 9 3.72064 9.15804 3.43934 9.43934C3.15804 9.72064 3 10.1022 3 10.5V11.5H4V10.5C4 10.3674 4.05268 10.2402 4.14645 10.1464C4.24021 10.0527 4.36739 10 4.5 10H7.5C7.63261 10 7.75979 10.0527 7.85355 10.1464C7.94732 10.2402 8 10.3674 8 10.5V11.5H9V10.5C9 10.1022 8.84196 9.72064 8.56066 9.43934C8.27936 9.15804 7.89782 9 7.5 9Z" fill="black"/>
</svg>
