<svg width="16" height="16" viewBox="0 0 16 16" fill="none" xmlns="http://www.w3.org/2000/svg">
<path fill-rule="evenodd" clip-rule="evenodd" d="M4.99997 3L5.70697 2.293L7.49997 4.086V0H8.49997V4.086L10.293 2.293L11 3L7.99997 6L4.99997 3ZM11 8.00001C11.0005 7.60597 10.9231 7.21571 10.7723 6.85166C10.6215 6.48761 10.4003 6.15694 10.1213 5.87866L7.99997 8.00001L5.87862 5.87866C5.52977 6.22752 5.27235 6.65702 5.12914 7.12913C4.98593 7.60123 4.96137 8.10137 5.05762 8.58524C5.15387 9.06911 5.36796 9.52177 5.68094 9.90314C5.99392 10.2845 6.39612 10.5828 6.85191 10.7716C7.30771 10.9604 7.80303 11.0339 8.294 10.9855C8.78497 10.9372 9.25644 10.7685 9.66665 10.4944C10.0769 10.2203 10.4131 9.84927 10.6457 9.41418C10.8783 8.97909 11 8.49336 11 8.00001ZM14.4673 5.32149C14.8195 6.17053 15.0005 7.08079 15 7.99999C15.0002 9.15099 14.7165 10.2843 14.1741 11.2995C13.6317 12.3147 12.8473 13.1804 11.8904 13.82C10.9334 14.4596 9.83353 14.8533 8.68809 14.9663C7.54264 15.0792 6.38701 14.9079 5.32359 14.4676C4.26016 14.0272 3.32175 13.3313 2.5915 12.4416C1.86125 11.552 1.3617 10.4959 1.1371 9.36703C0.912503 8.23815 0.969789 7.07131 1.30389 5.96986C1.63798 4.86841 2.23858 3.86637 3.05246 3.05249L3.75926 3.75939C2.9196 4.59829 2.34761 5.66737 2.11565 6.83141C1.8837 7.99545 2.0022 9.20213 2.45616 10.2988C2.91013 11.3955 3.67916 12.3329 4.66597 12.9924C5.65279 13.6519 6.81304 14.004 7.99996 14.004C9.18688 14.004 10.3471 13.6519 11.334 12.9924C12.3208 12.3329 13.0898 11.3955 13.5438 10.2988C13.9977 9.20213 14.1162 7.99545 13.8843 6.83141C13.6523 5.66737 13.0803 4.59829 12.2407 3.75939L12.9475 3.05249C13.5985 3.70136 14.115 4.47245 14.4673 5.32149Z" fill="black"/>
</svg>
