<svg width="16" height="16" viewBox="0 0 16 16" fill="none" xmlns="http://www.w3.org/2000/svg">
<path fill-rule="evenodd" clip-rule="evenodd" d="M5.32151 1.53271C6.17055 1.18049 7.0808 0.99945 8.00001 1C9.15101 0.999779 10.2843 1.28344 11.2995 1.82584C12.3147 2.36825 13.1804 3.15266 13.82 4.1096C14.4596 5.06653 14.8533 6.16643 14.9663 7.31188C15.0792 8.45733 14.9079 9.61295 14.4676 10.6764C14.0272 11.7398 13.3314 12.6782 12.4417 13.4085C11.552 14.1387 10.4959 14.6383 9.36705 14.8629C8.23817 15.0875 7.07132 15.0302 5.96988 14.6961C4.86843 14.362 3.86638 13.7614 3.05251 12.9475L3.75941 12.2407C4.5983 13.0804 5.66739 13.6524 6.83143 13.8843C7.99546 14.1163 9.20214 13.9978 10.2988 13.5438C11.3955 13.0898 12.3329 12.3208 12.9924 11.334C13.652 10.3472 14.004 9.18692 14.004 8C14.004 6.81308 13.652 5.65282 12.9924 4.66601C12.3329 3.6792 11.3955 2.91016 10.2988 2.4562C9.20214 2.00224 7.99546 1.88374 6.83143 2.11569C5.66739 2.34765 4.5983 2.91964 3.75941 3.7593L3.05251 3.0525C3.70138 2.40143 4.47247 1.88494 5.32151 1.53271ZM8 5C7.60595 4.99949 7.21569 5.07685 6.85164 5.22764C6.48759 5.37843 6.15692 5.59967 5.87865 5.87865L8 8L5.87865 10.1214C6.2275 10.4702 6.657 10.7276 7.12911 10.8708C7.60122 11.014 8.10136 11.0386 8.58523 10.9424C9.06909 10.8461 9.52176 10.632 9.90312 10.319C10.2845 10.0061 10.5828 9.60386 10.7716 9.14806C10.9604 8.69227 11.0338 8.19695 10.9855 7.70597C10.9371 7.215 10.7685 6.74353 10.4944 6.33332C10.2203 5.92311 9.84926 5.58683 9.41417 5.35426C8.97908 5.12169 8.49335 5.00001 8 5ZM3 11L3.707 10.293L1.914 8.5H6V7.5H1.914L3.707 5.707L3 5L0 8L3 11Z" fill="black"/>
</svg>
