<svg width="16" height="16" viewBox="0 0 16 16" fill="none" xmlns="http://www.w3.org/2000/svg">
<path fill-rule="evenodd" clip-rule="evenodd" d="M8 2V3.52565C8.63855 4.0962 9 4.89355 9 5.75V6H8V5.75C8 4.572 7 4.01 7 4.01V2.5H5V4.01C5 4.01 4 4.572 4 5.75V14H6V15H3.5C3.2239 15 3 14.7761 3 14.5V5.75C3 4.89355 3.36145 4.0962 4 3.52565V2C4 1.7239 4.2239 1.5 4.5 1.5H7.5C7.7761 1.5 8 1.7239 8 2ZM13 3.70705L11.5 5.20705V7H12.5371L11.9653 15H7.53469L6.96289 7H10.5V5C10.5 4.86745 10.5527 4.74025 10.6465 4.6465L12.293 3L13 3.70705ZM8.46534 14H11.0347L11.4629 8H8.03714L8.46534 14Z" fill="black"/>
</svg>
