<svg width="16" height="16" viewBox="0 0 16 16" fill="none" xmlns="http://www.w3.org/2000/svg">
<path fill-rule="evenodd" clip-rule="evenodd" d="M5 0.5H7.5C7.7761 0.5 8 0.7239 8 1V5H7V1.5H5.5V5.36035C5.5 5.36035 4 5.6232 4 7.5V14H6V15H3.5C3.2239 15 3 14.7764 3 14.5V7.5C3 5.77415 3.9663 4.98805 4.5 4.6853V1C4.5 0.7239 4.7239 0.5 5 0.5ZM13 3.70705L11.5 5.20705V7H12.5371L11.9653 15H7.53469L6.96289 7H10.5V5C10.5 4.86745 10.5527 4.74025 10.6465 4.6465L12.293 3L13 3.70705ZM8.46534 14H11.0347L11.4629 8H8.03714L8.46534 14Z" fill="black"/>
</svg>
