<svg width="16" height="16" viewBox="0 0 16 16" fill="none" xmlns="http://www.w3.org/2000/svg">
<path fill-rule="evenodd" clip-rule="evenodd" d="M13.955 7.50003H15V8.50003H13.955C13.8365 9.19835 13.4749 9.83228 12.9341 10.2898C12.3934 10.7473 11.7083 10.9988 11 11L10.989 10.9995C10.3861 11.805 9.55398 12.4094 8.6016 12.7337C7.64923 13.0579 6.6211 13.0868 5.65201 12.8166C4.68292 12.5464 3.81811 11.9896 3.17095 11.2193C2.52378 10.4491 2.12449 9.5012 2.0254 8.50003H1V7.50003H2.0254C2.12449 6.49886 2.52378 5.551 3.17095 4.78071C3.81811 4.01042 4.68292 3.45367 5.65201 3.18344C6.6211 2.91321 7.64923 2.94212 8.6016 3.26637C9.55398 3.59063 10.3861 4.1951 10.989 5.00053L11 5.00003C11.7083 5.00122 12.3934 5.2528 12.9341 5.71029C13.4749 6.16777 13.8365 6.80171 13.955 7.50003ZM8.5591 4.31952C8.06614 4.10936 7.53588 4.0007 7 4.00003C6.02651 4.00161 5.08695 4.35782 4.3571 5.00202C3.62725 5.64622 3.15711 6.53427 3.03465 7.50003H8.04455C8.13048 6.99687 8.34305 6.52385 8.66226 6.12553C8.98146 5.7272 9.3968 5.41667 9.86915 5.22318C9.49761 4.83701 9.05205 4.52967 8.5591 4.31952ZM4.3571 10.998C5.08695 11.6422 6.02651 11.9984 7 12C7.5359 11.9994 8.06617 11.8907 8.55915 11.6806C9.05213 11.4704 9.4977 11.1631 9.86925 10.7769C9.3969 10.5834 8.98156 10.2729 8.66236 9.87453C8.34315 9.4762 8.13058 9.00319 8.04465 8.50003H3.03465C3.15711 9.46578 3.62725 10.3538 4.3571 10.998ZM9.88886 9.66297C10.2178 9.88273 10.6044 10 11 10C11.5303 9.99943 12.0386 9.78853 12.4136 9.41358C12.7885 9.03864 12.9994 8.53028 13 8.00003C13 7.60447 12.8827 7.21779 12.6629 6.88889C12.4432 6.55999 12.1308 6.30364 11.7654 6.15227C11.3999 6.00089 10.9978 5.96129 10.6098 6.03846C10.2219 6.11563 9.86549 6.30611 9.58579 6.58581C9.30608 6.86552 9.1156 7.22189 9.03843 7.60985C8.96126 7.99781 9.00087 8.39994 9.15224 8.7654C9.30362 9.13085 9.55996 9.4432 9.88886 9.66297ZM12 8C12 8.55228 11.5523 9 11 9C10.4477 9 10 8.55228 10 8C10 7.44772 10.4477 7 11 7C11.5523 7 12 7.44772 12 8Z" fill="black"/>
</svg>
