<svg width="16" height="16" viewBox="0 0 16 16" fill="none" xmlns="http://www.w3.org/2000/svg">
<path fill-rule="evenodd" clip-rule="evenodd" d="M3.5 6C3.00555 6 2.5222 5.85338 2.11108 5.57867C1.69995 5.30397 1.37952 4.91352 1.1903 4.45671C1.00108 3.99989 0.951575 3.49723 1.04804 3.01228C1.1445 2.52732 1.3826 2.08187 1.73223 1.73223C2.08187 1.3826 2.52732 1.1445 3.01228 1.04804C3.49723 0.951575 3.99989 1.00108 4.45671 1.1903C4.91352 1.37952 5.30397 1.69995 5.57867 2.11108C5.85338 2.5222 6 3.00555 6 3.5H5C5 3.20333 4.91203 2.91332 4.74721 2.66665C4.58238 2.41997 4.34812 2.22771 4.07403 2.11418C3.79994 2.00065 3.49834 1.97095 3.20737 2.02882C2.91639 2.0867 2.64912 2.22956 2.43934 2.43934C2.22956 2.64912 2.0867 2.91639 2.02882 3.20737C1.97095 3.49834 2.00065 3.79994 2.11418 4.07403C2.22771 4.34812 2.41997 4.58238 2.66665 4.74721C2.91332 4.91203 3.20333 5 3.5 5V6ZM12.5 6V5C12.7967 5 13.0867 4.91203 13.3334 4.74721C13.58 4.58238 13.7723 4.34812 13.8858 4.07403C13.9994 3.79994 14.0291 3.49834 13.9712 3.20737C13.9133 2.91639 13.7704 2.64912 13.5607 2.43934C13.3509 2.22956 13.0836 2.0867 12.7926 2.02882C12.5017 1.97095 12.2001 2.00065 11.926 2.11418C11.6519 2.22771 11.4176 2.41997 11.2528 2.66665C11.088 2.91332 11 3.20333 11 3.5H10C10 3.00555 10.1466 2.5222 10.4213 2.11108C10.696 1.69995 11.0865 1.37952 11.5433 1.1903C12.0001 1.00108 12.5028 0.951575 12.9877 1.04804C13.4727 1.1445 13.9181 1.3826 14.2678 1.73223C14.6174 2.08187 14.8555 2.52732 14.952 3.01228C15.0484 3.49723 14.9989 3.99989 14.8097 4.45671C14.6205 4.91352 14.3 5.30397 13.8889 5.57867C13.4778 5.85338 12.9945 6 12.5 6ZM1.73223 14.2678C2.20107 14.7366 2.83696 15 3.5 15C4.16282 14.9993 4.79828 14.7356 5.26696 14.267C5.73565 13.7983 5.99927 13.1628 6 12.5H5C5 12.7967 4.91203 13.0867 4.7472 13.3334C4.58238 13.58 4.34811 13.7723 4.07403 13.8858C3.79994 13.9994 3.49834 14.0291 3.20736 13.9712C2.91639 13.9133 2.64912 13.7704 2.43934 13.5607C2.22956 13.3509 2.0867 13.0836 2.02882 12.7926C1.97094 12.5017 2.00065 12.2001 2.11418 11.926C2.22771 11.6519 2.41997 11.4176 2.66664 11.2528C2.91332 11.088 3.20333 11 3.5 11V10C2.83696 10 2.20107 10.2634 1.73223 10.7322C1.26339 11.2011 1 11.837 1 12.5C1 13.163 1.26339 13.7989 1.73223 14.2678ZM12.5 15C11.8372 14.9993 11.2017 14.7356 10.733 14.267C10.2644 13.7983 10.0007 13.1628 10 12.5H11C11 12.7967 11.088 13.0867 11.2528 13.3334C11.4176 13.58 11.6519 13.7723 11.926 13.8858C12.2001 13.9994 12.5017 14.0291 12.7926 13.9712C13.0836 13.9133 13.3509 13.7704 13.5607 13.5607C13.7704 13.3509 13.9133 13.0836 13.9712 12.7926C14.0291 12.5017 13.9994 12.2001 13.8858 11.926C13.7723 11.6519 13.58 11.4176 13.3334 11.2528C13.0867 11.088 12.7967 11 12.5 11V10C13.163 10 13.7989 10.2634 14.2678 10.7322C14.7366 11.2011 15 11.837 15 12.5C15 13.163 14.7366 13.7989 14.2678 14.2678C13.7989 14.7366 13.163 15 12.5 15ZM10 6.70703V9.29293L12.8537 12.1465C12.9448 12.2408 12.9952 12.3671 12.9941 12.4982C12.9929 12.6293 12.9404 12.7547 12.8477 12.8474C12.755 12.9401 12.6295 12.9927 12.4984 12.9938C12.3673 12.995 12.241 12.9446 12.1467 12.8535L9.897 10.6035C9.7711 11.0081 9.51912 11.3618 9.17787 11.613C8.83662 11.8642 8.42399 11.9997 8.00025 11.9997C7.57651 11.9997 7.16387 11.8642 6.82262 11.613C6.48137 11.3618 6.22939 11.0081 6.1035 10.6035L3.8535 12.8535C3.80709 12.8999 3.75198 12.9368 3.69133 12.9619C3.63067 12.9871 3.56566 13 3.5 13C3.43434 13 3.36932 12.9871 3.30867 12.9619C3.24801 12.9368 3.19291 12.8999 3.1465 12.8535C3.10005 12.8071 3.0632 12.752 3.03806 12.6913C3.01292 12.6307 2.99998 12.5656 2.99998 12.5C2.99998 12.4343 3.01292 12.3693 3.03806 12.3086C3.0632 12.248 3.10005 12.1929 3.1465 12.1465L6 9.29293V6.70703L3.1465 3.85348C3.10005 3.80707 3.0632 3.75197 3.03806 3.69131C3.01292 3.63065 2.99998 3.56564 2.99998 3.49998C2.99998 3.43432 3.01292 3.3693 3.03806 3.30865C3.0632 3.24799 3.10005 3.19289 3.1465 3.14648C3.19291 3.10003 3.24801 3.06318 3.30867 3.03804C3.36932 3.0129 3.43434 2.99996 3.5 2.99996C3.56566 2.99996 3.63067 3.0129 3.69133 3.03804C3.75198 3.06318 3.80709 3.10003 3.8535 3.14648L6.10325 5.39648C6.22914 4.99187 6.48112 4.63813 6.82237 4.38692C7.16362 4.13572 7.57626 4.00022 8 4.00022C8.42374 4.00022 8.83637 4.13572 9.17762 4.38692C9.51887 4.63813 9.77085 4.99187 9.89675 5.39648L12.1465 3.14648C12.1926 3.09872 12.2478 3.06063 12.3088 3.03443C12.3698 3.00822 12.4354 2.99443 12.5018 2.99385C12.5682 2.99328 12.634 3.00593 12.6955 3.03107C12.7569 3.05621 12.8127 3.09334 12.8597 3.14028C12.9066 3.18723 12.9438 3.24305 12.9689 3.3045C12.994 3.36595 13.0067 3.43179 13.0061 3.49818C13.0055 3.56457 12.9918 3.63018 12.9655 3.69118C12.9393 3.75218 12.9013 3.80736 12.8535 3.85348L10 6.70703ZM8.7071 10.7071C8.89464 10.5195 9 10.2652 9 9.99998V5.99998C9 5.73476 8.89464 5.48041 8.7071 5.29287C8.51957 5.10534 8.26521 4.99998 8 4.99998C7.73478 4.99998 7.48043 5.10534 7.29289 5.29287C7.10536 5.48041 7 5.73476 7 5.99998V9.99998C7 10.2652 7.10536 10.5195 7.29289 10.7071C7.48043 10.8946 7.73478 11 8 11C8.26521 11 8.51957 10.8946 8.7071 10.7071Z" fill="black"/>
</svg>
