<svg width="16" height="16" viewBox="0 0 16 16" fill="none" xmlns="http://www.w3.org/2000/svg">
<path fill-rule="evenodd" clip-rule="evenodd" d="M5.17296 3.17284L4.46631 2.46604C4.93002 2.00132 5.48084 1.63262 6.08723 1.38105C6.69362 1.12949 7.34368 1 8.00018 1C8.65669 1 9.30674 1.12949 9.91314 1.38105C10.5195 1.63262 11.0703 2.00132 11.5341 2.46604L10.8273 3.17284C10.4563 2.80106 10.0156 2.5061 9.5305 2.30484C9.04537 2.10359 8.52532 2 8.00011 2C7.4749 2 6.95484 2.10359 6.46972 2.30484C5.9846 2.5061 5.54393 2.80106 5.17296 3.17284ZM7.99999 3C7.60604 2.99976 7.21593 3.07734 6.85206 3.2283C6.48818 3.37925 6.15772 3.60061 5.87964 3.87965L6.58644 4.58645C6.77192 4.40055 6.99224 4.25306 7.2348 4.15243C7.47736 4.0518 7.73738 4 7.99999 4C8.26259 4 8.52262 4.0518 8.76518 4.15243C9.00773 4.25306 9.22806 4.40055 9.41354 4.58645L10.1203 3.87965C9.84226 3.6006 9.5118 3.37924 9.14792 3.22829C8.78405 3.07733 8.39393 2.99975 7.99999 3ZM5 5.5H0V6.5H5V5.5ZM14 7.5H13V8.5H3V7.5H2V9.5H5.5V11.7058L3.5 12.8183V15H4.5V13.4062L6.13 12.5H9.8705L11.5 13.4062V15H12.5V12.8183L10.5 11.7058V9.5H14V7.5ZM9.5 11.5H6.5V9.5H9.5V11.5ZM11 5.5H16V6.5H11V5.5Z" fill="black"/>
</svg>
