<svg width="16" height="16" viewBox="0 0 16 16" fill="none" xmlns="http://www.w3.org/2000/svg">
<path fill-rule="evenodd" clip-rule="evenodd" d="M1 4.5V11.5H3C3.53043 11.5 4.03914 11.2893 4.41421 10.9142C4.78929 10.5391 5 10.0304 5 9.5V6.5C5 5.96957 4.78929 5.46086 4.41421 5.08579C4.03914 4.71071 3.53043 4.5 3 4.5H1ZM3 10.5H2V5.5H3C3.26522 5.5 3.51957 5.60536 3.70711 5.79289C3.89464 5.98043 4 6.23478 4 6.5V9.5C4 9.76522 3.89464 10.0196 3.70711 10.2071C3.51957 10.3946 3.26522 10.5 3 10.5ZM9 4.5L8 11L7 4.5H6L7.26 11.5H8.74L10 4.5H9ZM14.7071 8.20711C14.8946 8.01957 15 7.76522 15 7.5V5.5C15 5.23478 14.8946 4.98043 14.7071 4.79289C14.5196 4.60536 14.2652 4.5 14 4.5H11V11.5H12V8.5H12.74L13.91 11.5H15L13.835 8.5H14C14.2652 8.5 14.5196 8.39464 14.7071 8.20711ZM12 5.5H14V7.5H12V5.5Z" fill="black"/>
</svg>
