<svg width="16" height="16" viewBox="0 0 16 16" fill="none" xmlns="http://www.w3.org/2000/svg">
<path d="M15 7.99998C15.0034 6.458 14.4987 4.95785 13.564 3.7315C12.6292 2.50515 11.3164 1.62093 9.82868 1.21557C8.34093 0.810208 6.76107 0.906287 5.33341 1.48895C3.90575 2.07161 2.70981 3.1084 1.93054 4.43898C1.15128 5.76957 0.832085 7.31982 1.02233 8.85003C1.21257 10.3802 1.90166 11.8051 2.98302 12.9044C4.06438 14.0037 5.47778 14.716 7.00465 14.9314C8.53153 15.1467 10.0868 14.853 11.43 14.0957L11.4883 14.1084L11.5007 14.0527C12.5634 13.4391 13.4461 12.5569 14.0603 11.4946C14.6744 10.4322 14.9985 9.22709 15 7.99998ZM2.00001 7.99998C2.00195 7.49363 2.06832 6.98958 2.19751 6.49998H4.31911L6.81501 8.57998L5.86041 9.85293C5.71685 10.0458 5.64725 10.2838 5.66427 10.5237C5.68129 10.7635 5.7838 10.9893 5.95316 11.16L7.00001 12.207V13.9096C5.60341 13.6726 4.33557 12.9495 3.4206 11.8681C2.50564 10.7866 2.00246 9.41654 2.00001 7.99998ZM6.66001 10.4531L8.18501 8.41998L4.68091 5.49998H2.55276C2.91755 4.69981 3.45429 3.98992 4.12477 3.42089C4.79525 2.85185 5.58297 2.43767 6.4318 2.20785C7.28064 1.97802 8.16971 1.93821 9.0357 2.09125C9.90168 2.24428 10.7233 2.5864 11.4419 3.09323L11.1397 3.99998H8.29296L6.77151 5.52148L11.4483 9.67818L10.624 13.3874C9.80768 13.7895 8.91001 13.9991 8.00001 14V11.7929L6.66001 10.4531ZM11.8175 12.6252L12.4242 9.89523C12.4627 9.72136 12.4541 9.54037 12.3993 9.37092C12.3445 9.20148 12.2455 9.04975 12.1124 8.93138L8.22851 5.47848L8.70706 4.99998H11.1397C11.3496 5.00013 11.5543 4.93415 11.7246 4.81139C11.8949 4.68863 12.0222 4.51534 12.0884 4.31613L12.265 3.78613C12.8513 4.37774 13.3077 5.08513 13.6052 5.86312C13.9026 6.64111 14.0345 7.47258 13.9924 8.30442C13.9503 9.13626 13.7351 9.95017 13.3607 10.6942C12.9862 11.4381 12.4607 12.0958 11.8177 12.6252H11.8175Z" fill="black"/>
</svg>
