<svg width="16" height="16" viewBox="0 0 16 16" fill="none" xmlns="http://www.w3.org/2000/svg">
<path fill-rule="evenodd" clip-rule="evenodd" d="M4.11101 2.17971C5.26215 1.41054 6.61553 1 8 1C9.85587 1.00209 11.6351 1.74026 12.9474 3.05256C14.2597 4.36486 14.9979 6.14413 15 8C15 9.38447 14.5895 10.7378 13.8203 11.889C13.0511 13.0401 11.9579 13.9373 10.6788 14.4672C9.3997 14.997 7.99223 15.1356 6.63437 14.8655C5.2765 14.5954 4.02922 13.9287 3.05025 12.9497C2.07128 11.9708 1.4046 10.7235 1.1345 9.36563C0.864406 8.00776 1.00303 6.6003 1.53284 5.32122C2.06266 4.04213 2.95986 2.94888 4.11101 2.17971ZM3 10H2.35C2.64152 10.8312 3.11307 11.5876 3.73094 12.2153C4.34882 12.8431 5.09775 13.3265 5.92419 13.6311C6.75064 13.9357 7.63417 14.054 8.51163 13.9774C9.38909 13.9009 10.2388 13.6314 11 13.1882V11.5C11 11.3674 11.0527 11.2402 11.1464 11.1464C11.2402 11.0527 11.3674 11 11.5 11H13.1881C13.707 10.1084 13.9865 9.09766 13.9995 8.06609C14.0125 7.03451 13.7585 6.01711 13.2622 5.11268C12.7659 4.20825 12.0442 3.44753 11.167 2.90439C10.2899 2.36126 9.28728 2.05417 8.25645 2.01295L9.39965 4.29905C9.43124 4.36223 9.44909 4.43138 9.45202 4.50195C9.45496 4.57253 9.4429 4.64292 9.41665 4.7085L8.62575 6.6858C8.58862 6.77856 8.52455 6.85808 8.4418 6.91408C8.35905 6.97008 8.26142 7.00001 8.1615 7H5.5L5 8.5559L6.21 9.7663C6.29172 9.84803 6.34261 9.95554 6.35401 10.0706C6.3654 10.1856 6.3366 10.301 6.2725 10.3972L5.7686 11.1531C5.69652 11.261 5.58525 11.3368 5.45835 11.3642C5.33144 11.3916 5.19884 11.3686 5.0886 11.3L3 10ZM8.5 9H9.5V10H8.5V9ZM8.5 11H9.5V12H8.5V11ZM8.5 12V13H7V12H8.5Z" fill="black"/>
</svg>
