<svg width="16" height="16" viewBox="0 0 16 16" fill="none" xmlns="http://www.w3.org/2000/svg">
<path fill-rule="evenodd" clip-rule="evenodd" d="M4.11101 2.17971C5.26216 1.41054 6.61553 1 8 1C9.85588 1.00209 11.6351 1.74026 12.9474 3.05256C14.2597 4.36486 14.9979 6.14413 15 8C15 9.38447 14.5895 10.7378 13.8203 11.889C13.0511 13.0401 11.9579 13.9373 10.6788 14.4672C9.3997 14.997 7.99224 15.1356 6.63437 14.8655C5.2765 14.5954 4.02922 13.9287 3.05026 12.9497C2.07129 11.9708 1.4046 10.7235 1.13451 9.36563C0.86441 8.00776 1.00303 6.6003 1.53285 5.32122C2.06266 4.04213 2.95987 2.94888 4.11101 2.17971ZM8.95215 4.5228L7.6985 2.015C6.80863 2.05523 5.93905 2.29416 5.15354 2.71424C4.36804 3.13433 3.68653 3.72492 3.15901 4.4427C2.63148 5.16048 2.27132 5.98725 2.10495 6.86235C1.93857 7.73746 1.9702 8.63871 2.1975 9.5H3.1428L5.3528 10.8755L5.85655 10.1196L4.4305 8.6936L5.1355 6.5H8.1614L8.95215 4.5228ZM2.8572 10.5H2.55275C2.879 11.2171 3.34386 11.8626 3.92058 12.3993C4.49729 12.936 5.17447 13.3533 5.91313 13.6272C6.65179 13.9012 7.43734 14.0263 8.22455 13.9954C9.01176 13.9645 9.78508 13.7782 10.5 13.4473V11.5C10.5003 11.2349 10.6058 10.9807 10.7932 10.7932C10.9807 10.6058 11.2349 10.5003 11.5 10.5H13.4473C13.8396 9.65214 14.0277 8.72416 13.9967 7.79046C13.9657 6.85676 13.7163 5.94331 13.2686 5.12336C12.8209 4.30341 12.1873 3.59978 11.4186 3.06886C10.6499 2.53795 9.76751 2.19453 8.84215 2.06615L9.8469 4.0759C9.91002 4.20232 9.94565 4.34066 9.95146 4.48184C9.95726 4.62302 9.93312 4.76382 9.8806 4.895L9.09 6.87135C9.01632 7.05731 8.88831 7.21676 8.72266 7.3289C8.55702 7.44104 8.36143 7.50066 8.1614 7.5H5.8645L5.56955 8.418L6.5639 9.4124C6.72693 9.5761 6.82841 9.79108 6.85119 10.021C6.87397 10.2509 6.81664 10.4816 6.6889 10.6741L6.185 11.43C6.04164 11.6471 5.819 11.7995 5.56472 11.8545C5.31044 11.9095 5.04473 11.8628 4.82445 11.7243L2.8572 10.5ZM11.5 11.5V12.8633C12.0246 12.4848 12.4849 12.0245 12.8634 11.5H11.5ZM9.5 9H8.5V10H9.5V9ZM8.5 11H9.5V12H8.5V11ZM7 12H8.5V13H7V12Z" fill="black"/>
</svg>
