<svg width="16" height="16" viewBox="0 0 16 16" fill="none" xmlns="http://www.w3.org/2000/svg">
<path fill-rule="evenodd" clip-rule="evenodd" d="M15 8H14C14 6.4087 13.3679 4.88258 12.2426 3.75736C11.1174 2.63214 9.5913 2 8 2V1C9.85652 1 11.637 1.7375 12.9497 3.05025C14.2625 4.36301 15 6.14348 15 8ZM13 10V14H14V15H11V14H12V11.5H11V10.5H12V10H13ZM13 8C13 6.67392 12.4732 5.40215 11.5355 4.46447C10.5979 3.52678 9.32608 3 8 3V8H13ZM4.91323 13.1489C5.84566 13.7079 6.91284 14.0022 8 14V15C6.51899 15.0034 5.07527 14.5357 3.87758 13.6646C2.67989 12.7934 1.79031 11.5639 1.33745 10.1538L1.35 10.1496C1.24848 9.84124 1.16867 9.5261 1.11115 9.20655L2.095 9C2.18303 9.50355 2.32961 9.99508 2.53175 10.4646L2.5331 10.4676C2.55825 10.5238 2.58348 10.5801 2.61035 10.6353C2.63927 10.696 2.67004 10.7548 2.70086 10.8137L2.708 10.8274C3.21838 11.7873 3.98079 12.5899 4.91323 13.1489ZM2.79565 5L1.93 4.5C1.52635 5.2114 1.2492 5.98744 1.1109 6.7936L2.09475 6.96705C2.21312 6.27583 2.45025 5.61032 2.79565 5ZM5.5664 1.44336L5.9082 2.38216C5.25504 2.62445 4.64918 2.97888 4.1179 3.42951L3.47535 2.66376C4.09605 2.13839 4.80368 1.72539 5.5664 1.44336Z" fill="black"/>
</svg>
