<svg width="16" height="16" viewBox="0 0 16 16" fill="none" xmlns="http://www.w3.org/2000/svg">
<path fill-rule="evenodd" clip-rule="evenodd" d="M15 8H14C14 6.4087 13.3679 4.88258 12.2426 3.75736C11.1174 2.63214 9.5913 2 8 2V1C9.85652 1 11.637 1.7375 12.9497 3.05025C14.2625 4.36301 15 6.14348 15 8ZM11 15H14V14H12V13H13C13.2651 12.9997 13.5193 12.8942 13.7068 12.7068C13.8942 12.5193 13.9997 12.2651 14 12V11C13.9997 10.7349 13.8942 10.4807 13.7068 10.2932C13.5193 10.1058 13.2651 10.0003 13 10H11V11H13V12H12C11.7349 12.0003 11.4807 12.1057 11.2932 12.2932C11.1057 12.4807 11.0003 12.7349 11 13V15ZM13 8C13 6.67392 12.4732 5.40215 11.5355 4.46447C10.5979 3.52678 9.32608 3 8 3V8H13ZM4.91322 13.1489C5.84565 13.7079 6.91284 14.0022 8 14V15C6.51899 15.0034 5.07526 14.5357 3.87757 13.6646C2.67988 12.7934 1.7903 11.5639 1.33745 10.1538L1.35 10.1496C1.24847 9.84124 1.16866 9.5261 1.11115 9.20655L2.095 9C2.18302 9.50355 2.3296 9.99508 2.53174 10.4646L2.53308 10.4676C2.55824 10.5237 2.58347 10.5801 2.61034 10.6353C2.63926 10.696 2.67003 10.7548 2.70085 10.8137L2.70799 10.8274C3.21838 11.7873 3.98078 12.5899 4.91322 13.1489ZM2.79565 5L1.93 4.5C1.52635 5.2114 1.2492 5.98744 1.1109 6.7936L2.09475 6.96705C2.21312 6.27583 2.45025 5.61032 2.79565 5ZM5.56641 1.44336L5.90821 2.38216C5.25505 2.62445 4.64919 2.97888 4.11791 3.42951L3.47536 2.66376C4.09606 2.13839 4.80369 1.72539 5.56641 1.44336Z" fill="black"/>
</svg>
