<svg width="16" height="16" viewBox="0 0 16 16" fill="none" xmlns="http://www.w3.org/2000/svg">
<path fill-rule="evenodd" clip-rule="evenodd" d="M2 13H14C14.2651 12.9997 14.5193 12.8942 14.7068 12.7068C14.8942 12.5193 14.9997 12.2651 15 12V4C14.9997 3.73488 14.8942 3.4807 14.7068 3.29323C14.5193 3.10576 14.2651 3.0003 14 3H2C1.73488 3.0003 1.4807 3.10576 1.29323 3.29323C1.10576 3.4807 1.0003 3.73488 1 4V12C1.0003 12.2651 1.10576 12.5193 1.29323 12.7068C1.4807 12.8942 1.73488 12.9997 2 13ZM2 12V4H14V12H2ZM3.5 5.5H4.5V10.5H3.5V5.5ZM5.5 5.5H6.5V10.5H5.5V5.5ZM8.5 5.5H7.5V10.5H8.5V5.5ZM9.5 5.5H10.5V10.5H9.5V5.5ZM12.5 5.5H11.5V10.5H12.5V5.5Z" fill="black"/>
</svg>
