<svg width="16" height="16" viewBox="0 0 16 16" fill="none" xmlns="http://www.w3.org/2000/svg">
<path fill-rule="evenodd" clip-rule="evenodd" d="M2 15H14C14.2651 14.9997 14.5193 14.8943 14.7068 14.7068C14.8943 14.5193 14.9997 14.2651 15 14V2C14.9997 1.73487 14.8943 1.48068 14.7068 1.2932C14.5193 1.10572 14.2651 1.00028 14 1H2C1.73487 1.00028 1.48068 1.10572 1.2932 1.2932C1.10572 1.48068 1.00028 1.73487 1 2V14C1.00028 14.2651 1.10572 14.5193 1.2932 14.7068C1.48068 14.8943 1.73487 14.9997 2 15ZM2 14V2H14V14H2ZM3.5 4C3.77614 4 4 3.77614 4 3.5C4 3.22386 3.77614 3 3.5 3C3.22386 3 3 3.22386 3 3.5C3 3.77614 3.22386 4 3.5 4ZM13 3H11V5H13V3ZM13 12.5C13 12.7761 12.7761 13 12.5 13C12.2239 13 12 12.7761 12 12.5C12 12.2239 12.2239 12 12.5 12C12.7761 12 13 12.2239 13 12.5ZM12.5 11C12.7761 11 13 10.7761 13 10.5C13 10.2239 12.7761 10 12.5 10C12.2239 10 12 10.2239 12 10.5C12 10.7761 12.2239 11 12.5 11ZM13 8.5C13 8.77614 12.7761 9 12.5 9C12.2239 9 12 8.77614 12 8.5C12 8.22386 12.2239 8 12.5 8C12.7761 8 13 8.22386 13 8.5ZM11 8.5V7.5H10V7C9.9997 6.73488 9.89424 6.4807 9.70677 6.29323C9.5193 6.10576 9.26512 6.0003 9 6H8.5V5H7.5V6H6.5V5H5.5V6H5C4.73488 6.0003 4.4807 6.10576 4.29323 6.29323C4.10576 6.4807 4.0003 6.73488 4 7V7.5H3V8.5H4V9.5H3V10.5H4V11C4.0003 11.2651 4.10576 11.5193 4.29323 11.7068C4.4807 11.8942 4.73488 11.9997 5 12H5.5V13H6.5V12H7.5V13H8.5V12H9C9.26512 11.9997 9.5193 11.8942 9.70677 11.7068C9.89424 11.5193 9.9997 11.2651 10 11V10.5H11V9.5H10V8.5H11ZM9 11H5V7H9V11Z" fill="black"/>
</svg>
