<svg width="16" height="16" viewBox="0 0 16 16" fill="none" xmlns="http://www.w3.org/2000/svg">
<path fill-rule="evenodd" clip-rule="evenodd" d="M12.9497 3.05025C14.2625 4.36301 15 6.14348 15 8C14.9999 9.38121 14.5913 10.7315 13.8256 11.881C13.0598 13.0305 11.9711 13.9278 10.6965 14.46L10.697 14.4613C10.6415 14.4844 10.5848 14.5038 10.5282 14.5232C10.4942 14.5348 10.4602 14.5464 10.4264 14.5589C10.394 14.5709 10.3617 14.5831 10.3294 14.5954C10.242 14.6285 10.1546 14.6617 10.0647 14.6895C9.96302 14.7208 9.85974 14.7456 9.75639 14.7703C9.72537 14.7777 9.69434 14.7851 9.66335 14.7928C9.62886 14.8011 9.59469 14.8103 9.56052 14.8195C9.50675 14.834 9.45298 14.8485 9.39795 14.8596C9.24182 14.8912 9.08346 14.9116 8.92512 14.932L8.90725 14.9344C8.8794 14.9381 8.85186 14.9427 8.82436 14.9473C8.78564 14.9538 8.74696 14.9603 8.7075 14.9643C8.47363 14.9881 8.2378 15 8 15C6.51899 15.0034 5.07526 14.5357 3.87757 13.6646C2.67988 12.7934 1.7903 11.5639 1.33745 10.1538L1.35 10.1496C1.24847 9.84124 1.16866 9.5261 1.11115 9.20655L2.095 9C2.18302 9.50355 2.3296 9.99508 2.53175 10.4646L2.53309 10.4676C2.55824 10.5238 2.58347 10.5801 2.61035 10.6353C2.63926 10.696 2.67003 10.7548 2.70085 10.8137L2.708 10.8274C3.2689 11.8771 4.12925 12.7362 5.17968 13.2957C6.23011 13.8551 7.42317 14.0896 8.6072 13.9692C8.63508 13.9665 8.66262 13.9619 8.69015 13.9573C8.71225 13.9537 8.73434 13.95 8.7566 13.9473C8.9055 13.9285 9.0543 13.9092 9.1997 13.8797C9.23722 13.872 9.27416 13.862 9.3111 13.8521C9.33676 13.8451 9.36243 13.8382 9.3883 13.8321C9.40078 13.8291 9.41327 13.8262 9.42576 13.8232C9.54243 13.7957 9.65899 13.7682 9.77245 13.7334C9.8271 13.7165 9.8808 13.6962 9.93448 13.6758C9.96449 13.6645 9.99449 13.6531 10.0246 13.6424C11.3548 13.1661 12.4741 12.2355 13.1851 11.0147C13.8962 9.79385 14.1533 8.36116 13.9113 6.96923C13.6692 5.5773 12.9435 4.31554 11.862 3.40642C10.7805 2.49731 9.41281 1.99922 8 2V1C9.85651 1 11.637 1.7375 12.9497 3.05025ZM5.56641 1.44336L5.90821 2.38216C5.25505 2.62445 4.64919 2.97888 4.11791 3.42951L3.47536 2.66376C4.09606 2.13839 4.80369 1.72539 5.56641 1.44336ZM1.93 4.5L2.79565 5C2.45025 5.61032 2.21312 6.27583 2.09475 6.96705L1.1109 6.7936C1.2492 5.98744 1.52635 5.2114 1.93 4.5ZM8 13C9.32608 13 10.5979 12.4732 11.5355 11.5355C12.4732 10.5979 13 9.32608 13 8C13 6.67392 12.4732 5.40215 11.5355 4.46447C10.5979 3.52678 9.32608 3 8 3V13Z" fill="black"/>
</svg>
