<svg width="16" height="16" viewBox="0 0 16 16" fill="none" xmlns="http://www.w3.org/2000/svg">
<path fill-rule="evenodd" clip-rule="evenodd" d="M9.20705 4H14C14.2651 4.00033 14.5193 4.10579 14.7067 4.29326C14.8942 4.48072 14.9997 4.73489 15 5V13C14.9997 13.2651 14.8942 13.5193 14.7067 13.7067C14.5193 13.8942 14.2651 13.9997 14 14H2C1.73489 13.9997 1.48072 13.8942 1.29326 13.7067C1.10579 13.5193 1.00033 13.2651 1 13V5C1.00033 4.73489 1.10579 4.48072 1.29326 4.29326C1.48072 4.10579 1.73489 4.00033 2 4H7.79295L9.53615 2.25685C9.51323 2.17312 9.50108 2.08681 9.5 2C9.5 1.80222 9.55865 1.60888 9.66853 1.44443C9.77841 1.27998 9.93459 1.15181 10.1173 1.07612C10.3 1.00043 10.5011 0.98063 10.6951 1.01922C10.8891 1.0578 11.0673 1.15304 11.2071 1.29289C11.347 1.43275 11.4422 1.61093 11.4808 1.80491C11.5194 1.99889 11.4996 2.19996 11.4239 2.38268C11.3482 2.56541 11.22 2.72159 11.0556 2.83147C10.8911 2.94135 10.6978 3 10.5 3C10.4132 2.99893 10.3269 2.98678 10.2431 2.96385L9.20705 4ZM2 5V13H14V5H2ZM4.94443 7.16852C5.10888 7.05864 5.30222 6.99999 5.5 6.99999C5.63168 6.99869 5.7623 7.02367 5.88421 7.07347C6.00612 7.12326 6.11688 7.19687 6.21 7.28999C6.30311 7.38311 6.37672 7.49386 6.42652 7.61578C6.47632 7.73769 6.5013 7.8683 6.5 7.99999C6.5 8.19777 6.44135 8.39111 6.33147 8.55556C6.22159 8.72001 6.06541 8.84818 5.88268 8.92387C5.69996 8.99955 5.49889 9.01936 5.30491 8.98077C5.11093 8.94219 4.93275 8.84695 4.79289 8.70709C4.65304 8.56724 4.5578 8.38906 4.51922 8.19508C4.48063 8.0011 4.50043 7.80003 4.57612 7.6173C4.65181 7.43458 4.77998 7.2784 4.94443 7.16852ZM4.5 10.5H11.5V11.5H4.5V10.5ZM10.5 6.99999C10.3022 6.99999 10.1089 7.05864 9.94443 7.16852C9.77998 7.2784 9.65181 7.43458 9.57612 7.6173C9.50043 7.80003 9.48063 8.0011 9.51922 8.19508C9.5578 8.38906 9.65304 8.56724 9.79289 8.70709C9.93275 8.84695 10.1109 8.94219 10.3049 8.98077C10.4989 9.01936 10.7 8.99955 10.8827 8.92387C11.0654 8.84818 11.2216 8.72001 11.3315 8.55556C11.4414 8.39111 11.5 8.19777 11.5 7.99999C11.5013 7.8683 11.4763 7.73769 11.4265 7.61578C11.3767 7.49386 11.3031 7.38311 11.21 7.28999C11.1169 7.19687 11.0061 7.12326 10.8842 7.07347C10.7623 7.02367 10.6317 6.99869 10.5 6.99999Z" fill="black"/>
</svg>
