<svg width="16" height="16" viewBox="0 0 16 16" fill="none" xmlns="http://www.w3.org/2000/svg">
<path d="M11.8125 11.2937C11.3924 11.2981 10.9759 11.216 10.5888 11.0526C10.2017 10.8892 9.8524 10.6479 9.56252 10.3437L8.01252 8.74374L6.46252 10.3437C5.85764 10.9442 5.03987 11.2812 4.18752 11.2812C3.33518 11.2812 2.51741 10.9442 1.91252 10.3437C1.33271 9.69836 1.01214 8.86131 1.01252 7.99374C1.00673 7.11574 1.3482 6.27105 1.96252 5.64374C2.25711 5.34668 2.6076 5.11089 2.99377 4.94999C3.37995 4.78908 3.79417 4.70624 4.21252 4.70624C4.63088 4.70624 5.0451 4.78908 5.43127 4.94999C5.81745 5.11089 6.16794 5.34668 6.46252 5.64374L8.01252 7.24374L9.56252 5.64374C9.85711 5.34668 10.2076 5.11089 10.5938 4.94999C10.9799 4.78908 11.3942 4.70624 11.8125 4.70624C12.2309 4.70624 12.6451 4.78908 13.0313 4.94999C13.4174 5.11089 13.7679 5.34668 14.0625 5.64374C14.6645 6.2781 15 7.11925 15 7.99374C15 8.86823 14.6645 9.70938 14.0625 10.3437C13.4633 10.939 12.6571 11.2795 11.8125 11.2937ZM8.71252 7.99374L10.2625 9.64374C10.675 10.0521 11.232 10.2812 11.8125 10.2812C12.393 10.2812 12.95 10.0521 13.3625 9.64374C13.7728 9.19213 14.0001 8.60388 14.0001 7.99374C14.0001 7.3836 13.7728 6.79535 13.3625 6.34374C12.95 5.93533 12.393 5.70623 11.8125 5.70623C11.232 5.70623 10.675 5.93533 10.2625 6.34374L8.71252 7.99374ZM4.21252 5.69374C3.92315 5.68823 3.63582 5.7432 3.36891 5.85513C3.10201 5.96705 2.86141 6.13348 2.66252 6.34374C2.24482 6.79164 2.01253 7.38129 2.01253 7.99374C2.01253 8.60619 2.24482 9.19584 2.66252 9.64374C3.07503 10.0521 3.63205 10.2812 4.21252 10.2812C4.793 10.2812 5.35002 10.0521 5.76252 9.64374L7.31252 7.99374L5.76252 6.34374C5.34183 5.94619 4.79094 5.71517 4.21252 5.69374Z" fill="black"/>
</svg>
