<svg width="16" height="16" viewBox="0 0 16 16" fill="none" xmlns="http://www.w3.org/2000/svg">
<path fill-rule="evenodd" clip-rule="evenodd" d="M2 12H9.5V13H2C1.73489 12.9996 1.48075 12.8942 1.29329 12.7067C1.10583 12.5193 1.00036 12.2651 1 12V4C1.0003 3.73488 1.10576 3.4807 1.29323 3.29323C1.4807 3.10576 1.73488 3.0003 2 3H14C14.2651 3.00036 14.5193 3.10583 14.7067 3.29329C14.8942 3.48075 14.9996 3.73489 15 4V9H14V4.45435L8.28465 8.41115C8.201 8.46901 8.10171 8.5 8 8.5C7.89829 8.5 7.799 8.46901 7.71535 8.41115L1.9983 4.4531L2 12ZM8 7.39185L12.8993 4H3.1007L8 7.39185ZM15 12C15 13.1046 14.1046 14 13 14C11.8954 14 11 13.1046 11 12C11 10.8954 11.8954 10 13 10C14.1046 10 15 10.8954 15 12Z" fill="black"/>
</svg>
