<svg width="16" height="16" viewBox="0 0 16 16" fill="none" xmlns="http://www.w3.org/2000/svg">
<path fill-rule="evenodd" clip-rule="evenodd" d="M1 1H2V3H1V1ZM14.5 9.5V10.6391C14.6515 10.7262 14.7774 10.8516 14.8652 11.0027C14.9529 11.1538 14.9994 11.3253 15 11.5V14C14.9997 14.2651 14.8942 14.5193 14.7067 14.7067C14.5193 14.8942 14.2651 14.9997 14 15H11C10.7349 14.9997 10.4807 14.8942 10.2933 14.7067C10.1058 14.5193 10.0003 14.2651 10 14V11.5C10.0006 11.3253 10.0471 11.1538 10.1348 11.0027C10.2226 10.8516 10.3485 10.7262 10.5 10.6391V9.5C10.5 8.96957 10.7107 8.46086 11.0858 8.08579C11.4609 7.71071 11.9696 7.5 12.5 7.5C13.0304 7.5 13.5391 7.71071 13.9142 8.08579C14.2893 8.46086 14.5 8.96957 14.5 9.5ZM13.2067 8.79326C13.0193 8.60579 12.7651 8.50033 12.5 8.5C12.2349 8.50033 11.9807 8.60579 11.7933 8.79326C11.6058 8.98072 11.5003 9.23489 11.5 9.5V10.5H13.5V9.5C13.4997 9.23489 13.3942 8.98072 13.2067 8.79326ZM11 11.5V14H14V11.5H11ZM8 1H7V3H8V1ZM9 1H10V3H9V1ZM2 4H1V8H2V4ZM1 9H2V13H1V9ZM8 9H7V13H8V9ZM3 4H4V8H3V4ZM10 4H9V7H10V4ZM4 13H5C5.26512 12.9997 5.5193 12.8942 5.70677 12.7068C5.89424 12.5193 5.9997 12.2651 6 12V10C5.9997 9.73488 5.89424 9.4807 5.70677 9.29323C5.5193 9.10576 5.26512 9.0003 5 9H4C3.73488 9.0003 3.4807 9.10576 3.29323 9.29323C3.10576 9.4807 3.0003 9.73488 3 10V12C3.0003 12.2651 3.10576 12.5193 3.29323 12.7068C3.4807 12.8942 3.73488 12.9997 4 13ZM4 12V10H5V12H4ZM7 8H6C5.73488 7.9997 5.4807 7.89424 5.29323 7.70677C5.10576 7.5193 5.0003 7.26512 5 7V5C5.0003 4.73488 5.10576 4.4807 5.29323 4.29323C5.4807 4.10576 5.73488 4.0003 6 4H7C7.26512 4.0003 7.5193 4.10576 7.70677 4.29323C7.89424 4.4807 7.9997 4.73488 8 5V7C7.9997 7.26512 7.89424 7.5193 7.70677 7.70677C7.5193 7.89424 7.26512 7.9997 7 8ZM6 5V7H7V5H6ZM4 3H5C5.26512 2.9997 5.5193 2.89424 5.70677 2.70677C5.89424 2.5193 5.9997 2.26512 6 2V1H5V2H4V1H3V2C3.0003 2.26512 3.10576 2.5193 3.29323 2.70677C3.4807 2.89424 3.73488 2.9997 4 3Z" fill="black"/>
</svg>
