<svg width="16" height="16" viewBox="0 0 16 16" fill="none" xmlns="http://www.w3.org/2000/svg">
<path fill-rule="evenodd" clip-rule="evenodd" d="M9.725 1.295L13.69 5.255C13.783 5.34787 13.8567 5.45816 13.9071 5.57956C13.9574 5.70095 13.9833 5.83108 13.9833 5.9625C13.9833 6.09391 13.9574 6.22404 13.9071 6.34544C13.8567 6.46684 13.783 6.57712 13.69 6.67L8.35999 12H3.565L1.30999 9.71C1.21702 9.61712 1.14326 9.50683 1.09294 9.38544C1.04261 9.26404 1.01671 9.13391 1.01671 9.0025C1.01671 8.87108 1.04261 8.74095 1.09294 8.61956C1.14326 8.49816 1.21702 8.38787 1.30999 8.295L8.31 1.295C8.40287 1.20202 8.51316 1.12826 8.63455 1.07794C8.75595 1.02761 8.88608 1.00171 9.0175 1.00171C9.14891 1.00171 9.27904 1.02761 9.40044 1.07794C9.52183 1.12826 9.63212 1.20202 9.725 1.295ZM3.99999 11H7.94499L9.12 9.805L5.15499 5.845L1.99999 9L3.99999 11ZM5.865 5.155L9.825 9.12L13 5.965L9 2L5.865 5.155ZM3.5 13.5H15V14.5H3.5V13.5Z" fill="black"/>
</svg>
