<svg width="16" height="16" viewBox="0 0 16 16" fill="none" xmlns="http://www.w3.org/2000/svg">
<path fill-rule="evenodd" clip-rule="evenodd" d="M0 1H2C2.26512 1.0003 2.5193 1.10576 2.70677 1.29323C2.89424 1.4807 2.9997 1.73488 3 2V5C2.99964 5.26511 2.89417 5.51925 2.70671 5.70671C2.51925 5.89417 2.26511 5.99964 2 6H0V5H2V4H0.5V3H2V2H0V1ZM5.5 6H4V1H5.5C5.89769 1.00044 6.27897 1.15861 6.56018 1.43982C6.84139 1.72103 6.99956 2.10231 7 2.5V4.5C6.99956 4.89769 6.84139 5.27897 6.56018 5.56018C6.27897 5.84139 5.89769 5.99956 5.5 6ZM5 5H5.5C5.63257 4.99988 5.75968 4.94716 5.85342 4.85342C5.94716 4.75968 5.99988 4.63257 6 4.5V2.5C5.99988 2.36743 5.94716 2.24032 5.85342 2.14658C5.75968 2.05284 5.63257 2.00012 5.5 2H5V5ZM15.2074 8.25642L11.244 4.29277C11.0563 4.1053 10.802 4 10.5367 4C10.2715 4 10.0171 4.1053 9.82944 4.29277L2.81039 11.3118C2.62304 11.4995 2.51782 11.7539 2.51782 12.0191C2.51782 12.2843 2.62304 12.5387 2.81039 12.7264L5.08314 14.9998H9.87854L15.2074 9.67047C15.3948 9.48288 15.5 9.22858 15.5 8.96345C15.5 8.69831 15.3948 8.44402 15.2074 8.25642ZM9.46449 13.9998H5.49744L3.51744 12.0189L6.67359 8.86297L10.6374 12.8268L9.46449 13.9998ZM11.3445 12.1198L7.38069 8.15602L10.537 4.99982L14.5003 8.96342L11.3445 12.1198Z" fill="black"/>
</svg>
