<svg width="16" height="16" viewBox="0 0 16 16" fill="none" xmlns="http://www.w3.org/2000/svg">
<path fill-rule="evenodd" clip-rule="evenodd" d="M5.31447 1.5212C6.16634 1.17144 7.07916 0.994289 8.00001 1.00001C8.92086 0.994289 9.83369 1.17144 10.6856 1.5212C11.5374 1.87095 12.3114 2.38635 12.9625 3.03751C13.6137 3.68866 14.1291 4.46261 14.4788 5.31447C14.8286 6.16634 15.0057 7.07916 15 8.00001C15.0057 8.92086 14.8286 9.83369 14.4788 10.6856C14.1291 11.5374 13.6137 12.3114 12.9625 12.9625C12.3114 13.6137 11.5374 14.1291 10.6856 14.4788C9.83369 14.8286 8.92086 15.0057 8.00001 15C7.07916 15.0057 6.16634 14.8286 5.31447 14.4788C4.46261 14.1291 3.68866 13.6137 3.03751 12.9625C2.38635 12.3114 1.87095 11.5374 1.5212 10.6856C1.17144 9.83369 0.994289 8.92086 1.00001 8.00001C0.994289 7.07916 1.17144 6.16634 1.5212 5.31447C1.87095 4.46261 2.38635 3.68866 3.03751 3.03751C3.68866 2.38635 4.46261 1.87095 5.31447 1.5212ZM4.66659 12.9888C5.65329 13.6481 6.81332 14 8.00001 14C9.58988 13.9954 11.1133 13.3617 12.2375 12.2375C13.3617 11.1133 13.9954 9.58988 14 8.00001C14 6.81332 13.6481 5.65329 12.9888 4.66659C12.3295 3.6799 11.3925 2.91086 10.2961 2.45674C9.19976 2.00261 7.99336 1.88379 6.82947 2.1153C5.66558 2.34681 4.59649 2.91826 3.75737 3.75737C2.91826 4.59649 2.34681 5.66558 2.1153 6.82947C1.88379 7.99336 2.00261 9.19976 2.45674 10.2961C2.91086 11.3925 3.6799 12.3295 4.66659 12.9888ZM4.50006 5.27771L5.27774 4.50003L11.5001 10.7224L10.7224 11.5L4.50006 5.27771Z" fill="black"/>
</svg>
