<svg width="16" height="16" viewBox="0 0 16 16" fill="none" xmlns="http://www.w3.org/2000/svg">
<path fill-rule="evenodd" clip-rule="evenodd" d="M13.7071 2.29289C13.8946 2.48043 14 2.73478 14 3V6H13V3H11V4H10V3H6V4H5V3H3V13H5V14H3C2.73478 14 2.48043 13.8946 2.29289 13.7071C2.10536 13.5196 2 13.2652 2 13V3C2 2.73478 2.10536 2.48043 2.29289 2.29289C2.48043 2.10536 2.73478 2 3 2H5V1H6V2H10V1H11V2H13C13.2652 2 13.5196 2.10536 13.7071 2.29289ZM11.7745 9.969L10.5 7.5L9.3 9.969L6.5 10.3645L8.5 12.2865L8 15L10.5 13.719L13 15L12.5 12.2865L14.5 10.3645L11.7745 9.969Z" fill="black"/>
</svg>
