<svg width="16" height="16" viewBox="0 0 16 16" fill="none" xmlns="http://www.w3.org/2000/svg">
<path fill-rule="evenodd" clip-rule="evenodd" d="M2 5H4C4.26522 5 4.51957 4.89464 4.70711 4.70711C4.89464 4.51957 5 4.26522 5 4V2C5 1.73478 4.89464 1.48043 4.70711 1.29289C4.51957 1.10536 4.26522 1 4 1H2C1.73478 1 1.48043 1.10536 1.29289 1.29289C1.10536 1.48043 1 1.73478 1 2V4C1 4.26522 1.10536 4.51957 1.29289 4.70711C1.48043 4.89464 1.73478 5 2 5ZM2 4V2H4V4H2ZM13.5 3.5V8.085L15.295 6.295L16 7L13 10L10 7L10.705 6.295L12.5 8.085V3.5H6.5V2.5H12.5C12.7652 2.5 13.0196 2.60536 13.2071 2.79289C13.3946 2.98043 13.5 3.23478 13.5 3.5ZM12.5 11.5V13H3.5V8.415L5.295 10.205L6 9.5L3 6.5L0 9.5L0.705 10.205L2.5 8.415V13C2.5 13.2652 2.60536 13.5196 2.79289 13.7071C2.98043 13.8946 3.23478 14 3.5 14H12.5C12.7652 14 13.0196 13.8946 13.2071 13.7071C13.3946 13.5196 13.5 13.2652 13.5 13V11.5H12.5Z" fill="black"/>
</svg>
