<svg width="16" height="16" viewBox="0 0 16 16" fill="none" xmlns="http://www.w3.org/2000/svg">
<path fill-rule="evenodd" clip-rule="evenodd" d="M2 13H10.5V14H2C1.4486 14 1 13.5513 1 13V3C1 2.44875 1.4486 2 2 2H14C14.5514 2 15 2.44875 15 3V9.5H14V6H2V13ZM14 3H2V5H14V3ZM3 4.5C3.27614 4.5 3.5 4.27614 3.5 4C3.5 3.72386 3.27614 3.5 3 3.5C2.72386 3.5 2.5 3.72386 2.5 4C2.5 4.27614 2.72386 4.5 3 4.5ZM5 4C5 4.27614 4.77614 4.5 4.5 4.5C4.22386 4.5 4 4.27614 4 4C4 3.72386 4.22386 3.5 4.5 3.5C4.77614 3.5 5 3.72386 5 4ZM5.915 9.5L7.21 8.205L6.5 7.5L4.5 9.5L6.5 11.5L7.21 10.795L5.915 9.5ZM8.79004 10.795L10.085 9.5L8.79004 8.205L9.50004 7.5L11.5 9.5L9.50004 11.5L8.79004 10.795ZM16 13L12.5 10.5V15.5L16 13Z" fill="black"/>
</svg>
