<svg width="16" height="16" viewBox="0 0 16 16" fill="none" xmlns="http://www.w3.org/2000/svg">
<path fill-rule="evenodd" clip-rule="evenodd" d="M4.11101 13.8203C5.26216 14.5895 6.61553 15 8 15C9.85588 14.9979 11.6351 14.2597 12.9474 12.9474C14.2597 11.6351 14.9979 9.85588 15 8C15 6.61553 14.5895 5.26216 13.8203 4.11101C13.0511 2.95987 11.9579 2.06266 10.6788 1.53285C9.3997 1.00303 7.99224 0.86441 6.63437 1.13451C5.2765 1.4046 4.02922 2.07129 3.05026 3.05026C2.07129 4.02922 1.4046 5.2765 1.13451 6.63437C0.86441 7.99224 1.00303 9.3997 1.53285 10.6788C2.06266 11.9579 2.95987 13.0511 4.11101 13.8203ZM4.66658 3.01119C5.65328 2.3519 6.81332 2 8 2C9.59075 2.00182 11.1158 2.63454 12.2406 3.75936C13.3655 4.88419 13.9982 6.40926 14 8C14 9.18669 13.6481 10.3467 12.9888 11.3334C12.3295 12.3201 11.3925 13.0892 10.2961 13.5433C9.19975 13.9974 7.99335 14.1162 6.82946 13.8847C5.66558 13.6532 4.59648 13.0818 3.75736 12.2426C2.91825 11.4035 2.3468 10.3344 2.11529 9.17054C1.88378 8.00666 2.0026 6.80026 2.45673 5.7039C2.91085 4.60755 3.67989 3.67047 4.66658 3.01119ZM11.1148 4.51338C11.2052 4.53472 11.2879 4.58084 11.3535 4.64656C11.4192 4.71221 11.4653 4.79485 11.4866 4.88522C11.5079 4.97559 11.5037 5.07011 11.4743 5.15821L9.97435 9.65821C9.94976 9.73181 9.9084 9.79869 9.85353 9.85356C9.79867 9.90844 9.73179 9.94981 9.6582 9.97441L5.15819 11.4744C5.07009 11.5038 4.97553 11.5081 4.88513 11.4868C4.79474 11.4654 4.71206 11.4193 4.64639 11.3537C4.58071 11.288 4.53462 11.2053 4.5133 11.1149C4.49197 11.0245 4.49625 10.93 4.52564 10.8419L6.02564 6.34186C6.05023 6.26826 6.09159 6.20139 6.14646 6.14652C6.20132 6.09165 6.2682 6.05029 6.34179 6.02571L10.8418 4.52571C10.9299 4.4963 11.0244 4.49203 11.1148 4.51338ZM6.89524 6.89531L5.79054 10.2095L9.10499 9.10501L6.89524 6.89531Z" fill="black"/>
</svg>
