<svg width="16" height="16" viewBox="0 0 16 16" fill="none" xmlns="http://www.w3.org/2000/svg">
<path fill-rule="evenodd" clip-rule="evenodd" d="M12.355 1.14503L14.855 3.64503V3.65003C14.9481 3.74371 15.0004 3.87044 15.0004 4.00253C15.0004 4.13462 14.9481 4.26135 14.855 4.35503L13.205 6.00003L13.855 6.64503L13.145 7.35503L12.5 6.70503L7.355 11.855C7.30828 11.9014 7.25287 11.938 7.19195 11.9629C7.13103 11.9878 7.0658 12.0004 7 12H6.205L4.85 13.35C4.75632 13.4432 4.62959 13.4954 4.4975 13.4954C4.36541 13.4954 4.23868 13.4432 4.145 13.35L2.645 11.85C2.55187 11.7563 2.4996 11.6296 2.4996 11.4975C2.4996 11.3654 2.55187 11.2387 2.645 11.145L4 9.79503V9.00003C3.99962 8.93423 4.01223 8.86899 4.03711 8.80808C4.062 8.74716 4.09866 8.69175 4.145 8.64503L9.295 3.50003L8.645 2.85503L9.355 2.14503L10 2.79503L11.65 1.14503C11.7437 1.0519 11.8704 0.999634 12.0025 0.999634C12.1346 0.999634 12.2613 1.0519 12.355 1.14503ZM5.795 11H6.795L11.795 6.00003L10 4.20503L5 9.20503V10.205L3.705 11.5L4.5 12.295L5.795 11ZM10.705 3.50003L12.5 5.29503L13.795 4.00003L12 2.20503L10.705 3.50003ZM1 13.5H2.5V15H1V13.5Z" fill="black"/>
</svg>
