<svg width="16" height="16" viewBox="0 0 16 16" fill="none" xmlns="http://www.w3.org/2000/svg">
<path fill-rule="evenodd" clip-rule="evenodd" d="M4.11101 2.17971C5.26216 1.41054 6.61553 1 8 1C9.85652 1 11.637 1.7375 12.9497 3.05025C14.2625 4.36301 15 6.14348 15 8C15 9.38447 14.5895 10.7378 13.8203 11.889C13.0511 13.0401 11.9579 13.9373 10.6788 14.4672C9.3997 14.997 7.99224 15.1356 6.63437 14.8655C5.2765 14.5954 4.02922 13.9287 3.05026 12.9497C2.07129 11.9708 1.4046 10.7235 1.13451 9.36563C0.86441 8.00776 1.00303 6.6003 1.53285 5.32122C2.06266 4.04213 2.95987 2.94888 4.11101 2.17971ZM4.66658 12.9888C5.65328 13.6481 6.81332 14 8 14C9.5913 14 11.1174 13.3679 12.2426 12.2426C13.3679 11.1174 14 9.5913 14 8C14 6.81331 13.6481 5.65327 12.9888 4.66658C12.3295 3.67988 11.3925 2.91085 10.2961 2.45672C9.19975 2.0026 7.99335 1.88378 6.82946 2.11529C5.66558 2.3468 4.59648 2.91824 3.75736 3.75736C2.91825 4.59647 2.3468 5.66557 2.11529 6.82946C1.88378 7.99334 2.0026 9.19974 2.45673 10.2961C2.91085 11.3925 3.67989 12.3295 4.66658 12.9888ZM11.5 4.79498L12.205 5.49998L11.205 6.49998L12.205 7.49998L11.5 8.20498L10.5 7.20498L9.5 8.20498L8.795 7.49998L9.795 6.49998L8.795 5.49998L9.5 4.79498L10.5 5.79498L11.5 4.79498ZM7.205 5.49998L6.5 4.79498L5.5 5.79498L4.5 4.79498L3.795 5.49998L4.795 6.49998L3.795 7.49998L4.5 8.20498L5.5 7.20498L6.5 8.20498L7.205 7.49998L6.205 6.49998L7.205 5.49998ZM7.16665 9.7528C7.41332 9.58797 7.70333 9.5 8 9.5C8.39783 9.5 8.77936 9.65804 9.06066 9.93934C9.34197 10.2206 9.5 10.6022 9.5 11C9.5 11.2967 9.41203 11.5867 9.24721 11.8334C9.08238 12.08 8.84812 12.2723 8.57403 12.3858C8.29994 12.4994 7.99834 12.5291 7.70737 12.4712C7.41639 12.4133 7.14912 12.2704 6.93934 12.0607C6.72956 11.8509 6.5867 11.5836 6.52882 11.2926C6.47094 11.0017 6.50065 10.7001 6.61418 10.426C6.72771 10.1519 6.91997 9.91762 7.16665 9.7528Z" fill="black"/>
</svg>
