<svg width="16" height="16" viewBox="0 0 16 16" fill="none" xmlns="http://www.w3.org/2000/svg">
<path fill-rule="evenodd" clip-rule="evenodd" d="M14.071 4.50345C14.6817 5.56743 15.0021 6.77322 15 8.00001C14.9995 9.21722 14.681 10.4132 14.0758 11.4693C13.4707 12.5254 12.6001 13.4051 11.5502 14.021L11.5424 14.0996C11.5185 14.3467 11.4032 14.5759 11.2192 14.7424C11.0351 14.9089 10.7956 15.0008 10.5474 15H5.45239C5.20414 15.0008 4.96454 14.9088 4.78052 14.7422C4.5965 14.5755 4.48131 14.3462 4.45749 14.0991L4.44969 14.021C3.3924 13.3988 2.51719 12.5096 1.91177 11.4426C1.30635 10.3757 0.991982 9.16828 1.00016 7.94152C1.00833 6.71476 1.33876 5.51168 1.95835 4.45285C2.57793 3.39401 3.4649 2.51661 4.53039 1.90854C5.59588 1.30047 6.80246 0.983095 8.02924 0.98822C9.25602 0.993346 10.4599 1.32079 11.5203 1.93774C12.5807 2.55469 13.4603 3.43948 14.071 4.50345ZM12.1312 3.65326C11.0172 2.59259 9.53817 2.00069 7.99999 2.00001C6.46185 2.00076 4.98284 2.59268 3.8689 3.65335C2.75496 4.71401 2.09131 6.16225 2.01524 7.69851L4.61814 9.00001H11.3818L13.985 7.69851C13.9089 6.16221 13.2452 4.71393 12.1312 3.65326ZM4.02999 9.82386L2.05999 8.83886C2.27893 10.3802 3.08984 11.7756 4.32064 12.7289L4.02999 9.82386ZM5.45264 14H10.5473L10.9476 10H5.05264L5.45264 14ZM11.9701 9.82401L11.6795 12.729C12.9103 11.7757 13.7211 10.3803 13.9401 8.83901L11.9701 9.82401ZM5.74999 5.5C5.50276 5.5 5.26109 5.57331 5.05553 5.71066C4.84996 5.84801 4.68975 6.04324 4.59514 6.27165C4.50053 6.50005 4.47578 6.75139 4.52401 6.99386C4.57224 7.23634 4.69129 7.45907 4.86611 7.63388C5.04092 7.8087 5.26365 7.92775 5.50613 7.97598C5.7486 8.02421 5.99994 7.99946 6.22834 7.90485C6.45675 7.81024 6.65197 7.65002 6.78933 7.44446C6.92668 7.2389 6.99999 6.99723 6.99999 6.75C6.99999 6.41848 6.86829 6.10054 6.63387 5.86612C6.39945 5.6317 6.08151 5.5 5.74999 5.5ZM10.25 5.5C10.0028 5.5 9.76109 5.57331 9.55553 5.71066C9.34997 5.84801 9.18975 6.04324 9.09514 6.27165C9.00053 6.50005 8.97578 6.75139 9.02401 6.99386C9.07224 7.23634 9.19129 7.45907 9.36611 7.63388C9.54092 7.8087 9.76365 7.92775 10.0061 7.97598C10.2486 8.02421 10.4999 7.99946 10.7283 7.90485C10.9568 7.81024 11.152 7.65002 11.2893 7.44446C11.4267 7.2389 11.5 6.99723 11.5 6.75C11.5 6.41848 11.3683 6.10054 11.1339 5.86612C10.8995 5.6317 10.5815 5.5 10.25 5.5Z" fill="black"/>
</svg>
