<svg width="16" height="16" viewBox="0 0 16 16" fill="none" xmlns="http://www.w3.org/2000/svg">
<path fill-rule="evenodd" clip-rule="evenodd" d="M8 1C6.61553 1 5.26216 1.41054 4.11101 2.17971C2.95987 2.94888 2.06266 4.04213 1.53285 5.32122C1.00303 6.6003 0.86441 8.00776 1.13451 9.36563C1.4046 10.7235 2.07129 11.9708 3.05026 12.9497C4.02922 13.9287 5.2765 14.5954 6.63437 14.8655C7.99224 15.1356 9.3997 14.997 10.6788 14.4672C11.9579 13.9373 13.0511 13.0401 13.8203 11.889C14.5895 10.7378 15 9.38447 15 8C15 6.14348 14.2625 4.36301 12.9497 3.05025C11.637 1.7375 9.85652 1 8 1ZM8 14C6.81332 14 5.65328 13.6481 4.66658 12.9888C3.67989 12.3295 2.91085 11.3925 2.45673 10.2961C2.0026 9.19974 1.88378 7.99334 2.11529 6.82946C2.3468 5.66557 2.91825 4.59647 3.75736 3.75736C4.59648 2.91824 5.66558 2.3468 6.82946 2.11529C7.99335 1.88378 9.19975 2.0026 10.2961 2.45672C11.3925 2.91085 12.3295 3.67988 12.9888 4.66658C13.6481 5.65327 14 6.81331 14 8C14 9.5913 13.3679 11.1174 12.2426 12.2426C11.1174 13.3679 9.5913 14 8 14ZM5.75 5.49998C5.50277 5.49998 5.2611 5.57329 5.05554 5.71064C4.84998 5.84799 4.68976 6.04322 4.59515 6.27163C4.50054 6.50003 4.47579 6.75137 4.52402 6.99384C4.57225 7.23632 4.6913 7.45905 4.86612 7.63386C5.04093 7.80868 5.26366 7.92773 5.50614 7.97596C5.74861 8.02419 5.99995 7.99944 6.22836 7.90483C6.45676 7.81022 6.65199 7.65 6.78934 7.44444C6.92669 7.23888 7 6.99721 7 6.74998C7.00133 6.58546 6.96991 6.42231 6.90756 6.27005C6.84522 6.11779 6.75319 5.97947 6.63685 5.86313C6.52051 5.74679 6.38219 5.65476 6.22993 5.59242C6.07767 5.53007 5.91452 5.49865 5.75 5.49998ZM9.55554 5.71064C9.7611 5.57329 10.0028 5.49998 10.25 5.49998C10.4145 5.49865 10.5777 5.53007 10.7299 5.59242C10.8822 5.65476 11.0205 5.74679 11.1369 5.86313C11.2532 5.97947 11.3452 6.11779 11.4076 6.27005C11.4699 6.42231 11.5013 6.58546 11.5 6.74998C11.5 6.99721 11.4267 7.23888 11.2893 7.44444C11.152 7.65 10.9568 7.81022 10.7284 7.90483C10.4999 7.99944 10.2486 8.02419 10.0061 7.97596C9.76366 7.92773 9.54093 7.80868 9.36612 7.63386C9.1913 7.45905 9.07225 7.23632 9.02402 6.99384C8.97579 6.75137 9.00054 6.50003 9.09515 6.27163C9.18976 6.04322 9.34998 5.84799 9.55554 5.71064Z" fill="black"/>
</svg>
