<svg width="16" height="16" viewBox="0 0 16 16" fill="none" xmlns="http://www.w3.org/2000/svg">
<path fill-rule="evenodd" clip-rule="evenodd" d="M15 2H13V0H12V2H10V3H12V5H13V3H15V2ZM8.00001 11C7.48204 10.9992 6.9731 10.8643 6.52273 10.6084C6.07236 10.3526 5.6959 9.9845 5.43001 9.53998L4.57501 10.04C4.93098 10.63 5.43334 11.1181 6.03341 11.4569C6.63348 11.7957 7.3109 11.9737 8.00001 11.9737C8.68912 11.9737 9.36654 11.7957 9.96661 11.4569C10.5667 11.1181 11.069 10.63 11.425 10.04L10.57 9.53998C10.3041 9.9845 9.92767 10.3526 9.4773 10.6084C9.02693 10.8643 8.51798 10.9992 8.00001 11ZM5.05555 5.71064C5.26111 5.57329 5.50279 5.49998 5.75002 5.49998C5.91454 5.49865 6.07768 5.53007 6.22994 5.59242C6.3822 5.65476 6.52053 5.74679 6.63687 5.86313C6.75321 5.97947 6.84523 6.11779 6.90758 6.27005C6.96993 6.42231 7.00135 6.58546 7.00002 6.74998C7.00002 6.99721 6.92671 7.23888 6.78935 7.44444C6.652 7.65 6.45678 7.81022 6.22837 7.90483C5.99996 7.99944 5.74863 8.02419 5.50615 7.97596C5.26368 7.92773 5.04095 7.80868 4.86613 7.63386C4.69132 7.45905 4.57227 7.23632 4.52403 6.99384C4.4758 6.75137 4.50056 6.50003 4.59517 6.27163C4.68978 6.04322 4.84999 5.84799 5.05555 5.71064ZM10.25 5.49998C10.0028 5.49998 9.76111 5.57329 9.55555 5.71064C9.34999 5.84799 9.18978 6.04322 9.09517 6.27163C9.00056 6.50003 8.9758 6.75137 9.02403 6.99384C9.07227 7.23632 9.19132 7.45905 9.36613 7.63386C9.54095 7.80868 9.76368 7.92773 10.0062 7.97596C10.2486 8.02419 10.5 7.99944 10.7284 7.90483C10.9568 7.81022 11.152 7.65 11.2894 7.44444C11.4267 7.23888 11.5 6.99721 11.5 6.74998C11.5013 6.58546 11.4699 6.42231 11.4076 6.27005C11.3452 6.11779 11.2532 5.97947 11.1369 5.86313C11.0205 5.74679 10.8822 5.65476 10.7299 5.59242C10.5777 5.53007 10.4145 5.49865 10.25 5.49998ZM14 8C13.9968 7.49389 13.9313 6.9901 13.805 6.5H14.835C15.1455 7.91535 15.0091 9.39218 14.4447 10.7267C13.8803 12.0613 12.9156 13.1878 11.6837 13.9508C10.4519 14.7139 9.01364 15.0758 7.56737 14.9868C6.1211 14.8977 4.73811 14.362 3.6092 13.4536C2.4803 12.5452 1.66112 11.3088 1.26469 9.91511C0.868259 8.52138 0.914113 7.03898 1.39593 5.67242C1.87774 4.30586 2.77177 3.12249 3.95466 2.28559C5.13755 1.44869 6.55101 0.999504 8.00002 1V2C6.81333 2 5.65329 2.35189 4.6666 3.01118C3.6799 3.67047 2.91087 4.60754 2.45674 5.7039C2.00261 6.80026 1.88379 8.00666 2.11531 9.17054C2.34682 10.3344 2.91826 11.4035 3.75738 12.2426C4.59649 13.0818 5.66559 13.6532 6.82948 13.8847C7.99336 14.1162 9.19976 13.9974 10.2961 13.5433C11.3925 13.0892 12.3295 12.3201 12.9888 11.3334C13.6481 10.3467 14 9.18669 14 8Z" fill="black"/>
</svg>
