<svg width="16" height="16" viewBox="0 0 16 16" fill="none" xmlns="http://www.w3.org/2000/svg">
<path fill-rule="evenodd" clip-rule="evenodd" d="M4.11101 2.17971C5.26216 1.41054 6.61553 1 8 1C9.85652 1 11.637 1.7375 12.9497 3.05025C14.2625 4.36301 15 6.14348 15 8C15 9.38447 14.5895 10.7378 13.8203 11.889C13.0511 13.0401 11.9579 13.9373 10.6788 14.4672C9.3997 14.997 7.99224 15.1356 6.63437 14.8655C5.2765 14.5954 4.02922 13.9287 3.05026 12.9497C2.07129 11.9708 1.4046 10.7235 1.13451 9.36563C0.86441 8.00776 1.00303 6.6003 1.53285 5.32122C2.06266 4.04213 2.95987 2.94888 4.11101 2.17971ZM4.66658 12.9888C5.65328 13.6481 6.81332 14 8 14C9.5913 14 11.1174 13.3679 12.2426 12.2426C13.3679 11.1174 14 9.5913 14 8C14 6.81331 13.6481 5.65327 12.9888 4.66658C12.3295 3.67988 11.3925 2.91085 10.2961 2.45672C9.19975 2.0026 7.99335 1.88378 6.82946 2.11529C5.66558 2.3468 4.59648 2.91824 3.75736 3.75736C2.91825 4.59647 2.3468 5.66557 2.11529 6.82946C1.88378 7.99334 2.0026 9.19974 2.45673 10.2961C2.91085 11.3925 3.67989 12.3295 4.66658 12.9888ZM5.05554 5.71066C5.2611 5.57331 5.50277 5.5 5.75 5.5C6.08152 5.5 6.39946 5.6317 6.63388 5.86612C6.8683 6.10054 7 6.41848 7 6.75C7 6.99723 6.92669 7.2389 6.78934 7.44446C6.65199 7.65002 6.45676 7.81024 6.22835 7.90485C5.99995 7.99946 5.74861 8.02421 5.50614 7.97598C5.26366 7.92775 5.04093 7.8087 4.86612 7.63388C4.6913 7.45907 4.57225 7.23634 4.52402 6.99386C4.47579 6.75139 4.50054 6.50005 4.59515 6.27165C4.68976 6.04324 4.84998 5.84801 5.05554 5.71066ZM10.25 5.5C10.0028 5.5 9.7611 5.57331 9.55554 5.71066C9.34998 5.84801 9.18976 6.04324 9.09515 6.27165C9.00054 6.50005 8.97579 6.75139 9.02402 6.99386C9.07225 7.23634 9.1913 7.45907 9.36612 7.63388C9.54093 7.8087 9.76366 7.92775 10.0061 7.97598C10.2486 8.02421 10.4999 7.99946 10.7284 7.90485C10.9568 7.81024 11.152 7.65002 11.2893 7.44446C11.4267 7.2389 11.5 6.99723 11.5 6.75C11.5 6.41848 11.3683 6.10054 11.1339 5.86612C10.8995 5.6317 10.5815 5.5 10.25 5.5ZM6.03151 10.0217C6.63167 9.6809 7.30981 9.50117 8 9.5C8.69018 9.50117 9.36832 9.6809 9.96849 10.0217C10.5687 10.3625 11.0704 10.8529 11.425 11.445L10.57 11.945C10.3032 11.5019 9.92631 11.1353 9.476 10.8808C9.02569 10.6263 8.51724 10.4926 8 10.4926C7.48276 10.4926 6.9743 10.6263 6.52399 10.8808C6.07369 11.1353 5.69683 11.5019 5.43 11.945L4.575 11.445C4.92958 10.8529 5.43134 10.3625 6.03151 10.0217Z" fill="black"/>
</svg>
