<svg width="16" height="16" viewBox="0 0 16 16" fill="none" xmlns="http://www.w3.org/2000/svg">
<path fill-rule="evenodd" clip-rule="evenodd" d="M15 2H13V0H12V2H10V3H12V5H13V3H15V2ZM5.75 5.49998C5.50278 5.49998 5.2611 5.57329 5.05554 5.71064C4.84998 5.84799 4.68976 6.04322 4.59516 6.27163C4.50055 6.50003 4.47579 6.75137 4.52402 6.99384C4.57225 7.23632 4.69131 7.45905 4.86612 7.63386C5.04094 7.80868 5.26367 7.92773 5.50614 7.97596C5.74862 8.02419 5.99995 7.99944 6.22836 7.90483C6.45677 7.81022 6.65199 7.65 6.78934 7.44444C6.92669 7.23888 7 6.99721 7 6.74998C7.00134 6.58546 6.96991 6.42231 6.90757 6.27005C6.84522 6.11779 6.7532 5.97947 6.63686 5.86313C6.52052 5.74679 6.38219 5.65476 6.22993 5.59242C6.07767 5.53007 5.91453 5.49865 5.75 5.49998ZM9.55554 5.71064C9.7611 5.57329 10.0028 5.49998 10.25 5.49998C10.4145 5.49865 10.5777 5.53007 10.7299 5.59242C10.8822 5.65476 11.0205 5.74679 11.1369 5.86313C11.2532 5.97947 11.3452 6.11779 11.4076 6.27005C11.4699 6.42231 11.5013 6.58546 11.5 6.74998C11.5 6.99721 11.4267 7.23888 11.2893 7.44444C11.152 7.65 10.9568 7.81022 10.7284 7.90483C10.5 7.99944 10.2486 8.02419 10.0061 7.97596C9.76366 7.92773 9.54094 7.80868 9.36612 7.63386C9.1913 7.45905 9.07225 7.23632 9.02402 6.99384C8.97579 6.75137 9.00054 6.50003 9.09515 6.27163C9.18976 6.04322 9.34998 5.84799 9.55554 5.71064ZM4.5 10C4.85943 10.6085 5.37127 11.1127 5.98504 11.463C6.59881 11.8133 7.2933 11.9976 8 11.9976C8.70671 11.9976 9.4012 11.8133 10.015 11.463C10.6287 11.1127 11.1406 10.6085 11.5 10H4.5ZM13.4156 10.5701C13.9424 9.45882 14.115 8.21256 13.91 7H14.92C14.9694 7.33112 14.9961 7.66523 15 8C15 9.38447 14.5895 10.7378 13.8203 11.889C13.0511 13.0401 11.9579 13.9373 10.6788 14.4672C9.3997 14.997 7.99224 15.1356 6.63437 14.8655C5.2765 14.5954 4.02922 13.9287 3.05026 12.9497C2.07129 11.9708 1.4046 10.7235 1.13451 9.36563C0.86441 8.00776 1.00303 6.6003 1.53285 5.32122C2.06266 4.04213 2.95987 2.94888 4.11101 2.17971C5.26216 1.41054 6.61553 1 8 1V2C6.77024 1.99875 5.56979 2.37542 4.56118 3.07899C3.55257 3.78257 2.78451 4.77908 2.36098 5.93361C1.93745 7.08814 1.87891 8.34493 2.19329 9.53383C2.50767 10.7227 3.17977 11.7863 4.11862 12.5806C5.05746 13.3749 6.2177 13.8615 7.44225 13.9746C8.66681 14.0877 9.89653 13.8217 10.9649 13.2128C12.0334 12.6038 12.8889 11.6813 13.4156 10.5701Z" fill="black"/>
</svg>
