<svg width="16" height="16" viewBox="0 0 16 16" fill="none" xmlns="http://www.w3.org/2000/svg">
<path fill-rule="evenodd" clip-rule="evenodd" d="M4.11101 2.17971C5.26216 1.41054 6.61553 1 8 1C9.85652 1 11.637 1.7375 12.9497 3.05025C14.2625 4.36301 15 6.14348 15 8C15 9.38447 14.5895 10.7378 13.8203 11.889C13.0511 13.0401 11.9579 13.9373 10.6788 14.4672C9.3997 14.997 7.99224 15.1356 6.63437 14.8655C5.2765 14.5954 4.02922 13.9287 3.05026 12.9497C2.07129 11.9708 1.4046 10.7235 1.13451 9.36563C0.86441 8.00776 1.00303 6.6003 1.53285 5.32122C2.06266 4.04213 2.95987 2.94888 4.11101 2.17971ZM4.66658 12.9888C5.65328 13.6481 6.81332 14 8 14C9.5913 14 11.1174 13.3679 12.2426 12.2426C13.3679 11.1174 14 9.5913 14 8C14 6.81331 13.6481 5.65327 12.9888 4.66658C12.3295 3.67988 11.3925 2.91085 10.2961 2.45672C9.19975 2.0026 7.99335 1.88378 6.82946 2.11529C5.66558 2.3468 4.59648 2.91824 3.75736 3.75736C2.91825 4.59647 2.3468 5.66557 2.11529 6.82946C1.88378 7.99334 2.0026 9.19974 2.45673 10.2961C2.91085 11.3925 3.67989 12.3295 4.66658 12.9888ZM5.05554 5.71064C5.2611 5.57329 5.50277 5.49998 5.75 5.49998C5.91452 5.49865 6.07767 5.53007 6.22993 5.59242C6.38219 5.65476 6.52051 5.74679 6.63685 5.86313C6.75319 5.97947 6.84522 6.11779 6.90756 6.27005C6.96991 6.42231 7.00133 6.58546 7 6.74998C7 6.99721 6.92669 7.23888 6.78934 7.44444C6.65199 7.65 6.45676 7.81022 6.22836 7.90483C5.99995 7.99944 5.74861 8.02419 5.50614 7.97596C5.26366 7.92773 5.04093 7.80868 4.86612 7.63386C4.6913 7.45905 4.57225 7.23632 4.52402 6.99384C4.47579 6.75137 4.50054 6.50003 4.59515 6.27163C4.68976 6.04322 4.84998 5.84799 5.05554 5.71064ZM10.25 5.49998C10.0028 5.49998 9.7611 5.57329 9.55554 5.71064C9.34998 5.84799 9.18976 6.04322 9.09515 6.27163C9.00054 6.50003 8.97579 6.75137 9.02402 6.99384C9.07225 7.23632 9.1913 7.45905 9.36612 7.63386C9.54093 7.80868 9.76366 7.92773 10.0061 7.97596C10.2486 8.02419 10.4999 7.99944 10.7284 7.90483C10.9568 7.81022 11.152 7.65 11.2893 7.44444C11.4267 7.23888 11.5 6.99721 11.5 6.74998C11.5013 6.58546 11.4699 6.42231 11.4076 6.27005C11.3452 6.11779 11.2532 5.97947 11.1369 5.86313C11.0205 5.74679 10.8822 5.65476 10.7299 5.59242C10.5777 5.53007 10.4145 5.49865 10.25 5.49998ZM9.96849 11.4783C9.36832 11.8191 8.69018 11.9988 8 12C7.30981 11.9988 6.63167 11.8191 6.03151 11.4783C5.43134 11.1374 4.92958 10.6471 4.575 10.055L5.43 9.55499C5.69683 9.9981 6.07369 10.3647 6.52399 10.6192C6.9743 10.8736 7.48276 11.0074 8 11.0074C8.51724 11.0074 9.02569 10.8736 9.476 10.6192C9.92631 10.3647 10.3032 9.9981 10.57 9.55499L11.425 10.055C11.0704 10.6471 10.5687 11.1374 9.96849 11.4783Z" fill="black"/>
</svg>
