<svg width="16" height="16" viewBox="0 0 16 16" fill="none" xmlns="http://www.w3.org/2000/svg">
<path fill-rule="evenodd" clip-rule="evenodd" d="M4.11101 2.17971C5.26216 1.41054 6.61553 1 8 1C9.85652 1 11.637 1.7375 12.9497 3.05025C14.2625 4.36301 15 6.14348 15 8C15 9.38447 14.5895 10.7378 13.8203 11.889C13.0511 13.0401 11.9579 13.9373 10.6788 14.4672C9.3997 14.997 7.99224 15.1356 6.63437 14.8655C5.2765 14.5954 4.02922 13.9287 3.05026 12.9497C2.07129 11.9708 1.4046 10.7235 1.13451 9.36563C0.86441 8.00776 1.00303 6.6003 1.53285 5.32122C2.06266 4.04213 2.95987 2.94888 4.11101 2.17971ZM11.235 2.95277C10.2699 2.33244 9.14723 2.00179 8 2C6.85277 2.00179 5.73011 2.33244 4.76505 2.95277C3.8 3.5731 3.03301 4.4571 2.555 5.5H3.5C3.5 5.36739 3.55268 5.24021 3.64645 5.14645C3.74022 5.05268 3.86739 5 4 5H12C12.1326 5 12.2598 5.05268 12.3536 5.14645C12.4473 5.24021 12.5 5.36739 12.5 5.5H13.445C12.967 4.4571 12.2 3.5731 11.235 2.95277ZM3.75736 12.2426C4.88258 13.3679 6.4087 14 8 14C9.5913 14 11.1174 13.3679 12.2426 12.2426C13.3679 11.1174 14 9.5913 14 8C13.9977 7.49351 13.9305 6.98941 13.8 6.5H12.5V7.5C12.5 7.76522 12.3946 8.01957 12.2071 8.20711C12.0196 8.39464 11.7652 8.5 11.5 8.5H9.86C9.62104 8.50327 9.38881 8.42086 9.20537 8.26769C9.02193 8.11451 8.89941 7.90071 8.86 7.665L8.585 6H7.415L7.155 7.665C7.11559 7.90071 6.99307 8.11451 6.80963 8.26769C6.62619 8.42086 6.39396 8.50327 6.155 8.5H4.5C4.23479 8.5 3.98043 8.39464 3.7929 8.20711C3.60536 8.01957 3.5 7.76522 3.5 7.5V6.5H2.2C2.06955 6.98941 2.00234 7.49351 2 8C2 9.5913 2.63214 11.1174 3.75736 12.2426ZM9.96849 11.4783C9.36832 11.8191 8.69018 11.9988 8 12C7.30981 11.9988 6.63167 11.8191 6.03151 11.4783C5.43134 11.1374 4.92958 10.6471 4.575 10.055L5.43 9.55499C5.69683 9.9981 6.07369 10.3647 6.52399 10.6192C6.9743 10.8736 7.48276 11.0074 8 11.0074C8.51724 11.0074 9.02569 10.8736 9.476 10.6192C9.92631 10.3647 10.3032 9.9981 10.57 9.55499L11.425 10.055C11.0704 10.6471 10.5687 11.1374 9.96849 11.4783Z" fill="black"/>
</svg>
