<svg width="16" height="16" viewBox="0 0 16 16" fill="none" xmlns="http://www.w3.org/2000/svg">
<path fill-rule="evenodd" clip-rule="evenodd" d="M4.11101 2.17971C5.26216 1.41054 6.61553 1 8 1C9.85652 1 11.637 1.7375 12.9497 3.05025C14.2625 4.36301 15 6.14348 15 8C15 9.38447 14.5895 10.7378 13.8203 11.889C13.0511 13.0401 11.9579 13.9373 10.6788 14.4672C9.3997 14.997 7.99224 15.1356 6.63437 14.8655C5.2765 14.5954 4.02922 13.9287 3.05026 12.9497C2.07129 11.9708 1.4046 10.7235 1.13451 9.36563C0.86441 8.00776 1.00303 6.6003 1.53285 5.32122C2.06266 4.04213 2.95987 2.94888 4.11101 2.17971ZM4.66658 12.9888C5.65328 13.6481 6.81332 14 8 14C9.5913 14 11.1174 13.3679 12.2426 12.2426C13.3679 11.1174 14 9.5913 14 8C14 6.81331 13.6481 5.65327 12.9888 4.66658C12.3295 3.67988 11.3925 2.91085 10.2961 2.45672C9.19975 2.0026 7.99335 1.88378 6.82946 2.11529C5.66558 2.3468 4.59648 2.91824 3.75736 3.75736C2.91825 4.59647 2.3468 5.66557 2.11529 6.82946C1.88378 7.99334 2.0026 9.19974 2.45673 10.2961C2.91085 11.3925 3.67989 12.3295 4.66658 12.9888ZM9.55554 5.71066C9.7611 5.57331 10.0028 5.5 10.25 5.5C10.5815 5.5 10.8995 5.6317 11.1339 5.86612C11.3683 6.10054 11.5 6.41848 11.5 6.75C11.5 6.99723 11.4267 7.2389 11.2893 7.44446C11.152 7.65002 10.9568 7.81024 10.7284 7.90485C10.4999 7.99946 10.2486 8.02421 10.0061 7.97598C9.76366 7.92775 9.54093 7.8087 9.36612 7.63388C9.1913 7.45907 9.07225 7.23634 9.02402 6.99386C8.97579 6.75139 9.00054 6.50005 9.09515 6.27165C9.18976 6.04324 9.34998 5.84801 9.55554 5.71066ZM7 6.5H4V7.5H7V6.5ZM9.9685 11.4783C9.36834 11.8191 8.6902 11.9988 8.00001 12C7.30983 11.9988 6.63169 11.8191 6.03152 11.4783C5.43136 11.1374 4.92959 10.6471 4.57501 10.055L5.43001 9.55499C5.69684 9.9981 6.0737 10.3647 6.52401 10.6192C6.97432 10.8736 7.48277 11.0074 8.00001 11.0074C8.51725 11.0074 9.02571 10.8736 9.47602 10.6192C9.92632 10.3647 10.3032 9.9981 10.57 9.55499L11.425 10.055C11.0704 10.6471 10.5687 11.1374 9.9685 11.4783Z" fill="black"/>
</svg>
