<svg width="16" height="16" viewBox="0 0 16 16" fill="none" xmlns="http://www.w3.org/2000/svg">
<path fill-rule="evenodd" clip-rule="evenodd" d="M8 2V1C9.85652 1 11.637 1.7375 12.9497 3.05025C14.2625 4.36301 15 6.14348 15 8C15 9.85652 14.2625 11.637 12.9497 12.9497C11.637 14.2625 9.85652 15 8 15V14C9.5913 14 11.1174 13.3679 12.2426 12.2426C13.3679 11.1174 14 9.5913 14 8C14 6.4087 13.3679 4.88258 12.2426 3.75736C11.1174 2.63214 9.5913 2 8 2ZM5.565 1.44501L5.91 2.38001C5.25688 2.62338 4.65115 2.9787 4.12 3.43001L3.5 2.66501C4.11177 2.14082 4.81068 1.72791 5.565 1.44501ZM2.095 9L1.095 9.205C1.23761 10.0128 1.52018 10.7894 1.93 11.5L2.795 11C2.44899 10.3783 2.21222 9.7018 2.095 9ZM4.12 12.57L3.5 13.335C4.11929 13.8617 4.82686 14.2747 5.59 14.555L5.935 13.62C5.27306 13.3793 4.65868 13.0238 4.12 12.57ZM2.795 5L1.93 4.5C1.52797 5.21272 1.25065 5.98889 1.11 6.795L2.11 6.965C2.22263 6.27523 2.45442 5.61031 2.795 5Z" fill="black"/>
</svg>
