<svg width="16" height="16" viewBox="0 0 16 16" fill="none" xmlns="http://www.w3.org/2000/svg">
<path d="M2.10501 8.53074L8.00001 14.5L13.895 8.53074C14.6032 7.80816 14.9999 6.83671 14.9999 5.82494C14.9999 4.81317 14.6032 3.84173 13.895 3.11914C13.5463 2.76472 13.1306 2.48323 12.672 2.29109C12.2134 2.09895 11.7212 2 11.224 2C10.7268 2 10.2346 2.09895 9.77598 2.29109C9.3174 2.48323 8.90166 2.76472 8.55296 3.11914L8.00001 3.68214L7.44691 3.11914C7.09821 2.76472 6.68246 2.48323 6.22389 2.29109C5.76531 2.09895 5.27308 2 4.77588 2C4.27868 2 3.78645 2.09895 3.32788 2.29109C2.86931 2.48323 2.45356 2.76472 2.10486 3.11914C1.39668 3.84175 1.00003 4.8132 1.00006 5.82497C1.00009 6.83674 1.39679 7.80817 2.10501 8.53074ZM13.1776 7.82249L8.00001 13.0627V5.11499C8.42361 4.68579 8.84716 4.25676 9.27066 3.82789C9.52554 3.56844 9.82956 3.36235 10.165 3.22168C10.5004 3.081 10.8604 3.00855 11.2241 3.00855C11.5878 3.00855 11.9479 3.081 12.2833 3.22168C12.6187 3.36235 12.9227 3.56844 13.1776 3.82789C13.7002 4.36134 13.993 5.07839 13.993 5.82519C13.993 6.57199 13.7002 7.28904 13.1776 7.82249Z" fill="black"/>
</svg>
