<svg width="16" height="16" viewBox="0 0 16 16" fill="none" xmlns="http://www.w3.org/2000/svg">
<path fill-rule="evenodd" clip-rule="evenodd" d="M11.5 11H11.75C12.5553 11.0003 13.3319 10.7015 13.9294 10.1617C14.5268 9.62177 14.9025 8.87924 14.9835 8.07809C15.0645 7.27693 14.8451 6.47424 14.3678 5.82569C13.8905 5.17715 13.1893 4.72897 12.4003 4.56809C12.1873 3.55895 11.6338 2.6537 10.8327 2.00408C10.0316 1.35446 9.03156 0.999939 8.00017 0.999939C6.96878 0.999939 5.96874 1.35446 5.16764 2.00408C4.36654 2.6537 3.81308 3.55895 3.60003 4.56809C2.81095 4.72886 2.1097 5.17698 1.63232 5.82551C1.15494 6.47405 0.93544 7.27677 1.01641 8.07798C1.09738 8.87919 1.47304 9.62177 2.07053 10.1617C2.66801 10.7016 3.44473 11.0003 4.25003 11H4.50003V9.99999H4.25003C3.66892 10.0002 3.1103 9.77539 2.69128 9.37278C2.27225 8.97016 2.02535 8.42096 2.00233 7.84031C1.97932 7.25966 2.18197 6.69264 2.56781 6.25812C2.95366 5.82359 3.49273 5.55531 4.07203 5.50949L4.47978 5.47754L4.52933 5.07154C4.63315 4.22408 5.04343 3.44388 5.6828 2.87806C6.32218 2.31223 7.14648 1.99986 8.00028 1.99986C8.85407 1.99986 9.67837 2.31223 10.3177 2.87806C10.9571 3.44388 11.3674 4.22408 11.4712 5.07154L11.5205 5.47754L11.9282 5.50949C12.5075 5.55531 13.0466 5.82361 13.4325 6.25815C13.8183 6.6927 14.021 7.25974 13.9979 7.84041C13.9749 8.42108 13.7279 8.97028 13.3089 9.37288C12.8898 9.77548 12.3312 10.0002 11.75 9.99999H11.5V11ZM5.50002 9L8.00002 6.5L10.5 9L9.79502 9.705L8.50002 8.415V14C8.50002 14.2652 8.39467 14.5196 8.20713 14.7071C8.01959 14.8946 7.76524 15 7.50002 15H3.00002V14H7.50002V8.415L6.20502 9.705L5.50002 9Z" fill="black"/>
</svg>
