<svg width="16" height="16" viewBox="0 0 16 16" fill="none" xmlns="http://www.w3.org/2000/svg">
<path fill-rule="evenodd" clip-rule="evenodd" d="M2 3H13V2H2C1.73478 2 1.48043 2.10536 1.29289 2.29289C1.10536 2.48043 1 2.73478 1 3V4.5855C0.999995 4.71683 1.02586 4.84687 1.07612 4.96821C1.12637 5.08954 1.20004 5.19979 1.2929 5.29265L5 9V13C5 13.2652 5.10536 13.5196 5.29289 13.7071C5.48043 13.8946 5.73478 14 6 14H8C8.26522 14 8.51957 13.8946 8.70711 13.7071C8.89464 13.5196 9 13.2652 9 13V12H8V13H6V8.5855L5.7071 8.29265L2 4.5855V3ZM9.3681 5.00764C9.93925 4.67445 10.5888 4.49924 11.25 4.5C12.2446 4.5 13.1984 4.89509 13.9017 5.59835C14.6049 6.30161 15 7.25544 15 8.25C15 9.24456 14.6049 10.1984 13.9017 10.9017C13.1984 11.6049 12.2446 12 11.25 12H11V11H11.25C11.7382 11.0005 12.2176 10.871 12.6391 10.6247C13.0606 10.3784 13.4088 10.0242 13.6479 9.59862C13.887 9.17304 14.0084 8.69143 13.9996 8.20335C13.9908 7.71527 13.8521 7.23836 13.5978 6.8217C13.3434 6.40503 12.9826 6.06366 12.5526 5.83273C12.1225 5.6018 11.6386 5.48964 11.1508 5.5078C10.663 5.52596 10.1888 5.67379 9.77711 5.93606C9.36539 6.19833 9.031 6.56558 8.80835 7H11V8H7V4H8V6.396C8.32477 5.82002 8.79696 5.34084 9.3681 5.00764Z" fill="black"/>
</svg>
