<svg width="16" height="16" viewBox="0 0 16 16" fill="none" xmlns="http://www.w3.org/2000/svg">
<path fill-rule="evenodd" clip-rule="evenodd" d="M13.8536 5.35352C13.7598 5.44729 13.6326 5.49997 13.5 5.49997H13V12H14V13H2V12H3V5.49997H2.5C2.36739 5.49997 2.24021 5.44729 2.14645 5.35352C2.05268 5.25976 2 5.13258 2 4.99997V3.49997C2.00004 3.39721 2.03175 3.29697 2.09079 3.21287C2.14984 3.12877 2.23336 3.06491 2.33 3.02997L7.83 1.02997C7.93985 0.990254 8.06015 0.990254 8.17 1.02997L13.67 3.02997C13.7666 3.06491 13.8502 3.12877 13.9092 3.21287C13.9683 3.29697 14 3.39721 14 3.49997V4.99997C14 5.13258 13.9473 5.25976 13.8536 5.35352ZM8 2.02997L3 3.84997V4.49997H13V3.84997L8 2.02997ZM7 5.49997V12H9V5.49997H7ZM6 5.49997H4V12H6V5.49997ZM10 12H12V5.49997H10V12ZM1 15V14H15V15H1Z" fill="black"/>
</svg>
