<svg width="16" height="16" viewBox="0 0 16 16" fill="none" xmlns="http://www.w3.org/2000/svg">
<path fill-rule="evenodd" clip-rule="evenodd" d="M3.49999 2.60499C3.42003 2.60397 3.34237 2.57808 3.2778 2.53091C3.21323 2.48374 3.16494 2.41763 3.13966 2.34177C3.11437 2.2659 3.11333 2.18405 3.13669 2.10757C3.16004 2.03109 3.20664 1.96378 3.26999 1.91499C4.6496 0.93896 6.31104 0.441931 7.99999 0.499987C9.32999 0.499987 11.24 0.724987 12.75 1.80999C12.8326 1.86923 12.8884 1.95872 12.9052 2.05894C12.9221 2.15916 12.8986 2.26199 12.84 2.34499C12.7791 2.42711 12.6884 2.48203 12.5874 2.49793C12.4864 2.51383 12.3832 2.48943 12.3 2.42999C11.0177 1.61509 9.51824 1.20883 7.99999 1.26499C6.48424 1.21349 4.99276 1.65567 3.74999 2.52499C3.67924 2.58131 3.5903 2.60977 3.49999 2.60499ZM14.115 6.12999C14.0532 6.12942 13.9924 6.11417 13.9376 6.08548C13.8828 6.05679 13.8357 6.01549 13.8 5.96499C12.935 4.74499 11.39 3.11999 7.99999 3.11999C6.87286 3.0916 5.75554 3.33591 4.74311 3.83212C3.73067 4.32832 2.85308 5.06174 2.18499 5.96999C2.125 6.05178 2.03515 6.10658 1.93497 6.1225C1.8348 6.13841 1.73238 6.11415 1.64999 6.05499C1.60677 6.02491 1.57027 5.98617 1.54282 5.94124C1.51536 5.89631 1.49754 5.84616 1.49048 5.79398C1.48343 5.74179 1.4873 5.68871 1.50185 5.6381C1.5164 5.58749 1.54131 5.54046 1.57499 5.49999C2.31567 4.49941 3.28592 3.69144 4.40404 3.14413C5.52217 2.59681 6.75543 2.32617 7.99999 2.35499C10.805 2.35499 12.905 3.39499 14.42 5.52499C14.4781 5.6086 14.5008 5.71184 14.483 5.81211C14.4652 5.91238 14.4084 6.00151 14.325 6.05999C14.2631 6.10286 14.1902 6.12715 14.115 6.12999ZM5.92262 15.4324C5.98674 15.4761 6.06243 15.4996 6.13999 15.5C6.17488 15.504 6.21011 15.504 6.24499 15.5C8.74499 14.545 10.245 12.555 10.245 10.185C10.263 9.88262 10.217 9.57984 10.11 9.29642C10.0031 9.013 9.83755 8.75532 9.6243 8.54018C9.41104 8.32504 9.15483 8.15727 8.87236 8.04783C8.5899 7.93838 8.28753 7.88972 7.98499 7.90501C6.64999 7.90501 5.88499 8.69501 5.70499 10.25C5.68871 10.4302 5.63689 10.6054 5.55252 10.7655C5.46815 10.9256 5.35291 11.0674 5.21344 11.1827C5.07398 11.2979 4.91305 11.3845 4.73997 11.4372C4.56688 11.49 4.38505 11.5079 4.20499 11.49C4.0094 11.4925 3.8155 11.4535 3.63606 11.3757C3.45662 11.2978 3.29571 11.1828 3.16392 11.0383C3.03213 10.8937 2.93245 10.7229 2.87145 10.5371C2.81044 10.3512 2.7895 10.1545 2.80999 9.96001C2.8217 9.2907 2.96532 8.63026 3.23262 8.01653C3.49993 7.40279 3.88567 6.84781 4.36776 6.38337C4.84986 5.91892 5.41883 5.55414 6.0421 5.3099C6.66538 5.06566 7.33071 4.94676 7.99999 4.96001C9.38316 4.95735 10.711 5.50324 11.6923 6.478C12.6736 7.45276 13.2284 8.77686 13.235 10.16C13.1989 11.1747 12.9839 12.1751 12.6 13.115C12.5803 13.1613 12.57 13.211 12.5697 13.2612C12.5694 13.3115 12.5791 13.3613 12.5981 13.4078C12.6172 13.4543 12.6453 13.4966 12.6808 13.5321C12.7163 13.5677 12.7585 13.5959 12.805 13.615C12.8987 13.652 13.0031 13.6514 13.0963 13.6131C13.1895 13.5749 13.2643 13.5021 13.305 13.41C13.7293 12.377 13.9647 11.2762 14 10.16C13.9907 8.57479 13.3545 7.05764 12.2303 5.93998C11.1061 4.82232 9.58525 4.19499 7.99999 4.19501C6.45395 4.1776 4.96379 4.77242 3.85469 5.84967C2.7456 6.92691 2.10762 8.39912 2.07999 9.94501C2.05774 10.2407 2.09731 10.5377 2.19619 10.8172C2.29506 11.0967 2.45107 11.3526 2.65427 11.5685C2.85747 11.7844 3.10341 11.9556 3.37642 12.0712C3.64944 12.1868 3.94354 12.2443 4.23999 12.24C4.79126 12.2752 5.3347 12.0953 5.75613 11.7382C6.17757 11.3811 6.44419 10.8746 6.49999 10.325C6.61999 9.15001 7.06999 8.65001 7.99999 8.65001C8.2008 8.63507 8.40247 8.66363 8.59123 8.73373C8.78 8.80383 8.95142 8.91382 9.0938 9.05621C9.23619 9.19859 9.34618 9.37001 9.41628 9.55878C9.48638 9.74754 9.51493 9.94921 9.49999 10.15C9.49999 12.195 8.18499 13.915 5.99999 14.755C5.95176 14.7721 5.90753 14.7989 5.87003 14.8337C5.83253 14.8685 5.80255 14.9106 5.78194 14.9575C5.76134 15.0043 5.75053 15.0549 5.7502 15.106C5.74986 15.1572 5.76 15.2079 5.77999 15.255C5.80883 15.327 5.85849 15.3888 5.92262 15.4324ZM9.88499 15.14C9.78923 15.1385 9.69711 15.103 9.62499 15.04C9.58932 15.0047 9.561 14.9626 9.54167 14.9163C9.52234 14.8699 9.51239 14.8202 9.51239 14.77C9.51239 14.7198 9.52234 14.6701 9.54167 14.6237C9.561 14.5774 9.58932 14.5353 9.62499 14.5C10.7499 13.334 11.3836 11.7802 11.395 10.16C11.395 9.38 11.155 6.835 8.04499 6.835C7.59183 6.81906 7.14003 6.89353 6.71595 7.05406C6.29187 7.21459 5.90401 7.45797 5.57499 7.77C5.28061 8.06126 5.04789 8.40881 4.89069 8.79193C4.73348 9.17506 4.65503 9.58591 4.65999 10C4.65868 10.1012 4.61754 10.1979 4.54548 10.269C4.47342 10.3401 4.37624 10.38 4.27499 10.38C4.22467 10.3807 4.17472 10.3713 4.12804 10.3525C4.08136 10.3337 4.03887 10.3058 4.00306 10.2705C3.96724 10.2351 3.9388 10.193 3.91939 10.1466C3.89998 10.1002 3.88999 10.0503 3.88999 10C3.8822 9.48776 3.97632 8.97909 4.16688 8.50355C4.35744 8.02802 4.64063 7.59511 4.99999 7.23C5.39835 6.84766 5.86866 6.54824 6.38365 6.34911C6.89864 6.14998 7.44805 6.05511 7.99999 6.07C11.04 6.07 12.12 8.27 12.12 10.16C12.1135 11.9635 11.4155 13.6957 10.17 15C10.1356 15.0428 10.0923 15.0775 10.043 15.1017C9.9938 15.1258 9.93985 15.1389 9.88499 15.14ZM3.54999 13.825C3.80897 13.8544 4.06936 13.8694 4.32999 13.87C5.30993 13.9141 6.27321 13.6054 7.04499 13C7.44728 12.647 7.77353 12.2159 8.0039 11.7328C8.23426 11.2497 8.36393 10.7248 8.38499 10.19C8.38917 10.089 8.35398 9.99033 8.28682 9.91477C8.21966 9.83922 8.12579 9.79269 8.02499 9.785C7.97453 9.78021 7.92362 9.7857 7.87534 9.80114C7.82705 9.81658 7.7824 9.84165 7.74408 9.87483C7.70576 9.90801 7.67456 9.94862 7.65237 9.99419C7.63019 10.0398 7.61747 10.0894 7.61499 10.14C7.60027 10.5695 7.49876 10.9916 7.31659 11.3809C7.13442 11.7701 6.87536 12.1185 6.55499 12.405C5.85999 12.985 4.87999 13.205 3.63499 13.065C3.58509 13.0594 3.53458 13.0637 3.48634 13.0777C3.4381 13.0916 3.39308 13.1149 3.35385 13.1463C3.31461 13.1776 3.28194 13.2164 3.25768 13.2603C3.23343 13.3043 3.21808 13.3526 3.21249 13.4025C3.20691 13.4524 3.21122 13.5029 3.22516 13.5512C3.2391 13.5994 3.2624 13.6444 3.29374 13.6837C3.32508 13.7229 3.36384 13.7556 3.40781 13.7798C3.45178 13.8041 3.50009 13.8194 3.54999 13.825Z" fill="black"/>
</svg>
