<svg width="16" height="16" viewBox="0 0 16 16" fill="none" xmlns="http://www.w3.org/2000/svg">
<path fill-rule="evenodd" clip-rule="evenodd" d="M2 5H12.5C12.7651 4.99972 13.0193 4.89428 13.2068 4.7068C13.3943 4.51932 13.4997 4.26513 13.5 4V2C13.4997 1.73487 13.3943 1.48068 13.2068 1.2932C13.0193 1.10572 12.7651 1.00028 12.5 1H2C1.73487 1.00028 1.48068 1.10572 1.2932 1.2932C1.10572 1.48068 1.00028 1.73487 1 2V4C1.00028 4.26513 1.10572 4.51932 1.2932 4.7068C1.48068 4.89428 1.73487 4.99972 2 5ZM2 4V2H12.5V4H2ZM14 6H3.5C3.23488 6.0003 2.9807 6.10576 2.79323 6.29323C2.60576 6.4807 2.5003 6.73488 2.5 7V9C2.5003 9.26512 2.60576 9.5193 2.79323 9.70677C2.9807 9.89424 3.23488 9.9997 3.5 10H8.5V9H3.5V7H14L14.0006 8H15V7C14.9997 6.73488 14.8942 6.4807 14.7068 6.29323C14.5193 6.10576 14.2651 6.0003 14 6ZM13.5 11.6986V10.1986C14.4375 10.9129 15 11.6986 15 12.6986C15 13.1893 14.8556 13.6692 14.5848 14.0784C14.314 14.4877 13.9288 14.8082 13.4771 15C13.3243 14.3207 12.986 13.6971 12.5 13.1986C12.014 13.6971 11.6757 14.3207 11.5229 15C11.0712 14.8082 10.686 14.4877 10.4152 14.0784C10.1444 13.6692 10 13.1893 10 12.6986C10 11.6986 10.5 10.6986 12.5 8.19861V9.69861C12.5 10.9486 13 11.6986 13.5 11.6986ZM2 14H8.5V15H2C1.73488 14.9997 1.4807 14.8942 1.29323 14.7068C1.10576 14.5193 1.0003 14.2651 1 14V12C1.0003 11.7349 1.10576 11.4807 1.29323 11.2932C1.4807 11.1058 1.73488 11.0003 2 11H8.5V12H2V14Z" fill="black"/>
</svg>
