<svg width="16" height="16" viewBox="0 0 16 16" fill="none" xmlns="http://www.w3.org/2000/svg">
<path fill-rule="evenodd" clip-rule="evenodd" d="M5.0857 11.6213L4.70705 12L6.8535 14.1465C6.9234 14.2164 6.97101 14.3055 6.99029 14.4025C7.00957 14.4995 6.99967 14.6 6.96184 14.6913C6.924 14.7827 6.85993 14.8608 6.77773 14.9157C6.69552 14.9706 6.59887 15 6.5 15H1.5C1.4011 15 1.30443 14.9707 1.2222 14.9157C1.13998 14.8608 1.07589 14.7827 1.03805 14.6913C1.00021 14.5999 0.990319 14.4994 1.00962 14.4024C1.02893 14.3054 1.07656 14.2163 1.1465 14.1464L3.29295 12L2.9143 11.6212C2.30739 11.0144 1.82597 10.2939 1.49751 9.50097C1.16905 8.70803 1 7.85817 1 6.9999C1 6.14163 1.16905 5.29176 1.49751 4.49883C1.82597 3.70589 2.30739 2.98542 2.9143 2.37855L4 1.29285L5.0857 2.37865C5.6926 2.98552 6.17403 3.70599 6.50249 4.49893C6.83094 5.29186 7 6.14173 7 7C7 7.85827 6.83094 8.70813 6.50249 9.50107C6.17403 10.294 5.6926 11.0145 5.0857 11.6213ZM2.41857 4.88039C2.14027 5.5523 1.998 6.27273 2 7C1.99802 7.72723 2.14031 8.44763 2.41861 9.1195C2.69692 9.79137 3.10572 10.4014 3.62135 10.9142L4 11.2928L4.37865 10.9142C4.89268 10.4002 5.30044 9.78992 5.57863 9.1183C5.85682 8.44668 6.00001 7.72685 6.00001 6.9999C6.00001 6.27294 5.85682 5.55311 5.57863 4.88149C5.30044 4.20988 4.89268 3.59963 4.37865 3.0856L4 2.7069L3.62135 3.0856C3.10569 3.59844 2.69688 4.20848 2.41857 4.88039ZM4 12.7069L2.70705 14H5.29295L4 12.7069ZM11 7C11.0024 6.14138 10.8344 5.29082 10.5058 4.49756C10.1772 3.7043 9.69452 2.9841 9.0857 2.37865L8.20715 1.5L7.5 2.2069L8.37865 3.0856C8.89268 3.59963 9.30043 4.20988 9.57863 4.8815C9.85682 5.55311 10 6.27295 10 6.9999C10 7.72685 9.85682 8.44669 9.57863 9.1183C9.30043 9.78992 8.89268 10.4002 8.37865 10.9142L7 12.2928L7.70715 13L9.0857 11.6214C9.69452 11.0159 10.1772 10.2957 10.5058 9.50244C10.8344 8.70918 11.0024 7.85862 11 7ZM14.5058 4.49756C14.8344 5.29082 15.0024 6.14138 15 7C15.0024 7.85862 14.8344 8.70918 14.5058 9.50244C14.1772 10.2957 13.6945 11.0159 13.0857 11.6214L11.7071 13L11 12.2928L12.3786 10.9142C12.8927 10.4002 13.3004 9.78992 13.5786 9.1183C13.8568 8.44669 14 7.72685 14 6.9999C14 6.27295 13.8568 5.55311 13.5786 4.8815C13.3004 4.20988 12.8927 3.59963 12.3786 3.0856L11.5 2.2069L12.2071 1.5L13.0857 2.37865C13.6945 2.9841 14.1772 3.7043 14.5058 4.49756ZM9 5.49988C9 5.77602 8.77614 5.99988 8.5 5.99988C8.22385 5.99988 8 5.77602 8 5.49988C8 5.22374 8.22385 4.99988 8.5 4.99988C8.77614 4.99988 9 5.22374 9 5.49988ZM13 5.49988C13 5.77602 12.7761 5.99988 12.5 5.99988C12.2239 5.99988 12 5.77602 12 5.49988C12 5.22374 12.2239 4.99988 12.5 4.99988C12.7761 4.99988 13 5.22374 13 5.49988ZM4.5 5.99988C4.77614 5.99988 5 5.77602 5 5.49988C5 5.22374 4.77614 4.99988 4.5 4.99988C4.22385 4.99988 4 5.22374 4 5.49988C4 5.77602 4.22385 5.99988 4.5 5.99988Z" fill="black"/>
</svg>
