<svg width="16" height="16" viewBox="0 0 16 16" fill="none" xmlns="http://www.w3.org/2000/svg">
<path fill-rule="evenodd" clip-rule="evenodd" d="M7.34584 3.34582C8.8456 1.84605 10.879 1.00242 13 1H15V3C14.9976 5.12099 14.154 7.15441 12.6542 8.65418C11.1544 10.1539 9.121 10.9976 7.00002 11H6.00002V14.5C5.99999 14.5989 5.97066 14.6955 5.91572 14.7777C5.86077 14.8599 5.78269 14.924 5.69134 14.9618C5.59999 14.9997 5.49948 15.0096 5.4025 14.9903C5.30552 14.971 5.21644 14.9234 5.14652 14.8535L1.14652 10.8535C1.07661 10.7836 1.02901 10.6945 1.00972 10.5975C0.99044 10.5005 1.00034 10.4 1.03818 10.3087C1.07601 10.2173 1.14008 10.1392 1.22229 10.0843C1.30449 10.0294 1.40114 10 1.50002 10H5.00002V9C5.00244 6.87901 5.84607 4.84559 7.34584 3.34582ZM2.70707 11L5.00002 13.2929V11H2.70707ZM6.00002 9V10H7.00002C8.80521 9.99985 10.5399 9.29933 11.839 8.0459L7.95402 4.16115C6.70064 5.4602 6.00015 7.19487 6.00002 9ZM12.51 7.30275C13.4752 6.0762 14 4.56077 14 3V2H13C11.4392 2.00004 9.92381 2.52482 8.69727 3.49L12.51 7.30275ZM12.5 3.49988C12.5 3.77602 12.2762 3.99988 12 3.99988C11.7239 3.99988 11.5 3.77602 11.5 3.49988C11.5 3.22374 11.7239 2.99988 12 2.99988C12.2762 2.99988 12.5 3.22374 12.5 3.49988Z" fill="black"/>
</svg>
