<svg width="16" height="16" viewBox="0 0 16 16" fill="none" xmlns="http://www.w3.org/2000/svg">
<path fill-rule="evenodd" clip-rule="evenodd" d="M2 15H14C14.2651 14.9997 14.5193 14.8943 14.7068 14.7068C14.8943 14.5193 14.9997 14.2651 15 14V2C14.9997 1.73487 14.8943 1.48068 14.7068 1.2932C14.5193 1.10572 14.2651 1.00028 14 1H2C1.73488 1.0003 1.4807 1.10576 1.29323 1.29323C1.10576 1.4807 1.0003 1.73488 1 2V14C1.0003 14.2651 1.10576 14.5193 1.29323 14.7068C1.4807 14.8942 1.73488 14.9997 2 15ZM2 14V2H14V14H2ZM10.295 6.205L11 5.5L13.5 8L11 10.5L10.295 9.795L11.585 8.5H4.415L5.705 9.795L5 10.5L2.5 8L5 5.5L5.705 6.205L4.415 7.5H11.585L10.295 6.205Z" fill="black"/>
</svg>
