<svg width="16" height="16" viewBox="0 0 16 16" fill="none" xmlns="http://www.w3.org/2000/svg">
<path fill-rule="evenodd" clip-rule="evenodd" d="M2.29323 13.7068C2.4807 13.8942 2.73488 13.9997 3 14H13C13.2651 13.9997 13.5193 13.8942 13.7068 13.7068C13.8942 13.5193 13.9997 13.2651 14 13V3C13.9997 2.73488 13.8942 2.4807 13.7068 2.29323C13.5193 2.10576 13.2651 2.0003 13 2H3C2.73488 2.0003 2.4807 2.10576 2.29323 2.29323C2.10576 2.4807 2.0003 2.73488 2 3V13C2.0003 13.2651 2.10576 13.5193 2.29323 13.7068ZM3 13V3H13L13.0006 13H3ZM11 8H12V4H8V5H11V8ZM4 12H8V11H5V8H4V12Z" fill="black"/>
</svg>
