<svg width="16" height="16" viewBox="0 0 16 16" fill="none" xmlns="http://www.w3.org/2000/svg">
<path fill-rule="evenodd" clip-rule="evenodd" d="M1.29323 14.7068C1.4807 14.8942 1.73488 14.9997 2 15H14C14.2651 14.9997 14.5193 14.8943 14.7068 14.7068C14.8943 14.5193 14.9997 14.2651 15 14V2C14.9997 1.73487 14.8943 1.48068 14.7068 1.2932C14.5193 1.10572 14.2651 1.00028 14 1H2C1.73488 1.0003 1.4807 1.10576 1.29323 1.29323C1.10576 1.4807 1.0003 1.73488 1 2V14C1.0003 14.2651 1.10576 14.5193 1.29323 14.7068ZM2 14V2H14V14H2ZM6.205 5.705L5.5 5L8 2.5L10.5 5L9.795 5.705L8.5 4.415V11.585L9.795 10.295L10.5 11L8 13.5L5.5 11L6.205 10.295L7.5 11.585V4.415L6.205 5.705Z" fill="black"/>
</svg>
