<svg width="16" height="16" viewBox="0 0 16 16" fill="none" xmlns="http://www.w3.org/2000/svg">
<path fill-rule="evenodd" clip-rule="evenodd" d="M5.83706 1.38886C5.6173 1.71776 5.5 2.10444 5.5 2.5C5.50056 3.03026 5.71145 3.53865 6.0864 3.9136C6.46135 4.28855 6.96974 4.49944 7.5 4.5C7.89556 4.5 8.28224 4.3827 8.61114 4.16294C8.94004 3.94318 9.19638 3.63082 9.34776 3.26537C9.49913 2.89992 9.53874 2.49778 9.46157 2.10982C9.3844 1.72186 9.19392 1.36549 8.91421 1.08579C8.63451 0.806082 8.27814 0.615601 7.89018 0.53843C7.50222 0.46126 7.10009 0.500867 6.73463 0.652242C6.36918 0.803617 6.05682 1.05996 5.83706 1.38886ZM6.66853 3.05557C6.55865 2.89112 6.5 2.69778 6.5 2.5C6.5003 2.23488 6.60576 1.9807 6.79323 1.79323C6.9807 1.60576 7.23488 1.50031 7.5 1.5C7.69778 1.5 7.89112 1.55865 8.05557 1.66853C8.22002 1.77841 8.34819 1.93459 8.42388 2.11732C8.49957 2.30004 8.51937 2.50111 8.48079 2.69509C8.4422 2.88907 8.34696 3.06726 8.20711 3.20711C8.06725 3.34696 7.88907 3.4422 7.69509 3.48079C7.50111 3.51937 7.30004 3.49957 7.11732 3.42388C6.93459 3.34819 6.77841 3.22002 6.66853 3.05557ZM10.1777 4.33205L12.3988 1L13.2308 1.5547L11.0097 4.8867C10.7818 5.22951 10.4726 5.51058 10.1097 5.70484C9.74673 5.8991 9.34135 6.0005 8.9297 6H6C5.86743 6.00012 5.74032 6.05284 5.64658 6.14658C5.55284 6.24032 5.50012 6.36743 5.5 6.5V9.5H6.5V14H8.5V8H9.5V14C9.4997 14.2651 9.39424 14.5193 9.20677 14.7068C9.0193 14.8942 8.76512 14.9997 8.5 15H6.5C6.23488 14.9997 5.9807 14.8942 5.79323 14.7068C5.60576 14.5193 5.5003 14.2651 5.5 14V10.5C5.23488 10.4997 4.9807 10.3942 4.79323 10.2068C4.60576 10.0193 4.5003 9.76512 4.5 9.5V6.5C4.50044 6.10231 4.65861 5.72103 4.93982 5.43982C5.22103 5.15861 5.60231 5.00044 6 5H8.9297C9.17669 5.00026 9.4199 4.9394 9.63766 4.82286C9.85542 4.70631 10.041 4.5377 10.1777 4.33205Z" fill="black"/>
</svg>
