<svg width="16" height="16" viewBox="0 0 16 16" fill="none" xmlns="http://www.w3.org/2000/svg">
<path fill-rule="evenodd" clip-rule="evenodd" d="M5.9 2L5.565 3.445L4.73 2.61L5 1.385C5.02639 1.27313 5.09052 1.17377 5.18159 1.10365C5.27266 1.03353 5.3851 0.996924 5.5 0.999996H10.5C10.5764 0.998224 10.6521 1.01398 10.7215 1.04605C10.7908 1.07812 10.8519 1.12565 10.9 1.185C10.9477 1.24366 10.9815 1.31239 10.9988 1.386C11.0162 1.45962 11.0166 1.5362 11 1.61L10.125 5.5H12.5C12.5981 5.50008 12.6941 5.52904 12.7759 5.58327C12.8577 5.63751 12.9217 5.71462 12.96 5.805C12.9958 5.88576 13.0096 5.97459 13 6.06242C12.9903 6.15025 12.9575 6.23395 12.905 6.305L10.97 8.84L10.255 8.125L11.5 6.5H8.9L9.9 2H5.9ZM10.345 9.64L15 14.295L14.295 15L9.735 10.44L6.395 14.805C6.34842 14.8655 6.2886 14.9145 6.22013 14.9483C6.15166 14.9821 6.07636 14.9998 6 15C5.93141 14.9994 5.86356 14.9858 5.8 14.96C5.69768 14.9168 5.61265 14.8408 5.55833 14.7439C5.504 14.647 5.48348 14.5348 5.5 14.425L6.415 8.5H4C3.92344 8.50206 3.84742 8.4865 3.77783 8.45453C3.70823 8.42256 3.64691 8.37502 3.59859 8.3156C3.55028 8.25617 3.51626 8.18643 3.49917 8.11178C3.48207 8.03712 3.48236 7.95953 3.5 7.885L4.2 4.91L1 1.705L1.705 1L4.465 3.76L5.3 4.595L9.635 8.925L10.345 9.64ZM5.035 5.74L4.63 7.5H6.795L5.035 5.74ZM7.5 8.185L6.79 12.64L9 9.725L7.5 8.185Z" fill="black"/>
</svg>
