<svg width="16" height="16" viewBox="0 0 16 16" fill="none" xmlns="http://www.w3.org/2000/svg">
<path d="M5.805 14.96C5.70268 14.9168 5.61765 14.8408 5.56333 14.7439C5.50901 14.647 5.48848 14.5348 5.505 14.425L6.415 8.5H4C3.92344 8.50206 3.84743 8.4865 3.77783 8.45453C3.70823 8.42255 3.64691 8.37502 3.59859 8.31559C3.55028 8.25616 3.51626 8.18643 3.49917 8.11177C3.48207 8.03711 3.48236 7.95953 3.5 7.885L5 1.385C5.02639 1.27313 5.09052 1.17377 5.18159 1.10365C5.27266 1.03353 5.3851 0.996924 5.5 0.999996H10.5C10.5747 0.999742 10.6485 1.01623 10.716 1.04824C10.7835 1.08026 10.8429 1.12699 10.89 1.185C10.9377 1.24366 10.9715 1.31239 10.9888 1.386C11.0062 1.45962 11.0066 1.5362 10.99 1.61L10.125 5.5H12.5C12.5937 5.49981 12.6856 5.52596 12.7652 5.57547C12.8447 5.62497 12.9088 5.69585 12.95 5.78C12.9858 5.86077 12.9996 5.94959 12.99 6.03742C12.9803 6.12525 12.9475 6.20895 12.895 6.28L6.395 14.78C6.35107 14.8451 6.29241 14.899 6.22379 14.9372C6.15516 14.9754 6.07849 14.9969 6 15C5.9331 14.9987 5.86699 14.9852 5.805 14.96ZM8.875 6.5L9.875 2H5.9L4.63 7.5H7.585L6.79 12.64L11.5 6.5H8.875Z" fill="black"/>
</svg>
