<svg width="16" height="16" viewBox="0 0 16 16" fill="none" xmlns="http://www.w3.org/2000/svg">
<path fill-rule="evenodd" clip-rule="evenodd" d="M12.895 6.305L11.265 8.435L4.85 2.035L5 1.385C5.02639 1.27313 5.09052 1.17377 5.18159 1.10365C5.27266 1.03353 5.3851 0.996924 5.5 0.999996H10.5C10.5764 0.998224 10.6521 1.01398 10.7215 1.04605C10.7908 1.07812 10.8519 1.12565 10.9 1.185C10.9477 1.24366 10.9815 1.31239 10.9988 1.386C11.0162 1.45962 11.0166 1.5362 11 1.61L10.125 5.5H12.5C12.5964 5.50201 12.6902 5.53188 12.7701 5.586C12.8499 5.64011 12.9124 5.71617 12.95 5.805C12.9858 5.88577 12.9996 5.97459 12.99 6.06242C12.9803 6.15025 12.9475 6.23395 12.895 6.305ZM1.705 1L15 14.295L14.295 15L9.735 10.44L6.395 14.805C6.34842 14.8655 6.2886 14.9145 6.22013 14.9483C6.15166 14.9821 6.07636 14.9998 6 15C5.93141 14.9994 5.86356 14.9858 5.8 14.96C5.69768 14.9168 5.61265 14.8408 5.55833 14.7439C5.504 14.647 5.48348 14.5348 5.5 14.425L6.415 8.5H4C3.92344 8.50206 3.84742 8.4865 3.77783 8.45453C3.70823 8.42256 3.64691 8.37502 3.59859 8.3156C3.55028 8.25617 3.51626 8.18643 3.49917 8.11178C3.48207 8.03712 3.48236 7.95953 3.5 7.885L4.2 4.91L1 1.705L1.705 1Z" fill="black"/>
</svg>
