<svg width="16" height="16" viewBox="0 0 16 16" fill="none" xmlns="http://www.w3.org/2000/svg">
<path fill-rule="evenodd" clip-rule="evenodd" d="M13 3C13 2.73478 12.8946 2.48043 12.7071 2.29289C12.5196 2.10536 12.2652 2 12 2H4C3.73478 2 3.48043 2.10536 3.29289 2.29289C3.10536 2.48043 3 2.73478 3 3V13C3 13.2652 3.10536 13.5196 3.29289 13.7071C3.48043 13.8946 3.73478 14 4 14H8V13H4V3H12V6H13V3ZM8 9H5V10H8V9ZM5 7H11V8H5V7ZM11 5V6H5V5H11ZM15 12.5L12.5 11.5V13.25L13.5 14V14.5L12 14L10.5 14.5V14L11.5 13.25V11.5L9 12.5V11.5L11.5 10.25V9C11.5 8.86739 11.5527 8.74021 11.6464 8.64645C11.7402 8.55268 11.8674 8.5 12 8.5C12.1326 8.5 12.2598 8.55268 12.3536 8.64645C12.4473 8.74021 12.5 8.86739 12.5 9V10.25L15 11.5V12.5Z" fill="black"/>
</svg>
