<svg width="16" height="16" viewBox="0 0 16 16" fill="none" xmlns="http://www.w3.org/2000/svg">
<path fill-rule="evenodd" clip-rule="evenodd" d="M7.6643 13.978C7.77563 13.9924 7.88775 13.9998 8 14V15C6.61553 15 5.26216 14.5895 4.11101 13.8203C2.95987 13.0511 2.06266 11.9579 1.53285 10.6788C1.00303 9.3997 0.86441 7.99224 1.13451 6.63437C1.4046 5.2765 2.07129 4.02922 3.05026 3.05026C4.02922 2.07129 5.2765 1.4046 6.63437 1.13451C7.99224 0.86441 9.3997 1.00303 10.6788 1.53285C11.9579 2.06266 13.0511 2.95987 13.8203 4.11101C14.5895 5.26216 15 6.61553 15 8C15 8.15263 14.9892 8.30267 14.9784 8.45262C14.9773 8.46841 14.9761 8.48421 14.975 8.5H6.0166C6.068 10.4402 6.63684 12.3314 7.6643 13.978ZM10.9816 7.5H13.9746C13.8707 6.28014 13.3966 5.12115 12.6156 4.1783C11.8346 3.23545 10.7842 2.55378 9.605 2.2246C10.4572 3.85624 10.9278 5.66002 10.9816 7.5ZM9.9834 7.5C9.93202 5.5598 9.36317 3.66857 8.3357 2.02195C8.11286 1.9927 7.88715 1.9927 7.6643 2.02195C6.63684 3.66857 6.06799 5.5598 6.0166 7.5H9.9834ZM5.01845 7.5C5.07223 5.66003 5.5429 3.85626 6.395 2.2246C5.21582 2.5538 4.16539 3.23548 3.38443 4.17832C2.60348 5.12117 2.12929 6.28015 2.0254 7.5H5.01845ZM5.01845 8.5H2.0254C2.12929 9.71986 2.60348 10.8788 3.38443 11.8217C4.16539 12.7645 5.21582 13.4462 6.395 13.7754C5.5429 12.1437 5.07223 10.34 5.01845 8.5ZM15 13.5L12.5 12.5V14.25L13.5 15V15.5L12 15L10.5 15.5V15L11.5 14.25V12.5L9 13.5V12.5L11.5 11.25V10C11.5 9.86739 11.5527 9.74021 11.6465 9.64645C11.7402 9.55268 11.8674 9.5 12 9.5C12.1326 9.5 12.2598 9.55268 12.3536 9.64645C12.4473 9.74021 12.5 9.86739 12.5 10V11.25L15 12.5V13.5Z" fill="black"/>
</svg>
