<svg width="16" height="16" viewBox="0 0 16 16" fill="none" xmlns="http://www.w3.org/2000/svg">
<path d="M12.4999 5.50001C11.9239 5.50079 11.3658 5.70015 10.9196 6.06446C10.4734 6.42877 10.1665 6.93577 10.0505 7.50001H5.9494C5.82549 6.89298 5.4806 6.35359 4.9816 5.98641C4.4826 5.61922 3.86504 5.4504 3.24864 5.51267C2.63223 5.57493 2.06091 5.86386 1.64543 6.32343C1.22995 6.783 0.999908 7.38047 0.999908 8.00001C0.999908 8.61954 1.22995 9.21701 1.64543 9.67658C2.06091 10.1361 2.63223 10.4251 3.24864 10.4873C3.86504 10.5496 4.4826 10.3808 4.9816 10.0136C5.4806 9.64642 5.82549 9.10703 5.9494 8.50001H10.0505C10.1451 8.96349 10.3693 9.39062 10.6969 9.73178C11.0246 10.0729 11.4424 10.3141 11.9017 10.4274C12.361 10.5406 12.8429 10.5211 13.2916 10.3714C13.7403 10.2216 14.1373 9.94755 14.4365 9.58113C14.7357 9.21471 14.9247 8.77094 14.9818 8.30135C15.0388 7.83176 14.9614 7.35563 14.7586 6.92826C14.5558 6.5009 14.2359 6.13983 13.8361 5.88702C13.4363 5.6342 12.973 5.5 12.4999 5.50001ZM12.4999 9.50001C12.2033 9.50001 11.9133 9.41203 11.6666 9.24721C11.4199 9.08239 11.2277 8.84812 11.1141 8.57403C11.0006 8.29994 10.9709 7.99834 11.0288 7.70737C11.0866 7.4164 11.2295 7.14912 11.4393 6.93935C11.6491 6.72957 11.9163 6.58671 12.2073 6.52883C12.4983 6.47095 12.7999 6.50065 13.074 6.61419C13.3481 6.72772 13.5823 6.91998 13.7472 7.16665C13.912 7.41332 13.9999 7.70333 13.9999 8.00001C13.9995 8.3977 13.8413 8.77897 13.5601 9.06018C13.2789 9.34139 12.8976 9.49957 12.4999 9.50001Z" fill="black"/>
</svg>
