<svg width="16" height="16" viewBox="0 0 16 16" fill="none" xmlns="http://www.w3.org/2000/svg">
<path fill-rule="evenodd" clip-rule="evenodd" d="M14.8786 7.5L14 6.815V10.5H15V11.5H12.5C12.112 11.5034 11.7286 11.4152 11.3811 11.2426C11.0335 11.0699 10.7317 10.8177 10.5 10.5064C10.266 10.8151 9.9636 11.0655 9.61662 11.2379C9.26963 11.4103 8.88745 11.5 8.5 11.5C8.11255 11.5 7.73036 11.4103 7.38338 11.2379C7.0364 11.0655 6.73404 10.8151 6.5 10.5064C6.26596 10.8151 5.9636 11.0655 5.61662 11.2379C5.26964 11.4103 4.88745 11.5 4.5 11.5C4.11255 11.5 3.73036 11.4103 3.38338 11.2379C3.0364 11.0655 2.73404 10.8151 2.5 10.5064C2.13179 10.9929 1.59823 11.3279 1 11.448V10.4063C1.22443 10.3133 1.42829 10.1769 1.5999 10.005C1.7715 9.83304 1.90747 9.62891 2 9.4043V6.81055L1.12135 7.4956L0.5 6.7097L7.6848 1.10695C7.77353 1.03765 7.88289 1 7.99547 1C8.10806 1 8.21742 1.03765 8.30615 1.10695L15.5 6.7141L14.8786 7.5ZM10.7929 9.09458C10.8777 9.15589 10.9412 9.24229 10.9743 9.3416V9.3418C11.085 9.66445 11.2892 9.94687 11.5609 10.1531C11.8326 10.3594 12.1595 10.4801 12.5 10.5H13.0008L13 6.0359L7.9955 2.13575L3 6.03075L2.99895 9.405C3.11427 9.71456 3.31803 9.9834 3.58491 10.1781C3.85179 10.3728 4.17001 10.4847 4.5 10.5C4.84094 10.48 5.16819 10.3589 5.44007 10.1522C5.71194 9.94548 5.91612 9.66252 6.0266 9.33935C6.05946 9.23998 6.123 9.1536 6.20806 9.09262C6.29313 9.03164 6.39534 8.99921 6.5 9C6.60481 9.00052 6.70684 9.03373 6.79187 9.095C6.8769 9.15627 6.94069 9.24255 6.97435 9.3418C7.08502 9.66445 7.2892 9.94687 7.56088 10.1531C7.83257 10.3594 8.15948 10.4801 8.5 10.5C8.84096 10.4799 9.16823 10.3588 9.44011 10.1521C9.71199 9.94536 9.91615 9.66235 10.0266 9.33915C10.0603 9.24002 10.1242 9.15395 10.2094 9.09308C10.2945 9.03221 10.3967 8.99961 10.5014 8.99988C10.606 9.00015 10.708 9.03328 10.7929 9.09458ZM14 13.9092C14.16 13.9688 14.3293 13.9996 14.5 14H15V15H14.5C14.1806 15.0009 13.8641 14.9384 13.5689 14.8163C13.1473 14.6456 12.7784 14.3661 12.5 14.0063C12.266 14.3151 11.9636 14.5655 11.6166 14.7379C11.2696 14.9103 10.8874 15 10.5 15C10.1126 15 9.73037 14.9103 9.38338 14.7379C9.0364 14.5655 8.73404 14.3151 8.5 14.0063C8.26596 14.3151 7.9636 14.5655 7.61662 14.7379C7.26964 14.9103 6.88745 15 6.5 15C6.11255 15 5.73036 14.9103 5.38338 14.7379C5.0364 14.5655 4.73404 14.3151 4.5 14.0063C4.26834 14.3177 3.96647 14.5699 3.61894 14.7426C3.27141 14.9152 2.88804 15.0034 2.5 15H1V14H2.5C2.84052 13.9801 3.16743 13.8594 3.43912 13.6531C3.7108 13.4469 3.91498 13.1644 4.02565 12.8418C4.05879 12.7425 4.12227 12.6561 4.20713 12.5948C4.29199 12.5335 4.39395 12.5003 4.49864 12.5001C4.60334 12.4998 4.70547 12.5324 4.79065 12.5933C4.87582 12.6541 4.93975 12.7402 4.9734 12.8393C5.08388 13.1625 5.28806 13.4455 5.55993 13.6522C5.83181 13.8589 6.15906 13.9799 6.5 14C6.84052 13.9801 7.16743 13.8594 7.43912 13.6531C7.7108 13.4469 7.91498 13.1644 8.02565 12.8418C8.05931 12.7425 8.1231 12.6563 8.20813 12.595C8.29316 12.5337 8.39519 12.5005 8.5 12.5C8.60466 12.4992 8.70687 12.5316 8.79194 12.5926C8.877 12.6536 8.94054 12.74 8.9734 12.8393C9.08388 13.1625 9.28806 13.4455 9.55993 13.6522C9.83181 13.8589 10.1591 13.9799 10.5 14C10.8405 13.9801 11.1674 13.8594 11.4391 13.6531C11.7108 13.4469 11.915 13.1644 12.0257 12.8418C12.0593 12.7425 12.1231 12.6563 12.2081 12.595C12.2932 12.5337 12.3952 12.5005 12.5 12.5C12.605 12.4977 12.7079 12.5296 12.7932 12.5908C12.8786 12.652 12.9418 12.7392 12.9734 12.8393C13.0635 13.0773 13.201 13.2945 13.3774 13.4779C13.5539 13.6613 13.7657 13.807 14 13.9062V13.9092Z" fill="black"/>
</svg>
