<svg width="16" height="16" viewBox="0 0 16 16" fill="none" xmlns="http://www.w3.org/2000/svg">
<path fill-rule="evenodd" clip-rule="evenodd" d="M14 9V10.5H15V11.5H12.5C12.112 11.5034 11.7286 11.4152 11.3811 11.2426C11.0335 11.0699 10.7317 10.8177 10.5 10.5064C10.266 10.8151 9.9636 11.0655 9.61662 11.2379C9.26963 11.4103 8.88745 11.5 8.5 11.5C8.11255 11.5 7.73036 11.4103 7.38338 11.2379C7.0364 11.0655 6.73404 10.8151 6.5 10.5064C6.26596 10.8151 5.9636 11.0655 5.61662 11.2379C5.26964 11.4103 4.88745 11.5 4.5 11.5C4.11255 11.5 3.73036 11.4103 3.38338 11.2379C3.0364 11.0655 2.73404 10.8151 2.5 10.5064C2.13179 10.9929 1.59823 11.3279 1 11.448V10.4063C1.22445 10.3133 1.42833 10.177 1.59994 10.005C1.77155 9.83308 1.9075 9.62893 2 9.4043V6.81055L1.12135 7.4956L0.5 6.7097L7.6848 1.10695C7.77353 1.03765 7.88289 1 7.99547 1C8.10806 1 8.21742 1.03765 8.30615 1.10695L9.75045 2.23265L9.26635 3.12355L8 2.13575L3 6.03075V9.40725C3.11539 9.71637 3.3191 9.98475 3.58579 10.179C3.85248 10.3733 4.17039 10.4849 4.5 10.5C4.84094 10.48 5.16819 10.3589 5.44007 10.1522C5.71194 9.94548 5.91612 9.66252 6.0266 9.33935C6.05946 9.23998 6.123 9.1536 6.20806 9.09262C6.29313 9.03164 6.39534 8.99921 6.5 9C6.60481 9.00052 6.70684 9.03373 6.79187 9.095C6.8769 9.15627 6.94069 9.24255 6.97435 9.3418C7.08502 9.66445 7.2892 9.94687 7.56088 10.1531C7.83257 10.3594 8.15948 10.4801 8.5 10.5C8.84094 10.48 9.16819 10.3589 9.44007 10.1522C9.71194 9.94548 9.91612 9.66252 10.0266 9.33935C10.0603 9.24022 10.1242 9.15415 10.2094 9.09328C10.2945 9.03241 10.3967 8.99981 10.5014 9.00008C10.606 9.00035 10.708 9.03348 10.7929 9.09478C10.8777 9.15609 10.9412 9.24249 10.9743 9.3418C11.085 9.66445 11.2892 9.94687 11.5609 10.1531C11.8326 10.3594 12.1595 10.4801 12.5 10.5H13V9H14ZM14.9557 7.46773L11.8142 1.68528C11.7832 1.62915 11.7376 1.58235 11.6824 1.54977C11.6271 1.51719 11.5641 1.5 11.5 1.5C11.4359 1.5 11.3729 1.51719 11.3176 1.54977C11.2624 1.58235 11.2168 1.62915 11.1858 1.68528L8.04425 7.46773C8.01439 7.52253 7.99929 7.58415 8.00043 7.64655C8.00157 7.70895 8.01891 7.76998 8.05075 7.82366C8.08259 7.87733 8.12784 7.92181 8.18205 7.95272C8.23627 7.98363 8.29759 7.99992 8.36 7.99998H14.64C14.7024 7.99992 14.7637 7.98363 14.8179 7.95272C14.8722 7.92181 14.9174 7.87733 14.9492 7.82366C14.9811 7.76998 14.9984 7.70895 14.9996 7.64655C15.0007 7.58415 14.9856 7.52253 14.9557 7.46773ZM11.125 3.49998H11.875V5.49998H11.125V3.49998ZM11.5 6.99998C11.4011 6.99998 11.3044 6.97066 11.2222 6.91572C11.14 6.86077 11.0759 6.78269 11.0381 6.69132C11.0002 6.59996 10.9903 6.49943 11.0096 6.40244C11.0289 6.30545 11.0765 6.21635 11.1464 6.14643C11.2164 6.0765 11.3055 6.02888 11.4025 6.00959C11.4994 5.9903 11.6 6.0002 11.6913 6.03804C11.7827 6.07588 11.8608 6.13997 11.9157 6.2222C11.9707 6.30442 12 6.40109 12 6.49998C12 6.63259 11.9473 6.75977 11.8536 6.85353C11.7598 6.9473 11.6326 6.99998 11.5 6.99998ZM14.5 14C14.3293 13.9996 14.16 13.9688 14 13.9092V13.9062C13.7657 13.807 13.5539 13.6613 13.3774 13.4779C13.201 13.2945 13.0635 13.0773 12.9734 12.8393C12.9418 12.7392 12.8786 12.652 12.7932 12.5908C12.7079 12.5296 12.605 12.4977 12.5 12.5C12.3952 12.5005 12.2932 12.5337 12.2081 12.595C12.1231 12.6563 12.0593 12.7425 12.0257 12.8418C11.915 13.1644 11.7108 13.4469 11.4391 13.6531C11.1674 13.8594 10.8405 13.9801 10.5 14C10.1591 13.9799 9.83181 13.8589 9.55993 13.6522C9.28806 13.4455 9.08388 13.1625 8.9734 12.8393C8.94054 12.74 8.877 12.6536 8.79194 12.5926C8.70687 12.5316 8.60466 12.4992 8.5 12.5C8.39519 12.5005 8.29316 12.5337 8.20813 12.595C8.1231 12.6563 8.05931 12.7425 8.02565 12.8418C7.91498 13.1644 7.7108 13.4469 7.43912 13.6531C7.16743 13.8594 6.84052 13.9801 6.5 14C6.15906 13.9799 5.83181 13.8589 5.55993 13.6522C5.28806 13.4455 5.08388 13.1625 4.9734 12.8393C4.93975 12.7402 4.87582 12.6541 4.79065 12.5933C4.70547 12.5324 4.60334 12.4998 4.49864 12.5001C4.39395 12.5003 4.29199 12.5335 4.20713 12.5948C4.12227 12.6561 4.05879 12.7425 4.02565 12.8418C3.91498 13.1644 3.7108 13.4469 3.43912 13.6531C3.16743 13.8594 2.84052 13.9801 2.5 14H1V15H2.5C2.88804 15.0034 3.27141 14.9152 3.61894 14.7426C3.96647 14.5699 4.26834 14.3177 4.5 14.0063C4.73404 14.3151 5.0364 14.5655 5.38338 14.7379C5.73036 14.9103 6.11255 15 6.5 15C6.88745 15 7.26964 14.9103 7.61662 14.7379C7.9636 14.5655 8.26596 14.3151 8.5 14.0063C8.73404 14.3151 9.0364 14.5655 9.38338 14.7379C9.73037 14.9103 10.1126 15 10.5 15C10.8874 15 11.2696 14.9103 11.6166 14.7379C11.9636 14.5655 12.266 14.3151 12.5 14.0063C12.7784 14.3661 13.1473 14.6456 13.5689 14.8163C13.8641 14.9384 14.1806 15.0009 14.5 15H15V14H14.5Z" fill="black"/>
</svg>
