<svg width="16" height="16" viewBox="0 0 16 16" fill="none" xmlns="http://www.w3.org/2000/svg">
<path fill-rule="evenodd" clip-rule="evenodd" d="M2.39849 6.35189C2.66122 6.93384 3.04479 7.45321 3.5237 7.8755L4.1853 7.1255C3.81279 6.79705 3.51445 6.39309 3.31009 5.94045C3.10574 5.48782 3.00005 4.99688 3.00005 4.50025C3.00005 4.00362 3.10574 3.51268 3.31009 3.06005C3.51445 2.60741 3.81279 2.20345 4.1853 1.875L3.5237 1.125C3.04479 1.54729 2.66122 2.06666 2.39849 2.64861C2.13576 3.23055 1.99989 3.86175 1.99989 4.50025C1.99989 5.13875 2.13576 5.76995 2.39849 6.35189ZM10 12H5.93125C5.88304 11.8212 5.811 11.6496 5.71705 11.49L10.99 6.21716C11.3508 6.43009 11.7695 6.52414 12.1867 6.48601C12.604 6.44789 12.9986 6.27951 13.3149 6.0047C13.6312 5.7299 13.853 5.36259 13.949 4.95476C14.045 4.54693 14.0103 4.11924 13.8498 3.73222C13.6894 3.34519 13.4112 3.01844 13.0548 2.7982C12.6984 2.57795 12.2817 2.47538 11.8638 2.505C11.4459 2.53461 11.0479 2.69491 10.7261 2.96321C10.4043 3.23151 10.175 3.59422 10.0707 4.00001H7V5.00001H10.0707C10.1172 5.17908 10.1886 5.35075 10.2828 5.51001L5.01 10.7828C4.64916 10.5699 4.2305 10.4758 3.81327 10.514C3.39604 10.5521 3.00137 10.7205 2.68511 10.9953C2.36886 11.2701 2.14704 11.6374 2.05104 12.0453C1.95505 12.4531 1.98975 12.8808 2.15022 13.2678C2.3107 13.6548 2.58883 13.9816 2.94524 14.2018C3.30166 14.422 3.71831 14.5246 4.13623 14.495C4.55416 14.4654 4.95218 14.3051 5.27398 14.0368C5.59578 13.7685 5.82505 13.4058 5.92935 13H10V14.5H14V10.5H10V12ZM12 3.50001C12.1978 3.50001 12.3911 3.55866 12.5556 3.66854C12.72 3.77842 12.8482 3.9346 12.9239 4.11732C12.9996 4.30005 13.0194 4.50112 12.9808 4.6951C12.9422 4.88908 12.847 5.06726 12.7071 5.20711C12.5673 5.34696 12.3891 5.44221 12.1951 5.48079C12.0011 5.51938 11.8 5.49957 11.6173 5.42389C11.4346 5.3482 11.2784 5.22003 11.1685 5.05558C11.0586 4.89113 11 4.69779 11 4.50001C11.0003 4.23488 11.1058 3.98071 11.2932 3.79324C11.4807 3.60576 11.7349 3.50031 12 3.50001ZM4 13.5C3.80222 13.5 3.60888 13.4414 3.44443 13.3315C3.27998 13.2216 3.15181 13.0654 3.07612 12.8827C3.00043 12.7 2.98063 12.4989 3.01921 12.3049C3.0578 12.1109 3.15304 11.9328 3.29289 11.7929C3.43274 11.653 3.61093 11.5578 3.80491 11.5192C3.99889 11.4806 4.19995 11.5004 4.38268 11.5761C4.56541 11.6518 4.72159 11.78 4.83147 11.9444C4.94135 12.1089 5 12.3022 5 12.5C4.99969 12.7651 4.89424 13.0193 4.70677 13.2068C4.5193 13.3942 4.26512 13.4997 4 13.5ZM4.84645 6.37524C4.58042 6.14066 4.36735 5.85215 4.22139 5.52888C4.07544 5.20561 3.99994 4.85499 3.99992 4.5003C3.99989 4.14561 4.07534 3.79498 4.22125 3.47169C4.36717 3.1484 4.5802 2.85987 4.8462 2.62524L5.5083 3.37499C5.34859 3.51574 5.22067 3.68887 5.13304 3.88287C5.0454 4.07688 5.00007 4.28731 5.00005 4.50019C5.00002 4.71306 5.04531 4.92351 5.1329 5.11753C5.22049 5.31155 5.34837 5.48471 5.50805 5.62549L4.84645 6.37524ZM11 11.5H13V13.5H11V11.5Z" fill="black"/>
</svg>
