<svg width="16" height="16" viewBox="0 0 16 16" fill="none" xmlns="http://www.w3.org/2000/svg">
<path fill-rule="evenodd" clip-rule="evenodd" d="M5 5H1V1H5V5ZM2 4H4V2H2V4ZM15 15H11V11H15V15ZM12 14H14V12H12V14ZM4 13.5H10V12.5H4C3.46957 12.5 2.96086 12.2893 2.58579 11.9142C2.21071 11.5391 2 11.0304 2 10.5C2 9.96957 2.21071 9.46086 2.58579 9.08579C2.96086 8.71071 3.46957 8.5 4 8.5V7.5C3.20435 7.5 2.44129 7.81607 1.87868 8.37868C1.31607 8.94129 1 9.70435 1 10.5C1 11.2956 1.31607 12.0587 1.87868 12.6213C2.44129 13.1839 3.20435 13.5 4 13.5ZM12 8.5V7.5C12.5304 7.5 13.0391 7.28929 13.4142 6.91421C13.7893 6.53914 14 6.03043 14 5.5C14 4.96957 13.7893 4.46086 13.4142 4.08579C13.0391 3.71071 12.5304 3.5 12 3.5H6V2.5H12C12.7956 2.5 13.5587 2.81607 14.1213 3.37868C14.6839 3.94129 15 4.70435 15 5.5C15 6.29565 14.6839 7.05871 14.1213 7.62132C13.5587 8.18393 12.7956 8.5 12 8.5ZM6.5 5.5H9.5L11 7.5L8 10.5L5 7.5L6.5 5.5Z" fill="black"/>
</svg>
