<svg width="16" height="16" viewBox="0 0 16 16" fill="none" xmlns="http://www.w3.org/2000/svg">
<path fill-rule="evenodd" clip-rule="evenodd" d="M2.39849 6.35189C2.66122 6.93384 3.04479 7.45321 3.5237 7.8755L4.1853 7.1255C3.81279 6.79705 3.51445 6.39309 3.31009 5.94045C3.10574 5.48782 3.00005 4.99688 3.00005 4.50025C3.00005 4.00362 3.10574 3.51268 3.31009 3.06005C3.51445 2.60741 3.81279 2.20345 4.1853 1.875L3.5237 1.125C3.04479 1.54729 2.66122 2.06666 2.39849 2.64861C2.13577 3.23055 1.99989 3.86175 1.99989 4.50025C1.99989 5.13875 2.13577 5.76995 2.39849 6.35189ZM10.7795 2.92077C11.1286 2.64933 11.5578 2.50134 12 2.5C12.5304 2.5 13.0391 2.71071 13.4142 3.08579C13.7893 3.46086 14 3.96957 14 4.5C14 5.03043 13.7893 5.53914 13.4142 5.91421C13.0391 6.28929 12.5304 6.5 12 6.5C11.6441 6.49815 11.2953 6.40022 10.9905 6.21655L7.7069 9.5L7 8.7931L10.2835 5.5095C10.1891 5.35048 10.1176 5.17896 10.071 5H7V4H10.071C10.1813 3.57178 10.4304 3.19221 10.7795 2.92077ZM11.4444 5.33147C11.6089 5.44135 11.8022 5.5 12 5.5C12.2651 5.4997 12.5193 5.39424 12.7068 5.20677C12.8942 5.0193 12.9997 4.76512 13 4.5C13 4.30222 12.9414 4.10888 12.8315 3.94443C12.7216 3.77998 12.5654 3.65181 12.3827 3.57612C12.2 3.50043 11.9989 3.48063 11.8049 3.51921C11.6109 3.5578 11.4327 3.65304 11.2929 3.79289C11.153 3.93275 11.0578 4.11093 11.0192 4.30491C10.9806 4.49889 11.0004 4.69996 11.0761 4.88268C11.1518 5.06541 11.28 5.22159 11.4444 5.33147ZM2 10V11H4.293L1 14.293L1.707 15L5 11.707V14H6V10H2ZM10 12H8V13H10V14.5H14V10.5H10V12ZM11 13.5V11.5H13V13.5H11ZM4.84645 6.37524C4.58042 6.14066 4.36735 5.85215 4.22139 5.52888C4.07544 5.20561 3.99994 4.85499 3.99992 4.5003C3.9999 4.14561 4.07535 3.79498 4.22126 3.47169C4.36717 3.1484 4.5802 2.85987 4.8462 2.62524L5.5083 3.37499C5.34859 3.51574 5.22067 3.68887 5.13304 3.88287C5.04541 4.07688 5.00007 4.28731 5.00005 4.50019C5.00002 4.71306 5.04531 4.92351 5.1329 5.11753C5.22049 5.31155 5.34837 5.48471 5.50805 5.62549L4.84645 6.37524Z" fill="black"/>
</svg>
