<svg width="16" height="16" viewBox="0 0 16 16" fill="none" xmlns="http://www.w3.org/2000/svg">
<path fill-rule="evenodd" clip-rule="evenodd" d="M10.8331 3.00446C11.6342 3.65428 12.1876 4.55977 12.4004 5.56911C13.1894 5.72988 13.8905 6.17796 14.3678 6.82645C14.8451 7.47494 15.0646 8.27759 14.9835 9.0787C14.9025 9.87982 14.5268 10.6223 13.9294 11.1621C13.3319 11.7019 12.5552 12.0005 11.75 12H3.5C3.36739 12 3.24021 11.9473 3.14645 11.8536C3.05268 11.7598 3 11.6326 3 11.5C3 11.3674 3.05268 11.2402 3.14645 11.1465C3.24021 11.0527 3.36739 11 3.5 11H11.75C12.3311 11.0004 12.8897 10.7758 13.3088 10.3733C13.7279 9.97082 13.9749 9.42169 13.9979 8.84108C14.0209 8.26047 13.8183 7.69349 13.4324 7.25904C13.0466 6.82459 12.5075 6.55642 11.9282 6.51076L11.5205 6.47876L11.4712 6.07276C11.3676 5.22516 10.9574 4.44478 10.318 3.8788C9.67856 3.31282 8.85416 3.00036 8.00025 3.00036C7.14634 3.00036 6.32194 3.31282 5.68254 3.8788C5.04314 4.44478 4.63294 5.22516 4.5293 6.07276L4.47975 6.47876L4.072 6.51076C3.50894 6.55748 2.98384 6.81352 2.60027 7.22836C2.2167 7.6432 2.00253 8.18673 2 8.75171V9.00001H7.5C7.63261 9.00001 7.75979 9.05269 7.85355 9.14646C7.94732 9.24023 8 9.3674 8 9.50001C8 9.63262 7.94732 9.7598 7.85355 9.85357C7.75979 9.94733 7.63261 10 7.5 10H1.5C1.36739 10 1.24021 9.94733 1.14645 9.85357C1.05268 9.7598 1 9.63262 1 9.50001V8.75001C1.00387 8.0023 1.26415 7.27855 1.73737 6.69962C2.21059 6.1207 2.8681 5.72165 3.6001 5.56911C3.81292 4.55977 4.36629 3.65428 5.16741 3.00446C5.96854 2.35464 6.96871 2 8.00025 2C9.03179 2 10.032 2.35464 10.8331 3.00446ZM1.5 13H9.5C9.77614 13 10 13.2239 10 13.5C10 13.7761 9.77614 14 9.5 14H1.5C1.22386 14 1 13.7761 1 13.5C1 13.2239 1.22386 13 1.5 13Z" fill="black"/>
</svg>
