<svg width="16" height="16" viewBox="0 0 16 16" fill="none" xmlns="http://www.w3.org/2000/svg">
<path fill-rule="evenodd" clip-rule="evenodd" d="M8 4H14C14.2652 4 14.5196 4.10536 14.7071 4.29289C14.8946 4.48043 15 4.73478 15 5V13C15 13.2652 14.8946 13.5196 14.7071 13.7071C14.5196 13.8946 14.2652 14 14 14H2C1.73478 14 1.48043 13.8946 1.29289 13.7071C1.10536 13.5196 1 13.2652 1 13V3C1 2.73478 1.10536 2.48043 1.29289 2.29289C1.48043 2.10536 1.73478 2 2 2H5.585C5.71696 1.9999 5.84763 2.02591 5.96948 2.07654C6.09134 2.12717 6.20197 2.20142 6.295 2.295L8 4ZM7 12.5V13H11V12.5C11 12.3674 10.9473 12.2402 10.8536 12.1464C10.7598 12.0527 10.6326 12 10.5 12H7.5C7.36739 12 7.24021 12.0527 7.14645 12.1464C7.05268 12.2402 7 12.3674 7 12.5ZM12 13H14V5H7.585L7.295 4.705L5.585 3H2V13H6V12.5C6 12.1022 6.15804 11.7206 6.43934 11.4393C6.72064 11.158 7.10218 11 7.5 11H10.5C10.8978 11 11.2794 11.158 11.5607 11.4393C11.842 11.7206 12 12.1022 12 12.5V13ZM7.33706 9.61114C7.1173 9.28224 7 8.89556 7 8.5C7 7.96957 7.21071 7.46086 7.58579 7.08579C7.96086 6.71071 8.46957 6.5 9 6.5C9.39556 6.5 9.78224 6.6173 10.1111 6.83706C10.44 7.05682 10.6964 7.36918 10.8478 7.73463C10.9991 8.10009 11.0387 8.50222 10.9616 8.89018C10.8844 9.27814 10.6939 9.63451 10.4142 9.91421C10.1345 10.1939 9.77814 10.3844 9.39018 10.4616C9.00222 10.5387 8.60009 10.4991 8.23463 10.3478C7.86918 10.1964 7.55682 9.94004 7.33706 9.61114ZM9.55557 7.66853C9.39112 7.55865 9.19778 7.5 9 7.5C8.73478 7.5 8.48043 7.60536 8.29289 7.79289C8.10536 7.98043 8 8.23478 8 8.5C8 8.69778 8.05865 8.89112 8.16853 9.05557C8.27841 9.22002 8.43459 9.34819 8.61732 9.42388C8.80004 9.49957 9.00111 9.51937 9.19509 9.48079C9.38907 9.4422 9.56725 9.34696 9.70711 9.20711C9.84696 9.06725 9.9422 8.88907 9.98079 8.69509C10.0194 8.50111 9.99957 8.30004 9.92388 8.11732C9.84819 7.93459 9.72002 7.77841 9.55557 7.66853Z" fill="black"/>
</svg>
