<svg width="16" height="16" viewBox="0 0 16 16" fill="none" xmlns="http://www.w3.org/2000/svg">
<path fill-rule="evenodd" clip-rule="evenodd" d="M8 4H14C14.2652 4 14.5196 4.10536 14.7071 4.29289C14.8946 4.48043 15 4.73478 15 5V9H14V5H7.5858L7.29285 4.70705L5.5858 3H2V9H1V3C1 2.73478 1.10536 2.48043 1.29289 2.29289C1.48043 2.10536 1.73478 2 2 2H5.5858C5.85103 2.00004 6.10539 2.10541 6.29295 2.29295L8 4ZM2 10V11H4.293L1 14.293L1.707 15L5 11.707V14H6V10H2ZM8 10H15V11H8V10ZM15 12H8V13H15V12ZM11.5 14H8V15H11.5V14Z" fill="black"/>
</svg>
