<svg width="16" height="16" viewBox="0 0 16 16" fill="none" xmlns="http://www.w3.org/2000/svg">
<path fill-rule="evenodd" clip-rule="evenodd" d="M2 13H7V14H2C1.73478 14 1.48043 13.8946 1.29289 13.7071C1.10536 13.5196 1 13.2652 1 13V3C1 2.73478 1.10536 2.48043 1.29289 2.29289C1.48043 2.10536 1.73478 2 2 2H5.585C5.71696 1.9999 5.84763 2.02591 5.96948 2.07654C6.09134 2.12717 6.20197 2.20142 6.295 2.295L8 4H14C14.2652 4 14.5196 4.10536 14.7071 4.29289C14.8946 4.48043 15 4.73478 15 5V9H14V5H7.585L7.295 4.705L5.585 3H2V13ZM8 10H15V11H8V10ZM8 12H15V13H8V12ZM11.5 14H8V15H11.5V14Z" fill="black"/>
</svg>
