<svg width="16" height="16" viewBox="0 0 16 16" fill="none" xmlns="http://www.w3.org/2000/svg">
<path fill-rule="evenodd" clip-rule="evenodd" d="M12.1574 11.7779C12.7068 10.9556 13 9.98891 13 9H14C14 10.1867 13.6481 11.3467 12.9888 12.3334C12.3295 13.3201 11.3925 14.0892 10.2961 14.5433C9.19975 14.9974 7.99335 15.1162 6.82946 14.8847C5.66558 14.6532 4.59648 14.0818 3.75736 13.2426C2.91825 12.4035 2.3468 11.3344 2.11529 10.1705C1.88378 9.00666 2.0026 7.80026 2.45673 6.7039C2.91085 5.60754 3.67989 4.67047 4.66658 4.01118C5.65328 3.35189 6.81331 3 8 3H10V0.5L13 3.5L10 6.5V4H8C7.0111 4 6.0444 4.29324 5.22215 4.84265C4.39991 5.39206 3.75904 6.17295 3.38061 7.08658C3.00217 8.00021 2.90315 9.00555 3.09608 9.97545C3.289 10.9454 3.76521 11.8363 4.46447 12.5355C5.16373 13.2348 6.05465 13.711 7.02455 13.9039C7.99446 14.0969 8.99979 13.9978 9.91342 13.6194C10.8271 13.241 11.6079 12.6001 12.1574 11.7779ZM8 11.75C8 12.1642 7.66421 12.5 7.25 12.5C6.83579 12.5 6.5 12.1642 6.5 11.75C6.5 11.3358 6.83579 11 7.25 11C7.66421 11 8 11.3358 8 11.75ZM5.75 10.5C6.16421 10.5 6.5 10.1642 6.5 9.75C6.5 9.33579 6.16421 9 5.75 9C5.33579 9 5 9.33579 5 9.75C5 10.1642 5.33579 10.5 5.75 10.5ZM9.5 9.75C9.5 10.1642 9.16421 10.5 8.75 10.5C8.33579 10.5 8 10.1642 8 9.75C8 9.33579 8.33579 9 8.75 9C9.16421 9 9.5 9.33579 9.5 9.75ZM8.2932 6.49989L6.50011 8.29297L7.20701 8.99986L9.00009 7.20678L8.2932 6.49989ZM9.50014 8.29297L11.2932 6.49989L12.0001 7.20678L10.207 8.99986L9.50014 8.29297Z" fill="black"/>
</svg>
