<svg width="16" height="16" viewBox="0 0 16 16" fill="none" xmlns="http://www.w3.org/2000/svg">
<path fill-rule="evenodd" clip-rule="evenodd" d="M3.46447 12.5355C4.40215 13.4732 5.67392 14 7 14V15C5.4087 15 3.88258 14.3679 2.75736 13.2426C1.63214 12.1174 1 10.5913 1 9C1 7.4087 1.63214 5.88258 2.75736 4.75736C3.88258 3.63214 5.4087 3 7 3H9V0.5L12 3.5L9 6.5V4H7C5.67392 4 4.40215 4.52678 3.46447 5.46447C2.52678 6.40215 2 7.67392 2 9C2 10.3261 2.52678 11.5979 3.46447 12.5355ZM4.5001 7.79297L6.29318 5.99989L7.00008 6.70678L5.20699 8.49986L4.5001 7.79297ZM7.50012 7.79297L8.29328 6.99995L9.00011 7.7069L8.20696 8.49992L7.50012 7.79297ZM5.25 12C5.66421 12 6 11.6642 6 11.25C6 10.8358 5.66421 10.5 5.25 10.5C4.83579 10.5 4.5 10.8358 4.5 11.25C4.5 11.6642 4.83579 12 5.25 12ZM4.5 9.25C4.5 9.66421 4.16421 10 3.75 10C3.33579 10 3 9.66421 3 9.25C3 8.83579 3.33579 8.5 3.75 8.5C4.16421 8.5 4.5 8.83579 4.5 9.25ZM6.75 10C7.16421 10 7.5 9.66421 7.5 9.25C7.5 8.83579 7.16421 8.5 6.75 8.5C6.33579 8.5 6 8.83579 6 9.25C6 9.66421 6.33579 10 6.75 10ZM10 11V12H8.5V13H10V14H8V15H10C10.2651 14.9996 10.5193 14.8942 10.7067 14.7067C10.8942 14.5193 10.9996 14.2651 11 14V11C10.9997 10.7349 10.8942 10.4807 10.7068 10.2932C10.5193 10.1058 10.2651 10.0003 10 10H8V11H10ZM13 15H14C14.2651 14.9997 14.5193 14.8943 14.7068 14.7068C14.8943 14.5193 14.9997 14.2651 15 14V11C14.9997 10.7349 14.8943 10.4807 14.7068 10.2932C14.5193 10.1057 14.2651 10.0003 14 10H13C12.7349 10.0003 12.4807 10.1057 12.2932 10.2932C12.1057 10.4807 12.0003 10.7349 12 11V14C12.0003 14.2651 12.1057 14.5193 12.2932 14.7068C12.4807 14.8943 12.7349 14.9997 13 15ZM13 14V11H14V14H13Z" fill="black"/>
</svg>
