<svg width="16" height="16" viewBox="0 0 16 16" fill="none" xmlns="http://www.w3.org/2000/svg">
<path fill-rule="evenodd" clip-rule="evenodd" d="M12.1574 11.7779C12.7068 10.9556 13 9.98891 13 9H14C14 10.1867 13.6481 11.3467 12.9888 12.3334C12.3295 13.3201 11.3925 14.0892 10.2961 14.5433C9.19975 14.9974 7.99335 15.1162 6.82946 14.8847C5.66558 14.6532 4.59648 14.0818 3.75736 13.2426C2.91825 12.4035 2.3468 11.3344 2.11529 10.1705C1.88378 9.00666 2.0026 7.80026 2.45673 6.7039C2.91085 5.60754 3.67989 4.67047 4.66658 4.01118C5.65328 3.35189 6.81331 3 8 3H10V0.5L13 3.5L10 6.5V4H8C7.0111 4 6.0444 4.29324 5.22215 4.84265C4.39991 5.39206 3.75904 6.17295 3.38061 7.08658C3.00217 8.00021 2.90315 9.00555 3.09608 9.97545C3.289 10.9454 3.76521 11.8363 4.46447 12.5355C5.16373 13.2348 6.05465 13.711 7.02455 13.9039C7.99446 14.0969 8.99979 13.9978 9.91342 13.6194C10.8271 13.241 11.6079 12.6001 12.1574 11.7779ZM7.565 7.79003H9.29L9.28 7.16003H7.02L6.875 9.31503L7.47 9.40003C7.53906 9.32262 7.62009 9.25678 7.71 9.20503C7.82742 9.1397 7.96079 9.10852 8.095 9.11503C8.18051 9.10748 8.26664 9.11868 8.34738 9.14785C8.42812 9.17702 8.50152 9.22346 8.56245 9.28392C8.62339 9.34438 8.6704 9.41742 8.70021 9.49792C8.73001 9.57843 8.74188 9.66447 8.735 9.75003V9.78003C8.74664 9.96176 8.68751 10.1409 8.57 10.28C8.50423 10.3438 8.42562 10.3929 8.3394 10.4239C8.25319 10.455 8.16135 10.4673 8.07 10.46C7.97666 10.4637 7.88343 10.4502 7.795 10.42C7.71815 10.3945 7.64565 10.3574 7.58 10.31C7.51607 10.2611 7.4589 10.204 7.41 10.14L7.275 9.93503L6.745 10.34C6.80559 10.4372 6.87416 10.5292 6.95 10.615C7.03025 10.703 7.12289 10.7788 7.225 10.84C7.34058 10.9098 7.46503 10.9636 7.595 11C7.74876 11.0379 7.90665 11.0564 8.065 11.055C8.2712 11.0606 8.47657 11.0267 8.67 10.955C8.83647 10.8966 8.9883 10.8028 9.115 10.68C9.23573 10.5614 9.32952 10.4181 9.39 10.26C9.45545 10.0894 9.4877 9.90779 9.485 9.72503C9.48656 9.5542 9.45603 9.3846 9.395 9.22503C9.33864 9.08108 9.25358 8.95009 9.145 8.84003C9.04044 8.73426 8.91422 8.65238 8.775 8.60003C8.62793 8.54517 8.47196 8.51804 8.315 8.52003C8.21355 8.51807 8.11239 8.53156 8.015 8.56003C7.9359 8.58613 7.86159 8.62498 7.795 8.67503C7.73145 8.72466 7.67581 8.78367 7.63 8.85003C7.58266 8.92265 7.53927 8.99776 7.5 9.07503L7.565 7.79003Z" fill="black"/>
</svg>
