<svg width="16" height="16" viewBox="0 0 16 16" fill="none" xmlns="http://www.w3.org/2000/svg">
<path fill-rule="evenodd" clip-rule="evenodd" d="M13 9C13 9.98891 12.7068 10.9556 12.1574 11.7779C11.6079 12.6001 10.8271 13.241 9.91342 13.6194C8.99979 13.9978 7.99446 14.0969 7.02455 13.9039C6.05465 13.711 5.16373 13.2348 4.46447 12.5355C3.76521 11.8363 3.289 10.9454 3.09608 9.97545C2.90315 9.00555 3.00217 8.00021 3.38061 7.08658C3.75904 6.17295 4.39991 5.39206 5.22215 4.84265C6.0444 4.29324 7.0111 4 8 4H10V6.5L13 3.5L10 0.5V3H8C6.81331 3 5.65328 3.35189 4.66658 4.01118C3.67989 4.67047 2.91085 5.60754 2.45673 6.7039C2.0026 7.80026 1.88378 9.00666 2.11529 10.1705C2.3468 11.3344 2.91825 12.4035 3.75736 13.2426C4.59648 14.0818 5.66558 14.6532 6.82946 14.8847C7.99335 15.1162 9.19975 14.9974 10.2961 14.5433C11.3925 14.0892 12.3295 13.3201 12.9888 12.3334C13.6481 11.3467 14 10.1867 14 9H13ZM9.82 11.0649C9.59902 11.0709 9.37974 11.0247 9.18 10.9299C9.00154 10.8413 8.84844 10.7088 8.735 10.5449C8.616 10.3543 8.53612 10.1418 8.5 9.91995C8.43845 9.64431 8.40991 9.36233 8.415 9.07995C8.41047 8.79759 8.439 8.51567 8.5 8.23995C8.54467 8.01652 8.63302 7.80413 8.76 7.61495C8.87344 7.45109 9.02654 7.31864 9.205 7.22995C9.40474 7.13522 9.62402 7.08897 9.845 7.09495C10.0527 7.07914 10.2611 7.1168 10.4501 7.20432C10.6392 7.29185 10.8027 7.42633 10.925 7.59495C11.1806 8.03925 11.3022 8.54807 11.275 9.05995C11.3022 9.57183 11.1806 10.0806 10.925 10.5249C10.8051 10.7048 10.6397 10.8495 10.4455 10.9444C10.2514 11.0393 10.0355 11.0809 9.82 11.0649ZM9.82 10.4549C9.92144 10.4656 10.0237 10.4449 10.1131 10.3958C10.2025 10.3466 10.2747 10.2713 10.32 10.1799C10.4299 9.94399 10.4814 9.68501 10.47 9.42495V8.73495C10.482 8.47645 10.4305 8.21895 10.32 7.98495C10.2647 7.89929 10.1888 7.82886 10.0993 7.78009C10.0098 7.73132 9.90945 7.70577 9.8075 7.70577C9.70555 7.70577 9.60523 7.73132 9.5157 7.78009C9.42617 7.82886 9.35029 7.89929 9.295 7.98495C9.18644 8.21945 9.13667 8.47688 9.15 8.73495V9.42495C9.13725 9.68459 9.18697 9.9435 9.295 10.1799C9.34175 10.2758 9.41792 10.3541 9.51236 10.4036C9.60681 10.4531 9.71461 10.4711 9.82 10.4549ZM6.81 8.57495C6.66544 8.67955 6.48757 8.72757 6.31 8.70995H5.94V9.31495H6.32C6.507 9.30469 6.69246 9.35369 6.85 9.45495C6.90935 9.50306 6.95688 9.56413 6.98895 9.63347C7.02102 9.70281 7.03677 9.77858 7.035 9.85495V9.89495C7.0382 9.97377 7.0247 10.0524 6.99541 10.1256C6.96611 10.1989 6.92167 10.2651 6.865 10.32C6.72274 10.4303 6.54451 10.4838 6.365 10.47C6.26881 10.4721 6.17282 10.4603 6.08 10.435C5.9996 10.4106 5.92363 10.3734 5.855 10.325C5.78799 10.2762 5.72749 10.2191 5.675 10.155C5.62265 10.0889 5.57582 10.0187 5.535 9.94495L5 10.35C5.06554 10.4476 5.13913 10.5396 5.22 10.625C5.30313 10.7118 5.39726 10.7875 5.5 10.85C5.61924 10.9182 5.74703 10.9704 5.88 11.005C6.04378 11.0437 6.21171 11.0622 6.38 11.06C6.57465 11.0632 6.76863 11.0362 6.955 10.98C7.11619 10.9337 7.26718 10.8573 7.4 10.755C7.52346 10.6593 7.62278 10.536 7.69 10.395C7.75946 10.2518 7.79375 10.0941 7.79 9.93495C7.79208 9.81067 7.77176 9.68703 7.73 9.56995C7.68955 9.4692 7.63204 9.37617 7.56 9.29495C7.48771 9.21614 7.4012 9.15168 7.305 9.10495C7.20553 9.05516 7.09946 9.0198 6.99 8.99995V8.96995C7.08903 8.94947 7.18488 8.91583 7.275 8.86995C7.36278 8.82341 7.4422 8.76258 7.51 8.68995C7.5776 8.61291 7.63169 8.52501 7.67 8.42995C7.70729 8.32224 7.7259 8.20894 7.725 8.09495C7.72723 7.95155 7.69643 7.80955 7.635 7.67995C7.56917 7.55644 7.477 7.4489 7.365 7.36495C7.24285 7.27192 7.10351 7.20395 6.955 7.16495C6.78234 7.11765 6.60403 7.09409 6.425 7.09495C6.27841 7.09192 6.13208 7.10874 5.99 7.14495C5.86732 7.17245 5.74937 7.21794 5.64 7.27995C5.54202 7.33512 5.45132 7.4023 5.37 7.47995C5.2914 7.56027 5.21793 7.64543 5.15 7.73495L5.615 8.14995C5.70051 8.01185 5.8169 7.89546 5.955 7.80995C6.08892 7.72849 6.24328 7.68687 6.4 7.68995C6.55038 7.68127 6.69852 7.72946 6.815 7.82495C6.86563 7.87183 6.90532 7.92929 6.93124 7.99323C6.95717 8.05718 6.96869 8.12605 6.965 8.19495V8.23495C6.96716 8.29974 6.95429 8.36415 6.9274 8.42314C6.9005 8.48213 6.86032 8.53409 6.81 8.57495Z" fill="black"/>
</svg>
