<svg width="16" height="16" viewBox="0 0 16 16" fill="none" xmlns="http://www.w3.org/2000/svg">
<path fill-rule="evenodd" clip-rule="evenodd" d="M13 9C13 9.98891 12.7068 10.9556 12.1574 11.7779C11.6079 12.6001 10.8271 13.241 9.91342 13.6194C8.99979 13.9978 7.99446 14.0969 7.02455 13.9039C6.05465 13.711 5.16373 13.2348 4.46447 12.5355C3.76521 11.8363 3.289 10.9454 3.09608 9.97545C2.90315 9.00555 3.00217 8.00021 3.38061 7.08658C3.75904 6.17295 4.39991 5.39206 5.22215 4.84265C6.0444 4.29324 7.0111 4 8 4H10V6.5L13 3.5L10 0.5V3H8C6.81331 3 5.65328 3.35189 4.66658 4.01118C3.67989 4.67047 2.91085 5.60754 2.45673 6.7039C2.0026 7.80026 1.88378 9.00666 2.11529 10.1705C2.3468 11.3344 2.91825 12.4035 3.75736 13.2426C4.59648 14.0818 5.66558 14.6532 6.82946 14.8847C7.99335 15.1162 9.19975 14.9974 10.2961 14.5433C11.3925 14.0892 12.3295 13.3201 12.9888 12.3334C13.6481 11.3467 14 10.1867 14 9H13ZM9.81501 11.0649C9.59407 11.0704 9.37493 11.0241 9.17501 10.9299C8.99748 10.8398 8.84471 10.7077 8.73001 10.5449C8.60427 10.3551 8.51602 10.143 8.47001 9.91995C8.41093 9.64392 8.38242 9.36222 8.38501 9.07995C8.38298 8.7977 8.41148 8.51606 8.47001 8.23995C8.51694 8.01722 8.60512 7.80524 8.73001 7.61495C8.84471 7.45223 8.99748 7.32005 9.17501 7.22995C9.37493 7.13576 9.59407 7.08953 9.81501 7.09495C10.0227 7.07914 10.2311 7.1168 10.4201 7.20432C10.6092 7.29185 10.7727 7.42633 10.895 7.59495C11.1528 8.03838 11.2745 8.54786 11.245 9.05995C11.2745 9.57204 11.1528 10.0815 10.895 10.5249C10.7773 10.7009 10.6159 10.8432 10.4265 10.9379C10.2371 11.0326 10.0264 11.0764 9.81501 11.0649ZM9.81501 10.4549C9.91581 10.461 10.0163 10.4383 10.1047 10.3897C10.1932 10.341 10.2661 10.2683 10.315 10.1799C10.4345 9.94607 10.4978 9.68757 10.5 9.42495V8.73495C10.5108 8.47706 10.4612 8.22022 10.355 7.98495C10.2991 7.89932 10.2228 7.82898 10.1328 7.78029C10.0429 7.7316 9.94226 7.7061 9.84001 7.7061C9.73775 7.7061 9.63711 7.7316 9.54718 7.78029C9.45726 7.82898 9.3809 7.89932 9.32501 7.98495C9.21885 8.22022 9.16919 8.47706 9.18001 8.73495V9.42495C9.1697 9.68441 9.21931 9.94276 9.32501 10.1799C9.3727 10.2671 9.44393 10.3391 9.53056 10.3877C9.6172 10.4363 9.71577 10.4596 9.81501 10.4549ZM5.315 10.41V11H7.89V10.385H7V7.13501H6.27L5.11 7.78501L5.385 8.31501L6.315 7.81501V10.41H5.315Z" fill="black"/>
</svg>
