<svg width="16" height="16" viewBox="0 0 16 16" fill="none" xmlns="http://www.w3.org/2000/svg">
<path fill-rule="evenodd" clip-rule="evenodd" d="M1.12948 9.33988C1.35427 10.4924 1.86532 11.5699 2.61562 12.4732L3.38442 11.8338C2.74146 11.0596 2.30353 10.136 2.11093 9.1482C1.91832 8.16037 1.97722 7.13997 2.28221 6.18086C2.5872 5.22176 3.12848 4.35475 3.85626 3.65959C4.58403 2.96443 5.47494 2.46346 6.44702 2.20274L6.18897 1.23669C5.05473 1.5407 4.01518 2.12509 3.16596 2.9361C2.31674 3.7471 1.68514 4.75867 1.32927 5.87771C0.973398 6.99676 0.904696 8.18733 1.12948 9.33988ZM5.00002 14.5H4.00002V12.59L4.40187 12.5097C5.13087 12.364 6.00002 11.8103 6.00002 10V9.3091L4.00002 8.3091V7.1909L6.00002 6.1909V6C6.00002 3.26635 7.96267 1.5 11 1.5H12V3.41L11.5982 3.49035C10.8692 3.636 10 4.1897 10 6V6.1909L12 7.1909V8.3091L10 9.3091V10C10 12.7337 8.03736 14.5 5.00002 14.5ZM5.00002 13.5C7.46732 13.5 9.00002 12.1589 9.00002 10V8.6909L10.8821 7.75L9.00002 6.8091V6C9.00002 3.71095 10.1927 2.9038 11 2.62V2.5C8.53272 2.5 7.00002 3.84105 7.00002 6V6.8091L5.11792 7.75L7.00002 8.6909V10C7.00002 12.2891 5.80737 13.0962 5.00002 13.38V13.5ZM9.81311 14.7628L9.55501 13.7967C10.5268 13.5357 11.4174 13.0346 12.1449 12.3394C12.8724 11.6441 13.4134 10.7771 13.7182 9.81815C14.0229 8.85915 14.0817 7.83892 13.889 6.85127C13.6964 5.86363 13.2585 4.94028 12.6156 4.16613L13.3844 3.52673C14.1346 4.42991 14.6456 5.50722 14.8704 6.65958C15.0953 7.81194 15.0267 9.00234 14.6711 10.1213C14.3154 11.2402 13.6841 12.2517 12.8352 13.0628C11.9863 13.8739 10.9471 14.4585 9.81311 14.7628Z" fill="black"/>
</svg>
