<svg width="16" height="16" viewBox="0 0 16 16" fill="none" xmlns="http://www.w3.org/2000/svg">
<path fill-rule="evenodd" clip-rule="evenodd" d="M9.5 2.00001V3.00001H6.95665L6.63845 6.50001H9V7.50001H6.5476L6.0393 13.0906C6.01774 13.3395 5.90334 13.5712 5.71883 13.7397C5.53433 13.9082 5.2932 14.0011 5.04335 14H2.5V13H5.04335L5.54335 7.50001H3.5V6.50001H5.6343L5.9607 2.90941C5.98226 2.66049 6.09666 2.42878 6.28117 2.26031C6.46567 2.09183 6.7068 1.99891 6.95665 2.00001H9.5ZM12 9H13L11.549 11.5L13 14H12L11 12.1005L10 14H9L10.4525 11.5L9 9H10L11 10.9485L12 9Z" fill="black"/>
</svg>
