<svg width="16" height="16" viewBox="0 0 16 16" fill="none" xmlns="http://www.w3.org/2000/svg">
<path fill-rule="evenodd" clip-rule="evenodd" d="M3.03501 12.905C3.26973 12.9685 3.51185 13.0004 3.75501 13C4.22397 12.995 4.68374 12.8693 5.09001 12.635C5.40819 12.451 5.68656 12.2054 5.9089 11.9127C6.13123 11.62 6.29308 11.2859 6.38501 10.93L6.50001 10.5H9.5L9.59 10.94C9.68193 11.2959 9.84378 11.63 10.0661 11.9227C10.2884 12.2154 10.5668 12.461 10.885 12.645C11.1958 12.825 11.5393 12.9416 11.8954 12.988C12.2516 13.0343 12.6135 13.0095 12.96 12.915C13.6677 12.7152 14.2684 12.2451 14.6323 11.6061C14.9962 10.9671 15.0942 10.2106 14.905 9.50002L13.74 5.07002C13.6473 4.71444 13.4852 4.38073 13.2629 4.0881C13.0406 3.79548 12.7627 3.54973 12.445 3.36502C12.1342 3.185 11.7907 3.06843 11.4346 3.02209C11.0784 2.97574 10.7165 3.00053 10.37 3.09502C10.0012 3.19647 9.65776 3.37385 9.36157 3.6158C9.06537 3.85775 8.823 4.15893 8.65 4.50002H7.35001C7.17625 4.15947 6.93364 3.85874 6.63756 3.61688C6.34148 3.37502 5.99838 3.19731 5.63001 3.09502C5.28347 3.00053 4.92163 2.97574 4.56545 3.02209C4.20927 3.06843 3.86582 3.185 3.55501 3.36502C3.23579 3.5502 2.9568 3.79731 2.73441 4.09182C2.51203 4.38633 2.35073 4.72231 2.26001 5.08002L1.09501 9.50002C0.908615 10.2085 1.00735 10.9619 1.37004 11.5985C1.73272 12.235 2.33046 12.7041 3.03501 12.905ZM4.05501 4.23002C4.31697 4.08029 4.61327 4.00105 4.91501 4.00002C5.06698 4.00028 5.21827 4.02045 5.36501 4.06002C5.63732 4.13711 5.88732 4.27802 6.09428 4.47107C6.30124 4.66411 6.45918 4.90372 6.55501 5.17002L6.67501 5.50002H9.325L9.445 5.17002C9.53998 4.90408 9.69705 4.66464 9.90314 4.47158C10.1092 4.27853 10.3584 4.13743 10.63 4.06002C10.8496 4.00049 11.0788 3.98487 11.3044 4.01404C11.5301 4.04321 11.7478 4.1166 11.945 4.23002C12.1483 4.34872 12.3259 4.50666 12.4675 4.69465C12.6091 4.88264 12.712 5.09692 12.77 5.32502L13.935 9.74502C14.0598 10.1998 14.0001 10.6855 13.7688 11.0965C13.5376 11.5075 13.1535 11.8106 12.7 11.94C12.4804 11.9995 12.2512 12.0152 12.0256 11.986C11.7999 11.9568 11.5822 11.8834 11.385 11.77C11.1814 11.6512 11.0032 11.4932 10.8608 11.3053C10.7183 11.1174 10.6144 10.9032 10.555 10.675L10.25 9.50002H5.75001L5.44001 10.675C5.38163 10.9036 5.27813 11.1183 5.13559 11.3063C4.99306 11.4944 4.81436 11.652 4.61001 11.77C4.41373 11.8835 4.19689 11.957 3.97203 11.9862C3.74717 12.0154 3.51876 11.9997 3.30001 11.94C2.84706 11.8094 2.46343 11.5063 2.23156 11.0959C1.9997 10.6854 1.9381 10.2004 2.06001 9.74502L3.22501 5.32502C3.346 4.86463 3.64443 4.47091 4.05501 4.23002ZM4.44443 7.83147C4.60888 7.94135 4.80222 8 5 8C5.26522 8 5.51957 7.89464 5.70711 7.70711C5.89464 7.51957 6 7.26522 6 7C6 6.80222 5.94135 6.60888 5.83147 6.44443C5.72159 6.27998 5.56541 6.15181 5.38268 6.07612C5.19996 6.00043 4.99889 5.98063 4.80491 6.01922C4.61093 6.0578 4.43275 6.15304 4.29289 6.29289C4.15304 6.43275 4.0578 6.61093 4.01922 6.80491C3.98063 6.99889 4.00043 7.19996 4.07612 7.38268C4.15181 7.56541 4.27998 7.72159 4.44443 7.83147ZM11 6.5C11.2761 6.5 11.5 6.27614 11.5 6C11.5 5.72386 11.2761 5.5 11 5.5C10.7239 5.5 10.5 5.72386 10.5 6C10.5 6.27614 10.7239 6.5 11 6.5ZM11.5 8C11.5 8.27614 11.2761 8.5 11 8.5C10.7239 8.5 10.5 8.27614 10.5 8C10.5 7.72386 10.7239 7.5 11 7.5C11.2761 7.5 11.5 7.72386 11.5 8ZM10 7.5C10.2761 7.5 10.5 7.27614 10.5 7C10.5 6.72386 10.2761 6.5 10 6.5C9.72386 6.5 9.5 6.72386 9.5 7C9.5 7.27614 9.72386 7.5 10 7.5ZM12.5 7C12.5 7.27614 12.2761 7.5 12 7.5C11.7239 7.5 11.5 7.27614 11.5 7C11.5 6.72386 11.7239 6.5 12 6.5C12.2761 6.5 12.5 6.72386 12.5 7Z" fill="black"/>
</svg>
