<svg width="16" height="16" viewBox="0 0 16 16" fill="none" xmlns="http://www.w3.org/2000/svg">
<path fill-rule="evenodd" clip-rule="evenodd" d="M9.44003 2.30999C9.89262 2.5143 10.2966 2.81257 10.625 3.18499L11.375 2.52499C10.9527 2.04616 10.4334 1.66267 9.85147 1.39999C9.26957 1.13732 8.63844 1.00146 8 1.00146C7.36156 1.00146 6.73043 1.13732 6.14853 1.39999C5.56663 1.66267 5.04729 2.04616 4.625 2.52499L5.375 3.18499C5.70345 2.81257 6.10738 2.5143 6.55997 2.30999C7.01256 2.10569 7.50344 2.00003 8 2.00003C8.49656 2.00003 8.98744 2.10569 9.44003 2.30999ZM6.875 4.50005L6.125 3.83505C6.3596 3.56904 6.64813 3.35599 6.97141 3.21005C7.29468 3.06412 7.64531 2.98865 8 2.98865C8.35469 2.98865 8.70532 3.06412 9.02859 3.21005C9.35187 3.35599 9.6404 3.56904 9.875 3.83505L9.125 4.50005C8.98424 4.34044 8.81112 4.21261 8.61716 4.12505C8.42319 4.03749 8.21281 3.99221 8 3.99221C7.78719 3.99221 7.57681 4.03749 7.38284 4.12505C7.18888 4.21261 7.01576 4.34044 6.875 4.50005ZM3.03501 14.905C3.26973 14.9685 3.51185 15.0004 3.75501 15C4.22397 14.995 4.68374 14.8693 5.09001 14.635C5.40819 14.451 5.68656 14.2054 5.9089 13.9127C6.13123 13.62 6.29308 13.2859 6.38501 12.93L6.50001 12.5H9.5L9.59 12.94C9.68193 13.2959 9.84378 13.63 10.0661 13.9227C10.2884 14.2154 10.5668 14.461 10.885 14.645C11.1958 14.825 11.5393 14.9416 11.8954 14.988C12.2516 15.0343 12.6135 15.0095 12.96 14.915C13.6677 14.7152 14.2684 14.2451 14.6323 13.6061C14.9962 12.9671 15.0942 12.2106 14.905 11.5L13.74 7.07002C13.6478 6.71423 13.4859 6.38029 13.2636 6.0876C13.0413 5.79491 12.763 5.54929 12.445 5.36502C12.1342 5.18499 11.7907 5.06843 11.4346 5.02209C11.0784 4.97574 10.7165 5.00053 10.37 5.09502C10.0012 5.19647 9.65776 5.37385 9.36157 5.6158C9.06537 5.85775 8.823 6.15893 8.65 6.50002H7.35001C7.17517 6.16133 6.93208 5.86253 6.63606 5.62244C6.34003 5.38235 5.99749 5.20618 5.63001 5.10502C5.28347 5.01053 4.92163 4.98574 4.56545 5.03209C4.20927 5.07843 3.86582 5.19499 3.55501 5.37502C3.23682 5.55908 2.95845 5.80462 2.73611 6.09734C2.51378 6.39007 2.35193 6.72412 2.26001 7.08002L1.09501 11.5C0.908615 12.2086 1.00735 12.9619 1.37004 13.5985C1.73272 14.235 2.33046 14.7041 3.03501 14.905ZM4.05501 6.23002C4.31697 6.08029 4.61327 6.00105 4.91501 6.00002C5.06698 6.00028 5.21827 6.02045 5.36501 6.06002C5.63732 6.13711 5.88732 6.27802 6.09428 6.47107C6.30124 6.66411 6.45918 6.90372 6.55501 7.17002L6.67501 7.50002H9.325L9.445 7.17002C9.53998 6.90408 9.69705 6.66464 9.90314 6.47158C10.1092 6.27853 10.3584 6.13743 10.63 6.06002C10.8496 6.00049 11.0788 5.98487 11.3044 6.01404C11.5301 6.04321 11.7478 6.1166 11.945 6.23002C12.1486 6.34828 12.3265 6.50609 12.4682 6.69414C12.6099 6.8822 12.7125 7.0967 12.77 7.32502L13.935 11.745C14.0598 12.1998 14.0001 12.6855 13.7688 13.0965C13.5376 13.5075 13.1535 13.8106 12.7 13.94C12.4804 13.9995 12.2512 14.0152 12.0256 13.986C11.7999 13.9568 11.5822 13.8834 11.385 13.77C10.9744 13.5291 10.676 13.1354 10.555 12.675L10.25 11.5H5.75001L5.44001 12.675C5.38085 12.9033 5.27705 13.1176 5.13459 13.3056C4.99212 13.4935 4.81383 13.6514 4.61001 13.77C4.41373 13.8835 4.19689 13.957 3.97203 13.9862C3.74717 14.0154 3.51876 13.9997 3.30001 13.94C2.84706 13.8094 2.46343 13.5063 2.23156 13.0959C1.9997 12.6854 1.9381 12.2004 2.06001 11.745L3.22501 7.32502C3.28441 7.09683 3.38832 6.88262 3.53076 6.69471C3.67319 6.5068 3.85135 6.34888 4.05501 6.23002ZM4.44443 9.83147C4.60888 9.94135 4.80222 10 5 10C5.26522 10 5.51957 9.89464 5.70711 9.70711C5.89464 9.51957 6 9.26522 6 9C6 8.80222 5.94135 8.60888 5.83147 8.44443C5.72159 8.27998 5.56541 8.15181 5.38268 8.07612C5.19996 8.00043 4.99889 7.98063 4.80491 8.01922C4.61093 8.0578 4.43275 8.15304 4.29289 8.29289C4.15304 8.43275 4.0578 8.61093 4.01922 8.80491C3.98063 8.99889 4.00043 9.19996 4.07612 9.38268C4.15181 9.56541 4.27998 9.72159 4.44443 9.83147ZM11 8.5C11.2761 8.5 11.5 8.27614 11.5 8C11.5 7.72386 11.2761 7.5 11 7.5C10.7239 7.5 10.5 7.72386 10.5 8C10.5 8.27614 10.7239 8.5 11 8.5ZM11.5 10C11.5 10.2761 11.2761 10.5 11 10.5C10.7239 10.5 10.5 10.2761 10.5 10C10.5 9.72386 10.7239 9.5 11 9.5C11.2761 9.5 11.5 9.72386 11.5 10ZM10 9.5C10.2761 9.5 10.5 9.27614 10.5 9C10.5 8.72386 10.2761 8.5 10 8.5C9.72386 8.5 9.5 8.72386 9.5 9C9.5 9.27614 9.72386 9.5 10 9.5ZM12.5 9C12.5 9.27614 12.2761 9.5 12 9.5C11.7239 9.5 11.5 9.27614 11.5 9C11.5 8.72386 11.7239 8.5 12 8.5C12.2761 8.5 12.5 8.72386 12.5 9Z" fill="black"/>
</svg>
