<svg width="16" height="16" viewBox="0 0 16 16" fill="none" xmlns="http://www.w3.org/2000/svg">
<path d="M11.5 11.5H11.4343L11.916 10.7773C11.9707 10.6952 12 10.5987 12 10.5V6.00024C12 1.05734 8.04001 1.00024 8.00001 1.00024C7.86744 1.00024 7.7403 1.05289 7.64654 1.1466C7.55278 1.24032 7.50007 1.36743 7.50001 1.49999L7.49976 2.49999H7.00001C6.8958 2.49991 6.79419 2.53252 6.70951 2.59324L3.20951 5.09324C3.12248 5.15539 3.05766 5.24379 3.02458 5.34548C2.9915 5.44717 2.9919 5.55679 3.02571 5.65824L3.52571 7.15824C3.56257 7.26941 3.63738 7.36407 3.73702 7.42562C3.83667 7.48717 3.95479 7.51169 4.07071 7.49489L6.50571 7.14699L4.57596 10.235C4.52495 10.3166 4.49857 10.4112 4.5 10.5074C4.50143 10.6037 4.5306 10.6974 4.58401 10.7775L5.06576 11.5H5.00001C4.60232 11.5004 4.22104 11.6586 3.93983 11.9398C3.65862 12.221 3.50044 12.6023 3.50001 13V15H13V13C12.9996 12.6023 12.8414 12.221 12.5602 11.9398C12.279 11.6586 11.8977 11.5004 11.5 11.5ZM7.92406 6.76499C7.97459 6.68418 8.00096 6.5906 8.00008 6.49529C7.9992 6.39998 7.97109 6.30691 7.91907 6.22704C7.86705 6.14717 7.79329 6.08384 7.70647 6.0445C7.61966 6.00516 7.5234 5.99145 7.42906 6.00499L4.34216 6.44594L4.09091 5.69204L7.16001 3.50024H7.99951C8.13207 3.50024 8.25921 3.4476 8.35297 3.35389C8.44673 3.26017 8.49944 3.13306 8.49951 3.00049L8.50001 2.06444C9.25066 2.23179 10.6084 2.83499 10.93 4.99999H9.50001V5.99999H11V6.99999H9.50001V7.99999H11V8.99999H9.50001V9.99999H11V10.3486L10.2324 11.5H6.26741L5.59501 10.4912L7.92406 6.76499ZM12 14H4.50001V13C4.50013 12.8674 4.55284 12.7403 4.64658 12.6466C4.74033 12.5528 4.86743 12.5001 5.00001 12.5H11.5C11.6326 12.5001 11.7597 12.5528 11.8535 12.6465C11.9472 12.7403 11.9999 12.8674 12 13V14Z" fill="black"/>
</svg>
