<svg width="16" height="16" viewBox="0 0 16 16" fill="none" xmlns="http://www.w3.org/2000/svg">
<path fill-rule="evenodd" clip-rule="evenodd" d="M11.7071 1.5L14.2071 4C14.3 4.09287 14.3736 4.20312 14.4239 4.32447C14.4741 4.44581 14.5 4.57586 14.5 4.7072V12.25C14.4997 12.5109 14.4411 12.7685 14.3285 13.0039C14.216 13.2393 14.0523 13.4466 13.8494 13.6107C13.6465 13.7748 13.4095 13.8916 13.1558 13.9524C12.9021 14.0133 12.6379 14.0168 12.3827 13.9626C11.9854 13.8712 11.6314 13.6464 11.3798 13.3257C11.1282 13.0049 10.9941 12.6076 11 12.2V8.5H9.5V13H10.5V14H1V13H2V2.5C2 2.36739 2.05268 2.24021 2.14645 2.14645C2.24021 2.05268 2.36739 2 2.5 2H9C9.13261 2 9.25979 2.05268 9.35355 2.14645C9.44732 2.24021 9.5 2.36739 9.5 2.5V7.5H11.5C11.6326 7.5 11.7598 7.55268 11.8536 7.64645C11.9473 7.74021 12 7.86739 12 8V12.25C12 12.4489 12.079 12.6397 12.2197 12.7803C12.3603 12.921 12.5511 13 12.75 13C12.9489 13 13.1397 12.921 13.2803 12.7803C13.421 12.6397 13.5 12.4489 13.5 12.25V7C13.2349 6.9997 12.9807 6.89424 12.7932 6.70677C12.6058 6.5193 12.5003 6.26512 12.5 6V3.70705L11 2.20705L11.7071 1.5ZM3 13H8.5V3H3V13ZM4 5H7.5V6H4V5Z" fill="black"/>
</svg>
