<svg width="16" height="16" viewBox="0 0 16 16" fill="none" xmlns="http://www.w3.org/2000/svg">
<g clip-path="url(#clip0_3_12727)">
<path fill-rule="evenodd" clip-rule="evenodd" d="M15.4238 8.38266C15.3736 8.50397 15.2999 8.6142 15.207 8.70704L12.3137 11.6003L13.764 13.0317C13.9774 12.9791 14.2023 12.9983 14.4037 13.0865C14.6051 13.1746 14.7718 13.3267 14.878 13.5192C14.9842 13.7117 15.0239 13.9339 14.9909 14.1513C14.958 14.3686 14.8543 14.5691 14.6959 14.7215C14.5375 14.874 14.3332 14.9699 14.1147 14.9944C13.8963 15.019 13.6758 14.9708 13.4875 14.8573C13.2992 14.7438 13.1536 14.5713 13.0733 14.3667C12.993 14.162 12.9824 13.9366 13.0432 13.7253L11.6065 12.3076L8.70714 15.207C8.6143 15.2999 8.50407 15.3736 8.38276 15.4238C8.26144 15.4741 8.13141 15.5 8.00009 15.5C7.86877 15.5 7.73874 15.4741 7.61742 15.4238C7.49611 15.3736 7.38588 15.2999 7.29304 15.207L4.39974 12.3137L2.96849 13.7641C3.02106 13.9776 3.00177 14.2024 2.9136 14.4037C2.82543 14.6051 2.6733 14.7717 2.4808 14.8778C2.2883 14.9839 2.06617 15.0236 1.84885 14.9906C1.63153 14.9576 1.43115 14.8539 1.27877 14.6955C1.12639 14.5371 1.03051 14.3328 1.00601 14.1144C0.981504 13.896 1.02974 13.6755 1.14323 13.4873C1.25673 13.2991 1.42914 13.1535 1.63376 13.0732C1.83838 12.9929 2.06376 12.9824 2.27499 13.0432L3.69239 11.6064L0.79294 8.70704C0.700069 8.6142 0.626397 8.50397 0.576134 8.38266C0.525871 8.26134 0.5 8.13131 0.5 7.99999C0.5 7.86867 0.525871 7.73864 0.576134 7.61732C0.626397 7.49601 0.700069 7.38578 0.79294 7.29294L3.69249 4.39354L2.27499 2.95679C2.06329 3.01805 1.83728 3.00774 1.63204 2.92744C1.4268 2.84715 1.25379 2.70136 1.13986 2.51271C1.02593 2.32405 0.977448 2.10307 1.00193 1.88404C1.02641 1.66501 1.1225 1.46019 1.27527 1.30135C1.42804 1.1425 1.62897 1.03852 1.84688 1.00552C2.06478 0.972529 2.28749 1.01237 2.48044 1.11887C2.67339 1.22536 2.8258 1.39256 2.91403 1.59452C3.00225 1.79648 3.02136 2.02191 2.96839 2.23584L4.39964 3.68629L7.29294 0.79294C7.38578 0.700069 7.49601 0.626397 7.61732 0.576134C7.73864 0.525871 7.86867 0.5 7.99999 0.5C8.13131 0.5 8.26134 0.525871 8.38266 0.576134C8.50397 0.626397 8.6142 0.700069 8.70704 0.79294L11.6064 3.69239L13.0431 2.27464C12.9819 2.06294 12.9923 1.83697 13.0726 1.63178C13.153 1.42659 13.2988 1.25365 13.4875 1.13979C13.6761 1.02593 13.8971 0.97751 14.1161 1.00205C14.3351 1.02659 14.5399 1.12271 14.6986 1.2755C14.8574 1.4283 14.9613 1.62922 14.9943 1.84711C15.0272 2.06499 14.9873 2.28766 14.8808 2.48056C14.7743 2.67347 14.6071 2.82582 14.4051 2.914C14.2032 3.00218 13.9778 3.02124 13.7639 2.96824L12.3136 4.39964L15.207 7.29294C15.2999 7.38578 15.3736 7.49601 15.4238 7.61732C15.4741 7.73864 15.5 7.86867 15.5 7.99999C15.5 8.13131 15.4741 8.26134 15.4238 8.38266ZM1.49999 7.99999L7.99999 14.5L14.5 7.99999L7.99999 1.49999L1.49999 7.99999ZM10 6V7.13915C10.1515 7.2262 10.2774 7.35157 10.3652 7.50266C10.453 7.65375 10.4995 7.82527 10.5 8V10.5C10.4997 10.7651 10.3942 11.0193 10.2068 11.2068C10.0193 11.3942 9.76512 11.4997 9.5 11.5H6.5C6.23488 11.4997 5.9807 11.3942 5.79323 11.2068C5.60576 11.0193 5.5003 10.7651 5.5 10.5V8C5.50055 7.82527 5.54703 7.65375 5.63479 7.50266C5.72255 7.35157 5.8485 7.2262 6 7.13915V6C6 5.46957 6.21071 4.96086 6.58579 4.58579C6.96086 4.21071 7.46957 4 8 4C8.53043 4 9.03914 4.21071 9.41421 4.58579C9.78929 4.96086 10 5.46957 10 6ZM8.70677 5.29323C8.5193 5.10576 8.26512 5.0003 8 5C7.73488 5.0003 7.4807 5.10576 7.29323 5.29323C7.10576 5.4807 7.0003 5.73488 7 6V7H9V6C8.9997 5.73488 8.89424 5.4807 8.70677 5.29323ZM6.5 10.5H9.5V8H6.5V10.5Z" fill="black"/>
</g>
<defs>
<clipPath id="clip0_3_12727">
<rect width="16" height="16" fill="white"/>
</clipPath>
</defs>
</svg>
