<svg width="16" height="16" viewBox="0 0 16 16" fill="none" xmlns="http://www.w3.org/2000/svg">
<g clip-path="url(#clip0_3_12739)">
<path d="M15.5 8.00002C15.5004 7.86865 15.4747 7.7385 15.4244 7.61713C15.3741 7.49576 15.3002 7.38558 15.2071 7.29297L12.3106 4.39652L13.7445 2.96267C13.9571 3.01967 14.1826 3.00491 14.386 2.92068C14.5894 2.83646 14.7593 2.68747 14.8694 2.49683C14.9795 2.30619 15.0236 2.08455 14.9949 1.8663C14.9662 1.64804 14.8662 1.44536 14.7106 1.28969C14.5549 1.13402 14.3522 1.03407 14.134 1.00533C13.9157 0.976591 13.6941 1.02068 13.5034 1.13074C13.3128 1.24081 13.1638 1.41072 13.0795 1.6141C12.9953 1.81749 12.9805 2.04298 13.0375 2.25562L11.6035 3.68947L8.70706 0.79297C8.61422 0.700099 8.50399 0.626428 8.38267 0.576164C8.26135 0.525901 8.13132 0.500031 8.00001 0.500031C7.86869 0.500031 7.73866 0.525901 7.61734 0.576164C7.49602 0.626428 7.3858 0.700099 7.29296 0.79297L4.39651 3.68947L2.96251 2.25562C3.01949 2.04298 3.00471 1.81749 2.92047 1.6141C2.83623 1.41072 2.68723 1.24081 2.49659 1.13074C2.30594 1.02068 2.0843 0.976591 1.86604 1.00533C1.64779 1.03407 1.44511 1.13402 1.28946 1.28969C1.1338 1.44536 1.03386 1.64804 1.00514 1.8663C0.976413 2.08455 1.02051 2.30619 1.1306 2.49683C1.24068 2.68747 1.41059 2.83646 1.61398 2.92068C1.81737 3.00491 2.04287 3.01967 2.25551 2.96267L3.68946 4.39652L0.792955 7.29297C0.700084 7.38581 0.626413 7.49604 0.576149 7.61735C0.525886 7.73867 0.500015 7.8687 0.500015 8.00002C0.500015 8.13134 0.525886 8.26137 0.576149 8.38269C0.626413 8.504 0.700084 8.61423 0.792955 8.70707L3.68946 11.6035L2.25551 13.0374C2.04287 12.9804 1.81737 12.9951 1.61398 13.0794C1.41059 13.1636 1.24068 13.3126 1.1306 13.5032C1.02051 13.6938 0.976413 13.9155 1.00514 14.1337C1.03386 14.352 1.1338 14.5547 1.28946 14.7104C1.44511 14.866 1.64779 14.966 1.86604 14.9947C2.0843 15.0235 2.30594 14.9794 2.49659 14.8693C2.68723 14.7592 2.83623 14.5893 2.92047 14.3859C3.00471 14.1826 3.01949 13.9571 2.96251 13.7444L4.39651 12.3106L7.29296 15.2071C7.3858 15.2999 7.49602 15.3736 7.61734 15.4239C7.73866 15.4741 7.86869 15.5 8.00001 15.5C8.13132 15.5 8.26135 15.4741 8.38267 15.4239C8.50399 15.3736 8.61422 15.2999 8.70706 15.2071L11.6035 12.3106L13.0375 13.7444C12.9805 13.9571 12.9953 14.1826 13.0795 14.3859C13.1638 14.5893 13.3128 14.7592 13.5034 14.8693C13.6941 14.9794 13.9157 15.0235 14.134 14.9947C14.3522 14.966 14.5549 14.866 14.7106 14.7104C14.8662 14.5547 14.9662 14.352 14.9949 14.1337C15.0236 13.9155 14.9795 13.6938 14.8694 13.5032C14.7593 13.3126 14.5894 13.1636 14.386 13.0794C14.1826 12.9951 13.9571 12.9804 13.7445 13.0374L12.3106 11.6035L15.2071 8.70707C15.3002 8.61445 15.3741 8.50426 15.4244 8.38289C15.4746 8.26153 15.5004 8.13139 15.5 8.00002ZM11.6035 10.8965L10.2071 9.50002L9.50001 10.2071L10.8965 11.6035L8.00001 14.5L5.10351 11.6035L6.50001 10.2071L5.79296 9.50002L4.39651 10.8965L1.50001 8.00002L4.39626 5.10327L5.79296 6.50002L6.50001 5.79297L5.10326 4.39627L8.00001 1.50002L10.8968 4.39627L9.50001 5.79297L10.2071 6.50002L11.6038 5.10327L14.5 8.00002L11.6035 10.8965Z" fill="black"/>
</g>
<defs>
<clipPath id="clip0_3_12739">
<rect width="16" height="16" fill="white"/>
</clipPath>
</defs>
</svg>
