<svg width="16" height="16" viewBox="0 0 16 16" fill="none" xmlns="http://www.w3.org/2000/svg">
<path d="M8.50001 9.96536C9.50953 9.83817 10.4326 9.33104 11.0814 8.54721C11.7302 7.76337 12.0559 6.76175 11.9922 5.74624C11.9284 4.73074 11.4801 3.77768 10.7384 3.08109C9.99677 2.3845 9.01751 1.99673 8.00001 1.99673C6.9825 1.99673 6.00324 2.3845 5.26157 3.08109C4.5199 3.77768 4.07158 4.73074 4.00786 5.74624C3.94414 6.76175 4.26982 7.76337 4.9186 8.54721C5.56737 9.33104 6.49048 9.83817 7.50001 9.96536V11H5.00001V12H7.50001V14H8.50001V12H11V11H8.50001V9.96536ZM5.00001 6.00001C5.00001 5.40667 5.17595 4.82665 5.5056 4.3333C5.83524 3.83995 6.30378 3.45544 6.85196 3.22837C7.40013 3.00131 8.00333 2.9419 8.58528 3.05766C9.16722 3.17341 9.70177 3.45913 10.1213 3.87869C10.5409 4.29825 10.8266 4.8328 10.9424 5.41474C11.0581 5.99668 10.9987 6.59988 10.7716 7.14806C10.5446 7.69624 10.1601 8.16478 9.66672 8.49442C9.17337 8.82407 8.59335 9.00001 8.00001 9.00001C7.20462 8.99914 6.44207 8.68279 5.87965 8.12037C5.31723 7.55795 5.00088 6.79539 5.00001 6.00001Z" fill="black"/>
</svg>
