<svg width="16" height="16" viewBox="0 0 16 16" fill="none" xmlns="http://www.w3.org/2000/svg">
<path d="M8.99999 2V3H12.2929L8.44874 6.84425C7.64232 6.21769 6.6274 5.92207 5.61065 6.01757C4.5939 6.11307 3.65178 6.59251 2.97613 7.35828C2.30047 8.12404 1.9421 9.11854 1.97397 10.1393C2.00585 11.16 2.42558 12.1302 3.14769 12.8523C3.86981 13.5744 4.84 13.9941 5.86073 14.026C6.88146 14.0579 7.87595 13.6995 8.64172 13.0239C9.40748 12.3482 9.88693 11.4061 9.98243 10.3893C10.0779 9.3726 9.7823 8.35768 9.15574 7.55125L13 3.70705V7H14V2H8.99999ZM5.99999 13C5.40665 13 4.82663 12.8241 4.33328 12.4944C3.83994 12.1648 3.45542 11.6962 3.22836 11.1481C3.00129 10.5999 2.94188 9.99667 3.05764 9.41473C3.17339 8.83279 3.45912 8.29824 3.87867 7.87868C4.29823 7.45912 4.83278 7.1734 5.41472 7.05764C5.99667 6.94189 6.59987 7.0013 7.14804 7.22836C7.69622 7.45542 8.16476 7.83994 8.4944 8.33329C8.82405 8.82664 8.99999 9.40666 8.99999 10C8.99912 10.7954 8.68277 11.5579 8.12035 12.1204C7.55793 12.6828 6.79538 12.9991 5.99999 13Z" fill="black"/>
</svg>
