<svg width="16" height="16" viewBox="0 0 16 16" fill="none" xmlns="http://www.w3.org/2000/svg">
<path fill-rule="evenodd" clip-rule="evenodd" d="M2 1H4.5C4.76512 1.0003 5.0193 1.10576 5.20677 1.29323C5.39424 1.4807 5.4997 1.73488 5.5 2V3.5C5.49964 3.76511 5.39417 4.01925 5.20671 4.20671C5.01925 4.39417 4.76511 4.49964 4.5 4.5H3V6H2V1ZM3 2V3.5H4.5005L4.5 2H3ZM14 1V2H12V3H13.5V4H12V6H11V1H14ZM10.5 10.5L9.793 9.793L8.5 11.086V7H7.5V11.086L6.207 9.793L5.5 10.5L8 13L10.5 10.5ZM13 12H12V14H4V12H3V14C3 14.2652 3.10536 14.5196 3.29289 14.7071C3.48043 14.8946 3.73478 15 4 15H12C12.2652 15 12.5196 14.8946 12.7071 14.7071C12.8946 14.5196 13 14.2652 13 14V12ZM8.5 6H6.5V1H8.5C8.89769 1.00044 9.27897 1.15861 9.56018 1.43982C9.84139 1.72103 9.99956 2.10231 10 2.5V4.5C9.99956 4.89769 9.84139 5.27897 9.56018 5.56018C9.27897 5.84139 8.89769 5.99956 8.5 6ZM7.5 5H8.5C8.63256 4.99985 8.75966 4.94713 8.85339 4.85339C8.94713 4.75966 8.99985 4.63256 9 4.5V2.5C8.99985 2.36744 8.94713 2.24034 8.85339 2.14661C8.75966 2.05287 8.63256 2.00015 8.5 2H7.5V5Z" fill="black"/>
</svg>
