<svg width="16" height="16" viewBox="0 0 16 16" fill="none" xmlns="http://www.w3.org/2000/svg">
<path fill-rule="evenodd" clip-rule="evenodd" d="M13.4673 2.82144C13.8196 3.67047 14.0006 4.58074 14 5.49994C13.9971 7.18152 13.3893 8.80592 12.2877 10.0764C11.1861 11.3469 9.66419 12.1788 8 12.4199V13.9999H10V14.9999H5V13.9999H7V12.4999C6.0808 12.5005 5.17053 12.3195 4.3215 11.9673C3.47246 11.615 2.70138 11.0985 2.05255 10.4474L2.75935 9.74059L2.7784 9.75964C3.9057 10.8814 5.4324 11.5095 7.02274 11.5058C8.61307 11.502 10.1368 10.8668 11.2588 9.73971C12.3808 8.61265 13.0092 7.08608 13.0058 5.49574C13.0024 3.9054 12.3675 2.38154 11.2407 1.25929L11.9474 0.55249C12.5986 1.20132 13.1151 1.9724 13.4673 2.82144ZM8.9445 2.58986C8.36893 2.20527 7.69224 2 7 2C6.07174 2 5.18151 2.36875 4.52513 3.02513C3.86875 3.6815 3.5 4.57174 3.5 5.5C3.5 6.19223 3.70527 6.86892 4.08986 7.4445C4.47444 8.02007 5.02107 8.46867 5.66061 8.73358C6.30015 8.99849 7.00388 9.0678 7.68282 8.93275C8.36175 8.7977 8.98539 8.46436 9.47488 7.97487C9.96436 7.48539 10.2977 6.86175 10.4328 6.18282C10.5678 5.50388 10.4985 4.80015 10.2336 4.16061C9.96867 3.52107 9.52007 2.97444 8.9445 2.58986ZM4.49994 1.75839C5.23996 1.26392 6.10999 1 7 1C8.19348 1 9.33807 1.47411 10.182 2.31802C11.0259 3.16193 11.5 4.30653 11.5 5.5C11.5 6.39002 11.2361 7.26004 10.7416 8.00007C10.2471 8.74009 9.54434 9.31686 8.72208 9.65746C7.89981 9.99805 6.99501 10.0872 6.1221 9.91353C5.24918 9.7399 4.44736 9.31132 3.81802 8.68198C3.18868 8.05264 2.7601 7.25082 2.58647 6.37791C2.41283 5.50499 2.50195 4.60019 2.84254 3.77792C3.18314 2.95566 3.75991 2.25285 4.49994 1.75839Z" fill="black"/>
</svg>
