<svg width="16" height="16" viewBox="0 0 16 16" fill="none" xmlns="http://www.w3.org/2000/svg">
<path fill-rule="evenodd" clip-rule="evenodd" d="M3 2H13C13.2651 2.0003 13.5193 2.10576 13.7068 2.29323C13.8942 2.4807 13.9997 2.73488 14 3V13C13.9997 13.2651 13.8942 13.5193 13.7068 13.7068C13.5193 13.8942 13.2651 13.9997 13 14H3C2.73488 13.9997 2.4807 13.8942 2.29323 13.7068C2.10576 13.5193 2.0003 13.2651 2 13V3C2.0003 2.73488 2.10576 2.4807 2.29323 2.29323C2.4807 2.10576 2.73488 2.0003 3 2ZM11 11V13H13V3H11V5H9V3H7V5H5V7H7V9H5V11H7V13H9V11H11ZM9 9H7V11H9V9ZM9 7H7V5H9V7ZM9 7V9H11V7H9Z" fill="black"/>
</svg>
