<svg width="16" height="16" viewBox="0 0 16 16" fill="none" xmlns="http://www.w3.org/2000/svg">
<path fill-rule="evenodd" clip-rule="evenodd" d="M7.25145 8.93382C7.3271 8.9772 7.41279 9.00001 7.5 8.99997C7.57524 8.99995 7.64951 8.98295 7.71727 8.95023C7.78503 8.91751 7.84454 8.86992 7.89134 8.81101C7.93815 8.75209 7.97106 8.68337 7.98761 8.60997C8.00417 8.53657 8.00394 8.46038 7.98695 8.38707L7.4563 6.10117L8.8655 4.59117C8.92705 4.52525 8.96963 4.44391 8.98872 4.35576C9.00781 4.26761 9.0027 4.17594 8.97394 4.09046C8.94517 4.00498 8.89382 3.92887 8.82532 3.8702C8.75683 3.81152 8.67373 3.77247 8.58485 3.75717L6.54665 3.40612L5.44435 1.27062C5.4018 1.18816 5.33714 1.11916 5.25761 1.07135C5.17808 1.02354 5.08681 0.998803 4.99402 0.999914C4.90123 1.00102 4.81058 1.02794 4.73221 1.07763C4.65385 1.12733 4.59086 1.19786 4.5503 1.28132L3.5176 3.40587L1.4176 3.75682C1.32844 3.77172 1.24499 3.81051 1.17613 3.86906C1.10726 3.92761 1.05556 4.00373 1.02651 4.08933C0.99747 4.17493 0.992173 4.2668 1.01119 4.35517C1.0302 4.44354 1.07282 4.5251 1.1345 4.59117L2.5437 6.10092L2.0128 8.38692C1.9908 8.48172 1.99693 8.58087 2.03046 8.67223C2.06398 8.76358 2.12343 8.84317 2.20153 8.90123C2.27962 8.95929 2.37296 8.9933 2.4701 8.99909C2.56724 9.00488 2.66396 8.9822 2.7484 8.93382L5 7.64427L7.25145 8.93382ZM5.24855 6.63427C5.1715 6.58997 5 6.49997 5 6.49997C5 6.49997 4.8285 6.58997 4.75145 6.63427L3.2462 7.49632L3.63825 5.80817L2.501 4.58967L4.19145 4.30717L5.01335 2.61607L5.88615 4.30707L7.5027 4.58552L6.3617 5.80817L6.75355 7.49632L5.24855 6.63427ZM13 9H12V7.5C11.9999 7.36743 11.9471 7.24033 11.8534 7.14659C11.7597 7.05285 11.6326 7.00013 11.5 7H9V6H11.5C11.8977 6.00044 12.279 6.15861 12.5602 6.43982C12.8414 6.72103 12.9996 7.10231 13 7.5V9ZM6 13H9V12H6C5.86743 11.9999 5.74033 11.9471 5.64659 11.8534C5.55285 11.7597 5.50013 11.6326 5.5 11.5V9.5H4.5V11.5C4.50044 11.8977 4.65861 12.279 4.93982 12.5602C5.22103 12.8414 5.60231 12.9996 6 13ZM11 15H14C14.2651 14.9997 14.5193 14.8942 14.7068 14.7068C14.8942 14.5193 14.9997 14.2651 15 14V11C14.9997 10.7349 14.8942 10.4807 14.7068 10.2932C14.5193 10.1058 14.2651 10.0003 14 10H11C10.7349 10.0003 10.4807 10.1058 10.2932 10.2932C10.1058 10.4807 10.0003 10.7349 10 11V14C10.0003 14.2651 10.1058 14.5193 10.2932 14.7068C10.4807 14.8942 10.7349 14.9997 11 15ZM10.9994 11H11H14V14H11L10.9994 11Z" fill="black"/>
</svg>
