<svg width="16" height="16" viewBox="0 0 16 16" fill="none" xmlns="http://www.w3.org/2000/svg">
<path fill-rule="evenodd" clip-rule="evenodd" d="M3 7H13C13.2651 6.9997 13.5193 6.89424 13.7068 6.70677C13.8942 6.5193 13.9997 6.26512 14 6V2C13.9997 1.73488 13.8942 1.4807 13.7068 1.29323C13.5193 1.10576 13.2651 1.0003 13 1H3C2.73488 1.0003 2.4807 1.10576 2.29323 1.29323C2.10576 1.4807 2.0003 1.73488 2 2V6C2.0003 6.26512 2.10576 6.5193 2.29323 6.70677C2.4807 6.89424 2.73488 6.9997 3 7ZM3 6V2H13V6H3ZM11.5 9C11.5 9.55228 11.0523 10 10.5 10C9.94771 10 9.5 9.55228 9.5 9C9.5 8.44772 9.94771 8 10.5 8C11.0523 8 11.5 8.44772 11.5 9ZM8 12C8.55228 12 9 11.5523 9 11C9 10.4477 8.55228 10 8 10C7.44772 10 7 10.4477 7 11C7 11.5523 7.44772 12 8 12ZM4 15V13.5H2V15H1V13.5C1.0003 13.2349 1.10576 12.9807 1.29323 12.7932C1.4807 12.6058 1.73488 12.5003 2 12.5H4C4.26512 12.5003 4.5193 12.6058 4.70677 12.7932C4.89424 12.9807 4.9997 13.2349 5 13.5V15H4ZM15 15H14V13.5H12V15H11V13.5C11.0003 13.2349 11.1058 12.9807 11.2932 12.7932C11.4807 12.6058 11.7349 12.5003 12 12.5H14C14.2651 12.5003 14.5193 12.6058 14.7068 12.7932C14.8942 12.9807 14.9997 13.2349 15 13.5V15ZM9 13.5V15H10V13.5C9.9997 13.2349 9.89424 12.9807 9.70677 12.7932C9.5193 12.6058 9.26512 12.5003 9 12.5H7C6.73488 12.5003 6.4807 12.6058 6.29323 12.7932C6.10576 12.9807 6.0003 13.2349 6 13.5V15H7V13.5H9ZM4 11C4 11.5523 3.55228 12 3 12C2.44772 12 2 11.5523 2 11C2 10.4477 2.44772 10 3 10C3.55228 10 4 10.4477 4 11ZM13 12C13.5523 12 14 11.5523 14 11C14 10.4477 13.5523 10 13 10C12.4477 10 12 10.4477 12 11C12 11.5523 12.4477 12 13 12ZM5.5 10C6.05228 10 6.5 9.55228 6.5 9C6.5 8.44772 6.05228 8 5.5 8C4.94772 8 4.5 8.44772 4.5 9C4.5 9.55228 4.94772 10 5.5 10Z" fill="black"/>
</svg>
