<svg width="16" height="16" viewBox="0 0 16 16" fill="none" xmlns="http://www.w3.org/2000/svg">
<path fill-rule="evenodd" clip-rule="evenodd" d="M2 2H14C14.2651 2.0003 14.5193 2.10576 14.7068 2.29323C14.8942 2.4807 14.9997 2.73488 15 3V13C14.9997 13.2651 14.8942 13.5193 14.7068 13.7068C14.5193 13.8942 14.2651 13.9997 14 14H2C1.73488 13.9997 1.4807 13.8942 1.29323 13.7068C1.10576 13.5193 1.0003 13.2651 1 13V3C1.0003 2.73488 1.10576 2.4807 1.29323 2.29323C1.4807 2.10576 1.73488 2.0003 2 2ZM2 5H14V3H2V5ZM5 6H2V13H5V6ZM6 6V13H14V6H6ZM10.5 4C10.5 4.27614 10.2761 4.5 10 4.5C9.72386 4.5 9.5 4.27614 9.5 4C9.5 3.72386 9.72386 3.5 10 3.5C10.2761 3.5 10.5 3.72386 10.5 4ZM12 4C12 4.27614 11.7761 4.5 11.5 4.5C11.2239 4.5 11 4.27614 11 4C11 3.72386 11.2239 3.5 11.5 3.5C11.7761 3.5 12 3.72386 12 4ZM13 4.5C13.2761 4.5 13.5 4.27614 13.5 4C13.5 3.72386 13.2761 3.5 13 3.5C12.7239 3.5 12.5 3.72386 12.5 4C12.5 4.27614 12.7239 4.5 13 4.5Z" fill="black"/>
</svg>
