<svg width="16" height="16" viewBox="0 0 16 16" fill="none" xmlns="http://www.w3.org/2000/svg">
<path fill-rule="evenodd" clip-rule="evenodd" d="M11.5 11.0001H11.75C12.5553 11.0004 13.3319 10.7016 13.9294 10.1617C14.5268 9.62183 14.9025 8.87931 14.9835 8.07815C15.0645 7.27699 14.8451 6.4743 14.3678 5.82575C13.8905 5.17721 13.1893 4.72903 12.4003 4.56815C12.1873 3.55901 11.6338 2.65376 10.8327 2.00414C10.0316 1.35452 9.03156 1 8.00017 1C6.96878 1 5.96874 1.35452 5.16764 2.00414C4.36654 2.65376 3.81308 3.55901 3.60003 4.56815C2.81095 4.72892 2.1097 5.17704 1.63232 5.82557C1.15494 6.47411 0.93544 7.27683 1.01641 8.07804C1.09738 8.87925 1.47304 9.62183 2.07053 10.1617C2.66801 10.7017 3.44473 11.0004 4.25003 11.0001H4.50003V10.0001H4.25003C3.66892 10.0002 3.1103 9.77546 2.69128 9.37284C2.27225 8.97022 2.02535 8.42102 2.00233 7.84037C1.97932 7.25972 2.18197 6.6927 2.56781 6.25818C2.95366 5.82366 3.49273 5.55537 4.07203 5.50955L4.47978 5.4776L4.52933 5.0716C4.63315 4.22414 5.04343 3.44395 5.6828 2.87812C6.32218 2.31229 7.14648 1.99993 8.00028 1.99993C8.85407 1.99993 9.67837 2.31229 10.3177 2.87812C10.9571 3.44395 11.3674 4.22414 11.4712 5.0716L11.5205 5.4776L11.9282 5.50955C12.5075 5.55537 13.0466 5.82367 13.4325 6.25822C13.8183 6.69276 14.021 7.2598 13.9979 7.84047C13.9749 8.42114 13.7279 8.97034 13.3089 9.37294C12.8898 9.77555 12.3312 10.0003 11.75 10.0001H11.5V11.0001ZM7.93403 15.248L7.06603 14.752L8.63803 12H5.63853L8.06603 7.75195L8.93403 8.24795L7.36153 11H10.362L7.93403 15.248ZM4.50003 12.75C4.50003 13.1642 4.16424 13.5 3.75003 13.5C3.33581 13.5 3.00003 13.1642 3.00003 12.75C3.00003 12.3358 3.33581 12 3.75003 12C4.16424 12 4.50003 12.3358 4.50003 12.75ZM12.2498 13.5C12.664 13.5 12.9998 13.1642 12.9998 12.75C12.9998 12.3358 12.664 12 12.2498 12C11.8356 12 11.4998 12.3358 11.4998 12.75C11.4998 13.1642 11.8356 13.5 12.2498 13.5ZM10.7498 15.5C11.164 15.5 11.4998 15.1642 11.4998 14.75C11.4998 14.3358 11.164 14 10.7498 14C10.3356 14 9.99978 14.3358 9.99978 14.75C9.99978 15.1642 10.3356 15.5 10.7498 15.5ZM2.24978 15.5C2.66399 15.5 2.99978 15.1642 2.99978 14.75C2.99978 14.3358 2.66399 14 2.24978 14C1.83557 14 1.49978 14.3358 1.49978 14.75C1.49978 15.1642 1.83557 15.5 2.24978 15.5ZM5.99978 14.75C5.99978 15.1642 5.664 15.5 5.24978 15.5C4.83557 15.5 4.49978 15.1642 4.49978 14.75C4.49978 14.3358 4.83557 14 5.24978 14C5.664 14 5.99978 14.3358 5.99978 14.75Z" fill="black"/>
</svg>
