<svg width="16" height="16" viewBox="0 0 16 16" fill="none" xmlns="http://www.w3.org/2000/svg">
<path d="M13.185 10.2601L8.50001 7.70511V6.93011C8.86247 6.83652 9.19138 6.64309 9.44934 6.37182C9.7073 6.10054 9.88395 5.76232 9.95919 5.39561C10.0344 5.02891 10.0052 4.64845 9.87495 4.29751C9.74466 3.94658 9.51849 3.63925 9.22218 3.4105C8.92586 3.18174 8.57129 3.04074 8.1988 3.00353C7.82632 2.96632 7.45086 3.03439 7.11515 3.20001C6.77944 3.36563 6.49694 3.62215 6.29981 3.94038C6.10267 4.2586 5.9988 4.62577 6.00001 5.00011H7.00001C7.02256 4.7349 7.14954 4.4895 7.35301 4.3179C7.45376 4.23294 7.57026 4.16865 7.69586 4.1287C7.82146 4.08876 7.95369 4.07395 8.08501 4.08511C8.21634 4.09627 8.34417 4.13319 8.46123 4.19376C8.57828 4.25433 8.68226 4.33736 8.76723 4.43811C8.85219 4.53886 8.91648 4.65536 8.95642 4.78096C8.99636 4.90655 9.01118 5.03879 9.00001 5.17011C8.95055 5.41079 8.81747 5.62619 8.62435 5.77811C8.43124 5.93004 8.19058 6.00869 7.94501 6.00011C7.82699 6.00011 7.71381 6.047 7.63035 6.13045C7.5469 6.2139 7.50001 6.32709 7.50001 6.44511V7.70511L2.81501 10.2601C2.50872 10.4227 2.26577 10.6832 2.12501 11.0001C2.02744 11.215 1.98516 11.4509 2.00203 11.6863C2.0189 11.9217 2.09438 12.1491 2.2216 12.3479C2.34882 12.5467 2.52373 12.7105 2.73042 12.8244C2.93712 12.9383 3.16902 12.9987 3.40501 13.0001H12.595C12.831 12.9987 13.0629 12.9383 13.2696 12.8244C13.4763 12.7105 13.6512 12.5467 13.7784 12.3479C13.9056 12.1491 13.9811 11.9217 13.998 11.6863C14.0149 11.4509 13.9726 11.215 13.875 11.0001C13.7343 10.6832 13.4913 10.4227 13.185 10.2601ZM12.595 12.0001H3.40501C3.2976 12.0001 3.19459 11.9574 3.11864 11.8815C3.04268 11.8055 3.00001 11.7025 3.00001 11.5951C2.99977 11.5052 3.02379 11.4168 3.06955 11.3394C3.11531 11.2619 3.18111 11.1983 3.26001 11.1551L8.00001 8.57011L12.74 11.1551C12.8189 11.1983 12.8847 11.2619 12.9305 11.3394C12.9762 11.4168 13.0003 11.5052 13 11.5951C13 11.7025 12.9573 11.8055 12.8814 11.8815C12.8054 11.9574 12.7024 12.0001 12.595 12.0001Z" fill="black"/>
</svg>
