<svg width="16" height="16" viewBox="0 0 16 16" fill="none" xmlns="http://www.w3.org/2000/svg">
<path d="M13.5 8.50003C13.4981 9.87136 12.9845 11.1926 12.0597 12.2052C11.1349 13.2177 9.86553 13.8487 8.5 13.9746V7.00003H11.5V6.00003H8.5V4.92898C8.97133 4.80729 9.38209 4.51787 9.6553 4.11498C9.92851 3.71209 10.0454 3.22339 9.98406 2.74048C9.92272 2.25758 9.68737 1.81362 9.32212 1.49182C8.95686 1.17003 8.48679 0.992493 8 0.992493C7.51321 0.992493 7.04314 1.17003 6.67788 1.49182C6.31263 1.81362 6.07728 2.25758 6.01594 2.74048C5.9546 3.22339 6.07149 3.71209 6.3447 4.11498C6.61791 4.51787 7.02867 4.80729 7.5 4.92898V6.00003H4.5V7.00003H7.5V13.9746C6.13447 13.8487 4.86508 13.2177 3.94029 12.2052C3.0155 11.1926 2.50189 9.87136 2.5 8.50003H1.5C1.5 10.2239 2.18482 11.8772 3.40381 13.0962C4.62279 14.3152 6.27609 15 8 15C9.72391 15 11.3772 14.3152 12.5962 13.0962C13.8152 11.8772 14.5 10.2239 14.5 8.50003H13.5ZM7 3.00003C7 2.80225 7.05865 2.60891 7.16853 2.44446C7.27841 2.28001 7.43459 2.15184 7.61732 2.07615C7.80004 2.00047 8.00111 1.98066 8.19509 2.01925C8.38907 2.05783 8.56725 2.15307 8.70711 2.29293C8.84696 2.43278 8.9422 2.61096 8.98079 2.80494C9.01937 2.99892 8.99957 3.19999 8.92388 3.38272C8.84819 3.56544 8.72002 3.72162 8.55557 3.8315C8.39112 3.94139 8.19778 4.00003 8 4.00003C7.73488 3.99973 7.4807 3.89428 7.29323 3.7068C7.10576 3.51933 7.0003 3.26516 7 3.00003Z" fill="black"/>
</svg>
