<svg width="16" height="16" viewBox="0 0 16 16" fill="none" xmlns="http://www.w3.org/2000/svg">
<path fill-rule="evenodd" clip-rule="evenodd" d="M4.5 10H7.20715L10.222 6.985C10.3144 6.99481 10.4072 6.99982 10.5 7C11.0933 7 11.6734 6.82405 12.1667 6.49441C12.6601 6.16477 13.0446 5.69623 13.2716 5.14805C13.4987 4.59987 13.5581 3.99667 13.4424 3.41473C13.3266 2.83279 13.0409 2.29824 12.6213 1.87868C12.2018 1.45912 11.6672 1.1734 11.0853 1.05765C10.5033 0.94189 9.90013 1.0013 9.35195 1.22836C8.80377 1.45543 8.33524 1.83994 8.00559 2.33329C7.67595 2.82664 7.5 3.40666 7.5 4C7.50018 4.09282 7.50518 4.18556 7.515 4.27785L4.5 7.29285V10ZM6.79285 9H5.5V7.70715L8.5851 4.62185L8.5375 4.36355C8.45721 3.95301 8.50601 3.52767 8.6772 3.14598C8.84839 2.76429 9.13357 2.44497 9.49356 2.23189C9.85355 2.01881 10.2707 1.92243 10.6877 1.95598C11.1046 1.98954 11.501 2.15139 11.8223 2.41929C12.1436 2.6872 12.374 3.04801 12.4819 3.45217C12.5899 3.85633 12.5701 4.28399 12.4251 4.67641C12.2802 5.06884 12.0174 5.40676 11.6726 5.64376C11.3279 5.88076 10.9183 6.0052 10.5 6C10.378 5.99875 10.2565 5.98616 10.1369 5.9624L9.87815 5.91455L6.79285 9ZM11.5 3.75C11.5 4.16421 11.1642 4.5 10.75 4.5C10.3358 4.5 10 4.16421 10 3.75C10 3.33579 10.3358 3 10.75 3C11.1642 3 11.5 3.33579 11.5 3.75ZM14 10H9.5V11H14V14H2V11H3V10H2C1.73488 10.0003 1.48071 10.1058 1.29324 10.2932C1.10578 10.4807 1.00032 10.7349 1 11V14C1.00032 14.2651 1.10578 14.5193 1.29324 14.7068C1.48071 14.8942 1.73488 14.9997 2 15H14C14.2651 14.9997 14.5193 14.8942 14.7068 14.7068C14.8942 14.5193 14.9997 14.2651 15 14V11C14.9997 10.7349 14.8942 10.4807 14.7068 10.2932C14.5193 10.1058 14.2651 10.0003 14 10ZM4 12.5C4 12.7761 3.77614 13 3.5 13C3.22386 13 3 12.7761 3 12.5C3 12.2239 3.22386 12 3.5 12C3.77614 12 4 12.2239 4 12.5Z" fill="black"/>
</svg>
