<svg width="16" height="16" viewBox="0 0 16 16" fill="none" xmlns="http://www.w3.org/2000/svg">
<path fill-rule="evenodd" clip-rule="evenodd" d="M8.5 1H9.5V3H8.5V1ZM13.6036 2.6893L12.1894 4.10352L12.8965 4.81062L14.3107 3.39641L13.6036 2.6893ZM14 7.5H16V8.5H14V7.5ZM1.5 10H7.5C7.63261 10 7.75979 9.94732 7.85355 9.85355C7.94732 9.75979 8 9.63261 8 9.5C8 9.36739 7.94732 9.24021 7.85355 9.14645C7.75979 9.05268 7.63261 9 7.5 9H1.5C1.36739 9 1.24021 9.05268 1.14645 9.14645C1.05268 9.24021 1 9.36739 1 9.5C1 9.63261 1.05268 9.75979 1.14645 9.85355C1.24021 9.94732 1.36739 10 1.5 10ZM1.5 14H9.5C9.63261 14 9.75979 13.9473 9.85355 13.8536C9.94732 13.7598 10 13.6326 10 13.5C10 13.3674 9.94732 13.2402 9.85355 13.1464C9.75979 13.0527 9.63261 13 9.5 13H1.5C1.36739 13 1.24021 13.0527 1.14645 13.1464C1.05268 13.2402 1 13.3674 1 13.5C1 13.6326 1.05268 13.7598 1.14645 13.8536C1.24021 13.9473 1.36739 14 1.5 14ZM12.8965 11.1893L12.1893 11.8964L13.6036 13.3107L14.3107 12.6035L12.8965 11.1893ZM3.68933 3.39646L5.10355 4.81067L5.81065 4.10356L4.39644 2.68935L3.68933 3.39646ZM6.17292 5.17292C6.9228 4.42304 7.93951 4.00122 9 4C10.0609 4 11.0783 4.42143 11.8284 5.17157C12.5786 5.92172 13 6.93913 13 8C13 9.06087 12.5786 10.0783 11.8284 10.8284C11.0783 11.5786 10.0609 12 9 12H3.5C3.36739 12 3.24021 11.9473 3.14645 11.8536C3.05268 11.7598 3 11.6326 3 11.5C3 11.3674 3.05268 11.2402 3.14645 11.1464C3.24021 11.0527 3.36739 11 3.5 11H9C9.59334 11 10.1734 10.8241 10.6667 10.4944C11.1601 10.1648 11.5446 9.69623 11.7716 9.14805C11.9987 8.59987 12.0581 7.99667 11.9424 7.41473C11.8266 6.83279 11.5409 6.29824 11.1213 5.87868C10.7018 5.45912 10.1672 5.1734 9.58527 5.05764C9.00333 4.94189 8.40013 5.0013 7.85195 5.22836C7.30377 5.45542 6.83524 5.83994 6.50559 6.33329C6.17595 6.82664 6 7.40666 6 8H5C5.00122 6.93951 5.42304 5.9228 6.17292 5.17292Z" fill="black"/>
</svg>
