<svg width="16" height="16" viewBox="0 0 16 16" fill="none" xmlns="http://www.w3.org/2000/svg">
<path fill-rule="evenodd" clip-rule="evenodd" d="M14.5 11H6.49999C6.36739 11 6.24021 11.0527 6.14644 11.1464C6.05267 11.2402 5.99999 11.3674 5.99999 11.5C5.99999 11.6326 6.05267 11.7598 6.14644 11.8536C6.24021 11.9473 6.36739 12 6.49999 12H11.3386C10.3141 12.9594 8.96412 13.4949 7.56054 13.4988C7.53752 13.4988 7.51442 13.4991 7.49127 13.4993H7.49122C7.4448 13.4999 7.39819 13.5004 7.35169 13.4988C6.05603 13.4529 4.81735 12.9547 3.8508 12.0906C2.88424 11.2266 2.25086 10.0513 2.06067 8.7688C1.87047 7.48635 2.13548 6.17779 2.80966 5.0704C3.48384 3.963 4.52461 3.12672 5.75119 2.7068C5.50166 3.78955 5.49333 4.91393 5.72679 6.00025H6.74964C6.43661 4.73879 6.50447 3.41286 6.94464 2.18995C6.97376 2.11455 6.98444 2.03328 6.9758 1.95291C6.96716 1.87254 6.93945 1.7954 6.89498 1.72791C6.8505 1.66041 6.79055 1.60452 6.7201 1.56488C6.64966 1.52523 6.57077 1.50299 6.48999 1.5C6.46072 1.49999 6.4315 1.5026 6.40269 1.5078C4.81059 1.79059 3.37942 2.6525 2.38487 3.92751C1.39032 5.20252 0.902725 6.80044 1.01601 8.4135C1.12929 10.0266 1.83543 11.5406 2.99842 12.6641C4.16141 13.7876 5.69899 14.4411 7.31499 14.4986C7.36972 14.5007 7.42446 14.4999 7.47899 14.4992C7.50617 14.4989 7.5333 14.4986 7.56034 14.4986C8.54866 14.498 9.52393 14.2728 10.4124 13.84C11.3009 13.4071 12.0794 12.7779 12.6889 12H14.5C14.6326 12 14.7598 11.9473 14.8535 11.8536C14.9473 11.7598 15 11.6326 15 11.5C15 11.3674 14.9473 11.2402 14.8535 11.1464C14.7598 11.0527 14.6326 11 14.5 11ZM13.5 10H8.5C8.36739 10 8.24021 9.94732 8.14645 9.85355C8.05268 9.75979 8 9.63261 8 9.5C8 9.36739 8.05268 9.24021 8.14645 9.14645C8.24021 9.05268 8.36739 9 8.5 9H13.5C13.6326 9 13.7598 9.05268 13.8536 9.14645C13.9473 9.24021 14 9.36739 14 9.5C14 9.63261 13.9473 9.75979 13.8536 9.85355C13.7598 9.94732 13.6326 10 13.5 10ZM6.5 8H12.5C12.6326 8 12.7598 7.94732 12.8536 7.85355C12.9473 7.75979 13 7.63261 13 7.5C13 7.36739 12.9473 7.24021 12.8536 7.14645C12.7598 7.05268 12.6326 7 12.5 7H6.5C6.36739 7 6.24021 7.05268 6.14645 7.14645C6.05268 7.24021 6 7.36739 6 7.5C6 7.63261 6.05268 7.75979 6.14645 7.85355C6.24021 7.94732 6.36739 8 6.5 8Z" fill="black"/>
</svg>
