<svg width="16" height="16" viewBox="0 0 16 16" fill="none" xmlns="http://www.w3.org/2000/svg">
<path d="M12.5 5.00002H12.47C12.3428 3.90373 11.8171 2.89242 10.993 2.15838C10.1688 1.42435 9.10365 1.01877 8 1.01877C6.89635 1.01877 5.83119 1.42435 5.00704 2.15838C4.18289 2.89242 3.65723 3.90373 3.53 5.00002H3.5C2.83696 5.00002 2.20107 5.26341 1.73223 5.73225C1.26339 6.20109 1 6.83698 1 7.50002C1 8.16306 1.26339 8.79895 1.73223 9.26779C2.20107 9.73663 2.83696 10 3.5 10H4.5V5.50002C4.5 4.57176 4.86875 3.68152 5.52513 3.02515C6.1815 2.36877 7.07174 2.00002 8 2.00002C8.92826 2.00002 9.8185 2.36877 10.4749 3.02515C11.1313 3.68152 11.5 4.57176 11.5 5.50002V10.5C11.4997 10.9581 11.3421 11.4022 11.0536 11.7581C10.7651 12.1139 10.3631 12.36 9.915 12.455C9.78153 11.9869 9.48191 11.5835 9.07232 11.3205C8.66272 11.0575 8.17126 10.9529 7.69006 11.0263C7.20885 11.0997 6.77093 11.3461 6.45838 11.7192C6.14584 12.0924 5.98011 12.5668 5.99228 13.0534C6.00444 13.54 6.19366 14.0055 6.52447 14.3626C6.85527 14.7197 7.30496 14.9439 7.78923 14.9931C8.2735 15.0424 8.75912 14.9134 9.15506 14.6302C9.551 14.3471 9.83009 13.9292 9.94 13.455C10.6495 13.3498 11.2978 12.9939 11.7675 12.4518C12.2371 11.9097 12.497 11.2173 12.5 10.5V10C13.163 10 13.7989 9.73663 14.2678 9.26779C14.7366 8.79895 15 8.16306 15 7.50002C15 6.83698 14.7366 6.20109 14.2678 5.73225C13.7989 5.26341 13.163 5.00002 12.5 5.00002ZM2 7.50002C2 7.1022 2.15804 6.72066 2.43934 6.43936C2.72064 6.15806 3.10218 6.00002 3.5 6.00002V9.00002C3.10218 9.00002 2.72064 8.84198 2.43934 8.56068C2.15804 8.27938 2 7.89784 2 7.50002ZM8 14C7.80222 14 7.60888 13.9414 7.44443 13.8315C7.27998 13.7216 7.15181 13.5654 7.07612 13.3827C7.00043 13.2 6.98063 12.9989 7.01921 12.8049C7.0578 12.6109 7.15304 12.4328 7.29289 12.2929C7.43275 12.1531 7.61093 12.0578 7.80491 12.0192C7.99889 11.9806 8.19996 12.0005 8.38268 12.0761C8.56541 12.1518 8.72159 12.28 8.83147 12.4444C8.94135 12.6089 9 12.8022 9 13C9 13.2652 8.89464 13.5196 8.70711 13.7071C8.51957 13.8947 8.26522 14 8 14ZM12.5 9.00002V6.00002C12.8978 6.00002 13.2794 6.15806 13.5607 6.43936C13.842 6.72066 14 7.1022 14 7.50002C14 7.89784 13.842 8.27938 13.5607 8.56068C13.2794 8.84198 12.8978 9.00002 12.5 9.00002Z" fill="black"/>
</svg>
