<svg width="16" height="16" viewBox="0 0 16 16" fill="none" xmlns="http://www.w3.org/2000/svg">
<path fill-rule="evenodd" clip-rule="evenodd" d="M5 1C3.80693 1.00132 2.66311 1.47585 1.81948 2.31948C0.975854 3.16311 0.501323 4.30693 0.5 5.5H1.5C1.5 4.57174 1.86875 3.6815 2.52513 3.02513C3.1815 2.36875 4.07174 2 5 2C5.92826 2 6.8185 2.36875 7.47487 3.02513C8.13125 3.6815 8.5 4.57174 8.5 5.5C8.50177 6.11968 8.34108 6.729 8.03393 7.26721C7.72679 7.80542 7.28392 8.25372 6.7495 8.5674L6.5 8.71145V10.248C6.50241 10.4486 6.46368 10.6475 6.3862 10.8326C6.30873 11.0176 6.19415 11.1847 6.04955 11.3237C5.76113 11.6341 5.38526 11.8495 4.9717 11.9415C4.55814 12.0334 4.1264 11.9976 3.73365 11.8387C3.37326 11.6829 3.06532 11.4267 2.84657 11.1007C2.62783 10.7746 2.50752 10.3926 2.5 10H1.5C1.50899 10.587 1.68678 11.159 2.01212 11.6477C2.33746 12.1364 2.7966 12.5211 3.3347 12.7558C3.69958 12.9158 4.09357 12.9985 4.49195 12.999C5.33143 12.9814 6.13245 12.6437 6.7312 12.055C6.97608 11.8224 7.17065 11.542 7.30289 11.2312C7.43512 10.9204 7.50221 10.5858 7.5 10.248V9.27685C8.11692 8.85898 8.62188 8.29611 8.97058 7.63761C9.31928 6.97912 9.50107 6.24512 9.5 5.5C9.49868 4.30693 9.02415 3.16311 8.18052 2.31948C7.33689 1.47585 6.19307 1.00132 5 1ZM9 15V14C10.3256 13.9985 11.5965 13.4712 12.5339 12.5339C13.4712 11.5965 13.9985 10.3256 14 9H15C14.9982 10.5908 14.3655 12.1158 13.2407 13.2407C12.1158 14.3655 10.5908 14.9982 9 15ZM9 13V12C9.79538 11.9991 10.5579 11.6828 11.1204 11.1204C11.6828 10.5579 11.9991 9.79538 12 9H13C12.9988 10.0605 12.577 11.0772 11.8271 11.8271C11.0772 12.577 10.0605 12.9988 9 13ZM9 10V11C9.53026 10.9994 10.0386 10.7886 10.4136 10.4136C10.7886 10.0386 10.9994 9.53026 11 9H10C9.9997 9.26512 9.89424 9.5193 9.70677 9.70677C9.5193 9.89424 9.26512 9.9997 9 10ZM5.31417 4.03209C5.09165 3.98405 4.86113 3.98717 4.64 4.04123C4.35081 4.11238 4.08932 4.26796 3.88882 4.48816C3.68832 4.70837 3.55786 4.98325 3.51406 5.27782C3.47025 5.5724 3.51508 5.87334 3.64283 6.14236C3.77058 6.41139 3.97548 6.63632 4.23145 6.78853C4.61404 7.00863 4.93241 7.32496 5.15494 7.70614C5.37747 8.08732 5.49643 8.52007 5.5 8.96143V9.99998H4.5V8.96143C4.49559 8.69314 4.4211 8.43066 4.28393 8.20003C4.14675 7.96941 3.95166 7.77867 3.718 7.64673C3.26197 7.37216 2.90478 6.96003 2.6978 6.46961C2.49083 5.97919 2.44473 5.43576 2.56615 4.91748C2.67078 4.46666 2.89972 4.05421 3.22698 3.72696C3.55423 3.39971 3.96668 3.17077 4.4175 3.06613C4.78725 2.97948 5.17179 2.97749 5.54242 3.06031C5.91304 3.14313 6.26016 3.30863 6.55785 3.54443C6.85236 3.77809 7.09013 4.07542 7.2533 4.41411C7.41648 4.75279 7.50082 5.12404 7.5 5.49998H6.5C6.4998 5.27234 6.4479 5.04771 6.34821 4.84306C6.24852 4.6384 6.10364 4.45907 5.92451 4.31858C5.74539 4.1781 5.53669 4.08014 5.31417 4.03209Z" fill="black"/>
</svg>
