<svg width="16" height="16" viewBox="0 0 16 16" fill="none" xmlns="http://www.w3.org/2000/svg">
<path fill-rule="evenodd" clip-rule="evenodd" d="M1.99997 5.12081C2.36998 5.36804 2.80499 5.5 3.25 5.5C3.84653 5.49933 4.41844 5.26206 4.84025 4.84025C5.26206 4.41844 5.49933 3.84653 5.5 3.25C5.5 2.80499 5.36804 2.36998 5.12081 1.99997C4.87357 1.62996 4.52217 1.34157 4.11104 1.17127C3.6999 1.00097 3.2475 0.956417 2.81105 1.04323C2.37459 1.13005 1.97368 1.34434 1.65901 1.65901C1.34434 1.97368 1.13005 2.37459 1.04323 2.81105C0.956417 3.2475 1.00097 3.6999 1.17127 4.11104C1.34157 4.52217 1.62996 4.87357 1.99997 5.12081ZM2.55554 2.21066C2.7611 2.07331 3.00277 2 3.25 2C3.5814 2.0004 3.89911 2.13222 4.13345 2.36656C4.36778 2.60089 4.4996 2.9186 4.5 3.25C4.5 3.49723 4.42669 3.7389 4.28934 3.94446C4.15199 4.15003 3.95676 4.31024 3.72836 4.40485C3.49995 4.49946 3.24861 4.52421 3.00614 4.47598C2.76366 4.42775 2.54093 4.3087 2.36612 4.13388C2.1913 3.95907 2.07225 3.73634 2.02402 3.49386C1.97579 3.25139 2.00054 3.00005 2.09515 2.77165C2.18976 2.54324 2.34998 2.34802 2.55554 2.21066ZM12 8.00001C11.2046 7.99912 10.4421 7.68277 9.87965 7.12035C9.31724 6.55793 9.00088 5.79539 9 5.00001C9.00003 4.91106 9.00452 4.82216 9.01345 4.73366C8.70516 4.56145 8.44859 4.30985 8.27038 4.00499C8.09217 3.70014 7.99881 3.35313 8 3.00001C8.00059 2.46976 8.2115 1.9614 8.58644 1.58646C8.96138 1.21151 9.46975 1.00061 10 1.00001C10.3531 0.998835 10.7001 1.09221 11.005 1.27044C11.3099 1.44867 11.5614 1.70526 11.7336 2.01356C11.8242 2.00451 11.9126 2.00001 12 2.00001C12.7956 2.00001 13.5587 2.31608 14.1213 2.87869C14.6839 3.4413 15 4.20436 15 5.00001C15 5.79566 14.6839 6.55872 14.1213 7.12133C13.5587 7.68394 12.7956 8.00001 12 8.00001ZM10 2.00001C9.73486 2.00029 9.48067 2.10574 9.2932 2.29321C9.10572 2.48069 9.00027 2.73488 9 3.00001C9.00001 3.21462 9.06975 3.42341 9.1987 3.59496C9.32765 3.7665 9.50885 3.89151 9.715 3.95116L10.1659 4.08646L10.0582 4.54456C9.96434 4.94832 9.99842 5.3713 10.1558 5.75483C10.3131 6.13835 10.5859 6.4634 10.9363 6.68488C11.2867 6.90637 11.6974 7.01331 12.1113 6.99088C12.5252 6.96845 12.9219 6.81775 13.2463 6.55969C13.5708 6.30164 13.8068 5.94901 13.9218 5.55073C14.0368 5.15245 14.0249 4.72827 13.888 4.33702C13.751 3.94576 13.4956 3.60684 13.1573 3.36727C12.819 3.12769 12.4145 2.99934 12 3.00001C11.8463 3.00181 11.6932 3.02131 11.5439 3.05811L11.0862 3.16516L10.9512 2.71486C10.8915 2.50874 10.7665 2.32758 10.5949 2.19866C10.4234 2.06974 10.2146 2.00002 10 2.00001ZM7 7C7.55228 7 8 6.55228 8 6C8 5.44772 7.55228 5 7 5C6.44772 5 6 5.44772 6 6C6 6.55228 6.44772 7 7 7ZM10.5 11C11.0523 11 11.5 10.5523 11.5 10C11.5 9.44771 11.0523 9 10.5 9C9.94771 9 9.5 9.44771 9.5 10C9.5 10.5523 9.94771 11 10.5 11ZM15 9.5C15 9.77614 14.7761 10 14.5 10C14.2239 10 14 9.77614 14 9.5C14 9.22386 14.2239 9 14.5 9C14.7761 9 15 9.22386 15 9.5ZM13.25 15C12.9039 15 12.5655 14.8974 12.2778 14.7051C11.99 14.5128 11.7657 14.2395 11.6332 13.9197C11.5008 13.5999 11.4661 13.2481 11.5336 12.9086C11.6012 12.5691 11.7678 12.2573 12.0126 12.0126C12.2573 11.7678 12.5691 11.6012 12.9086 11.5336C13.2481 11.4661 13.5999 11.5008 13.9197 11.6332C14.2395 11.7657 14.5128 11.99 14.7051 12.2778C14.8974 12.5655 15 12.9039 15 13.25C14.9995 13.714 14.8149 14.1588 14.4868 14.4868C14.1588 14.8149 13.714 14.9995 13.25 15ZM13.25 12.5C13.1017 12.5 12.9567 12.544 12.8333 12.6264C12.71 12.7088 12.6139 12.8259 12.5571 12.963C12.5003 13.1 12.4855 13.2508 12.5144 13.3963C12.5434 13.5418 12.6148 13.6754 12.7197 13.7803C12.8246 13.8852 12.9582 13.9567 13.1037 13.9856C13.2492 14.0145 13.4 13.9997 13.537 13.9429C13.6741 13.8861 13.7912 13.79 13.8736 13.6667C13.956 13.5433 14 13.3983 14 13.25C13.9998 13.0512 13.9207 12.8605 13.7801 12.7199C13.6395 12.5793 13.4488 12.5002 13.25 12.5ZM5.93701 14.6895C6.25457 14.892 6.62334 14.9998 7.00001 15C7.44066 15.001 7.86924 14.856 8.21889 14.5878C8.56853 14.3196 8.81959 13.9433 8.9329 13.5174C9.04622 13.0916 9.01541 12.6402 8.84529 12.2337C8.67517 11.8272 8.3753 11.4885 7.99246 11.2703C7.94376 10.5265 7.65882 9.81771 7.17914 9.2472C6.69947 8.67669 6.05014 8.27427 5.32578 8.09858C4.60141 7.9229 3.83987 7.98313 3.15213 8.27049C2.46439 8.55786 1.88639 9.05735 1.50236 9.69617C1.11834 10.335 0.948352 11.0798 1.01718 11.8219C1.08601 12.5641 1.39005 13.2649 1.88501 13.8222C2.37996 14.3795 3.03996 14.7642 3.76882 14.9202C4.49767 15.0762 5.2573 14.9954 5.93701 14.6895ZM6.32741 13.7334L6.05786 13.4861L5.74061 13.6681C5.26188 13.9427 4.70587 14.0514 4.15898 13.9774C3.61209 13.9034 3.10497 13.6508 2.71641 13.2589C2.32785 12.8671 2.07963 12.3578 2.01032 11.8103C1.94102 11.2628 2.0545 10.7077 2.33314 10.2314C2.61179 9.755 3.03998 9.38403 3.55118 9.17609C4.06237 8.96815 4.62794 8.9349 5.15998 9.0815C5.69202 9.2281 6.16074 9.54634 6.49328 9.98676C6.82583 10.4272 7.00358 10.9651 6.99891 11.517L6.98391 11.9403L7.32936 12.0619C7.46941 12.1103 7.5969 12.1893 7.70253 12.2932C7.80817 12.3971 7.88929 12.5233 7.93997 12.6625C7.99066 12.8017 8.00963 12.9505 7.99551 13.098C7.98139 13.2455 7.93454 13.388 7.85836 13.5151C7.78218 13.6422 7.6786 13.7506 7.55517 13.8326C7.43174 13.9146 7.29157 13.968 7.14489 13.9889C6.9982 14.0098 6.8487 13.9977 6.70728 13.9535C6.56585 13.9093 6.43608 13.8341 6.32741 13.7334Z" fill="black"/>
</svg>
