<svg width="16" height="16" viewBox="0 0 16 16" fill="none" xmlns="http://www.w3.org/2000/svg">
<path fill-rule="evenodd" clip-rule="evenodd" d="M10.3371 1.38886C10.1173 1.71776 10 2.10444 10 2.5C10.0006 3.03026 10.2114 3.53865 10.5864 3.9136C10.9614 4.28855 11.4697 4.49944 12 4.5C12.3956 4.5 12.7822 4.3827 13.1111 4.16294C13.44 3.94318 13.6964 3.63082 13.8478 3.26537C13.9991 2.89992 14.0387 2.49778 13.9616 2.10982C13.8844 1.72186 13.6939 1.36549 13.4142 1.08579C13.1345 0.806082 12.7781 0.615601 12.3902 0.53843C12.0022 0.46126 11.6001 0.500867 11.2346 0.652242C10.8692 0.803617 10.5568 1.05996 10.3371 1.38886ZM11.1685 3.05557C11.0586 2.89112 11 2.69778 11 2.5C11.0003 2.23488 11.1058 1.9807 11.2932 1.79323C11.4807 1.60576 11.7349 1.50031 12 1.5C12.1978 1.5 12.3911 1.55865 12.5556 1.66853C12.72 1.77841 12.8482 1.93459 12.9239 2.11732C12.9996 2.30004 13.0194 2.50111 12.9808 2.69509C12.9422 2.88907 12.847 3.06726 12.7071 3.20711C12.5673 3.34696 12.3891 3.4422 12.1951 3.48079C12.0011 3.51937 11.8 3.49957 11.6173 3.42388C11.4346 3.34819 11.2784 3.22002 11.1685 3.05557ZM9.43982 5.43982C9.72103 5.15861 10.1023 5.00044 10.5 5H13.5C13.8977 5.00044 14.279 5.15861 14.5602 5.43982C14.8414 5.72103 14.9996 6.10231 15 6.5V9.5C14.9997 9.76512 14.8942 10.0193 14.7068 10.2068C14.5193 10.3942 14.2651 10.4997 14 10.5V14C13.9997 14.2651 13.8942 14.5193 13.7068 14.7068C13.5193 14.8942 13.2651 14.9997 13 15H11C10.7349 14.9997 10.4807 14.8942 10.2932 14.7068C10.1058 14.5193 10.0003 14.2651 10 14V10.5C9.73488 10.4997 9.4807 10.3942 9.29323 10.2068C9.10576 10.0193 9.0003 9.76512 9 9.5V6.5C9.00044 6.10231 9.15861 5.72103 9.43982 5.43982ZM13 14V9.5H14V6.5C13.9999 6.36743 13.9472 6.24032 13.8534 6.14658C13.7597 6.05284 13.6326 6.00012 13.5 6H10.5C10.3674 6.00012 10.2403 6.05284 10.1466 6.14658C10.0528 6.24032 10.0001 6.36743 10 6.5V9.5H11V14H13ZM7 8V6.5C6.99956 6.10231 6.84139 5.72103 6.56018 5.43982C6.27897 5.15861 5.89769 5.00044 5.5 5H2.5C2.10231 5.00044 1.72103 5.15861 1.43982 5.43982C1.15861 5.72103 1.00044 6.10231 1 6.5V8H0V9H8V8H7ZM2 6.5C2.00012 6.36743 2.05284 6.24032 2.14658 6.14658C2.24032 6.05284 2.36743 6.00012 2.5 6H5.5C5.63257 6.00012 5.75968 6.05284 5.85342 6.14658C5.94716 6.24032 5.99988 6.36743 6 6.5V8H2V6.5ZM2.33706 1.38886C2.1173 1.71776 2 2.10444 2 2.5C2.00056 3.03026 2.21145 3.53865 2.5864 3.9136C2.96135 4.28855 3.46974 4.49944 4 4.5C4.39556 4.5 4.78224 4.3827 5.11114 4.16294C5.44004 3.94318 5.69638 3.63082 5.84776 3.26537C5.99913 2.89992 6.03874 2.49778 5.96157 2.10982C5.8844 1.72186 5.69392 1.36549 5.41421 1.08579C5.13451 0.806082 4.77814 0.615601 4.39018 0.53843C4.00222 0.46126 3.60009 0.500867 3.23463 0.652242C2.86918 0.803617 2.55682 1.05996 2.33706 1.38886ZM3.16853 3.05557C3.05865 2.89112 3 2.69778 3 2.5C3.0003 2.23488 3.10576 1.9807 3.29323 1.79323C3.4807 1.60576 3.73488 1.50031 4 1.5C4.19778 1.5 4.39112 1.55865 4.55557 1.66853C4.72002 1.77841 4.84819 1.93459 4.92388 2.11732C4.99957 2.30004 5.01937 2.50111 4.98079 2.69509C4.9422 2.88907 4.84696 3.06726 4.70711 3.20711C4.56725 3.34696 4.38907 3.4422 4.19509 3.48079C4.00111 3.51937 3.80004 3.49957 3.61732 3.42388C3.43459 3.34819 3.27841 3.22002 3.16853 3.05557Z" fill="black"/>
</svg>
