<svg width="16" height="16" viewBox="0 0 16 16" fill="none" xmlns="http://www.w3.org/2000/svg">
<path fill-rule="evenodd" clip-rule="evenodd" d="M2 7H14C14.2651 6.99972 14.5193 6.89428 14.7068 6.7068C14.8943 6.51932 14.9997 6.26513 15 6V2C14.9997 1.73487 14.8943 1.48068 14.7068 1.2932C14.5193 1.10572 14.2651 1.00028 14 1H2C1.73487 1.00028 1.48068 1.10572 1.2932 1.2932C1.10572 1.48068 1.00028 1.73487 1 2V6C1.00028 6.26513 1.10572 6.51932 1.2932 6.7068C1.48068 6.89428 1.73487 6.99972 2 7ZM1.99925 2H2H14V6H2L1.99925 2ZM2 15H14C14.2651 14.9997 14.5193 14.8943 14.7068 14.7068C14.8943 14.5193 14.9997 14.2651 15 14V10C14.9997 9.73487 14.8943 9.48068 14.7068 9.2932C14.5193 9.10572 14.2651 9.00028 14 9H2C1.73487 9.00028 1.48068 9.10572 1.2932 9.2932C1.10572 9.48068 1.00028 9.73487 1 10V14C1.00028 14.2651 1.10572 14.5193 1.2932 14.7068C1.48068 14.8943 1.73487 14.9997 2 15ZM1.99925 10H2H14V14H2L1.99925 10Z" fill="black"/>
</svg>
