<svg width="16" height="16" viewBox="0 0 16 16" fill="none" xmlns="http://www.w3.org/2000/svg">
<path fill-rule="evenodd" clip-rule="evenodd" d="M13 5H14C14.2651 5.0003 14.5193 5.10576 14.7068 5.29323C14.8942 5.4807 14.9997 5.73488 15 6V15H1V6C1.0003 5.73488 1.10576 5.4807 1.29323 5.29323C1.4807 5.10576 1.73488 5.0003 2 5H3V2C3.0003 1.73488 3.10576 1.4807 3.29323 1.29323C3.4807 1.10576 3.73488 1.0003 4 1H12C12.2651 1.0003 12.5193 1.10576 12.7068 1.29323C12.8942 1.4807 12.9997 1.73488 13 2V5ZM7 11V14H9V11H7ZM10 10.5V14H14V6H12V2H4V6H2V14H6V10.5C6 10.3674 6.05268 10.2402 6.14645 10.1464C6.24021 10.0527 6.36739 10 6.5 10H9.5C9.63261 10 9.75979 10.0527 9.85355 10.1464C9.94732 10.2402 10 10.3674 10 10.5ZM8.5 5H10.5V6H8.5V8H7.5V6H5.5V5H7.5V3H8.5V5Z" fill="black"/>
</svg>
