<svg width="16" height="16" viewBox="0 0 16 16" fill="none" xmlns="http://www.w3.org/2000/svg">
<path fill-rule="evenodd" clip-rule="evenodd" d="M8.5 7.00001H12.5C13.163 7.00001 13.7989 7.2634 14.2678 7.73224C14.7366 8.20108 15 8.83697 15 9.50001V15H14V12H2V15H1V5.00001C1.00024 4.90956 1.02502 4.82087 1.07168 4.74338C1.11835 4.6659 1.18516 4.60252 1.265 4.56001L7.765 1.06001C7.83734 1.02149 7.91804 1.00134 8 1.00134C8.08196 1.00134 8.16266 1.02149 8.235 1.06001L14.735 4.56001L14.265 5.44001L8 2.07001L2 5.30001V11H7.5V8.00001C7.5 7.73479 7.60536 7.48044 7.79289 7.2929C7.98043 7.10537 8.23478 7.00001 8.5 7.00001ZM8.5 8.00001V11H14V9.50001C14 9.10219 13.842 8.72065 13.5607 8.43935C13.2794 8.15804 12.8978 8.00001 12.5 8.00001H8.5ZM5.16668 7.6264C5.04334 7.54399 4.89834 7.5 4.75 7.5C4.55109 7.5 4.36032 7.57902 4.21967 7.71967C4.07902 7.86032 4 8.05109 4 8.25C4 8.39834 4.04399 8.54334 4.1264 8.66668C4.20881 8.79001 4.32594 8.88614 4.46299 8.94291C4.60003 8.99968 4.75083 9.01453 4.89632 8.98559C5.0418 8.95665 5.17544 8.88522 5.28033 8.78033C5.38522 8.67544 5.45665 8.5418 5.48559 8.39632C5.51453 8.25083 5.49968 8.10003 5.44291 7.96299C5.38614 7.82594 5.29001 7.70881 5.16668 7.6264ZM3.77775 6.79493C4.06554 6.60264 4.40388 6.5 4.75 6.5C5.21413 6.5 5.65925 6.68437 5.98744 7.01256C6.31563 7.34075 6.5 7.78587 6.5 8.25C6.5 8.59612 6.39737 8.93446 6.20507 9.22225C6.01278 9.51003 5.73947 9.73434 5.4197 9.86679C5.09993 9.99924 4.74806 10.0339 4.40859 9.96637C4.06913 9.89885 3.75731 9.73218 3.51256 9.48744C3.26782 9.2427 3.10115 8.93087 3.03363 8.59141C2.9661 8.25194 3.00076 7.90007 3.13321 7.5803C3.26566 7.26053 3.48997 6.98722 3.77775 6.79493Z" fill="black"/>
</svg>
