<svg width="16" height="16" viewBox="0 0 16 16" fill="none" xmlns="http://www.w3.org/2000/svg">
<path fill-rule="evenodd" clip-rule="evenodd" d="M11.5 2V5.835C11.5 6.05137 11.4298 6.2619 11.3 6.435L10.125 8L11.3 9.565C11.4298 9.7381 11.5 9.94863 11.5 10.165V14H13V15H3V14H4.5V10.165C4.5 9.94863 4.57018 9.7381 4.7 9.565L5.875 8L4.7 6.435C4.57018 6.2619 4.5 6.05137 4.5 5.835V2H3V1H13V2H11.5ZM10.5 5.5V2H5.5V5.5H10.5ZM10.5 14V10.165L8.875 8L10 6.5H6L7.125 8L5.5 10.165V14H10.5ZM8.5 9.5H7.5V10.5H8.5V9.5ZM8.5 11.5H7.5V12.5H8.5V11.5Z" fill="black"/>
</svg>
