<svg width="16" height="16" viewBox="0 0 16 16" fill="none" xmlns="http://www.w3.org/2000/svg">
<path fill-rule="evenodd" clip-rule="evenodd" d="M3 7.5V5.5H4V10.5H3V8.5H1.5V10.5H0.5V5.5H1.5V7.5H3ZM6 6.5H5V5.5H8V6.5H7V10.5H6V6.5ZM12.5 5.5H15C15.2651 5.5003 15.5193 5.60576 15.7068 5.79323C15.8942 5.9807 15.9997 6.23488 16 6.5V8C15.9996 8.26511 15.8942 8.51925 15.7067 8.70671C15.5193 8.89417 15.2651 8.99964 15 9H13.5V10.5H12.5V5.5ZM13.5 6.5V8H15.0005L15 6.5H13.5ZM11.5 5.5H8.5V6.5H9.5V10.5H10.5V6.5H11.5V5.5Z" fill="black"/>
</svg>
