<svg width="16" height="16" viewBox="0 0 16 16" fill="none" xmlns="http://www.w3.org/2000/svg">
<path fill-rule="evenodd" clip-rule="evenodd" d="M11.61 5.46879C11.9848 5.82274 12.4846 6.01374 13 5.99999C13.5154 6.01374 14.0152 5.82274 14.39 5.46879C14.7649 5.11484 14.9842 4.62679 15 4.11148C14.9888 3.73392 14.87 3.3674 14.6577 3.05498L13.4146 1.20703C13.3662 1.14274 13.3036 1.09056 13.2316 1.05463C13.1596 1.0187 13.0802 1 12.9998 1C12.9193 1 12.84 1.0187 12.768 1.05463C12.696 1.09056 12.6334 1.14274 12.585 1.20703L11.3266 3.07953C11.1226 3.38582 11.0094 3.74358 11 4.11148C11.0158 4.62679 11.2351 5.11484 11.61 5.46879ZM12.1719 3.61283L13 2.38158L13.8125 3.58819C13.9237 3.74113 13.9888 3.92272 14 4.11148C13.9711 4.35639 13.8533 4.58217 13.669 4.746C13.4846 4.90983 13.2466 5.00033 13 5.00033C12.7534 5.00033 12.5154 4.90983 12.331 4.746C12.1467 4.58217 12.0289 4.35639 12 4.11148C12.0088 3.93232 12.0684 3.75937 12.1719 3.61283ZM4.24999 14.9999H11.75C12.5552 15.0003 13.3318 14.7016 13.9292 14.1618C14.5266 13.6221 14.9022 12.8796 14.9832 12.0785C15.0642 11.2775 14.8448 10.4748 14.3676 9.82638C13.8903 9.17791 13.1892 8.72981 12.4003 8.56899C12.1875 7.55965 11.6341 6.65416 10.833 6.00434C10.0319 5.35452 9.03168 4.99988 8.00014 4.99988C6.96861 4.99988 5.96843 5.35452 5.16731 6.00434C4.36618 6.65416 3.81282 7.55965 3.59999 8.56899C2.81089 8.72959 2.10957 9.17759 1.63213 9.82607C1.15469 10.4746 0.935156 11.2773 1.01614 12.0785C1.09712 12.8797 1.47283 13.6222 2.07038 14.1621C2.66794 14.7019 3.44471 15.0005 4.24999 14.9999ZM5.68309 6.87934C6.3223 6.31345 7.14629 6.0007 7.99999 5.99994C8.85372 6.00081 9.67771 6.31359 10.317 6.87945C10.9562 7.4453 11.3667 8.22523 11.4712 9.07254L11.5205 9.47864L11.9282 9.51064C12.5076 9.55614 13.0469 9.82425 13.4329 10.2587C13.8189 10.6932 14.0216 11.2603 13.9985 11.841C13.9755 12.4217 13.7284 12.971 13.3092 13.3735C12.89 13.776 12.3312 14.0005 11.75 13.9999H4.24999C3.66883 14.0005 3.11005 13.7759 2.69087 13.3734C2.27169 12.9708 2.02467 12.4216 2.00165 11.8409C1.97862 11.2602 2.18138 10.6931 2.56737 10.2587C2.95337 9.82423 3.49262 9.55614 4.072 9.51064L4.47975 9.47864L4.5293 9.07254C4.63354 8.22522 5.04388 7.44522 5.68309 6.87934Z" fill="black"/>
</svg>
