<svg width="16" height="16" viewBox="0 0 16 16" fill="none" xmlns="http://www.w3.org/2000/svg">
<path d="M11.7381 6.99657L8.4236 1.71822C8.37552 1.65068 8.31198 1.59562 8.23829 1.55763C8.16461 1.51964 8.0829 1.49982 8 1.49982C7.9171 1.49982 7.83539 1.51964 7.76171 1.55763C7.68802 1.59562 7.62448 1.65068 7.5764 1.71822L4.24705 7.02217C3.78459 7.76809 3.52692 8.62273 3.5 9.49997C3.5 10.6934 3.97411 11.838 4.81802 12.6819C5.66193 13.5259 6.80653 14 8 14C9.19347 14 10.3381 13.5259 11.182 12.6819C12.0259 11.838 12.5 10.6934 12.5 9.49997C12.4713 8.6129 12.2084 7.74923 11.7381 6.99657ZM8 13.0002C7.0721 12.999 6.18255 12.6299 5.52643 11.9738C4.8703 11.3177 4.50118 10.4281 4.5 9.50022C4.52655 8.80086 4.73663 8.1208 5.10915 7.52832L5.57665 6.78392L10.6136 11.8205C10.2864 12.1911 9.88416 12.4879 9.43358 12.6913C8.98301 12.8947 8.49435 13 8 13.0002Z" fill="black"/>
</svg>
