<svg width="16" height="16" viewBox="0 0 16 16" fill="none" xmlns="http://www.w3.org/2000/svg">
<path d="M11.3261 2.09105L10.2376 3.34815L9.53565 4.1587L10.3932 4.8025C10.8924 5.17257 11.2977 5.65472 11.5765 6.2101C11.8553 6.76549 11.9997 7.37858 11.9982 8L11.9986 8.0288L11.9994 8.04955C12.0084 8.2654 12.12 13.1052 4.6725 13.9107L5.7625 12.6518L6.46445 11.8413L5.60695 11.1975C5.10772 10.8274 4.70237 10.3453 4.42358 9.78992C4.14478 9.23453 4.00033 8.62143 4.00185 8L4.00145 7.9712L4.0006 7.95045C3.9916 7.735 3.88025 2.90355 11.3261 2.09105ZM12.4989 1C12.4907 1 12.4826 1 12.4743 1.0005C2.6266 1.4573 3.00185 8 3.00185 8C3.00185 8.77634 3.18308 9.54197 3.53112 10.2359C3.87916 10.9299 4.38439 11.533 5.0066 11.9973L3.1184 14.1777C3.0579 14.2509 3.01937 14.3397 3.00728 14.4339C2.99519 14.528 3.01003 14.6237 3.05009 14.7097C3.09015 14.7958 3.15378 14.8687 3.2336 14.9201C3.31343 14.9715 3.40618 14.9992 3.5011 15C3.5093 15 3.51745 15 3.52575 14.9995C13.3734 14.5427 12.9982 8 12.9982 8C12.9981 7.22367 12.8169 6.45807 12.4689 5.76411C12.1209 5.07016 11.6157 4.46702 10.9936 4.0027L12.8816 1.82225C12.9421 1.7491 12.9806 1.6603 12.9927 1.56614C13.0048 1.47199 12.99 1.37633 12.9499 1.29027C12.9099 1.20421 12.8462 1.13126 12.7664 1.07988C12.6866 1.02851 12.5938 1.00081 12.4989 1Z" fill="black"/>
</svg>
