<svg width="16" height="16" viewBox="0 0 16 16" fill="none" xmlns="http://www.w3.org/2000/svg">
<path fill-rule="evenodd" clip-rule="evenodd" d="M9.28418 1.71888C9.42642 1.95453 9.50108 2.22478 9.49997 2.50003C9.49934 2.80934 9.40283 3.11084 9.22375 3.36303C9.04466 3.61523 8.7918 3.8057 8.49997 3.90823V6.00003H7.49997V3.90823C7.24046 3.81648 7.0112 3.65509 6.8373 3.44173C6.66339 3.22837 6.55154 2.97128 6.514 2.6986C6.47646 2.42592 6.51467 2.14817 6.62446 1.89575C6.73424 1.64334 6.91136 1.426 7.13642 1.26754C7.36148 1.10907 7.62581 1.01559 7.90045 0.997325C8.1751 0.979061 8.44948 1.03672 8.69354 1.16399C8.9376 1.29126 9.14194 1.48323 9.28418 1.71888ZM13 6C12.5578 6.00135 12.1285 6.14933 11.7795 6.42077C11.4304 6.69222 11.1813 7.07178 11.071 7.5H4.92892C4.80723 7.02868 4.51781 6.61791 4.11492 6.3447C3.71203 6.0715 3.22333 5.95461 2.74042 6.01595C2.25752 6.07728 1.81356 6.31264 1.49176 6.67789C1.16997 7.04314 0.992432 7.51322 0.992432 8C0.992432 8.48679 1.16997 8.95687 1.49176 9.32212C1.81356 9.68737 2.25752 9.92273 2.74042 9.98406C3.22333 10.0454 3.71203 9.92851 4.11492 9.65531C4.51781 9.3821 4.80723 8.97133 4.92892 8.5H11.071C11.1651 8.86136 11.3587 9.18907 11.6297 9.44594C11.9008 9.7028 12.2384 9.87852 12.6043 9.95313C12.9701 10.0277 13.3496 9.99827 13.6996 9.86805C14.0495 9.73783 14.356 9.51208 14.5841 9.21644C14.8122 8.92081 14.9528 8.56713 14.99 8.19558C15.0272 7.82403 14.9595 7.44949 14.7945 7.11451C14.6295 6.77952 14.3739 6.49751 14.0567 6.30051C13.7395 6.1035 13.3734 5.99939 13 6ZM2.99997 9C2.80219 9 2.60885 8.94136 2.4444 8.83147C2.27995 8.72159 2.15178 8.56541 2.07609 8.38269C2.00041 8.19996 1.9806 7.9989 2.01919 7.80491C2.05777 7.61093 2.15301 7.43275 2.29287 7.2929C2.43272 7.15305 2.6109 7.0578 2.80488 7.01922C2.99886 6.98063 3.19993 7.00044 3.38266 7.07613C3.56538 7.15181 3.72156 7.27999 3.83144 7.44443C3.94132 7.60888 3.99997 7.80222 3.99997 8C3.99964 8.26512 3.89418 8.51928 3.70671 8.70675C3.51925 8.89421 3.26509 8.99967 2.99997 9ZM13 9C12.8022 9 12.6089 8.94136 12.4444 8.83147C12.28 8.72159 12.1518 8.56541 12.0761 8.38269C12.0004 8.19996 11.9806 7.9989 12.0192 7.80491C12.0578 7.61093 12.153 7.43275 12.2929 7.2929C12.4327 7.15305 12.6109 7.0578 12.8049 7.01922C12.9989 6.98063 13.1999 7.00044 13.3827 7.07613C13.5654 7.15181 13.7216 7.27999 13.8314 7.44443C13.9413 7.60888 14 7.80222 14 8C13.9996 8.26512 13.8942 8.51928 13.7067 8.70675C13.5192 8.89421 13.2651 8.99967 13 9ZM8.49997 12.0918V10H7.49997V12.0918C7.16637 12.2097 6.8852 12.4418 6.70616 12.747C6.52712 13.0522 6.46174 13.4109 6.52157 13.7597C6.58141 14.1084 6.76261 14.4248 7.03314 14.6529C7.30368 14.8809 7.64613 15.006 7.99997 15.006C8.35382 15.006 8.69627 14.8809 8.9668 14.6529C9.23734 14.4248 9.41853 14.1084 9.47837 13.7597C9.53821 13.4109 9.47283 13.0522 9.29379 12.747C9.11475 12.4418 8.83358 12.2097 8.49997 12.0918Z" fill="black"/>
</svg>
