<svg width="16" height="16" viewBox="0 0 16 16" fill="none" xmlns="http://www.w3.org/2000/svg">
<path fill-rule="evenodd" clip-rule="evenodd" d="M9.5 1.5H2.5C1.95 1.5 1.5 1.95 1.5 2.5V9.5C1.5 10.05 1.95 10.5 2.5 10.5H4.5V9.5H2.5V2.5H9.5V4.5H10.5V2.5C10.5 1.95 10.05 1.5 9.5 1.5ZM10 8.5C9.75 8.5 9.55 8.55 9.35 8.65L7.35 6.65C7.45 6.45 7.5 6.25 7.5 6C7.5 5.15 6.85 4.5 6 4.5C5.15 4.5 4.5 5.15 4.5 6C4.5 6.85 5.15 7.5 6 7.5C6.25 7.5 6.45 7.45 6.65 7.35L8.65 9.35C8.55 9.55 8.5 9.75 8.5 10C8.5 10.85 9.15 11.5 10 11.5C10.85 11.5 11.5 10.85 11.5 10C11.5 9.15 10.85 8.5 10 8.5ZM5.5 6C5.5 5.7 5.7 5.5 6 5.5C6.3 5.5 6.5 5.7 6.5 6C6.5 6.3 6.3 6.5 6 6.5C5.7 6.5 5.5 6.3 5.5 6ZM10 10.5C9.7 10.5 9.5 10.3 9.5 10C9.5 9.7 9.7 9.5 10 9.5C10.3 9.5 10.5 9.7 10.5 10C10.5 10.3 10.3 10.5 10 10.5ZM6.5 14.5C5.95 14.5 5.5 14.05 5.5 13.5V11.5H6.5V13.5H13.5V6.5H11.5V5.5H13.5C14.05 5.5 14.5 5.95 14.5 6.5V13.5C14.5 14.05 14.05 14.5 13.5 14.5H6.5Z" fill="black"/>
</svg>
