<svg width="16" height="16" viewBox="0 0 16 16" fill="none" xmlns="http://www.w3.org/2000/svg">
<path fill-rule="evenodd" clip-rule="evenodd" d="M7.74805 15.4322C7.82454 15.4767 7.91149 15.5001 8 15.5C8.08851 15.5001 8.17546 15.4767 8.25195 15.4322L14.252 11.9322C14.3274 11.8881 14.3901 11.825 14.4336 11.7492C14.4771 11.6733 14.5 11.5874 14.5 11.5V7.50002H13.5V11.2129L8 14.4214L2.5 11.2129V4.78712L8 1.57887L13.748 4.93192L14.252 4.06812L8.25195 0.568119C8.17548 0.523507 8.08853 0.5 8 0.5C7.91147 0.5 7.82452 0.523507 7.74805 0.568119L1.74805 4.06812C1.67255 4.11213 1.60991 4.17518 1.56638 4.25096C1.52285 4.32675 1.49997 4.41262 1.5 4.50002V11.5C1.49999 11.5874 1.52289 11.6733 1.56641 11.7492C1.60993 11.825 1.67256 11.8881 1.74805 11.9322L7.74805 15.4322ZM5.5 8.5H4.5V6C4.5003 5.73488 4.60576 5.4807 4.79323 5.29323C4.9807 5.10576 5.23488 5.0003 5.5 5H8.5V6H5.5V8.5ZM10.5 11H7.5C7.23488 10.9997 6.9807 10.8942 6.79323 10.7068C6.60576 10.5193 6.5003 10.2651 6.5 10V8C6.5003 7.73488 6.60576 7.4807 6.79323 7.29323C6.9807 7.10576 7.23488 7.0003 7.5 7H10.5C10.7651 7.0003 11.0193 7.10576 11.2068 7.29323C11.3942 7.4807 11.4997 7.73488 11.5 8V10C11.4997 10.2651 11.3942 10.5193 11.2068 10.7068C11.0193 10.8942 10.7651 10.9997 10.5 11ZM7.5 8V10H10.5V8H7.5Z" fill="black"/>
</svg>
