<svg width="16" height="16" viewBox="0 0 16 16" fill="none" xmlns="http://www.w3.org/2000/svg">
<g clip-path="url(#clip0_3_12575)">
<path fill-rule="evenodd" clip-rule="evenodd" d="M8.26824 2.92937C8.1971 3.00052 8.10061 3.0405 8 3.04052C7.89938 3.0405 7.8029 3.00052 7.73177 2.92937C7.66063 2.85822 7.62066 2.76174 7.62065 2.66112V0.917325C7.62007 0.867138 7.62946 0.817336 7.64826 0.770803C7.66707 0.724269 7.69492 0.68193 7.73021 0.646237C7.76549 0.610544 7.80751 0.582207 7.85383 0.562868C7.90014 0.543528 7.94983 0.533569 8.00002 0.533569C8.05021 0.533569 8.0999 0.543528 8.14622 0.562868C8.19253 0.582207 8.23455 0.610544 8.26983 0.646237C8.30512 0.68193 8.33297 0.724269 8.35178 0.770803C8.37058 0.817336 8.37997 0.867138 8.3794 0.917325V2.66112C8.37937 2.76174 8.33939 2.85823 8.26824 2.92937ZM11.3382 3.93499C11.3813 3.95993 11.429 3.97612 11.4784 3.98264C11.5278 3.98916 11.5779 3.98588 11.6261 3.97299C11.6742 3.9601 11.7193 3.93785 11.7588 3.90752C11.7984 3.87718 11.8315 3.83935 11.8564 3.79619L12.7283 2.28619C12.7777 2.19912 12.7907 2.09604 12.7644 1.99943C12.7382 1.90282 12.6748 1.82051 12.5881 1.77045C12.5014 1.72038 12.3984 1.70662 12.3016 1.73216C12.2048 1.7577 12.122 1.82047 12.0713 1.90679L11.1994 3.41679C11.1491 3.50392 11.1355 3.60746 11.1615 3.70463C11.1875 3.80181 11.2511 3.88467 11.3382 3.93499ZM10.0502 4.70414C11.0071 5.14947 11.7933 5.89384 12.2902 6.825C13.364 7.02159 14.3255 7.61267 14.9856 8.48207C15.6458 9.35148 15.9569 10.4363 15.8579 11.5235C15.7589 12.6106 15.2568 13.6214 14.4504 14.3572C13.6441 15.093 12.5916 15.5007 11.5 15.5H3.5C2.63651 15.499 1.80624 15.1671 1.18004 14.5725C0.553837 13.978 0.179338 13.166 0.133602 12.3038C0.0878658 11.4415 0.374372 10.5945 0.934166 9.93702C1.49396 9.27956 2.28446 8.86168 3.143 8.76935C3.21821 7.71657 3.63365 6.71679 4.32669 5.92074C5.01973 5.1247 5.9528 4.57555 6.98519 4.35611C8.01758 4.13666 9.09333 4.25881 10.0502 4.70414ZM3.5 14.75H11.5C12.1058 14.75 12.7019 14.5982 13.2338 14.3084C13.7658 14.0186 14.2167 13.6002 14.5453 13.0913C14.8739 12.5824 15.0697 11.9992 15.1148 11.3952C15.16 10.7911 15.053 10.1853 14.8037 9.63321C14.5544 9.08112 14.1708 8.6003 13.6878 8.23469C13.2048 7.86908 12.6379 7.63034 12.0388 7.54028C11.4398 7.45022 10.8277 7.51172 10.2586 7.71916C9.68944 7.9266 9.18135 8.27335 8.78075 8.72775C8.74853 8.76588 8.70902 8.7972 8.66454 8.81987C8.62006 8.84253 8.5715 8.85609 8.52171 8.85974C8.47192 8.86339 8.4219 8.85706 8.37459 8.84112C8.32728 8.82518 8.28362 8.79996 8.24619 8.76693C8.20875 8.7339 8.17829 8.69373 8.15658 8.64877C8.13488 8.60381 8.12237 8.55497 8.11979 8.50511C8.11722 8.45525 8.12462 8.40538 8.14157 8.35842C8.15852 8.31147 8.18467 8.26837 8.2185 8.23165C8.61574 7.78267 9.10097 7.42007 9.64412 7.16634C10.1873 6.91262 10.7767 6.77317 11.376 6.75665C10.7721 5.89664 9.8628 5.29953 8.83363 5.08719C7.80446 4.87485 6.73306 5.0633 5.83811 5.61407C4.94317 6.16484 4.29217 7.03641 4.01799 8.05085C3.74382 9.0653 3.86715 10.1461 4.3628 11.0727C4.38759 11.1162 4.40343 11.1642 4.40938 11.2139C4.41532 11.2636 4.41126 11.314 4.39742 11.3621C4.38358 11.4102 4.36026 11.4551 4.32881 11.494C4.29737 11.533 4.25845 11.5653 4.21434 11.5889C4.17023 11.6126 4.12183 11.6272 4.07199 11.6319C4.02215 11.6365 3.97189 11.6312 3.92415 11.6161C3.87642 11.601 3.83218 11.5766 3.79405 11.5441C3.75592 11.5117 3.72468 11.4719 3.70215 11.4272C3.39103 10.8409 3.20324 10.197 3.15035 9.53535C2.49088 9.62264 1.88935 9.95764 1.4679 10.4723C1.04645 10.987 0.836684 11.6428 0.881188 12.3065C0.925692 12.9703 1.22113 13.5922 1.70752 14.046C2.19391 14.4998 2.83478 14.7515 3.5 14.75ZM15.8516 5.01601C15.8911 5.04635 15.9243 5.08419 15.9491 5.12735C15.9994 5.21452 16.013 5.31809 15.9869 5.41526C15.9608 5.51244 15.8972 5.59527 15.81 5.64555L14.3 6.51745C14.2568 6.5437 14.2088 6.56105 14.1588 6.56848C14.1088 6.57592 14.0578 6.57329 14.0089 6.56075C13.9599 6.54821 13.9139 6.52601 13.8737 6.49546C13.8334 6.4649 13.7997 6.42661 13.7744 6.38283C13.7492 6.33906 13.7329 6.29067 13.7266 6.24052C13.7203 6.19037 13.7241 6.13947 13.7377 6.0908C13.7514 6.04214 13.7746 5.99669 13.8061 5.95714C13.8376 5.91758 13.8766 5.8847 13.9209 5.86045L15.4309 4.98855C15.4741 4.96361 15.5217 4.94741 15.5711 4.94089C15.6205 4.93436 15.6707 4.93764 15.7188 4.95053C15.7669 4.96342 15.8121 4.98567 15.8516 5.01601ZM4.14365 3.79611C4.19437 3.88243 4.27715 3.94521 4.37396 3.97075C4.47076 3.99629 4.57374 3.98253 4.66044 3.93246C4.74714 3.88239 4.81053 3.80008 4.8368 3.70347C4.86306 3.60686 4.85007 3.50378 4.80065 3.41671L3.92875 1.90671C3.90405 1.86318 3.87097 1.82496 3.83143 1.79427C3.79188 1.76358 3.74666 1.74102 3.69835 1.72789C3.65005 1.71475 3.59963 1.71131 3.54999 1.71776C3.50035 1.7242 3.45247 1.74041 3.40913 1.76544C3.36578 1.79047 3.32781 1.82384 3.29742 1.86361C3.26703 1.90338 3.2448 1.94877 3.23203 1.99717C3.21926 2.04557 3.2162 2.09602 3.22302 2.14561C3.22983 2.1952 3.2464 2.24295 3.27175 2.28611L4.14365 3.79611ZM0.569254 4.98855L2.07925 5.86045H2.0794C2.12294 5.88516 2.16115 5.91823 2.19184 5.95778C2.22253 5.99732 2.2451 6.04255 2.25823 6.09085C2.27136 6.13915 2.2748 6.18958 2.26836 6.23922C2.26191 6.28886 2.24571 6.33673 2.22067 6.38008C2.19564 6.42343 2.16228 6.46139 2.12251 6.49178C2.08274 6.52218 2.03734 6.5444 1.98894 6.55717C1.94054 6.56994 1.89009 6.573 1.8405 6.56619C1.79091 6.55937 1.74316 6.54281 1.7 6.51745L0.189854 5.64555C0.14632 5.62084 0.108106 5.58777 0.0774144 5.54822C0.0467231 5.50868 0.0241612 5.46345 0.011029 5.41515C-0.00210307 5.36685 -0.00554573 5.31642 0.000899503 5.26678C0.00734473 5.21714 0.0235504 5.16927 0.0485825 5.12592C0.0736146 5.08258 0.106978 5.04461 0.14675 5.01422C0.186522 4.98382 0.231916 4.9616 0.280316 4.94883C0.328716 4.93606 0.379165 4.933 0.428755 4.93981C0.478345 4.94663 0.526095 4.96319 0.569254 4.98855Z" fill="black"/>
</g>
<defs>
<clipPath id="clip0_3_12575">
<rect width="16" height="16" fill="white"/>
</clipPath>
</defs>
</svg>
