<svg width="16" height="16" viewBox="0 0 16 16" fill="none" xmlns="http://www.w3.org/2000/svg">
<path fill-rule="evenodd" clip-rule="evenodd" d="M4.95 3.5H9.5V2.5H4.95C4.7 1.65 3.95 1 3 1C1.9 1 1 1.9 1 3C1 3.95 1.65 4.7 2.5 4.95V9.5H3.5V4.95C4.2 4.75 4.75 4.2 4.95 3.5ZM3 4C2.45 4 2 3.55 2 3C2 2.45 2.45 2 3 2C3.55 2 4 2.45 4 3C4 3.55 3.55 4 3 4ZM13.5 6.5V11.05C14.35 11.3 15 12.05 15 13C15 14.1 14.1 15 13 15C12.05 15 11.25 14.35 11.05 13.5H6.5V12.5H11.05C11.25 11.8 11.8 11.25 12.5 11.05V6.5H13.5ZM12 13C12 13.55 12.45 14 13 14C13.55 14 14 13.55 14 13C14 12.45 13.55 12 13 12C12.45 12 12 12.45 12 13ZM5 15V11H1V15H5ZM4 14H2V12H4V14ZM11 2V1H15V5H14V2.7L6.2 10.5L5.5 9.8L13.3 2H11Z" fill="black"/>
</svg>
