<svg width="16" height="16" viewBox="0 0 16 16" fill="none" xmlns="http://www.w3.org/2000/svg">
<path fill-rule="evenodd" clip-rule="evenodd" d="M7.74805 15.4322C7.82454 15.4767 7.91149 15.5001 8 15.5C8.08851 15.5001 8.17546 15.4767 8.25195 15.4322L14.252 11.9322C14.3274 11.8881 14.3901 11.825 14.4336 11.7492C14.4771 11.6733 14.5 11.5874 14.5 11.5V7.50002H13.5V11.2129L8 14.4214L2.5 11.2129V4.78712L8 1.57887L13.748 4.93192L14.252 4.06812L8.25195 0.568119C8.17548 0.523507 8.08853 0.5 8 0.5C7.91147 0.5 7.82452 0.523507 7.74805 0.568119L1.74805 4.06812C1.67255 4.11213 1.60991 4.17518 1.56638 4.25096C1.52285 4.32675 1.49997 4.41262 1.5 4.50002V11.5C1.49999 11.5874 1.52289 11.6733 1.56641 11.7492C1.60993 11.825 1.67256 11.8881 1.74805 11.9322L7.74805 15.4322ZM10.2443 9.53733C10.3275 9.51383 10.4135 9.50134 10.5001 9.50018C10.7084 9.49972 10.9117 9.56451 11.0814 9.68546C11.2511 9.8064 11.3786 9.97743 11.4462 10.1746C11.5137 10.3717 11.5178 10.585 11.458 10.7846C11.3981 10.9842 11.2773 11.16 11.1124 11.2875C10.9476 11.4149 10.7469 11.4875 10.5387 11.4951C10.3305 11.5027 10.1251 11.445 9.95136 11.3299C9.77762 11.2149 9.64426 11.0483 9.56999 10.8536C9.49571 10.659 9.48425 10.4459 9.53721 10.2444L8.64656 9.35368L8.65946 9.34078C8.45544 9.44554 8.2294 9.50018 8.00006 9.50018C7.77072 9.50018 7.54468 9.44554 7.34066 9.34078L7.35356 9.35368L6.46291 10.2444C6.52321 10.4609 6.5101 10.6913 6.4256 10.8996C6.34111 11.108 6.19001 11.2824 5.99589 11.3957C5.80177 11.5091 5.57558 11.555 5.35265 11.5262C5.12971 11.4974 4.92259 11.3955 4.76364 11.2366C4.6047 11.0776 4.50287 10.8705 4.47408 10.6476C4.44529 10.4247 4.49114 10.1985 4.60449 10.0043C4.71784 9.81023 4.89229 9.65913 5.10059 9.57463C5.30889 9.49014 5.53931 9.47703 5.75586 9.53733L6.64656 8.64668L6.65946 8.65958C6.5547 8.45556 6.50006 8.22952 6.50006 8.00018C6.50006 7.77084 6.5547 7.5448 6.65946 7.34078L6.64656 7.35368L5.75586 6.46303C5.53931 6.52334 5.30889 6.51022 5.10059 6.42573C4.89229 6.34123 4.71784 6.19013 4.60449 5.99601C4.49114 5.80189 4.44529 5.5757 4.47408 5.35277C4.50287 5.12983 4.6047 4.92271 4.76364 4.76377C4.92259 4.60482 5.12971 4.503 5.35265 4.4742C5.57558 4.44541 5.80177 4.49127 5.99589 4.60461C6.19001 4.71796 6.34111 4.89241 6.4256 5.10071C6.5101 5.30901 6.52321 5.53943 6.46291 5.75598L7.35356 6.64668L7.34071 6.65953C7.54472 6.5548 7.77074 6.50018 8.00006 6.50018C8.22938 6.50018 8.4554 6.5548 8.65941 6.65953L8.64656 6.64668L9.53721 5.75598C9.4769 5.53943 9.49002 5.30901 9.57451 5.10071C9.659 4.89241 9.81011 4.71796 10.0042 4.60461C10.1983 4.49127 10.4245 4.44541 10.6475 4.4742C10.8704 4.503 11.0775 4.60482 11.2365 4.76377C11.3954 4.92271 11.4972 5.12983 11.526 5.35277C11.5548 5.5757 11.509 5.80189 11.3956 5.99601C11.2823 6.19013 11.1078 6.34123 10.8995 6.42573C10.6912 6.51022 10.4608 6.52334 10.2443 6.46303L9.35356 7.35368L9.34071 7.34083C9.44543 7.54484 9.50006 7.77086 9.50006 8.00018C9.50006 8.2295 9.44543 8.45552 9.34071 8.65953L9.35356 8.64668L10.2443 9.53733ZM7.72227 8.41592C7.8045 8.47086 7.90117 8.50018 8.00006 8.50018C8.13264 8.5001 8.25977 8.4474 8.35352 8.35365C8.44727 8.25989 8.49998 8.13276 8.50006 8.00018C8.50006 7.90129 8.47073 7.80462 8.41579 7.72239C8.36085 7.64017 8.28276 7.57608 8.1914 7.53824C8.10004 7.5004 7.9995 7.49049 7.90251 7.50979C7.80552 7.52908 7.71643 7.5767 7.6465 7.64663C7.57658 7.71655 7.52896 7.80564 7.50967 7.90263C7.49037 7.99963 7.50027 8.10016 7.53812 8.19152C7.57596 8.28288 7.64005 8.36097 7.72227 8.41592Z" fill="black"/>
</svg>
