<svg width="16" height="16" viewBox="0 0 16 16" fill="none" xmlns="http://www.w3.org/2000/svg">
<path fill-rule="evenodd" clip-rule="evenodd" d="M16 8.5H13V7.5H13.95C13.7 4.45 11.15 2 8 2C4.7 2 2 4.7 2 8C2 11.3 4.7 14 8 14C10.25 14 12.15 12.8 13.2 11L14.05 11.5C12.85 13.6 10.6 15 8 15C4.15 15 1 11.85 1 8C1 4.15 4.15 1 8 1C11.7 1 14.7 3.85 14.95 7.5H16V8.5ZM9.6999 6.9999C9.8999 7.2999 9.9999 7.6499 9.9999 7.9999C9.9999 8.3499 9.8999 8.6999 9.6999 8.9999L11.3499 10.6499L10.6499 11.3499L8.9999 9.6999C8.6999 9.8999 8.3499 9.9999 7.9999 9.9999C7.6499 9.9999 7.2999 9.8999 6.9999 9.6999L5.3499 11.3499L4.6499 10.6499L6.2999 8.9999C6.0999 8.6999 5.9999 8.3499 5.9999 7.9999C5.9999 7.6499 6.0999 7.2999 6.2999 6.9999L4.6499 5.3499L5.3499 4.6499L6.9999 6.2999C7.2999 6.0999 7.6499 5.9999 7.9999 5.9999C8.3499 5.9999 8.6999 6.0999 8.9999 6.2999L10.6499 4.6499L11.3499 5.3499L9.6999 6.9999ZM6.9999 7.9999C6.9999 8.5499 7.4499 8.9999 7.9999 8.9999C8.5499 8.9999 8.9999 8.5499 8.9999 7.9999C8.9999 7.4499 8.5499 6.9999 7.9999 6.9999C7.4499 6.9999 6.9999 7.4499 6.9999 7.9999Z" fill="black"/>
</svg>
