<svg width="16" height="16" viewBox="0 0 16 16" fill="none" xmlns="http://www.w3.org/2000/svg">
<path fill-rule="evenodd" clip-rule="evenodd" d="M3.75 12.5H8V11.5H3.75C2.25 11.5 1 10.25 1 8.75C1 7.3 2.1 6.1 3.55 6H4V5.55C4.25 3.55 5.95 2 8 2C10.2 2 12 3.8 12 6H13C13 3.25 10.75 1 8 1C5.6 1 3.55 2.7 3.1 5.05C1.35 5.4 0 6.9 0 8.75C0 10.8 1.7 12.5 3.75 12.5ZM15 11.75V9H11V11.75C11 12.5 11.45 13.2 12.15 13.5L13 13.9L13.85 13.5C14.55 13.15 15 12.5 15 11.75ZM10 8H16V11.75C16 12.9 15.35 13.9 14.3 14.4L13 15L11.7 14.4C10.65 13.9 10 12.85 10 11.75V8Z" fill="black"/>
</svg>
