<svg width="16" height="16" viewBox="0 0 16 16" fill="none" xmlns="http://www.w3.org/2000/svg">
<g clip-path="url(#clip0_3_12487)">
<path d="M8 0.000259399L2 2.98921V10.0222C2 11.6135 2.63214 13.1396 3.75736 14.2648C4.88258 15.39 6.4087 16.0222 8 16.0222C9.5913 16.0222 11.1174 15.39 12.2426 14.2648C13.3679 13.1396 14 11.6135 14 10.0222V2.98921L8 0.000259399ZM11.415 13.6572L8 11.956V13.07L10.5181 14.3244C9.75947 14.7662 8.89798 15.0005 8.02016 15.0038C7.14233 15.0071 6.27909 14.7794 5.51719 14.3434C4.75529 13.9074 4.12157 13.2785 3.67971 12.52C3.23786 11.7614 3.00343 10.9 3 10.0222V3.60501L8 1.11421L13 3.60501V5.48001L8 2.98916V4.10311L13 6.59391V8.46891L8 5.97811V7.09206L13 9.58281V10.0222C13.0002 10.4764 12.938 10.9285 12.815 11.3657L8 8.96701V10.081L12.4476 12.2966C12.1838 12.8059 11.8345 13.2661 11.415 13.6572Z" fill="black"/>
</g>
<defs>
<clipPath id="clip0_3_12487">
<rect width="16" height="16" fill="white"/>
</clipPath>
</defs>
</svg>
