<svg width="16" height="16" viewBox="0 0 16 16" fill="none" xmlns="http://www.w3.org/2000/svg">
<path fill-rule="evenodd" clip-rule="evenodd" d="M8 1C10.4145 1 12.4346 2.7207 12.8991 5H11.8684C11.4225 3.2776 9.85975 2 8 2C5.95335 2 4.2444 3.5327 4.02465 5.56495L3.9796 5.9817L3.5614 6.01C2.1251 6.1074 1 7.31105 1 8.75C1 10.2663 2.23365 11.5 3.75 11.5H6V12.5H3.75C1.68225 12.5 0 10.8179 0 8.75C0 6.92455 1.3274 5.3767 3.089 5.062C3.5309 2.71995 5.57605 1 8 1ZM16 6H7V7H9V9.5C9 10.8784 10.1215 12 11.5 12C12.8785 12 14 10.8784 14 9.5V7H16V6ZM11.5 11C10.6728 11 10 10.3272 10 9.5V9H13V9.5C13 10.3272 12.3272 11 11.5 11ZM13 8H10V7H13V8ZM7 8.5C7 8.2239 7.2239 8 7.5 8C7.7761 8 8 8.2239 8 8.5V11.5H7V8.5ZM14 15H15C15 13.6215 13.8785 12.5 12.5 12.5H10.5C9.12145 12.5 8 13.6215 8 15H9C9 14.1729 9.67285 13.5 10.5 13.5H12.5C13.3272 13.5 14 14.1729 14 15Z" fill="black"/>
</svg>
