<svg width="16" height="16" viewBox="0 0 16 16" fill="none" xmlns="http://www.w3.org/2000/svg">
<path fill-rule="evenodd" clip-rule="evenodd" d="M4.5 13H7V12H4.5C2.85 12 1.5 10.65 1.5 9C1.5 7.5 2.6 6.25 4.1 6.05L4.5 6V5.6C4.75 3.55 6.45 2 8.5 2C10.7 2 12.5 3.8 12.5 6H13.5C13.5 3.25 11.25 1 8.5 1C6.05 1 4 2.75 3.6 5.1C1.8 5.55 0.5 7.15 0.5 9C0.5 11.2 2.3 13 4.5 13ZM12.25 7.1L15.25 8.85C15.4 8.95 15.5 9.1 15.5 9.3V12.75C15.5 12.95 15.4 13.1 15.25 13.2L12.25 14.95C12.2 15 12.1 15 12 15C11.9 15 11.8 15 11.75 14.9L8.75 13.15C8.6 13.05 8.5 12.9 8.5 12.7V9.25C8.5 9.05 8.6 8.9 8.75 8.8L11.75 7.05C11.8 7 11.9 7 12 7C12.1 7 12.2 7 12.25 7.1ZM12 13.95L14.5 12.45V9.55L12 8.05L9.5 9.55V12.45L12 13.95Z" fill="black"/>
</svg>
