<svg width="16" height="16" viewBox="0 0 16 16" fill="none" xmlns="http://www.w3.org/2000/svg">
<path fill-rule="evenodd" clip-rule="evenodd" d="M2 14H5V13H2V2H13V8H14V2C14 1.4485 13.5515 1 13 1H2C1.4485 1 1 1.4485 1 2V13C1 13.5515 1.4485 14 2 14ZM4 3H3V7H4V3ZM6 7H7C7.5515 7 8 6.5515 8 6V4C8 3.4485 7.5515 3 7 3H6C5.4485 3 5 3.4485 5 4V6C5 6.5515 5.4485 7 6 7ZM6 6V4H7V6H6ZM11 3H12V7H11V3ZM10.207 10.707L8.417 12.5L10.208 14.2935L9.5 15L7 12.5L9.5 10L10.207 10.707ZM11.793 10.707L13.583 12.5L11.792 14.2935L12.5 15L15 12.5L12.5 10L11.793 10.707ZM10 3H9V7H10V3Z" fill="black"/>
</svg>
