<svg width="16" height="16" viewBox="0 0 16 16" fill="none" xmlns="http://www.w3.org/2000/svg">
<path fill-rule="evenodd" clip-rule="evenodd" d="M7.74805 15.4322C7.82454 15.4767 7.91149 15.5001 8 15.5C8.08851 15.5001 8.17546 15.4767 8.25195 15.4322L14.252 11.9322C14.3274 11.8881 14.3901 11.825 14.4336 11.7492C14.4771 11.6733 14.5 11.5874 14.5 11.5V7.50002H13.5V11.2129L8 14.4214L2.5 11.2129V4.78712L8 1.57887L13.748 4.93192L14.252 4.06812L8.25195 0.568119C8.17548 0.523507 8.08853 0.5 8 0.5C7.91147 0.5 7.82452 0.523507 7.74805 0.568119L1.74805 4.06812C1.67255 4.11213 1.60991 4.17518 1.56638 4.25096C1.52285 4.32675 1.49997 4.41262 1.5 4.50002V11.5C1.49999 11.5874 1.52289 11.6733 1.56641 11.7492C1.60993 11.825 1.67256 11.8881 1.74805 11.9322L7.74805 15.4322ZM9.5 12H6.5C6.23488 11.9997 5.9807 11.8942 5.79323 11.7068C5.60576 11.5193 5.5003 11.2651 5.5 11V5C5.5003 4.73488 5.60576 4.4807 5.79323 4.29323C5.9807 4.10576 6.23488 4.0003 6.5 4H9.5C9.76512 4.0003 10.0193 4.10576 10.2068 4.29323C10.3942 4.4807 10.4997 4.73488 10.5 5V11C10.4997 11.2651 10.3942 11.5193 10.2068 11.7068C10.0193 11.8942 9.76512 11.9997 9.5 12ZM6.5 5V11H9.5006L9.5 5H6.5ZM6.99997 6.45703L7.70701 5.75L8.99999 7.04297L8.29295 7.75001L6.99997 6.45703ZM7 8.95703L7.70704 8.24999L9.00002 9.54298L8.29298 10.25L7 8.95703Z" fill="black"/>
</svg>
