<svg width="16" height="16" viewBox="0 0 16 16" fill="none" xmlns="http://www.w3.org/2000/svg">
<path fill-rule="evenodd" clip-rule="evenodd" d="M1 8C1 11.8598 4.14015 15 8 15C11.8598 15 15 11.8598 15 8C15 4.1402 11.8598 1 8 1C4.14015 1 1 4.1402 1 8ZM2 8C2 4.6916 4.69165 2 8 2C11.3083 2 14 4.6916 14 8C14 11.3084 11.3083 14 8 14C4.69165 14 2 11.3084 2 8ZM8 4.5C8.80485 4.5 9.5886 4.78095 10.2112 5.2888L10.9198 4.58025C10.9107 4.57256 10.9023 4.56437 10.8938 4.55618L10.8938 4.55617C10.8842 4.54688 10.8747 4.5376 10.8643 4.52905C10.0606 3.8655 9.04345 3.5 8 3.5C5.51855 3.5 3.5 5.5188 3.5 8H4.5C4.5 6.07005 6.0703 4.5 8 4.5ZM11.5 6.5C11.7761 6.5 12 6.27614 12 6C12 5.72386 11.7761 5.5 11.5 5.5C11.2239 5.5 11 5.72386 11 6C11 6.27614 11.2239 6.5 11.5 6.5ZM10 6.5C10.2761 6.5 10.5 6.7239 10.5 7C10.5 7.09865 10.4746 7.19165 10.416 7.27735L8.416 10.2774C8.32325 10.4165 8.1671 10.5 8 10.5C7.8329 10.5 7.67675 10.4165 7.584 10.2774L5.584 7.27735C5.5254 7.19165 5.5 7.09865 5.5 7C5.5 6.7239 5.7239 6.5 6 6.5H10ZM6.9342 7.5L8 9.09865L9.0658 7.5H6.9342ZM5.78988 10.7102C6.41198 11.2184 7.19438 11.5 8.00013 11.5C9.92983 11.5 11.5001 9.92995 11.5001 8H12.5001C12.5001 10.4812 10.4816 12.5 8.00013 12.5C6.95028 12.5 5.92933 12.1311 5.12413 11.4609C5.11602 11.4542 5.10856 11.4469 5.1011 11.4397C5.09425 11.433 5.0874 11.4263 5.08008 11.42L5.78988 10.7102ZM5 10C5 10.2761 4.77614 10.5 4.5 10.5C4.22386 10.5 4 10.2761 4 10C4 9.72386 4.22386 9.5 4.5 9.5C4.77614 9.5 5 9.72386 5 10Z" fill="black"/>
</svg>
