<svg width="16" height="16" viewBox="0 0 16 16" fill="none" xmlns="http://www.w3.org/2000/svg">
<path fill-rule="evenodd" clip-rule="evenodd" d="M7.74805 15.4322C7.82454 15.4767 7.91149 15.5001 8 15.5C8.08851 15.5001 8.17546 15.4767 8.25195 15.4322L14.252 11.9322C14.3274 11.8881 14.3901 11.825 14.4336 11.7492C14.4771 11.6733 14.5 11.5874 14.5 11.5V7.50002H13.5V11.2129L8 14.4214L2.5 11.2129V4.78712L8 1.57887L13.748 4.93192L14.252 4.06812L8.25195 0.568119C8.17548 0.523507 8.08853 0.5 8 0.5C7.91147 0.5 7.82452 0.523507 7.74805 0.568119L1.74805 4.06812C1.67255 4.11213 1.60991 4.17518 1.56638 4.25096C1.52285 4.32675 1.49997 4.41262 1.5 4.50002V11.5C1.49999 11.5874 1.52289 11.6733 1.56641 11.7492C1.60993 11.825 1.67256 11.8881 1.74805 11.9322L7.74805 15.4322ZM6.69894 11.8989C6.78567 11.9644 6.89135 11.9998 7 11.9998C7.10865 11.9998 7.21433 11.9644 7.30106 11.8989C7.3878 11.8335 7.45085 11.7416 7.4807 11.6371L9 6.31977L9.5193 8.13712C9.54915 8.24159 9.6122 8.33349 9.69894 8.39892C9.78567 8.46436 9.89135 8.49976 10 8.49977H12V7.49977H10.3772L9.4807 4.36242C9.45081 4.258 9.38774 4.16615 9.30101 4.10076C9.21428 4.03537 9.10862 4 9 4C8.89138 4 8.78572 4.03537 8.69899 4.10076C8.61226 4.16615 8.54919 4.258 8.5193 4.36242L7 9.67977L6.4807 7.86242C6.45085 7.75796 6.3878 7.66605 6.30106 7.60062C6.21433 7.53519 6.10865 7.49979 6 7.49977H4V8.49977H5.6228L6.5193 11.6371C6.54915 11.7416 6.6122 11.8335 6.69894 11.8989Z" fill="black"/>
</svg>
