<svg width="16" height="16" viewBox="0 0 16 16" fill="none" xmlns="http://www.w3.org/2000/svg">
<path fill-rule="evenodd" clip-rule="evenodd" d="M12 1C12.3 1 12.55 1.15 12.75 1.35C12.95 1.6 13.05 1.9 13 2.2L12.65 4.25C12.5 4.95 11.9 5.5 11.15 5.5H11V9H10V5.5H4.00005V12.5H3.00005C2.70005 12.5 2.50005 12.7 2.50005 13V14H5.50005V10.5C5.50005 9.65 6.15005 9 7.00005 9C7.85005 9 8.50005 9.65 8.50005 10.5V14H11V15H1.50005V13C1.50005 12.15 2.15005 11.5 3.00005 11.5V5.5H2.85005C2.10005 5.5 1.50005 4.95 1.35005 4.25L1.00005 2.2C0.950046 1.9 1.05005 1.6 1.25005 1.35C1.45005 1.15 1.70005 1 2.00005 1H3.35005C3.65005 1 3.90005 1.15 4.00005 1.4L4.30005 2H5.00005V1.75C5.00005 1.35 5.35005 1 5.75005 1H8.25005C8.65005 1 9.00005 1.35 9.00005 1.75V2H9.70005L10 1.4C10.1 1.15 10.35 1 10.65 1H12ZM7.00005 10C6.70005 10 6.50005 10.2 6.50005 10.5V14H7.50005V10.5C7.50005 10.2 7.30005 10 7.00005 10ZM11.15 4.5C11.4 4.5 11.6 4.35 11.65 4.1L12 2H10.8L10.3 3H8.00005V2H6.00005V3H3.70005L3.20005 2H2.00005L2.35005 4.1C2.40005 4.3 2.60005 4.5 2.85005 4.5H11.15ZM13.5 14L16 11.5L13.5 9L12.8 9.7L14.1 11H10V12H14.1L12.8 13.3L13.5 14Z" fill="black"/>
</svg>
