<svg width="16" height="16" viewBox="0 0 16 16" fill="none" xmlns="http://www.w3.org/2000/svg">
<path fill-rule="evenodd" clip-rule="evenodd" d="M7.74805 15.4322C7.82454 15.4767 7.91149 15.5001 8 15.5C8.08851 15.5001 8.17546 15.4767 8.25195 15.4322L14.252 11.9322C14.3274 11.8881 14.3901 11.825 14.4336 11.7492C14.4771 11.6733 14.5 11.5874 14.5 11.5V7.50002H13.5V11.2129L8 14.4214L2.5 11.2129V4.78712L8 1.57887L13.748 4.93192L14.252 4.06812L8.25195 0.568119C8.17548 0.523507 8.08853 0.5 8 0.5C7.91147 0.5 7.82452 0.523507 7.74805 0.568119L1.74805 4.06812C1.67255 4.11213 1.60991 4.17518 1.56638 4.25096C1.52285 4.32675 1.49997 4.41262 1.5 4.50002V11.5C1.49999 11.5874 1.52289 11.6733 1.56641 11.7492C1.60993 11.825 1.67256 11.8881 1.74805 11.9322L7.74805 15.4322ZM5.87969 10.9846C6.4421 11.547 7.20463 11.8633 8 11.8642C8.79537 11.8633 9.5579 11.547 10.1203 10.9846C10.6827 10.4221 10.9991 9.65961 11 8.86424V5.63574L8 4.13574L5 5.63574V8.86424C5.00091 9.65961 5.31728 10.4221 5.87969 10.9846ZM6 8.86424V6.25364L8 5.25364L10 6.25364V8.86424C10 9.39468 9.78929 9.90338 9.41421 10.2785C9.03914 10.6535 8.53043 10.8642 8 10.8642C7.46957 10.8642 6.96086 10.6535 6.58579 10.2785C6.21071 9.90338 6 9.39468 6 8.86424Z" fill="black"/>
</svg>
