<svg width="16" height="16" viewBox="0 0 16 16" fill="none" xmlns="http://www.w3.org/2000/svg">
<path fill-rule="evenodd" clip-rule="evenodd" d="M2 2V14H9V15H2C1.45 15 1 14.55 1 14V2C1 1.45 1.45 1 2 1H11C11.55 1 12 1.45 12 2V4H11V2H2ZM10 3H8V4H10V3ZM12.5 11.5H13.5C13.5 11.25 13.6 11 13.8 10.8L14.05 10.55C14.65 9.95 15 9.1 15 8.25C15 6.45 13.55 5 11.75 5C9.95 5 8.5 6.45 8.5 8.25C8.5 9.1 8.85 9.95 9.45 10.55L9.7 10.8C9.9 11 10 11.25 10 11.5H11C11 10.95 10.8 10.5 10.4 10.1L10.15 9.85C9.75 9.4 9.5 8.85 9.5 8.25C9.5 7 10.5 6 11.75 6C13 6 14 7 14 8.25C14 8.85 13.75 9.45 13.35 9.85L13.1 10.1C12.7 10.5 12.5 10.95 12.5 11.5ZM13.5 13.5V12.5H10V13.5H13.5ZM3 11V12H7V11H3ZM6.5 9.5C6.5 9.77614 6.27614 10 6 10C5.72386 10 5.5 9.77614 5.5 9.5C5.5 9.22386 5.72386 9 6 9C6.27614 9 6.5 9.22386 6.5 9.5ZM12.5 15.5V14.5H11V15.5H12.5ZM4.5 9H3V10H4.5V9ZM3 7H6.5V8H3V7ZM8.5 5H5V6H8.5V5ZM4 5.5C4 5.77614 3.77614 6 3.5 6C3.22386 6 3 5.77614 3 5.5C3 5.22386 3.22386 5 3.5 5C3.77614 5 4 5.22386 4 5.5ZM7 3.5C7 3.77614 6.77614 4 6.5 4C6.22386 4 6 3.77614 6 3.5C6 3.22386 6.22386 3 6.5 3C6.77614 3 7 3.22386 7 3.5ZM5 3H3V4H5V3Z" fill="black"/>
</svg>
