<svg width="16" height="16" viewBox="0 0 16 16" fill="none" xmlns="http://www.w3.org/2000/svg">
<path fill-rule="evenodd" clip-rule="evenodd" d="M4.75 13.9L7.5 15.5L10.2 13.9C10.9 13.5 11.5 12.95 11.95 12.3L11.15 11.75C10.8 12.3 10.3 12.7 9.75 13.05L7.5 14.4L5.25 13.05C3.85 12.25 3 10.75 3 9.15V2H9V1H3C2.45 1 2 1.45 2 2V9.15C2 11.1 3.05 12.9 4.75 13.9ZM13 1V7.05C13.85 7.3 14.5 8.05 14.5 9C14.5 10.1 13.6 11 12.5 11C11.4 11 10.5 10.1 10.5 9C10.5 8.05 11.15 7.25 12 7.05V4H10.5V3H12V2H10.5V1H13ZM11.5 9C11.5 9.55 11.95 10 12.5 10C13.05 10 13.5 9.55 13.5 9C13.5 8.45 13.05 8 12.5 8C11.95 8 11.5 8.45 11.5 9Z" fill="black"/>
</svg>
