<svg width="16" height="16" viewBox="0 0 16 16" fill="none" xmlns="http://www.w3.org/2000/svg">
<path fill-rule="evenodd" clip-rule="evenodd" d="M14 2.6V1.5C14 0.95 13.55 0.5 13 0.5H9C8.45 0.5 8 0.95 8 1.5V4.5C8 5.05 8.45 5.5 9 5.5H13C13.55 5.5 14 5.05 14 4.5V3.4L15.5 4.5V1.5L14 2.6ZM13 4.5H9V1.5H13V4.5ZM10 15H11V12.5C11 10.55 9.45 9 7.5 9H4.5C2.55 9 1 10.55 1 12.5V15H2V12.5C2 11.1 3.1 10 4.5 10H7.5C8.9 10 10 11.1 10 12.5V15ZM7.5 12.5H9V13.5H7.5V15H6.5V13.5H5V12.5H6.5V11H7.5V12.5ZM6 7C6.7 7 7.3 6.7 7.75 6.25L8.5 7C7.85 7.6 6.95 8 6 8C4.05 8 2.5 6.45 2.5 4.5C2.5 2.55 4.05 1 6 1C6.35 1 6.65 1.05 6.95 1.15L6.65 2.1C6.45 2.05 6.25 2 6 2C4.6 2 3.5 3.1 3.5 4.5C3.5 5.9 4.6 7 6 7Z" fill="black"/>
</svg>
