<svg width="16" height="16" viewBox="0 0 16 16" fill="none" xmlns="http://www.w3.org/2000/svg">
<path fill-rule="evenodd" clip-rule="evenodd" d="M7.74805 15.4322C7.82454 15.4767 7.91149 15.5001 8 15.5C8.08851 15.5001 8.17546 15.4767 8.25195 15.4322L14.252 11.9322C14.3274 11.8881 14.3901 11.825 14.4336 11.7492C14.4771 11.6733 14.5 11.5874 14.5 11.5V7.50002H13.5V11.2129L8 14.4214L2.5 11.2129V4.78712L8 1.57887L13.748 4.93192L14.252 4.06812L8.25195 0.568119C8.17548 0.523507 8.08853 0.5 8 0.5C7.91147 0.5 7.82452 0.523507 7.74805 0.568119L1.74805 4.06812C1.67255 4.11213 1.60991 4.17518 1.56638 4.25096C1.52285 4.32675 1.49997 4.41262 1.5 4.50002V11.5C1.49999 11.5874 1.52289 11.6733 1.56641 11.7492C1.60993 11.825 1.67256 11.8881 1.74805 11.9322L7.74805 15.4322ZM4.8181 10.6819C4.40023 10.264 4.06876 9.76793 3.84261 9.22196C3.61646 8.67599 3.50006 8.09082 3.50006 7.49987C3.50006 6.90892 3.61646 6.32375 3.84261 5.77778C4.06876 5.23181 4.40023 4.73574 4.8181 4.31787L5.525 5.02512C5.19999 5.3501 4.94218 5.73591 4.76628 6.16053C4.59039 6.58515 4.49985 7.04026 4.49985 7.49987C4.49985 7.95948 4.59039 8.41459 4.76628 8.83921C4.94218 9.26383 5.19999 9.64964 5.525 9.97462L4.8181 10.6819ZM10.475 9.97487L11.1819 10.6819C11.5998 10.264 11.9312 9.76793 12.1574 9.22196C12.3835 8.67599 12.4999 8.09082 12.4999 7.49987C12.4999 6.90892 12.3835 6.32375 12.1574 5.77778C11.9312 5.23181 11.5998 4.73574 11.1819 4.31787L10.475 5.02537C10.8 5.35035 11.0578 5.73616 11.2337 6.16078C11.4096 6.5854 11.5001 7.04051 11.5001 7.50012C11.5001 7.95973 11.4096 8.41484 11.2337 8.83946C11.0578 9.26408 10.8 9.64989 10.475 9.97487ZM9.0608 8.56077L9.7678 9.26782C10.236 8.79868 10.499 8.16294 10.499 7.50012C10.499 6.83731 10.236 6.20157 9.7678 5.73242L9.0608 6.43947C9.34162 6.72103 9.49932 7.10246 9.49932 7.50012C9.49932 7.89778 9.34162 8.27922 9.0608 8.56077ZM8.5 13H7.5V7.5C7.5 7.36739 7.55268 7.24021 7.64645 7.14645C7.74021 7.05268 7.86739 7 8 7C8.13261 7 8.25979 7.05268 8.35355 7.14645C8.44732 7.24021 8.5 7.36739 8.5 7.5V13ZM5.50103 7.50012C5.50103 8.16294 5.76399 8.79868 6.2322 9.26782L6.9392 8.56077C6.65838 8.27922 6.50068 7.89778 6.50068 7.50012C6.50068 7.10246 6.65838 6.72103 6.9392 6.43947L6.2322 5.73242C5.76399 6.20157 5.50103 6.83731 5.50103 7.50012Z" fill="black"/>
</svg>
