<svg width="16" height="16" viewBox="0 0 16 16" fill="none" xmlns="http://www.w3.org/2000/svg">
<path fill-rule="evenodd" clip-rule="evenodd" d="M7.74805 15.4322C7.82454 15.4767 7.91149 15.5001 8 15.5C8.08851 15.5001 8.17546 15.4767 8.25195 15.4322L14.252 11.9322C14.3274 11.8881 14.3901 11.825 14.4336 11.7492C14.4771 11.6733 14.5 11.5874 14.5 11.5V7.50002H13.5V11.2129L8 14.4214L2.5 11.2129V4.78712L8 1.57887L13.748 4.93192L14.252 4.06812L8.25195 0.568119C8.17548 0.523507 8.08853 0.5 8 0.5C7.91147 0.5 7.82452 0.523507 7.74805 0.568119L1.74805 4.06812C1.67255 4.11213 1.60991 4.17518 1.56638 4.25096C1.52285 4.32675 1.49997 4.41262 1.5 4.50002V11.5C1.49999 11.5874 1.52289 11.6733 1.56641 11.7492C1.60993 11.825 1.67256 11.8881 1.74805 11.9322L7.74805 15.4322ZM10.5001 9.50018C10.4135 9.50134 10.3275 9.51383 10.2443 9.53733L9.35356 8.64668L9.34071 8.65953C9.44408 8.45502 9.49863 8.22933 9.50006 8.00018C9.49962 7.60249 9.34145 7.22121 9.06024 6.94C8.77903 6.65879 8.39775 6.50062 8.00006 6.50018C7.77091 6.50161 7.54522 6.55616 7.34071 6.65953L7.35356 6.64668L6.46291 5.75598C6.52321 5.53943 6.5101 5.30901 6.4256 5.10071C6.34111 4.89241 6.19001 4.71796 5.99589 4.60461C5.80177 4.49127 5.57558 4.44541 5.35265 4.4742C5.12971 4.503 4.92259 4.60482 4.76364 4.76377C4.6047 4.92271 4.50287 5.12983 4.47408 5.35277C4.44529 5.5757 4.49114 5.80189 4.60449 5.99601C4.71784 6.19013 4.89229 6.34123 5.10059 6.42573C5.30889 6.51022 5.53931 6.52334 5.75586 6.46303L6.64656 7.35368L6.65946 7.34078C6.55605 7.54529 6.50148 7.77101 6.50006 8.00018C6.50049 8.39787 6.65867 8.77915 6.93988 9.06036C7.22109 9.34157 7.60237 9.49974 8.00006 9.50018C8.22923 9.49876 8.45494 9.44419 8.65946 9.34078L8.64656 9.35368L9.53721 10.2444C9.48425 10.4459 9.49571 10.659 9.56999 10.8536C9.64426 11.0483 9.77762 11.2149 9.95136 11.3299C10.1251 11.445 10.3305 11.5027 10.5387 11.4951C10.7469 11.4875 10.9476 11.4149 11.1124 11.2875C11.2773 11.16 11.3981 10.9842 11.458 10.7846C11.5178 10.585 11.5137 10.3717 11.4462 10.1746C11.3786 9.97743 11.2511 9.8064 11.0814 9.68546C10.9117 9.56451 10.7084 9.49972 10.5001 9.50018ZM8.00006 8.50018C7.90117 8.50018 7.8045 8.47086 7.72227 8.41592C7.64005 8.36097 7.57596 8.28288 7.53812 8.19152C7.50027 8.10016 7.49037 7.99963 7.50967 7.90263C7.52896 7.80564 7.57658 7.71655 7.6465 7.64663C7.71643 7.5767 7.80552 7.52908 7.90251 7.50979C7.9995 7.49049 8.10004 7.5004 8.1914 7.53824C8.28276 7.57608 8.36085 7.64017 8.41579 7.72239C8.47073 7.80462 8.50006 7.90129 8.50006 8.00018C8.49994 8.13275 8.44722 8.25986 8.35348 8.3536C8.25974 8.44734 8.13263 8.50006 8.00006 8.50018ZM10.5 5.5C10.7761 5.5 11 5.27614 11 5C11 4.72386 10.7761 4.5 10.5 4.5C10.2239 4.5 10 4.72386 10 5C10 5.27614 10.2239 5.5 10.5 5.5ZM4.5 7.5C4.5 7.77614 4.27614 8 4 8C3.72386 8 3.5 7.77614 3.5 7.5C3.5 7.22386 3.72386 7 4 7C4.27614 7 4.5 7.22386 4.5 7.5ZM12 7.5C12 7.77614 11.7761 8 11.5 8C11.2239 8 11 7.77614 11 7.5C11 7.22386 11.2239 7 11.5 7C11.7761 7 12 7.22386 12 7.5ZM8 11.5C8 11.7761 7.77614 12 7.5 12C7.22386 12 7 11.7761 7 11.5C7 11.2239 7.22386 11 7.5 11C7.77614 11 8 11.2239 8 11.5Z" fill="black"/>
</svg>
