<svg width="16" height="16" viewBox="0 0 16 16" fill="none" xmlns="http://www.w3.org/2000/svg">
<path fill-rule="evenodd" clip-rule="evenodd" d="M8 1C10.15 1 11.95 2.5 12.4 4.55C13.9 4.85 15 6.2 15 7.8C15 9.6 13.55 11.05 11.75 11.05H11.5V10.05H11.7C12.95 10.05 13.95 9.05 13.95 7.8C13.95 6.65 13.05 5.65 11.9 5.55L11.5 5.5L11.45 5.05C11.25 3.3 9.75 2 8 2C6.25 2 4.75 3.3 4.55 5.1L4.5 5.5H4.05C2.9 5.6 2 6.6 2 7.75C2 9 3 10 4.25 10H4.5V11H4.25C2.45 11 1 9.55 1 7.75C1 6.2 2.1 4.85 3.6 4.55C4.05 2.5 5.85 1 8 1ZM10.75 12H11C11.85 12 12.5 12.65 12.5 13.5C12.5 14.35 11.85 15 11 15C10.15 15 9.5 14.35 9.5 13.5C9.5 13.1 9.65 12.75 9.9 12.5L8.25 9.45H8H7.75L6.1 12.5C6.35 12.75 6.5 13.1 6.5 13.5C6.5 14.35 5.85 15 5 15C4.15 15 3.5 14.35 3.5 13.5C3.5 12.65 4.15 12 5 12H5.25L6.9 9C6.65 8.75 6.5 8.4 6.5 8C6.5 7.15 7.15 6.5 8 6.5C8.85 6.5 9.5 7.15 9.5 8C9.5 8.4 9.35 8.75 9.1 9L10.75 12ZM8.5 8C8.5 7.7 8.3 7.5 8 7.5C7.7 7.5 7.5 7.7 7.5 8C7.5 8.3 7.7 8.5 8 8.5C8.3 8.5 8.5 8.3 8.5 8ZM4.5 13.5C4.5 13.8 4.7 14 5 14C5.3 14 5.5 13.8 5.5 13.5C5.5 13.2 5.3 13 5 13C4.7 13 4.5 13.2 4.5 13.5ZM10.5 13.5C10.5 13.8 10.7 14 11 14C11.3 14 11.5 13.8 11.5 13.5C11.5 13.2 11.3 13 11 13C10.7 13 10.5 13.2 10.5 13.5Z" fill="black"/>
</svg>
