<svg width="16" height="16" viewBox="0 0 16 16" fill="none" xmlns="http://www.w3.org/2000/svg">
<g clip-path="url(#clip0_3_12467)">
<path fill-rule="evenodd" clip-rule="evenodd" d="M8 3.5C7.15 3.5 6.5 2.85 6.5 2C6.5 1.15 7.15 0.5 8 0.5C8.85 0.5 9.5 1.15 9.5 2C9.5 2.85 8.85 3.5 8 3.5ZM8 1.5C7.7 1.5 7.5 1.7 7.5 2C7.5 2.3 7.7 2.5 8 2.5C8.3 2.5 8.5 2.3 8.5 2C8.5 1.7 8.3 1.5 8 1.5ZM10.75 3.1002L11.2 2.2002C13.8 3.4502 15.5 6.1002 15.5 8.9502C15.5 9.4002 15.45 9.8002 15.4 10.2002L14.4 10.0502C14.45 9.7002 14.5 9.3502 14.5 9.0002C14.5 6.5002 13.05 4.2002 10.75 3.1002ZM2 14C1.15 14 0.5 13.35 0.5 12.5C0.5 11.65 1.15 11 2 11C2.85 11 3.5 11.65 3.5 12.5C3.5 13.35 2.85 14 2 14ZM2 12C1.7 12 1.5 12.2 1.5 12.5C1.5 12.8 1.7 13 2 13C2.3 13 2.5 12.8 2.5 12.5C2.5 12.2 2.3 12 2 12ZM14 14C13.15 14 12.5 13.35 12.5 12.5C12.5 11.65 13.15 11 14 11C14.85 11 15.5 11.65 15.5 12.5C15.5 13.35 14.85 14 14 14ZM14 12C13.7 12 13.5 12.2 13.5 12.5C13.5 12.8 13.7 13 14 13C14.3 13 14.5 12.8 14.5 12.5C14.5 12.2 14.3 12 14 12ZM12.2499 5.95L12.7499 6.8L8.99986 9L12.0999 10.9L11.5999 11.75L8.49986 9.9V15C8.49986 15.3 8.29986 15.5 7.99986 15.5C7.69986 15.5 7.49986 15.3 7.49986 15V9.85L4.39986 11.65L3.89986 10.8L6.99986 9L2.54986 6.35C2.34986 6.2 2.24986 5.85 2.39986 5.65C2.54986 5.45 2.84986 5.35 3.09986 5.5L7.49986 8.1V4.5H8.49986V8.15L12.2499 5.95Z" fill="black"/>
</g>
<defs>
<clipPath id="clip0_3_12467">
<rect width="16" height="16" fill="white"/>
</clipPath>
</defs>
</svg>
