<svg width="16" height="16" viewBox="0 0 16 16" fill="none" xmlns="http://www.w3.org/2000/svg">
<path fill-rule="evenodd" clip-rule="evenodd" d="M14.5 2.5V5.5H16V6.5H14.5V9.5C14.5 10.05 14.05 10.5 13.5 10.5H11.5V9.5H13.5V2.5H6.5V4.5H5.5V2.5C5.5 1.95 5.95 1.5 6.5 1.5H13.5C14.05 1.5 14.5 1.95 14.5 2.5ZM9.5 13.5H2.5V6.5H4.5V5.5H2.5C1.95 5.5 1.5 5.95 1.5 6.5V9.5H0V10.5H1.5V13.5C1.5 14.05 1.95 14.5 2.5 14.5H9.5C10.05 14.5 10.5 14.05 10.5 13.5V11.5H9.5V13.5ZM10.5 9.5H5.5V10.5H10.5V9.5ZM5.5 7.5H10.5V8.5H5.5V7.5ZM10.5 5.5H5.5V6.5H10.5V5.5Z" fill="black"/>
</svg>
