<svg width="16" height="16" viewBox="0 0 16 16" fill="none" xmlns="http://www.w3.org/2000/svg">
<g clip-path="url(#clip0_3_12569)">
<path fill-rule="evenodd" clip-rule="evenodd" d="M0.5 8C0.5 8.729 0.60445 9.4499 0.81065 10.1426L1.76915 9.85735C1.5906 9.25725 1.5 8.6324 1.5 8C1.5 4.4159 4.4159 1.5 8 1.5V0.5C3.8645 0.5 0.5 3.8645 0.5 8ZM8.5 3.5L11.5 0.5L14.5 3.5L13.7929 4.20115L12 2.4077V10.5C12 11.0513 11.5514 11.5 11 11.5H5C4.4486 11.5 4 11.0513 4 10.5V5H5V10.5H11V2.40915L9.2073 4.20115L8.5 3.5ZM9.25 9.5C9.66355 9.5 10 9.16355 10 8.75V6.25C10 5.83645 9.66355 5.5 9.25 5.5H6.75C6.33645 5.5 6 5.83645 6 6.25V8.75C6 9.16355 6.33645 9.5 6.75 9.5H9.25ZM9 6.5V8.5H7V6.5H9ZM8 15.5001V14.5001C11.5841 14.5001 14.5 11.5842 14.5 8.00007C14.5 7.36767 14.4094 6.74282 14.2309 6.14272L15.1894 5.85742C15.3955 6.55017 15.5 7.27107 15.5 8.00007C15.5 12.1356 12.1355 15.5001 8 15.5001Z" fill="black"/>
</g>
<defs>
<clipPath id="clip0_3_12569">
<rect width="16" height="16" fill="white"/>
</clipPath>
</defs>
</svg>
