<svg width="16" height="16" viewBox="0 0 16 16" fill="none" xmlns="http://www.w3.org/2000/svg">
<path fill-rule="evenodd" clip-rule="evenodd" d="M1 1H5V2H1V1ZM14 3V6H13V3H6V2H13C13.552 2.0006 13.9994 2.448 14 3ZM2.5 13V7.91405L0.70705 9.70705L0 9L3 6L6 9L5.29295 9.70705L3.5 7.91405V13H9.5V14H3.5C2.948 13.9993 2.50065 13.552 2.5 13ZM15.5 9H14V8H13V9H12.5C11.9477 9 11.5 9.4477 11.5 10V11C11.5 11.5523 11.9477 12 12.5 12H14.5V13H11.5V14H13V15H14V14H14.5C15.0523 14 15.5 13.5523 15.5 13V12C15.5 11.4477 15.0523 11 14.5 11H12.5V10H15.5V9ZM3.5 3H1V4H3.5V3Z" fill="black"/>
</svg>
