<svg width="16" height="16" viewBox="0 0 16 16" fill="none" xmlns="http://www.w3.org/2000/svg">
<path fill-rule="evenodd" clip-rule="evenodd" d="M15 1.5H9V2.5H15V1.5ZM9 3.5H15V4.5H9V3.5ZM12 5.5H9V6.5H12V5.5ZM10.5 13H9.5V12H10.5C11.9 12 13 10.9 13 9.5V8.5H14V9.5C14 11.45 12.45 13 10.5 13ZM2 9H7C7.55 9 8 9.45 8 10V13C8 13.55 7.55 14 7 14H5.5V13H7V10H2V13H3.75L4.9 15L4.05 15.5L3.2 14H2C1.45 14 1 13.55 1 13V10C1 9.45 1.45 9 2 9ZM3 7H2V6C2 4.05 3.55 2.5 5.5 2.5H7.5V3.5H5.5C4.1 3.5 3 4.6 3 6V7Z" fill="black"/>
</svg>
