<svg width="16" height="16" viewBox="0 0 16 16" fill="none" xmlns="http://www.w3.org/2000/svg">
<path fill-rule="evenodd" clip-rule="evenodd" d="M6.41455 4.71069H7.6725V7.28594H7.715C7.84245 6.79294 8.33535 6.43604 8.91335 6.43604C10.0437 6.43604 10.6302 7.25194 10.6302 8.76479C10.6302 10.2776 10.0437 11.1021 8.91335 11.1021C8.33535 11.1021 7.84245 10.7366 7.715 10.2522H7.6725V11.0001H6.41455V4.71069ZM9.3213 9.15574V8.38229C9.3213 7.82139 8.9728 7.45589 8.49685 7.45589C8.0209 7.45589 7.6725 7.70234 7.6725 8.11029V9.42769C7.6725 9.83564 8.0209 10.0821 8.49685 10.0821C8.9728 10.0821 9.3213 9.71664 9.3213 9.15574ZM15.6791 10.9999H11.4806V9.83558L13.3079 8.27173C13.9708 7.70228 14.2003 7.37078 14.2003 6.86938V6.75038C14.2003 6.29993 13.8008 6.07043 13.4183 6.07043C12.8574 6.07043 12.5854 6.45288 12.4664 6.90333L11.353 6.47838C11.6166 5.65398 12.3049 4.96558 13.5374 4.96558C14.8207 4.96558 15.5602 5.72198 15.5602 6.75038C15.5602 7.77028 14.8293 8.39068 13.9793 9.06213L12.8744 9.92908H15.6791V10.9999ZM2.79331 5.06763H0.558105V11.0001H2.79331C4.36571 11.0001 5.40256 10.0057 5.40256 8.03388C5.40256 6.06208 4.36571 5.06763 2.79331 5.06763ZM4.03426 8.49213C4.03426 9.43553 3.55831 9.85198 2.79331 9.85198L1.84996 9.85203V6.21438H2.79331C3.55831 6.21438 4.03426 6.63083 4.03426 7.57423V8.49213Z" fill="black"/>
</svg>
