<svg width="16" height="16" viewBox="0 0 16 16" fill="none" xmlns="http://www.w3.org/2000/svg">
<path d="M13 9.5C12.65 9.5 12.3 9.65 12.05 9.85L9.9 8.55C9.95 8.35 10 8.2 10 8C10 7.8 9.95 7.6 9.9 7.45L12.05 6.15C12.3 6.35 12.65 6.5 13 6.5C13.85 6.5 14.5 5.85 14.5 5C14.5 4.15 13.85 3.5 13 3.5C12.15 3.5 11.5 4.15 11.5 5C11.5 5.1 11.5 5.2 11.55 5.3L9.4 6.6C9.05 6.2 8.55 6 8 6C7.7 6 7.45 6.05 7.2 6.2L5.3 3.8C5.4 3.55 5.5 3.3 5.5 3C5.5 2.15 4.85 1.5 4 1.5C3.15 1.5 2.5 2.15 2.5 3C2.5 3.85 3.15 4.5 4 4.5C4.15 4.5 4.35 4.45 4.5 4.4L6.4 6.8C6.25 7 6.15 7.25 6.05 7.5H3.9C3.7 6.9 3.15 6.5 2.5 6.5C1.65 6.5 1 7.15 1 8C1 8.85 1.65 9.5 2.5 9.5C3.15 9.5 3.7 9.1 3.9 8.5H6.05C6.1 8.75 6.25 9 6.4 9.2L4.5 11.6C4.35 11.55 4.15 11.5 4 11.5C3.15 11.5 2.5 12.15 2.5 13C2.5 13.85 3.15 14.5 4 14.5C4.85 14.5 5.5 13.85 5.5 13C5.5 12.7 5.4 12.45 5.25 12.2L7.15 9.8C7.4 9.9 7.7 10 7.95 10C8.5 10 9 9.8 9.35 9.4L11.5 10.7C11.5 10.8 11.45 10.9 11.45 11C11.45 11.85 12.1 12.5 12.95 12.5C13.8 12.5 14.45 11.85 14.45 11C14.45 10.15 13.85 9.5 13 9.5ZM13 4.5C13.3 4.5 13.5 4.7 13.5 5C13.5 5.3 13.3 5.5 13 5.5C12.7 5.5 12.5 5.3 12.5 5C12.5 4.7 12.7 4.5 13 4.5ZM3.5 3C3.5 2.7 3.7 2.5 4 2.5C4.3 2.5 4.5 2.7 4.5 3C4.5 3.3 4.3 3.5 4 3.5C3.7 3.5 3.5 3.3 3.5 3ZM2.5 8.5C2.2 8.5 2 8.3 2 8C2 7.7 2.2 7.5 2.5 7.5C2.8 7.5 3 7.7 3 8C3 8.3 2.8 8.5 2.5 8.5ZM4 13.5C3.7 13.5 3.5 13.3 3.5 13C3.5 12.7 3.7 12.5 4 12.5C4.3 12.5 4.5 12.7 4.5 13C4.5 13.3 4.3 13.5 4 13.5ZM8 9C7.45 9 7 8.55 7 8C7 7.45 7.45 7 8 7C8.55 7 9 7.45 9 8C9 8.55 8.55 9 8 9ZM13 11.5C12.7 11.5 12.5 11.3 12.5 11C12.5 10.7 12.7 10.5 13 10.5C13.3 10.5 13.5 10.7 13.5 11C13.5 11.3 13.3 11.5 13 11.5Z" fill="black"/>
</svg>
