<svg width="16" height="16" viewBox="0 0 16 16" fill="none" xmlns="http://www.w3.org/2000/svg">
<path fill-rule="evenodd" clip-rule="evenodd" d="M12.3568 4.35L10.4746 6.23225L9.76758 5.5252L11.6498 3.64295C11.5565 3.4474 11.4999 3.2311 11.4999 3C11.4999 2.17155 12.1714 1.5 12.9999 1.5C13.8283 1.5 14.4999 2.17155 14.4999 3C14.4999 3.82845 13.8283 4.5 12.9999 4.5C12.7687 4.5 12.5524 4.4434 12.3568 4.35ZM13.4998 3.00005C13.4998 2.72435 13.2755 2.50005 12.9998 2.50005C12.7241 2.50005 12.4998 2.72435 12.4998 3.00005C12.4998 3.27575 12.7241 3.50005 12.9998 3.50005C13.2755 3.50005 13.4998 3.27575 13.4998 3.00005ZM11.4903 10.7833C11.7878 10.6076 12.1301 10.4998 12.4999 10.4998C13.6027 10.4998 14.4998 11.397 14.4998 12.4998C14.4998 12.6776 14.469 12.8469 14.4253 13.0111L13.2067 11.793C13.0256 11.6119 12.7756 11.4998 12.4999 11.4998C11.9484 11.4998 11.4999 11.9483 11.4999 12.4998C11.4999 12.7755 11.6118 13.0258 11.7929 13.2068L13.0113 14.4252C12.847 14.4691 12.6777 14.4998 12.4999 14.4998C11.3971 14.4998 10.4999 13.6026 10.4999 12.4998C10.4999 12.1301 10.6076 11.7878 10.7833 11.4903L9.76758 10.4746L10.4746 9.76758L11.4903 10.7833ZM7.99995 6C6.89535 6 5.99995 6.8954 5.99995 8C5.99995 8.37025 6.10745 8.7127 6.2828 9.01005L3.64305 11.65C3.4475 11.5566 3.23115 11.5 3 11.5C2.17155 11.5 1.5 12.1715 1.5 13C1.5 13.8285 2.17155 14.5 3 14.5C3.82845 14.5 4.5 13.8285 4.5 13C4.5 12.7689 4.4434 12.5526 4.35005 12.3571L6.99 9.71715C7.2874 9.8925 7.62975 10 8 10C9.10455 10 10 9.10455 10 8C10 6.89545 9.1045 6 7.99995 6ZM2.99995 13.5C2.72425 13.5 2.49995 13.2757 2.49995 13C2.49995 12.7243 2.72425 12.5 2.99995 12.5C3.27565 12.5 3.49995 12.7243 3.49995 13C3.49995 13.2757 3.27565 13.5 2.99995 13.5ZM7.99995 9C7.44855 9 6.99995 8.5514 6.99995 8C6.99995 7.4486 7.44855 7 7.99995 7C8.55135 7 8.99995 7.4486 8.99995 8C8.99995 8.5514 8.55135 9 7.99995 9ZM4.5095 5.21655C4.212 5.39225 3.86975 5.5 3.49995 5.5C2.39715 5.5 1.5 4.60285 1.5 3.50005C1.5 3.3222 1.5308 3.1529 1.57455 2.9887L2.79315 4.20685C2.9742 4.38795 3.2242 4.50005 3.49995 4.50005C4.05145 4.50005 4.49995 4.05155 4.49995 3.50005C4.49995 3.2243 4.388 2.97405 4.20695 2.793L2.98855 1.5746C3.1528 1.53075 3.3221 1.5 3.49995 1.5C4.60275 1.5 5.49995 2.3972 5.49995 3.5C5.49995 3.86975 5.39225 4.212 5.21655 4.5095L6.2321 5.52505L5.52505 6.2321L4.5095 5.21655Z" fill="black"/>
</svg>
