<svg width="16" height="16" viewBox="0 0 16 16" fill="none" xmlns="http://www.w3.org/2000/svg">
<path fill-rule="evenodd" clip-rule="evenodd" d="M12.1501 2.11749C13.0493 2.84686 13.6675 3.86569 13.8991 5.00009H12.8684C12.635 4.09392 12.091 3.29839 11.3313 2.7521C10.5715 2.20582 9.64422 1.94343 8.7109 2.01065C7.77757 2.07788 6.89742 2.47045 6.22382 3.11997C5.55022 3.76949 5.12588 4.63478 5.02474 5.56504L4.97974 5.98179L4.56149 6.01034C3.85032 6.05876 3.1858 6.38163 2.7082 6.91078C2.2306 7.43993 1.97729 8.13395 2.00175 8.84634C2.02621 9.55873 2.32653 10.2337 2.8393 10.7289C3.35207 11.224 4.03717 11.5006 4.74999 11.5001H5.49999V12.5001H4.74999C3.81302 12.5005 2.90986 12.15 2.21848 11.5177C1.5271 10.8853 1.09764 10.0169 1.01471 9.0836C0.931794 8.15031 1.20143 7.21981 1.77049 6.47544C2.33955 5.73108 3.16677 5.22684 4.08914 5.06209C4.30646 3.92486 4.91172 2.89829 5.80162 2.15761C6.69151 1.41692 7.81088 1.00803 8.96866 1.00071C10.1265 0.993393 11.2509 1.38811 12.1501 2.11749ZM12.5374 12.3595C12.8053 12.129 13.1466 12.0016 13.5 12.0001C13.8085 11.9999 14.1095 12.0948 14.362 12.272C14.6145 12.4492 14.8062 12.7 14.911 12.9901C15.0157 13.2802 15.0284 13.5956 14.9473 13.8932C14.8661 14.1909 14.6952 14.4562 14.4577 14.6531C14.2202 14.8499 13.9278 14.9687 13.6203 14.9932C13.3128 15.0178 13.0052 14.9468 12.7395 14.7901C12.4738 14.6334 12.2629 14.3985 12.1357 14.1175C12.0084 13.8365 11.9709 13.5231 12.0283 13.22L10.0718 12.0462C9.86368 12.2601 9.59648 12.4071 9.30438 12.4682C9.01228 12.5294 8.70857 12.5021 8.43209 12.3897C8.15561 12.2774 7.91893 12.0851 7.75233 11.8375C7.58572 11.5899 7.49676 11.2982 7.49683 10.9998C7.49689 10.7013 7.58598 10.4097 7.75269 10.1622C7.9194 9.91465 8.15616 9.72248 8.43269 9.61024C8.70922 9.498 9.01294 9.47079 9.30501 9.53211C9.59708 9.59343 9.86422 9.74047 10.0723 9.95444L12.0283 8.78084C11.9682 8.475 12.0042 8.15806 12.1314 7.87349C12.2585 7.58891 12.4706 7.35063 12.7385 7.19133C13.0064 7.03202 13.317 6.95949 13.6277 6.98368C13.9385 7.00787 14.2341 7.1276 14.4741 7.32645C14.7141 7.52529 14.8868 7.79352 14.9683 8.09434C15.0499 8.39517 15.0364 8.71386 14.9297 9.00671C14.823 9.29957 14.6283 9.55224 14.3724 9.73009C14.1164 9.90794 13.8117 10.0022 13.5 10.0001C13.1468 9.99863 12.8057 9.87139 12.5379 9.64119L10.4871 10.8717C10.4884 10.8879 10.4906 10.9039 10.4928 10.9198C10.4964 10.9462 10.5 10.9726 10.5 11.0001C10.5 11.0278 10.4964 11.0546 10.4927 11.0813C10.4905 11.0972 10.4884 11.113 10.487 11.129L12.5374 12.3595ZM13.7778 8.08436C13.6956 8.02942 13.5989 8.00009 13.5 8.00009C13.3674 8.00021 13.2403 8.05293 13.1466 8.14667C13.0529 8.24041 13.0001 8.36752 13 8.50009C13 8.59898 13.0293 8.69565 13.0843 8.77788C13.1392 8.8601 13.2173 8.92419 13.3087 8.96203C13.4 8.99987 13.5006 9.00978 13.5976 8.99048C13.6946 8.97119 13.7836 8.92357 13.8536 8.85364C13.9235 8.78372 13.9711 8.69463 13.9904 8.59764C14.0097 8.50065 13.9998 8.40011 13.962 8.30875C13.9241 8.21739 13.86 8.1393 13.7778 8.08436ZM8.72223 11.4158C8.80446 11.4708 8.90113 11.5001 9.00002 11.5001C9.13259 11.5 9.2597 11.4473 9.35344 11.3535C9.44718 11.2598 9.4999 11.1327 9.50002 11.0001C9.50002 10.9012 9.47069 10.8045 9.41575 10.7223C9.36081 10.6401 9.28272 10.576 9.19136 10.5382C9.1 10.5003 8.99946 10.4904 8.90247 10.5097C8.80548 10.529 8.71639 10.5766 8.64646 10.6465C8.57654 10.7165 8.52892 10.8056 8.50963 10.9025C8.49033 10.9995 8.50024 11.1001 8.53808 11.1914C8.57592 11.2828 8.64001 11.3609 8.72223 11.4158ZM13.2222 13.9158C13.3045 13.9708 13.4011 14.0001 13.5 14.0001C13.6326 14 13.7597 13.9473 13.8534 13.8535C13.9472 13.7598 13.9999 13.6327 14 13.5001C14 13.4012 13.9707 13.3045 13.9158 13.2223C13.8608 13.1401 13.7827 13.076 13.6914 13.0382C13.6 13.0003 13.4995 12.9904 13.4025 13.0097C13.3055 13.029 13.2164 13.0766 13.1465 13.1465C13.0765 13.2165 13.0289 13.3056 13.0096 13.4025C12.9903 13.4995 13.0002 13.6001 13.0381 13.6914C13.0759 13.7828 13.14 13.8609 13.2222 13.9158Z" fill="black"/>
</svg>
