<svg width="16" height="16" viewBox="0 0 16 16" fill="none" xmlns="http://www.w3.org/2000/svg">
<path fill-rule="evenodd" clip-rule="evenodd" d="M8 1C10.15 1 11.95 2.5 12.4 4.55C13.9 4.85 15 6.2 15 7.8C15 9.6 13.55 11.05 11.75 11.05H10V10.05H11.7C12.95 10.05 13.95 9.05 13.95 7.8C13.95 6.65 13.05 5.65 11.9 5.55L11.5 5.5L11.45 5.05C11.25 3.3 9.75 2 8 2C6.25 2 4.75 3.3 4.55 5.1L4.5 5.5H4.05C2.9 5.6 2 6.6 2 7.75C2 9 3 10 4.25 10H6V11H4.25C2.45 11 1 9.55 1 7.75C1 6.2 2.1 4.85 3.6 4.55C4.05 2.5 5.85 1 8 1ZM7.5 7.4V12.5H8.5V7.4L9.8 8.7L10.5 8L8 5.5L5.5 8L6.2 8.7L7.5 7.4ZM5 15C4.45 15 4 14.55 4 14V12.5H5V14H11V12.5H12V14C12 14.55 11.55 15 11 15H5Z" fill="black"/>
</svg>
