<svg width="16" height="16" viewBox="0 0 16 16" fill="none" xmlns="http://www.w3.org/2000/svg">
<path fill-rule="evenodd" clip-rule="evenodd" d="M9 1H14C14.55 1 15 1.45 15 2V5C15 5.55 14.55 6 14 6H12.5V5H14V2H9V5H10.75L11.9 7L11.05 7.5L10.2 6H9C8.45 6 8 5.55 8 5V2C8 1.45 8.45 1 9 1ZM6.5 15L7.35 15.5L8.8 13H11C12.1 13 13 12.1 13 11V8.5H12V11C12 11.55 11.55 12 11 12H8.25L6.5 15ZM5 9C5.27614 9 5.5 8.77614 5.5 8.5C5.5 8.22386 5.27614 8 5 8C4.72386 8 4.5 8.22386 4.5 8.5C4.5 8.77614 4.72386 9 5 9ZM7.5 8.5C7.5 8.77614 7.27614 9 7 9C6.72386 9 6.5 8.77614 6.5 8.5C6.5 8.22386 6.72386 8 7 8C7.27614 8 7.5 8.22386 7.5 8.5ZM9 9C9.27614 9 9.5 8.77614 9.5 8.5C9.5 8.22386 9.27614 8 9 8C8.72386 8 8.5 8.22386 8.5 8.5C8.5 8.77614 8.72386 9 9 9ZM3 13H6V12H3C2.45 12 2 11.55 2 11V6C2 5.45 2.45 5 3 5H7V4H3C1.9 4 1 4.9 1 6V11C1 12.1 1.9 13 3 13Z" fill="black"/>
</svg>
