<svg width="16" height="16" viewBox="0 0 16 16" fill="none" xmlns="http://www.w3.org/2000/svg">
<path fill-rule="evenodd" clip-rule="evenodd" d="M5.3 1.2L6 0.5L8.5 3L6 5.5L5.3 4.8L6.6 3.5H2V6H1V3.5C1 2.95 1.45 2.5 2 2.5H6.6L5.3 1.2ZM13.5 1H9.5V2H13.5V1ZM2 15H6.5C7.05 15 7.5 14.55 7.5 14V8.5C7.5 7.95 7.05 7.5 6.5 7.5H2C1.45 7.5 1 7.95 1 8.5V14C1 14.55 1.45 15 2 15ZM2 14V8.5H6.5V14H2ZM5.5 9.5H3V10.5H5.5V9.5ZM5.5 11.5H3V12.5H5.5V11.5ZM11 3H15V4H11V3ZM15 5H11V6H15V5ZM9.5 7H13.5V8H9.5V7ZM15 9H11V10H15V9Z" fill="black"/>
</svg>
