<svg width="16" height="16" viewBox="0 0 16 16" fill="none" xmlns="http://www.w3.org/2000/svg">
<path fill-rule="evenodd" clip-rule="evenodd" d="M10 3.9V6.55C10.85 6.8 11.5 7.55 11.5 8.5C11.5 9.6 10.6 10.5 9.5 10.5C8.55 10.5 7.75 9.85 7.55 9H4.9C4.7 9.6 4.15 10 3.5 10C2.65 10 2 9.35 2 8.5C2 7.65 2.65 7 3.5 7C4.15 7 4.7 7.4 4.9 8H7.6C7.60963 7.97111 7.61926 7.94037 7.62924 7.90849C7.67111 7.77482 7.71926 7.62111 7.8 7.5L5.15 4.85C4.95 4.95 4.75 5 4.5 5C3.65 5 3 4.35 3 3.5C3 2.65 3.65 2 4.5 2C5.35 2 6 2.65 6 3.5C6 3.75 5.95 3.95 5.85 4.1L8.5 6.75C8.65 6.65 8.8 6.6 9 6.55V3.9C8.4 3.7 8 3.15 8 2.5C8 1.65 8.65 1 9.5 1C10.35 1 11 1.65 11 2.5C11 3.15 10.6 3.7 10 3.9ZM10 2.5C10 2.2 9.8 2 9.5 2C9.2 2 9 2.2 9 2.5C9 2.8 9.2 3 9.5 3C9.8 3 10 2.8 10 2.5ZM4 3.5C4 3.8 4.2 4 4.5 4C4.8 4 5 3.8 5 3.5C5 3.2 4.8 3 4.5 3C4.2 3 4 3.2 4 3.5ZM3 8.5C3 8.8 3.2 9 3.5 9C3.8 9 4 8.8 4 8.5C4 8.2 3.8 8 3.5 8C3.2 8 3 8.2 3 8.5ZM8.5 8.5C8.5 9.05 8.95 9.5 9.5 9.5C10.05 9.5 10.5 9.05 10.5 8.5C10.5 7.95 10.05 7.5 9.5 7.5C8.95 7.5 8.5 7.95 8.5 8.5ZM11.2501 5.4501L11.7501 4.6001C13.1501 5.4001 14.0001 6.9001 14.0001 8.5001C14.0001 12.7501 9.9001 14.8501 9.7001 14.9501C9.6501 15.0001 9.6001 15.0001 9.5001 15.0001C9.4001 15.0001 9.3001 15.0001 9.3001 14.9501C9.1501 14.8501 9.0501 14.6501 9.0501 14.5001V13.0001C7.6001 12.8001 6.3001 12.0001 5.6001 10.7001L6.4501 10.2001C7.0501 11.3001 8.2501 12.0001 9.5001 12.0001H10.0001V13.6001C11.1001 12.8501 13.0001 11.1001 13.0001 8.5001C13.0001 7.2501 12.3501 6.0501 11.2501 5.4501Z" fill="black"/>
</svg>
