<svg width="16" height="16" viewBox="0 0 16 16" fill="none" xmlns="http://www.w3.org/2000/svg">
<path fill-rule="evenodd" clip-rule="evenodd" d="M11.2999 10.6L14.9999 14.3L14.2999 15L10.6499 11.35C9.5499 12.35 8.0999 13 6.4999 13C4.6999 13 2.9999 12.2 1.8999 10.85L2.6499 10.2C3.5999 11.35 4.9999 12 6.4999 12C9.2499 12 11.4999 9.75 11.4999 7C11.4999 4.25 9.2499 2 6.4999 2C5.0999 2 3.7999 2.55 2.8999 3.6L2.1499 2.9C3.2999 1.65 4.8499 1 6.4999 1C9.7999 1 12.4999 3.7 12.4999 7C12.4999 8.35 12.0499 9.6 11.2999 10.6ZM3 4.5H7V5.5H3V4.5ZM7 7C7 7.27614 6.77614 7.5 6.5 7.5C6.22386 7.5 6 7.27614 6 7C6 6.72386 6.22386 6.5 6.5 6.5C6.77614 6.5 7 6.72386 7 7ZM1.5 9.5C1.77614 9.5 2 9.27614 2 9C2 8.72386 1.77614 8.5 1.5 8.5C1.22386 8.5 1 8.72386 1 9C1 9.27614 1.22386 9.5 1.5 9.5ZM5 7.5V6.5H1V7.5H5ZM1.5 5.5C1.77614 5.5 2 5.27614 2 5C2 4.72386 1.77614 4.5 1.5 4.5C1.22386 4.5 1 4.72386 1 5C1 5.27614 1.22386 5.5 1.5 5.5ZM3 8.5V9.5H7V8.5H3Z" fill="black"/>
</svg>
