<svg width="16" height="16" viewBox="0 0 16 16" fill="none" xmlns="http://www.w3.org/2000/svg">
<path fill-rule="evenodd" clip-rule="evenodd" d="M4.11274 13.8873C5.14383 14.9183 6.54182 15.4983 8 15.5C9.19068 15.5034 10.3498 15.1171 11.3003 14.4L10.6997 13.6006C10.0311 14.1018 9.23607 14.407 8.40379 14.4819C7.57151 14.5568 6.73481 14.3985 5.98742 14.0247C5.24003 13.6509 4.61147 13.0764 4.17214 12.3656C3.73282 11.6548 3.50008 10.8356 3.5 10V3.80885L7.99365 1.5592L12.7761 3.9536L13.2239 3.05935L7.99365 0.440796L2.5 3.19115V10C2.50165 11.4582 3.08165 12.8562 4.11274 13.8873ZM12.0724 10.3303C12.335 10.1179 12.6622 10.0014 12.9999 9.99996C13.3103 9.99973 13.6131 10.0959 13.8665 10.2751C14.1199 10.4543 14.3114 10.7077 14.4146 11.0004C14.5178 11.2931 14.5276 11.6106 14.4427 11.9091C14.3577 12.2077 14.1822 12.4724 13.9403 12.6669C13.6985 12.8614 13.4022 12.976 13.0924 12.995C12.7826 13.0139 12.4746 12.9362 12.2109 12.7726C11.9471 12.609 11.7407 12.3675 11.62 12.0816C11.4994 11.7956 11.4704 11.4793 11.5372 11.1762L10.4999 10.5774L9.46264 11.1762C9.53191 11.4819 9.50434 11.8015 9.38377 12.0908C9.2632 12.3801 9.05559 12.6247 8.78975 12.7907C8.5239 12.9567 8.21298 13.0359 7.90012 13.0172C7.58726 12.9986 7.28795 12.8831 7.04371 12.6866C6.79946 12.4902 6.62239 12.2227 6.53704 11.9211C6.4517 11.6195 6.46231 11.2989 6.5674 11.0036C6.67249 10.7083 6.86686 10.4531 7.12355 10.2732C7.38024 10.0934 7.68653 9.99789 7.99994 9.99996C8.3377 10.0014 8.66487 10.1179 8.92749 10.3303L9.99994 9.71115V8.90781C9.66634 8.78986 9.38517 8.55777 9.20613 8.25257C9.02709 7.94736 8.96171 7.58869 9.02154 7.23994C9.08138 6.89119 9.26258 6.57482 9.53311 6.34675C9.80365 6.11868 10.1461 5.99359 10.4999 5.99359C10.8538 5.99359 11.1962 6.11868 11.4668 6.34675C11.7373 6.57482 11.9185 6.89119 11.9783 7.23994C12.0382 7.58869 11.9728 7.94736 11.7938 8.25257C11.6147 8.55777 11.3335 8.78986 10.9999 8.90781V9.71115L12.0724 10.3303ZM7.72216 11.9157C7.80438 11.9706 7.90105 12 7.99994 12C8.13253 11.9999 8.25966 11.9472 8.35341 11.8534C8.44716 11.7597 8.49986 11.6325 8.49994 11.5C8.49994 11.4011 8.47062 11.3044 8.41568 11.2222C8.36074 11.1399 8.28265 11.0759 8.19128 11.038C8.09992 11.0002 7.99939 10.9903 7.9024 11.0096C7.80541 11.0289 7.71632 11.0765 7.64639 11.1464C7.57646 11.2163 7.52884 11.3054 7.50955 11.4024C7.49026 11.4994 7.50016 11.5999 7.538 11.6913C7.57585 11.7827 7.63993 11.8608 7.72216 11.9157ZM10.7777 7.08422C10.6955 7.02928 10.5988 6.99995 10.4999 6.99995C10.3674 7.00007 10.2403 7.05279 10.1465 7.14653C10.0528 7.24028 10.0001 7.36738 9.99994 7.49995C9.99994 7.59885 10.0293 7.69552 10.0842 7.77774C10.1391 7.85996 10.2172 7.92405 10.3086 7.96189C10.4 7.99974 10.5005 8.00964 10.5975 7.99035C10.6945 7.97106 10.7836 7.92343 10.8535 7.85351C10.9234 7.78358 10.971 7.69449 10.9903 7.5975C11.0096 7.50051 10.9997 7.39998 10.9619 7.30861C10.924 7.21725 10.86 7.13916 10.7777 7.08422ZM12.7222 11.9157C12.8044 11.9706 12.9011 12 12.9999 12C13.1325 11.9999 13.2597 11.9472 13.3534 11.8534C13.4472 11.7597 13.4999 11.6325 13.4999 11.5C13.4999 11.4011 13.4706 11.3044 13.4157 11.2222C13.3607 11.1399 13.2826 11.0759 13.1913 11.038C13.0999 11.0002 12.9994 10.9903 12.9024 11.0096C12.8054 11.0289 12.7163 11.0765 12.6464 11.1464C12.5765 11.2163 12.5288 11.3054 12.5096 11.4024C12.4903 11.4994 12.5002 11.5999 12.538 11.6913C12.5758 11.7827 12.6399 11.8608 12.7222 11.9157Z" fill="black"/>
</svg>
