<svg width="16" height="16" viewBox="0 0 16 16" fill="none" xmlns="http://www.w3.org/2000/svg">
<path fill-rule="evenodd" clip-rule="evenodd" d="M12.25 12.25L12.95 12.95C14.25 11.65 15 9.85 15 8C15 4.15 11.85 1 8 1C7.2 1 6.35 1.15 5.6 1.4L5.95 2.35C6.6 2.1 7.3 2 8 2C11.3 2 14 4.7 14 8C14 9.6 13.4 11.1 12.25 12.25ZM5 2.5C5 2.77614 4.77614 3 4.5 3C4.22386 3 4 2.77614 4 2.5C4 2.22386 4.22386 2 4.5 2C4.77614 2 5 2.22386 5 2.5ZM3.55 8.65C3.5 8.45 3.5 8.2 3.5 8C3.5 5.5 5.5 3.5 8 3.5C9 3.5 10 3.85 10.8 4.5L10.15 5.3C9.55 4.75 8.8 4.5 8 4.5C6.05 4.5 4.5 6.05 4.5 8C4.5 8.15 4.5 8.35 4.55 8.5L3.55 8.65ZM8 12.5C7 12.5 6 12.15 5.2 11.5L5.85 10.7C6.5 11.2 7.25 11.45 8.05 11.45C10 11.45 11.55 9.9 11.55 7.95C11.55 7.8 11.55 7.6 11.5 7.45L12.5 7.3V8C12.5 10.5 10.5 12.5 8 12.5ZM12 13.5C12 13.7761 11.7761 14 11.5 14C11.2239 14 11 13.7761 11 13.5C11 13.2239 11.2239 13 11.5 13C11.7761 13 12 13.2239 12 13.5ZM4.5 10.5C4.77614 10.5 5 10.2761 5 10C5 9.72386 4.77614 9.5 4.5 9.5C4.22386 9.5 4 9.72386 4 10C4 10.2761 4.22386 10.5 4.5 10.5ZM12 6C12 6.27614 11.7761 6.5 11.5 6.5C11.2239 6.5 11 6.27614 11 6C11 5.72386 11.2239 5.5 11.5 5.5C11.7761 5.5 12 5.72386 12 6ZM8 9C8.55228 9 9 8.55228 9 8C9 7.44772 8.55228 7 8 7C7.44772 7 7 7.44772 7 8C7 8.55228 7.44772 9 8 9ZM8 15C4.15 15 1 11.85 1 8C1 6.15 1.75 4.35 3.05 3.05L3.75 3.75C2.6 4.9 2 6.4 2 8C2 11.3 4.7 14 8 14C8.7 14 9.4 13.9 10.05 13.65L10.4 14.6C9.65 14.85 8.8 15 8 15Z" fill="black"/>
</svg>
