<svg width="16" height="16" viewBox="0 0 16 16" fill="none" xmlns="http://www.w3.org/2000/svg">
<path fill-rule="evenodd" clip-rule="evenodd" d="M8 1.5785L2.5 4.787V7H1.5V4.5C1.5 4.3225 1.5945 4.1575 1.748 4.068L7.748 0.568C7.826 0.5225 7.913 0.5 8 0.5C8.087 0.5 8.174 0.5225 8.252 0.568L10.39 1.815L9.8755 2.6725L8 1.5785ZM14.252 4.06824L12.1175 2.82324L11.603 3.68074L13.5 4.78724V11.2132L11.6065 12.3177L12.121 13.1752L14.252 11.9322C14.4055 11.8427 14.5 11.6777 14.5 11.5002V4.50024C14.5 4.32274 14.4055 4.15774 14.252 4.06824ZM7.5 9.586V4.5H8.5V9.586L9.793 8.293L10.5 9L8 11.5L5.5 9L6.207 8.293L7.5 9.586ZM8 14.421L9.879 13.325L10.393 14.183L8.252 15.432C8.174 15.4775 8.087 15.5 8 15.5C7.913 15.5 7.826 15.4775 7.748 15.432L1.748 11.932C1.5945 11.8425 1.5 11.6775 1.5 11.5V9H2.5V11.213L8 14.421Z" fill="black"/>
</svg>
