<svg width="16" height="16" viewBox="0 0 16 16" fill="none" xmlns="http://www.w3.org/2000/svg">
<path fill-rule="evenodd" clip-rule="evenodd" d="M4 1C4.55 1 5 1.45 5 2V6H3.5V8H5V9H1V8H2.5V6H2C1.45 6 1 5.55 1 5V4C1 3.45 1.45 3 2 3H4V2H1.5V1H4ZM4 4H2V5H4V4ZM15 5C15 5.55 14.55 6 14 6H13.5V8H15V9H11V8H12.5V6H12C11.45 6 11 5.55 11 5V2C11 1.45 11.45 1 12 1H14C14.55 1 15 1.45 15 2V5ZM14 2H12V5H14V2ZM9.8 10.5L10.5 11.2L8.7 13L10.5 14.8L9.8 15.5L8 13.7L6.2 15.5L5.5 14.8L7.3 13L5.5 11.2L6.2 10.5L8 12.3L9.8 10.5ZM6 9H7.5V10.5H8.5V9H10V8H6V9Z" fill="black"/>
</svg>
