<svg width="16" height="16" viewBox="0 0 16 16" fill="none" xmlns="http://www.w3.org/2000/svg">
<path fill-rule="evenodd" clip-rule="evenodd" d="M1.8 11.25C1.3 10.25 1 9.15 1 8C1 4.15 4.15 1 8 1V2C4.7 2 2 4.7 2 8C2 9 2.25 9.9 2.7 10.75L1.8 11.25ZM13.9999 8C13.9999 11.3 11.2999 14 7.9999 14C6.5499 14 5.1999 13.5 4.1499 12.6L6.9999 9.75L6.2999 9L3.0499 12.25C2.8499 12.45 2.8499 12.75 3.0499 12.95C4.3499 14.25 6.1499 15 7.9999 15C11.8499 15 14.9999 11.85 14.9999 8H13.9999ZM8.80013 12.45C8.85013 12.5 8.95013 12.5 9.00013 12.5C9.10013 12.5 9.20013 12.45 9.30013 12.4L11.3001 10.9C11.4501 10.8 11.5001 10.65 11.5001 10.5V7.7L13.0001 6.2C13.6501 5.55 14.0001 4.7 14.0001 3.75V3C14.0001 2.45 13.5501 2 13.0001 2H12.2501C11.3501 2 10.4501 2.35 9.80013 3L8.30013 4.5H5.50013C5.35013 4.5 5.20013 4.55 5.05013 4.65L3.55013 6.65C3.45013 6.8 3.45013 7 3.50013 7.15C3.55013 7.3 3.70013 7.45 3.90013 7.45L6.40013 7.8L6.55013 6.8L4.90013 6.6L5.75013 5.5H8.50013C8.65013 5.5 8.75013 5.45 8.85013 5.35L10.4501 3.75C10.9001 3.25 11.5501 3 12.2001 3H12.9501V3.8C12.9501 4.45 12.6501 5.1 12.2001 5.55L10.6001 7.15C10.5001 7.25 10.4501 7.35 10.4501 7.5V10.2L9.35013 11.05L9.15013 9.4L8.15013 9.55L8.50013 12.05C8.50013 12.25 8.65013 12.4 8.80013 12.45Z" fill="black"/>
</svg>
