<svg width="16" height="16" viewBox="0 0 16 16" fill="none" xmlns="http://www.w3.org/2000/svg">
<path fill-rule="evenodd" clip-rule="evenodd" d="M5.5 6V5H7V2H2V5H3.75L4.9 7L4.05 7.5L3.2 6H2C1.45 6 1 5.55 1 5V2C1 1.45 1.45 1 2 1H7C7.55 1 8 1.45 8 2V5C8 5.55 7.55 6 7 6H5.5ZM13 6.5H14V5.5C14 3.55 12.45 2 10.5 2H9V3H10.5C11.9 3 13 4.1 13 5.5V6.5ZM11 10H12.5V11H11V10ZM12.5 12H11V13H12.5V12ZM11 15H13.5C14.05 15 14.5 14.55 14.5 14V8H9V13.5C9 13.8 8.8 14 8.5 14C8.2 14 8 13.8 8 13.5V12H7V13.5C7 14.35 7.65 15 8.5 15C9.35 15 10 14.35 10 13.5V9H13.5V14H11V15ZM6 14H5.5C3.55 14 2 12.45 2 10.5V8.5H3V10.5C3 11.9 4.1 13 5.5 13H6V14Z" fill="black"/>
</svg>
