<svg width="16" height="16" viewBox="0 0 16 16" fill="none" xmlns="http://www.w3.org/2000/svg">
<path fill-rule="evenodd" clip-rule="evenodd" d="M9.5 1.5H2.5C1.95 1.5 1.5 1.95 1.5 2.5V9.5C1.5 10.05 1.95 10.5 2.5 10.5H4.5V9.5H2.5V2.5H9.5V4.5H10.5V2.5C10.5 1.95 10.05 1.5 9.5 1.5ZM6.5 14.5H13.5C14.05 14.5 14.5 14.05 14.5 13.5V6.5C14.5 5.95 14.05 5.5 13.5 5.5H11.5V6.5H13.5V13.5H6.5V11.5H5.5V13.5C5.5 14.05 5.95 14.5 6.5 14.5ZM9.5 9.5V7.5H10.5V10.5H7.5V9.5H9.5ZM8.5 5.5H5.5V8.5H6.5V6.5H8.5V5.5Z" fill="black"/>
</svg>
