<svg width="16" height="16" viewBox="0 0 16 16" fill="none" xmlns="http://www.w3.org/2000/svg">
<path fill-rule="evenodd" clip-rule="evenodd" d="M7.35 2.31715L8 1L8.65 2.31715L10.1028 2.52855L9.0514 3.55285L9.3 5L8 4.31715L6.7 5L6.9486 3.55285L5.89715 2.52715L7.35 2.31715ZM14 11.5H13V5.5C12.9992 5.23502 12.8936 4.98112 12.7062 4.79375C12.5189 4.60639 12.265 4.50078 12 4.5H11V3.5H12C12.53 3.50156 13.0378 3.71277 13.4125 4.08751C13.7872 4.46224 13.9984 4.97005 14 5.5V11.5ZM2.5 12.5C2.30222 12.5 2.10888 12.5586 1.94443 12.6685C1.77998 12.7784 1.65181 12.9346 1.57612 13.1173C1.50043 13.3 1.48063 13.5011 1.51922 13.6951C1.5578 13.8891 1.65304 14.0673 1.79289 14.2071C1.93275 14.347 2.11093 14.4422 2.30491 14.4808C2.49889 14.5194 2.69996 14.4996 2.88268 14.4239C3.06541 14.3482 3.22159 14.22 3.33147 14.0556C3.44135 13.8911 3.5 13.6978 3.5 13.5C3.49922 13.235 3.39362 12.9811 3.20625 12.7938C3.01888 12.6064 2.76498 12.5008 2.5 12.5ZM8 12.5C7.80222 12.5 7.60888 12.5586 7.44443 12.6685C7.27998 12.7784 7.15181 12.9346 7.07612 13.1173C7.00043 13.3 6.98063 13.5011 7.01921 13.6951C7.0578 13.8891 7.15304 14.0673 7.29289 14.2071C7.43275 14.347 7.61093 14.4422 7.80491 14.4808C7.99889 14.5194 8.19996 14.4996 8.38268 14.4239C8.56541 14.3482 8.72159 14.22 8.83147 14.0556C8.94135 13.8911 9 13.6978 9 13.5C8.99922 13.235 8.89362 12.9811 8.70625 12.7938C8.51888 12.6064 8.26498 12.5008 8 12.5ZM12.9444 12.6685C13.1089 12.5586 13.3022 12.5 13.5 12.5C13.765 12.5008 14.0189 12.6064 14.2062 12.7938C14.3936 12.9811 14.4992 13.235 14.5 13.5C14.5 13.6978 14.4413 13.8911 14.3315 14.0556C14.2216 14.22 14.0654 14.3482 13.8827 14.4239C13.7 14.4996 13.4989 14.5194 13.3049 14.4808C13.1109 14.4422 12.9327 14.347 12.7929 14.2071C12.653 14.0673 12.5578 13.8891 12.5192 13.6951C12.4806 13.5011 12.5004 13.3 12.5761 13.1173C12.6518 12.9346 12.78 12.7784 12.9444 12.6685ZM7.5 6H8.5V11.5H7.5V6ZM3 11.5H2V5.5C2.00156 4.97005 2.21277 4.46224 2.58751 4.08751C2.96224 3.71277 3.47005 3.50156 4 3.5H5V4.5H4C3.73502 4.50078 3.48112 4.60639 3.29375 4.79375C3.10638 4.98112 3.00078 5.23502 3 5.5V11.5Z" fill="black"/>
</svg>
