<svg width="16" height="16" viewBox="0 0 16 16" fill="none" xmlns="http://www.w3.org/2000/svg">
<path fill-rule="evenodd" clip-rule="evenodd" d="M14.5 1H9.86135C9.68815 0.7024 9.3693 0.5 9 0.5C8.44775 0.5 8 0.94775 8 1.5C8 2.05225 8.44775 2.5 9 2.5C9.36925 2.5 9.6881 2.2976 9.86135 2H13.6765L11.5917 6.0093C11.581 6.00827 11.5704 6.00682 11.5598 6.00538C11.5401 6.00269 11.5204 6 11.5 6C10.9478 6 10.5 6.44775 10.5 7C10.5 7.55225 10.9478 8 11.5 8C12.0523 8 12.5 7.55225 12.5 7C12.5 6.85595 12.4683 6.71995 12.4136 6.5962L14.9436 1.7307L14.9472 1.72313C14.9617 1.69313 15 1.614 15 1.5C15 1.2239 14.7761 1 14.5 1ZM5.5 6.5V7.63915C5.7975 7.8125 6 8.1316 6 8.5V11C6 11.5513 5.5515 12 5 12H2C1.4485 12 1 11.5513 1 11V8.5C1 8.1316 1.2025 7.8125 1.5 7.63915V6.5C1.5 5.3972 2.3972 4.5 3.5 4.5C4.6028 4.5 5.5 5.3972 5.5 6.5ZM4.5 6.5C4.5 5.94875 4.0515 5.5 3.5 5.5C2.9485 5.5 2.5 5.94875 2.5 6.5V7.5H4.5V6.5ZM2 8.5V11H5V8.5H2ZM7.55616 14.2309C7.64221 14.3964 7.81326 14.5002 7.99976 14.5002C8.18626 14.5002 8.35726 14.3964 8.44331 14.2308L11.0433 9.23083L10.1561 8.76953L7.99976 12.9164L7.40331 11.7695L6.51611 12.2309L7.55616 14.2309ZM1 1.5C1 1.2239 1.2239 1 1.5 1H7V2H2.3235L3.10355 3.5H1.97645L1.0564 1.7307C1.05549 1.7287 1.05427 1.72618 1.05281 1.72316C1.03833 1.69322 1 1.61396 1 1.5Z" fill="black"/>
</svg>
