<svg width="16" height="16" viewBox="0 0 16 16" fill="none" xmlns="http://www.w3.org/2000/svg">
<path fill-rule="evenodd" clip-rule="evenodd" d="M11.2499 14.2L10.7999 13.3C12.7999 12.25 14.0499 10.2 14.0499 8C14.0499 4.7 11.3499 2 8.0499 2C7.3999 2 6.7999 2.1 6.1999 2.3L5.8999 1.35C6.5499 1.1 7.2499 1 7.9999 1C11.8499 1 14.9999 4.15 14.9999 8C14.9999 10.6 13.5499 13 11.2499 14.2ZM10.2501 11.9L9.7501 11.05C10.8501 10.45 11.5001 9.25 11.5001 8C11.5001 6.05 9.9501 4.5 8.0001 4.5C7.7001 4.5 7.4001 4.55 7.1001 4.6L6.8501 3.65C7.2501 3.55 7.6001 3.5 8.0001 3.5C10.5001 3.5 12.5001 5.5 12.5001 8C12.5001 9.6 11.6501 11.1 10.2501 11.9ZM1 8.0001C1 10.6001 2.45 13.0001 4.75 14.2001L5.25 13.3001C3.25 12.3001 2 10.2501 2 8.0001C2 7.3501 2.1 6.7501 2.3 6.1501L1.35 5.8501C1.1 6.5501 1 7.2501 1 8.0001ZM5.75 11.8999C4.35 11.0999 3.5 9.5999 3.5 7.9999C3.5 7.5999 3.55 7.2499 3.65 6.8999L4.6 7.1499C4.55 7.3999 4.5 7.6999 4.5 7.9999C4.5 9.2499 5.15 10.3999 6.25 11.0499L5.75 11.8999ZM8 6C9.1 6 10 6.9 10 8C10 8.95 9.35 9.7 8.5 9.95V13.65C8.8 13.8 9 14.15 9 14.5C9 15.05 8.55 15.5 8 15.5C7.45 15.5 7 15.05 7 14.5C7 14.15 7.2 13.8 7.5 13.65V9.95C6.65 9.7 6 8.95 6 8C6 7.65 6.1 7.3 6.3 7L3.75 4.45C3.65 4.5 3.6 4.5 3.5 4.5C2.95 4.5 2.5 4.05 2.5 3.5C2.5 2.95 2.95 2.5 3.5 2.5C4.05 2.5 4.5 2.95 4.5 3.5C4.5 3.6 4.5 3.65 4.45 3.75L7 6.3C7.3 6.1 7.65 6 8 6ZM7 8C7 8.55 7.45 9 8 9C8.55 9 9 8.55 9 8C9 7.45 8.55 7 8 7C7.45 7 7 7.45 7 8Z" fill="black"/>
</svg>
