<svg width="16" height="16" viewBox="0 0 16 16" fill="none" xmlns="http://www.w3.org/2000/svg">
<path fill-rule="evenodd" clip-rule="evenodd" d="M10 8.5H6C5.4486 8.5 5 8.94875 5 9.5V11H13C13.5514 11 14 11.4487 14 12V14C14 14.5513 13.5514 15 13 15H3C2.4486 15 2 14.5513 2 14V12C2 11.4487 2.4486 11 3 11H4V9.5C4 8.3972 4.8972 7.5 6 7.5H10C10.5514 7.5 11 7.05125 11 6.5V5H3C2.4486 5 2 4.55125 2 4V2C2 1.44875 2.4486 1 3 1H13C13.5514 1 14 1.44875 14 2V4C14 4.55125 13.5514 5 13 5H12V6.5C12 7.6028 11.1028 8.5 10 8.5ZM13 2H3V4H13V2ZM3 14H13V12H3V14ZM4.5 3.5C4.77614 3.5 5 3.27614 5 3C5 2.72386 4.77614 2.5 4.5 2.5C4.22386 2.5 4 2.72386 4 3C4 3.27614 4.22386 3.5 4.5 3.5ZM11.5 13.5C11.7761 13.5 12 13.2761 12 13C12 12.7239 11.7761 12.5 11.5 12.5C11.2239 12.5 11 12.7239 11 13C11 13.2761 11.2239 13.5 11.5 13.5Z" fill="black"/>
</svg>
