<svg width="16" height="16" viewBox="0 0 16 16" fill="none" xmlns="http://www.w3.org/2000/svg">
<path fill-rule="evenodd" clip-rule="evenodd" d="M8 3H14C14.5522 3 15 3.44775 15 4V9H14V4H7.5858L5.5858 2H2V12H3V13H2C1.44775 13 1 12.5522 1 12V2C1 1.44775 1.44775 1 2 1H5.5858C5.85105 1 6.10535 1.10545 6.29295 1.29295L8 3ZM8.5 5.29295C8.3124 5.10545 8.0581 5 7.79285 5H5C4.44775 5 4 5.44775 4 6V13C4 13.5522 4.44775 14 5 14H9.5V13H5V6H7V8C7 8.55225 7.44775 9 8 9H10.1459C10.4923 9 10.8018 8.7932 10.9344 8.47315C11.0672 8.15285 10.9944 7.7876 10.7493 7.5425L8.5 5.29295ZM8 8V6.20705L9.7926 8H8ZM13 16L11.9306 15.4942C11.0615 15.0826 10.5 14.1953 10.5 13.2339V10H15.5V13.2339C15.5 14.1958 14.9385 15.0826 14.0694 15.4937L13 16ZM12.3584 14.5899L13 14.8935L13.6416 14.5899C14.1631 14.3433 14.5 13.8111 14.5 13.2339V11H11.5V13.2339C11.5 13.8111 11.8369 14.3433 12.3584 14.5899Z" fill="black"/>
</svg>
