<svg width="16" height="16" viewBox="0 0 16 16" fill="none" xmlns="http://www.w3.org/2000/svg">
<path fill-rule="evenodd" clip-rule="evenodd" d="M1 1V4H4V1H1ZM2 3V2H3V3H2ZM7 5.5V3C7 2.45 6.55 2 6 2H5V3H6V5.5C6 6.55 6.55 7.45 7.35 8C6.55 8.55 6 9.45 6 10.5V13H5V14H6C6.55 14 7 13.55 7 13V10.5C7 9.4 7.9 8.5 9 8.5V7.5C7.9 7.5 7 6.6 7 5.5ZM12.5 10.5C11.1 10.5 10 9.4 10 8C10 6.6 11.1 5.5 12.5 5.5C13.9 5.5 15 6.6 15 8C15 9.4 13.9 10.5 12.5 10.5ZM12.5 6.5C11.65 6.5 11 7.15 11 8C11 8.85 11.65 9.5 12.5 9.5C13.35 9.5 14 8.85 14 8C14 7.15 13.35 6.5 12.5 6.5ZM1 12V15H4V12H1ZM2 14V13H3V14H2ZM1 9.5V6.5H4V9.5H1ZM2 7.5V8.5H3V7.5H2Z" fill="black"/>
</svg>
