<svg width="16" height="16" viewBox="0 0 16 16" fill="none" xmlns="http://www.w3.org/2000/svg">
<path fill-rule="evenodd" clip-rule="evenodd" d="M7 1.5V2.5H6.1C6 3.1 5.7 4.15 4.75 5.15C5.2 5.45 5.8 5.8 6.5 6.05L6.15 7C5.25 6.7 4.55 6.3 4 5.85C3.45 6.25 2.75 6.65 1.85 7L1.5 6.05C2.2 5.8 2.8 5.5 3.2 5.15C2.7 4.6 2.35 4 2.15 3.5H3.3C3.45 3.8 3.7 4.15 4 4.5C4.7 3.75 5 2.95 5.1 2.5H1V1.5H3.5V0.5H4.5V1.5H7ZM14 7.5H13V5.5C13 4.1 11.9 3 10.5 3H8.5V2H10.5C12.45 2 14 3.55 14 5.5V7.5ZM6.5 14H8V13H6.5C5.1 13 4 11.9 4 10.5V8.5H3V10.5C3 12.45 4.55 14 6.5 14ZM15.0999 15H13.9999L13.5499 14H10.8999L10.4999 15H9.3999L11.6999 9.5H12.7999L15.0999 15ZM12.2499 10.8L11.3499 13H13.1499L12.2499 10.8Z" fill="black"/>
</svg>
