<svg width="16" height="16" viewBox="0 0 16 16" fill="none" xmlns="http://www.w3.org/2000/svg">
<path fill-rule="evenodd" clip-rule="evenodd" d="M7.5 0H14C14.55 0 15 0.45 15 1V6C15 6.55 14.55 7 14 7H12.25L11.4 8.5L10.5 8L11.65 6H14V1H7.5V6H10V7H7.5C6.95 7 6.5 6.55 6.5 6V1C6.5 0.45 6.95 0 7.5 0ZM12 3C12.2761 3 12.5 2.77614 12.5 2.5C12.5 2.22386 12.2761 2 12 2C11.7239 2 11.5 2.22386 11.5 2.5C11.5 2.77614 11.7239 3 12 3ZM11.9501 5C11.6501 4.7 11.2001 4.5 10.7501 4.5C10.3001 4.5 9.8501 4.7 9.5501 5L8.8501 4.3C9.3501 3.8 10.0501 3.5 10.7501 3.5C11.4501 3.5 12.2001 3.8 12.6501 4.3L11.9501 5ZM10 2.5C10 2.77614 9.77614 3 9.5 3C9.22386 3 9 2.77614 9 2.5C9 2.22386 9.22386 2 9.5 2C9.77614 2 10 2.22386 10 2.5ZM10 12.5V9.5H11V12.5C11 13.35 10.35 14 9.5 14H7V13H9.5C9.8 13 10 12.8 10 12.5ZM7.7 10.2002C7.3 10.7002 6.65 11.0002 6 11.0002C5.35 11.0002 4.7 10.7002 4.3 10.2002L3.5 10.8002C4.1 11.5002 5 12.0002 6 12.0002C7 12.0002 7.9 11.5502 8.5 10.8002L7.7 10.2002ZM8.5 8.75C8.5 9.16421 8.16421 9.5 7.75 9.5C7.33579 9.5 7 9.16421 7 8.75C7 8.33579 7.33579 8 7.75 8C8.16421 8 8.5 8.33579 8.5 8.75ZM4.25 9.5C4.66421 9.5 5 9.16421 5 8.75C5 8.33579 4.66421 8 4.25 8C3.83579 8 3.5 8.33579 3.5 8.75C3.5 9.16421 3.83579 9.5 4.25 9.5ZM2.5 13H5.05L6.5 15.5L5.65 16L4.5 14H2.5C1.65 14 1 13.35 1 12.5V7C1 6.15 1.65 5.5 2.5 5.5H5V6.5H2.5C2.2 6.5 2 6.7 2 7V12.5C2 12.8 2.2 13 2.5 13Z" fill="black"/>
</svg>
