<svg width="16" height="16" viewBox="0 0 16 16" fill="none" xmlns="http://www.w3.org/2000/svg">
<path fill-rule="evenodd" clip-rule="evenodd" d="M14 4H13V3H3V5H10V6H6V10H10V11H3V13H10V14H3C2.44775 14 2 13.5522 2 13V11C2 10.4478 2.44775 10 3 10H5V6H3C2.4477 6 2 5.5523 2 5V3C2 2.4477 2.4477 2 3 2H13C13.5523 2 14 2.4477 14 3V4ZM4.5 4.5C4.77614 4.5 5 4.27614 5 4C5 3.72386 4.77614 3.5 4.5 3.5C4.22386 3.5 4 3.72386 4 4C4 4.27614 4.22386 4.5 4.5 4.5ZM14 5V10.571C14.8602 10.7946 15.5 11.5707 15.5 12.5C15.5 13.6031 14.6028 14.5 13.5 14.5C12.3972 14.5 11.5 13.6031 11.5 12.5C11.5 11.5707 12.1398 10.7945 13 10.571V8H11.5V7H13V6H11.5V5H14ZM12.5 12.5C12.5 13.0513 12.9485 13.5 13.5 13.5C14.0515 13.5 14.5 13.0513 14.5 12.5C14.5 11.9487 14.0515 11.5 13.5 11.5C12.9485 11.5 12.5 11.9487 12.5 12.5ZM5 12C5 12.2761 4.77614 12.5 4.5 12.5C4.22386 12.5 4 12.2761 4 12C4 11.7239 4.22386 11.5 4.5 11.5C4.77614 11.5 5 11.7239 5 12Z" fill="black"/>
</svg>
