<svg width="16" height="16" viewBox="0 0 16 16" fill="none" xmlns="http://www.w3.org/2000/svg">
<path fill-rule="evenodd" clip-rule="evenodd" d="M7.75 15.45C7.85 15.5 7.9 15.5 8 15.5C8.1 15.5 8.15 15.5 8.25 15.45L14.25 11.95C14.4 11.85 14.5 11.7 14.5 11.5V7.5H13.5V11.25L8 14.45L2.5 11.25V4.8L8 1.6L13.75 4.9L14.25 4.05L8.25 0.55C8.15 0.5 8.1 0.5 8 0.5C7.9 0.5 7.85 0.5 7.75 0.55L1.75 4.05C1.6 4.15 1.5 4.3 1.5 4.5V11.5C1.5 11.7 1.6 11.85 1.75 11.95L7.75 15.45ZM7.75 11.45C7.8 11.5 7.9 11.5 8 11.5C8.1 11.5 8.2 11.5 8.25 11.45L10.75 9.95C10.9 9.85 11 9.7 11 9.5V6.5C11 6.3 10.9 6.15 10.75 6.05L8.25 4.55C8.2 4.5 8.1 4.5 8 4.5C7.9 4.5 7.8 4.5 7.75 4.55L5.25 6.05C5.1 6.15 5 6.3 5 6.5V9.5C5 9.7 5.1 9.85 5.25 9.95L7.75 11.45ZM8 10.4L6 9.2V6.75L8 5.55L10 6.75V9.2L8 10.4Z" fill="black"/>
</svg>
