<svg width="16" height="16" viewBox="0 0 16 16" fill="none" xmlns="http://www.w3.org/2000/svg">
<path fill-rule="evenodd" clip-rule="evenodd" d="M7.75 15.4501C7.85 15.5001 7.9 15.5001 8 15.5001C8.1 15.5001 8.15 15.5001 8.25 15.4501L14.25 11.9501C14.4 11.8501 14.5 11.7001 14.5 11.5001V7.5001H13.5V11.2501L8 14.4501L2.5 11.2501V4.8001L8 1.6001L13.75 4.9001L14.25 4.0501L8.25 0.550098C8.1 0.450098 7.9 0.450098 7.75 0.550098L1.75 4.0501C1.6 4.1501 1.5 4.3001 1.5 4.5001V11.5001C1.5 11.7001 1.6 11.8501 1.75 11.9501L7.75 15.4501ZM11.15 6.5C11.9 6.6 12.5 7.25 12.5 8C12.5 8.75 11.9 9.4 11.15 9.5C10.6 10.65 9.4 11.5 8 11.5C7.95 11.5 7.8875 11.4875 7.825 11.475C7.7625 11.4625 7.7 11.45 7.65 11.45C7.35 11.8 6.95 12 6.5 12C5.65 12 5 11.35 5 10.5C5 10.3343 5.03431 10.2029 5.07452 10.049C5.08284 10.0172 5.09142 9.98431 5.1 9.95C4.7 9.4 4.5 8.75 4.5 8C4.5 7.25 4.7 6.6 5.1 6.05C5.09142 6.01569 5.08284 5.98284 5.07452 5.95097C5.03431 5.79706 5 5.66569 5 5.5C5 4.65 5.65 4 6.5 4C6.95 4 7.35 4.2 7.65 4.55C7.75 4.5 7.9 4.5 8 4.5C9.4 4.5 10.6 5.3 11.15 6.5ZM7 5.5C7 5.2 6.8 5 6.5 5C6.2 5 6 5.2 6 5.5C6 5.8 6.2 6 6.5 6C6.8 6 7 5.8 7 5.5ZM6 10.5C6 10.8 6.2 11 6.5 11C6.8 11 7 10.8 7 10.5C7 10.2 6.8 10 6.5 10C6.2 10 6 10.2 6 10.5ZM6.5 9C7.35 9 8 9.65 8 10.5C8.95 10.5 9.7 10 10.15 9.25C9.75 8.95 9.5 8.5 9.5 8C9.5 7.5 9.75 7.05 10.15 6.75C9.7 6 8.95 5.5 8 5.5C8 6.35 7.35 7 6.5 7C6.25 7 6 6.95 5.8 6.8C5.6 7.15 5.5 7.55 5.5 8C5.5 8.45 5.6 8.85 5.8 9.2C6 9.05 6.25 9 6.5 9ZM10.5 8C10.5 8.3 10.7 8.5 11 8.5C11.3 8.5 11.5 8.3 11.5 8C11.5 7.7 11.3 7.5 11 7.5C10.7 7.5 10.5 7.7 10.5 8Z" fill="black"/>
</svg>
