<svg width="16" height="16" viewBox="0 0 16 16" fill="none" xmlns="http://www.w3.org/2000/svg">
<path fill-rule="evenodd" clip-rule="evenodd" d="M11.5 2.75V8.6385C11.7975 8.812 12 9.131 12 9.5C12 10.052 11.552 10.5 11 10.5C10.448 10.5 10 10.052 10 9.5C10 9.1305 10.2025 8.812 10.5 8.6385V3.037L8 1.5785L2.5 4.787V5.9995H1.5V4.5C1.5 4.3225 1.5945 4.1575 1.748 4.068L7.748 0.568C7.826 0.5225 7.913 0.5 8 0.5C8.087 0.5 8.174 0.5225 8.252 0.568L11.252 2.318C11.4055 2.4075 11.5 2.5725 11.5 2.75ZM14.252 4.06787L12.752 3.19287L12.248 4.05687L13.5 4.78687V11.2129L11.2035 12.5524L5.999 9.50587L5.99939 9.50405C5.99973 9.50253 6 9.50134 6 9.49987C6 8.94787 5.552 8.49987 5 8.49987C4.448 8.49987 4 8.94787 4 9.49987C4 10.0519 4.448 10.4999 5 10.4999C5.179 10.4999 5.345 10.4489 5.4905 10.3664L10.9505 13.5629C11.0285 13.6084 11.116 13.6314 11.203 13.6314C11.29 13.6314 11.377 13.6089 11.455 13.5634L14.252 11.9319C14.4055 11.8424 14.5 11.6774 14.5 11.4999V4.49987C14.5 4.32237 14.4055 4.15737 14.252 4.06787ZM9.248 13.693L8 14.421L2.5 11.213V8.287L7.508 5.3655C7.654 5.4485 7.8205 5.5 8 5.5C8.552 5.5 9 5.052 9 4.5C9 3.948 8.552 3.5 8 3.5C7.448 3.5 7 3.948 7 4.5L7.00025 4.502L7.0005 4.504L1.748 7.568C1.5945 7.6575 1.5 7.8225 1.5 8V11.5C1.5 11.6775 1.5945 11.8425 1.748 11.932L7.748 15.432C7.826 15.4775 7.913 15.5 8 15.5C8.087 15.5 8.174 15.4775 8.252 15.432L9.752 14.557L9.248 13.693Z" fill="black"/>
</svg>
