<svg width="16" height="16" viewBox="0 0 16 16" fill="none" xmlns="http://www.w3.org/2000/svg">
<path d="M13 11C12.6444 10.9992 12.2965 11.1036 12 11.3L9.70716 9L9.00001 9.70705L11.3 12C11.212 12.1573 11.1448 12.3254 11.1 12.5H4.92916C4.8792 12.3224 4.80189 12.1538 4.70001 12L12 4.7C12.2965 4.89641 12.6444 5.00078 13 5C13.3744 5.0015 13.7417 4.89788 14.0601 4.70093C14.3786 4.50397 14.6353 4.22159 14.8011 3.88591C14.967 3.55024 15.0353 3.17475 14.9982 2.80218C14.9612 2.42961 14.8203 2.07491 14.5917 1.77846C14.363 1.482 14.0557 1.25569 13.7047 1.12527C13.3537 0.994854 12.9732 0.965571 12.6064 1.04075C12.2397 1.11594 11.9013 1.29256 11.63 1.55054C11.3587 1.80852 11.1652 2.13748 11.0716 2.5H4.95001C4.83261 2.07177 4.57864 1.69356 4.22669 1.42282C3.87473 1.15209 3.44403 1.00363 3.00001 1C2.46958 1 1.96087 1.21071 1.5858 1.58579C1.21073 1.96086 1.00001 2.46957 1.00001 3C1.00001 3.53043 1.21073 4.03914 1.5858 4.41421C1.96087 4.78929 2.46958 5 3.00001 5C3.35563 5.00079 3.70355 4.89642 4.00001 4.7L6.29291 7L7.00001 6.29295L4.70001 4C4.78799 3.84267 4.85521 3.6746 4.90001 3.5H11.0709C11.1209 3.67754 11.1982 3.84623 11.3 4L4.00001 11.3C3.70355 11.1036 3.35563 10.9992 3.00001 11C2.62561 10.9985 2.2583 11.1021 1.93988 11.2991C1.62146 11.496 1.36473 11.7784 1.19888 12.1141C1.03304 12.4498 0.964748 12.8252 1.00178 13.1978C1.03882 13.5704 1.17969 13.9251 1.40837 14.2215C1.63705 14.518 1.94436 14.7443 2.29532 14.8747C2.64628 15.0051 3.0268 15.0344 3.39358 14.9592C3.76036 14.8841 4.09868 14.7074 4.37002 14.4495C4.64137 14.1915 4.83486 13.8625 4.92846 13.5H11.05C11.1424 13.8637 11.335 14.1941 11.6059 14.4538C11.8768 14.7135 12.215 14.892 12.5823 14.9691C12.9495 15.0461 13.331 15.0186 13.6834 14.8896C14.0358 14.7607 14.345 14.5355 14.5758 14.2396C14.8065 13.9437 14.9497 13.589 14.989 13.2158C15.0283 12.8427 14.9621 12.4659 14.7979 12.1285C14.6338 11.7911 14.3783 11.5064 14.0605 11.3069C13.7427 11.1074 13.3753 11.0011 13 11ZM13 2C13.1978 2 13.3911 2.05865 13.5556 2.16853C13.72 2.27841 13.8482 2.43459 13.9239 2.61732C13.9996 2.80004 14.0194 3.00111 13.9808 3.19509C13.9422 3.38907 13.847 3.56725 13.7071 3.70711C13.5673 3.84696 13.3891 3.9422 13.1951 3.98079C13.0011 4.01937 12.8001 3.99957 12.6173 3.92388C12.4346 3.84819 12.2784 3.72002 12.1685 3.55557C12.0587 3.39112 12 3.19778 12 3C12.0008 2.73502 12.1064 2.48111 12.2938 2.29374C12.4811 2.10637 12.735 2.00077 13 2ZM3.00001 4C2.80223 4 2.60889 3.94135 2.44444 3.83147C2.27999 3.72159 2.15182 3.56541 2.07613 3.38268C2.00045 3.19996 1.98064 2.99889 2.01923 2.80491C2.05781 2.61093 2.15305 2.43275 2.29291 2.29289C2.43276 2.15304 2.61094 2.0578 2.80492 2.01921C2.9989 1.98063 3.19997 2.00043 3.3827 2.07612C3.56542 2.15181 3.7216 2.27998 3.83148 2.44443C3.94136 2.60888 4.00001 2.80222 4.00001 3C3.99925 3.26498 3.89364 3.51889 3.70627 3.70626C3.5189 3.89363 3.26499 3.99923 3.00001 4ZM3.00001 14C2.80223 14 2.60889 13.9414 2.44444 13.8315C2.27999 13.7216 2.15182 13.5654 2.07613 13.3827C2.00045 13.2 1.98064 12.9989 2.01923 12.8049C2.05781 12.6109 2.15305 12.4327 2.29291 12.2929C2.43276 12.153 2.61094 12.0578 2.80492 12.0192C2.9989 11.9806 3.19997 12.0004 3.3827 12.0761C3.56542 12.1518 3.7216 12.28 3.83148 12.4444C3.94136 12.6089 4.00001 12.8022 4.00001 13C3.99925 13.265 3.89364 13.5189 3.70627 13.7063C3.5189 13.8936 3.26499 13.9992 3.00001 14ZM13 14C12.8022 14 12.6089 13.9414 12.4444 13.8315C12.28 13.7216 12.1518 13.5654 12.0761 13.3827C12.0004 13.2 11.9806 12.9989 12.0192 12.8049C12.0578 12.6109 12.1531 12.4327 12.2929 12.2929C12.4328 12.153 12.6109 12.0578 12.8049 12.0192C12.9989 11.9806 13.2 12.0004 13.3827 12.0761C13.5654 12.1518 13.7216 12.28 13.8315 12.4444C13.9414 12.6089 14 12.8022 14 13C13.9992 13.265 13.8936 13.5189 13.7063 13.7063C13.5189 13.8936 13.265 13.9992 13 14Z" fill="black"/>
</svg>
