<svg width="16" height="16" viewBox="0 0 16 16" fill="none" xmlns="http://www.w3.org/2000/svg">
<path fill-rule="evenodd" clip-rule="evenodd" d="M2.5 1H12.5C13.05 1 13.5 1.45 13.5 2V7.5H12.5V2H8V14H2.5C1.95 14 1.5 13.55 1.5 13V2C1.5 1.45 1.95 1 2.5 1ZM2.5 11.95L6.8 6.1L2.5 2.55V11.95ZM7 7.55L3 13H7V7.55ZM3.4 2L7 4.95V2H3.4ZM10 12.25V9H15V12.25C15 13.2 14.4 14.1 13.55 14.5L12.5 15L11.45 14.5C10.55 14.1 10 13.2 10 12.25ZM13.15 13.6C13.65 13.35 14 12.85 14 12.25V10H11V12.25C11 12.8 11.35 13.35 11.85 13.6L12.5 13.9L13.15 13.6Z" fill="black"/>
</svg>
