<svg width="16" height="16" viewBox="0 0 16 16" fill="none" xmlns="http://www.w3.org/2000/svg">
<path d="M12.95 10.45L14.7 8.70001C14.7948 8.60972 14.8703 8.50113 14.9219 8.3808C14.9734 8.26047 15 8.13092 15 8.00001C15 7.86909 14.9734 7.73955 14.9219 7.61922C14.8703 7.49889 14.7948 7.39029 14.7 7.30001L12.05 4.65001L12.75 3.95001C12.8268 3.99039 12.9136 4.00775 13 4.00001C13.1978 4.00001 13.3911 3.94136 13.5556 3.83148C13.72 3.7216 13.8482 3.56542 13.9239 3.38269C13.9996 3.19996 14.0194 2.9989 13.9808 2.80492C13.9422 2.61094 13.847 2.43275 13.7071 2.2929C13.5673 2.15305 13.3891 2.05781 13.1951 2.01922C13.0011 1.98064 12.8 2.00044 12.6173 2.07613C12.4346 2.15182 12.2784 2.27999 12.1685 2.44444C12.0587 2.60889 12 2.80223 12 3.00001C11.9923 3.08642 12.0096 3.17322 12.05 3.25001L9.00001 6.30001C8.70321 6.10431 8.35552 6 8.00001 6C7.6445 6 7.29681 6.10431 7.00001 6.30001L5.35001 4.65001L8.00001 2.00001L9.75001 3.75001L10.45 3.05001L8.70001 1.30001C8.60972 1.20521 8.50113 1.12973 8.3808 1.07816C8.26047 1.02659 8.13092 1 8.00001 1C7.86909 1 7.73955 1.02659 7.61922 1.07816C7.49889 1.12973 7.39029 1.20521 7.30001 1.30001L4.65001 3.95001L3.95001 3.25001C3.99039 3.17322 4.00775 3.08642 4.00001 3.00001C4.00001 2.80223 3.94136 2.60889 3.83148 2.44444C3.7216 2.27999 3.56542 2.15182 3.38269 2.07613C3.19996 2.00044 2.9989 1.98064 2.80492 2.01922C2.61094 2.05781 2.43275 2.15305 2.2929 2.2929C2.15305 2.43275 2.05781 2.61094 2.01922 2.80492C1.98064 2.9989 2.00044 3.19996 2.07613 3.38269C2.15182 3.56542 2.27999 3.7216 2.44444 3.83148C2.60889 3.94136 2.80223 4.00001 3.00001 4.00001C3.08642 4.00775 3.17322 3.99039 3.25001 3.95001L6.30001 7.00001C6.10431 7.29681 6 7.6445 6 8.00001C6 8.35552 6.10431 8.70321 6.30001 9.00001L4.65001 10.65L2.00001 8.00001L3.75001 6.25001L3.05001 5.55001L1.30001 7.30001C1.20521 7.39029 1.12973 7.49889 1.07816 7.61922C1.02659 7.73955 1 7.86909 1 8.00001C1 8.13092 1.02659 8.26047 1.07816 8.3808C1.12973 8.50113 1.20521 8.60972 1.30001 8.70001L3.95001 11.35L3.25001 12.05C3.17322 12.0096 3.08642 11.9923 3.00001 12C2.80223 12 2.60889 12.0587 2.44444 12.1685C2.27999 12.2784 2.15182 12.4346 2.07613 12.6173C2.00044 12.8 1.98064 13.0011 2.01922 13.1951C2.05781 13.3891 2.15305 13.5673 2.2929 13.7071C2.43275 13.847 2.61094 13.9422 2.80492 13.9808C2.9989 14.0194 3.19996 13.9996 3.38269 13.9239C3.56542 13.8482 3.7216 13.72 3.83148 13.5556C3.94136 13.3911 4.00001 13.1978 4.00001 13C4.00775 12.9136 3.99039 12.8268 3.95001 12.75L7.00001 9.70001C7.29681 9.8957 7.6445 10 8.00001 10C8.35552 10 8.70321 9.8957 9.00001 9.70001L10.65 11.35L8.00001 14L6.25001 12.25L5.55001 12.95L7.30001 14.7C7.39029 14.7948 7.49889 14.8703 7.61922 14.9219C7.73955 14.9734 7.86909 15 8.00001 15C8.13092 15 8.26047 14.9734 8.3808 14.9219C8.50113 14.8703 8.60972 14.7948 8.70001 14.7L11.35 12.05L12.05 12.75C12.05 12.85 12 12.9 12 13C12 13.1978 12.0587 13.3911 12.1685 13.5556C12.2784 13.72 12.4346 13.8482 12.6173 13.9239C12.8 13.9996 13.0011 14.0194 13.1951 13.9808C13.3891 13.9422 13.5673 13.847 13.7071 13.7071C13.847 13.5673 13.9422 13.3891 13.9808 13.1951C14.0194 13.0011 13.9996 12.8 13.9239 12.6173C13.8482 12.4346 13.72 12.2784 13.5556 12.1685C13.3911 12.0587 13.1978 12 13 12C12.9136 11.9923 12.8268 12.0096 12.75 12.05L9.70001 9.00001C9.8957 8.70321 10 8.35552 10 8.00001C10 7.6445 9.8957 7.29681 9.70001 7.00001L11.35 5.35001L14 8.00001L12.25 9.75001L12.95 10.45ZM8.00001 9.00001C7.80223 9.00001 7.60889 8.94136 7.44444 8.83148C7.27999 8.7216 7.15182 8.56542 7.07613 8.38269C7.00044 8.19997 6.98064 7.9989 7.01922 7.80492C7.05781 7.61094 7.15305 7.43275 7.2929 7.2929C7.43275 7.15305 7.61094 7.05781 7.80492 7.01922C7.9989 6.98064 8.19997 7.00044 8.38269 7.07613C8.56542 7.15182 8.7216 7.27999 8.83148 7.44444C8.94136 7.60889 9.00001 7.80223 9.00001 8.00001C8.99923 8.26498 8.89362 8.51889 8.70625 8.70625C8.51889 8.89362 8.26498 8.99923 8.00001 9.00001Z" fill="black"/>
</svg>
