<svg width="16" height="16" viewBox="0 0 16 16" fill="none" xmlns="http://www.w3.org/2000/svg">
<path fill-rule="evenodd" clip-rule="evenodd" d="M7.74805 15.4322C7.82454 15.4767 7.91149 15.5001 8 15.5C8.08851 15.5001 8.17546 15.4767 8.25195 15.4322L14.252 11.9322C14.3274 11.8881 14.3901 11.825 14.4336 11.7492C14.4771 11.6733 14.5 11.5874 14.5 11.5V7.50002H13.5V11.2129L8 14.4214L2.5 11.2129V4.78712L8 1.57887L13.748 4.93192L14.252 4.06812L8.25195 0.568119C8.17548 0.523507 8.08853 0.5 8 0.5C7.91147 0.5 7.82452 0.523507 7.74805 0.568119L1.74805 4.06812C1.67255 4.11213 1.60991 4.17518 1.56638 4.25096C1.52285 4.32675 1.49997 4.41262 1.5 4.50002V11.5C1.49999 11.5874 1.52289 11.6733 1.56641 11.7492C1.60993 11.825 1.67256 11.8881 1.74805 11.9322L7.74805 15.4322ZM11.0607 4.93933C10.7794 4.65803 10.3979 4.5 10.0001 4.5C9.60225 4.5 9.22072 4.65803 8.93942 4.93933L8.70717 5.17153L9.41427 5.87863L9.64652 5.64638C9.7403 5.55261 9.86749 5.49994 10.0001 5.49995C10.1327 5.49996 10.2599 5.55265 10.3537 5.64643C10.4474 5.74021 10.5001 5.8674 10.5001 6.00001C10.5001 6.13263 10.4474 6.25981 10.3536 6.35358L8.70717 7.99998L9.41432 8.70708L11.0607 7.06063C11.342 6.77933 11.5 6.3978 11.5 5.99998C11.5 5.60216 11.342 5.22063 11.0607 4.93933ZM6.35354 10.3537C6.25976 10.4474 6.13257 10.5001 5.99996 10.5001C5.86734 10.5001 5.74016 10.4474 5.64639 10.3536C5.55262 10.2598 5.49995 10.1326 5.49996 10C5.49997 9.86742 5.55266 9.74024 5.64644 9.64647L7.29289 8.00007L6.58579 7.29297L4.93934 8.93942C4.79905 9.07848 4.68761 9.24389 4.61142 9.42614C4.53523 9.60839 4.49578 9.80389 4.49535 10.0014C4.49492 10.199 4.53351 10.3946 4.6089 10.5772C4.68429 10.7598 4.79501 10.9257 4.93469 11.0654C5.07436 11.2051 5.24026 11.3158 5.42284 11.3912C5.60542 11.4666 5.8011 11.5051 5.99863 11.5047C6.19617 11.5043 6.39167 11.4648 6.57392 11.3886C6.75617 11.3124 6.92158 11.201 7.06064 11.0607L7.29289 10.8285L6.58579 10.1214L6.35354 10.3537ZM6.00137 4.50489C6.39805 4.50402 6.77893 4.66032 7.06066 4.93959L8.70711 6.58599L8.00001 7.29314L6.35356 5.64664C6.25978 5.55287 6.1326 5.5002 5.99999 5.5002C5.86738 5.50021 5.7402 5.55289 5.64643 5.64666C5.55267 5.74044 5.49999 5.86762 5.5 6.00023C5.5 6.06589 5.51293 6.13091 5.53806 6.19158C5.56319 6.25224 5.60003 6.30736 5.64646 6.35379L5.87871 6.58604L5.17161 7.29314L4.93936 7.06089C4.66009 6.77916 4.50379 6.39828 4.50466 6.0016C4.50553 5.60491 4.66349 5.22472 4.94399 4.94422C5.22449 4.66372 5.60468 4.50575 6.00137 4.50489ZM11.0606 8.93928L10.8283 8.70703L10.1213 9.41413L10.3535 9.64638C10.4473 9.74015 10.4999 9.86733 10.4999 9.99994C10.4999 10.1326 10.4473 10.2597 10.3535 10.3535C10.2597 10.4473 10.1326 10.5 9.99995 10.5C9.86734 10.5 9.74016 10.4473 9.64638 10.3535L7.99993 8.70703L7.29283 9.41413L8.93928 11.0606C9.22101 11.3398 9.60188 11.4962 9.99857 11.4953C10.3953 11.4944 10.7754 11.3364 11.0559 11.0559C11.3364 10.7754 11.4944 10.3953 11.4953 9.99857C11.4962 9.60188 11.3398 9.22101 11.0606 8.93928Z" fill="black"/>
</svg>
