<svg width="16" height="16" viewBox="0 0 16 16" fill="none" xmlns="http://www.w3.org/2000/svg">
<path fill-rule="evenodd" clip-rule="evenodd" d="M1 1.5H7V2.5H1V1.5ZM14 7H13V6C13 4.6 11.9 3.5 10.5 3.5H8.5V2.5H10.5C12.45 2.5 14 4.05 14 6V7ZM5.5 13H6.5V12H5.5C4.1 12 3 10.9 3 9.5V8.5H2V9.5C2 11.45 3.55 13 5.5 13ZM14 9H9C8.45 9 8 9.45 8 10V13C8 13.55 8.45 14 9 14H10.5V13H9V10H14V13H12.25L11.1 15L11.95 15.5L12.8 14H14C14.55 14 15 13.55 15 13V10C15 9.45 14.55 9 14 9ZM1 5.5H4V6.5H1V5.5ZM7 3.5H1V4.5H7V3.5Z" fill="black"/>
</svg>
