<svg width="16" height="16" viewBox="0 0 16 16" fill="none" xmlns="http://www.w3.org/2000/svg">
<path fill-rule="evenodd" clip-rule="evenodd" d="M6 4.5H5V5.5H6V4.5ZM7 11.5V4.5H9C9.53043 4.5 10.0391 4.71071 10.4142 5.08579C10.7893 5.46086 11 5.96957 11 6.5V9.5C11 10.0304 10.7893 10.5391 10.4142 10.9142C10.0391 11.2893 9.53043 11.5 9 11.5H7ZM8 10.5H9C9.26522 10.5 9.51957 10.3946 9.70711 10.2071C9.89464 10.0196 10 9.76522 10 9.5V6.5C10 6.23478 9.89464 5.98043 9.70711 5.79289C9.51957 5.60536 9.26522 5.5 9 5.5H8V10.5ZM5 6.5H6V11.5H5V6.5Z" fill="black"/>
</svg>
