<svg width="16" height="16" viewBox="0 0 16 16" fill="none" xmlns="http://www.w3.org/2000/svg">
<path fill-rule="evenodd" clip-rule="evenodd" d="M4.46447 2.46447C5.40215 1.52678 6.67392 1 8 1C8.65661 1 9.30679 1.12933 9.91342 1.3806C10.52 1.63188 11.0712 2.00017 11.5355 2.46447C11.9998 2.92876 12.3681 3.47995 12.6194 4.08658C12.8707 4.69321 13 5.34339 13 6C13.0334 6.72589 12.894 7.44935 12.5932 8.11085C12.2925 8.77235 11.839 9.35299 11.27 9.805C10.765 10.275 10.5 10.54 10.5 11H9.5C9.5 10.088 10.0338 9.58948 10.559 9.09898C10.5693 9.08932 10.5797 9.07966 10.59 9.07C11.0582 8.71267 11.4316 8.24592 11.6775 7.71067C11.9233 7.17541 12.0341 6.58802 12 6C12 4.93913 11.5786 3.92172 10.8284 3.17157C10.0783 2.42143 9.06087 2 8 2C6.93913 2 5.92172 2.42143 5.17157 3.17157C4.42143 3.92172 4 4.93913 4 6C3.96537 6.58759 4.07534 7.1747 4.32029 7.70992C4.56524 8.24514 4.93768 8.71213 5.405 9.07C5.945 9.565 6.5 10.08 6.5 11H5.5C5.5 10.54 5.23 10.275 4.73 9.81C4.16064 9.35722 3.70691 8.77572 3.40615 8.11335C3.10539 7.45098 2.96619 6.72667 3 6C3 4.67392 3.52678 3.40215 4.46447 2.46447ZM10.5 12H5.5V13H10.5V12ZM9.5 14H6.5V15H9.5V14Z" fill="black"/>
</svg>
