<svg width="16" height="16" viewBox="0 0 16 16" fill="none" xmlns="http://www.w3.org/2000/svg">
<path fill-rule="evenodd" clip-rule="evenodd" d="M7.5 2H6.5V6H7.5V2ZM13 10H14C14.2651 10.0003 14.5193 10.1058 14.7068 10.2932C14.8942 10.4807 14.9997 10.7349 15 11V14C14.9997 14.2651 14.8942 14.5193 14.7068 14.7068C14.5193 14.8942 14.2651 14.9997 14 15H2C1.73488 14.9997 1.48071 14.8942 1.29324 14.7068C1.10578 14.5193 1.00032 14.2651 1 14V11C1.00032 10.7349 1.10578 10.4807 1.29324 10.2932C1.48071 10.1058 1.73488 10.0003 2 10H3V11H2V14H14V11H13V10ZM4 12.5C4 12.7761 3.77614 13 3.5 13C3.22386 13 3 12.7761 3 12.5C3 12.2239 3.22386 12 3.5 12C3.77614 12 4 12.2239 4 12.5ZM4.5 2H5.5V6H4.5V2ZM10.5 6H9.5C9.23487 5.99972 8.98068 5.89428 8.7932 5.7068C8.60572 5.51932 8.50028 5.26513 8.5 5V3C8.50028 2.73487 8.60572 2.48068 8.7932 2.2932C8.98068 2.10572 9.23487 2.00028 9.5 2H10.5C10.7651 2.00028 11.0193 2.10572 11.2068 2.2932C11.3943 2.48068 11.4997 2.73487 11.5 3V5C11.4997 5.26513 11.3943 5.51932 11.2068 5.7068C11.0193 5.89428 10.7651 5.99972 10.5 6ZM9.5 3V5H10.5V3H9.5ZM10.5 7H11.5V11H10.5V7ZM5.5 7H4.5V11H5.5V7ZM7.5 11H8.5C8.76513 10.9997 9.01932 10.8943 9.2068 10.7068C9.39428 10.5193 9.49972 10.2651 9.5 10V8C9.49972 7.73487 9.39428 7.48068 9.2068 7.2932C9.01932 7.10572 8.76513 7.00028 8.5 7H7.5C7.23487 7.00028 6.98068 7.10572 6.7932 7.2932C6.60572 7.48068 6.50028 7.73487 6.5 8V10C6.50028 10.2651 6.60572 10.5193 6.7932 10.7068C6.98068 10.8943 7.23487 10.9997 7.5 11ZM7.5 10V8H8.5V10H7.5Z" fill="black"/>
</svg>
