<svg width="16" height="16" viewBox="0 0 16 16" fill="none" xmlns="http://www.w3.org/2000/svg">
<path fill-rule="evenodd" clip-rule="evenodd" d="M11.27 3.5H14.5C14.6325 3.50041 14.7594 3.55322 14.8531 3.6469C14.9468 3.74058 14.9996 3.86752 15 4V10.5H14V4.5H11C10.9176 4.49981 10.8365 4.47916 10.7641 4.43988C10.6917 4.40061 10.6301 4.34395 10.585 4.275L9.73 3H6.27L5.415 4.275C5.36988 4.34395 5.30834 4.40061 5.2359 4.43988C5.16346 4.47916 5.0824 4.49981 5 4.5H2V12H6V13H1.5C1.36752 12.9996 1.24058 12.9468 1.1469 12.8531C1.05322 12.7594 1.00041 12.6325 1 12.5V4C1.00041 3.86752 1.05322 3.74058 1.1469 3.6469C1.24058 3.55322 1.36752 3.50041 1.5 3.5H4.73L5.585 2.225C5.63012 2.15605 5.69166 2.09939 5.7641 2.06012C5.83654 2.02084 5.9176 2.00019 6 2H10C10.0824 2.00019 10.1635 2.02084 10.2359 2.06012C10.3083 2.09939 10.3699 2.15605 10.415 2.225L11.27 3.5ZM5.43632 9.56147C5.15012 9.09101 4.99915 8.55077 5 8.0001C4.99974 7.52815 5.1109 7.06281 5.32441 6.64193C5.53793 6.22104 5.84778 5.8565 6.22876 5.57795C6.60974 5.29941 7.0511 5.11472 7.51692 5.03893C7.98274 4.96313 8.45987 4.99836 8.90951 5.14174C9.35915 5.28513 9.76859 5.53263 10.1045 5.86411C10.4405 6.19559 10.6934 6.60168 10.8428 7.04936C10.9922 7.49704 11.0338 7.97366 10.9642 8.44045C10.8947 8.90725 10.7159 9.35103 10.4425 9.7357L13 12.2931L12.2929 13.0001L9.7356 10.4428C9.28739 10.7627 8.75967 10.9528 8.21042 10.9924C7.66117 11.0319 7.11165 10.9193 6.62225 10.6668C6.13285 10.4144 5.72251 10.0319 5.43632 9.56147ZM6.33706 6.88896C6.11729 7.21786 6 7.60454 6 8.0001C6.00059 8.53035 6.2115 9.03871 6.58644 9.41366C6.96138 9.7886 7.46975 9.99951 8 10.0001C8.39556 10.0001 8.78224 9.8828 9.11114 9.66304C9.44003 9.44328 9.69638 9.13092 9.84776 8.76547C9.99913 8.40001 10.0387 7.99788 9.96157 7.60992C9.8844 7.22196 9.69391 6.86559 9.41421 6.58589C9.1345 6.30618 8.77814 6.1157 8.39018 6.03853C8.00221 5.96136 7.60008 6.00097 7.23463 6.15234C6.86918 6.30372 6.55682 6.56006 6.33706 6.88896Z" fill="black"/>
</svg>
