<svg width="16" height="16" viewBox="0 0 16 16" fill="none" xmlns="http://www.w3.org/2000/svg">
<path fill-rule="evenodd" clip-rule="evenodd" d="M5.7 5.8L5 6.5L8 9.5L11 6.5L10.3 5.8L8.5 7.6V1H7.5V7.6L5.7 5.8ZM10 2.4999V1.3999C12.05 2.1999 13.5 4.1499 13.45 6.4999C13.45 7.6999 13.05 8.8499 12.35 9.7999C12.35 9.7999 12.2 9.9499 12.2 9.9999L8 14.9999L3.75 10.0499C3.75 9.9999 3.6 9.7999 3.6 9.7999C2.9 8.8499 2.5 7.6999 2.5 6.4999C2.5 4.1499 3.95 2.1999 6 1.3999V2.4999C4.5 3.1999 3.5 4.7499 3.5 6.4999C3.5 7.4999 3.8 8.3999 4.4 9.1999C4.4 9.1999 4.5 9.3499 4.55 9.3999L8 13.4499L11.45 9.3999C11.5 9.3499 11.6 9.1999 11.6 9.1999C12.2 8.3999 12.5 7.4999 12.5 6.4999C12.5 4.7499 11.5 3.2499 10 2.4999Z" fill="black"/>
</svg>
