<svg width="16" height="16" viewBox="0 0 16 16" fill="none" xmlns="http://www.w3.org/2000/svg">
<path fill-rule="evenodd" clip-rule="evenodd" d="M3.8 10.05L8 15L12.25 10L12.4 9.8C13.1 8.85 13.5 7.7 13.5 6.5C13.5 3.45 11.05 1 8 1C4.95 1 2.5 3.45 2.5 6.5C2.5 7.7 2.9 8.85 3.65 9.8C3.65 9.8 3.8 10 3.8 10.05ZM4.55 9.4C4.5 9.35 4.4 9.2 4.4 9.2C3.8 8.4 3.5 7.5 3.5 6.5C3.5 4 5.5 2 8 2C10.5 2 12.5 4 12.5 6.5C12.5 7.5 12.2 8.4 11.6 9.2C11.6 9.2 11.45 9.35 11.45 9.4L8 13.45L4.55 9.4ZM5.5 6.5C5.5 7.9 6.6 9 8 9C9.4 9 10.5 7.9 10.5 6.5C10.5 5.1 9.4 4 8 4C6.6 4 5.5 5.1 5.5 6.5Z" fill="black"/>
</svg>
