<svg width="16" height="16" viewBox="0 0 16 16" fill="none" xmlns="http://www.w3.org/2000/svg">
<path fill-rule="evenodd" clip-rule="evenodd" d="M3.8 10.05L8 15L12.25 10L12.4 9.8C13.1 8.85 13.5 7.7 13.5 6.5C13.5 3.45 11.05 1 8 1C4.95 1 2.5 3.45 2.5 6.5C2.5 7.7 2.9 8.85 3.65 9.8C3.65 9.8 3.8 10 3.8 10.05ZM4.55 9.4C4.5 9.35 4.4 9.2 4.4 9.2C3.8 8.4 3.5 7.5 3.5 6.5C3.5 4 5.5 2 8 2C10.5 2 12.5 4 12.5 6.5C12.5 7.5 12.2 8.4 11.6 9.2C11.6 9.2 11.45 9.35 11.45 9.4L8 13.45L4.55 9.4ZM8.5 7.5V8.5H7.5V6.5H8.5C9.05 6.5 9.5 6.05 9.5 5.5C9.5 4.95 9.05 4.5 8.5 4.5H7.5C6.95 4.5 6.5 4.95 6.5 5.5V5.75H5.5V5.5C5.5 4.4 6.4 3.5 7.5 3.5H8.5C9.6 3.5 10.5 4.4 10.5 5.5C10.5 6.6 9.6 7.5 8.5 7.5ZM8 11C8.41421 11 8.75 10.6642 8.75 10.25C8.75 9.83579 8.41421 9.5 8 9.5C7.58579 9.5 7.25 9.83579 7.25 10.25C7.25 10.6642 7.58579 11 8 11Z" fill="black"/>
</svg>
