<svg width="16" height="16" viewBox="0 0 16 16" fill="none" xmlns="http://www.w3.org/2000/svg">
<path fill-rule="evenodd" clip-rule="evenodd" d="M12.9888 4.66658C13.6481 5.65328 14 6.81331 14 8H13C13 7.0111 12.7068 6.0444 12.1574 5.22215C11.6079 4.39991 10.8271 3.75904 9.91342 3.38061C8.99979 3.00217 7.99446 2.90315 7.02455 3.09608C6.05465 3.289 5.16373 3.76521 4.46447 4.46447C3.76521 5.16373 3.289 6.05465 3.09608 7.02455C2.90315 7.99446 3.00217 8.99979 3.38061 9.91342C3.75904 10.8271 4.39991 11.6079 5.22215 12.1574C6.0444 12.7068 7.0111 13 8 13V14C6.81331 14 5.65328 13.6481 4.66658 12.9888C3.67989 12.3295 2.91085 11.3925 2.45673 10.2961C2.0026 9.19975 1.88378 7.99335 2.11529 6.82946C2.3468 5.66558 2.91825 4.59648 3.75736 3.75736C4.59648 2.91825 5.66558 2.3468 6.82946 2.11529C7.99335 1.88378 9.19975 2.0026 10.2961 2.45673C11.3925 2.91085 12.3295 3.67989 12.9888 4.66658ZM8 11C7.40666 11 6.82664 10.8241 6.33329 10.4944C5.83994 10.1648 5.45543 9.69623 5.22836 9.14805C5.0013 8.59987 4.94189 7.99667 5.05765 7.41473C5.1734 6.83279 5.45912 6.29824 5.87868 5.87868C6.29824 5.45912 6.83279 5.1734 7.41473 5.05765C7.99667 4.94189 8.59987 5.0013 9.14805 5.22836C9.69623 5.45543 10.1648 5.83994 10.4944 6.33329C10.8241 6.82664 11 7.40666 11 8C10.9991 8.79538 10.6828 9.55794 10.1204 10.1204C9.55794 10.6828 8.79538 10.9991 8 11ZM8 6C7.60444 6 7.21776 6.1173 6.88886 6.33706C6.55996 6.55683 6.30362 6.86918 6.15224 7.23463C6.00087 7.60009 5.96126 8.00222 6.03843 8.39018C6.1156 8.77814 6.30608 9.13451 6.58579 9.41421C6.86549 9.69392 7.22186 9.8844 7.60982 9.96157C7.99778 10.0387 8.39992 9.99914 8.76537 9.84776C9.13082 9.69638 9.44318 9.44004 9.66294 9.11114C9.8827 8.78224 10 8.39556 10 8C9.99941 7.46975 9.7885 6.96139 9.41356 6.58645C9.03861 6.2115 8.53025 6.0006 8 6ZM9 8C9 8.55228 8.55228 9 8 9C7.44772 9 7 8.55228 7 8C7 7.44772 7.44772 7 8 7C8.55228 7 9 7.44772 9 8ZM9.705 12L11 13.295L14.295 10L15 10.705L11 14.705L9 12.705L9.705 12Z" fill="black"/>
</svg>
