<svg width="16" height="16" viewBox="0 0 16 16" fill="none" xmlns="http://www.w3.org/2000/svg">
<path fill-rule="evenodd" clip-rule="evenodd" d="M4.57686 1.4949C5.34144 1.16344 6.16668 0.994895 7 0.99999C7.87392 0.994841 8.7383 1.18178 9.53199 1.5476C10.3257 1.91341 11.0293 2.44916 11.5931 3.11694C12.1568 3.78472 12.567 4.56822 12.7945 5.41202C13.022 6.25583 13.0613 7.13931 12.9097 7.99999H12C11.4746 7.99931 10.9542 8.10247 10.4688 8.30354C9.98342 8.50461 9.54253 8.79963 9.1715 9.17164L7 6.99999V1.99999C6.30108 2.00011 5.60995 2.14675 4.9712 2.43046C4.33245 2.71418 3.76028 3.12865 3.2916 3.64714C2.82293 4.16564 2.46816 4.77663 2.2502 5.44069C2.03223 6.10476 1.95591 6.80714 2.02616 7.50253C2.0964 8.19791 2.31166 8.87084 2.65803 9.4779C3.0044 10.085 3.4742 10.6126 4.0371 11.0269C4.6 11.4412 5.24351 11.7329 5.92609 11.8831C6.60868 12.0333 7.31518 12.0388 8 11.8991V12.9096C7.1792 13.0536 6.33741 13.025 5.52826 12.8257C4.71911 12.6264 3.96035 12.2607 3.30034 11.752C2.64032 11.2432 2.09352 10.6026 1.69477 9.87084C1.29603 9.1391 1.05408 8.33232 0.984358 7.5019C0.914632 6.67149 1.01865 5.83566 1.28979 5.04767C1.56093 4.25968 1.99325 3.53681 2.55919 2.92513C3.12512 2.31344 3.81228 1.82635 4.57686 1.4949ZM14.4944 10.3333C14.8241 10.8266 15 11.4067 15 12C14.9991 12.7954 14.6828 13.5579 14.1204 14.1204C13.5579 14.6828 12.7954 14.9991 12 15C11.4067 15 10.8266 14.8241 10.3333 14.4944C9.83994 14.1648 9.45543 13.6962 9.22836 13.1481C9.0013 12.5999 8.94189 11.9967 9.05765 11.4147C9.1734 10.8328 9.45912 10.2982 9.87868 9.87868C10.2982 9.45912 10.8328 9.1734 11.4147 9.05765C11.9967 8.94189 12.5999 9.0013 13.1481 9.22836C13.6962 9.45543 14.1648 9.83994 14.4944 10.3333ZM13.7166 13.0095C13.9002 12.7047 13.9981 12.3559 14 12C13.9994 11.4698 13.7885 10.9614 13.4136 10.5864C13.0386 10.2115 12.5303 10.0006 12 10C11.6441 10.0019 11.2953 10.0998 10.9905 10.2835L13.7166 13.0095ZM10.2835 10.9905C10.0998 11.2953 10.0019 11.6441 10 12C10.0006 12.5303 10.2115 13.0386 10.5864 13.4136C10.9614 13.7885 11.4698 13.9994 12 14C12.3559 13.9981 12.7047 13.9002 13.0095 13.7166L10.2835 10.9905Z" fill="black"/>
</svg>
