<svg width="16" height="16" viewBox="0 0 16 16" fill="none" xmlns="http://www.w3.org/2000/svg">
<path fill-rule="evenodd" clip-rule="evenodd" d="M7.20008 11.9949C7.96025 11.9644 8.70342 11.7608 9.373 11.3996L8.69695 12.7517C8.14621 12.9157 7.57466 12.9993 7 13C5.77119 13.0007 4.57183 12.6239 3.56423 11.9205C2.55662 11.2172 1.78942 10.2212 1.36646 9.0675C0.94349 7.91378 0.88518 6.65797 1.19941 5.47002C1.51365 4.28207 2.18526 3.21933 3.12335 2.42564C4.06145 1.63194 5.22073 1.1456 6.44432 1.03244C7.66791 0.919283 8.89672 1.18476 9.96446 1.79295C11.0322 2.40115 11.8873 3.32269 12.4141 4.43286C12.9409 5.54303 13.1139 6.78824 12.9097 7.99996H12C11.7213 7.99907 11.448 8.07621 11.2109 8.22266C10.9738 8.3691 10.7825 8.57899 10.6586 8.82856L10.0486 10.0486L7 6.99996V1.99996C6.23922 1.99988 5.48845 2.17342 4.80489 2.50738C4.12132 2.84133 3.52298 3.32688 3.05545 3.92705C2.58791 4.52722 2.26351 5.22617 2.10696 5.97067C1.95041 6.71517 1.96583 7.48558 2.15205 8.22322C2.33827 8.96086 2.69038 9.64627 3.18156 10.2272C3.67274 10.8082 4.29003 11.2694 4.98641 11.5758C5.6828 11.8821 6.43991 12.0255 7.20008 11.9949ZM10.3089 14H13.69L12 10.6179L10.3089 14ZM11.7371 9.07462C11.8161 9.02581 11.9071 8.99997 12 9C12.0929 8.99998 12.1839 9.02582 12.2629 9.07463C12.3419 9.12344 12.4058 9.19329 12.4473 9.27635L14.9607 14.3054C14.9928 14.3814 15.0056 14.4642 14.998 14.5464C14.9903 14.6286 14.9624 14.7076 14.9168 14.7764C14.8712 14.8451 14.8093 14.9016 14.7365 14.9406C14.6638 14.9796 14.5825 15 14.5 15H9.5C9.41478 15 9.33099 14.9781 9.25656 14.9366C9.18214 14.8951 9.11955 14.8353 9.07474 14.7628C9.02993 14.6903 9.00438 14.6076 9.00051 14.5224C8.99665 14.4373 9.0146 14.3526 9.05265 14.2764L11.5527 9.27635C11.5942 9.19328 11.6581 9.12343 11.7371 9.07462Z" fill="black"/>
</svg>
