<svg width="16" height="16" viewBox="0 0 16 16" fill="none" xmlns="http://www.w3.org/2000/svg">
<path fill-rule="evenodd" clip-rule="evenodd" d="M2.75736 11.2426C3.88258 12.3679 5.4087 13 7 13V1C5.4087 1 3.88258 1.63214 2.75736 2.75736C1.63214 3.88258 1 5.4087 1 7C1 8.5913 1.63214 10.1174 2.75736 11.2426ZM10.5339 3.46605C10.0697 3.00212 9.51895 2.63384 8.91285 2.3821L9.2956 1.4585C10.0228 1.76066 10.6836 2.20262 11.2406 2.7593L10.5339 3.46605ZM13 6.99999C13.0003 6.21209 12.8445 5.43194 12.5416 4.70459L11.618 5.08714C11.8704 5.69328 12.0002 6.34341 12 6.99999H13ZM14.4944 10.3333C14.8241 10.8266 15 11.4067 15 12C14.9991 12.7954 14.6828 13.5579 14.1204 14.1204C13.5579 14.6828 12.7954 14.9991 12 15C11.4067 15 10.8266 14.8241 10.3333 14.4944C9.83994 14.1648 9.45542 13.6962 9.22836 13.1481C9.0013 12.5999 8.94189 11.9967 9.05764 11.4147C9.1734 10.8328 9.45912 10.2982 9.87868 9.87868C10.2982 9.45912 10.8328 9.1734 11.4147 9.05765C11.9967 8.94189 12.5999 9.0013 13.1481 9.22836C13.6962 9.45543 14.1648 9.83994 14.4944 10.3333ZM13.7165 13.0095C13.9002 12.7047 13.9981 12.3559 14 12C13.9994 11.4698 13.7885 10.9614 13.4136 10.5864C13.0386 10.2115 12.5303 10.0006 12 10C11.6441 10.0019 11.2953 10.0998 10.9905 10.2835L13.7165 13.0095ZM10.2835 10.9905C10.0998 11.2953 10.0019 11.6441 10 12C10.0006 12.5303 10.2115 13.0386 10.5864 13.4136C10.9614 13.7885 11.4697 13.9994 12 14C12.3559 13.9981 12.7047 13.9002 13.0095 13.7166L10.2835 10.9905Z" fill="black"/>
</svg>
