<svg width="16" height="16" viewBox="0 0 16 16" fill="none" xmlns="http://www.w3.org/2000/svg">
<path fill-rule="evenodd" clip-rule="evenodd" d="M3.05025 3.05025C4.36301 1.7375 6.14348 1 8 1V15C6.14348 15 4.36301 14.2625 3.05025 12.9497C1.7375 11.637 1 9.85652 1 8C1 6.14348 1.7375 4.36301 3.05025 3.05025ZM11.8821 3.42963L12.5246 2.66388C11.9039 2.13851 11.1963 1.72552 10.4336 1.44348L10.0918 2.38228C10.745 2.62457 11.3508 2.979 11.8821 3.42963ZM13.905 6.99998L14.8889 6.79358C14.7506 5.99466 14.4734 5.22614 14.07 4.52283L13.2044 4.99998C13.5499 5.62198 13.7868 6.29834 13.905 6.99998ZM10.4336 14.5565L10.0918 13.6177C10.745 13.3754 11.3508 13.0209 11.8821 12.5703L12.5246 13.3361C11.9039 13.8614 11.1963 14.2744 10.4336 14.5565ZM13.2044 11L14.07 11.5C14.4737 10.7886 14.7508 10.0126 14.8891 9.20641L13.905 9.03296C13.7867 9.72416 13.5497 10.3897 13.2044 11Z" fill="black"/>
</svg>
