<svg width="16" height="16" viewBox="0 0 16 16" fill="none" xmlns="http://www.w3.org/2000/svg">
<path fill-rule="evenodd" clip-rule="evenodd" d="M2.75736 11.2426C3.88258 12.3679 5.4087 13 7 13V1C5.4087 1 3.88258 1.63214 2.75736 2.75736C1.63214 3.88258 1 5.4087 1 7C1 8.5913 1.63214 10.1174 2.75736 11.2426ZM10.534 3.46605C10.0697 3.00212 9.51895 2.63384 8.91285 2.3821L9.2956 1.4585C10.0228 1.76066 10.6836 2.20262 11.2406 2.7593L10.534 3.46605ZM13 6.99999C13.0003 6.21209 12.8445 5.43194 12.5416 4.70459L11.618 5.08714C11.8704 5.69328 12.0002 6.34341 12 6.99999H13ZM10.3089 14H13.69L12 10.6179L10.3089 14ZM11.7371 9.07462C11.8161 9.02581 11.9071 8.99997 12 9C12.0929 8.99998 12.1839 9.02582 12.2629 9.07463C12.3419 9.12344 12.4058 9.19329 12.4473 9.27635L14.9607 14.3054C14.9928 14.3814 15.0056 14.4642 14.998 14.5464C14.9903 14.6286 14.9624 14.7076 14.9168 14.7764C14.8712 14.8451 14.8092 14.9016 14.7365 14.9406C14.6638 14.9796 14.5825 15 14.5 15H9.5C9.41478 15 9.33098 14.9781 9.25656 14.9366C9.18213 14.8951 9.11955 14.8353 9.07474 14.7628C9.02993 14.6903 9.00438 14.6076 9.00051 14.5224C8.99665 14.4373 9.01459 14.3526 9.05265 14.2764L11.5527 9.27635C11.5942 9.19328 11.6581 9.12343 11.7371 9.07462Z" fill="black"/>
</svg>
