<svg width="16" height="16" viewBox="0 0 16 16" fill="none" xmlns="http://www.w3.org/2000/svg">
<path fill-rule="evenodd" clip-rule="evenodd" d="M2.75736 11.2426C3.88258 12.3679 5.4087 13 7 13V1C5.4087 1 3.88258 1.63214 2.75736 2.75736C1.63214 3.88258 1 5.4087 1 7C1 8.5913 1.63214 10.1174 2.75736 11.2426ZM14.295 10L15 10.705L13.205 12.5L15 14.295L14.295 15L12.5 13.205L10.705 15L10 14.295L11.795 12.5L10 10.705L10.705 10L12.5 11.795L14.295 10ZM8.91285 2.3821C9.51894 2.63384 10.0697 3.00212 10.5339 3.46605L11.2406 2.7593C10.6836 2.20262 10.0228 1.76066 9.2956 1.4585L8.91285 2.3821ZM12.5416 4.70459C12.8445 5.43194 13.0003 6.21209 13 6.99999H12C12.0002 6.34341 11.8704 5.69328 11.618 5.08714L12.5416 4.70459Z" fill="black"/>
</svg>
