<svg width="16" height="16" viewBox="0 0 16 16" fill="none" xmlns="http://www.w3.org/2000/svg">
<path fill-rule="evenodd" clip-rule="evenodd" d="M15 1.70705L14.293 1L1.00002 14.2929L1.70707 15L3.42872 13.2783C4.76184 14.4421 6.4872 15.0561 8.25582 14.9962C10.0244 14.9363 11.7043 14.2069 12.9556 12.9556C14.2069 11.7043 14.9363 10.0244 14.9962 8.25579C15.0561 6.48718 14.442 4.76182 13.2783 3.4287L15 1.70705ZM14 8C14.0026 9.14421 13.6772 10.2652 13.0623 11.2302C12.4475 12.1952 11.569 12.9637 10.5309 13.4449C9.4928 13.9261 8.33853 14.0997 7.20481 13.9452C6.07108 13.7906 5.00539 13.3145 4.13392 12.573L7.50002 9.20705V11H6.50002V12H10V11H8.50002V8.20705L12.573 4.13405C13.4941 5.21151 14.0002 6.58248 14 8ZM8.00002 4C7.85168 4 7.70668 4.04399 7.58334 4.1264C7.46 4.20881 7.36387 4.32594 7.30711 4.46299C7.25034 4.60003 7.23549 4.75083 7.26443 4.89632C7.29337 5.0418 7.3648 5.17544 7.46969 5.28033C7.57457 5.38522 7.70821 5.45665 7.8537 5.48559C7.99918 5.51453 8.14998 5.49968 8.28703 5.44291C8.42407 5.38614 8.54121 5.29001 8.62362 5.16668C8.70603 5.04334 8.75002 4.89834 8.75002 4.75C8.75002 4.55109 8.671 4.36032 8.53035 4.21967C8.38969 4.07902 8.19893 4 8.00002 4ZM2.04659 7.24115C1.88012 8.56073 2.15747 9.89819 2.83492 11.0428L2.10802 11.7701C1.24595 10.4272 0.869109 8.82991 1.04008 7.24334C1.21104 5.65678 1.91953 4.17642 3.0479 3.04805C4.17626 1.91969 5.65663 1.21121 7.2432 1.04026C8.82976 0.869297 10.4271 1.24614 11.7699 2.10822L11.0427 2.83507C9.89815 2.15761 8.56069 1.88025 7.24111 2.0467C5.92153 2.21315 4.69484 2.81395 3.75436 3.75442C2.81387 4.6949 2.21306 5.92157 2.04659 7.24115Z" fill="black"/>
</svg>
