<svg width="16" height="16" viewBox="0 0 16 16" fill="none" xmlns="http://www.w3.org/2000/svg">
<path fill-rule="evenodd" clip-rule="evenodd" d="M4.75004 12.5H7.00004V11.5H4.75004C4.03682 11.5011 3.35114 11.2248 2.83787 10.7296C2.32461 10.2344 2.02398 9.55901 1.9995 8.84621C1.97503 8.13342 2.22863 7.43903 2.70672 6.90978C3.18481 6.38053 3.84993 6.05788 4.56154 6.01001L4.97969 5.98176L5.02469 5.56501C5.13579 4.54791 5.63246 3.61207 6.41253 2.95001C7.1926 2.28795 8.19673 1.95002 9.21836 2.00574C10.24 2.06147 11.2014 2.5066 11.9048 3.24958C12.6083 3.99255 13.0002 4.97686 13 6.00001H14C13.9996 4.75578 13.5353 3.55641 12.6978 2.63624C11.8603 1.71606 10.7098 1.1412 9.47115 1.02396C8.23245 0.90673 6.99455 1.25555 5.99931 2.00227C5.00406 2.74899 4.32298 3.83995 4.08914 5.06201C3.16676 5.22676 2.33954 5.731 1.77048 6.47537C1.20142 7.21974 0.93179 8.15025 1.01472 9.08355C1.09764 10.0168 1.52712 10.8852 2.21851 11.5176C2.9099 12.15 3.81306 12.5005 4.75004 12.5ZM15 8H9V9H15V8ZM9 10.5H15V11.5H9V10.5ZM9 13H15V14H9V13Z" fill="black"/>
</svg>
