<svg width="16" height="16" viewBox="0 0 16 16" fill="none" xmlns="http://www.w3.org/2000/svg">
<path fill-rule="evenodd" clip-rule="evenodd" d="M13.5 4.92905V11.071C13.8411 11.1585 14.153 11.3347 14.404 11.5817C14.6551 11.8287 14.8363 12.1377 14.9292 12.4774C15.0222 12.817 15.0237 13.1752 14.9334 13.5157C14.8432 13.8561 14.6645 14.1665 14.4155 14.4155C14.1665 14.6646 13.856 14.8432 13.5156 14.9335C13.1752 15.0237 12.817 15.0223 12.4773 14.9293C12.1377 14.8363 11.8286 14.6551 11.5816 14.4041C11.3347 14.1531 11.1585 13.8412 11.071 13.5H4.929C4.84152 13.8412 4.66535 14.1531 4.41835 14.4041C4.17136 14.6551 3.86234 14.8363 3.52268 14.9293C3.18302 15.0223 2.8248 15.0237 2.4844 14.9335C2.14399 14.8432 1.83352 14.6646 1.58451 14.4155C1.33549 14.1665 1.1568 13.8561 1.06657 13.5157C0.976344 13.1752 0.977792 12.817 1.07077 12.4774C1.16374 12.1377 1.34494 11.8287 1.59596 11.5817C1.84698 11.3347 2.15888 11.1585 2.5 11.071V4.92905C2.15888 4.84157 1.84698 4.66539 1.59596 4.4184C1.34494 4.17141 1.16374 3.86239 1.07077 3.52273C0.977792 3.18306 0.976344 2.82485 1.06657 2.48444C1.1568 2.14404 1.33549 1.83357 1.58451 1.58456C1.83352 1.33554 2.14399 1.15685 2.4844 1.06662C2.8248 0.976392 3.18302 0.977839 3.52268 1.07082C3.86234 1.16379 4.17136 1.34499 4.41835 1.59601C4.66535 1.84702 4.84152 2.15893 4.929 2.50005H11.071C11.1585 2.15893 11.3347 1.84702 11.5816 1.59601C11.8286 1.34499 12.1377 1.16379 12.4773 1.07082C12.817 0.977839 13.1752 0.976392 13.5156 1.06662C13.856 1.15685 14.1665 1.33554 14.4155 1.58456C14.6645 1.83357 14.8432 2.14404 14.9334 2.48444C15.0237 2.82485 15.0222 3.18306 14.9292 3.52273C14.8363 3.86239 14.6551 4.17141 14.404 4.4184C14.153 4.66539 13.8411 4.84157 13.5 4.92905ZM13.5556 2.16858C13.3911 2.0587 13.1978 2.00005 13 2.00005C12.7349 2.00035 12.4807 2.10581 12.2932 2.29328C12.1058 2.48075 12.0003 2.73492 12 3.00005C12 3.19783 12.0586 3.39117 12.1685 3.55562C12.2784 3.72007 12.4346 3.84824 12.6173 3.92393C12.8 3.99962 13.0011 4.01942 13.1951 3.98083C13.3891 3.94225 13.5673 3.84701 13.7071 3.70715C13.847 3.5673 13.9422 3.38912 13.9808 3.19514C14.0194 3.00116 13.9996 2.80009 13.9239 2.61736C13.8482 2.43464 13.72 2.27846 13.5556 2.16858ZM2.16853 2.44448C2.05865 2.60893 2 2.80227 2 3.00005C2.00026 3.26518 2.10571 3.51938 2.29319 3.70686C2.48066 3.89434 2.73486 3.99978 3 4.00005C3.19778 4.00005 3.39112 3.9414 3.55557 3.83152C3.72002 3.72164 3.84819 3.56546 3.92388 3.38273C3.99957 3.20001 4.01937 2.99894 3.98079 2.80496C3.9422 2.61098 3.84696 2.43279 3.70711 2.29294C3.56725 2.15309 3.38907 2.05785 3.19509 2.01926C3.00111 1.98068 2.80004 2.00048 2.61732 2.07617C2.43459 2.15186 2.27841 2.28003 2.16853 2.44448ZM2.44443 13.8315C2.60888 13.9414 2.80222 14 3 14C3.26512 13.9997 3.5193 13.8943 3.70677 13.7068C3.89424 13.5193 3.9997 13.2652 4 13C4 12.8023 3.94135 12.6089 3.83147 12.4445C3.72159 12.28 3.56541 12.1519 3.38268 12.0762C3.19996 12.0005 2.99889 11.9807 2.80491 12.0193C2.61093 12.0578 2.43275 12.1531 2.29289 12.2929C2.15304 12.4328 2.0578 12.611 2.01921 12.805C1.98063 12.9989 2.00043 13.2 2.07612 13.3827C2.15181 13.5655 2.27998 13.7216 2.44443 13.8315ZM4.929 12.5H11.071C11.1605 12.1563 11.3401 11.8426 11.5913 11.5914C11.8425 11.3402 12.1562 11.1606 12.5 11.071V4.92905C12.1562 4.8395 11.8426 4.65986 11.5914 4.40867C11.3402 4.15748 11.1605 3.84382 11.071 3.50005H4.929C4.8394 3.84379 4.65975 4.15743 4.40857 4.40861C4.15738 4.6598 3.84375 4.83945 3.5 4.92905V11.071C3.84377 11.1606 4.15743 11.3402 4.40862 11.5914C4.65982 11.8426 4.83945 12.1563 4.929 12.5ZM12.4444 13.8315C12.6089 13.9414 12.8022 14 13 14C13.2651 13.9997 13.5193 13.8942 13.7067 13.7068C13.8942 13.5193 13.9996 13.2652 14 13C14 12.8023 13.9413 12.6089 13.8315 12.4445C13.7216 12.28 13.5654 12.1519 13.3827 12.0762C13.2 12.0005 12.9989 11.9807 12.8049 12.0193C12.6109 12.0578 12.4327 12.1531 12.2929 12.2929C12.153 12.4328 12.0578 12.611 12.0192 12.805C11.9806 12.9989 12.0004 13.2 12.0761 13.3827C12.1518 13.5655 12.28 13.7216 12.4444 13.8315ZM5.915 8L7.205 6.71L6.5 6L4.5 8L6.5 10L7.21 9.295L5.915 8ZM10.085 8L8.795 9.29L9.5 10L11.5 8L9.5 6L8.79 6.705L10.085 8Z" fill="black"/>
</svg>
