<svg width="16" height="16" viewBox="0 0 16 16" fill="none" xmlns="http://www.w3.org/2000/svg">
<path fill-rule="evenodd" clip-rule="evenodd" d="M5.5 4.5H1V1H5.5V4.5ZM4.5 2H2V3.5H4.5V2ZM5.5 9.5H1V6H5.5V9.5ZM4.5 7H2V8.5H4.5V7ZM1 14.5H5.5V11H1V14.5ZM2 12H4.5V13.5H2V12ZM9 4.5H13.5C13.8978 4.5 14.2794 4.65804 14.5607 4.93934C14.842 5.22064 15 5.60218 15 6V12C15 12.3978 14.842 12.7794 14.5607 13.0607C14.2794 13.342 13.8978 13.5 13.5 13.5H7.5V12.5H13.5C13.6326 12.5 13.7598 12.4473 13.8536 12.3536C13.9473 12.2598 14 12.1326 14 12V6C14 5.86739 13.9473 5.74021 13.8536 5.64645C13.7598 5.55268 13.6326 5.5 13.5 5.5H9L10.705 7.295L10 8L7 5L10 2L10.705 2.705L9 4.5Z" fill="black"/>
</svg>
