<svg width="16" height="16" viewBox="0 0 16 16" fill="none" xmlns="http://www.w3.org/2000/svg">
<path fill-rule="evenodd" clip-rule="evenodd" d="M6 7H12C12.2651 6.99972 12.5193 6.89428 12.7068 6.7068C12.8943 6.51932 12.9997 6.26513 13 6V1H12V6H6V1H5V6C5.00028 6.26513 5.10572 6.51932 5.2932 6.7068C5.48068 6.89428 5.73487 6.99972 6 7ZM2.585 7.99996L1 9.58496L1.7055 10.2945L4 7.99996L1.71 5.70996L1 6.41496L2.585 7.99996ZM13 15H12V10H6V15H5V10C5.00028 9.73487 5.10572 9.48068 5.2932 9.2932C5.48068 9.10572 5.73487 9.00028 6 9H12C12.2651 9.00028 12.5193 9.10572 12.7068 9.2932C12.8943 9.48068 12.9997 9.73487 13 10V15Z" fill="black"/>
</svg>
