<svg width="16" height="16" viewBox="0 0 16 16" fill="none" xmlns="http://www.w3.org/2000/svg">
<path fill-rule="evenodd" clip-rule="evenodd" d="M13.9746 7.5H15V8.5H13.9746C13.8548 9.91182 13.2396 11.2358 12.2377 12.2377C11.2358 13.2396 9.91182 13.8548 8.5 13.9746V15H7.5V13.9746C6.08818 13.8548 4.76421 13.2396 3.76231 12.2377C2.76042 11.2358 2.14517 9.91182 2.0254 8.5H1V7.5H2.0254C2.14517 6.08818 2.76042 4.76421 3.76231 3.76231C4.76421 2.76042 6.08818 2.14517 7.5 2.0254V1H8.5V2.0254C9.91182 2.14517 11.2358 2.76042 12.2377 3.76231C13.2396 4.76421 13.8548 6.08818 13.9746 7.5ZM8.5 11.5V12.9746C9.64688 12.8577 10.7183 12.3487 11.5335 11.5335C12.3486 10.7183 12.8576 9.64688 12.9745 8.5H11.5V7.5H12.9746C12.8577 6.35311 12.3487 5.28166 11.5335 4.46648C10.7183 3.6513 9.64689 3.14231 8.5 3.0254V4.5H7.5V3.0254C6.35311 3.14231 5.28166 3.6513 4.46648 4.46648C3.6513 5.28166 3.14231 6.35311 3.0254 7.5H4.5V8.5H3.0254C3.14231 9.64689 3.6513 10.7183 4.46648 11.5335C5.28166 12.3487 6.35311 12.8577 7.5 12.9746V11.5H8.5ZM6.205 7.29492L7.5 8.58992L10.295 5.79492L11 6.49992L7.5 9.99992L5.5 7.99992L6.205 7.29492Z" fill="black"/>
</svg>
