<svg width="16" height="16" viewBox="0 0 16 16" fill="none" xmlns="http://www.w3.org/2000/svg">
<path fill-rule="evenodd" clip-rule="evenodd" d="M3 7.5H6V6.5H3V2H6V1H3C2.73486 1.00026 2.48066 1.10571 2.29319 1.29319C2.10571 1.48066 2.00026 1.73486 2 2V6.5C2.0003 6.76512 2.10576 7.0193 2.29323 7.20677C2.4807 7.39424 2.73488 7.4997 3 7.5ZM11 2.5H10L9 4.4485L8 2.5H7L8.4525 5L7 7.5H8L9 5.6005L10 7.5H11L9.549 5L11 2.5ZM4.5 14C4.77614 14 5 13.7761 5 13.5C5 13.2239 4.77614 13 4.5 13C4.22386 13 4 13.2239 4 13.5C4 13.7761 4.22386 14 4.5 14ZM1 9V10H3V9H1ZM4 9H6V10H4V9ZM7 9V10H9V9H7ZM10 10V9H12V10H10ZM15 9H13V10H15V9ZM3 15.5H13C13.2651 15.4997 13.5193 15.3943 13.7068 15.2068C13.8943 15.0193 13.9997 14.7651 14 14.5V12.5C13.9997 12.2349 13.8943 11.9807 13.7068 11.7932C13.5193 11.6057 13.2651 11.5003 13 11.5H3C2.73487 11.5003 2.48068 11.6057 2.2932 11.7932C2.10572 11.9807 2.00028 12.2349 2 12.5V14.5C2.00028 14.7651 2.10572 15.0193 2.2932 15.2068C2.48068 15.3943 2.73487 15.4997 3 15.5ZM3 14.5V12.5H13V14.5H3Z" fill="black"/>
</svg>
