<svg width="16" height="16" viewBox="0 0 16 16" fill="none" xmlns="http://www.w3.org/2000/svg">
<path fill-rule="evenodd" clip-rule="evenodd" d="M11.7501 10.4999H11.5001V9.49993H11.7501C12.3312 9.50016 12.8899 9.27542 13.3089 8.87282C13.728 8.47022 13.9749 7.92102 13.998 7.34035C14.021 6.75968 13.8184 6.19264 13.4325 5.75809C13.0467 5.32355 12.5076 5.05525 11.9283 5.00943L11.5206 4.97748L11.4713 4.57148C11.3675 3.72402 10.9572 2.94382 10.3178 2.37799C9.67843 1.81217 8.85413 1.4998 8.00034 1.4998C7.14654 1.4998 6.32224 1.81217 5.68287 2.37799C5.04349 2.94382 4.63321 3.72402 4.52939 4.57148L4.47984 4.97748L4.07209 5.00943C3.49279 5.05524 2.95372 5.32353 2.56787 5.75806C2.18203 6.19258 1.97938 6.7596 2.00239 7.34025C2.02541 7.9209 2.27231 8.4701 2.69134 8.87271C3.11036 9.27533 3.66898 9.50011 4.25009 9.49993H4.50009V10.4999H4.25009C3.4448 10.5003 2.66808 10.2015 2.07059 9.66162C1.4731 9.12171 1.09744 8.37913 1.01647 7.57792C0.935501 6.77671 1.155 5.97398 1.63238 5.32545C2.10976 4.67691 2.81101 4.2288 3.60009 4.06803C3.81315 3.05889 4.3666 2.15364 5.1677 1.50402C5.9688 0.854398 6.96885 0.499878 8.00024 0.499878C9.03163 0.499878 10.0317 0.854398 10.8328 1.50402C11.6339 2.15364 12.1873 3.05889 12.4004 4.06803C13.1894 4.22891 13.8905 4.67709 14.3678 5.32563C14.8451 5.97417 15.0645 6.77687 14.9835 7.57802C14.9025 8.37918 14.5269 9.12171 13.9294 9.66159C13.332 10.2015 12.5553 10.5002 11.7501 10.4999ZM4.5 14C4.77614 14 5 13.7761 5 13.5C5 13.2239 4.77614 13 4.5 13C4.22386 13 4 13.2239 4 13.5C4 13.7761 4.22386 14 4.5 14ZM8.5 11.5H13C13.2651 11.5003 13.5193 11.6058 13.7068 11.7932C13.8942 11.9807 13.9997 12.2349 14 12.5V14.5C13.9997 14.7651 13.8942 15.0193 13.7068 15.2068C13.5193 15.3942 13.2651 15.4997 13 15.5H3C2.73488 15.4997 2.4807 15.3942 2.29323 15.2068C2.10576 15.0193 2.0003 14.7651 2 14.5V12.5C2.0003 12.2349 2.10576 11.9807 2.29323 11.7932C2.4807 11.6058 2.73488 11.5003 3 11.5H7.5V7.915L6.205 9.205L5.5 8.5L8 6L10.5 8.5L9.795 9.205L8.5 7.915V11.5ZM3 14.5H13V12.5H3V14.5Z" fill="black"/>
</svg>
