<svg width="16" height="16" viewBox="0 0 16 16" fill="none" xmlns="http://www.w3.org/2000/svg">
<path fill-rule="evenodd" clip-rule="evenodd" d="M1 3H3V4H1V3ZM4 11.5C4 11.7761 3.77614 12 3.5 12C3.22386 12 3 11.7761 3 11.5C3 11.2239 3.22386 11 3.5 11C3.77614 11 4 11.2239 4 11.5ZM6 3H4V4H6V3ZM7 3H9V4H7V3ZM12 3H10V4H12V3ZM13 3H15V4H13V3ZM14 14H2C1.73487 13.9997 1.48068 13.8943 1.2932 13.7068C1.10572 13.5193 1.00028 13.2651 1 13V10C1.00028 9.73487 1.10572 9.48068 1.2932 9.2932C1.48068 9.10572 1.73487 9.00028 2 9H14C14.2651 9.00028 14.5193 9.10572 14.7068 9.2932C14.8943 9.48068 14.9997 9.73487 15 10V13C14.9997 13.2651 14.8943 13.5193 14.7068 13.7068C14.5193 13.8943 14.2651 13.9997 14 14ZM2 10V13H14V10H2ZM1 6H15V7H1V6Z" fill="black"/>
</svg>
