<svg width="16" height="16" viewBox="0 0 16 16" fill="none" xmlns="http://www.w3.org/2000/svg">
<path fill-rule="evenodd" clip-rule="evenodd" d="M2.5 11.9L7.7 15L8.25 14.15L3 11.05V4.95L8 2L13 4.95V8H14V4.95C14 4.6 13.8 4.3 13.5 4.1L8.5 1.15C8.35 1.05 8.2 1 8 1C7.8 1 7.65 1.05 7.5 1.15L2.5 4.1C2.2 4.25 2 4.6 2 4.95V11.05C2 11.4 2.2 11.7 2.5 11.9ZM10 11.25C10 11.6642 9.66421 12 9.25 12C8.83579 12 8.5 11.6642 8.5 11.25C8.5 10.8358 8.83579 10.5 9.25 10.5C9.66421 10.5 10 10.8358 10 11.25ZM12.5 11.25C12.5 11.6642 12.1642 12 11.75 12C11.3358 12 11 11.6642 11 11.25C11 10.8358 11.3358 10.5 11.75 10.5C12.1642 10.5 12.5 10.8358 12.5 11.25ZM14.25 12C14.6642 12 15 11.6642 15 11.25C15 10.8358 14.6642 10.5 14.25 10.5C13.8358 10.5 13.5 10.8358 13.5 11.25C13.5 11.6642 13.8358 12 14.25 12Z" fill="black"/>
</svg>
