<svg width="16" height="16" viewBox="0 0 16 16" fill="none" xmlns="http://www.w3.org/2000/svg">
<path d="M14.94 7.76L11.94 2.26C11.8968 2.18109 11.8332 2.11529 11.7557 2.06953C11.6783 2.02377 11.5899 1.99975 11.5 2H4.5C4.41005 1.99975 4.32171 2.02377 4.24427 2.06953C4.16683 2.11529 4.10317 2.18109 4.06 2.26L1.06 7.76C1.01611 7.83601 0.993011 7.92223 0.993011 8.01C0.993011 8.09777 1.01611 8.18399 1.06 8.26L4.06 13.76C4.10573 13.8352 4.1705 13.897 4.24776 13.9391C4.32501 13.9812 4.41202 14.0023 4.5 14H11.5C11.5899 14.0002 11.6783 13.9762 11.7557 13.9305C11.8332 13.8847 11.8968 13.8189 11.94 13.74L14.94 8.24C14.9803 8.16641 15.0014 8.08388 15.0014 8C15.0014 7.91612 14.9803 7.83358 14.94 7.76ZM11.465 3.5L13.66 7.5H8.91L11.465 3.5ZM8 7.07L5.41 3H10.59L8 7.07ZM4.535 3.5L7.09 7.5H2.34L4.535 3.5ZM2.34 8.5H7.09L4.535 12.5L2.34 8.5ZM8 8.93L10.59 13H5.41L8 8.93ZM11.465 12.5L8.91 8.5H13.66L11.465 12.5Z" fill="black"/>
</svg>
