<svg width="16" height="16" viewBox="0 0 16 16" fill="none" xmlns="http://www.w3.org/2000/svg">
<path fill-rule="evenodd" clip-rule="evenodd" d="M12 4H14C14.2651 4.0003 14.5193 4.10576 14.7068 4.29323C14.8942 4.4807 14.9997 4.73488 15 5V14C14.9997 14.2651 14.8942 14.5193 14.7068 14.7068C14.5193 14.8942 14.2651 14.9997 14 15H5C4.73488 14.9997 4.4807 14.8942 4.29323 14.7068C4.10576 14.5193 4.0003 14.2651 4 14V12H2C1.73488 11.9997 1.4807 11.8942 1.29323 11.7068C1.10576 11.5193 1.0003 11.2651 1 11V2C1.0003 1.73488 1.10576 1.4807 1.29323 1.29323C1.4807 1.10576 1.73488 1.0003 2 1H11C11.2651 1.0003 11.5193 1.10576 11.7068 1.29323C11.8942 1.4807 11.9997 1.73488 12 2V4ZM5 14H14V5H12V7H11V5H9V4H11V2H2V11H4V9H5V11H7V12H5V14ZM5 7H4V5C4.00029 4.73487 4.10574 4.48069 4.29321 4.29321C4.48069 4.10574 4.73487 4.00029 5 4H7V5H5V7ZM11 12H9V11H11V9H12V11C11.9997 11.2651 11.8943 11.5193 11.7068 11.7068C11.5193 11.8943 11.2651 11.9997 11 12Z" fill="black"/>
</svg>
