<svg width="16" height="16" viewBox="0 0 16 16" fill="none" xmlns="http://www.w3.org/2000/svg">
<path fill-rule="evenodd" clip-rule="evenodd" d="M2 8L8.3 14.3L7.55 15L1.3 8.7C0.9 8.3 0.9 7.65 1.3 7.25L7.3 1.3C7.7 0.9 8.35 0.9 8.75 1.3L15 7.6L14.3 8.3L8 2L2 8ZM12.45 10.45C12.75 10.15 13.1 10 13.5 10C13.9 10 14.3 10.15 14.55 10.45C15.15 11.05 15.15 12 14.55 12.6L12.25 15L9.95 12.6C9.35 12 9.35 11.05 9.95 10.45C10.25 10.15 10.65 10 11 10C11.35 10 11.75 10.15 12.05 10.45L12.25 10.7L12.45 10.45Z" fill="black"/>
</svg>
