<svg width="16" height="16" viewBox="0 0 16 16" fill="none" xmlns="http://www.w3.org/2000/svg">
<path fill-rule="evenodd" clip-rule="evenodd" d="M2 5H12.5C12.7651 4.99972 13.0193 4.89428 13.2068 4.7068C13.3943 4.51932 13.4997 4.26513 13.5 4V2C13.4997 1.73487 13.3943 1.48068 13.2068 1.2932C13.0193 1.10572 12.7651 1.00028 12.5 1H2C1.73487 1.00028 1.48068 1.10572 1.2932 1.2932C1.10572 1.48068 1.00028 1.73487 1 2V4C1.00028 4.26513 1.10572 4.51932 1.2932 4.7068C1.48068 4.89428 1.73487 4.99972 2 5ZM2 4V2H12.5V4H2ZM14.8884 11.7393C14.5795 10.9522 14.0464 10.2732 13.3552 9.78629C12.664 9.29937 11.8451 9.02598 11 9C10.1549 9.02598 9.33603 9.29937 8.64484 9.78629C7.95365 10.2732 7.42052 10.9522 7.11155 11.7393L7 12L7.11155 12.2607C7.42052 13.0478 7.95365 13.7268 8.64484 14.2137C9.33603 14.7006 10.1549 14.974 11 15C11.8451 14.974 12.664 14.7006 13.3552 14.2137C14.0464 13.7268 14.5795 13.0478 14.8884 12.2607L15 12L14.8884 11.7393ZM11 14C10.6044 14 10.2178 13.8827 9.88886 13.6629C9.55996 13.4432 9.30362 13.1308 9.15224 12.7654C9.00087 12.3999 8.96126 11.9978 9.03843 11.6098C9.1156 11.2219 9.30608 10.8655 9.58579 10.5858C9.86549 10.3061 10.2219 10.1156 10.6098 10.0384C10.9978 9.96126 11.3999 10.0009 11.7654 10.1522C12.1308 10.3036 12.4432 10.56 12.6629 10.8889C12.8827 11.2178 13 11.6044 13 12C12.9994 12.5303 12.7885 13.0386 12.4136 13.4136C12.0386 13.7885 11.5303 13.9994 11 14ZM11 12.9436C11.5523 12.9436 12 12.4959 12 11.9436C12 11.3913 11.5523 10.9436 11 10.9436C10.4477 10.9436 10 11.3913 10 11.9436C10 12.4959 10.4477 12.9436 11 12.9436ZM6 14H2V12H6V11H2C1.73488 11.0003 1.4807 11.1058 1.29323 11.2932C1.10576 11.4807 1.0003 11.7349 1 12V14C1.0003 14.2651 1.10576 14.5193 1.29323 14.7068C1.4807 14.8942 1.73488 14.9997 2 15H6V14ZM3.5 6H14C14.2651 6.0003 14.5193 6.10576 14.7068 6.29323C14.8942 6.4807 14.9997 6.73488 15 7V8H14.0003L14 7H3.5V9H6V10H3.5C3.23488 9.9997 2.9807 9.89424 2.79323 9.70677C2.60576 9.5193 2.5003 9.26512 2.5 9V7C2.5003 6.73488 2.60576 6.4807 2.79323 6.29323C2.9807 6.10576 3.23488 6.0003 3.5 6Z" fill="black"/>
</svg>
