<svg width="16" height="16" viewBox="0 0 16 16" fill="none" xmlns="http://www.w3.org/2000/svg">
<path fill-rule="evenodd" clip-rule="evenodd" d="M13 7.5V9.5H15V10.5H13V12C12.9996 12.2651 12.8942 12.5193 12.7067 12.7067C12.5193 12.8942 12.2651 12.9996 12 13H10.5V15H9.5V13H6.5V15H5.5V13H4C3.73488 12.9997 3.4807 12.8942 3.29323 12.7068C3.10576 12.5193 3.0003 12.2651 3 12V10.5H1V9.5H3V6.5H1V5.5H3V4C3.00026 3.73486 3.10571 3.48066 3.29319 3.29319C3.48066 3.10571 3.73486 3.00026 4 3H5.5V1H6.5V3H8.5V3.99955L4 4V12H12V7.5H13ZM11.5864 1.5864C11.9614 1.21145 12.4697 1.00056 13 1C13.5304 1 14.0391 1.21071 14.4142 1.58579C14.7893 1.96086 15 2.46957 15 3C15 3.53043 14.7893 4.03914 14.4142 4.41421C14.0391 4.78929 13.5304 5 13 5C12.6441 4.99812 12.2953 4.90022 11.9904 4.71665L10.5 6.20705V10.5H5.5V5.5H9.79295L11.2834 4.0096C11.0998 3.7047 11.0019 3.3559 11 3C11.0006 2.46974 11.2114 1.96135 11.5864 1.5864ZM6.5 9.5H9.5V6.5H6.5V9.5ZM12.4444 3.83147C12.6089 3.94135 12.8022 4 13 4C13.2651 3.9997 13.5193 3.89424 13.7068 3.70677C13.8942 3.5193 13.9997 3.26512 14 3C14 2.80222 13.9414 2.60888 13.8315 2.44443C13.7216 2.27998 13.5654 2.15181 13.3827 2.07612C13.2 2.00043 12.9989 1.98063 12.8049 2.01921C12.6109 2.0578 12.4327 2.15304 12.2929 2.29289C12.153 2.43275 12.0578 2.61093 12.0192 2.80491C11.9806 2.99889 12.0004 3.19996 12.0761 3.38268C12.1518 3.56541 12.28 3.72159 12.4444 3.83147Z" fill="black"/>
</svg>
