<svg width="16" height="16" viewBox="0 0 16 16" fill="none" xmlns="http://www.w3.org/2000/svg">
<path fill-rule="evenodd" clip-rule="evenodd" d="M15.5 6.5H14.5C14.4985 5.17439 13.9712 3.90352 13.0338 2.96618C12.0965 2.02883 10.8256 1.50155 9.5 1.5V0.5C11.0908 0.501734 12.6159 1.13443 13.7407 2.25927C14.8656 3.38412 15.4983 4.90923 15.5 6.5ZM13 9.5H15V10.5H13V12C12.9996 12.2651 12.8942 12.5193 12.7067 12.7067C12.5193 12.8942 12.2651 12.9996 12 13H10.5V15H9.5V13H6.5V15H5.5V13H4C3.73488 12.9997 3.4807 12.8942 3.29323 12.7068C3.10576 12.5193 3.0003 12.2651 3 12V10.5H1V9.5H3V6.5H1V5.5H3V4C3.00026 3.73486 3.10571 3.48066 3.29319 3.29319C3.48066 3.10571 3.73486 3.00026 4 3H5.5V1H6.5V3H8.5V3.99955L4 4V12H12V7.5H13V9.5ZM5.5 10.5H10.5V5.5H5.5V10.5ZM9.5 9.5H6.5V6.5H9.5V9.5ZM12 6.5H13C12.9989 5.57209 12.6298 4.6825 11.9736 4.02637C11.3175 3.37023 10.4279 3.00112 9.5 3V4C10.1628 4.00078 10.7982 4.26442 11.2669 4.7331C11.7356 5.20177 11.9992 5.8372 12 6.5Z" fill="black"/>
</svg>
