<svg width="16" height="16" viewBox="0 0 16 16" fill="none" xmlns="http://www.w3.org/2000/svg">
<path fill-rule="evenodd" clip-rule="evenodd" d="M2 3H14C14.2652 3 14.5196 3.10536 14.7071 3.29289C14.8946 3.48043 15 3.73478 15 4V12C15 12.2652 14.8946 12.5196 14.7071 12.7071C14.5196 12.8946 14.2652 13 14 13H2C1.73478 13 1.48043 12.8946 1.29289 12.7071C1.10536 12.5196 1 12.2652 1 12V4C1 3.73478 1.10536 3.48043 1.29289 3.29289C1.48043 3.10536 1.73478 3 2 3ZM3 10.5H4V5.5H3V10.5ZM6 6.5H8.5V5.5H6C5.73478 5.5 5.48043 5.60536 5.29289 5.79289C5.10536 5.98043 5 6.23478 5 6.5V7.5C5 7.76522 5.10536 8.01957 5.29289 8.20711C5.48043 8.39464 5.73478 8.5 6 8.5H7.5V9.5H5V10.5H7.5C7.76522 10.5 8.01957 10.3946 8.20711 10.2071C8.39464 10.0196 8.5 9.76522 8.5 9.5V8.5C8.5 8.23478 8.39464 7.98043 8.20711 7.79289C8.01957 7.60536 7.76522 7.5 7.5 7.5H6V6.5ZM12.7071 10.2071C12.8946 10.0196 13 9.76522 13 9.5V6.5C13 6.23478 12.8946 5.98043 12.7071 5.79289C12.5196 5.60536 12.2652 5.5 12 5.5H10.5C10.2348 5.5 9.98043 5.60536 9.79289 5.79289C9.60536 5.98043 9.5 6.23478 9.5 6.5V9.5C9.5 9.76522 9.60536 10.0196 9.79289 10.2071C9.98043 10.3946 10.2348 10.5 10.5 10.5H12C12.2652 10.5 12.5196 10.3946 12.7071 10.2071ZM10.5 6.5H12V9.5H10.5V6.5Z" fill="black"/>
</svg>
