<svg width="16" height="16" viewBox="0 0 16 16" fill="none" xmlns="http://www.w3.org/2000/svg">
<path fill-rule="evenodd" clip-rule="evenodd" d="M8.00001 3.41895C8.63053 3.14247 9.31155 2.99982 10 3C10.7433 2.99991 11.4772 3.16554 12.1484 3.48485C12.8196 3.80416 13.4111 4.26911 13.88 4.84585C14.3488 5.42259 14.6831 6.09662 14.8587 6.81886C15.0342 7.54111 15.0464 8.2934 14.8945 9.02098C14.7427 9.74856 14.4305 10.4331 13.9807 11.0248C13.5309 11.6166 12.9548 12.1005 12.2944 12.4416C11.634 12.7826 10.9058 12.972 10.163 12.9962C9.42008 13.0203 8.68117 12.8785 8.00001 12.581C8.89163 12.1923 9.6504 11.5517 10.1833 10.738C10.7162 9.92425 11 8.9727 11 8C11 7.0273 10.7162 6.07575 10.1833 5.26202C9.6504 4.44829 8.89163 3.80775 8.00001 3.41895ZM5.00001 8C5.00016 7.02734 5.28406 6.07585 5.81693 5.26215C6.34981 4.44844 7.10849 3.80788 8.00001 3.41895C7.23907 3.08616 6.4072 2.94816 5.57956 3.01742C4.75191 3.08668 3.95455 3.36102 3.2595 3.81566C2.56445 4.2703 1.9936 4.89092 1.5985 5.62146C1.20341 6.35201 0.996521 7.16946 0.996521 8C0.996521 8.83054 1.20341 9.648 1.5985 10.3785C1.9936 11.1091 2.56445 11.7297 3.2595 12.1843C3.95455 12.639 4.75191 12.9133 5.57956 12.9826C6.4072 13.0518 7.23907 12.9138 8.00001 12.581C7.10849 12.1921 6.34981 11.5516 5.81693 10.7379C5.28406 9.92415 5.00016 8.97266 5.00001 8ZM8.00002 4.5376C7.39194 4.88828 6.88694 5.39292 6.53582 6.00075C6.1847 6.60857 5.99984 7.29815 5.99984 8.0001C5.99984 8.70205 6.1847 9.39162 6.53582 9.99945C6.88694 10.6073 7.39194 11.1119 8.00002 11.4626C8.60809 11.1119 9.11309 10.6073 9.46421 9.99945C9.81533 9.39162 10.0002 8.70205 10.0002 8.0001C10.0002 7.29815 9.81533 6.60857 9.46421 6.00075C9.11309 5.39292 8.60809 4.88828 8.00002 4.5376Z" fill="black"/>
</svg>
