<svg width="16" height="16" viewBox="0 0 16 16" fill="none" xmlns="http://www.w3.org/2000/svg">
<path d="M10 3C9.31138 3.00016 8.6303 3.1435 8.00002 3.4209C7.23912 3.08765 6.40717 2.94925 5.57936 3.0182C4.75155 3.08715 3.95397 3.36128 3.25869 3.81581C2.5634 4.27035 1.99233 4.89096 1.59708 5.62158C1.20182 6.35219 0.994843 7.16977 0.994843 8.00045C0.994843 8.83112 1.20182 9.64871 1.59708 10.3793C1.99233 11.1099 2.5634 11.7306 3.25869 12.1851C3.95397 12.6396 4.75155 12.9137 5.57936 12.9827C6.40717 13.0516 7.23912 12.9132 8.00002 12.58C8.68112 12.8775 9.42 13.0194 10.1629 12.9954C10.9057 12.9713 11.6339 12.7819 12.2943 12.441C12.9548 12.1 13.5309 11.6161 13.9807 11.0244C14.4305 10.4327 14.7427 9.74818 14.8946 9.02061C15.0465 8.29304 15.0343 7.54075 14.8587 6.81852C14.6832 6.09628 14.3489 5.42227 13.88 4.84556C13.4112 4.26884 12.8196 3.80393 12.1484 3.48467C11.4772 3.16541 10.7433 2.99984 10 3ZM6.00002 12C5.43626 12.0019 4.87846 11.8847 4.36319 11.6559C3.84793 11.4272 3.38684 11.0921 3.01016 10.6727C2.63347 10.2532 2.34971 9.75888 2.17748 9.22208C2.00524 8.68527 1.94842 8.11812 2.01075 7.55782C2.07307 6.99751 2.25313 6.45671 2.53912 5.97088C2.82511 5.48504 3.21056 5.06515 3.67021 4.73873C4.12986 4.41231 4.65331 4.18674 5.20625 4.07681C5.75919 3.96688 6.32912 3.97507 6.87867 4.10085C6.29263 4.56792 5.8194 5.16107 5.49415 5.83621C5.16891 6.51134 5 7.2511 5 8.0005C5 8.7499 5.16891 9.48966 5.49415 10.1648C5.8194 10.8399 6.29263 11.4331 6.87867 11.9001C6.59038 11.9658 6.29569 11.9993 6.00002 12ZM10 12C9.70434 11.9993 9.40965 11.9657 9.12137 11.9C9.7074 11.4329 10.1806 10.8398 10.5059 10.1646C10.8311 9.48951 11 8.74975 11 8.00035C11 7.25095 10.8311 6.51119 10.5059 5.83606C10.1806 5.16092 9.7074 4.56777 9.12137 4.1007C9.67006 3.977 10.2387 3.97045 10.7901 4.08148C11.3415 4.19251 11.8632 4.41861 12.3213 4.74503C12.7794 5.07145 13.1634 5.49083 13.4483 5.97578C13.7333 6.46073 13.9127 7.00034 13.9749 7.55936C14.037 8.11837 13.9806 8.68422 13.8092 9.21993C13.6378 9.75564 13.3553 10.2492 12.9801 10.6683C12.605 11.0873 12.1457 11.4226 11.6322 11.6521C11.1186 11.8815 10.5625 12.0001 10 12Z" fill="black"/>
</svg>
