<svg width="16" height="16" viewBox="0 0 16 16" fill="none" xmlns="http://www.w3.org/2000/svg">
<path fill-rule="evenodd" clip-rule="evenodd" d="M8.00002 3.41895C8.63053 3.14247 9.31155 2.99982 10 3C10.7433 2.99991 11.4772 3.16554 12.1484 3.48485C12.8196 3.80416 13.4111 4.26911 13.88 4.84585C14.3488 5.42259 14.6831 6.09662 14.8587 6.81886C15.0342 7.54111 15.0464 8.2934 14.8945 9.02098C14.7427 9.74856 14.4305 10.4331 13.9807 11.0248C13.5309 11.6166 12.9548 12.1005 12.2944 12.4416C11.634 12.7826 10.9058 12.972 10.163 12.9962C9.42008 13.0203 8.68117 12.8785 8.00002 12.581C8.89163 12.1923 9.6504 11.5517 10.1833 10.738C10.7162 9.92425 11 8.9727 11 8C11 7.0273 10.7162 6.07575 10.1833 5.26202C9.6504 4.44829 8.89163 3.80775 8.00002 3.41895ZM5.81693 5.26215C5.28406 6.07585 5.00016 7.02734 5.00001 8C5.00016 8.97266 5.28406 9.92415 5.81693 10.7379C6.34981 11.5516 7.10849 12.1921 8.00001 12.581C7.23907 12.9138 6.4072 13.0518 5.57956 12.9826C4.75191 12.9133 3.95455 12.639 3.2595 12.1843C2.56445 11.7297 1.9936 11.1091 1.5985 10.3785C1.20341 9.648 0.996521 8.83054 0.996521 8C0.996521 7.16946 1.20341 6.35201 1.5985 5.62146C1.9936 4.89092 2.56445 4.2703 3.2595 3.81566C3.95455 3.36102 4.75191 3.08668 5.57956 3.01742C6.4072 2.94816 7.23907 3.08616 8.00001 3.41895C7.10849 3.80788 6.34981 4.44844 5.81693 5.26215Z" fill="black"/>
</svg>
