<svg width="16" height="16" viewBox="0 0 16 16" fill="none" xmlns="http://www.w3.org/2000/svg">
<path fill-rule="evenodd" clip-rule="evenodd" d="M4.36435 11.6553C4.8792 11.8841 5.43659 12.0015 6 12C6.29467 11.9992 6.58834 11.9657 6.87563 11.9002C6.29018 11.4328 5.81755 10.8394 5.49284 10.1643C5.16809 9.48902 4.99964 8.74929 5 8.00001C4.99964 7.25073 5.16809 6.511 5.49284 5.83575C5.8176 5.16051 6.2903 4.5671 6.87585 4.09961C7.76231 4.29796 8.55476 4.79236 9.12264 5.50135C9.69052 6.21034 9.99995 7.09163 9.99995 8.00001C9.99995 8.90839 9.69052 9.78967 9.12264 10.4987C8.55481 11.2076 7.76244 11.702 6.87608 11.9004C7.21862 12.1754 7.59599 12.404 7.9984 12.5802C7.23743 12.9133 6.40545 13.0516 5.57763 12.9826C4.74981 12.9135 3.95223 12.6393 3.25696 12.1847C2.56169 11.7301 1.99064 11.1095 1.5954 10.3788C1.20016 9.64818 0.993195 8.83058 0.993195 7.99988C0.993195 7.16918 1.20016 6.35157 1.5954 5.62093C1.99064 4.89028 2.56169 4.26962 3.25696 3.81502C3.95223 3.36043 4.74981 3.08622 5.57763 3.01718C6.40545 2.94814 7.23743 3.08644 7.9984 3.41958C7.5959 3.59581 7.21845 3.82446 6.87585 4.09958C6.32647 3.97464 5.75688 3.96718 5.20441 4.07767C4.65194 4.18816 4.12904 4.41412 3.66996 4.74074C3.21089 5.06737 2.82599 5.48729 2.54048 5.973C2.25497 6.45872 2.07529 6.99927 2.01321 7.55925C1.95113 8.11923 2.00805 8.68601 2.18024 9.22247C2.35243 9.75892 2.636 10.253 3.01239 10.6722C3.38878 11.0914 3.84949 11.4264 4.36435 11.6553ZM10 3C9.31093 2.99977 8.62933 3.14269 7.9984 3.4197C8.89036 3.80798 9.64954 4.44824 10.1828 5.2619C10.716 6.07555 11 7.02719 11 8C11 8.97281 10.716 9.92445 10.1828 10.7381C9.64954 11.5518 8.89036 12.192 7.9984 12.5803C8.67952 12.878 9.41846 13.0201 10.1614 12.9962C10.9044 12.9723 11.6327 12.7831 12.2933 12.4422C12.9539 12.1013 13.5301 11.6174 13.9801 11.0257C14.4301 10.4341 14.7424 9.74948 14.8945 9.02184C15.0465 8.2942 15.0343 7.54182 14.8589 6.81947C14.6835 6.09713 14.3491 5.42299 13.8803 4.84615C13.4114 4.2693 12.8199 3.80427 12.1486 3.48491C11.4774 3.16555 10.7433 2.99989 10 3Z" fill="black"/>
</svg>
