<svg width="16" height="16" viewBox="0 0 16 16" fill="none" xmlns="http://www.w3.org/2000/svg">
<path fill-rule="evenodd" clip-rule="evenodd" d="M2 11.5H4C4.26522 11.5 4.51957 11.3946 4.70711 11.2071C4.89464 11.0196 5 10.7652 5 10.5V4.5H4V10.5H2V9.5H1V10.5C1 10.7652 1.10536 11.0196 1.29289 11.2071C1.48043 11.3946 1.73478 11.5 2 11.5ZM7 11.5H6V4.5H9C9.26522 4.5 9.51957 4.60536 9.70711 4.79289C9.89464 4.98043 10 5.23478 10 5.5V8C10 8.26522 9.89464 8.51957 9.70711 8.70711C9.51957 8.89464 9.26522 9 9 9H7V11.5ZM7 8H9V5.5H7V8ZM15 11.5H12C11.7348 11.5 11.4804 11.3946 11.2929 11.2071C11.1054 11.0196 11 10.7652 11 10.5V5.5C11 5.23478 11.1054 4.98043 11.2929 4.79289C11.4804 4.60536 11.7348 4.5 12 4.5H15V5.5H12V10.5H14V8.5H13V7.5H15V11.5Z" fill="black"/>
</svg>
