<svg width="16" height="16" viewBox="0 0 16 16" fill="none" xmlns="http://www.w3.org/2000/svg">
<path fill-rule="evenodd" clip-rule="evenodd" d="M1.5 7H2.5V3H3.5V7.16675C3.49976 7.38767 3.4119 7.59947 3.25568 7.75568C3.09947 7.9119 2.88767 7.99976 2.66675 8H1.33325C1.11234 7.99975 0.900541 7.91188 0.744331 7.75567C0.588121 7.59946 0.500251 7.38766 0.5 7.16675V6H1.5V7ZM14.5 6L13.5 3H12.5V8H13.5V5L14.5 8H15.5V3H14.5V6ZM2 10V11H4.293L1 14.293L1.707 15L5 11.707V14H6V10H2ZM9.33325 3H10.6667C10.8877 3.00024 11.0995 3.0881 11.2557 3.24432C11.4119 3.40053 11.4998 3.61233 11.5 3.83325V7.16675C11.4998 7.38767 11.4119 7.59947 11.2557 7.75568C11.0995 7.9119 10.8877 7.99976 10.6667 8H9.33325C9.11234 7.99975 8.90054 7.91188 8.74433 7.75567C8.58812 7.59946 8.50025 7.38766 8.5 7.16675V3.83325C8.50024 3.61233 8.5881 3.40053 8.74432 3.24432C8.90053 3.0881 9.11233 3.00024 9.33325 3ZM9.5 7H10.5V4H9.5V7ZM4.5 3.83325V5C4.50026 5.26514 4.60571 5.51934 4.79319 5.70681C4.98066 5.89429 5.23486 5.99974 5.5 6H6.5V7H4.5V8H6.66675C6.88767 7.99976 7.09947 7.9119 7.25568 7.75568C7.4119 7.59947 7.49976 7.38767 7.5 7.16675V6C7.49974 5.73486 7.39429 5.48066 7.20681 5.29319C7.01934 5.10571 6.76514 5.00026 6.5 5H5.5V4H7.5V3H5.33325C5.11233 3.00024 4.90053 3.0881 4.74432 3.24432C4.5881 3.40053 4.50024 3.61233 4.5 3.83325Z" fill="black"/>
</svg>
