<svg width="16" height="16" viewBox="0 0 16 16" fill="none" xmlns="http://www.w3.org/2000/svg">
<path fill-rule="evenodd" clip-rule="evenodd" d="M1.33325 10.5H2.66675C2.88766 10.4997 3.09946 10.4119 3.25567 10.2557C3.41188 10.0995 3.49975 9.88766 3.5 9.66675V5.5H2.5V9.5H1.5V8.5H0.5V9.66675C0.500251 9.88766 0.588121 10.0995 0.744331 10.2557C0.900541 10.4119 1.11234 10.4997 1.33325 10.5ZM6.66675 10.5H4.5V9.5H6.5V8.5H5.5C5.23486 8.49974 4.98066 8.39429 4.79319 8.20681C4.60571 8.01934 4.50026 7.76514 4.5 7.5V6.33325C4.50025 6.11234 4.58812 5.90054 4.74433 5.74433C4.90054 5.58812 5.11234 5.50025 5.33325 5.5H7.5V6.5H5.5V7.5H6.5C6.76514 7.50026 7.01934 7.60571 7.20681 7.79319C7.39429 7.98066 7.49974 8.23486 7.5 8.5V9.66675C7.49975 9.88766 7.41188 10.0995 7.25567 10.2557C7.09946 10.4119 6.88766 10.4997 6.66675 10.5ZM9.33325 10.5H10.6667C10.8877 10.4997 11.0995 10.4119 11.2557 10.2557C11.4119 10.0995 11.4997 9.88766 11.5 9.66675V6.33325C11.4997 6.11234 11.4119 5.90054 11.2557 5.74433C11.0995 5.58812 10.8877 5.50025 10.6667 5.5H9.33325C9.11234 5.50025 8.90054 5.58812 8.74433 5.74433C8.58812 5.90054 8.50025 6.11234 8.5 6.33325V9.66675C8.50025 9.88766 8.58812 10.0995 8.74433 10.2557C8.90054 10.4119 9.11234 10.4997 9.33325 10.5ZM10.5 9.5H9.5V6.5H10.5V9.5ZM15.5 10.5V5.5H14.5V8.5L13.5 5.5H12.5V10.5H13.5V7.5L14.5 10.5H15.5Z" fill="black"/>
</svg>
