<svg width="16" height="16" viewBox="0 0 16 16" fill="none" xmlns="http://www.w3.org/2000/svg">
<path fill-rule="evenodd" clip-rule="evenodd" d="M11.11 4.46879C11.4848 4.82274 11.9847 5.01374 12.5 4.99998C13.0154 5.01374 13.5152 4.82274 13.89 4.46879C14.2649 4.11484 14.4842 3.62679 14.5 3.11148C14.4888 2.73392 14.37 2.3674 14.1577 2.05498L12.9146 0.207034C12.8663 0.142737 12.8036 0.0905642 12.7316 0.0546339C12.6596 0.0187035 12.5803 0 12.4998 0C12.4194 0 12.34 0.0187035 12.268 0.0546339C12.196 0.0905642 12.1334 0.142737 12.085 0.207034L10.8267 2.07953C10.6226 2.38582 10.5094 2.74358 10.5 3.11148C10.5158 3.62679 10.7351 4.11484 11.11 4.46879ZM11.6719 2.61283L12.5 1.38158L13.3125 2.58818C13.4237 2.74113 13.4888 2.92272 13.5 3.11148C13.471 3.35632 13.3532 3.582 13.1689 3.74575C12.9845 3.90951 12.7466 3.99996 12.5 3.99996C12.2535 3.99996 12.0155 3.90951 11.8312 3.74575C11.6469 3.582 11.529 3.35632 11.5 3.11148C11.5088 2.93232 11.5685 2.75937 11.6719 2.61283ZM14.0854 5.49885C14.5352 6.24089 14.8429 7.06026 14.9927 7.915H14.9929C15.0091 8.00913 14.998 8.10595 14.961 8.19399C14.9239 8.28203 14.8624 8.35761 14.7837 8.41179C14.7051 8.46597 14.6125 8.49647 14.517 8.4997C14.4216 8.50293 14.3272 8.47874 14.245 8.43C13.8776 8.17467 13.4467 8.02586 13 8C12.5754 8.01028 12.1608 8.13158 11.7976 8.35182C11.4344 8.57206 11.1352 8.88357 10.9297 9.25535C10.8855 9.3299 10.8226 9.39165 10.7472 9.43454C10.6719 9.47743 10.5867 9.49999 10.5 9.49999C10.4133 9.49999 10.3281 9.47743 10.2528 9.43454C10.1775 9.39165 10.1146 9.3299 10.0703 9.25535C9.90264 8.96085 9.67706 8.70336 9.40719 8.49839C9.13731 8.29343 8.82872 8.14523 8.50002 8.06275V12.75C8.50002 13.3467 8.26297 13.919 7.84101 14.341C7.41905 14.7629 6.84676 15 6.25002 15C5.65328 15 5.08099 14.7629 4.65903 14.341C4.23707 13.919 4.00002 13.3467 4.00002 12.75V12.5H5.00002V12.75C5.00002 13.0815 5.13172 13.3995 5.36614 13.6339C5.60056 13.8683 5.9185 14 6.25002 14C6.58154 14 6.89948 13.8683 7.1339 13.6339C7.36832 13.3995 7.50002 13.0815 7.50002 12.75V8.06275C7.17132 8.14523 6.86273 8.29343 6.59285 8.49839C6.32298 8.70336 6.0974 8.96085 5.92972 9.25535C5.88207 9.32542 5.818 9.38278 5.74311 9.42241C5.66821 9.46205 5.58476 9.48278 5.50002 9.48278C5.41528 9.48278 5.33183 9.46205 5.25693 9.42241C5.18204 9.38278 5.11797 9.32542 5.07032 9.25535C4.86487 8.88357 4.56566 8.57206 4.20244 8.35182C3.83922 8.13158 3.42467 8.01028 3.00002 8C2.55332 8.02586 2.12246 8.17467 1.75502 8.43C1.67287 8.4787 1.57849 8.50285 1.48305 8.4996C1.3876 8.49635 1.29509 8.46583 1.21644 8.41166C1.13779 8.35749 1.0763 8.28193 1.03924 8.19392C1.00218 8.1059 0.991106 8.00911 1.00732 7.915C1.28846 6.35446 2.07755 4.93062 3.2518 3.86505C4.42605 2.79948 5.9196 2.15194 7.50002 2.0232V1H8.50002V2.2007C8.86914 2.49833 9.20681 2.833 9.50772 3.19945C10.4987 4.47728 11.0347 6.04943 11.0305 7.6665C11.5971 7.2361 12.2885 7.00212 13 7C13.2543 7.00006 13.5072 7.03598 13.7515 7.1067C13.6112 6.72075 13.4319 6.35011 13.2165 6.0005L14.0854 5.49885ZM3.00002 7C3.71152 7.00212 4.40295 7.2361 4.96952 7.6665C4.9653 6.04942 5.50125 4.47724 6.49232 3.19945C5.52199 3.45963 4.6291 3.95094 3.89002 4.63138C3.15094 5.31182 2.58765 6.16113 2.24832 7.1067C2.49262 7.03596 2.74568 7.00004 3.00002 7ZM5.97182 7.71535C6.54814 7.25548 7.26272 7.00344 8.00002 7C8.73639 7.00339 9.45015 7.25478 10.0261 7.7136C10.0045 6.60155 9.71537 4.4656 8.00002 3.1272C6.27627 4.47035 5.99072 6.60535 5.97182 7.71535Z" fill="black"/>
</svg>
