<svg width="16" height="16" viewBox="0 0 16 16" fill="none" xmlns="http://www.w3.org/2000/svg">
<path fill-rule="evenodd" clip-rule="evenodd" d="M14 13C14.2652 13 14.5196 12.8946 14.7071 12.7071C14.8946 12.5196 15 12.2652 15 12V5C15 4.73478 14.8946 4.48043 14.7071 4.29289C14.5196 4.10536 14.2652 4 14 4H2C1.73478 4 1.48043 4.10536 1.29289 4.29289C1.10536 4.48043 1 4.73478 1 5V12C1 12.2652 1.10536 12.5196 1.29289 12.7071C1.48043 12.8946 1.73478 13 2 13H14ZM2 12V5H14V12H2ZM5 10H10.5V11H5V10ZM4 6H3V7H4V6ZM5 6H6V7H5V6ZM8 6H7V7H8V6ZM9 6H10V7H9V6ZM4 10H3V11H4V10ZM3 8H4V9H3V8ZM6 8H5V9H6V8ZM7 8H8V9H7V8ZM13 6H11V7H13V6ZM11 8H13V9H11V8ZM10 8H9V9H10V8ZM11.5 10H13V11H11.5V10Z" fill="black"/>
</svg>
