<svg width="16" height="16" viewBox="0 0 16 16" fill="none" xmlns="http://www.w3.org/2000/svg">
<path fill-rule="evenodd" clip-rule="evenodd" d="M1.7 1L15 14.3L14.3 15L12.3 13H2C1.45 13 1 12.55 1 12V5C1 4.45 1.45 4 2 4H3.3L1 1.7L1.7 1ZM2 5V12H11.3L10.3 11H5V10H9.3L8.3 9H7V8H7.3L6.3 7H5V6H5.3L4.3 5H2ZM7.1001 5H14.0001V11.5H15.0001V5C15.0001 4.45 14.5501 4 14.0001 4H6.1001L7.1001 5ZM4 6H3V7H4V6ZM10 6H9V7H10V6ZM3 10H4V11H3V10ZM4 8H3V9H4V8ZM5 8H6V9H5V8ZM13 6H11V7H13V6ZM11 8H13V9H11V8Z" fill="black"/>
</svg>
