<svg width="16" height="16" viewBox="0 0 16 16" fill="none" xmlns="http://www.w3.org/2000/svg">
<path d="M14.6113 8.98195L12.9597 8.605C13.1096 7.44528 12.8391 6.27023 12.1972 5.29275L13.4672 4.28005L12.8437 3.49805L11.5741 4.51025C10.7561 3.66891 9.6675 3.14311 8.49998 3.0254V1.5H7.49998V3.0254C6.33243 3.14315 5.24385 3.66901 4.42588 4.5104L3.15623 3.49805L2.53268 4.28L3.80268 5.2927C3.16084 6.2702 2.89037 7.44527 3.04028 8.605L1.38863 8.9822L1.61133 9.9568L3.25998 9.5803C3.6352 10.696 4.39071 11.6443 5.39438 12.2593L4.72938 13.6409L5.63028 14.0747L6.29498 12.6941C7.39519 13.102 8.60516 13.102 9.70538 12.6941L10.37 14.0747L11.2709 13.6406L10.6059 12.2593C11.6095 11.6443 12.3651 10.696 12.7403 9.5803L14.3889 9.95655L14.6113 8.98195ZM12 8C12 8.12865 11.9926 8.2556 11.9807 8.38135L9.48068 7.81055C9.46801 7.70942 9.44496 7.60986 9.41188 7.51345L11.41 5.92C11.7953 6.54539 11.9995 7.26543 12 8ZM7.49998 8C7.49998 7.90111 7.5293 7.80444 7.58424 7.72221C7.63918 7.63999 7.71727 7.5759 7.80864 7.53806C7.9 7.50022 8.00053 7.49031 8.09752 7.50961C8.19451 7.5289 8.28361 7.57652 8.35353 7.64645C8.42346 7.71637 8.47108 7.80546 8.49037 7.90245C8.50966 7.99945 8.49976 8.09998 8.46192 8.19134C8.42407 8.2827 8.35999 8.36079 8.27776 8.41574C8.19554 8.47068 8.09887 8.5 7.99998 8.5C7.86741 8.49988 7.7403 8.44716 7.64656 8.35342C7.55281 8.25968 7.5001 8.13257 7.49998 8ZM10.7879 5.1372L8.78998 6.73045C8.69854 6.67408 8.60132 6.62768 8.49998 6.59205V4.03465C9.36238 4.14303 10.1658 4.53018 10.7879 5.1372ZM7.49998 4.03465V6.59205C7.39864 6.62768 7.30142 6.67408 7.20998 6.73045L5.21218 5.1372C5.83426 4.5302 6.63761 4.14305 7.49998 4.03465ZM3.99998 8C4.00041 7.26543 4.20465 6.54539 4.58998 5.92L6.58808 7.5133C6.555 7.60971 6.53194 7.70927 6.51928 7.8104L4.01928 8.3812C4.00738 8.2556 3.99998 8.12865 3.99998 8ZM4.24173 9.3562L6.72933 8.7881C6.78811 8.88505 6.85765 8.97505 6.93663 9.0564L5.82968 11.355C5.09703 10.8792 4.53953 10.1775 4.24173 9.3562ZM7.99998 12C7.56806 11.9993 7.13913 11.9284 6.72998 11.79L7.84028 9.48385C7.89319 9.49208 7.94649 9.49747 7.99998 9.5C8.05339 9.49748 8.10664 9.49211 8.15948 9.4839L9.26998 11.79C8.86086 11.9285 8.43191 11.9994 7.99998 12ZM10.1703 11.355L9.06333 9.0562C9.1423 8.97485 9.21184 8.88485 9.27063 8.7879L11.7582 9.356C11.4605 10.1773 10.903 10.8792 10.1703 11.355Z" fill="black"/>
</svg>
