<svg width="16" height="16" viewBox="0 0 16 16" fill="none" xmlns="http://www.w3.org/2000/svg">
<path d="M14.8123 1.10966C14.7358 1.0485 14.643 1.01113 14.5455 1.00219C14.448 0.993246 14.35 1.01312 14.2637 1.05936L8.96765 3.90001L1.683 1.03471C1.59066 0.998356 1.48959 0.990304 1.39266 1.01158C1.29573 1.03285 1.20732 1.08249 1.13869 1.15417C1.07006 1.22585 1.02432 1.31633 1.00727 1.4141C0.990234 1.51186 1.00267 1.61248 1.043 1.70316L4.26065 8.94266C3.9715 9.16895 3.75087 9.47111 3.62336 9.81543C3.49585 10.1598 3.46647 10.5327 3.5385 10.8928C3.61053 11.2528 3.78113 11.5858 4.03129 11.8546C4.28145 12.1233 4.60134 12.3174 4.9553 12.415C4.85981 12.863 4.61363 13.2647 4.25781 13.5531C3.90199 13.8416 3.45804 13.9993 3 14H2V15H3C3.71867 14.9987 4.41303 14.7396 4.95692 14.2699C5.50081 13.8001 5.85815 13.1508 5.964 12.44C6.31554 12.3548 6.63742 12.1759 6.89538 11.9223C7.15335 11.6688 7.33776 11.35 7.429 11H11.62C11.8386 11 12.0512 10.9284 12.2252 10.7961C12.3993 10.6639 12.5252 10.4782 12.5837 10.2676L14.9817 1.63381C15.0079 1.53945 15.0058 1.43947 14.9757 1.34629C14.9455 1.25311 14.8887 1.17083 14.8123 1.10966ZM5.5 11.5C5.30222 11.5 5.10888 11.4414 4.94443 11.3315C4.77998 11.2216 4.65181 11.0654 4.57612 10.8827C4.50043 10.7 4.48063 10.4989 4.51922 10.3049C4.5578 10.1109 4.65304 9.93275 4.7929 9.7929C4.93275 9.65305 5.11093 9.55781 5.30491 9.51922C5.49889 9.48064 5.69996 9.50044 5.88269 9.57613C6.06541 9.65182 6.22159 9.77999 6.33147 9.94444C6.44135 10.1089 6.5 10.3022 6.5 10.5C6.49967 10.7651 6.39421 11.0193 6.20674 11.2067C6.01928 11.3942 5.76512 11.4997 5.5 11.5ZM11.62 10H7.42895C7.31368 9.51235 7.01497 9.08785 6.59487 8.81469C6.17477 8.54154 5.66559 8.44073 5.1731 8.53321L2.4525 2.41191L9.03235 5.00001L13.705 2.49391L11.62 10Z" fill="black"/>
</svg>
