<svg width="16" height="16" viewBox="0 0 16 16" fill="none" xmlns="http://www.w3.org/2000/svg">
<path d="M9.99999 0.999991H5.99999C4.89828 0.998253 3.82693 1.36101 2.95292 2.03174C2.0789 2.70247 1.45131 3.64348 1.16796 4.70814C0.884598 5.77279 0.96139 6.90127 1.38636 7.91773C1.81134 8.93418 2.56062 9.7815 3.51744 10.3276C3.51244 10.3852 3.49999 10.4409 3.49999 10.5C3.50145 10.934 3.6443 11.3557 3.90689 11.7012C4.16949 12.0468 4.53754 12.2974 4.95529 12.415C4.85981 12.863 4.61362 13.2647 4.2578 13.5531C3.90198 13.8415 3.45803 13.9993 2.99999 14H1.99999V15H2.99999C3.71866 14.9987 4.41302 14.7396 4.95691 14.2699C5.5008 13.8001 5.85814 13.1508 5.96399 12.44C6.31566 12.3551 6.63768 12.1763 6.89569 11.9226C7.1537 11.669 7.33802 11.3501 7.42899 11H9.99999C11.3261 11 12.5978 10.4732 13.5355 9.53552C14.4732 8.59784 15 7.32607 15 5.99999C15 4.67391 14.4732 3.40214 13.5355 2.46446C12.5978 1.52678 11.3261 0.999991 9.99999 0.999991ZM5.49999 11.5C5.30221 11.5 5.10887 11.4413 4.94442 11.3315C4.77997 11.2216 4.6518 11.0654 4.57611 10.8827C4.50043 10.6999 4.48062 10.4989 4.51921 10.3049C4.55779 10.1109 4.65303 9.93274 4.79289 9.79288C4.93274 9.65303 5.11092 9.55779 5.3049 9.51921C5.49888 9.48062 5.69995 9.50042 5.88268 9.57611C6.0654 9.6518 6.22158 9.77997 6.33146 9.94442C6.44134 10.1089 6.49999 10.3022 6.49999 10.5C6.49966 10.7651 6.3942 11.0193 6.20673 11.2067C6.01927 11.3942 5.76511 11.4997 5.49999 11.5ZM9.99999 9.99999H7.42894C7.33428 9.62868 7.13454 9.29255 6.85366 9.03189C6.57277 8.77124 6.22268 8.59713 5.84534 8.53044C5.46799 8.46375 5.07943 8.50731 4.72622 8.65589C4.37301 8.80447 4.07014 9.05177 3.85394 9.36814C3.12308 8.90435 2.56262 8.21573 2.25691 7.40591C1.95121 6.59609 1.91679 5.70889 2.15885 4.87782C2.40091 4.04676 2.90634 3.31679 3.59908 2.79778C4.29182 2.27877 5.13439 1.99879 5.99999 1.99999H9.99999C11.0609 1.99999 12.0783 2.42142 12.8284 3.17156C13.5786 3.92171 14 4.93912 14 5.99999C14 7.06086 13.5786 8.07827 12.8284 8.82842C12.0783 9.57856 11.0609 9.99999 9.99999 9.99999Z" fill="black"/>
</svg>
