<svg width="16" height="16" viewBox="0 0 16 16" fill="none" xmlns="http://www.w3.org/2000/svg">
<path fill-rule="evenodd" clip-rule="evenodd" d="M10.295 5.295L8.5 7.085V1H7.5V7.085L5.705 5.295L5 6L8 9L11 6L10.295 5.295ZM3 14H13V11H3V14ZM3 10H13C13.2652 10 13.5196 10.1054 13.7071 10.2929C13.8946 10.4804 14 10.7348 14 11V14C14 14.2652 13.8946 14.5196 13.7071 14.7071C13.5196 14.8946 13.2652 15 13 15H3C2.73478 15 2.48043 14.8946 2.29289 14.7071C2.10536 14.5196 2 14.2652 2 14V11C2 10.7348 2.10536 10.4804 2.29289 10.2929C2.48043 10.1054 2.73478 10 3 10ZM12 12.5C12 12.7761 11.7761 13 11.5 13C11.2239 13 11 12.7761 11 12.5C11 12.2239 11.2239 12 11.5 12C11.7761 12 12 12.2239 12 12.5ZM4 12H10V13H4V12Z" fill="black"/>
</svg>
