<svg width="16" height="16" viewBox="0 0 16 16" fill="none" xmlns="http://www.w3.org/2000/svg">
<path fill-rule="evenodd" clip-rule="evenodd" d="M7.76296 8.93999C7.83577 8.97937 7.91724 8.99999 8.00001 8.99999C8.08278 8.99999 8.16425 8.97937 8.23706 8.93999L14.7371 5.43999C14.8165 5.39718 14.8829 5.33365 14.9292 5.25616C14.9755 5.17866 14.9999 5.09008 14.9999 4.99982C14.9999 4.90956 14.9755 4.82098 14.9292 4.74348C14.8829 4.66598 14.8165 4.60246 14.7371 4.55964L8.23706 1.05964C8.16423 1.02034 8.08277 0.999756 8.00001 0.999756C7.91725 0.999756 7.83579 1.02034 7.76296 1.05964L1.26296 4.55964C1.1835 4.60246 1.11711 4.66598 1.07083 4.74348C1.02456 4.82098 1.00012 4.90956 1.00012 4.99982C1.00012 5.09008 1.02456 5.17866 1.07083 5.25616C1.11711 5.33365 1.1835 5.39718 1.26296 5.43999L7.76296 8.93999ZM8.00001 7.93214L2.55471 4.99999L8.00001 2.06789L13.4453 4.99999L8.00001 7.93214ZM7.99999 12.0001C7.91722 12.0001 7.83575 11.9794 7.76294 11.9401L1.26294 8.44006L1.73704 7.56006L7.99999 10.9322L14.2629 7.56006L14.737 8.44041L8.23704 11.9404C8.1642 11.9797 8.08273 12.0002 7.99999 12.0001ZM7.99999 15.0001C7.91722 15.0001 7.83575 14.9794 7.76294 14.9401L1.26294 11.4401L1.73704 10.5601L7.99999 13.9322L14.2629 10.5601L14.737 11.4404L8.23704 14.9404C8.1642 14.9797 8.08273 15.0002 7.99999 15.0001Z" fill="black"/>
</svg>
