<svg width="16" height="16" viewBox="0 0 16 16" fill="none" xmlns="http://www.w3.org/2000/svg">
<path fill-rule="evenodd" clip-rule="evenodd" d="M2.25001 5.99996H4.75001C4.79262 5.99995 4.83452 5.98906 4.87173 5.96831C4.90894 5.94756 4.94023 5.91764 4.96263 5.8814C4.98503 5.84516 4.9978 5.80379 4.99972 5.76123C5.00164 5.71867 4.99266 5.67632 4.97361 5.63821L3.72361 3.12696C3.70053 3.08822 3.66779 3.05614 3.62859 3.03387C3.58939 3.01159 3.54507 2.99988 3.49999 2.99988C3.4549 2.99988 3.41058 3.01159 3.37138 3.03387C3.33218 3.05614 3.29944 3.08822 3.27636 3.12696L2.02636 5.63816C2.0073 5.67627 1.9983 5.71863 2.00022 5.76121C2.00214 5.80378 2.01491 5.84516 2.03732 5.88141C2.05973 5.91766 2.09103 5.94758 2.12826 5.96833C2.16548 5.98908 2.20739 5.99996 2.25001 5.99996ZM15 4H8.00001V5H15V4ZM2.50001 10H4.50001C4.77615 10 5.00001 10.2239 5.00001 10.5V12.5C5.00001 12.7761 4.77615 13 4.50001 13H2.50001C2.22387 13 2.00001 12.7761 2.00001 12.5V10.5C2.00001 10.2239 2.22387 10 2.50001 10ZM8.00001 11H15V12H8.00001V11Z" fill="black"/>
</svg>
