<svg width="16" height="16" viewBox="0 0 16 16" fill="none" xmlns="http://www.w3.org/2000/svg">
<path fill-rule="evenodd" clip-rule="evenodd" d="M4.5 4.5H6.5C6.76522 4.5 7.01957 4.60536 7.20711 4.79289C7.39464 4.98043 7.5 5.23478 7.5 5.5V11.5H6.5V9H4.5V11.5H3.5V5.5C3.5 5.23478 3.60536 4.98043 3.79289 4.79289C3.98043 4.60536 4.23478 4.5 4.5 4.5ZM4.5 5.5V8H6.5V5.5H4.5ZM9 6.5H11.5C11.7652 6.5 12.0196 6.60536 12.2071 6.79289C12.3946 6.98043 12.5 7.23478 12.5 7.5V11.5H9.5C9.23478 11.5 8.98043 11.3946 8.79289 11.2071C8.60536 11.0196 8.5 10.7652 8.5 10.5V9.5C8.5 9.23478 8.60536 8.98043 8.79289 8.79289C8.98043 8.60536 9.23478 8.5 9.5 8.5H11.5V7.5H9V6.5ZM9.5 10.5H11.5V9.5H9.5V10.5Z" fill="black"/>
</svg>
