<svg width="16" height="16" viewBox="0 0 16 16" fill="none" xmlns="http://www.w3.org/2000/svg">
<path fill-rule="evenodd" clip-rule="evenodd" d="M3.5 4.5V11.5H5.5C6.03043 11.5 6.53914 11.2893 6.91421 10.9142C7.28929 10.5391 7.5 10.0304 7.5 9.5V6.5C7.5 5.96957 7.28929 5.46086 6.91421 5.08579C6.53914 4.71071 6.03043 4.5 5.5 4.5H3.5ZM5.5 10.5H4.5V5.5H5.5C5.76522 5.5 6.01957 5.60536 6.20711 5.79289C6.39464 5.98043 6.5 6.23478 6.5 6.5V9.5C6.5 9.76522 6.39464 10.0196 6.20711 10.2071C6.01957 10.3946 5.76522 10.5 5.5 10.5ZM9.5 6.5H11.5V4.5H12.5V11.5H9.5C9.23478 11.5 8.98043 11.3946 8.79289 11.2071C8.60536 11.0196 8.5 10.7652 8.5 10.5V7.5C8.5 7.23478 8.60536 6.98043 8.79289 6.79289C8.98043 6.60536 9.23478 6.5 9.5 6.5ZM11.5 7.5H9.5V10.5H11.5V7.5Z" fill="black"/>
</svg>
