<svg width="16" height="16" viewBox="0 0 16 16" fill="none" xmlns="http://www.w3.org/2000/svg">
<path fill-rule="evenodd" clip-rule="evenodd" d="M3.5 11.5H4.5V9H6.5C6.76522 9 7.01957 8.89464 7.20711 8.70711C7.39464 8.51957 7.5 8.26522 7.5 8V5.5C7.5 5.23478 7.39464 4.98043 7.20711 4.79289C7.01957 4.60536 6.76522 4.5 6.5 4.5H3.5V11.5ZM6.5 8H4.5V5.5H6.5V8ZM8.5 6.5H11.5C11.7652 6.5 12.0196 6.60536 12.2071 6.79289C12.3946 6.98043 12.5 7.23478 12.5 7.5V10.5C12.5 10.7652 12.3946 11.0196 12.2071 11.2071C12.0196 11.3946 11.7652 11.5 11.5 11.5H9.5V13.5H8.5V6.5ZM11.5 7.5H9.5V10.5H11.5V7.5Z" fill="black"/>
</svg>
