<svg width="16" height="16" viewBox="0 0 16 16" fill="none" xmlns="http://www.w3.org/2000/svg">
<path fill-rule="evenodd" clip-rule="evenodd" d="M4.5 11.5H7.5V7.5H5.5V8.5H6.5V10.5H4.5V5.5H7.5V4.5H4.5C4.23478 4.5 3.98043 4.60536 3.79289 4.79289C3.60536 4.98043 3.5 5.23478 3.5 5.5V10.5C3.5 10.7652 3.60536 11.0196 3.79289 11.2071C3.98043 11.3946 4.23478 11.5 4.5 11.5ZM8.79289 6.79289C8.98043 6.60536 9.23478 6.5 9.5 6.5H12.5V12.5C12.5 12.7652 12.3946 13.0196 12.2071 13.2071C12.0196 13.3946 11.7652 13.5 11.5 13.5H9V12.5H11.5V11.5H9.5C9.23478 11.5 8.98043 11.3946 8.79289 11.2071C8.60536 11.0196 8.5 10.7652 8.5 10.5V7.5C8.5 7.23478 8.60536 6.98043 8.79289 6.79289ZM9.5 10.5H11.5V7.5H9.5V10.5Z" fill="black"/>
</svg>
