<svg width="16" height="16" viewBox="0 0 16 16" fill="none" xmlns="http://www.w3.org/2000/svg">
<path fill-rule="evenodd" clip-rule="evenodd" d="M3.5 11.5H6.5C6.76522 11.5 7.01957 11.3946 7.20711 11.2071C7.39464 11.0196 7.5 10.7652 7.5 10.5V8.5C7.5 8.23478 7.39464 7.98043 7.20711 7.79289C7.01957 7.60536 6.76522 7.5 6.5 7.5H4.5V5.5H7.5V4.5H4.5C4.23478 4.5 3.98043 4.60536 3.79289 4.79289C3.60536 4.98043 3.5 5.23478 3.5 5.5V7.5C3.5 7.76522 3.60536 8.01957 3.79289 8.20711C3.98043 8.39464 4.23478 8.5 4.5 8.5H6.5V10.5H3.5V11.5ZM8.5 11.5H11C11.2652 11.5 11.5196 11.3946 11.7071 11.2071C11.8946 11.0196 12 10.7652 12 10.5V9.5C12 9.23478 11.8946 8.98043 11.7071 8.79289C11.5196 8.60536 11.2652 8.5 11 8.5H9.5V7.5H12V6.5H9.5C9.23478 6.5 8.98043 6.60536 8.79289 6.79289C8.60536 6.98043 8.5 7.23478 8.5 7.5V8.5C8.5 8.76522 8.60536 9.01957 8.79289 9.20711C8.98043 9.39464 9.23478 9.5 9.5 9.5H11V10.5H8.5V11.5Z" fill="black"/>
</svg>
