<svg width="16" height="16" viewBox="0 0 16 16" fill="none" xmlns="http://www.w3.org/2000/svg">
<path fill-rule="evenodd" clip-rule="evenodd" d="M7.06066 4.93934C7.34196 5.22064 7.5 5.60218 7.5 6V7C7.49779 7.37003 7.35889 7.72618 7.11 8C7.35889 8.27382 7.49779 8.62997 7.5 9V10C7.5 10.3978 7.34196 10.7794 7.06066 11.0607C6.77936 11.342 6.39782 11.5 6 11.5H3.5V4.5H6C6.39782 4.5 6.77936 4.65804 7.06066 4.93934ZM6 5.5H4.5V7.5H6C6.13261 7.5 6.25979 7.44732 6.35355 7.35355C6.44732 7.25979 6.5 7.13261 6.5 7V6C6.5 5.86739 6.44732 5.74021 6.35355 5.64645C6.25979 5.55268 6.13261 5.5 6 5.5ZM6.35355 10.3536C6.44732 10.2598 6.5 10.1326 6.5 10V9C6.5 8.86739 6.44732 8.74021 6.35355 8.64645C6.25979 8.55268 6.13261 8.5 6 8.5H4.5V10.5H6C6.13261 10.5 6.25979 10.4473 6.35355 10.3536ZM9.5 6.5H11.5C11.7652 6.5 12.0196 6.60536 12.2071 6.79289C12.3946 6.98043 12.5 7.23478 12.5 7.5V10.5C12.5 10.7652 12.3946 11.0196 12.2071 11.2071C12.0196 11.3946 11.7652 11.5 11.5 11.5H8.5V4.5H9.5V6.5ZM11.5 7.5H9.5V10.5H11.5V7.5Z" fill="black"/>
</svg>
