<svg width="16" height="16" viewBox="0 0 16 16" fill="none" xmlns="http://www.w3.org/2000/svg">
<path fill-rule="evenodd" clip-rule="evenodd" d="M7.5 4.51001V5.50001H4.5V7.50001H7V8.50001H4.5V10.5H7.5V11.5H3.5V4.51001H7.5ZM12.2071 6.79289C12.3946 6.98043 12.5 7.23478 12.5 7.5V9.5H9.5V10.5H12V11.5H9.5C9.23478 11.5 8.98043 11.3946 8.79289 11.2071C8.60536 11.0196 8.5 10.7652 8.5 10.5V7.5C8.5 7.23478 8.60536 6.98043 8.79289 6.79289C8.98043 6.60536 9.23478 6.5 9.5 6.5H11.5C11.7652 6.5 12.0196 6.60536 12.2071 6.79289ZM11.5 7.5H9.5V8.5H11.5V7.5Z" fill="black"/>
</svg>
