<svg width="16" height="16" viewBox="0 0 16 16" fill="none" xmlns="http://www.w3.org/2000/svg">
<path fill-rule="evenodd" clip-rule="evenodd" d="M4.5 11.5H6.5C6.76522 11.5 7.01957 11.3946 7.20711 11.2071C7.39464 11.0196 7.5 10.7652 7.5 10.5V5.5C7.5 5.23478 7.39464 4.98043 7.20711 4.79289C7.01957 4.60536 6.76522 4.5 6.5 4.5H4.5C4.23478 4.5 3.98043 4.60536 3.79289 4.79289C3.60536 4.98043 3.5 5.23478 3.5 5.5V10.5C3.5 10.7652 3.60536 11.0196 3.79289 11.2071C3.98043 11.3946 4.23478 11.5 4.5 11.5ZM4.5 10.5V5.5H6.5V10.5H4.5ZM9.5 11.5H11.5C11.7652 11.5 12.0196 11.3946 12.2071 11.2071C12.3946 11.0196 12.5 10.7652 12.5 10.5V7.5C12.5 7.23478 12.3946 6.98043 12.2071 6.79289C12.0196 6.60536 11.7652 6.5 11.5 6.5H9.5C9.23478 6.5 8.98043 6.60536 8.79289 6.79289C8.60536 6.98043 8.5 7.23478 8.5 7.5V10.5C8.5 10.7652 8.60536 11.0196 8.79289 11.2071C8.98043 11.3946 9.23478 11.5 9.5 11.5ZM9.5 10.5V7.5H11.5V10.5H9.5Z" fill="black"/>
</svg>
