<svg width="16" height="16" viewBox="0 0 16 16" fill="none" xmlns="http://www.w3.org/2000/svg">
<path fill-rule="evenodd" clip-rule="evenodd" d="M3.29323 14.7068C3.4807 14.8942 3.73488 14.9997 4 15H12C12.2651 14.9997 12.5193 14.8942 12.7068 14.7068C12.8942 14.5193 12.9997 14.2651 13 14V2C12.9997 1.73488 12.8942 1.4807 12.7068 1.29323C12.5193 1.10576 12.2651 1.0003 12 1H4C3.73488 1.0003 3.4807 1.10576 3.29323 1.29323C3.10576 1.4807 3.0003 1.73488 3 2V14C3.0003 14.2651 3.10576 14.5193 3.29323 14.7068ZM4 14V2H12V14H4ZM11 3H5V4H11V3ZM11 5H5V6H11V5ZM5 12H8V13H5V12ZM8 7H5V8H8V7Z" fill="black"/>
</svg>
