<svg width="16" height="16" viewBox="0 0 16 16" fill="none" xmlns="http://www.w3.org/2000/svg">
<path fill-rule="evenodd" clip-rule="evenodd" d="M3 15H6V14H3V2H11V7H12V2C11.9997 1.73487 11.8943 1.48068 11.7068 1.2932C11.5193 1.10572 11.2651 1.00028 11 1H3C2.73487 1.00028 2.48068 1.10572 2.2932 1.2932C2.10572 1.48068 2.00028 1.73487 2 2V14C2.00028 14.2651 2.10572 14.5193 2.2932 14.7068C2.48068 14.8943 2.73487 14.9997 3 15ZM7 7C7.39556 7 7.78224 6.8827 8.11114 6.66294C8.44004 6.44318 8.69638 6.13082 8.84776 5.76537C8.99913 5.39992 9.03874 4.99778 8.96157 4.60982C8.8844 4.22186 8.69392 3.86549 8.41421 3.58579C8.13451 3.30608 7.77814 3.1156 7.39018 3.03843C7.00222 2.96126 6.60009 3.00087 6.23463 3.15224C5.86918 3.30362 5.55682 3.55996 5.33706 3.88886C5.1173 4.21776 5 4.60444 5 5C5 5.53043 5.21071 6.03914 5.58579 6.41421C5.96086 6.78929 6.46957 7 7 7ZM7 4C7.19778 4 7.39112 4.05865 7.55557 4.16853C7.72002 4.27841 7.84819 4.43459 7.92388 4.61732C7.99957 4.80004 8.01937 5.00111 7.98079 5.19509C7.9422 5.38907 7.84696 5.56726 7.70711 5.70711C7.56725 5.84696 7.38907 5.9422 7.19509 5.98079C7.00111 6.01937 6.80004 5.99957 6.61732 5.92388C6.43459 5.84819 6.27841 5.72002 6.16853 5.55557C6.05865 5.39112 6 5.19778 6 5C6 4.73478 6.10536 4.48043 6.29289 4.29289C6.48043 4.10536 6.73478 4 7 4ZM8.5 7.5C8.89782 7.5 9.27936 7.65804 9.56066 7.93934C9.84196 8.22064 10 8.60218 10 9V9.5H9V9C9 8.86739 8.94732 8.74021 8.85355 8.64645C8.75979 8.55268 8.63261 8.5 8.5 8.5H5.5C5.36739 8.5 5.24021 8.55268 5.14645 8.64645C5.05268 8.74021 5 8.86739 5 9V9.5H4V9C4 8.60218 4.15804 8.22064 4.43934 7.93934C4.72064 7.65804 5.10218 7.5 5.5 7.5H8.5ZM13.3535 8.14652L14.8535 9.64652C14.8999 9.69292 14.9368 9.74803 14.9619 9.80869C14.9871 9.86934 15 9.93436 15 10C15 10.0657 14.9871 10.1307 14.9619 10.1913C14.9368 10.252 14.8999 10.3071 14.8535 10.3535L10.2071 15H8V12.793L12.6465 8.14652C12.6929 8.10007 12.748 8.06322 12.8087 8.03808C12.8693 8.01294 12.9343 8 13 8C13.0657 8 13.1307 8.01294 13.1913 8.03808C13.252 8.06322 13.3071 8.10007 13.3535 8.14652ZM9 14H9.79295L12.2929 11.5L11.5 10.7071L9 13.2071V14ZM12.2071 10L13 10.793L13.7929 10L13 9.20707L12.2071 10Z" fill="black"/>
</svg>
