<svg width="16" height="16" viewBox="0 0 16 16" fill="none" xmlns="http://www.w3.org/2000/svg">
<path fill-rule="evenodd" clip-rule="evenodd" d="M2 15H6V14H2V2H10V6H11V2C10.9997 1.73487 10.8943 1.48068 10.7068 1.2932C10.5193 1.10572 10.2651 1.00028 10 1H2C1.73487 1.00028 1.48068 1.10572 1.2932 1.2932C1.10572 1.48068 1.00028 1.73487 1 2V14C1.00028 14.2651 1.10572 14.5193 1.2932 14.7068C1.48068 14.8943 1.73487 14.9997 2 15ZM9 3H3V4H9V3ZM3 7H6V8H3V7ZM8.77772 7.67412C9.43552 7.2346 10.2089 7 11 7C12.0605 7.00122 13.0772 7.42304 13.8271 8.17292C14.577 8.9228 14.9988 9.93951 15 11C15 11.7911 14.7654 12.5645 14.3259 13.2223C13.8864 13.8801 13.2616 14.3928 12.5307 14.6955C11.7998 14.9983 10.9956 15.0775 10.2196 14.9231C9.44372 14.7688 8.73098 14.3878 8.17157 13.8284C7.61216 13.269 7.2312 12.5563 7.07686 11.7804C6.92252 11.0044 7.00173 10.2002 7.30448 9.46927C7.60723 8.73836 8.11992 8.11365 8.77772 7.67412ZM12.9782 10.5H13.955C13.8767 10.0407 13.6926 9.60586 13.4174 9.22991C13.1421 8.85395 12.7832 8.54715 12.369 8.33375C12.7065 9.01108 12.9132 9.74603 12.9782 10.5ZM11 8.0073C10.4558 8.73462 10.1197 9.59629 10.0278 10.5H11.9724C11.8804 9.59626 11.5443 8.73458 11 8.0073ZM11 13.9927C11.5445 13.2655 11.8807 12.4038 11.9728 11.5H10.0276C10.1196 12.4037 10.4557 13.2654 11 13.9927ZM9.02175 10.5C9.08681 9.74608 9.29357 9.01122 9.6312 8.334H9.63085C9.2167 8.54739 8.85784 8.85416 8.58261 9.23007C8.30739 9.60598 8.12334 10.0407 8.045 10.5H9.02175ZM9.0216 11.5H8.045C8.12332 11.9592 8.30735 12.394 8.58255 12.7699C8.85775 13.1458 9.21658 13.4526 9.6307 13.666C9.2932 12.9888 9.08655 12.2539 9.0216 11.5ZM12.9783 11.5C12.9133 12.2539 12.7066 12.9888 12.3691 13.666H12.3693C12.7834 13.4526 13.1423 13.1459 13.4175 12.77C13.6927 12.394 13.8767 11.9593 13.955 11.5H12.9783ZM3 5H9V6H3V5ZM6 12H3V13H6V12Z" fill="black"/>
</svg>
