<svg width="16" height="16" viewBox="0 0 16 16" fill="none" xmlns="http://www.w3.org/2000/svg">
<path d="M14.113 11.4061C14.6946 10.3651 15 9.19255 15 8.00011C15 6.80767 14.6946 5.6351 14.113 4.59411L14.207 4.50011C14.3943 4.31244 14.4994 4.05818 14.4994 3.79309C14.4994 3.52799 14.3943 3.27373 14.207 3.08606L12.9142 1.79306C12.7265 1.60587 12.4722 1.50075 12.2071 1.50075C11.942 1.50075 11.6877 1.60587 11.5 1.79306L11.4061 1.88681C10.3651 1.30529 9.1925 0.999985 8.00005 0.999985C6.80761 0.999985 5.63502 1.30529 4.59398 1.88681L4.49998 1.79306C4.31229 1.60582 4.058 1.50067 3.79288 1.50067C3.52776 1.50067 3.27347 1.60582 3.08578 1.79306L1.79293 3.08606C1.6057 3.27373 1.50055 3.52799 1.50055 3.79309C1.50055 4.05818 1.6057 4.31244 1.79293 4.50011L1.88683 4.59386C1.3053 5.63496 1 6.80761 1 8.00011C1 9.19261 1.3053 10.3653 1.88683 11.4064L1.79293 11.5001C1.6057 11.6878 1.50055 11.942 1.50055 12.2071C1.50055 12.4722 1.6057 12.7265 1.79293 12.9142L3.08578 14.2072C3.27345 14.3944 3.52775 14.4996 3.79288 14.4996C4.05801 14.4996 4.31231 14.3944 4.49998 14.2072L4.59398 14.1132C5.635 14.6947 6.80757 15.0001 8.00002 15.0001C9.19247 15.0002 10.3651 14.6949 11.4061 14.1134L11.5 14.2072C11.6877 14.3944 11.942 14.4996 12.2071 14.4996C12.4722 14.4996 12.7265 14.3944 12.9142 14.2072L14.207 12.9142C14.3943 12.7265 14.4994 12.4722 14.4994 12.2071C14.4994 11.942 14.3943 11.6878 14.207 11.5001L14.113 11.4061ZM14 8.00011C13.9997 8.92523 13.7849 9.83768 13.3727 10.6659L11.4253 8.71836C11.5249 8.24471 11.5249 7.75552 11.4253 7.28186L13.3727 5.33436C13.7849 6.16254 13.9997 7.07499 14 8.00011ZM13.5 3.79306L11.0327 6.26036C10.7231 5.72309 10.2772 5.27707 9.73998 4.96741L12.2071 2.50011L13.5 3.79306ZM7.99998 10.5001C7.50553 10.5001 7.02218 10.3535 6.61105 10.0788C6.19993 9.80408 5.8795 9.41364 5.69028 8.95682C5.50106 8.5 5.45155 7.99734 5.54802 7.51238C5.64448 7.02743 5.88258 6.58197 6.23221 6.23234C6.58184 5.88271 7.0273 5.64461 7.51225 5.54815C7.99721 5.45168 8.49987 5.50119 8.95669 5.69041C9.4135 5.87963 9.80395 6.20006 10.0787 6.61119C10.3534 7.02231 10.5 7.50566 10.5 8.00011C10.4992 8.66292 10.2356 9.29837 9.76691 9.76704C9.29823 10.2357 8.66279 10.4994 7.99998 10.5001ZM10.6577 2.63536L8.71823 4.57481C8.24458 4.47521 7.75538 4.47521 7.28173 4.57481L5.34228 2.63536C6.17134 2.23601 7.07975 2.02863 7.99998 2.02863C8.92021 2.02863 9.82861 2.23601 10.6577 2.63536ZM3.79293 2.50011L6.26023 4.96741C5.72295 5.27707 5.27694 5.72308 4.96728 6.26036L2.49998 3.79306L3.79293 2.50011ZM1.99998 8.00011C2.0003 7.07506 2.21502 6.16267 2.62728 5.33456L4.57468 7.28186C4.47508 7.75552 4.47508 8.24471 4.57468 8.71836L2.62728 10.6657C2.21502 9.83755 2.0003 8.92516 1.99998 8.00011ZM3.79283 13.5001L2.49998 12.2072L4.96728 9.74011C5.27691 10.2774 5.72293 10.7234 6.26023 11.0331L3.79283 13.5001ZM5.34228 13.3651L7.28173 11.4257C7.75538 11.5253 8.24458 11.5253 8.71823 11.4257L10.6577 13.3651C9.82861 13.7645 8.92021 13.9718 7.99998 13.9718C7.07975 13.9718 6.17134 13.7645 5.34228 13.3651ZM12.2073 13.5001L9.73998 11.0328C10.2771 10.7232 10.7231 10.2773 11.0327 9.74011L13.5 12.2072L12.2073 13.5001Z" fill="black"/>
</svg>
