<svg width="16" height="16" viewBox="0 0 16 16" fill="none" xmlns="http://www.w3.org/2000/svg">
<path d="M5.805 14.96C5.70268 14.9168 5.61765 14.8408 5.56333 14.7439C5.50901 14.647 5.48849 14.5348 5.505 14.425L6.415 8.50001H4C3.92344 8.50207 3.84743 8.48652 3.77783 8.45454C3.70823 8.42257 3.64691 8.37504 3.59859 8.31561C3.55028 8.25618 3.51626 8.18645 3.49917 8.11179C3.48207 8.03713 3.48236 7.95954 3.5 7.88501L5 1.38501C5.0264 1.27315 5.09053 1.17379 5.18159 1.10367C5.27266 1.03355 5.38511 0.996939 5.5 1.00001H10.5C10.5747 0.999757 10.6485 1.01624 10.716 1.04826C10.7835 1.08027 10.8429 1.127 10.89 1.18501C10.9377 1.24368 10.9715 1.3124 10.9888 1.38602C11.0062 1.45963 11.0066 1.53622 10.99 1.61001L10.125 5.50001H12.5C12.5937 5.49982 12.6856 5.52598 12.7652 5.57548C12.8447 5.62499 12.9088 5.69586 12.95 5.78001C12.9858 5.86078 12.9996 5.9496 12.99 6.03743C12.9803 6.12526 12.9475 6.20896 12.895 6.28001L6.395 14.78C6.35107 14.8451 6.29242 14.899 6.22379 14.9372C6.15516 14.9754 6.0785 14.9969 6 15C5.9331 14.9988 5.867 14.9852 5.805 14.96ZM8.875 6.50001L9.875 2.00001H5.9L4.63 7.50001H7.585L6.79 12.64L11.5 6.50001H8.875Z" fill="black"/>
</svg>
