<svg width="16" height="16" viewBox="0 0 16 16" fill="none" xmlns="http://www.w3.org/2000/svg">
<path fill-rule="evenodd" clip-rule="evenodd" d="M13.6505 2.72704C14.0151 2.87846 14.3463 3.10037 14.625 3.38005C15.1881 3.94122 15.5055 4.70297 15.5074 5.49798C15.5092 6.29298 15.1955 7.05622 14.635 7.62005L10.635 11.62C10.3549 11.9005 10.022 12.1227 9.65556 12.2737C9.28911 12.4247 8.89635 12.5017 8.5 12.5C7.70503 12.5047 6.94074 12.1935 6.375 11.635C6.09532 11.3563 5.87341 11.0252 5.72199 10.6605C5.57057 10.2958 5.49263 9.90489 5.49263 9.51005C5.49263 9.1152 5.57057 8.72424 5.72199 8.35959C5.87341 7.99493 6.09532 7.66376 6.375 7.38505L7.085 6.67505L7.79 7.38505L7.085 8.09505C6.70971 8.47099 6.49915 8.98062 6.49962 9.51181C6.50008 10.043 6.71155 10.5523 7.0875 10.9275C7.46344 11.3028 7.97307 11.5134 8.50426 11.5129C9.03546 11.5125 9.54471 11.301 9.92 10.925L13.92 6.92505C14.1061 6.7389 14.2538 6.51791 14.3546 6.27469C14.4553 6.03148 14.5071 5.7708 14.5071 5.50755C14.5071 5.24429 14.4553 4.98362 14.3546 4.7404C14.2538 4.49719 14.1061 4.27619 13.92 4.09005C13.7338 3.9039 13.5129 3.75624 13.2696 3.65549C13.0264 3.55475 12.7657 3.5029 12.5025 3.5029C12.2392 3.5029 11.9786 3.55475 11.7354 3.65549C11.4921 3.75624 11.2711 3.9039 11.085 4.09005L10.375 3.38005C10.6537 3.10037 10.9849 2.87846 11.3495 2.72704C11.7142 2.57562 12.1052 2.49768 12.5 2.49768C12.8948 2.49768 13.2858 2.57562 13.6505 2.72704ZM1.65905 11.76C1.76014 12.0033 1.9083 12.2242 2.095 12.41C2.28084 12.5967 2.50173 12.7449 2.74498 12.846C2.98824 12.9471 3.24907 12.9991 3.5125 12.9991C3.77593 12.9991 4.03676 12.9471 4.28002 12.846C4.52327 12.7449 4.74416 12.5967 4.93 12.41L5.64 13.12C5.07086 13.6844 4.30155 14.0008 3.5 14C2.70545 14.01 1.93941 13.7043 1.37 13.15C1.08957 12.8712 0.867022 12.5397 0.715162 12.1746C0.563301 11.8095 0.485123 11.418 0.485123 11.0225C0.485123 10.6271 0.563301 10.2356 0.715162 9.87044C0.867022 9.50532 1.08957 9.17383 1.37 8.89503L5.37 4.89503C5.93425 4.33079 6.69953 4.01379 7.4975 4.01379C8.29547 4.01379 9.06075 4.33079 9.625 4.89503C10.1892 5.45928 10.5062 6.22457 10.5062 7.02253C10.5062 7.8205 10.1892 8.58578 9.625 9.15003L8.565 10.21L7.855 9.50003L8.915 8.42503C9.10186 8.23797 9.24978 8.01571 9.35019 7.77111C9.45061 7.52652 9.50153 7.26444 9.5 7.00003C9.50517 6.73645 9.45739 6.47452 9.35948 6.22974C9.26157 5.98497 9.11553 5.76233 8.93 5.57503C8.74416 5.38833 8.52327 5.24018 8.28002 5.13909C8.03676 5.03799 7.77593 4.98595 7.5125 4.98595C7.24907 4.98595 6.98824 5.03799 6.74498 5.13909C6.50173 5.24018 6.28084 5.38833 6.095 5.57503L2.095 9.57503C1.9083 9.76087 1.76014 9.98176 1.65905 10.225C1.55796 10.4683 1.50592 10.7291 1.50592 10.9925C1.50592 11.256 1.55796 11.5168 1.65905 11.76Z" fill="black"/>
</svg>
