<svg width="16" height="16" viewBox="0 0 16 16" fill="none" xmlns="http://www.w3.org/2000/svg">
<path fill-rule="evenodd" clip-rule="evenodd" d="M14.2255 14.8636C14.4717 14.9614 14.7352 15.0078 15 15V14C14.8664 14.0086 14.7326 13.9887 14.6073 13.9415C14.4821 13.8943 14.3684 13.8209 14.2737 13.7263C14.1791 13.6316 14.1057 13.5179 14.0585 13.3927C14.0113 13.2674 13.9914 13.1336 14 13V7C14 5.4087 13.3679 3.88258 12.2426 2.75736C11.1174 1.63214 9.5913 1 8 1C6.4087 1 4.88258 1.63214 3.75736 2.75736C2.63214 3.88258 2 5.4087 2 7V13C2.0089 13.1336 1.98913 13.2676 1.94202 13.393C1.89491 13.5183 1.82155 13.6322 1.72686 13.7269C1.63216 13.8216 1.51832 13.8949 1.39296 13.942C1.2676 13.9891 1.13362 14.0089 1 14V15C1.26475 15.0078 1.5283 14.9614 1.77447 14.8636C2.02063 14.7658 2.24422 14.6188 2.43151 14.4315C2.6188 14.2442 2.76584 14.0206 2.8636 13.7745C2.96135 13.5283 3.00777 13.2648 3 13V7C3 5.67392 3.52678 4.40215 4.46447 3.46447C5.40215 2.52678 6.67392 2 8 2C9.32608 2 10.5979 2.52678 11.5355 3.46447C12.4732 4.40215 13 5.67392 13 7V13C12.9922 13.2648 13.0386 13.5283 13.1364 13.7745C13.2342 14.0206 13.3812 14.2442 13.5685 14.4315C13.7558 14.6188 13.9794 14.7658 14.2255 14.8636ZM12 8.2627C12.0119 8.98976 11.7661 9.69757 11.3061 10.2607C11.5906 10.445 11.7755 10.5816 11.8 10.6C11.8536 10.6402 11.8986 10.6907 11.9323 10.7486C11.966 10.8066 11.9877 10.8706 11.9961 10.9371C12.0045 11.0036 11.9995 11.071 11.9814 11.1355C11.9632 11.2 11.9323 11.2602 11.8904 11.3125C11.6704 11.5874 9.69156 14 8.00001 14C6.30846 14 4.32961 11.5874 4.10961 11.3125C4.06776 11.2602 4.03684 11.2 4.01869 11.1356C4.00054 11.0711 3.99553 11.0036 4.00396 10.9372C4.01239 10.8707 4.03408 10.8066 4.06775 10.7487C4.10142 10.6908 4.14638 10.6403 4.19996 10.6001C4.22451 10.5815 4.40956 10.4451 4.69396 10.2607C4.23401 9.69755 3.98819 8.98976 4.00001 8.2627C4.00001 6.73925 5.00941 5.5 6.25001 5.5C6.60456 5.5117 6.95051 5.61212 7.25623 5.79205C7.56195 5.97199 7.81767 6.22571 8.00001 6.53C8.18235 6.22571 8.43807 5.97199 8.74379 5.79205C9.04951 5.61212 9.39546 5.5117 9.75001 5.5C10.9906 5.5 12 6.73925 12 8.2627ZM7.50001 8.2627C7.50001 7.30715 6.92761 6.5 6.25001 6.5C5.57241 6.5 5.00001 7.30715 5.00001 8.2627C4.99127 8.53572 5.03814 8.80767 5.13778 9.06201C5.23742 9.31635 5.38774 9.54777 5.57961 9.7422C5.60107 9.73097 5.62372 9.72009 5.64644 9.70918C5.66568 9.69993 5.68497 9.69067 5.70361 9.68115C5.56792 9.48015 5.49689 9.24249 5.50001 9C5.50001 8.44775 5.83581 8 6.25001 8C6.66421 8 7.00001 8.44775 7.00001 9C6.99926 9.05407 6.99518 9.10803 6.98781 9.1616C7.15617 9.11321 7.32719 9.07458 7.50001 9.0459V8.2627ZM5.24001 11.0971C6.01761 11.958 7.21546 13 8.00001 13C8.78456 13 9.98241 11.958 10.76 11.0971C10.05 10.6394 8.86721 10 8.00001 10C7.13281 10 5.95001 10.6394 5.24001 11.0971ZM10.3536 9.70918C10.3763 9.72009 10.3989 9.73097 10.4204 9.7422C10.6123 9.54777 10.7626 9.31635 10.8622 9.06201C10.9619 8.80767 11.0088 8.53572 11 8.2627C11 7.30715 10.4276 6.5 9.75001 6.5C9.07241 6.5 8.50001 7.30715 8.50001 8.2627V9.0459C8.67283 9.07458 8.84385 9.11321 9.01221 9.1616C9.00484 9.10803 9.00076 9.05407 9.00001 9C9.00001 8.44775 9.33581 8 9.75001 8C10.1642 8 10.5 8.44775 10.5 9C10.5031 9.24249 10.4321 9.48015 10.2964 9.68115C10.3151 9.69067 10.3343 9.69993 10.3536 9.70918Z" fill="black"/>
</svg>
