<svg width="16" height="16" viewBox="0 0 16 16" fill="none" xmlns="http://www.w3.org/2000/svg">
<path d="M14.9472 11.771L14.0853 10.0473C14.0023 9.88126 13.8747 9.74157 13.7167 9.64395C13.5588 9.54633 13.3767 9.49463 13.191 9.49465H12.9569C12.7839 8.68302 12.4765 7.90602 12.0472 7.1958C11.5323 6.22145 11 5.21385 11 4C11 3.20435 10.6839 2.44129 10.1213 1.87868C9.55871 1.31607 8.79565 1 8 1C7.20435 1 6.44129 1.31607 5.87868 1.87868C5.31607 2.44129 5 3.20435 5 4C4.92906 5.10626 4.57646 6.17602 3.9757 7.10765C3.52638 7.84267 3.20977 8.65096 3.0403 9.4956H2.8092C2.62343 9.49562 2.44134 9.54736 2.28333 9.64503C2.12532 9.74271 1.99762 9.88245 1.91455 10.0486L1.05275 11.7719C1.01105 11.8553 0.993496 11.9487 1.00208 12.0416C1.01065 12.1344 1.04502 12.223 1.1013 12.2973L3.11595 14.96C3.34502 15.235 3.66487 15.419 4.01773 15.4787C4.37059 15.5385 4.73319 15.4701 5.04005 15.2859L5.9768 14.7239C6.63381 14.9156 7.31565 15.0087 8 15C8.68477 15.0088 9.36704 14.9157 10.0244 14.7236L10.96 15.285C11.1921 15.4253 11.458 15.4996 11.7292 15.5C11.9534 15.4988 12.1744 15.448 12.3766 15.3513C12.5788 15.2546 12.7571 15.1144 12.8987 14.9406L14.8987 12.2964C14.9549 12.222 14.9893 12.1334 14.9978 12.0406C15.0064 11.9478 14.9889 11.8544 14.9472 11.771ZM11.1631 7.6631C11.5041 8.23581 11.7663 8.85187 11.9426 9.49465H10.869C10.7434 9.04067 10.5794 8.59817 10.379 8.1719C10.1911 7.78042 10.0439 7.37071 9.93955 6.9492C10.13 6.72845 10.2981 6.48933 10.4412 6.23535L10.4604 6.19945C10.6687 6.69937 10.9033 7.18793 11.1631 7.6631ZM6 10.5C6.03856 9.82702 6.22151 9.17022 6.5364 8.5742C6.66455 8.28295 6.7943 7.98635 6.8994 7.67455C7.22717 7.88697 7.60941 8 8 8C8.39058 8 8.77283 7.88697 9.1006 7.67455C9.2056 7.98635 9.3356 8.28295 9.4636 8.5742C9.77849 9.17022 9.96143 9.82702 10 10.5C10 11.144 9.7927 12 8 12C6.2073 12 6 11.144 6 10.5ZM9.25525 6.2124C9.11328 6.42467 8.92807 6.60456 8.71175 6.74028C8.49544 6.87601 8.25289 6.96451 8 7C7.74707 6.96447 7.5045 6.87593 7.28817 6.74016C7.07184 6.60439 6.88662 6.42446 6.74465 6.21215C7.55758 5.92912 8.44231 5.92912 9.25525 6.21215V6.2124ZM6 4C6 3.46957 6.21071 2.96086 6.58578 2.58579C6.96086 2.21071 7.46956 2 8 2C8.53043 2 9.03914 2.21071 9.41421 2.58579C9.78928 2.96086 10 3.46957 10 4C10.0022 4.52777 10.0809 5.05243 10.2336 5.5576C10.0002 5.42829 9.75447 5.32271 9.5 5.24245V4H8.5V5.0271C8.16764 4.99097 7.83235 4.99097 7.5 5.0271V4H6.5V5.24245C6.24338 5.3232 5.99567 5.42996 5.76075 5.56105C5.91721 5.05539 5.99784 4.52931 6 4ZM4.8573 7.5796C5.10697 7.12843 5.33306 6.66461 5.53465 6.19L5.55885 6.235C5.70203 6.48898 5.87009 6.7281 6.06055 6.94885C5.95623 7.37036 5.80897 7.78007 5.6211 8.17155C5.42043 8.59811 5.25634 9.04093 5.1306 9.49525H4.05235C4.22427 8.82034 4.49555 8.17474 4.8573 7.5796ZM5.5427 13.8183L4.5254 14.4287C4.42696 14.4895 4.31029 14.5138 4.19578 14.4973C4.08127 14.4808 3.9762 14.4245 3.89895 14.3384L2.0862 11.9417L2.8091 10.4956H4.6621L5.745 13.1926C5.79224 13.3038 5.79778 13.4283 5.76062 13.5433C5.72346 13.6582 5.64608 13.7559 5.5427 13.8183ZM6.7007 13.8772C6.82143 13.5341 6.81143 13.1584 6.6726 12.8222C7.10376 12.9471 7.55115 13.0071 8 13C8.4491 13.007 8.89674 12.947 9.3281 12.8218C9.191 13.1584 9.18129 13.5335 9.3008 13.8768C8.44188 14.0407 7.55972 14.0407 6.7008 13.8768L6.7007 13.8772ZM12.1157 14.3188C12.0396 14.4109 11.933 14.4725 11.8153 14.4925C11.6975 14.5125 11.5765 14.4895 11.4743 14.4277L10.4572 13.8174C10.3526 13.7535 10.2747 13.6536 10.2383 13.5365C10.2019 13.4193 10.2093 13.2929 10.2592 13.1809L11.3377 10.4946H13.1906L13.9137 11.9406L12.1157 14.3188Z" fill="black"/>
</svg>
