<svg width="16" height="16" viewBox="0 0 16 16" fill="none" xmlns="http://www.w3.org/2000/svg">
<path fill-rule="evenodd" clip-rule="evenodd" d="M5 7H2C1.73488 6.9997 1.4807 6.89424 1.29323 6.70677C1.10576 6.5193 1.0003 6.26512 1 6V3C1.0003 2.73488 1.10576 2.4807 1.29323 2.29323C1.4807 2.10576 1.73488 2.0003 2 2H5C5.26512 2.0003 5.5193 2.10576 5.70677 2.29323C5.89424 2.4807 5.9997 2.73488 6 3V6C5.9997 6.26512 5.89424 6.5193 5.70677 6.70677C5.5193 6.89424 5.26512 6.9997 5 7ZM2 3V6H5.0006L5 3H2ZM8 4H15V5H8V4ZM8 11H15V12H8V11ZM2 14H5C5.26512 13.9997 5.5193 13.8942 5.70677 13.7068C5.89424 13.5193 5.9997 13.2651 6 13V10C5.9997 9.73488 5.89424 9.4807 5.70677 9.29323C5.5193 9.10576 5.26512 9.0003 5 9H2C1.73488 9.0003 1.4807 9.10576 1.29323 9.29323C1.10576 9.4807 1.0003 9.73488 1 10V13C1.0003 13.2651 1.10576 13.5193 1.29323 13.7068C1.4807 13.8942 1.73488 13.9997 2 14ZM2 13V10H5L5.0006 13H2Z" fill="black"/>
</svg>
