<svg width="16" height="16" viewBox="0 0 16 16" fill="none" xmlns="http://www.w3.org/2000/svg">
<path fill-rule="evenodd" clip-rule="evenodd" d="M10 5V1H6V5H10ZM7 4V2H9V4H7ZM12.5 8H8.5V6H7.5V8H3.5C3.23488 8.0003 2.9807 8.10576 2.79323 8.29323C2.60576 8.4807 2.5003 8.73488 2.5 9V11H3.5V9H7.5V11H8.5V9H12.5V11H13.5V9C13.4997 8.73488 13.3942 8.4807 13.2068 8.29323C13.0193 8.10576 12.7651 8.0003 12.5 8ZM12.1374 12.2766C12.3895 12.0975 12.6908 12.0009 13 12C13.2745 11.9995 13.5438 12.0745 13.7785 12.2167C14.0133 12.3589 14.2044 12.5629 14.331 12.8064C14.4577 13.0499 14.515 13.3235 14.4966 13.5974C14.4783 13.8712 14.385 14.1348 14.227 14.3592C14.0691 14.5837 13.8524 14.7604 13.6008 14.87C13.3492 14.9796 13.0723 15.018 12.8003 14.981C12.5284 14.9439 12.2719 14.8328 12.0588 14.6598C11.8457 14.4868 11.6843 14.2585 11.5922 14H9.40787C9.30598 14.2921 9.11572 14.5454 8.86346 14.7246C8.6112 14.9038 8.30944 15 8.00002 15C7.69059 15 7.38883 14.9038 7.13657 14.7246C6.88431 14.5454 6.69405 14.2921 6.59217 14H4.40787C4.28992 14.3336 4.05783 14.6148 3.75263 14.7938C3.44742 14.9728 3.08875 15.0382 2.74 14.9784C2.39125 14.9185 2.07488 14.7373 1.84681 14.4668C1.61874 14.1963 1.49365 13.8538 1.49365 13.5C1.49365 13.1461 1.61874 12.8037 1.84681 12.5332C2.07488 12.2626 2.39125 12.0814 2.74 12.0216C3.08875 11.9617 3.44742 12.0271 3.75263 12.2062C4.05783 12.3852 4.28992 12.6664 4.40787 13H6.59217C6.69405 12.7078 6.88431 12.4546 7.13657 12.2754C7.38883 12.0962 7.69059 11.9999 8.00002 11.9999C8.30944 11.9999 8.6112 12.0962 8.86346 12.2754C9.11572 12.4546 9.30598 12.7078 9.40787 13H11.5922C11.6949 12.7083 11.8853 12.4556 12.1374 12.2766ZM2.72223 13.9157C2.80446 13.9707 2.90113 14 3.00002 14C3.13259 13.9999 3.2597 13.9471 3.35344 13.8534C3.44718 13.7597 3.4999 13.6326 3.50002 13.5C3.50002 13.4011 3.47069 13.3044 3.41575 13.2222C3.36081 13.14 3.28272 13.0759 3.19136 13.038C3.09999 13.0002 2.99946 12.9903 2.90247 13.0096C2.80548 13.0289 2.71639 13.0765 2.64646 13.1464C2.57654 13.2164 2.52892 13.3054 2.50962 13.4024C2.49033 13.4994 2.50023 13.6 2.53808 13.6913C2.57592 13.7827 2.64001 13.8608 2.72223 13.9157ZM7.72223 13.9157C7.80445 13.9707 7.90112 14 8.00002 14C8.13259 13.9999 8.2597 13.9471 8.35344 13.8534C8.44718 13.7597 8.4999 13.6326 8.50002 13.5C8.50002 13.4011 8.47069 13.3044 8.41575 13.2222C8.36081 13.14 8.28272 13.0759 8.19136 13.038C8.09999 13.0002 7.99946 12.9903 7.90247 13.0096C7.80548 13.0289 7.71639 13.0765 7.64646 13.1464C7.57654 13.2164 7.52892 13.3054 7.50962 13.4024C7.49033 13.4994 7.50023 13.6 7.53808 13.6913C7.57592 13.7827 7.64001 13.8608 7.72223 13.9157ZM12.7222 13.9157C12.8045 13.9707 12.9011 14 13 14C13.1326 13.9999 13.2597 13.9471 13.3534 13.8534C13.4472 13.7597 13.4999 13.6326 13.5 13.5C13.5 13.4011 13.4707 13.3044 13.4158 13.2222C13.3608 13.14 13.2827 13.0759 13.1914 13.038C13.1 13.0002 12.9995 12.9903 12.9025 13.0096C12.8055 13.0289 12.7164 13.0765 12.6465 13.1464C12.5765 13.2164 12.5289 13.3054 12.5096 13.4024C12.4903 13.4994 12.5002 13.6 12.5381 13.6913C12.5759 13.7827 12.64 13.8608 12.7222 13.9157Z" fill="black"/>
</svg>
