<svg width="16" height="16" viewBox="0 0 16 16" fill="none" xmlns="http://www.w3.org/2000/svg">
<path fill-rule="evenodd" clip-rule="evenodd" d="M5.5 1.5H10.5V2.5H5.5V1.5ZM6.5 4H5.5V5H6.5V4ZM7.5 4H8.5V5H7.5V4ZM9.5 4H10.5V5H9.5V4ZM8.5 6.5V8H12.5C12.7651 8.0003 13.0193 8.10576 13.2068 8.29323C13.3942 8.4807 13.4997 8.73488 13.5 9V12H12.5V9H8.5V12H7.5V9H3.5V12H2.5V9C2.5003 8.73488 2.60576 8.4807 2.79323 8.29323C2.9807 8.10576 3.23488 8.0003 3.5 8H7.5V6.5H8.5ZM4 13H2V15H4V13ZM7 13H9V15H7V13ZM14 13H12V15H14V13Z" fill="black"/>
</svg>
