<svg width="16" height="16" viewBox="0 0 16 16" fill="none" xmlns="http://www.w3.org/2000/svg">
<path fill-rule="evenodd" clip-rule="evenodd" d="M9.28442 1.7187C9.4266 1.95442 9.50118 2.22471 9.49999 2.49998C9.49901 2.80917 9.40236 3.11049 9.22332 3.36258C9.04428 3.61466 8.79161 3.80516 8.49999 3.90793V6.49998H7.49999V3.90768C7.24046 3.81592 7.01118 3.65451 6.83727 3.44113C6.66336 3.22775 6.55152 2.97063 6.514 2.69793C6.47648 2.42522 6.51472 2.14745 6.62455 1.89503C6.73437 1.64261 6.91154 1.42528 7.13664 1.26684C7.36175 1.1084 7.62611 1.01496 7.90078 0.996755C8.17545 0.978546 8.44984 1.03627 8.69389 1.16361C8.93794 1.29095 9.14224 1.48299 9.28442 1.7187ZM7.7222 2.91571C7.80443 2.97065 7.9011 2.99998 7.99999 2.99998C8.13256 2.99986 8.25967 2.94714 8.35341 2.8534C8.44715 2.75966 8.49987 2.63255 8.49999 2.49998C8.49999 2.40109 8.47066 2.30442 8.41572 2.22219C8.36078 2.13997 8.28269 2.07588 8.19133 2.03804C8.09996 2.00019 7.99943 1.99029 7.90244 2.00959C7.80545 2.02888 7.71636 2.0765 7.64643 2.14643C7.57651 2.21635 7.52889 2.30544 7.50959 2.40243C7.4903 2.49942 7.5002 2.59996 7.53805 2.69132C7.57589 2.78268 7.63998 2.86077 7.7222 2.91571ZM4.35 3.1426C4.44762 2.94238 4.49889 2.72275 4.5 2.5C4.5 2.20333 4.41203 1.91332 4.24721 1.66665C4.08238 1.41997 3.84811 1.22771 3.57403 1.11418C3.29994 1.00065 2.99834 0.970945 2.70737 1.02882C2.41639 1.0867 2.14912 1.22956 1.93934 1.43934C1.72956 1.64912 1.5867 1.91639 1.52882 2.20737C1.47094 2.49834 1.50065 2.79994 1.61418 3.07403C1.72771 3.34811 1.91997 3.58238 2.16665 3.74721C2.41332 3.91203 2.70333 4 3 4C3.22279 3.99887 3.44245 3.94746 3.6426 3.8496L5 5.20705V6.5H6V4.79295L4.35 3.1426ZM3 3C2.90111 3 2.80444 2.97068 2.72222 2.91574C2.63999 2.86079 2.5759 2.78271 2.53806 2.69134C2.50022 2.59998 2.49032 2.49945 2.50961 2.40246C2.5289 2.30547 2.57652 2.21637 2.64645 2.14645C2.71637 2.07652 2.80547 2.0289 2.90246 2.00961C2.99945 1.99032 3.09998 2.00022 3.19134 2.03806C3.28271 2.0759 3.36079 2.13999 3.41574 2.22222C3.47068 2.30444 3.5 2.40111 3.5 2.5C3.49988 2.63257 3.44716 2.75968 3.35342 2.85342C3.25968 2.94716 3.13257 2.99988 3 3ZM11 7.5H5V8.5H11V7.5ZM13 1C12.6023 1.00044 12.221 1.15861 11.9398 1.43982C11.6586 1.72103 11.5004 2.10231 11.5 2.5C11.5011 2.72275 11.5524 2.94238 11.65 3.1426L10 4.79295V6.5H11V5.20705L12.3574 3.8496C12.5575 3.94746 12.7772 3.99887 13 4C13.3978 4 13.7794 3.84196 14.0607 3.56066C14.342 3.27936 14.5 2.89782 14.5 2.5C14.5 2.10218 14.342 1.72064 14.0607 1.43934C13.7794 1.15804 13.3978 1 13 1ZM13 3C12.9011 3 12.8044 2.97068 12.7222 2.91573C12.64 2.86079 12.5759 2.7827 12.5381 2.69134C12.5002 2.59998 12.4903 2.49945 12.5096 2.40245C12.5289 2.30546 12.5765 2.21637 12.6464 2.14645C12.7164 2.07652 12.8055 2.0289 12.9025 2.00961C12.9994 1.99031 13.1 2.00022 13.1913 2.03806C13.2827 2.0759 13.3608 2.13999 13.4157 2.22221C13.4707 2.30444 13.5 2.40111 13.5 2.5C13.4999 2.63257 13.4472 2.75968 13.3534 2.85342C13.2597 2.94716 13.1326 2.99988 13 3ZM5 9.5H6V11.2071L4.35 12.8574C4.44762 13.0576 4.49889 13.2773 4.5 13.5C4.5 13.7967 4.41203 14.0867 4.24721 14.3334C4.08238 14.58 3.84811 14.7723 3.57403 14.8858C3.29994 14.9994 2.99834 15.0291 2.70737 14.9712C2.41639 14.9133 2.14912 14.7704 1.93934 14.5607C1.72956 14.3509 1.5867 14.0836 1.52882 13.7926C1.47094 13.5017 1.50065 13.2001 1.61418 12.926C1.72771 12.6519 1.91997 12.4176 2.16665 12.2528C2.41332 12.088 2.70333 12 3 12C3.22282 12.0011 3.44252 12.0525 3.6427 12.1504L5 10.7929V9.5ZM2.72222 13.9157C2.80444 13.9707 2.90111 14 3 14C3.13257 13.9999 3.25968 13.9472 3.35342 13.8534C3.44716 13.7597 3.49988 13.6326 3.5 13.5C3.5 13.4011 3.47068 13.3044 3.41574 13.2222C3.36079 13.14 3.28271 13.0759 3.19134 13.0381C3.09998 13.0002 2.99945 12.9903 2.90246 13.0096C2.80547 13.0289 2.71637 13.0765 2.64645 13.1464C2.57652 13.2164 2.5289 13.3055 2.50961 13.4025C2.49032 13.4994 2.50022 13.6 2.53806 13.6913C2.5759 13.7827 2.63999 13.8608 2.72222 13.9157ZM8.5 12.092V9.5H7.5V12.092C7.1664 12.21 6.88523 12.4421 6.70619 12.7473C6.52715 13.0525 6.46177 13.4112 6.52161 13.7599C6.58144 14.1087 6.76264 14.425 7.03317 14.6531C7.30371 14.8812 7.64616 15.0063 8 15.0063C8.35385 15.0063 8.6963 14.8812 8.96683 14.6531C9.23737 14.425 9.41856 14.1087 9.4784 13.7599C9.53824 13.4112 9.47286 13.0525 9.29382 12.7473C9.11478 12.4421 8.83361 12.21 8.5 12.092ZM8 14C7.90111 14 7.80444 13.9707 7.72222 13.9157C7.63999 13.8608 7.57591 13.7827 7.53806 13.6913C7.50022 13.6 7.49032 13.4994 7.50961 13.4025C7.5289 13.3055 7.57652 13.2164 7.64645 13.1464C7.71638 13.0765 7.80547 13.0289 7.90246 13.0096C7.99945 12.9903 8.09998 13.0002 8.19134 13.0381C8.28271 13.0759 8.3608 13.14 8.41574 13.2222C8.47068 13.3044 8.5 13.4011 8.5 13.5C8.49988 13.6326 8.44717 13.7597 8.35343 13.8534C8.25968 13.9472 8.13257 13.9999 8 14ZM12.3573 12.1504C12.5575 12.0525 12.7772 12.0011 13 12C13.2967 12 13.5867 12.088 13.8334 12.2528C14.08 12.4176 14.2723 12.6519 14.3858 12.926C14.4994 13.2001 14.5291 13.5017 14.4712 13.7926C14.4133 14.0836 14.2704 14.3509 14.0607 14.5607C13.8509 14.7704 13.5836 14.9133 13.2926 14.9712C13.0017 15.0291 12.7001 14.9994 12.426 14.8858C12.1519 14.7723 11.9176 14.58 11.7528 14.3334C11.588 14.0867 11.5 13.7967 11.5 13.5C11.5011 13.2773 11.5524 13.0576 11.65 12.8574L10 11.2071V9.5H11V10.7929L12.3573 12.1504ZM12.7222 13.9157C12.8044 13.9707 12.9011 14 13 14C13.1326 13.9999 13.2597 13.9472 13.3534 13.8534C13.4472 13.7597 13.4999 13.6326 13.5 13.5C13.5 13.4011 13.4707 13.3044 13.4157 13.2222C13.3608 13.14 13.2827 13.0759 13.1913 13.0381C13.1 13.0002 12.9994 12.9903 12.9025 13.0096C12.8055 13.0289 12.7164 13.0765 12.6464 13.1464C12.5765 13.2164 12.5289 13.3055 12.5096 13.4025C12.4903 13.4994 12.5002 13.6 12.5381 13.6913C12.5759 13.7827 12.64 13.8608 12.7222 13.9157Z" fill="black"/>
</svg>
