<svg width="16" height="16" viewBox="0 0 16 16" fill="none" xmlns="http://www.w3.org/2000/svg">
<path fill-rule="evenodd" clip-rule="evenodd" d="M6.88886 4.66294C7.21776 4.8827 7.60444 5 8 5C8.53025 4.99941 9.03861 4.7885 9.41356 4.41356C9.7885 4.03861 9.99941 3.53025 10 3C10 2.60444 9.8827 2.21776 9.66294 1.88886C9.44318 1.55996 9.13082 1.30362 8.76537 1.15224C8.39992 1.00087 7.99778 0.96126 7.60982 1.03843C7.22186 1.1156 6.86549 1.30608 6.58579 1.58579C6.30608 1.86549 6.1156 2.22186 6.03843 2.60982C5.96126 2.99778 6.00087 3.39992 6.15224 3.76537C6.30362 4.13082 6.55996 4.44318 6.88886 4.66294ZM7.44443 2.16853C7.60888 2.05865 7.80222 2 8 2C8.26513 2.00028 8.51932 2.10572 8.7068 2.2932C8.89428 2.48068 8.99972 2.73487 9 3C9 3.19778 8.94135 3.39112 8.83147 3.55557C8.72159 3.72002 8.56541 3.84819 8.38268 3.92388C8.19996 3.99957 7.99889 4.01937 7.80491 3.98079C7.61093 3.9422 7.43275 3.84696 7.29289 3.70711C7.15304 3.56726 7.0578 3.38907 7.01922 3.19509C6.98063 3.00111 7.00043 2.80004 7.07612 2.61732C7.15181 2.43459 7.27998 2.27841 7.44443 2.16853ZM12.5 8H8.5V6H7.5V8H3.5C3.23488 8.0003 2.9807 8.10576 2.79323 8.29323C2.60576 8.4807 2.5003 8.73488 2.5 9V12H3.5V9H7.5V12H8.5V9H12.5V12H13.5V9C13.4997 8.73488 13.3942 8.4807 13.2068 8.29323C13.0193 8.10576 12.7651 8.0003 12.5 8ZM4 13H2V15H4V13ZM9 13H7V15H9V13ZM12 13H14V15H12V13Z" fill="black"/>
</svg>
