<svg width="16" height="16" viewBox="0 0 16 16" fill="none" xmlns="http://www.w3.org/2000/svg">
<path fill-rule="evenodd" clip-rule="evenodd" d="M4.11288 2.61287C5.14394 1.5818 6.54186 1.00177 8.00001 1C9.45815 1.00177 10.8561 1.5818 11.8871 2.61287C12.9182 3.64394 13.4982 5.04185 13.5 6.5C13.5018 7.69109 13.1128 8.84987 12.3926 9.7986L12.3919 9.7998C12.3919 9.7998 12.2417 9.99705 12.2195 10.0237L8.00001 15L3.78226 10.0259C3.75816 9.99725 3.60816 9.8 3.60816 9.8C2.88758 8.85092 2.49828 7.69163 2.50001 6.5C2.50178 5.04185 3.08181 3.64394 4.11288 2.61287ZM8.83336 4.2528C8.58669 4.08797 8.29668 4 8.00001 4C7.60231 4.00044 7.22104 4.15861 6.93983 4.43982C6.65862 4.72103 6.50044 5.10231 6.50001 5.5C6.50001 5.79667 6.58798 6.08668 6.7528 6.33336C6.91762 6.58003 7.15189 6.77229 7.42598 6.88582C7.70007 6.99935 8.00167 7.02906 8.29264 6.97118C8.58361 6.9133 8.85089 6.77044 9.06067 6.56066C9.27044 6.35088 9.41331 6.08361 9.47118 5.79264C9.52906 5.50166 9.49936 5.20006 9.38583 4.92597C9.27229 4.65189 9.08003 4.41762 8.83336 4.2528ZM9.00001 9.5H10V8.5C9.9997 8.23488 9.89425 7.9807 9.70678 7.79323C9.51931 7.60576 9.26513 7.5003 9.00001 7.5H7.00001C6.73488 7.5003 6.48071 7.60576 6.29324 7.79323C6.10576 7.9807 6.00031 8.23488 6.00001 8.5V9.5H7.00001V8.5H9.00001V9.5ZM8.5 5.5C8.5 5.77614 8.27614 6 8 6C7.72386 6 7.5 5.77614 7.5 5.5C7.5 5.22386 7.72386 5 8 5C8.27614 5 8.5 5.22386 8.5 5.5Z" fill="black"/>
</svg>
