<svg width="16" height="16" viewBox="0 0 16 16" fill="none" xmlns="http://www.w3.org/2000/svg">
<path d="M8 1C6.54186 1.00177 5.14394 1.5818 4.11287 2.61287C3.08181 3.64394 2.50177 5.04185 2.5 6.5C2.49828 7.69163 2.88757 8.85092 3.60815 9.8C3.60815 9.8 3.75815 9.99725 3.78225 10.0259L8 15L12.2195 10.0237C12.2417 9.99705 12.3919 9.7998 12.3919 9.7998L12.3926 9.7986C13.1128 8.84987 13.5018 7.69109 13.5 6.5C13.4982 5.04185 12.9182 3.64394 11.8871 2.61287C10.8561 1.5818 9.45815 1.00177 8 1ZM9.8 9L8 7.85425L6.2 9L6.5 6.9629L5 5.58645L7.1 5.33325L8 3.5L8.9558 5.33325L11 5.58645L9.5 6.9629L9.8 9Z" fill="black"/>
</svg>
