<svg width="16" height="16" viewBox="0 0 16 16" fill="none" xmlns="http://www.w3.org/2000/svg">
<path fill-rule="evenodd" clip-rule="evenodd" d="M3.78226 10.0257L8.00001 15L12.2195 10.0236C12.2419 9.9971 12.3919 9.7999 12.3919 9.7999L12.3926 9.79865C13.1128 8.84991 13.5018 7.69111 13.5 6.5C13.5 5.04131 12.9205 3.64236 11.8891 2.61091C10.8576 1.57946 9.4587 1 8.00001 1C6.54131 1 5.14237 1.57946 4.11092 2.61091C3.07947 3.64236 2.50001 5.04131 2.50001 6.5C2.49832 7.6916 2.88761 8.85084 3.60816 9.7999C3.60816 9.7999 3.75831 9.9971 3.78226 10.0257ZM4.43028 9.22905C4.41601 9.21025 4.4064 9.1976 4.40626 9.1975C3.81725 8.42167 3.4989 7.47409 3.50001 6.5C3.50001 5.30653 3.97411 4.16193 4.81802 3.31802C5.66194 2.47411 6.80653 2 8.00001 2C9.19348 2 10.3381 2.47411 11.182 3.31802C12.0259 4.16193 12.5 5.30653 12.5 6.5C12.5012 7.47356 12.183 8.42064 11.5944 9.1961C11.5942 9.1965 11.477 9.35135 11.455 9.37895L8.00001 13.4539L4.54956 9.3847C4.53057 9.36107 4.46591 9.27594 4.43028 9.22905ZM8.63373 4.60486C8.79758 4.53566 8.97364 4.5 9.15151 4.5C9.32936 4.50001 9.50541 4.53567 9.66925 4.60487C9.83309 4.67407 9.9814 4.77541 10.1054 4.9029C10.3585 5.16401 10.5 5.51337 10.5 5.877C10.5 6.24063 10.3585 6.58999 10.1054 6.8511L8.00096 9L5.89461 6.8511C5.64152 6.58999 5.5 6.24063 5.5 5.877C5.5 5.51337 5.64152 5.16401 5.89461 4.9029C6.01862 4.77541 6.16693 4.67406 6.33077 4.60486C6.49462 4.53566 6.67067 4.50001 6.84853 4.50001C7.02639 4.50001 7.20244 4.53566 7.36629 4.60486C7.53013 4.67406 7.67844 4.77541 7.80246 4.9029L8.00096 5.1056L8.19756 4.9029C8.32157 4.7754 8.46989 4.67406 8.63373 4.60486Z" fill="black"/>
</svg>
