<svg width="16" height="16" viewBox="0 0 16 16" fill="none" xmlns="http://www.w3.org/2000/svg">
<path fill-rule="evenodd" clip-rule="evenodd" d="M3.78226 10.0257L8.00001 15L12.2195 10.0236C12.2419 9.9971 12.3919 9.7999 12.3919 9.7999L12.3926 9.79865C13.1128 8.84991 13.5018 7.69111 13.5 6.5C13.5 5.04131 12.9205 3.64236 11.8891 2.61091C10.8576 1.57946 9.4587 1 8.00001 1C6.54131 1 5.14237 1.57946 4.11092 2.61091C3.07947 3.64236 2.50001 5.04131 2.50001 6.5C2.49832 7.6916 2.88761 8.85084 3.60816 9.7999C3.60816 9.7999 3.75831 9.9971 3.78226 10.0257ZM4.43028 9.22905C4.41601 9.21025 4.4064 9.1976 4.40626 9.1975C3.81725 8.42167 3.4989 7.47409 3.50001 6.5C3.50001 5.30653 3.97411 4.16193 4.81802 3.31802C5.66194 2.47411 6.80653 2 8.00001 2C9.19348 2 10.3381 2.47411 11.182 3.31802C12.0259 4.16193 12.5 5.30653 12.5 6.5C12.5012 7.47356 12.183 8.42064 11.5944 9.1961C11.5942 9.1965 11.477 9.35135 11.455 9.37895L8.00001 13.4539L4.54956 9.3847C4.53057 9.36107 4.46591 9.27594 4.43028 9.22905ZM8.5 3.5H7.5V8H8.5V3.5ZM8 11C8.41422 11 8.75 10.6642 8.75 10.25C8.75 9.83579 8.41422 9.5 8 9.5C7.58579 9.5 7.25 9.83579 7.25 10.25C7.25 10.6642 7.58579 11 8 11Z" fill="black"/>
</svg>
