<svg width="16" height="16" viewBox="0 0 16 16" fill="none" xmlns="http://www.w3.org/2000/svg">
<path d="M2 6.49173C1.99837 6.59306 2.02756 6.6925 2.08372 6.77686C2.13987 6.86123 2.22034 6.92653 2.31445 6.96413L7.1152 8.88458L9.03555 13.6855C9.07266 13.7784 9.13674 13.858 9.21954 13.914C9.30233 13.9701 9.40002 14 9.5 14H9.5081C9.60935 13.9983 9.70771 13.9659 9.79017 13.9072C9.87264 13.8484 9.93535 13.766 9.97 13.6709L13.97 2.67053C14.0026 2.58108 14.0089 2.48419 13.9883 2.39125C13.9677 2.2983 13.921 2.21318 13.8537 2.14587C13.7864 2.07856 13.7012 2.03188 13.6083 2.01129C13.5153 1.99071 13.4184 1.99709 13.329 2.02968L2.329 6.02968C2.23386 6.06437 2.15148 6.12711 2.09274 6.2096C2.034 6.2921 2.00167 6.39047 2 6.49173Z" fill="black"/>
</svg>
