<svg width="16" height="16" viewBox="0 0 16 16" fill="none" xmlns="http://www.w3.org/2000/svg">
<path fill-rule="evenodd" clip-rule="evenodd" d="M1.67077 1.03016L12.6708 5.03016L12.671 5.03001C12.7663 5.0646 12.8488 5.12731 12.9076 5.20984C12.9664 5.29237 12.9987 5.39081 13.0003 5.49213C13.0019 5.59345 12.9726 5.69286 12.9164 5.7772C12.8603 5.86153 12.7798 5.9268 12.6857 5.96436L7.88487 7.88476L5.96422 12.6857C5.92712 12.7785 5.86305 12.8581 5.78028 12.9142C5.69751 12.9702 5.59984 13.0002 5.49987 13.0002H5.49182C5.39055 12.9985 5.29218 12.9661 5.2097 12.9073C5.12722 12.8485 5.06451 12.7661 5.02987 12.6709L1.02987 1.67091C0.997342 1.58147 0.991012 1.48461 1.01163 1.3917C1.03224 1.29879 1.07894 1.21369 1.14624 1.14641C1.21355 1.07912 1.29865 1.03244 1.39157 1.01185C1.48448 0.991253 1.58134 0.997605 1.67077 1.03016ZM7.11512 7.11516L7.31407 7.03561L11.098 5.52221L2.33582 2.33591L5.52212 11.098L7.03557 7.31411L7.11512 7.11516ZM12 12C11.6044 12 11.2177 11.8827 10.8888 11.6629C10.5599 11.4432 10.3036 11.1308 10.1522 10.7654C10.0009 10.3999 9.96124 9.99778 10.0384 9.60982C10.1156 9.22186 10.3061 8.86549 10.5858 8.58579C10.8655 8.30608 11.2218 8.1156 11.6098 8.03843C11.9978 7.96126 12.3999 8.00087 12.7654 8.15224C13.1308 8.30362 13.4432 8.55996 13.6629 8.88886C13.8827 9.21776 14 9.60444 14 10C13.9994 10.5303 13.7885 11.0386 13.4136 11.4136C13.0386 11.7886 12.5302 11.9994 12 12ZM12 9C11.8022 9 11.6089 9.05865 11.4444 9.16853C11.28 9.27841 11.1518 9.43459 11.0761 9.61732C11.0004 9.80004 10.9806 10.0011 11.0192 10.1951C11.0578 10.3891 11.153 10.5673 11.2929 10.7071C11.4327 10.847 11.6109 10.9422 11.8049 10.9808C11.9989 11.0194 12.1999 10.9996 12.3827 10.9239C12.5654 10.8482 12.7216 10.72 12.8315 10.5556C12.9413 10.3911 13 10.1978 13 10C12.9997 9.73488 12.8942 9.4807 12.7068 9.29323C12.5193 9.10576 12.2651 9.00031 12 9ZM8.99998 15H9.99998V14C10.0001 13.8674 10.0528 13.7403 10.1466 13.6466C10.2403 13.5528 10.3674 13.5001 10.5 13.5H13.5C13.6326 13.5001 13.7597 13.5528 13.8534 13.6466C13.9471 13.7403 13.9999 13.8674 14 14V15H15V14C14.9995 13.6023 14.8414 13.221 14.5602 12.9398C14.279 12.6586 13.8977 12.5004 13.5 12.5H10.5C10.1023 12.5004 9.72102 12.6586 9.43981 12.9398C9.1586 13.221 9.00042 13.6023 8.99998 14V15Z" fill="black"/>
</svg>
