<svg width="16" height="16" viewBox="0 0 16 16" fill="none" xmlns="http://www.w3.org/2000/svg">
<path fill-rule="evenodd" clip-rule="evenodd" d="M13.5 9V11H15V15H11V11H12.5V9H8.5V11H10V15H6V11H7.5V9H3.5V11H5V15H1V11H2.5V9C2.5 8.73478 2.60536 8.48043 2.79289 8.29289C2.98043 8.10536 3.23478 8 3.5 8H7.5V6H3C2.73478 6 2.48043 5.89464 2.29289 5.70711C2.10536 5.51957 2 5.26522 2 5V2C2 1.73478 2.10536 1.48043 2.29289 1.29289C2.48043 1.10536 2.73478 1 3 1H13C13.2652 1 13.5196 1.10536 13.7071 1.29289C13.8946 1.48043 14 1.73478 14 2V5C14 5.26522 13.8946 5.51957 13.7071 5.70711C13.5196 5.89464 13.2652 6 13 6H8.5V8H12.5C12.7652 8 13.0196 8.10536 13.2071 8.29289C13.3946 8.48043 13.5 8.73478 13.5 9ZM2 12V14H4V12H2ZM9 14V12H7V14H9ZM3 2V5H13V2H3ZM12 12V14H14V12H12ZM5 3.5C5 3.77614 4.77614 4 4.5 4C4.22386 4 4 3.77614 4 3.5C4 3.22386 4.22386 3 4.5 3C4.77614 3 5 3.22386 5 3.5Z" fill="black"/>
</svg>
