<svg width="16" height="16" viewBox="0 0 16 16" fill="none" xmlns="http://www.w3.org/2000/svg">
<path fill-rule="evenodd" clip-rule="evenodd" d="M5.41404 2H10.5859C11.0408 2 11.477 2.18069 11.7986 2.50231C12.1202 2.82394 12.3009 3.26015 12.3009 3.715H5.41404V10.835H3.69904V3.715C3.69904 3.26015 3.87972 2.82394 4.20135 2.50231C4.52297 2.18069 4.95919 2 5.41404 2ZM10.5859 14H5.41404C4.95919 14 4.52297 13.8193 4.20135 13.4977C3.87972 13.176 3.69904 12.7398 3.69904 12.285H10.5859V5.16528H12.3009V12.285C12.3009 12.7398 12.1202 13.176 11.7986 13.4977C11.477 13.8193 11.0408 14 10.5859 14Z" fill="black"/>
</svg>
