<svg width="16" height="16" viewBox="0 0 16 16" fill="none" xmlns="http://www.w3.org/2000/svg">
<path fill-rule="evenodd" clip-rule="evenodd" d="M6.32157 1.13629C6.84881 1.0462 7.38269 1.00062 7.91757 1.00004C8.50036 0.996749 9.0824 1.04236 9.65757 1.13639C10.0963 1.18151 10.5048 1.3807 10.8106 1.69856C11.1163 2.01643 11.2995 2.43239 11.3276 2.87254V6.05284C11.3295 6.27397 11.2878 6.49331 11.2049 6.69831C11.122 6.90332 10.9995 7.08997 10.8444 7.24759C10.6893 7.40522 10.5046 7.53072 10.301 7.61694C10.0973 7.70315 9.8787 7.74838 9.65757 7.75004H6.32152C5.77298 7.7592 5.2493 7.9804 4.8603 8.36726C4.4713 8.75411 4.24721 9.27657 4.23502 9.82504V11.3512H3.08662C2.11602 11.3512 1.54902 10.6466 1.31162 9.65784C0.998096 8.54808 0.998096 7.37316 1.31162 6.26339C1.40397 5.78046 1.66399 5.34569 2.04577 5.03585C2.42754 4.72601 2.90652 4.56103 3.39812 4.57004H7.99157V4.14549H4.65157V2.87244C4.65157 1.90864 4.90817 1.38599 6.32157 1.13629ZM6.46742 2.12628C6.36149 2.05761 6.23754 2.02199 6.11132 2.02394C5.94365 2.02581 5.78356 2.09403 5.6661 2.21369C5.54864 2.33335 5.48338 2.49467 5.48462 2.66234C5.485 2.78858 5.52291 2.91185 5.59352 3.01649C5.66413 3.12113 5.76426 3.20241 5.88118 3.25C5.9981 3.29759 6.12653 3.30934 6.25015 3.28376C6.37377 3.25818 6.48699 3.19643 6.57542 3.10635C6.66385 3.01626 6.7235 2.90192 6.74679 2.77785C6.77008 2.65378 6.75595 2.52559 6.70621 2.40957C6.65646 2.29355 6.57334 2.19494 6.46742 2.12628ZM11.7441 6.05318V4.57003L12.9976 4.56958C13.9695 4.56958 14.4276 5.29658 14.6676 6.26293C15.0103 7.36846 15.0103 8.55185 14.6676 9.65738C14.33 10.6736 13.9683 11.3507 12.9976 11.3507H7.99152V11.775H11.3276V13.0484C11.3276 14.0122 10.4985 14.5022 9.65762 14.7456C8.57154 15.0853 7.40764 15.0853 6.32157 14.7456C5.43867 14.4859 4.65157 13.9534 4.65157 13.0484V9.86803C4.6532 9.42309 4.82882 8.99644 5.14089 8.67928C5.45296 8.36212 5.87671 8.17962 6.32157 8.17078H9.65762C10.2118 8.15641 10.7389 7.92774 11.128 7.53283C11.5171 7.13792 11.7379 6.60754 11.7441 6.05318ZM10.2243 12.7264C10.1183 12.6576 9.9942 12.6219 9.86782 12.6238C9.78499 12.6243 9.70308 12.6411 9.62675 12.6733C9.55042 12.7054 9.48118 12.7523 9.42298 12.8112C9.36478 12.8701 9.31876 12.94 9.28755 13.0167C9.25635 13.0934 9.24057 13.1755 9.24112 13.2583C9.24072 13.3847 9.27797 13.5084 9.34812 13.6135C9.41826 13.7187 9.51812 13.8006 9.63497 13.8488C9.75183 13.897 9.88038 13.9093 10.0043 13.8841C10.1281 13.859 10.2417 13.7975 10.3305 13.7076C10.4194 13.6177 10.4794 13.5033 10.503 13.3792C10.5266 13.255 10.5127 13.1266 10.4631 13.0104C10.4135 12.8941 10.3303 12.7953 10.2243 12.7264Z" fill="black"/>
</svg>
