<svg width="16" height="16" viewBox="0 0 16 16" fill="none" xmlns="http://www.w3.org/2000/svg">
<path fill-rule="evenodd" clip-rule="evenodd" d="M10.865 11.8551H11.245C10.9255 11.0393 10.6893 10.1933 10.54 9.33005C10.2761 8.07666 9.91327 6.84614 9.455 5.65005C9.19824 4.98381 8.76971 4.3974 8.21293 3.9504C7.65616 3.5034 6.99099 3.21174 6.285 3.10505C5.12791 2.91357 3.95777 2.8116 2.785 2.80005H1C1.61942 3.17898 2.12141 3.72252 2.45 4.37005C2.68 4.75005 2.895 5.13005 3.09 5.53005C3.35639 6.07115 3.61931 6.61398 3.88237 7.1571C4.25132 7.91884 4.62055 8.68115 5 9.44005C5.32182 10.1402 5.75024 10.7862 6.27 11.3551C6.42286 11.5204 6.60971 11.6508 6.81772 11.7371C7.02573 11.8234 7.24996 11.8636 7.475 11.8551H10.865ZM13.1216 12.7826C13.3727 13.0246 13.7019 13.169 14.05 13.19C14.3668 13.2151 14.6854 13.205 15 13.16V11.815C15 11.815 15 11.845 14.75 11.845C14.365 11.855 14.21 11.695 14.165 11.305C14.1549 11.1135 14.1549 10.9215 14.165 10.73V10.73C14.155 9.36499 14.145 8 14 6.64C13.9614 6.08698 13.847 5.54188 13.66 5.02C13.58 4.815 13.485 4.63 13.215 4.63H11.89C12.1237 4.91528 12.268 5.26312 12.305 5.63C12.5067 6.88328 12.6087 8.15059 12.61 9.42C12.5857 10.2373 12.6091 11.0554 12.68 11.87C12.7139 12.2171 12.8705 12.5407 13.1216 12.7826Z" fill="black"/>
</svg>
