<svg width="16" height="16" viewBox="0 0 16 16" fill="none" xmlns="http://www.w3.org/2000/svg">
<path d="M13.955 8.93998C14.0054 8.6292 14.0305 8.31483 14.03 7.99999C14.03 6.40073 13.3947 4.86698 12.2639 3.73613C11.133 2.60529 9.59929 1.96998 8.00003 1.96998C7.68518 1.9695 7.37082 1.99458 7.06003 2.04498C6.36307 1.62749 5.5466 1.45481 4.74028 1.55436C3.93396 1.65392 3.18402 2.02 2.60953 2.59449C2.03505 3.16897 1.66896 3.91892 1.56941 4.72524C1.46985 5.53155 1.64253 6.34802 2.06003 7.04498C2.00378 7.3603 1.97368 7.67972 1.97003 7.99999C1.97003 9.59924 2.60533 11.133 3.73618 12.2638C4.86702 13.3947 6.40077 14.03 8.00003 14.03C8.31488 14.0305 8.62924 14.0054 8.94003 13.955C9.63699 14.3725 10.4535 14.5452 11.2598 14.4456C12.0661 14.3461 12.816 13.98 13.3905 13.4055C13.965 12.831 14.3311 12.0811 14.4307 11.2747C14.5302 10.4684 14.3575 9.65195 13.94 8.95499L13.955 8.93998ZM10.865 10.74C10.5828 11.1302 10.1939 11.4305 9.74503 11.605C9.19122 11.8223 8.59982 11.9277 8.00503 11.915C7.31271 11.944 6.62396 11.8014 6.00003 11.5C5.63627 11.3044 5.32433 11.0251 5.09003 10.685C4.87541 10.3945 4.75342 10.0459 4.74003 9.68499C4.7395 9.59133 4.75833 9.49858 4.79532 9.41254C4.83232 9.3265 4.88669 9.24903 4.95503 9.18499C5.10647 9.0561 5.30142 8.98992 5.50003 8.99999C5.66601 8.99685 5.82755 9.05365 5.95503 9.15999C6.09457 9.29052 6.20233 9.4513 6.27003 9.62999C6.35678 9.83879 6.46752 10.0368 6.60003 10.22C6.7321 10.3891 6.90383 10.5231 7.10003 10.61C7.36652 10.7243 7.65531 10.7773 7.94503 10.765C8.35769 10.785 8.76641 10.6767 9.11503 10.455C9.24882 10.3766 9.36009 10.265 9.43806 10.131C9.51602 9.99693 9.55804 9.84503 9.56003 9.68999C9.56435 9.58141 9.54565 9.47316 9.50514 9.37233C9.46464 9.27151 9.40326 9.18039 9.32503 9.10498C9.14699 8.94097 8.93291 8.82108 8.70003 8.75499C8.44003 8.66999 8.09503 8.58498 7.66003 8.48998C7.16044 8.37368 6.6732 8.20959 6.20503 7.99999C5.83664 7.849 5.51181 7.60839 5.26003 7.29998C5.02123 6.9821 4.89778 6.59238 4.91003 6.19498C4.90599 5.79099 5.03612 5.39707 5.28003 5.07498C5.55862 4.72886 5.92963 4.4688 6.35003 4.32498C6.8816 4.14843 7.44019 4.06718 8.00003 4.08498C8.43808 4.07724 8.87475 4.13625 9.29503 4.25998C9.62486 4.35792 9.93468 4.51367 10.21 4.71998C10.4267 4.88274 10.6072 5.08876 10.74 5.32498C10.8481 5.5158 10.9066 5.73071 10.91 5.94998C10.9094 6.04346 10.89 6.13586 10.8531 6.22174C10.8162 6.30761 10.7624 6.38522 10.695 6.44998C10.627 6.52371 10.5442 6.58229 10.452 6.62192C10.3598 6.66155 10.2604 6.68133 10.16 6.67998C9.99919 6.6925 9.83974 6.64234 9.71503 6.53998C9.58383 6.41357 9.47406 6.26665 9.39003 6.10498C9.2662 5.85015 9.08679 5.62633 8.86503 5.44998C8.57401 5.26856 8.23145 5.18775 7.89003 5.21998C7.53957 5.20521 7.19231 5.29203 6.89003 5.46998C6.78023 5.52862 6.6875 5.61471 6.6209 5.71987C6.5543 5.82503 6.5161 5.94566 6.51003 6.06998C6.50607 6.20583 6.55036 6.33868 6.63503 6.44498C6.73475 6.56053 6.85733 6.65416 6.99503 6.71998C7.14167 6.79584 7.29585 6.85617 7.45503 6.89998C7.61503 6.94498 7.87503 7.00998 8.24003 7.09498C8.70003 7.19498 9.11003 7.30499 9.48503 7.42498C9.82046 7.52718 10.1402 7.67525 10.435 7.86498C10.6922 8.02765 10.9039 8.25305 11.05 8.51999C11.1986 8.82444 11.2674 9.16165 11.25 9.49999C11.2545 9.94341 11.1199 10.3771 10.865 10.74Z" fill="black"/>
</svg>
