<svg width="16" height="16" viewBox="0 0 16 16" fill="none" xmlns="http://www.w3.org/2000/svg">
<path d="M13.2306 7.89841C13.1696 7.14861 12.9697 6.41671 12.641 5.74001L14.5 5.06501C14.3534 4.76136 14.1814 4.47063 13.9859 4.19591L13.1144 4.51341C12.353 3.44621 11.2628 2.65804 10.0107 2.26963C8.75863 1.88122 7.41373 1.91398 6.18205 2.36291C4.95037 2.81184 3.89981 3.65217 3.19132 4.75517C2.48283 5.85818 2.15547 7.16304 2.25939 8.46986L3.13324 8.14926C3.16096 8.48402 3.2163 8.81592 3.29869 9.14156L1.44189 9.81921C1.6256 10.5483 1.9431 11.2369 2.37824 11.85L3.36139 11.4919L3.36269 11.4938C3.95925 12.3337 4.76389 13.0041 5.69769 13.4393C7.14001 14.1096 8.78931 14.1805 10.2839 13.6365C11.7784 13.0924 12.9961 11.9778 13.67 10.5372C14.1074 9.60241 14.2935 8.56979 14.21 7.54116L13.2306 7.89841ZM11.7706 9.64676C11.3336 10.5828 10.5431 11.3072 9.57257 11.661C8.60206 12.0148 7.53082 11.9691 6.59394 11.534C6.16961 11.3362 5.78478 11.063 5.45824 10.7276L4.46594 11.0893C3.93289 10.5399 3.57236 9.84647 3.42884 9.09456L3.42929 9.09416L5.29139 8.41586C5.2252 8.07589 5.20449 7.72863 5.22979 7.38321L4.35394 7.70131C4.40038 7.07286 4.59893 6.46514 4.93248 5.9305C5.26604 5.39586 5.7246 4.95035 6.26864 4.63235C6.81268 4.31436 7.42588 4.13343 8.0554 4.10515C8.68492 4.07686 9.31188 4.20208 9.88224 4.47001H9.88559C10.3087 4.66863 10.6923 4.94221 11.0179 5.27751L11.89 4.96051C12.1306 5.20807 12.3372 5.48647 12.5045 5.78841L10.6495 6.46816C11.0234 7.13601 11.1932 7.89887 11.1378 8.66226L12.122 8.30471C12.0874 8.7697 11.9683 9.22449 11.7705 9.64676H11.7706Z" fill="black"/>
</svg>
