<svg width="16" height="16" viewBox="0 0 16 16" fill="none" xmlns="http://www.w3.org/2000/svg">
<path fill-rule="evenodd" clip-rule="evenodd" d="M13.9544 1.285C13.9544 1.33914 13.9408 1.39242 13.915 1.44L9.42502 9.36L12.27 14.56C12.2972 14.6071 12.3116 14.6606 12.3116 14.715C12.3116 14.7694 12.2972 14.8229 12.27 14.87C12.2407 14.9138 12.2002 14.949 12.1528 14.9718C12.1053 14.9947 12.0525 15.0044 12 15H10C9.87964 14.9961 9.76291 14.9577 9.66366 14.8895C9.56441 14.8212 9.4868 14.726 9.44002 14.615L6.57002 9.35C6.72002 9.1 11.07 1.385 11.07 1.385C11.1117 1.27448 11.1852 1.17885 11.2814 1.11029C11.3776 1.04173 11.492 1.00333 11.61 1H13.65C13.7016 0.997471 13.7529 1.00807 13.7993 1.03081C13.8456 1.05355 13.8855 1.08767 13.915 1.13C13.9408 1.17758 13.9544 1.23086 13.9544 1.285ZM5.4838 3.87135C5.58408 3.9388 5.66266 4.03387 5.71001 4.14505L7.07501 6.56505L4.89501 10.42C4.85182 10.5319 4.77662 10.6286 4.67879 10.6979C4.58097 10.7673 4.46487 10.8063 4.34501 10.81H2.34501C2.29311 10.8121 2.2416 10.8002 2.19586 10.7756C2.15012 10.751 2.11184 10.7145 2.08501 10.67C2.05679 10.6233 2.04187 10.5697 2.04187 10.515C2.04187 10.4604 2.05679 10.4068 2.08501 10.36L4.23501 6.56505L2.87001 4.20005C2.84329 4.15276 2.82924 4.09937 2.82924 4.04505C2.82924 3.99073 2.84329 3.93734 2.87001 3.89005C2.90231 3.84851 2.94421 3.81543 2.99211 3.79366C3.04001 3.77188 3.09248 3.76207 3.14501 3.76505H5.14501C5.26585 3.76698 5.38353 3.80391 5.4838 3.87135Z" fill="black"/>
</svg>
