<svg width="16" height="16" viewBox="0 0 16 16" fill="none" xmlns="http://www.w3.org/2000/svg">
<path d="M5.96 12.47C6.80457 12.4753 7.64179 12.3129 8.4231 11.9922C9.20441 11.6714 9.91425 11.1987 10.5115 10.6015C11.1087 10.0043 11.5814 9.29444 11.9021 8.51313C12.2229 7.73182 12.3853 6.8946 12.38 6.05003C12.38 5.95003 12.38 5.85503 12.38 5.75503C12.8178 5.43428 13.1967 5.04012 13.5 4.59003C13.0878 4.77033 12.6516 4.88991 12.205 4.94503C12.6785 4.66292 13.0337 4.21887 13.205 3.69503C12.7638 3.95975 12.2799 4.14585 11.775 4.24503C11.435 3.88272 10.985 3.64256 10.4947 3.56173C10.0045 3.48089 9.50122 3.56388 9.06287 3.79786C8.62452 4.03184 8.27549 4.40376 8.0698 4.85607C7.86411 5.30839 7.81322 5.81588 7.925 6.30003C7.02801 6.25601 6.15036 6.02354 5.34918 5.61779C4.548 5.21203 3.84127 4.64207 3.275 3.94503C2.98946 4.44062 2.90291 5.0262 3.03288 5.58319C3.16285 6.14019 3.49962 6.62699 3.975 6.94503C3.62431 6.93151 3.28173 6.83559 2.975 6.66503V6.69003C2.97188 7.20795 3.14636 7.71129 3.46935 8.11617C3.79234 8.52104 4.24434 8.803 4.75 8.91503C4.42382 9.00276 4.08215 9.01643 3.75 8.95503C3.89639 9.39673 4.17584 9.78232 4.55002 10.0589C4.9242 10.3355 5.3748 10.4896 5.84 10.5C5.04461 11.1403 4.05605 11.4927 3.035 11.5C2.85598 11.4949 2.67737 11.4798 2.5 11.455C3.53348 12.1135 4.7346 12.4606 5.96 12.455" fill="black"/>
</svg>
