<svg width="16" height="16" viewBox="0 0 16 16" fill="none" xmlns="http://www.w3.org/2000/svg">
<g clip-path="url(#clip0_3_12063)">
<path fill-rule="evenodd" clip-rule="evenodd" d="M10.2489 6.78715L11.2066 9.5549C11.3219 9.89585 11.5525 10.0514 11.8183 10.0514H11.8534C12.1241 10.0514 12.3548 9.89595 12.4551 9.57505L13.0868 7.5995L13.7086 9.57505C13.8139 9.89595 14.0395 10.0514 14.3103 10.0514H14.3454C14.6162 10.0514 14.8468 9.90095 14.9621 9.555L15.9649 6.7421C15.98 6.69195 16 6.59165 16 6.51645C16 6.24065 15.7844 6.005 15.4786 6.005C15.1828 6.005 15.0173 6.19555 14.9421 6.4312L14.3253 8.43685L13.7036 6.44625C13.6234 6.1855 13.4178 6 13.132 6H13.0668C12.781 6 12.5754 6.1805 12.4952 6.44625L11.8784 8.4318L11.2767 6.4412C11.1965 6.1855 11.011 6.01 10.7352 6.01C10.4043 6.01 10.1987 6.2607 10.1987 6.5164C10.1987 6.61165 10.2288 6.72195 10.2489 6.78715ZM0.320953 6.05087C0.612353 5.92247 0.923503 6.04592 1.04695 6.32252L2.0348 8.67337L2.8102 6.84102C3.07195 6.23847 3.5016 6.00142 4.0449 6.00142C4.39555 6.00142 4.81535 6.19897 5.06725 6.52002C5.06725 6.52002 5.6056 6.00142 6.218 6.00142C6.79585 6.00142 7.14155 6.19897 7.3885 6.52002C7.3885 6.52002 7.8577 6.00142 8.60345 6.00142C9.3492 6.00142 9.9715 6.53977 9.9715 7.31517V9.41912C9.9715 9.76487 9.76905 10.0513 9.3986 10.0513C9.02815 10.0513 8.83555 9.76482 8.83555 9.41912V7.57197C8.83555 7.22127 8.60345 6.98422 8.2577 6.98422C7.91195 6.98422 7.65515 7.21637 7.65515 7.57197V9.41912C7.65515 9.76487 7.4527 10.0513 7.08225 10.0513C6.7118 10.0513 6.5192 9.76482 6.5192 9.41912V7.57197C6.5192 7.22127 6.2871 6.98422 5.94135 6.98422C5.5956 6.98422 5.3388 7.21637 5.3388 7.57197V9.41912C5.3388 9.76487 5.13635 10.0513 4.7659 10.0513C4.39545 10.0513 4.20285 9.76482 4.20285 9.41912V7.15712C4.20285 7.05837 4.1288 6.98427 4.03495 6.98427C3.9263 6.98427 3.89175 7.05837 3.88185 7.08307C3.87195 7.10777 2.8101 9.41917 2.8101 9.41917C2.62245 9.81432 2.44465 10.0514 2.03965 10.0514C1.6643 10.0514 1.4618 9.83402 1.2692 9.41917L0.0542531 6.77687C-0.0741469 6.50032 0.0295531 6.17927 0.320953 6.05087Z" fill="black"/>
</g>
<defs>
<clipPath id="clip0_3_12063">
<rect width="16" height="16" fill="white"/>
</clipPath>
</defs>
</svg>
