<svg width="16" height="16" viewBox="0 0 16 16" fill="none" xmlns="http://www.w3.org/2000/svg">
<path d="M8.04998 1.60001L11.9 2.05001C12 2.05001 12.05 2.10001 12.1 2.15001L14.95 6.00001C15.05 6.10001 15.05 6.25001 14.95 6.35001L8.14998 14.35C8.09998 14.4 7.99998 14.4 7.94998 14.35L1.14998 6.35001C0.999984 6.25001 0.999984 6.10001 1.04998 6.00001L3.89998 2.15001C3.94998 2.10001 3.99998 2.05001 4.09998 2.05001L7.94998 1.60001C7.99998 1.60001 7.99998 1.60001 8.04998 1.60001ZM8.84998 2.40001C8.84998 2.40001 8.79998 2.40001 8.74998 2.40001C8.74998 2.40001 8.69998 2.45001 8.74998 2.50001L10.9 5.20001C10.9 5.25001 10.95 5.25001 10.95 5.30001C10.95 5.40001 10.9 5.45001 10.8 5.45001H5.19998C5.14998 5.45001 5.14998 5.45001 5.09998 5.40001C5.04998 5.35001 5.04998 5.25001 5.04998 5.20001L7.24998 2.50001C7.24998 2.50001 7.24998 2.45001 7.24998 2.40001C7.24998 2.40001 7.19998 2.40001 7.14998 2.40001L4.19998 5.35001C4.19998 5.35001 4.14998 5.40001 4.09998 5.40001C4.04998 5.40001 3.99998 5.35001 3.99998 5.30001L4.09998 3.15001C4.09998 3.10001 4.09998 3.10001 4.04998 3.10001C3.99998 3.10001 3.99998 3.10001 3.99998 3.15001L3.44998 5.60001C3.44998 5.70001 3.34998 5.75001 3.29998 5.75001L1.89998 6.05001C1.84998 6.05001 1.84998 6.10001 1.84998 6.10001C1.84998 6.15001 1.84998 6.15001 1.89998 6.15001H3.24998C3.34998 6.15001 3.39998 6.20001 3.44998 6.25001L6.74998 12.15C6.74998 12.2 6.79998 12.2 6.84998 12.2C6.89998 12.2 6.89998 12.15 6.89998 12.1L4.29998 6.45001V6.40001C4.29998 6.30001 4.34998 6.25001 4.44998 6.20001H11.55C11.6 6.20001 11.6 6.20001 11.65 6.20001C11.75 6.25001 11.75 6.35001 11.75 6.40001L9.09999 12.05C9.09999 12.1 9.09998 12.15 9.14998 12.15C9.19998 12.15 9.24998 12.15 9.24998 12.1L12.5 6.30001C12.55 6.25001 12.6 6.20001 12.7 6.20001H14.05C14.1 6.20001 14.1 6.20001 14.1 6.15001C14.1 6.10001 14.1 6.10001 14.05 6.10001L12.65 5.80001C12.55 5.80001 12.5 5.70001 12.45 5.65001L12 3.15001C12 3.10001 11.95 3.10001 11.95 3.10001C11.9 3.10001 11.9 3.10001 11.9 3.15001L12 5.30001C12 5.35001 12 5.35001 11.95 5.40001C11.9 5.45001 11.85 5.45001 11.8 5.40001L8.84998 2.40001Z" fill="black"/>
</svg>
