<svg width="16" height="16" viewBox="0 0 16 16" fill="none" xmlns="http://www.w3.org/2000/svg">
<path d="M13.9887 4.81396C13.988 4.59783 13.9681 4.38219 13.9294 4.16956C13.8862 3.90961 13.8041 3.65764 13.6858 3.42216C13.5563 3.17465 13.3877 2.94968 13.1864 2.75596C12.8824 2.45862 12.5069 2.24454 12.0962 2.13431C11.7189 2.04292 11.3312 2.0016 10.9432 2.01141L10.941 2.00546H5.05715L5.0568 2.01141C4.83608 2.00966 4.61543 2.01952 4.39575 2.04096C4.15503 2.06665 3.91808 2.12002 3.6896 2.20001C3.31321 2.34174 2.97555 2.57022 2.70403 2.86692C2.43251 3.16362 2.23478 3.52017 2.1269 3.90761C2.03613 4.28152 1.99479 4.66571 2.00395 5.05036L2 10.9533C2.00379 11.2206 2.02195 11.4875 2.0544 11.7529C2.09447 12.033 2.1773 12.3053 2.3 12.5603C2.47313 12.9007 2.71954 13.1985 3.0215 13.4323C3.23733 13.6041 3.48177 13.7365 3.7436 13.8234C4.12798 13.9421 4.52837 14.0008 4.93065 13.9976C5.18235 13.9992 5.4341 14.0055 5.68595 14.0044C7.51545 13.9967 9.34485 14.0176 11.1743 13.9931C11.416 13.9879 11.6569 13.9623 11.8943 13.9167C12.3431 13.8379 12.7608 13.6348 13.1 13.3307C13.4995 12.9838 13.7784 12.519 13.8966 12.0034C13.9693 11.6582 14.0041 11.3061 14.0002 10.9534V10.883C14 10.8556 13.9896 4.89276 13.9887 4.81396ZM12.3818 10.3663C12.3049 10.5463 11.9167 10.6952 11.2601 10.7966C11.1985 10.8061 11.1725 10.9058 11.1369 11.0689C11.1223 11.1363 11.1074 11.2023 11.087 11.2717C11.0809 11.301 11.0643 11.327 11.0403 11.3449C11.0164 11.3628 10.9867 11.3713 10.957 11.3689H10.9467C10.8838 11.3666 10.8213 11.3587 10.7598 11.3453C10.5978 11.3113 10.4327 11.2938 10.2672 11.2931C10.1481 11.2934 10.0293 11.3034 9.9119 11.3231C9.66418 11.3858 9.43377 11.5035 9.23775 11.6675C8.90626 11.9504 8.48976 12.1146 8.05435 12.1339C8.02935 12.1339 8.0057 12.133 7.9876 12.1321C7.97325 12.1333 7.9584 12.1339 7.94355 12.1339C7.50842 12.1147 7.09219 11.9506 6.761 11.6678C6.56472 11.5036 6.33403 11.3857 6.086 11.3228C5.96868 11.3031 5.84995 11.2931 5.731 11.2928C5.56533 11.2945 5.40027 11.3132 5.2384 11.3485C5.17701 11.3628 5.11449 11.3718 5.05155 11.3753C5.01985 11.3789 4.98793 11.3706 4.962 11.352C4.93607 11.3335 4.91796 11.3059 4.9112 11.2747C4.8905 11.2044 4.87565 11.1362 4.8612 11.0706C4.8254 10.9066 4.79935 10.8065 4.73795 10.797C4.0813 10.6957 3.6933 10.5465 3.616 10.3657C3.60815 10.3477 3.60355 10.3284 3.6024 10.3087C3.60093 10.2827 3.60913 10.2571 3.62541 10.2368C3.6417 10.2165 3.66491 10.2029 3.6906 10.1987C4.23367 10.1003 4.72302 9.80933 5.0688 9.37916C5.25917 9.15896 5.41741 8.91292 5.5388 8.64836L5.5412 8.64336C5.57701 8.58477 5.59959 8.51906 5.60737 8.45084C5.61514 8.38261 5.60792 8.31351 5.5862 8.24836C5.50155 8.04881 5.2212 7.95991 5.03585 7.90106C4.9898 7.88651 4.94615 7.87271 4.91145 7.85886C4.74705 7.79386 4.4768 7.65681 4.5128 7.46746C4.54037 7.39615 4.58954 7.33524 4.65344 7.29326C4.71733 7.25128 4.79275 7.23032 4.86915 7.23331C4.90626 7.23246 4.9431 7.2398 4.97705 7.25481C5.11543 7.32574 5.2675 7.3659 5.42285 7.37256C5.51518 7.37915 5.60667 7.35119 5.67955 7.29411C5.67472 7.20648 5.66942 7.11888 5.66365 7.03131C5.57925 6.43941 5.61534 5.83656 5.76975 5.25896C5.95139 4.84442 6.25112 4.49257 6.63151 4.24733C7.0119 4.0021 7.4561 3.87434 7.90865 3.88001C7.96765 3.87951 8.02663 3.87896 8.0856 3.87836C8.53883 3.87257 8.98373 4.00039 9.36478 4.24586C9.74583 4.49133 10.0461 4.84358 10.2282 5.25866C10.3827 5.83679 10.4187 6.44017 10.3342 7.03256L10.3323 7.06126C10.3273 7.14271 10.3223 7.21976 10.3184 7.29451C10.3846 7.3469 10.4669 7.37446 10.5513 7.37241C10.6976 7.3614 10.8403 7.32165 10.9712 7.25541C11.0146 7.23662 11.0615 7.22733 11.1088 7.22816C11.1625 7.22797 11.2157 7.23815 11.2654 7.25816L11.268 7.25911C11.3243 7.27252 11.3754 7.30243 11.4146 7.34501C11.4539 7.38759 11.4796 7.44091 11.4884 7.49816C11.4901 7.58991 11.4219 7.72706 11.0864 7.85946C11.0521 7.87306 11.0083 7.88701 10.962 7.90166C10.7764 7.96056 10.4964 8.04946 10.4117 8.24886C10.3901 8.31395 10.3829 8.383 10.3906 8.45116C10.3984 8.51933 10.421 8.58498 10.4567 8.64351L10.4592 8.64851C10.627 9.03186 10.8811 9.37124 11.2017 9.64015C11.5224 9.90907 11.9008 10.1002 12.3075 10.1988C12.3332 10.203 12.3564 10.2166 12.3727 10.2369C12.389 10.2572 12.3972 10.2828 12.3957 10.3088C12.3944 10.3286 12.3897 10.3481 12.3818 10.3663Z" fill="black"/>
</svg>
