<svg width="16" height="16" viewBox="0 0 16 16" fill="none" xmlns="http://www.w3.org/2000/svg">
<path fill-rule="evenodd" clip-rule="evenodd" d="M4.99427 2.69799C5.40685 2.50144 5.83658 2.34313 6.27807 2.22504C6.71944 2.10651 7.17075 2.02869 7.62632 1.99254C7.69989 1.98688 7.77383 1.9965 7.8435 2.02079C7.91316 2.04508 7.97706 2.08351 8.03116 2.13368C8.08526 2.18385 8.12839 2.24467 8.15786 2.31231C8.18732 2.37996 8.20248 2.45296 8.20237 2.52674V7.40884C8.20236 7.52668 8.16346 7.64122 8.09172 7.7347C8.01998 7.82819 7.9194 7.89539 7.80557 7.92588C7.69175 7.95638 7.57104 7.94847 7.46217 7.90338C7.3533 7.85829 7.26235 7.77854 7.20342 7.67649L4.76247 3.44864C4.72549 3.3848 4.70211 3.314 4.69381 3.24068C4.68551 3.16737 4.69246 3.09313 4.71423 3.02263C4.736 2.95214 4.77212 2.8869 4.82031 2.83103C4.8685 2.77517 4.92773 2.72987 4.99427 2.69799ZM12.1137 8.28496L9.61626 9.00101C9.51066 9.03127 9.3983 9.02832 9.29444 8.99254C9.19058 8.95677 9.10024 8.8899 9.03567 8.80103C8.97111 8.71215 8.93546 8.60556 8.93355 8.49572C8.93164 8.38589 8.96357 8.27812 9.02501 8.18706L10.478 6.03316C10.5205 5.9701 10.5759 5.91682 10.6406 5.87687C10.7053 5.83691 10.7778 5.81119 10.8532 5.80143C10.9286 5.79167 11.0052 5.79808 11.0779 5.82024C11.1507 5.8424 11.2179 5.8798 11.275 5.92996C11.7837 6.37811 12.1872 6.93296 12.4568 7.55496C12.4873 7.62494 12.5025 7.70064 12.5015 7.77699C12.5004 7.85333 12.4831 7.92858 12.4506 7.99768C12.4181 8.06678 12.3712 8.12816 12.3131 8.1777C12.255 8.22724 12.187 8.26381 12.1137 8.28496ZM4.54501 7.62284L6.88031 8.76169C6.97906 8.80983 7.0606 8.88718 7.11388 8.98326C7.16715 9.07933 7.18958 9.18947 7.17812 9.29873C7.16665 9.40798 7.12185 9.51107 7.04979 9.59399C6.97773 9.67691 6.8819 9.73565 6.77531 9.76224L4.25436 10.3908C4.18026 10.4092 4.1031 10.4115 4.02803 10.3977C3.95296 10.3838 3.88172 10.3541 3.81905 10.3105C3.75638 10.2669 3.70374 10.2105 3.66464 10.1449C3.62554 10.0793 3.60088 10.0062 3.59231 9.93034C3.5147 9.25687 3.58663 8.57457 3.80296 7.93209C3.82736 7.86004 3.86683 7.79402 3.91875 7.73842C3.97067 7.68283 4.03384 7.63894 4.10406 7.60967C4.17427 7.58041 4.24992 7.56645 4.32595 7.56872C4.40199 7.57099 4.47667 7.58944 4.54501 7.62284ZM5.48002 12.4303L7.21817 10.4996C7.29168 10.418 7.38853 10.3609 7.49557 10.3362C7.60261 10.3115 7.71466 10.3203 7.81651 10.3615C7.91837 10.4026 8.00511 10.4741 8.06495 10.5662C8.12479 10.6584 8.15484 10.7667 8.15102 10.8765L8.06032 13.4737C8.05761 13.55 8.03866 13.6248 8.00472 13.6931C7.97078 13.7615 7.92264 13.8218 7.86351 13.87C7.80439 13.9183 7.73564 13.9533 7.66187 13.9729C7.58811 13.9924 7.51102 13.996 7.43577 13.9833C6.76786 13.8708 6.13261 13.6137 5.57442 13.23C5.51162 13.1868 5.45876 13.1307 5.41939 13.0654C5.38001 13.0002 5.35502 12.9272 5.34608 12.8515C5.33715 12.7758 5.34447 12.6991 5.36757 12.6264C5.39067 12.5538 5.429 12.4869 5.48002 12.4303ZM12.0719 10.6641L9.60127 9.86116C9.49678 9.82721 9.38439 9.82623 9.27933 9.85835C9.17427 9.89047 9.08164 9.95413 9.014 10.0407C8.94636 10.1273 8.90699 10.2325 8.90123 10.3423C8.89548 10.452 8.92361 10.5608 8.98182 10.654L10.359 12.8579C10.3994 12.9226 10.4533 12.9779 10.5168 13.0201C10.5804 13.0623 10.6522 13.0905 10.7276 13.1027C10.8029 13.1149 10.88 13.1109 10.9536 13.0909C11.0273 13.071 11.0958 13.0355 11.1547 12.9869C11.6768 12.5554 12.0984 12.0151 12.39 11.4038C12.4228 11.3349 12.4405 11.2599 12.4419 11.1837C12.4434 11.1075 12.4286 11.0319 12.3984 10.9619C12.3683 10.8918 12.3236 10.8291 12.2673 10.7777C12.211 10.7264 12.1444 10.6876 12.0719 10.6641Z" fill="black"/>
</svg>
