<svg width="16" height="16" viewBox="0 0 16 16" fill="none" xmlns="http://www.w3.org/2000/svg">
<g clip-path="url(#clip0_3_12065)">
<path d="M16 8.38502V6.91862C16 5.67772 14.7591 5.00087 13.7438 5.00087C13.0375 5.05611 12.3666 5.3324 11.8261 5.79052C11.5933 5.54501 11.3136 5.34864 11.0036 5.21301C10.6935 5.07739 10.3595 5.00526 10.0211 5.00087C9.30778 5.02505 8.627 5.30538 8.10345 5.79052C7.91266 5.52498 7.65685 5.31291 7.36056 5.17464C7.06426 5.03636 6.73741 4.97653 6.41135 5.00087C6.07467 4.97486 5.73767 5.04705 5.4412 5.2087C5.14472 5.37035 4.9015 5.61452 4.741 5.91162L3.2529 9.28752L1.60055 5.50057C1.51222 5.29862 1.34762 5.13979 1.14265 5.05871C0.937684 4.97763 0.708972 4.98089 0.506395 5.06777C0.403816 5.11169 0.311081 5.17573 0.233669 5.2561C0.156258 5.33647 0.0957397 5.43154 0.0556914 5.53569C0.0156432 5.63984 -0.00312302 5.75096 0.000501714 5.86249C0.00412644 5.97402 0.0300685 6.08369 0.0767952 6.18502L2.125 10.6412C2.125 10.6412 2.46345 11.4309 3.14025 11.4309C3.34796 11.4616 3.56002 11.423 3.74357 11.3211C3.92713 11.2191 4.07193 11.0594 4.15555 10.8668C4.31175 10.6325 5.496 8.14182 6.20944 6.63222C6.23705 6.5739 6.28369 6.52673 6.34169 6.49846C6.39969 6.47019 6.46559 6.46252 6.52853 6.4767C6.59147 6.49089 6.64771 6.52609 6.68797 6.57651C6.72824 6.62692 6.75013 6.68955 6.75005 6.75407V10.4975C6.74705 10.7304 6.8322 10.9558 6.98843 11.1285C7.14466 11.3013 7.36042 11.4086 7.59245 11.4289C7.71575 11.4371 7.83942 11.4199 7.95581 11.3784C8.07219 11.3369 8.17881 11.2719 8.26905 11.1875C8.35929 11.103 8.43123 11.001 8.48042 10.8876C8.5296 10.7743 8.55499 10.652 8.555 10.5284V7.42622C8.555 7.17192 8.65602 6.92803 8.83584 6.74821C9.01565 6.56839 9.25954 6.46737 9.51385 6.46737C9.76815 6.46737 10.012 6.56839 10.1919 6.74821C10.3717 6.92803 10.4727 7.17192 10.4727 7.42622V10.5284C10.4727 10.7678 10.5678 10.9973 10.737 11.1666C10.9063 11.3358 11.1358 11.4309 11.3752 11.4309C11.6146 11.4309 11.8441 11.3358 12.0134 11.1666C12.1826 10.9973 12.2777 10.7678 12.2777 10.5284V7.42622C12.2777 7.17192 12.3787 6.92803 12.5585 6.74821C12.7384 6.56839 12.9822 6.46737 13.2365 6.46737C13.4908 6.46737 13.7347 6.56839 13.9146 6.74821C14.0944 6.92803 14.1954 7.17192 14.1954 7.42622V10.5284C14.1954 10.7678 14.2905 10.9973 14.4597 11.1666C14.629 11.3358 14.8585 11.4309 15.0979 11.4309C15.3373 11.4309 15.5668 11.3358 15.7361 11.1666C15.9053 10.9973 16.0004 10.7678 16.0004 10.5284L16 8.38502Z" fill="black"/>
</g>
<defs>
<clipPath id="clip0_3_12065">
<rect width="16" height="16" fill="white"/>
</clipPath>
</defs>
</svg>
