<svg width="16" height="16" viewBox="0 0 16 16" fill="none" xmlns="http://www.w3.org/2000/svg">
<path fill-rule="evenodd" clip-rule="evenodd" d="M1 8C1 11.8598 4.14015 15 8 15C11.8598 15 15 11.8598 15 8C15 4.14015 11.8598 1 8 1C4.14015 1 1 4.14015 1 8ZM2 8C2 4.69165 4.69165 2 8 2C11.3083 2 14 4.69165 14 8C14 11.3083 11.3083 14 8 14C4.69165 14 2 11.3083 2 8ZM8.4552 4.79295L10.9552 10.2929C10.984 10.3559 11 10.4261 11 10.5C11 10.7761 10.7761 11 10.5 11C10.3889 11 10.2864 10.9639 10.2034 10.9026L6.95445 8.5088L5.9552 10.7071C5.87635 10.8797 5.70215 11 5.5 11C5.2239 11 5 10.7761 5 10.5C5 10.426 5.016 10.3562 5.0448 10.2929L7.5448 4.79295C7.62355 4.62035 7.79785 4.5 8 4.5C8.20215 4.5 8.37635 4.62035 8.4552 4.79295ZM9.2495 8.9575L8 6.2085L7.37745 7.5781L9.2495 8.9575Z" fill="black"/>
</svg>
