<svg width="16" height="16" viewBox="0 0 16 16" fill="none" xmlns="http://www.w3.org/2000/svg">
<path fill-rule="evenodd" clip-rule="evenodd" d="M10.4245 3.1161C9.79185 3.0872 9.60205 3.0811 8 3.0811V3.08105C6.39795 3.08105 6.20815 3.0872 5.5755 3.11605C5.19502 3.12058 4.81815 3.19046 4.46135 3.32265C4.20259 3.4225 3.9676 3.5754 3.77149 3.77152C3.57538 3.96764 3.42249 4.20264 3.32265 4.4614C3.19046 4.8182 3.12058 5.19507 3.11605 5.57555C3.08715 6.2082 3.08105 6.398 3.08105 8.00005C3.08105 9.6021 3.0872 9.7919 3.11605 10.4246C3.12058 10.805 3.19046 11.1819 3.32265 11.5387C3.42249 11.7975 3.57539 12.0324 3.7715 12.2286C3.96761 12.4247 4.2026 12.5776 4.46135 12.6774C4.81815 12.8096 5.19502 12.8795 5.5755 12.884C6.2081 12.9129 6.3978 12.919 8 12.919C9.6022 12.919 9.7919 12.9128 10.4245 12.884C10.805 12.8795 11.1818 12.8096 11.5386 12.6774C11.7974 12.5776 12.0324 12.4247 12.2285 12.2286C12.4246 12.0324 12.5775 11.7975 12.6774 11.5387C12.8095 11.1819 12.8794 10.805 12.884 10.4246C12.9129 9.7919 12.919 9.6021 12.919 8.00005C12.919 6.398 12.9128 6.2082 12.884 5.57555C12.8794 5.19507 12.8095 4.8182 12.6774 4.4614C12.5775 4.20265 12.4246 3.96766 12.2285 3.77155C12.0324 3.57544 11.7974 3.42254 11.5386 3.3227C11.1818 3.19051 10.805 3.12063 10.4245 3.1161ZM5.5262 2.0361C6.16615 2.0069 6.3705 2 8 2C9.6295 2 9.83385 2.0069 10.4735 2.03635C10.9713 2.04632 11.4638 2.14062 11.93 2.31525C12.3286 2.46938 12.6906 2.70508 12.9928 3.00726C13.2951 3.30943 13.5308 3.67141 13.685 4.07C13.8596 4.53615 13.9539 5.02853 13.9639 5.5262C13.9931 6.16615 14 6.3705 14 8C14 9.6295 13.9931 9.83385 13.9642 10.4735C13.9542 10.9713 13.8599 11.4638 13.6853 11.93C13.5311 12.3286 13.2954 12.6907 12.9931 12.9929C12.6909 13.2951 12.3289 13.5308 11.9303 13.685C11.464 13.8596 10.9716 13.9539 10.4738 13.9639C9.83385 13.9931 9.6295 14 8 14C6.3705 14 6.16615 13.9931 5.52645 13.9642C5.02869 13.9542 4.53623 13.8599 4.07 13.6853C3.67137 13.5311 3.30934 13.2954 3.00712 12.9931C2.7049 12.6909 2.46916 12.3289 2.315 11.9303C2.14037 11.464 2.04607 10.9716 2.0361 10.4738C2.0069 9.83385 2 9.6295 2 8C2 6.3705 2.0069 6.16615 2.0361 5.52645C2.04606 5.02869 2.14037 4.53623 2.315 4.07C2.46916 3.67137 2.7049 3.30934 3.00712 3.00712C3.30934 2.7049 3.67137 2.46916 4.07 2.315C4.53615 2.14039 5.02853 2.04609 5.5262 2.0361ZM11.2028 5.51715C11.6004 5.51715 11.9228 5.19479 11.9228 4.79715C11.9228 4.3995 11.6004 4.07715 11.2028 4.07715C10.8051 4.07715 10.4828 4.3995 10.4828 4.79715C10.4828 5.19479 10.8051 5.51715 11.2028 5.51715ZM7.99999 4.91895C7.3906 4.91895 6.7949 5.09965 6.28822 5.4382C5.78153 5.77676 5.38662 6.25796 5.15342 6.82096C4.92022 7.38396 4.8592 8.00346 4.97809 8.60114C5.09697 9.19881 5.39042 9.74781 5.82132 10.1787C6.25222 10.6096 6.80122 10.9031 7.39889 11.0219C7.99657 11.1408 8.61607 11.0798 9.17907 10.8466C9.74207 10.6134 10.2233 10.2185 10.5618 9.71181C10.9004 9.20513 11.0811 8.60943 11.0811 8.00005C11.0811 7.18289 10.7565 6.3992 10.1787 5.82138C9.60083 5.24356 8.81714 4.91895 7.99999 4.91895ZM7.99999 10C7.60442 10 7.21774 9.88275 6.88885 9.66298C6.55995 9.44322 6.3036 9.13086 6.15223 8.76541C6.00085 8.39996 5.96124 7.99783 6.03841 7.60987C6.11559 7.2219 6.30607 6.86554 6.58577 6.58583C6.86548 6.30613 7.22184 6.11564 7.60981 6.03847C7.99777 5.9613 8.3999 6.00091 8.76535 6.15229C9.1308 6.30366 9.44316 6.56001 9.66292 6.88891C9.88269 7.2178 9.99999 7.60448 9.99999 8.00005C9.99999 8.53048 9.78927 9.03919 9.4142 9.41426C9.03913 9.78933 8.53042 10 7.99999 10Z" fill="black"/>
</svg>
