<svg width="16" height="16" viewBox="0 0 16 16" fill="none" xmlns="http://www.w3.org/2000/svg">
<path fill-rule="evenodd" clip-rule="evenodd" d="M7.99999 1.00001C6.33813 1.00023 4.73056 1.5917 3.46484 2.66861C2.19912 3.74552 1.35782 5.23761 1.09144 6.87798C0.825062 8.51835 1.15098 10.2 2.01088 11.6221C2.87079 13.0442 4.2086 14.1139 5.78499 14.64C6.13499 14.705 6.28499 14.49 6.28499 14.305C6.28499 14.12 6.28499 13.7 6.28499 13.115C4.33999 13.535 3.92999 12.175 3.92999 12.175C3.79321 11.7464 3.50535 11.3822 3.11999 11.15C2.48499 10.72 3.16999 10.725 3.16999 10.725C3.39179 10.7563 3.6035 10.838 3.78894 10.9636C3.97439 11.0893 4.12866 11.2556 4.23999 11.45C4.43366 11.7974 4.75736 12.0536 5.1399 12.1624C5.52245 12.2711 5.93254 12.2235 6.27999 12.03C6.30822 11.6752 6.46462 11.3429 6.71999 11.095C5.16999 10.915 3.53499 10.315 3.53499 7.63501C3.52365 6.93896 3.7816 6.26543 4.25499 5.75501C4.04072 5.15211 4.06577 4.49 4.32499 3.90501C4.32499 3.90501 4.90999 3.71501 6.24999 4.62001C7.39573 4.30749 8.60425 4.30749 9.74999 4.62001C11.085 3.71501 11.67 3.90501 11.67 3.90501C11.9292 4.49 11.9543 5.15211 11.74 5.75501C12.2134 6.26543 12.4713 6.93896 12.46 7.63501C12.46 10.325 10.825 10.915 9.26499 11.09C9.4321 11.2594 9.56096 11.4626 9.6429 11.686C9.72484 11.9094 9.75794 12.1478 9.73999 12.385C9.73999 13.32 9.73999 14.075 9.73999 14.305C9.73999 14.535 9.86499 14.71 10.24 14.64C11.8184 14.1133 13.1576 13.0414 14.0174 11.6167C14.8772 10.192 15.2013 8.50764 14.9316 6.8656C14.662 5.22357 13.8162 3.7313 12.5459 2.6564C11.2757 1.58149 9.66401 0.994263 7.99999 1.00001Z" fill="black"/>
</svg>
