<svg width="16" height="16" viewBox="0 0 16 16" fill="none" xmlns="http://www.w3.org/2000/svg">
<path fill-rule="evenodd" clip-rule="evenodd" d="M13.5428 12.3896C13.9797 12.0949 14.3399 11.7 14.5933 11.238C14.8468 10.7759 14.9862 10.26 15 9.73313C15 7.79313 13.1117 6.21968 10.7831 6.21968C8.45445 6.21968 6.56615 7.79293 6.56615 9.73313C6.56615 11.6733 8.4544 13.2471 10.7831 13.2471C11.2487 13.2477 11.7121 13.1829 12.1597 13.0546L12.2834 13.0359C12.3625 13.0373 12.4398 13.0598 12.5074 13.1009L13.4309 13.6341L13.5119 13.6604C13.5492 13.6604 13.5849 13.6455 13.6113 13.6192C13.6377 13.5928 13.6525 13.5571 13.6525 13.5198L13.6298 13.4171L13.4397 12.7084L13.4251 12.6184C13.4251 12.5736 13.4357 12.5295 13.4562 12.4897C13.4767 12.4499 13.5064 12.4156 13.5428 12.3896ZM6.0604 2.34003C3.26565 2.34003 1 4.22763 1 6.55688C1.01646 7.18899 1.1837 7.80802 1.4878 8.36243C1.79189 8.91683 2.22404 9.39057 2.74825 9.74418C2.7922 9.77528 2.82803 9.81651 2.8527 9.86437C2.87737 9.91223 2.89016 9.96533 2.89 10.0192L2.8725 10.1265L2.6444 10.977L2.617 11.1C2.61701 11.1448 2.63476 11.1877 2.66636 11.2194C2.69796 11.2511 2.74084 11.269 2.7856 11.2692L2.8836 11.2377L3.99135 10.5977C4.07222 10.5483 4.16488 10.5215 4.25965 10.5201L4.4084 10.5422C4.94555 10.6962 5.50162 10.7741 6.0604 10.7738L6.3381 10.7668C6.22619 10.4339 6.16886 10.085 6.16835 9.73373C6.16835 7.60983 8.2345 5.88783 10.7831 5.88783L11.0581 5.89483C10.6769 3.88053 8.5845 2.34003 6.0604 2.34003ZM9.37725 9.17148C9.26603 9.17148 9.1573 9.1385 9.06483 9.0767C8.97235 9.01491 8.90027 8.92708 8.85771 8.82433C8.81514 8.72157 8.80401 8.6085 8.82571 8.49942C8.8474 8.39033 8.90096 8.29013 8.97961 8.21148C9.05825 8.13284 9.15846 8.07928 9.26754 8.05758C9.37663 8.03588 9.4897 8.04702 9.59245 8.08958C9.69521 8.13215 9.78304 8.20422 9.84483 8.2967C9.90662 8.38918 9.9396 8.4979 9.9396 8.60913C9.93961 8.68297 9.92508 8.7561 9.89682 8.82433C9.86856 8.89256 9.82714 8.95455 9.77491 9.00676C9.72269 9.05898 9.66069 9.10039 9.59246 9.12863C9.52423 9.15688 9.4511 9.1714 9.37725 9.17138V9.17148ZM12.1889 9.17148C12.0777 9.17159 11.9689 9.13872 11.8763 9.077C11.7838 9.01528 11.7116 8.92749 11.6689 8.82474C11.6263 8.722 11.6151 8.60891 11.6367 8.49979C11.6583 8.39066 11.7118 8.2904 11.7904 8.2117C11.8691 8.13299 11.9693 8.07937 12.0784 8.05763C12.1875 8.03588 12.3006 8.04698 12.4034 8.08953C12.5062 8.13207 12.594 8.20415 12.6558 8.29664C12.7177 8.38913 12.7507 8.49788 12.7507 8.60913C12.7507 8.75816 12.6915 8.90109 12.5861 9.00652C12.4808 9.11195 12.3379 9.17124 12.1889 9.17138V9.17148ZM4.3734 5.88193C4.23997 5.88186 4.10955 5.84222 3.99864 5.76803C3.88774 5.69384 3.80132 5.58843 3.75032 5.46513C3.69932 5.34183 3.68603 5.20617 3.71213 5.07532C3.73823 4.94446 3.80255 4.82428 3.89695 4.72998C3.99135 4.63568 4.11159 4.57149 4.24248 4.54552C4.37336 4.51956 4.509 4.53299 4.63225 4.58412C4.7555 4.63524 4.86082 4.72177 4.9349 4.83275C5.00897 4.94374 5.04847 5.07419 5.0484 5.20763C5.04841 5.29624 5.03095 5.38398 4.99702 5.46584C4.96309 5.5477 4.91336 5.62207 4.85067 5.68469C4.78798 5.74732 4.71356 5.79697 4.63167 5.83081C4.54977 5.86466 4.46201 5.88203 4.3734 5.88193ZM7.74685 5.88193C7.61342 5.88186 7.483 5.84222 7.37209 5.76803C7.26119 5.69384 7.17477 5.58843 7.12377 5.46513C7.07277 5.34183 7.05948 5.20617 7.08558 5.07532C7.11168 4.94446 7.176 4.82428 7.2704 4.72998C7.3648 4.63568 7.48504 4.57149 7.61593 4.54552C7.74681 4.51956 7.88245 4.53299 8.0057 4.58412C8.12895 4.63524 8.23427 4.72177 8.30835 4.83275C8.38242 4.94374 8.42192 5.07419 8.42185 5.20763C8.42185 5.29624 8.40439 5.38398 8.37045 5.46583C8.33652 5.54769 8.28679 5.62205 8.2241 5.68468C8.16142 5.7473 8.087 5.79695 8.00511 5.8308C7.92322 5.86465 7.83546 5.88202 7.74685 5.88193Z" fill="black"/>
</svg>
