<svg width="16" height="16" viewBox="0 0 16 16" fill="none" xmlns="http://www.w3.org/2000/svg">
<path fill-rule="evenodd" clip-rule="evenodd" d="M13.2131 8.19175L13.2137 8.19125C13.9906 9.2299 14.4181 10.4881 14.435 11.785C14.4563 12.8954 14.2204 13.9957 13.7459 14.9999H12.8074C13.362 14.0209 13.6402 12.9097 13.6124 11.7849C13.6117 11.4921 13.5843 11.2 13.5305 10.9122C13.5266 10.9185 13.5227 10.9248 13.5188 10.9312C13.5028 10.9572 13.4868 10.9832 13.4691 11.0085C13.1666 11.3897 12.7516 11.6659 12.2831 11.7976C11.8146 11.9294 11.3165 11.9101 10.8596 11.7425C8.4304 11.0292 6.2894 11.3288 4.4965 12.6338L3.4815 13.3725L4.05665 11.5696L2.939 12.755C3.08761 13.5689 3.42283 14.3374 3.91835 15H2.9274C2.63754 14.5234 2.41369 14.0097 2.262 13.4729L1.5 14.2811V13.2458C1.5 11.53 1.5 9.39415 3.4295 7.44515C4.03785 6.82632 4.76229 6.33358 5.56135 5.99515C5.36409 5.57627 5.28293 5.11211 5.32635 4.65115L4.7427 4.615C4.45437 4.59677 4.18496 4.46523 3.99325 4.2491C3.80154 4.03297 3.7031 3.74979 3.7194 3.46135V3.45995V3.45845L3.77 2.64125C3.78765 2.364 3.91013 2.10386 4.11258 1.91361C4.31504 1.72337 4.58229 1.61729 4.8601 1.6169C4.88155 1.6169 4.9033 1.6176 4.92475 1.61885H4.926H4.92715L5.74295 1.6695C6.01873 1.68582 6.27784 1.80694 6.46725 2.00805C6.64125 1.75525 6.8267 1.4985 7.0187 1.23305C7.0743 1.15635 7.13043 1.07867 7.1871 1L7.8927 1.4152C7.54445 2.1566 7.5844 2.4311 7.6027 2.49375C7.94314 2.49538 8.28076 2.55555 8.6008 2.67165C8.91085 2.77456 9.19679 2.93931 9.44133 3.15592C9.68587 3.37253 9.88392 3.63651 10.0235 3.93187C10.1631 4.22723 10.2413 4.54784 10.2534 4.8743C10.2655 5.20075 10.2112 5.52627 10.0939 5.83115C10.0904 5.83999 10.0866 5.84857 10.0828 5.85715C10.0797 5.86399 10.0767 5.87083 10.0738 5.8778C10.2644 5.9434 10.4538 6.01715 10.6416 6.1005C11.664 6.56533 12.5496 7.28552 13.2131 8.19175ZM7.22568 3.23183C7.10313 3.16989 6.99876 3.07721 6.92275 2.96285C6.90491 2.93598 6.88866 2.90808 6.8741 2.8793C6.50815 3.39607 6.26258 3.98822 6.1554 4.6123C6.08895 4.9714 6.14678 5.34242 6.31937 5.66426C6.49196 5.9861 6.76901 6.23956 7.1049 6.3829C7.11408 6.21108 7.17505 6.04606 7.27978 5.90955C7.38451 5.77303 7.52811 5.6714 7.69168 5.61803C7.85526 5.56466 8.03116 5.56204 8.19625 5.61052C8.36135 5.659 8.5079 5.75631 8.61665 5.88965L8.61825 5.89165L8.85585 6.1841C9.07552 6.00378 9.24266 5.76772 9.33977 5.50063C9.43689 5.23354 9.46041 4.94525 9.40786 4.66596C9.35532 4.38666 9.22865 4.12663 9.04111 3.91309C8.85358 3.69955 8.61207 3.54037 8.3419 3.4522C8.11169 3.36515 7.868 3.31914 7.6219 3.31625C7.48475 3.32286 7.34823 3.29377 7.22568 3.23183ZM8.36415 7.8404L8.66775 7.5923L8.9186 7.90155L8.30485 8.40255C8.27622 8.42589 8.25803 8.45964 8.25428 8.49638C8.25053 8.53313 8.26152 8.56986 8.28485 8.5985L8.56145 8.93725C8.57314 8.9516 8.58755 8.9635 8.60385 8.97227C8.62014 8.98104 8.63801 8.98651 8.65643 8.98837C8.67484 8.99023 8.69344 8.98843 8.71116 8.98309C8.72888 8.97775 8.74538 8.96897 8.7597 8.95725L9.37045 8.4587L9.5425 8.67065C9.55945 8.6915 9.58085 8.70829 9.60512 8.71982C9.62939 8.73134 9.65593 8.73729 9.6828 8.73725C9.69654 8.73726 9.71023 8.73568 9.7236 8.73255C9.75356 8.72562 9.78126 8.71118 9.80409 8.69057C9.82692 8.66997 9.84412 8.64388 9.85406 8.61479C9.86401 8.58569 9.86638 8.55454 9.86094 8.52427C9.85551 8.494 9.84245 8.46562 9.823 8.4418L8.0957 6.31595C8.08075 6.2973 8.06226 6.2818 8.0413 6.27034C8.02033 6.25888 7.9973 6.25168 7.97354 6.24916C7.94977 6.24664 7.92575 6.24886 7.90284 6.25567C7.87994 6.26249 7.85861 6.27377 7.84009 6.28887C7.82157 6.30397 7.80622 6.32259 7.79494 6.34366C7.78365 6.36472 7.77664 6.38781 7.77432 6.41159C7.77201 6.43537 7.77442 6.45938 7.78143 6.48223C7.78843 6.50507 7.79989 6.52631 7.81515 6.5447L8.43265 7.3026L8.13265 7.5476C8.104 7.57103 8.08583 7.60487 8.08214 7.6417C8.07845 7.67852 8.08953 7.7153 8.11295 7.74395L8.17615 7.8214C8.19858 7.84882 8.23098 7.86622 8.26622 7.86978C8.30147 7.87334 8.33669 7.86278 8.36415 7.8404ZM4.5907 2.6921L4.54 3.5092C4.53596 3.58049 4.5603 3.65049 4.60769 3.70391C4.65508 3.75732 4.72168 3.78982 4.79295 3.7943L5.4903 3.8374C5.60587 3.48865 5.75714 3.15277 5.9417 2.8351L5.94535 2.776C5.94758 2.74066 5.94282 2.70523 5.93134 2.67173C5.91986 2.63824 5.90189 2.60733 5.87846 2.58079C5.85503 2.55424 5.82659 2.53258 5.79477 2.51703C5.76296 2.50149 5.72839 2.49237 5.69305 2.4902L4.8763 2.43955L4.86 2.43905C4.79133 2.43902 4.72524 2.46518 4.6752 2.51221C4.62516 2.55923 4.59494 2.62356 4.5907 2.6921ZM12.0124 11.0214C12.3188 10.9462 12.5935 10.7759 12.7972 10.535C13.1372 10.0521 13.0493 9.3639 12.5622 8.6938C11.9825 7.89537 11.2058 7.26078 10.3079 6.8519C10.0827 6.75194 9.85186 6.66544 9.61645 6.59285C9.54069 6.6743 9.45945 6.75048 9.3733 6.82085L10.3447 8.0164C10.4652 8.1641 10.5328 8.34787 10.5368 8.53845C10.5407 8.72903 10.4808 8.91546 10.3666 9.06806C10.2523 9.22065 10.0903 9.33063 9.90632 9.38048C9.72233 9.43033 9.52696 9.41719 9.3513 9.34315L9.1856 9.4784C9.01842 9.61488 8.80386 9.67937 8.58914 9.65767C8.37441 9.63597 8.1771 9.52987 8.0406 9.3627L7.764 9.02385C7.6738 8.91327 7.61432 8.78087 7.59155 8.63999C7.56878 8.49911 7.58353 8.35472 7.6343 8.22135L7.59195 8.16945C7.4997 8.05625 7.43964 7.92029 7.41809 7.77585C7.39654 7.63142 7.4143 7.48385 7.4695 7.34865C7.37458 7.3344 7.28062 7.31436 7.18815 7.28865C6.77134 7.17719 6.38718 6.96781 6.0676 6.67795C5.29414 6.97327 4.59361 7.43221 4.01395 8.02335C3.47259 8.57319 3.04565 9.22494 2.75787 9.94089C2.47008 10.6568 2.32715 11.4227 2.33735 12.1943L5.93885 8.37465L4.9854 11.3637C6.77715 10.427 8.82595 10.2884 11.0916 10.9537C11.3837 11.0729 11.706 11.0966 12.0124 11.0214ZM5.0148 2.88412L4.98474 3.37024L5.47096 3.4003L5.50102 2.91418L5.0148 2.88412ZM6.96793 13.7753C7.02904 13.6839 7.06165 13.5764 7.06165 13.4664C7.06167 13.3934 7.04729 13.321 7.01935 13.2536C6.99141 13.1861 6.95046 13.1248 6.89882 13.0731C6.84718 13.0215 6.78588 12.9805 6.71841 12.9526C6.65094 12.9247 6.57863 12.9103 6.5056 12.9103C6.39561 12.9103 6.28809 12.9429 6.19664 13.004C6.10518 13.0651 6.03389 13.1519 5.9918 13.2535C5.9497 13.3551 5.93868 13.467 5.96013 13.5748C5.98158 13.6827 6.03454 13.7818 6.11231 13.8596C6.19008 13.9374 6.28917 13.9903 6.39704 14.0118C6.50492 14.0333 6.61673 14.0222 6.71835 13.9802C6.81997 13.9381 6.90682 13.8668 6.96793 13.7753ZM10.4191 13.7753C10.4802 13.6839 10.5128 13.5764 10.5128 13.4664C10.5129 13.3933 10.4985 13.321 10.4705 13.2536C10.4426 13.1861 10.4016 13.1248 10.35 13.0731C10.2983 13.0215 10.237 12.9805 10.1696 12.9526C10.1021 12.9247 10.0298 12.9103 9.95675 12.9103C9.84676 12.9103 9.73925 12.9429 9.6478 13.004C9.55635 13.0651 9.48507 13.152 9.44298 13.2536C9.40089 13.3552 9.38988 13.467 9.41134 13.5749C9.43279 13.6827 9.48576 13.7818 9.56353 13.8596C9.6413 13.9374 9.74039 13.9903 9.84826 14.0118C9.95613 14.0333 10.0679 14.0222 10.1696 13.9801C10.2712 13.9381 10.358 13.8668 10.4191 13.7753Z" fill="black"/>
</svg>
