<svg width="16" height="16" viewBox="0 0 16 16" fill="none" xmlns="http://www.w3.org/2000/svg">
<path fill-rule="evenodd" clip-rule="evenodd" d="M10.4716 7.3032C10.7078 7.0685 10.8416 6.74991 10.8437 6.41695V3.2606C10.8447 3.0944 10.8129 2.92962 10.75 2.77576C10.6871 2.6219 10.5944 2.482 10.4773 2.3641C10.3601 2.2462 10.2208 2.15263 10.0673 2.08878C9.91386 2.02494 9.74929 1.99207 9.58308 1.99207C9.41686 1.99207 9.25229 2.02494 9.09883 2.08878C8.94537 2.15263 8.80605 2.2462 8.68889 2.3641C8.57173 2.482 8.47905 2.6219 8.41617 2.77576C8.35329 2.92962 8.32145 3.0944 8.3225 3.2606V6.41695C8.3246 6.74991 8.45833 7.0685 8.69451 7.3032C8.93068 7.53789 9.25012 7.66962 9.58308 7.66962C9.91603 7.66962 10.2355 7.53789 10.4716 7.3032ZM6.41695 4.5212C6.16762 4.52121 5.92389 4.44728 5.71658 4.30877C5.50927 4.17026 5.34769 3.97338 5.25227 3.74303C5.15685 3.51269 5.13188 3.25922 5.18052 3.01468C5.22916 2.77014 5.34922 2.54552 5.52552 2.36922C5.70182 2.19292 5.92644 2.07286 6.17098 2.02422C6.41552 1.97558 6.66899 2.00055 6.89933 2.09597C7.12968 2.19139 7.32656 2.35297 7.46507 2.56028C7.60358 2.76759 7.67751 3.01132 7.6775 3.26065V4.5212H6.41695ZM4.30872 10.2834C4.44723 10.0761 4.52116 9.83239 4.52115 9.58306V8.32251H3.2606C3.01127 8.3225 2.76754 8.39643 2.56023 8.53494C2.35291 8.67345 2.19133 8.87033 2.09591 9.10068C2.0005 9.33102 1.97553 9.58449 2.02417 9.82903C2.07281 10.0736 2.19287 10.2982 2.36917 10.4745C2.54547 10.6508 2.77009 10.7709 3.01463 10.8195C3.25917 10.8681 3.51263 10.8432 3.74298 10.7477C3.97333 10.6523 4.17021 10.4907 4.30872 10.2834ZM5.52836 8.69686C5.29218 8.93156 5.15845 9.25015 5.15635 9.58311V12.7395C5.1553 12.9057 5.18714 13.0704 5.25002 13.2243C5.3129 13.3782 5.40559 13.5181 5.52274 13.636C5.6399 13.7539 5.77922 13.8474 5.93268 13.9113C6.08614 13.9751 6.25071 14.008 6.41693 14.008C6.58314 14.008 6.74771 13.9751 6.90117 13.9113C7.05463 13.8474 7.19395 13.7539 7.31111 13.636C7.42827 13.5181 7.52095 13.3782 7.58383 13.2243C7.64672 13.0704 7.67855 12.9057 7.6775 12.7395V9.58311C7.6754 9.25015 7.54167 8.93156 7.30549 8.69686C7.06932 8.46217 6.74988 8.33044 6.41693 8.33044C6.08397 8.33044 5.76453 8.46217 5.52836 8.69686ZM7.30319 5.5284C7.0685 5.29223 6.7499 5.15849 6.41695 5.1564H3.2606C3.09439 5.15535 2.92962 5.18718 2.77576 5.25006C2.6219 5.31294 2.48199 5.40563 2.36409 5.52279C2.24619 5.63995 2.15263 5.77927 2.08878 5.93273C2.02493 6.08619 1.99206 6.25076 1.99206 6.41697C1.99206 6.58318 2.02493 6.74776 2.08878 6.90122C2.15263 7.05468 2.24619 7.19399 2.36409 7.31115C2.48199 7.42831 2.6219 7.521 2.77576 7.58388C2.92962 7.64676 3.09439 7.67859 3.2606 7.67755H6.41695C6.7499 7.67545 7.0685 7.54172 7.30319 7.30554C7.53789 7.06936 7.66961 6.74993 7.66961 6.41697C7.66961 6.08402 7.53789 5.76458 7.30319 5.5284ZM11.4789 6.4169C11.4788 6.16757 11.5528 5.92384 11.6913 5.71653C11.8298 5.50922 12.0267 5.34764 12.257 5.25222C12.4874 5.1568 12.7408 5.13183 12.9854 5.18047C13.2299 5.22911 13.4545 5.34917 13.6308 5.52547C13.8071 5.70177 13.9272 5.92639 13.9758 6.17093C14.0245 6.41547 13.9995 6.66894 13.9041 6.89928C13.8087 7.12963 13.6471 7.32651 13.4398 7.46502C13.2325 7.60353 12.9887 7.67746 12.7394 7.67745H11.4789V6.4169ZM9.58305 11.4789C9.83238 11.4789 10.0761 11.5528 10.2834 11.6913C10.4907 11.8298 10.6523 12.0267 10.7477 12.257C10.8432 12.4874 10.8681 12.7409 10.8195 12.9854C10.7708 13.2299 10.6508 13.4546 10.4745 13.6309C10.2982 13.8072 10.0736 13.9272 9.82902 13.9759C9.58448 14.0245 9.33101 13.9995 9.10067 13.9041C8.87032 13.8087 8.67344 13.6471 8.53493 13.4398C8.39642 13.2325 8.32249 12.9888 8.3225 12.7394V11.4789H9.58305ZM8.69681 10.4717C8.9315 10.7079 9.2501 10.8416 9.58305 10.8437H12.7394C12.9056 10.8447 13.0704 10.8129 13.2242 10.75C13.3781 10.6871 13.518 10.5945 13.6359 10.4773C13.7538 10.3601 13.8474 10.2208 13.9112 10.0674C13.9751 9.91389 14.0079 9.74932 14.0079 9.58311C14.0079 9.4169 13.9751 9.25233 13.9112 9.09887C13.8474 8.94541 13.7538 8.80609 13.6359 8.68893C13.518 8.57177 13.3781 8.47908 13.2242 8.4162C13.0704 8.35332 12.9056 8.32149 12.7394 8.32253H9.58305C9.2501 8.32463 8.9315 8.45837 8.69681 8.69454C8.46212 8.93072 8.33039 9.25015 8.33039 9.58311C8.33039 9.91607 8.46212 10.2355 8.69681 10.4717Z" fill="black"/>
</svg>
