<svg width="16" height="16" viewBox="0 0 16 16" fill="none" xmlns="http://www.w3.org/2000/svg">
<path fill-rule="evenodd" clip-rule="evenodd" d="M13.9508 4.13529L15.1903 9.51884C15.2224 9.65832 15.2223 9.80325 15.1902 9.94272C15.1582 10.0822 15.0948 10.2126 15.005 10.324L11.5342 14.6414C11.4438 14.7532 11.3295 14.8433 11.1998 14.9052C11.07 14.9671 10.928 14.9991 10.7842 14.9988L5.21636 15C5.07254 15.0002 4.93052 14.9682 4.80073 14.9062C4.67093 14.8443 4.55668 14.7541 4.46636 14.6421L0.994407 10.3252C0.975003 10.3009 0.956847 10.2757 0.940007 10.2495C0.870256 10.143 0.822759 10.0235 0.800368 9.89809C0.777976 9.77273 0.781153 9.64414 0.809707 9.52004L2.04726 4.13649C2.07967 3.99679 2.14317 3.8662 2.23304 3.75444C2.3229 3.64268 2.43682 3.55263 2.56631 3.49099L7.58221 1.09429C7.71224 1.03222 7.85451 1 7.99861 1C8.1427 1 8.28497 1.03222 8.41501 1.09429L13.4318 3.48979C13.5613 3.55139 13.6752 3.64143 13.7651 3.7532C13.855 3.86496 13.9185 3.99557 13.9508 4.13529ZM13.1343 9.64401C13.2073 9.60264 13.2612 9.5344 13.2846 9.45384V9.45389C13.2987 9.37103 13.2798 9.28592 13.2319 9.21682C13.1841 9.14772 13.111 9.10011 13.0285 9.08419L12.9963 9.07639C12.977 9.07149 12.9569 9.06664 12.9413 9.06369C12.8785 9.05285 12.815 9.0469 12.7513 9.04589C12.7196 9.04464 12.6869 9.04344 12.6532 9.04049L12.6471 9.03999C12.4675 9.02787 12.2895 8.99845 12.1156 8.95214C12.0653 8.92538 12.0237 8.88491 11.9956 8.83544L11.987 8.82274L11.9865 8.82224L11.8665 8.78724C11.9958 7.84117 11.7734 6.88055 11.2415 6.08754C11.2576 6.07289 11.2805 6.05234 11.3008 6.03429C11.3183 6.01875 11.3335 6.005 11.3426 5.99681L11.3465 5.99329L11.3472 5.99279V5.99184L11.3489 5.96984C11.3471 5.91585 11.3665 5.86329 11.4029 5.82334C11.5412 5.70482 11.6905 5.59985 11.8489 5.50989C11.8785 5.49254 11.9075 5.47719 11.9356 5.46254C11.9925 5.43399 12.0471 5.40109 12.0989 5.36414C12.1116 5.35459 12.1278 5.34144 12.1431 5.32874L12.1649 5.31089C12.2008 5.28795 12.2316 5.25771 12.2551 5.22212C12.2786 5.18653 12.2944 5.1464 12.3014 5.10431C12.3085 5.06223 12.3065 5.01915 12.2958 4.97785C12.2851 4.93655 12.2659 4.89797 12.2393 4.8646C12.2127 4.83123 12.1794 4.80381 12.1416 4.78414C12.1037 4.76447 12.0621 4.75297 12.0196 4.75039C11.977 4.74782 11.9343 4.75422 11.8944 4.76919C11.8544 4.78416 11.8181 4.80736 11.7877 4.83729L11.7694 4.85169C11.7644 4.85566 11.7593 4.85962 11.7544 4.8635C11.7421 4.87312 11.7304 4.88234 11.721 4.89049C11.6726 4.93341 11.6274 4.97992 11.586 5.02964C11.5658 5.05284 11.545 5.07654 11.5223 5.10044L11.5116 5.11144C11.3921 5.24219 11.2603 5.36108 11.118 5.46644C11.0661 5.48891 11.0088 5.49603 10.953 5.48694L10.9374 5.48594H10.9364L10.8234 5.56654C10.4985 5.22618 10.1152 4.94677 9.69181 4.74154C9.26569 4.53394 8.80526 4.40585 8.33316 4.36359C8.33046 4.32354 8.32706 4.25349 8.32631 4.23174V4.23079L8.32536 4.23004L8.30896 4.21504C8.26565 4.18286 8.23665 4.13502 8.22816 4.08174C8.22165 3.905 8.23236 3.72805 8.26016 3.55339L8.26211 3.53754C8.26676 3.50434 8.27261 3.47259 8.27846 3.44184C8.29146 3.37922 8.2997 3.3157 8.30311 3.25184C8.30361 3.23639 8.30336 3.21614 8.30286 3.19684L8.30241 3.16659C8.30684 3.12418 8.30231 3.0813 8.28912 3.04075C8.27593 3.0002 8.25436 2.96287 8.22581 2.93119C8.19727 2.89951 8.16239 2.87418 8.12343 2.85684C8.08447 2.8395 8.0423 2.83054 7.99966 2.83054C7.95701 2.83054 7.91484 2.8395 7.87588 2.85684C7.83692 2.87418 7.80204 2.89951 7.7735 2.93119C7.74496 2.96287 7.72339 3.0002 7.71019 3.04075C7.697 3.0813 7.69247 3.12418 7.69691 3.16659V3.17124L7.69716 3.17489L7.69691 3.19989C7.69666 3.21819 7.69646 3.23714 7.69691 3.25214C7.70037 3.316 7.70861 3.37951 7.72156 3.44214C7.72746 3.47284 7.73331 3.50464 7.73796 3.53784L7.73841 3.54224C7.76685 3.7206 7.7779 3.90129 7.77141 4.08179C7.75442 4.14125 7.72078 4.19461 7.67446 4.23559L7.67396 4.23629L7.66691 4.36204C7.48495 4.37736 7.30425 4.40518 7.12611 4.44529C6.37525 4.61487 5.69217 5.00488 5.16446 5.56529C5.13196 5.54329 5.07561 5.50279 5.05776 5.48959L5.05701 5.48909H5.05606L5.03456 5.49254C4.98222 5.50619 4.92662 5.49891 4.87956 5.47224C4.73501 5.36552 4.60123 5.24495 4.48011 5.11224L4.47511 5.10724C4.45216 5.08279 4.43091 5.05864 4.41091 5.03519C4.36996 4.98588 4.32531 4.93977 4.27736 4.89724C4.26376 4.88579 4.24536 4.87114 4.22876 4.85819L4.21071 4.84404C4.15075 4.79573 4.07693 4.76784 4.00001 4.76444C3.95418 4.762 3.90842 4.7704 3.86645 4.78896C3.82448 4.80753 3.78748 4.83574 3.75846 4.87129C3.73336 4.90323 3.71536 4.94015 3.70563 4.97959C3.69591 5.01903 3.69469 5.06009 3.70206 5.10004C3.71706 5.18619 3.76358 5.26368 3.83256 5.31744L3.83501 5.31939L3.83761 5.32084L3.85541 5.33524C3.87081 5.34794 3.88691 5.36114 3.90011 5.37089C3.95193 5.40793 4.00655 5.44091 4.06346 5.46954C4.09126 5.48419 4.11986 5.49954 4.14911 5.51664C4.30751 5.60636 4.45681 5.71127 4.59491 5.82989C4.62883 5.87595 4.64884 5.93076 4.65256 5.98784L4.65476 6.00174V6.00274L4.74976 6.08774C4.21977 6.88384 4.00178 7.84734 4.13746 8.79404L4.01391 8.82994H4.01321L4.01271 8.83064L4.00051 8.84654C3.97113 8.89265 3.93163 8.93147 3.88501 8.96004C3.71122 9.00675 3.5333 9.03646 3.35376 9.04874L3.34666 9.04949C3.31296 9.05214 3.28026 9.05364 3.24876 9.05484C3.18492 9.05574 3.12125 9.06171 3.05836 9.07269C3.04221 9.07559 3.02171 9.08059 3.00171 9.08559L2.97826 9.09124L2.97656 9.09169H2.97556L2.97291 9.09244L2.97096 9.09294C2.92904 9.0985 2.88875 9.11274 2.85266 9.13476C2.81656 9.15678 2.78546 9.18608 2.76134 9.22081C2.73721 9.25553 2.7206 9.2949 2.71256 9.33641C2.70452 9.37792 2.70523 9.42065 2.71465 9.46187C2.72406 9.50308 2.74197 9.54188 2.76723 9.57579C2.7925 9.60969 2.82455 9.63795 2.86136 9.65875C2.89817 9.67956 2.93891 9.69246 2.98098 9.69662C3.02306 9.70079 3.06554 9.69613 3.10571 9.68294H3.10766L3.11011 9.68244L3.11351 9.68144L3.11596 9.68049L3.13891 9.67549C3.15821 9.67159 3.17821 9.66719 3.19361 9.66304C3.25545 9.64551 3.31585 9.62323 3.37426 9.59639C3.40281 9.58419 3.43236 9.57174 3.46336 9.55979L3.47191 9.55659C3.63802 9.48989 3.81021 9.43944 3.98606 9.40594C4.04267 9.40823 4.09747 9.42662 4.14401 9.45894L4.15721 9.46649L4.15796 9.46699L4.28761 9.44479C4.58177 10.3516 5.19698 11.1197 6.01761 11.6048L5.96391 11.7334V11.7344V11.7354C5.98911 11.7876 5.99836 11.846 5.99051 11.9034C5.91586 12.0744 5.82494 12.2378 5.71901 12.3914C5.70046 12.419 5.68146 12.4453 5.66311 12.4703C5.62407 12.5212 5.58897 12.5751 5.55811 12.6314C5.55124 12.6442 5.54353 12.661 5.53588 12.6776L5.53311 12.6836C5.52821 12.6939 5.52381 12.7039 5.51941 12.7124C5.48051 12.7868 5.47222 12.8733 5.49631 12.9537C5.52039 13.034 5.57494 13.1018 5.64831 13.1424C5.68574 13.1604 5.72677 13.1697 5.76831 13.1695C5.83136 13.1676 5.89263 13.1482 5.94521 13.1133C5.99779 13.0785 6.0396 13.0296 6.06591 12.9723L6.06686 12.9713L6.06711 12.9701L6.07936 12.9454C6.08836 12.9276 6.09766 12.9091 6.10401 12.8941C6.12864 12.8354 6.1487 12.7748 6.16401 12.713C6.17206 12.6825 6.18061 12.651 6.19086 12.619C6.21166 12.5675 6.22948 12.515 6.24691 12.4637C6.24955 12.456 6.25218 12.4482 6.25481 12.4405C6.28929 12.3115 6.34616 12.1896 6.42281 12.0802C6.45829 12.0471 6.50296 12.0254 6.55096 12.0182L6.55196 12.0177L6.61956 11.8956C7.3385 12.1722 8.12351 12.2284 8.87456 12.0572C9.04902 12.0174 9.22056 11.9658 9.38801 11.9027C9.39701 11.919 9.40946 11.9417 9.42121 11.9627C9.42667 11.9725 9.43195 11.9821 9.4366 11.9906C9.44292 12.0021 9.44808 12.0115 9.45096 12.0164L9.45171 12.0174H9.45246L9.47321 12.0237C9.52642 12.0341 9.57352 12.0647 9.60456 12.1092C9.68795 12.2676 9.7558 12.4338 9.80716 12.6053L9.81011 12.6136C9.81938 12.643 9.8274 12.6718 9.83513 12.6996L9.83696 12.7061C9.85242 12.7685 9.87266 12.8297 9.89751 12.889C9.90392 12.9036 9.91287 12.9219 9.92161 12.9397L9.92341 12.9434L9.93461 12.9661C9.94895 13.0061 9.97148 13.0425 10.0008 13.0732C10.03 13.1039 10.0654 13.1282 10.1046 13.1444C10.1438 13.1606 10.186 13.1684 10.2284 13.1674C10.2708 13.1663 10.3125 13.1564 10.3509 13.1383C10.3892 13.1202 10.4233 13.0942 10.4511 13.0621C10.4788 13.03 10.4995 12.9924 10.5118 12.9518C10.5242 12.9113 10.5279 12.8685 10.5228 12.8264C10.5176 12.7843 10.5037 12.7438 10.482 12.7073L10.4705 12.6831C10.4615 12.6639 10.4512 12.6419 10.4429 12.6263C10.4123 12.5703 10.3773 12.5168 10.3382 12.4663C10.3196 12.4409 10.3006 12.4148 10.2818 12.3867C10.178 12.237 10.0889 12.0777 10.0157 11.9109C10.0005 11.8594 10.0058 11.804 10.0307 11.7563L10.039 11.7353L10.0395 11.7339L10.0385 11.7329C10.0249 11.7078 10.0137 11.6816 10.005 11.6545C9.99966 11.6392 9.99431 11.6252 9.98966 11.6142C10.8132 11.1255 11.4287 10.3513 11.7192 9.43874C11.7577 9.44484 11.8232 9.45654 11.8451 9.46094H11.8461L11.8471 9.46019L11.8656 9.44749C11.9065 9.41245 11.9596 9.39484 12.0133 9.39844C12.1892 9.43186 12.3614 9.48231 12.5275 9.54909L12.5363 9.55224C12.5639 9.56262 12.59 9.57395 12.6152 9.58492C12.6191 9.58657 12.6228 9.58821 12.6266 9.58984C12.6846 9.61659 12.7446 9.63879 12.8061 9.65624C12.8201 9.65989 12.8378 9.66359 12.8551 9.66699L12.8837 9.67284L12.8861 9.67384L12.8896 9.67479L12.892 9.67529H12.894C12.9751 9.69661 13.0613 9.68538 13.1343 9.64401ZM7.10829 6.94004L7.10949 6.94099C7.1478 6.96892 7.19298 6.98594 7.2402 6.99021C7.28741 6.99449 7.33491 6.98587 7.37761 6.96527C7.42032 6.94468 7.45663 6.91288 7.48269 6.87326C7.50874 6.83365 7.52355 6.78771 7.52554 6.74034V6.73884L7.53189 6.73569L7.62099 5.16504C7.51234 5.17844 7.40599 5.19679 7.30434 5.21974C6.74347 5.34628 6.22885 5.62632 5.81799 6.02854L7.10559 6.94139L7.10829 6.94004ZM7.567 8.59436L7.9995 8.80236L8.431 8.59486L8.538 8.12936L8.2395 7.75586H7.759L7.4595 8.12836L7.567 8.59436ZM6.41885 8.13059L6.41735 8.13109L6.41615 8.13609L4.90905 8.57109C4.83471 7.89059 4.98853 7.20468 5.34635 6.62109L6.5221 7.67284L6.52065 7.67919L6.52185 7.68019C6.55761 7.71134 6.58426 7.7516 6.59894 7.79669C6.61362 7.84178 6.61579 7.89001 6.60522 7.93623C6.59464 7.98246 6.57173 8.02495 6.53891 8.05918C6.50609 8.09341 6.46459 8.11809 6.41885 8.13059ZM6.93224 9.25027C6.91735 9.18429 6.87747 9.12666 6.82098 9.08946C6.76449 9.05227 6.69578 9.03842 6.62929 9.05082H6.62759L6.62514 9.04767L5.07974 9.31012C5.31199 9.95108 5.74888 10.4977 6.32289 10.8655L6.92149 9.41877L6.91714 9.41292L6.91759 9.41142C6.93955 9.36064 6.94468 9.30417 6.93224 9.25027ZM8.23035 9.82018L8.2311 9.82143H8.237L8.9987 11.1981C8.9015 11.2303 8.8 11.2589 8.6965 11.2823C8.13601 11.4102 7.55108 11.3804 7.0065 11.1962L7.7665 9.82213H7.7679L7.76865 9.82068C7.79037 9.78031 7.82224 9.74631 7.86112 9.72202C7.9 9.69774 7.94455 9.68403 7.99035 9.68223C8.03918 9.68087 8.08744 9.69303 8.12979 9.71738C8.17215 9.74172 8.20695 9.7773 8.23035 9.82018ZM9.36855 9.0452H9.36685C9.347 9.04134 9.32676 9.03987 9.30655 9.0408C9.26436 9.04317 9.22337 9.05566 9.18703 9.07723C9.15069 9.09879 9.12007 9.12879 9.09778 9.16469C9.07548 9.20058 9.06216 9.24132 9.05893 9.28345C9.05571 9.32559 9.06268 9.36788 9.07925 9.40675L9.07975 9.40795L9.07775 9.41065L9.68275 10.8723C10.2608 10.5028 10.6996 9.95148 10.93 9.3052L9.3712 9.04175L9.36855 9.0452ZM9.4755 7.66842L10.6447 6.62207C11.0019 7.204 11.1601 7.88636 11.0954 8.56612L9.5807 8.13012L9.5795 8.12352L9.57775 8.12327C9.53205 8.11065 9.49062 8.08589 9.45787 8.05162C9.42511 8.01735 9.40225 7.97484 9.39171 7.92862C9.38118 7.8824 9.38335 7.83418 9.39802 7.7891C9.41268 7.74402 9.43929 7.70375 9.475 7.67257L9.4762 7.67162L9.4755 7.66842ZM8.46914 6.73364V6.73509C8.47137 6.79053 8.49141 6.84378 8.5263 6.88694C8.56838 6.93989 8.62933 6.9745 8.69636 6.98351C8.7634 6.99253 8.83132 6.97524 8.88589 6.93529L8.88715 6.93434L8.89155 6.93629L10.1708 6.02929C9.68403 5.55309 9.05458 5.24952 8.37885 5.16504L8.4677 6.73289L8.46914 6.73364Z" fill="black"/>
</svg>
