<svg width="16" height="16" viewBox="0 0 16 16" fill="none" xmlns="http://www.w3.org/2000/svg">
<path fill-rule="evenodd" clip-rule="evenodd" d="M13.0383 1.79392C13.0485 1.96137 13.0087 2.12808 12.9238 2.27281C12.839 2.41754 12.713 2.53374 12.5619 2.60661C12.4108 2.67947 12.2414 2.70571 12.0753 2.68198C11.9092 2.65824 11.754 2.58561 11.6293 2.47333C11.5047 2.36105 11.4163 2.21421 11.3754 2.05151C11.3345 1.88881 11.3429 1.71761 11.3996 1.55973C11.4564 1.40185 11.5588 1.26443 11.6939 1.16497C11.829 1.06552 11.9907 1.00853 12.1583 1.00127C12.2682 0.995204 12.3782 1.01093 12.482 1.04753C12.5858 1.08414 12.6814 1.14091 12.7631 1.21458C12.8449 1.28824 12.9113 1.37735 12.9586 1.47678C13.0058 1.5762 13.0329 1.68398 13.0383 1.79392ZM8.10955 11.5556C5.86625 11.5556 3.89455 10.7506 2.87515 9.56152C3.27071 10.6311 3.98445 11.5539 4.92029 12.2056C5.85614 12.8573 6.96917 13.2066 8.10958 13.2066C9.24998 13.2066 10.363 12.8573 11.2989 12.2056C12.2347 11.5539 12.9484 10.6311 13.344 9.56152C12.3271 10.7505 10.3629 11.5556 8.10955 11.5556ZM13.344 5.81822C12.3246 4.62917 10.3529 3.82417 8.10955 3.82417C5.8563 3.82417 3.8946 4.62677 2.87515 5.81822C3.27071 4.74861 3.98445 3.82586 4.92029 3.17416C5.85614 2.52246 6.96917 2.1731 8.10958 2.1731C9.24998 2.1731 10.363 2.52246 11.2989 3.17416C12.2347 3.82586 12.9484 4.74861 13.344 5.81822ZM5.02135 13.8694C5.03519 14.1307 4.95133 14.3878 4.78608 14.5908C4.62083 14.7937 4.38601 14.9279 4.12729 14.9673C3.86856 15.0067 3.60443 14.9485 3.38627 14.8039C3.16811 14.6594 3.01151 14.4389 2.94693 14.1853C2.88235 13.9316 2.9144 13.6631 3.03686 13.4318C3.15933 13.2005 3.36343 13.023 3.60949 12.9339C3.85555 12.8447 4.12597 12.8503 4.36815 12.9495C4.61033 13.0487 4.80696 13.2344 4.9198 13.4706C4.97928 13.5956 5.01378 13.7311 5.02135 13.8694ZM2.78755 3.45981C2.88999 3.52403 3.00914 3.55653 3.13 3.55322C3.29334 3.54673 3.44753 3.47607 3.55909 3.35658C3.67065 3.23709 3.73057 3.07842 3.72585 2.91502C3.72086 2.79421 3.68027 2.67758 3.60918 2.57978C3.53809 2.48198 3.43967 2.40738 3.3263 2.36537C3.21293 2.32335 3.08967 2.31579 2.97201 2.34363C2.85435 2.37148 2.74755 2.43349 2.66504 2.52186C2.58253 2.61024 2.52799 2.72104 2.50827 2.84033C2.48856 2.95962 2.50455 3.08207 2.55425 3.19229C2.60394 3.30252 2.68511 3.39559 2.78755 3.45981Z" fill="black"/>
</svg>
