<svg width="16" height="16" viewBox="0 0 16 16" fill="none" xmlns="http://www.w3.org/2000/svg">
<path fill-rule="evenodd" clip-rule="evenodd" d="M3.645 2H12.355C12.5304 2.00042 12.704 2.03539 12.8659 2.10291C13.0278 2.17043 13.1748 2.26918 13.2986 2.39351C13.4223 2.51785 13.5204 2.66535 13.5871 2.82757C13.6538 2.9898 13.6879 3.16358 13.6875 3.339V15L12.29 13.765L11.5035 13.037L10.6715 12.2635L11.016 13.466H3.645C3.46959 13.4656 3.29597 13.4306 3.13407 13.3631C2.97217 13.2956 2.82516 13.1968 2.70142 13.0725C2.57769 12.9481 2.47965 12.8007 2.41292 12.6384C2.34619 12.4762 2.31207 12.3024 2.3125 12.127V3.339C2.31207 3.16358 2.34619 2.9898 2.41292 2.82757C2.47965 2.66535 2.57769 2.51785 2.70142 2.39351C2.82516 2.26918 2.97217 2.17043 3.13407 2.10291C3.29597 2.03539 3.46959 2.00042 3.645 2ZM9.417 9.9625C9.612 10.2095 9.846 10.489 9.846 10.489C10.2329 10.4988 10.6164 10.4139 10.963 10.2417C11.3097 10.0695 11.609 9.81523 11.835 9.501C11.8139 8.18326 11.4939 6.88752 10.899 5.7115C10.3755 5.30037 9.73732 5.06189 9.0725 5.029L8.9815 5.133C9.57336 5.29049 10.125 5.57186 10.6 5.9585C9.99477 5.6249 9.33012 5.41292 8.6435 5.3345C8.20689 5.28639 7.76608 5.29075 7.3305 5.3475C7.29336 5.34862 7.25639 5.35297 7.22 5.3605C6.70969 5.41852 6.21173 5.55672 5.7445 5.77C5.504 5.8805 5.361 5.9585 5.361 5.9585C5.86136 5.55252 6.44503 5.26179 7.0705 5.107L7.0055 5.029C6.34069 5.06189 5.70248 5.30037 5.179 5.7115C4.58415 6.88752 4.26411 8.18326 4.243 9.501C4.46719 9.81554 4.76524 10.0701 5.11094 10.2424C5.45664 10.4147 5.83939 10.4994 6.2255 10.489C6.2255 10.489 6.466 10.1965 6.661 9.9495C6.20402 9.83424 5.80167 9.56294 5.5235 9.1825C5.5235 9.1825 5.5885 9.228 5.7055 9.293C5.71292 9.30102 5.72173 9.30763 5.7315 9.3125C5.74125 9.319 5.751 9.32388 5.76075 9.32875C5.7705 9.33362 5.78025 9.3385 5.79 9.345C5.94292 9.42946 6.10146 9.5033 6.2645 9.566C6.57382 9.68809 6.89365 9.78164 7.22 9.8455C7.77589 9.95229 8.34681 9.95449 8.9035 9.852C9.22737 9.79536 9.54362 9.70157 9.846 9.5725C10.1089 9.47331 10.3596 9.34465 10.5935 9.189C10.3049 9.57758 9.88816 9.85157 9.417 9.9625ZM6.40568 7.5449C6.53257 7.47306 6.6782 7.44121 6.8235 7.45351C6.91443 7.4573 7.00371 7.47898 7.08625 7.5173C7.16879 7.55562 7.24297 7.60984 7.30454 7.67685C7.36612 7.74385 7.41388 7.82234 7.4451 7.90782C7.47633 7.9933 7.49039 8.08409 7.4865 8.17501C7.48651 8.32083 7.44248 8.46325 7.3602 8.58364C7.27791 8.70402 7.1612 8.79676 7.02533 8.84971C6.88946 8.90266 6.74077 8.91335 6.59873 8.88039C6.45668 8.84742 6.32789 8.77234 6.22923 8.66497C6.13056 8.5576 6.06661 8.42294 6.04575 8.27862C6.02489 8.1343 6.04809 7.98705 6.11231 7.85613C6.17653 7.72521 6.27878 7.61673 6.40568 7.5449ZM8.77818 7.5449C8.90507 7.47306 9.0507 7.44121 9.196 7.45351C9.28693 7.4573 9.37621 7.47898 9.45875 7.5173C9.54129 7.55562 9.61547 7.60984 9.67704 7.67685C9.73862 7.74385 9.78638 7.82234 9.8176 7.90782C9.84883 7.9933 9.86289 8.08409 9.859 8.17501C9.85901 8.32083 9.81498 8.46325 9.7327 8.58364C9.65041 8.70402 9.5337 8.79676 9.39783 8.84971C9.26196 8.90266 9.11327 8.91335 8.97122 8.88039C8.82918 8.84742 8.7004 8.77234 8.60173 8.66497C8.50306 8.5576 8.43911 8.42294 8.41825 8.27862C8.39739 8.1343 8.42059 7.98705 8.48481 7.85613C8.54903 7.72521 8.65128 7.61673 8.77818 7.5449Z" fill="black"/>
</svg>
