<svg width="16" height="16" viewBox="0 0 16 16" fill="none" xmlns="http://www.w3.org/2000/svg">
<path d="M14.5 11.93H13.5C13.5 12.0434 13.4776 12.1556 13.4341 12.2603C13.3905 12.3649 13.3267 12.46 13.2463 12.5399C13.166 12.6198 13.0706 12.6831 12.9656 12.726C12.8607 12.7689 12.7484 12.7907 12.635 12.79C12.06 12.79 11.725 12.36 11.345 11.79C12.0847 11.2841 12.6895 10.6051 13.1069 9.81212C13.5244 9.01913 13.7417 8.13615 13.74 7.24001C13.785 3.64501 10.815 1.29501 7.655 1.29501C4.495 1.29501 1.5 3.68501 1.5 7.18501C1.5 10.685 4.5 13.08 7.585 13.08C8.10561 13.0751 8.62272 12.9942 9.12 12.84C9.695 13.895 10.415 14.71 11.85 14.71C12.2156 14.7344 12.5821 14.6781 12.9236 14.5451C13.265 14.4122 13.5731 14.2057 13.8259 13.9405C14.0788 13.6753 14.2702 13.3577 14.3867 13.0103C14.5032 12.6628 14.5419 12.2941 14.5 11.93ZM10.43 10.205C10.1494 9.71786 9.74375 9.31452 9.25499 9.03673C8.76623 8.75895 8.21212 8.61681 7.65 8.62501C6.97993 8.60234 6.32157 8.80477 5.78 9.20001L6.1 10C6.23945 9.95905 6.38487 9.94215 6.53 9.95001C7.44 9.95001 8.03 10.715 8.59 11.77C8.27698 11.842 7.95607 11.8739 7.635 11.865C5.43 11.88 4.5 10.3 4.5 7.23501C4.5 4.17001 5.455 2.58501 7.615 2.58501C9.775 2.58501 10.775 4.16501 10.775 7.23501C10.7996 8.23723 10.6783 9.2377 10.415 10.205H10.43Z" fill="black"/>
</svg>
