<svg width="16" height="16" viewBox="0 0 16 16" fill="none" xmlns="http://www.w3.org/2000/svg">
<path d="M14.705 4.63004C14.6253 4.33406 14.4693 4.06419 14.2526 3.84745C14.0359 3.63072 13.766 3.4747 13.47 3.39504C12.38 3.10004 8.00001 3.10004 8.00001 3.10004C8.00001 3.10004 3.62001 3.10004 2.53001 3.39504C2.23403 3.4747 1.96417 3.63072 1.74743 3.84745C1.53069 4.06419 1.37468 4.33406 1.29501 4.63004C1.09148 5.74167 0.992717 6.86995 1.00001 8.00004C0.992717 9.13012 1.09148 10.2584 1.29501 11.37C1.37468 11.666 1.53069 11.9359 1.74743 12.1526C1.96417 12.3694 2.23403 12.5254 2.53001 12.605C3.62001 12.9 8.00001 12.9 8.00001 12.9C8.00001 12.9 12.38 12.9 13.47 12.605C13.766 12.5254 14.0359 12.3694 14.2526 12.1526C14.4693 11.9359 14.6253 11.666 14.705 11.37C14.9085 10.2584 15.0073 9.13012 15 8.00004C15.0073 6.86995 14.9085 5.74167 14.705 4.63004ZM6.60001 10.1V5.90004L10.235 8.00004L6.60001 10.1Z" fill="black"/>
</svg>
