<svg width="16" height="16" viewBox="0 0 16 16" fill="none" xmlns="http://www.w3.org/2000/svg">
<path d="M13.05 2.85C11.75 1 9.2 0.45 7.35 1.6L4.1 3.7C3.2 4.25 2.6 5.15 2.4 6.2C2.25 7.05 2.4 7.95 2.8 8.75C2.5 9.15 2.35 9.65 2.25 10.15C2.05 11.2 2.3 12.3 2.95 13.15C4.25 15 6.8 15.55 8.65 14.4L11.9 12.3C12.8 11.75 13.4 10.85 13.6 9.8C13.75 8.95 13.6 8.05 13.2 7.25C13.5 6.85 13.65 6.35 13.75 5.85C13.95 4.8 13.7 3.7 13.05 2.85ZM12.15 5.5C12.15 5.6 12.1 5.7 12.05 5.8L12 6L11.85 5.9C11.45 5.6 11.05 5.4 10.55 5.25L10.45 5.2V5.1C10.45 4.95 10.4 4.75 10.3 4.6C10.1 4.35 9.8 4.2 9.45 4.3C9.4 4.3 9.3 4.35 9.25 4.4L6 6.45C5.85 6.55 5.75 6.7 5.7 6.9C5.65 7.1 5.7 7.3 5.8 7.45C6 7.7 6.3 7.85 6.65 7.75C6.7 7.75 6.8 7.7 6.85 7.65L8.1 6.85C8.3 6.7 8.55 6.6 8.75 6.55C9.8 6.3 10.9 6.7 11.55 7.6C11.9 8.1 12.05 8.8 11.95 9.4C11.85 10 11.45 10.55 10.95 10.9L7.7 13C7.5 13.15 7.25 13.25 7.05 13.3C6 13.55 4.9 13.15 4.25 12.25C3.9 11.75 3.75 11.05 3.85 10.45C3.85 10.35 3.9 10.25 3.95 10.15L4 10L4.15 10.1C4.55 10.4 4.95 10.6 5.45 10.75L5.55 10.8V10.9C5.55 11.05 5.6 11.25 5.7 11.4C5.9 11.65 6.2 11.8 6.55 11.7C6.6 11.7 6.7 11.65 6.75 11.6L10 9.5C10.15 9.4 10.25 9.25 10.3 9.05C10.35 8.85 10.3 8.65 10.2 8.5C10 8.25 9.7 8.1 9.35 8.2C9.3 8.2 9.2 8.25 9.15 8.3L7.9 9.1C7.7 9.25 7.45 9.35 7.25 9.4C6.2 9.65 5.1 9.25 4.45 8.35C4.05 7.85 3.95 7.15 4.05 6.55C4.15 5.95 4.55 5.4 5.05 5.05L8.3 2.95C8.5 2.8 8.75 2.7 8.95 2.65C10 2.4 11.1 2.8 11.75 3.7C12.1 4.25 12.25 4.9 12.15 5.5Z" fill="black"/>
</svg>
