<svg width="16" height="16" viewBox="0 0 16 16" fill="none" xmlns="http://www.w3.org/2000/svg">
<path d="M2 2V14H14V2H2ZM6.05 4.5C6.45 4.5 6.75 4.8 6.75 5.2C6.75 5.6 6.45 5.9 6.05 5.9C5.65 5.9 5.35 5.6 5.35 5.2C5.4 4.8 5.7 4.5 6.05 4.5ZM10.75 11.1C10.05 11.1 9.7 10.7 9.7 10.1C9.7 9.95 9.7 9.75 9.75 9.6L10.1 8.4C10.15 8.3 10.15 8.15 10.15 8.05C10.15 7.65 9.9 7.4 9.55 7.4C9.05 7.4 8.75 7.75 8.6 8.4L7.95 11H6.8L7 10.15C6.65 10.7 6.2 11.05 5.6 11.05C4.9 11.05 4.55 10.65 4.55 10.05C4.55 9.9 4.55 9.7 4.6 9.55L5.15 7.4H4.35L4.6 6.5H6.55L5.8 9.55C5.75 9.7 5.75 9.85 5.75 10C5.75 10.2 5.85 10.25 6 10.3C6.1 10.3 6.8 10.3 7.2 9.4L7.7 7.35H6.9L7.15 6.45H8.9L8.65 7.5C8.95 6.9 9.6 6.4 10.2 6.4C10.85 6.4 11.4 6.85 11.4 7.75C11.4 8 11.35 8.25 11.3 8.5L10.95 9.7C10.9 9.8 10.9 9.9 10.9 10C10.9 10.2 11 10.3 11.15 10.3C11.3 10.3 11.5 10.2 11.75 9.55L12.2 9.75C11.85 10.7 11.35 11.1 10.75 11.1Z" fill="black"/>
</svg>
