<svg width="16" height="16" viewBox="0 0 16 16" fill="none" xmlns="http://www.w3.org/2000/svg">
<path fill-rule="evenodd" clip-rule="evenodd" d="M3.24 3.80005V5.76005H1V10.5H4.64V3.80005H3.24ZM3.24 9.40005H2.4V6.90005H3.24V9.40005ZM6.6 5.76001H5.2V10.52H6.6V5.76001ZM5.2 3.80005H6.6V5.20005H5.2V3.80005ZM7.16 5.76001V10.5H9.4V11.06H7.16V12.2H10.8V5.76001H7.16ZM9.4 9.40001H8.56V6.90001H9.4V9.40001ZM11.36 10.5V5.76001H15V12.2H11.36V11.06H13.6V10.5H11.36ZM12.76 9.40001H13.6V6.90001H12.76V9.40001Z" fill="black"/>
</svg>
