<svg width="16" height="16" viewBox="0 0 16 16" fill="none" xmlns="http://www.w3.org/2000/svg">
<path fill-rule="evenodd" clip-rule="evenodd" d="M12.05 5.64999L12.5 5.79999C14 6.34999 15 7.14999 15.05 7.89999C15.05 8.74999 14 9.59999 12.4 10.15C12.3719 10.1781 12.3281 10.1904 12.2773 10.2046C12.2377 10.2158 12.1938 10.2281 12.15 10.25C12.2 10.4 12.25 10.55 12.25 10.65C12.55 12.25 12.3 13.55 11.55 14C10.8 14.45 9.65 14.05 8.45 13C8.3 12.9 8.15 12.75 8.05 12.65C7.95 12.7 7.85 12.8 7.75 12.9C6.5 14 5.25 14.45 4.5 14C3.8 13.55 3.55 12.35 3.85 10.8C3.85 10.65 3.9 10.45 3.95 10.3C3.8 10.3 3.65 10.25 3.55 10.2C2 9.69999 1 8.79999 1 7.94999C1 7.14999 1.95 6.29999 3.45 5.79999C3.6 5.74999 3.75 5.69999 3.95 5.64999C3.925 5.57499 3.9125 5.49999 3.9 5.42499C3.8875 5.34999 3.875 5.27499 3.85 5.19999C3.55 3.64999 3.75 2.34999 4.5 1.94999C5.25 1.49999 6.5 1.94999 7.7 3.04999C7.75 3.07499 7.7875 3.11249 7.825 3.14999C7.8625 3.18749 7.9 3.22499 7.95 3.24999C8 3.19999 8.0625 3.14999 8.125 3.09999C8.1875 3.04999 8.25 2.99999 8.3 2.94999C9.5 1.89999 10.7 1.49999 11.45 1.89999C12.2 2.34999 12.45 3.69999 12.1 5.34999C12.1 5.39999 12.0875 5.44999 12.075 5.49999C12.0625 5.54999 12.05 5.59999 12.05 5.64999ZM11.2 2.44999C10.75 2.19999 9.8 2.54999 8.75 3.44999L8.45 3.74999C8.9 4.24999 9.3 4.74999 9.65 5.24999C10.25 5.29999 10.9 5.39999 11.5 5.54999C11.5 5.49999 11.5125 5.44999 11.525 5.39999C11.5375 5.34999 11.55 5.29999 11.55 5.24999C11.85 3.79999 11.65 2.69999 11.2 2.44999ZM5.35 9.07499C5.2875 8.94999 5.225 8.82499 5.15 8.69999C4.95 9.14999 4.8 9.54999 4.7 9.94999C5.15 10.05 5.55 10.1 6 10.15C5.85 9.94999 5.7 9.69999 5.55 9.44999L5.55 9.44999C5.475 9.32499 5.4125 9.19999 5.35 9.07499ZM4.83889 6.49999C4.92778 6.76666 5.01667 7.03332 5.15 7.29999C5.21834 7.12915 5.31003 6.9583 5.39315 6.80341C5.43166 6.73165 5.46834 6.66331 5.5 6.59999C5.575 6.47499 5.65 6.36249 5.725 6.24999C5.8 6.13749 5.875 6.02499 5.95 5.89999C5.91039 5.90494 5.87029 5.90989 5.82979 5.91489C5.46137 5.96038 5.06039 6.00989 4.7 6.09999C4.75 6.23332 4.79444 6.36666 4.83889 6.49999ZM5.75 7.42499C5.65 7.61249 5.55 7.79999 5.45 7.99999C5.65 8.39999 5.85 8.74999 6.1 9.14999C6.16996 9.26193 6.23601 9.36995 6.30033 9.47515C6.46585 9.74588 6.61996 9.99793 6.8 10.25C7.2 10.3 7.6 10.3 8.05 10.3C8.5 10.3 8.95 10.3 9.35 10.25C9.45 10.075 9.5625 9.88749 9.675 9.69998C9.7875 9.51249 9.9 9.32499 10 9.14999C10.1 8.94999 10.2 8.76249 10.3 8.57499C10.4 8.38749 10.5 8.19999 10.6 7.99999C10.4 7.59999 10.2 7.19999 10 6.84999C9.8 6.44999 9.6 6.09999 9.35 5.74999C8.9 5.69999 8.5 5.69999 8.05 5.69999C7.6 5.69999 7.15 5.69999 6.75 5.74999C6.5 6.09999 6.25 6.49999 6.05 6.84999C5.95 7.04999 5.85 7.23749 5.75 7.42499ZM10.45 9.44997L10.45 9.44999C10.35 9.64999 10.2 9.89999 10 10.15C10.45 10.1 10.85 10.05 11.3 9.94999C11.2 9.49999 11.05 9.09999 10.85 8.69999C10.75 8.94998 10.6 9.19998 10.45 9.44997ZM10.65 6.92499C10.7125 7.04999 10.775 7.17499 10.85 7.29999C11.05 6.89999 11.2 6.49999 11.35 6.04999C11.125 6.02499 10.9125 5.98749 10.7 5.94999C10.4875 5.91249 10.275 5.87499 10.05 5.84999C10.122 6.03003 10.22 6.18413 10.3252 6.34966C10.366 6.41398 10.408 6.48003 10.45 6.54999C10.525 6.67499 10.5875 6.79999 10.65 6.92499ZM8.8 5.14999C8.55 4.79999 8.3 4.44999 8 4.14999C7.75 4.44999 7.45 4.79999 7.15 5.14999C7.7 5.09999 8.25 5.09999 8.8 5.14999ZM7.4 3.54999C6.3 2.54999 5.25 2.19999 4.8 2.44999C4.35 2.69999 4.15 3.74999 4.45 5.09999C4.475 5.17499 4.4875 5.24999 4.5 5.32499C4.5125 5.39999 4.525 5.47499 4.55 5.54999C5.15 5.39999 5.75 5.29999 6.4 5.24999C6.75 4.69999 7.15 4.19999 7.6 3.74999L7.4 3.54999ZM3.925 9.74999C3.9875 9.76249 4.05 9.77499 4.1 9.79999C4.3 9.19999 4.5 8.59999 4.8 7.99999C4.5 7.44999 4.3 6.84999 4.15 6.24999C3.95 6.29999 3.8 6.34999 3.65 6.39999C2.35 6.84999 1.6 7.49999 1.6 7.99999C1.6 8.24999 1.75 8.54999 2.1 8.84999C2.5 9.14999 3.05 9.44999 3.75 9.69999C3.8 9.72499 3.8625 9.73749 3.925 9.74999ZM5.8 13.55C6.25 13.35 6.8 13.05 7.35 12.55C7.4 12.5 7.4375 12.45 7.475 12.4C7.5125 12.35 7.55 12.3 7.6 12.25C7.15 11.75 6.75 11.25 6.4 10.75C5.75 10.75 5.1 10.65 4.5 10.5C4.5 10.6657 4.46569 10.797 4.42548 10.951C4.41716 10.9828 4.40858 11.0157 4.4 11.05C4.15 12.35 4.35 13.35 4.8 13.6C5.05 13.7 5.35 13.7 5.8 13.55ZM7.45619 11.2219C7.63452 11.4431 7.8069 11.6569 8 11.85C8.3 11.55 8.6 11.2 8.8 10.85H7.95H7.15C7.2569 10.9747 7.35746 11.0994 7.45619 11.2219ZM11.2 13.55C11.4 13.45 11.55 13.15 11.65 12.7C11.75 12.2 11.75 11.55 11.6 10.85C11.575 10.8 11.5625 10.7375 11.55 10.675C11.5375 10.6125 11.525 10.55 11.5 10.5C10.85 10.65 10.25 10.75 9.6 10.8C9.25 11.35 8.85 11.85 8.45 12.3C8.5 12.35 8.5625 12.4 8.625 12.45C8.6875 12.5 8.75 12.55 8.8 12.6C9.8 13.45 10.75 13.8 11.2 13.55ZM12.025 9.72499C12.0625 9.71249 12.1 9.69999 12.15 9.69999C13.55 9.24999 14.4 8.54999 14.4 7.94999C14.4 7.44999 13.6 6.79999 12.3 6.34999C12.2 6.29999 12.05 6.24999 11.9 6.2L11.9 6.19999C11.7 6.79999 11.45 7.39999 11.2 7.94999C11.45 8.54999 11.7 9.14999 11.9 9.74999C11.95 9.74999 11.9875 9.73749 12.025 9.72499ZM8.7002 9.0502C8.5002 9.2002 8.2502 9.2502 8.0002 9.2502C7.8502 9.2502 7.6502 9.2002 7.4502 9.1002C7.3002 9.0502 7.1502 8.9502 7.0502 8.8502C6.9502 8.7502 6.8502 8.6002 6.8002 8.4502C6.7502 8.3002 6.7002 8.1002 6.7002 7.9502C6.7002 7.7002 6.7502 7.4502 6.9002 7.2502C7.0002 7.0502 7.2002 6.9002 7.4502 6.8002C7.7002 6.7502 7.9502 6.7002 8.2002 6.7502C8.4502 6.8002 8.7002 6.9002 8.8502 7.1002C9.0502 7.3002 9.1502 7.5002 9.2002 7.7502C9.2502 8.0002 9.2502 8.2502 9.1502 8.5002C9.05019 8.7002 8.9002 8.9002 8.7002 9.0502Z" fill="black"/>
</svg>
