<svg width="16" height="16" viewBox="0 0 16 16" fill="none" xmlns="http://www.w3.org/2000/svg">
<path fill-rule="evenodd" clip-rule="evenodd" d="M4.18715 3.64085C4.88587 3.22179 5.68525 3.0003 6.5 3C7.69347 3 8.83807 3.47411 9.68198 4.31802C10.5259 5.16193 11 6.30653 11 7.5C11 8.69347 10.5259 9.83807 9.68198 10.682C8.83807 11.5259 7.69347 12 6.5 12H1V11H6.5C7.2803 11 8.0382 10.7392 8.65331 10.2591C9.26842 9.77896 9.70546 9.10707 9.89499 8.35014C10.0845 7.59321 10.0157 6.79466 9.6994 6.08134C9.38312 5.36801 8.83754 4.78084 8.14934 4.41309C7.46114 4.04534 6.66979 3.91811 5.901 4.05161C5.1322 4.18511 4.43007 4.57168 3.90614 5.14992C3.38221 5.72815 3.06653 6.46489 3.00925 7.24308C2.95197 8.02127 3.15638 8.79628 3.59 9.445L2.76 10C2.30736 9.32255 2.04714 8.53492 2.0071 7.72116C1.96705 6.90739 2.14869 6.09802 2.53264 5.37941C2.91658 4.6608 3.48843 4.05991 4.18715 3.64085ZM13 11L11.795 9.705L12.5 9L15 11.5L12.5 14L11.795 13.295L13 12H10.5V11H13Z" fill="black"/>
</svg>
