<svg width="16" height="16" viewBox="0 0 16 16" fill="none" xmlns="http://www.w3.org/2000/svg">
<path fill-rule="evenodd" clip-rule="evenodd" d="M15 7V8H14V10.5H15V11.5H14V13C13.9994 13.5303 13.7885 14.0386 13.4136 14.4136C13.0386 14.7885 12.5303 14.9994 12 15H4C3.46975 14.9994 2.96139 14.7885 2.58644 14.4136C2.2115 14.0386 2.0006 13.5303 2 13V11.5H1V10.5H2V8H1V7H2V5C2.0006 4.46975 2.2115 3.96139 2.58644 3.58644C2.96139 3.2115 3.46975 3.0006 4 3H5V1H6V3H10V1H11V3H12C12.5303 3.0006 13.0386 3.2115 13.4136 3.58644C13.7885 3.96139 13.9994 4.46975 14 5V7H15ZM12.7068 13.7068C12.8942 13.5193 12.9997 13.2651 13 13V5C12.9997 4.73488 12.8942 4.4807 12.7068 4.29323C12.5193 4.10576 12.2651 4.0003 12 4H4C3.73488 4.0003 3.4807 4.10576 3.29323 4.29323C3.10576 4.4807 3.0003 4.73488 3 5V13C3.0003 13.2651 3.10576 13.5193 3.29323 13.7068C3.4807 13.8942 3.73488 13.9997 4 14H12C12.2651 13.9997 12.5193 13.8942 12.7068 13.7068ZM6 7.00005C5.80222 7.00005 5.60888 7.0587 5.44443 7.16858C5.27998 7.27846 5.15181 7.43464 5.07612 7.61736C5.00043 7.80009 4.98063 8.00116 5.01922 8.19514C5.0578 8.38912 5.15304 8.5673 5.29289 8.70715C5.43275 8.84701 5.61093 8.94225 5.80491 8.98083C5.99889 9.01942 6.19996 8.99962 6.38268 8.92393C6.56541 8.84824 6.72159 8.72007 6.83147 8.55562C6.94135 8.39117 7 8.19783 7 8.00005C7.0013 7.86837 6.97632 7.73775 6.92652 7.61584C6.87672 7.49393 6.80311 7.38317 6.71 7.29005C6.61688 7.19693 6.50612 7.12332 6.38421 7.07353C6.2623 7.02373 6.13168 6.99875 6 7.00005ZM9.44443 7.16858C9.60888 7.0587 9.80222 7.00005 10 7.00005C10.1317 6.99875 10.2623 7.02373 10.3842 7.07353C10.5061 7.12332 10.6169 7.19693 10.71 7.29005C10.8031 7.38317 10.8767 7.49393 10.9265 7.61584C10.9763 7.73775 11.0013 7.86837 11 8.00005C11 8.19783 10.9414 8.39117 10.8315 8.55562C10.7216 8.72007 10.5654 8.84824 10.3827 8.92393C10.2 8.99962 9.99889 9.01942 9.80491 8.98083C9.61093 8.94225 9.43275 8.84701 9.29289 8.70715C9.15304 8.5673 9.0578 8.38912 9.01922 8.19514C8.98063 8.00116 9.00043 7.80009 9.07612 7.61736C9.15181 7.43464 9.27998 7.27846 9.44443 7.16858ZM6.34487 12.0849C6.85381 12.3579 7.42246 12.5005 8 12.5C8.57753 12.5005 9.14618 12.3579 9.65512 12.0849C10.1641 11.8119 10.5974 11.4171 10.9165 10.9357L10.0835 10.382C9.85541 10.7257 9.54579 11.0078 9.18226 11.2028C8.81872 11.3979 8.41257 11.5 8 11.5C7.58743 11.5 7.18127 11.3979 6.81773 11.2028C6.4542 11.0078 6.14458 10.7257 5.9165 10.382L5.0835 10.9357C5.40256 11.4171 5.83593 11.8119 6.34487 12.0849Z" fill="black"/>
</svg>
