<svg width="16" height="16" viewBox="0 0 16 16" fill="none" xmlns="http://www.w3.org/2000/svg">
<path fill-rule="evenodd" clip-rule="evenodd" d="M0.999985 1.99999L1.99997 1L2.99996 1.99999L1.99997 2.99998L0.999985 1.99999ZM8.00002 1L7.00003 1.99999L8.00002 2.99998L9.00001 1.99999L8.00002 1ZM6.00001 3.29297L14.7071 12V11.9998C14.7999 12.0926 14.8736 12.2028 14.9239 12.3241C14.9741 12.4455 15 12.5755 15 12.7068C15 12.8381 14.9741 12.9681 14.9239 13.0895C14.8736 13.2108 14.7999 13.321 14.7071 13.4138L13.4136 14.7071C13.2259 14.8943 12.9716 14.9994 12.7065 14.9994C12.4415 14.9994 12.1872 14.8943 11.9995 14.7071L3.29296 6.00002C3.10573 5.81236 3.00058 5.55809 3.00058 5.293C3.00058 5.02791 3.10573 4.77364 3.29296 4.58597L4.58596 3.29297C4.77642 3.11111 5.02964 3.00963 5.29298 3.00963C5.55633 3.00963 5.80954 3.11111 6.00001 3.29297ZM5.29296 4.00002L4.00001 5.29297L3.99966 5.29347L6.49966 7.79347L7.79296 6.50002L5.29296 4.00002ZM7.20656 8.50052L12.7066 14L14 12.7071L8.50001 7.20707L7.20656 8.50052ZM1.00003 7.99999L2.00002 7L3.00001 7.99999L2.00002 8.99998L1.00003 7.99999Z" fill="black"/>
</svg>
