<svg width="16" height="16" viewBox="0 0 16 16" fill="none" xmlns="http://www.w3.org/2000/svg">
<path fill-rule="evenodd" clip-rule="evenodd" d="M2 10.5H6V11.5H2C1.73478 11.5 1.48043 11.3946 1.29289 11.2071C1.10536 11.0196 1 10.7652 1 10.5V2C1 1.73478 1.10536 1.48043 1.29289 1.29289C1.48043 1.10536 1.73478 1 2 1H11C11.2652 1 11.5196 1.10536 11.7071 1.29289C11.8946 1.48043 12 1.73478 12 2V6H11V2H2V10.5ZM13.445 12.7349L15 14.2899L14.29 14.9999L12.735 13.4449C12.1217 13.8802 11.3674 14.0693 10.6213 13.9747C9.87521 13.8801 9.19188 13.5088 8.70664 12.9342C8.2214 12.3597 7.96964 11.6238 8.00124 10.8725C8.03285 10.1211 8.3455 9.40899 8.87727 8.87722C9.40905 8.34544 10.1212 8.03279 10.8725 8.00119C11.6239 7.96958 12.3597 8.22134 12.9343 8.70658C13.5088 9.19182 13.8802 9.87516 13.9748 10.6212C14.0694 11.3673 13.8803 12.1217 13.445 12.7349ZM9.88886 12.6629C10.2178 12.8826 10.6044 12.9999 11 12.9999C11.5304 12.9999 12.0391 12.7892 12.4142 12.4142C12.7893 12.0391 13 11.5304 13 10.9999C13 10.6044 12.8827 10.2177 12.6629 9.8888C12.4432 9.5599 12.1308 9.30356 11.7654 9.15218C11.3999 9.00081 10.9978 8.9612 10.6098 9.03837C10.2219 9.11554 9.86549 9.30602 9.58579 9.58573C9.30608 9.86543 9.1156 10.2218 9.03843 10.6098C8.96126 10.9977 9.00087 11.3999 9.15224 11.7653C9.30362 12.1308 9.55996 12.4431 9.88886 12.6629Z" fill="black"/>
</svg>
