<svg width="16" height="16" viewBox="0 0 16 16" fill="none" xmlns="http://www.w3.org/2000/svg">
<path fill-rule="evenodd" clip-rule="evenodd" d="M2 11H5V12H2C1.73489 11.9997 1.48073 11.8942 1.29327 11.7067C1.10581 11.5193 1.00034 11.2651 1 11V2.99825C1.00046 2.73334 1.10603 2.47943 1.29351 2.29227C1.481 2.10512 1.73509 2 2 2H14C14.2651 2.00033 14.5193 2.10579 14.7067 2.29326C14.8942 2.48072 14.9997 2.73489 15 3V8H14V3.4543L8.28465 7.41115C8.201 7.46901 8.10171 7.5 8 7.5C7.89829 7.5 7.799 7.46901 7.71535 7.41115L1.9983 3.4532L2 11ZM8 6.39185L12.8993 3H3.1007L8 6.39185ZM11.7929 9.70705L12.5 9L15 11.5L12.5 14L11.7922 13.2937L13.0836 12H9C8.73478 12 8.48043 12.1054 8.29289 12.2929C8.10536 12.4804 8 12.7348 8 13C8 13.2652 8.10536 13.5196 8.29289 13.7071C8.48043 13.8946 8.73478 14 9 14H10V15H9C8.46957 15 7.96086 14.7893 7.58579 14.4142C7.21071 14.0391 7 13.5304 7 13C7 12.4696 7.21071 11.9609 7.58579 11.5858C7.96086 11.2107 8.46957 11 9 11H13.0836L11.7929 9.70705Z" fill="black"/>
</svg>
