<svg width="16" height="16" viewBox="0 0 16 16" fill="none" xmlns="http://www.w3.org/2000/svg">
<path fill-rule="evenodd" clip-rule="evenodd" d="M12.654 6.02648L12.0637 5.91968L11.9505 5.33158C11.81 4.55994 11.4497 3.84529 10.9128 3.2735C10.376 2.70171 9.68542 2.29713 8.92415 2.10838C8.43057 1.99101 7.91911 1.96894 7.41725 2.04338C6.58112 2.18108 5.80814 2.57429 5.20448 3.16899C4.60082 3.76369 4.19609 4.53071 4.0459 5.36468L3.939 5.91968L3.2646 6.04173C2.90741 6.10625 2.56651 6.24077 2.2615 6.43754C1.95649 6.6343 1.6934 6.88944 1.48737 7.18826C1.28133 7.48709 1.13642 7.82371 1.06096 8.17875C0.985508 8.53379 0.981002 8.90024 1.0477 9.25703C1.18094 9.8983 1.53352 10.4731 2.04479 10.8825C2.55605 11.2918 3.19402 11.5102 3.8489 11.5H7V12.5H3.88625C2.95261 12.5132 2.04611 12.186 1.33619 11.5795C0.626266 10.9729 0.161514 10.1286 0.028804 9.20438C-0.0870427 8.25345 0.165159 7.29421 0.733731 6.52322C1.3023 5.75224 2.1442 5.22788 3.0869 5.05758C3.21091 4.41219 3.4609 3.79757 3.82258 3.24885C4.18426 2.70013 4.65054 2.22808 5.19477 1.85968C5.739 1.49127 6.3505 1.23375 6.99432 1.10181C7.63813 0.969881 8.30164 0.966133 8.9469 1.09078C9.92926 1.27944 10.8325 1.75821 11.5401 2.46531C12.2476 3.1724 12.727 4.07535 12.9163 5.05758C13.8238 5.22175 14.6391 5.71453 15.2064 6.44177C15.7736 7.16902 16.053 8.07975 15.9913 8.99998H14.9766C15.0234 8.5471 14.9554 8.08972 14.7788 7.67005C14.6023 7.25039 14.3228 6.88195 13.9664 6.59873C13.5837 6.30115 13.1325 6.10439 12.654 6.02648ZM12.5 11.5H15V12.5H12.5V15H11.5V12.5H9V11.5H11.5V9H12.5V11.5Z" fill="black"/>
</svg>
