<svg width="16" height="16" viewBox="0 0 16 16" fill="none" xmlns="http://www.w3.org/2000/svg">
<path fill-rule="evenodd" clip-rule="evenodd" d="M2 5H1V2C1.00028 1.73487 1.10572 1.48068 1.2932 1.2932C1.48068 1.10572 1.73487 1.00028 2 1H5V2H2V5ZM7.5 4H8.5V7H7.5V4ZM7.5 9H8.5V12H7.5V9ZM12 7.5H9V8.5H12V7.5ZM4 7.5H7V8.5H4V7.5ZM2 15H5V14H2V11H1V14C1.00028 14.2651 1.10572 14.5193 1.2932 14.7068C1.48068 14.8943 1.73487 14.9997 2 15ZM14 15H11V14H14V11H15V14C14.9997 14.2651 14.8943 14.5193 14.7068 14.7068C14.5193 14.8943 14.2651 14.9997 14 15ZM14 5H15V2C14.9997 1.73487 14.8943 1.48068 14.7068 1.2932C14.5193 1.10572 14.2651 1.00028 14 1H11V2H14V5Z" fill="black"/>
</svg>
