<svg width="16" height="16" viewBox="0 0 16 16" fill="none" xmlns="http://www.w3.org/2000/svg">
<path fill-rule="evenodd" clip-rule="evenodd" d="M9 8.00001V7.00001H11.5V5.00001C11.5 4.7348 11.6054 4.48044 11.7929 4.2929C11.9804 4.10537 12.2348 4.00001 12.5 4.00001H13.25C13.4368 4.00032 13.617 3.93091 13.7553 3.80537C13.8936 3.67983 13.9801 3.5072 13.9978 3.32125C14.0156 3.1353 13.9633 2.94942 13.8512 2.79999C13.7391 2.65056 13.5753 2.54833 13.3919 2.51331L13.0364 2.44556L12.9991 2.16001C12.9735 1.91831 12.8815 1.68841 12.7332 1.49581C12.5849 1.30321 12.3862 1.15544 12.1591 1.06886C11.8669 0.968223 11.5479 0.979141 11.2633 1.09951C10.9787 1.21989 10.7486 1.44122 10.6173 1.72096L10.4657 2.04456L10.1107 2.00601C9.95254 1.99051 9.79296 2.01258 9.64494 2.07043C9.49692 2.12827 9.36466 2.22025 9.25891 2.33887C9.15316 2.4575 9.07692 2.59942 9.0364 2.75309C8.99587 2.90675 8.99221 3.06781 9.0257 3.22316C9.08657 3.45015 9.22192 3.65012 9.41003 3.79099C9.59813 3.93186 9.82811 4.00547 10.0631 4.00001H10.5V5.00001H10.1091C9.59188 5.01036 9.08941 4.82705 8.70032 4.48605C8.31123 4.14505 8.06359 3.67097 8.006 3.15681C7.98551 2.89221 8.01782 2.62618 8.10106 2.37418C8.1843 2.12218 8.31681 1.88924 8.49088 1.6889C8.66494 1.48857 8.8771 1.32484 9.11501 1.20722C9.35292 1.08961 9.61183 1.02047 9.8767 1.00381C10.1146 0.646166 10.45 0.3641 10.8431 0.190937C11.2362 0.0177731 11.6707 -0.0392519 12.0952 0.0265987C12.5197 0.0924494 12.9165 0.278424 13.2386 0.562551C13.5608 0.846678 13.7949 1.21709 13.9134 1.63001C14.2718 1.77724 14.5714 2.03912 14.7652 2.37471C14.959 2.71029 15.0361 3.10064 14.9845 3.48471C14.9128 3.91444 14.6888 4.30401 14.3536 4.58224C14.0183 4.86047 13.5942 5.00876 13.1586 5.00001H12.5V7.00001H14V8.00001H9ZM11 9H9V10H11V9ZM7 8V9H8V10H6V8H7ZM7 5H6V7H7V5ZM5.9095 13.071L8.9425 15L11.591 14H14V9H12V10H13V13H11.409L9.0575 13.888L6.0905 12.0005L3 12.7305V3H6V4H7V2H2V13.9945L5.9095 13.071Z" fill="black"/>
</svg>
