<svg width="16" height="16" viewBox="0 0 16 16" fill="none" xmlns="http://www.w3.org/2000/svg">
<path fill-rule="evenodd" clip-rule="evenodd" d="M1.67077 1.03016L12.6708 5.03016L12.671 5.03001C12.7662 5.0646 12.8487 5.12731 12.9075 5.20984C12.9663 5.29237 12.9986 5.39081 13.0002 5.49213C13.0018 5.59345 12.9726 5.69286 12.9164 5.7772C12.8602 5.86153 12.7797 5.9268 12.6856 5.96436L7.88487 7.88476L5.96422 12.6857C5.92712 12.7785 5.86305 12.8581 5.78028 12.9142C5.69751 12.9702 5.59984 13.0002 5.49987 13.0002H5.49182C5.39055 12.9985 5.29218 12.9661 5.2097 12.9073C5.12722 12.8485 5.06452 12.7661 5.02987 12.6709L1.02987 1.67091C0.997342 1.58147 0.991012 1.48461 1.01163 1.3917C1.03224 1.29879 1.07894 1.21369 1.14624 1.14641C1.21355 1.07912 1.29865 1.03244 1.39157 1.01185C1.48448 0.991253 1.58134 0.997605 1.67077 1.03016ZM7.11512 7.11516L7.31407 7.03561L11.098 5.52221L2.33582 2.33591L5.52217 11.098L7.03557 7.31411L7.11512 7.11516ZM12.5 9H11.5V11H12.5V9ZM12.5 13H11.5V15H12.5V13ZM13 11.5H15V12.5H13V11.5ZM11 11.5H8.99998V12.5H11V11.5Z" fill="black"/>
</svg>
