<svg width="16" height="16" viewBox="0 0 16 16" fill="none" xmlns="http://www.w3.org/2000/svg">
<path fill-rule="evenodd" clip-rule="evenodd" d="M3.5 9.99996H6V8.49996H1.5C1.40666 8.49993 1.31519 8.47377 1.23595 8.42444C1.15671 8.37511 1.09285 8.30458 1.05162 8.22084C1.01038 8.1371 0.993412 8.04349 1.00263 7.95061C1.01184 7.85772 1.04687 7.76927 1.10375 7.69526L6.10035 1.19941C6.16339 1.11557 6.2512 1.05367 6.35136 1.02248C6.45151 0.991299 6.55894 0.992404 6.65843 1.02564C6.75793 1.05888 6.84445 1.12257 6.90575 1.20769C6.96704 1.29282 7.00002 1.39506 7 1.49996V9.99996H12.5C12.576 9.99996 12.6509 10.0173 12.7192 10.0506C12.7875 10.0839 12.8473 10.1323 12.894 10.1922C12.9408 10.2521 12.9733 10.3218 12.9891 10.3961C13.0049 10.4704 13.0035 10.5474 12.9851 10.6211L12.5154 12.5H11.4846L11.8596 11H4.1404L4.5154 12.5H3.4846L3.015 10.6211C2.9966 10.5474 2.99524 10.4704 3.01101 10.3961C3.02679 10.3218 3.05928 10.2521 3.10603 10.1922C3.15278 10.1324 3.21256 10.0839 3.28082 10.0506C3.34909 10.0173 3.42404 9.99998 3.5 9.99996ZM6 2.96996L2.5154 7.49996H6V2.96996ZM12.9189 13.6864C13.182 13.4828 13.3698 13.1976 13.4529 12.8755L14.4212 13.1245C14.2829 13.6615 13.97 14.1372 13.5317 14.4767C13.0933 14.8163 12.5545 15.0004 12 15C11.612 15.0034 11.2286 14.9152 10.8811 14.7426C10.5335 14.5699 10.2317 14.3177 10 14.0063C9.76597 14.3151 9.46361 14.5655 9.11663 14.7379C8.76964 14.9103 8.38746 15 8.00001 15C7.61256 15 7.23037 14.9103 6.88339 14.7379C6.53641 14.5655 6.23405 14.3151 6.00001 14.0063C5.76834 14.3177 5.46647 14.5699 5.11895 14.7426C4.77142 14.9152 4.38805 15.0034 4.00001 15C3.44553 15.0004 2.90668 14.8163 2.46834 14.4767C2.03 14.1372 1.71707 13.6615 1.57886 13.1245L2.54711 12.8755C2.6302 13.1976 2.81806 13.4828 3.08109 13.6864C3.34412 13.89 3.6674 14.0003 4.00001 14C4.34095 13.9799 4.6682 13.8589 4.94007 13.6522C5.21195 13.4455 5.41613 13.1625 5.52661 12.8393C5.5582 12.7392 5.62141 12.652 5.70677 12.5908C5.79212 12.5296 5.89501 12.4977 6.00001 12.5C6.10481 12.5005 6.20684 12.5337 6.29188 12.595C6.37691 12.6563 6.4407 12.7425 6.47436 12.8418C6.58503 13.1644 6.7892 13.4469 7.06089 13.6531C7.33257 13.8594 7.65948 13.9801 8.00001 14C8.34095 13.9799 8.6682 13.8589 8.94007 13.6522C9.21195 13.4455 9.41613 13.1625 9.52661 12.8393C9.55947 12.74 9.623 12.6536 9.70807 12.5926C9.79313 12.5316 9.89535 12.4992 10 12.5C10.1048 12.5005 10.2068 12.5337 10.2919 12.595C10.3769 12.6563 10.4407 12.7425 10.4744 12.8418C10.585 13.1644 10.7892 13.4469 11.0609 13.6531C11.3326 13.8594 11.6595 13.9801 12 14C12.3326 14.0003 12.6559 13.89 12.9189 13.6864ZM11.125 3H11.875L11.875 2.99998H11.125L11.125 3ZM11.5 5.5C11.4011 5.5 11.3044 5.52932 11.2222 5.58427C11.14 5.63921 11.0759 5.71729 11.0381 5.80866C11.0321 5.82293 11.0269 5.83743 11.0224 5.85211C11.0463 5.77473 11.0888 5.70407 11.1464 5.64643C11.2164 5.5765 11.3055 5.52888 11.4025 5.50959C11.4994 5.4903 11.6 5.5002 11.6913 5.53804C11.7827 5.57588 11.8608 5.63997 11.9157 5.7222C11.9348 5.75074 11.9508 5.78103 11.9635 5.81255C11.9386 5.75095 11.9014 5.69434 11.8536 5.64645C11.7598 5.55268 11.6326 5.5 11.5 5.5ZM12 6C12 6.04945 11.9927 6.09834 11.9785 6.14514C11.9548 6.22312 11.9122 6.29486 11.8536 6.35353C11.7598 6.4473 11.6326 6.49998 11.5 6.49998C11.4011 6.49998 11.3044 6.47066 11.2222 6.41572C11.14 6.36077 11.0759 6.28269 11.0381 6.19132M11.8142 1.18528L14.9557 6.96773C14.9856 7.02253 15.0007 7.08415 14.9996 7.14655C14.9984 7.20895 14.9811 7.26998 14.9492 7.32366C14.9174 7.37733 14.8722 7.42181 14.8179 7.45272C14.7637 7.48363 14.7024 7.49992 14.64 7.49998H8.36C8.29759 7.49992 8.23627 7.48363 8.18205 7.45272C8.12784 7.42181 8.08259 7.37733 8.05075 7.32366C8.01891 7.26998 8.00157 7.20895 8.00043 7.14655C7.99929 7.08415 8.01439 7.02253 8.04425 6.96773L11.1858 1.18528C11.2168 1.12915 11.2624 1.08235 11.3176 1.04977C11.3729 1.01719 11.4359 1 11.5 1C11.5641 1 11.6271 1.01719 11.6824 1.04977C11.7376 1.08235 11.7832 1.12915 11.8142 1.18528Z" fill="black"/>
</svg>
