<svg width="16" height="16" viewBox="0 0 16 16" fill="none" xmlns="http://www.w3.org/2000/svg">
<path fill-rule="evenodd" clip-rule="evenodd" d="M4 15H1V1H4V2H2V14H4V15ZM9 2V6.5H10.5V7.5H6.5V6.5H8V4H6.5V3H8V2H9ZM9.22225 10.2949C8.93446 10.1026 8.59612 10 8.25 10C7.78587 10 7.34075 10.1844 7.01256 10.5126C6.68437 10.8408 6.5 11.2859 6.5 11.75C6.5 12.0961 6.60263 12.4345 6.79493 12.7222C6.98722 13.01 7.26053 13.2343 7.5803 13.3668C7.90007 13.4992 8.25194 13.5339 8.59141 13.4664C8.93087 13.3989 9.24269 13.2322 9.48744 12.9874C9.73218 12.7427 9.89885 12.4309 9.96637 12.0914C10.0339 11.7519 9.99924 11.4001 9.86679 11.0803C9.73433 10.7605 9.51003 10.4872 9.22225 10.2949ZM6.72218 9.46346C7.17442 9.16129 7.7061 9 8.25 9C8.97934 9 9.67882 9.28973 10.1945 9.80546C10.7103 10.3212 11 11.0207 11 11.75C11 12.2939 10.8387 12.8256 10.5365 13.2778C10.2344 13.7301 9.80488 14.0825 9.30238 14.2907C8.79988 14.4988 8.24695 14.5533 7.7135 14.4472C7.18005 14.3411 6.69005 14.0791 6.30546 13.6945C5.92086 13.3099 5.65895 12.8199 5.55284 12.2865C5.44673 11.753 5.50119 11.2001 5.70933 10.6976C5.91747 10.1951 6.26995 9.76563 6.72218 9.46346ZM12 15H15V1H12V2H14V14H12V15Z" fill="black"/>
</svg>
