<svg width="16" height="16" viewBox="0 0 16 16" fill="none" xmlns="http://www.w3.org/2000/svg">
<path fill-rule="evenodd" clip-rule="evenodd" d="M4 1H12V2H4V1ZM13 3H3V4H13V3ZM3 5H13C13.2651 5.0003 13.5193 5.10576 13.7068 5.29323C13.8942 5.4807 13.9997 5.73488 14 6V13C13.9997 13.2651 13.8942 13.5193 13.7068 13.7068C13.5193 13.8942 13.2651 13.9997 13 14H3C2.73488 13.9997 2.4807 13.8942 2.29323 13.7068C2.10576 13.5193 2.0003 13.2651 2 13V6C2.0003 5.73488 2.10576 5.4807 2.29323 5.29323C2.4807 5.10576 2.73488 5.0003 3 5Z" fill="black"/>
</svg>
