<svg width="16" height="16" viewBox="0 0 16 16" fill="none" xmlns="http://www.w3.org/2000/svg">
<path fill-rule="evenodd" clip-rule="evenodd" d="M7.5 13H14C14.2651 12.9997 14.5193 12.8943 14.7068 12.7068C14.8943 12.5193 14.9997 12.2651 15 12V4C14.9997 3.73487 14.8943 3.48068 14.7068 3.2932C14.5193 3.10572 14.2651 3.00028 14 3H2C1.73487 3.00028 1.48068 3.10572 1.2932 3.2932C1.10572 3.48068 1.00028 3.73487 1 4V6.5H2V4H14V12H7.5V13ZM6.5 13H5.5C5.49868 11.8069 5.02415 10.6631 4.18052 9.81948C3.33689 8.97585 2.19307 8.50132 1 8.5V7.5C2.45818 7.50165 3.85617 8.08165 4.88726 9.11274C5.91835 10.1438 6.49835 11.5418 6.5 13ZM3.5 13H4.5C4.49897 12.0721 4.12989 11.1824 3.47373 10.5263C2.81758 9.87011 1.92794 9.50103 1 9.5V10.5C1.66281 10.5008 2.29826 10.7644 2.76693 11.2331C3.23561 11.7017 3.49925 12.3372 3.5 13ZM2.5 13H1V11.5C1.39782 11.5 1.77936 11.658 2.06066 11.9393C2.34196 12.2206 2.5 12.6022 2.5 13Z" fill="black"/>
</svg>
