<svg width="16" height="16" viewBox="0 0 16 16" fill="none" xmlns="http://www.w3.org/2000/svg">
<path fill-rule="evenodd" clip-rule="evenodd" d="M4 1H12V2H4V1ZM13 3H3V4H13V3ZM3 14H13C13.2651 13.9997 13.5193 13.8943 13.7068 13.7068C13.8943 13.5193 13.9997 13.2651 14 13V6C13.9997 5.73487 13.8943 5.48068 13.7068 5.2932C13.5193 5.10572 13.2651 5.00028 13 5H3C2.73487 5.00028 2.48068 5.10572 2.2932 5.2932C2.10572 5.48068 2.00028 5.73487 2 6V13C2.00028 13.2651 2.10572 13.5193 2.2932 13.7068C2.48068 13.8943 2.73487 13.9997 3 14ZM3 13V6H13V13H3ZM6.5 11.5V7.5L10 9.5L6.5 11.5Z" fill="black"/>
</svg>
