<svg width="16" height="16" viewBox="0 0 16 16" fill="none" xmlns="http://www.w3.org/2000/svg">
<path fill-rule="evenodd" clip-rule="evenodd" d="M2 1H10C10.2652 1 10.5196 1.10536 10.7071 1.29289C10.8946 1.48043 11 1.73478 11 2V4C11 4.26522 10.8946 4.51957 10.7071 4.70711C10.5196 4.89464 10.2652 5 10 5V6.5H9V5H3V6H5.5V13H3V14H7V15H3C2.73478 15 2.48043 14.8946 2.29289 14.7071C2.10536 14.5196 2 14.2652 2 14V5C1.73478 5 1.48043 4.89464 1.29289 4.70711C1.10536 4.51957 1 4.26522 1 4V2C1 1.73478 1.10536 1.48043 1.29289 1.29289C1.48043 1.10536 1.73478 1 2 1ZM4.5 12V7H3V12H4.5ZM2 2V4H10V2H2ZM9.27772 14.8259C9.93552 15.2654 10.7089 15.5 11.5 15.5C12.5609 15.5 13.5783 15.0786 14.3284 14.3284C15.0786 13.5783 15.5 12.5609 15.5 11.5C15.5 10.7089 15.2654 9.93552 14.8259 9.27772C14.3864 8.61992 13.7616 8.10723 13.0307 7.80448C12.2998 7.50173 11.4956 7.42252 10.7196 7.57686C9.94372 7.7312 9.23098 8.11216 8.67157 8.67157C8.11216 9.23098 7.7312 9.94372 7.57686 10.7196C7.42252 11.4956 7.50173 12.2998 7.80448 13.0307C8.10723 13.7616 8.61992 14.3864 9.27772 14.8259ZM9.83329 9.00559C10.3266 8.67595 10.9067 8.5 11.5 8.5C12.2957 8.5 13.0587 8.81607 13.6213 9.37868C14.1839 9.94129 14.5 10.7044 14.5 11.5C14.5 12.0933 14.3241 12.6734 13.9944 13.1667C13.6648 13.6601 13.1962 14.0446 12.6481 14.2716C12.0999 14.4987 11.4967 14.5581 10.9147 14.4424C10.3328 14.3266 9.79824 14.0409 9.37868 13.6213C8.95912 13.2018 8.6734 12.6672 8.55765 12.0853C8.44189 11.5033 8.5013 10.9001 8.72836 10.352C8.95543 9.80377 9.33994 9.33524 9.83329 9.00559ZM11 9.5H12V12H11V9.5ZM11.5 13.5C11.7761 13.5 12 13.2761 12 13C12 12.7239 11.7761 12.5 11.5 12.5C11.2239 12.5 11 12.7239 11 13C11 13.2761 11.2239 13.5 11.5 13.5Z" fill="black"/>
</svg>
