<svg width="16" height="16" viewBox="0 0 16 16" fill="none" xmlns="http://www.w3.org/2000/svg">
<path fill-rule="evenodd" clip-rule="evenodd" d="M11.0417 4.83716C10.1215 4.28971 9.07072 4.00051 8.00001 4.00001C6.40927 4.00183 4.8842 4.63455 3.75937 5.75937C2.63455 6.8842 2.00182 8.40927 2.00001 10H1.00001C0.997967 8.74393 1.33449 7.5105 1.97419 6.42951C2.61388 5.34851 3.5331 4.45991 4.63512 3.85717C5.73715 3.25443 6.98125 2.95984 8.23655 3.0044C9.49185 3.04896 10.7119 3.43101 11.7685 4.11036L11.0417 4.83716ZM14 4.707L13.293 4L9.00951 8.28345C8.70467 8.09978 8.35589 8.00185 8.00001 8C7.60445 8 7.21777 8.1173 6.88887 8.33706C6.55997 8.55682 6.30362 8.86918 6.15225 9.23463C6.00087 9.60009 5.96127 10.0022 6.03844 10.3902C6.11561 10.7781 6.30609 11.1345 6.58579 11.4142C6.8655 11.6939 7.22187 11.8844 7.60983 11.9616C7.99779 12.0387 8.39992 11.9991 8.76538 11.8478C9.13083 11.6964 9.44318 11.44 9.66295 11.1111C9.88271 10.7822 10 10.3956 10 10C9.99813 9.6441 9.90021 9.29531 9.71656 8.99045L14 4.707ZM8.00001 11C7.80223 11 7.60889 10.9414 7.44444 10.8315C7.27999 10.7216 7.15182 10.5654 7.07613 10.3827C7.00044 10.2 6.98064 9.99889 7.01922 9.80491C7.05781 9.61093 7.15305 9.43275 7.2929 9.29289C7.43275 9.15304 7.61094 9.0578 7.80492 9.01921C7.9989 8.98063 8.19997 9.00043 8.38269 9.07612C8.56542 9.15181 8.7216 9.27998 8.83148 9.44443C8.94136 9.60888 9.00001 9.80222 9.00001 10C8.9997 10.2651 8.89425 10.5193 8.70678 10.7068C8.51931 10.8942 8.26513 10.9997 8.00001 11ZM15 10C14.9993 8.66397 14.6122 7.35665 13.8855 6.2356L13.1629 6.95825C13.7107 7.87828 13.9999 8.92919 14 10H15Z" fill="black"/>
</svg>
