<svg width="16" height="16" viewBox="0 0 16 16" fill="none" xmlns="http://www.w3.org/2000/svg">
<path fill-rule="evenodd" clip-rule="evenodd" d="M11 7.1L12.3 5.8L13 6.5L10.5 9L8 6.5L8.7 5.75L10 7.05V4.7L8.5 3.85V1.6L10.5 0.5L12.5 1.6V3.85L11 4.7V7.1ZM10.5 1.65L9.5 2.2V3.3L10.5 3.85L11.5 3.3V2.2L10.5 1.65ZM3.5 9.3998V7.1498L5.5 6.0498L7.5 7.1498V9.3998L5.5 10.4998L3.5 9.3998ZM4.5 8.7998L5.5 9.3498L6.5 8.7998V7.6998L5.5 7.1498L4.5 7.6998V8.7998ZM1 13.9V11.65L3 10.5L5 11.6V13.85L3 15L1 13.9ZM2 13.3L3 13.85L4 13.3V12.2L3 11.65L2 12.2V13.3ZM6 11.6498V13.8998L8 14.9998L10 13.8998V11.6498L8 10.5498L6 11.6498ZM9 12.1998V13.2998L8 13.8498L7 13.2998V12.1998L8 11.6498L9 12.1998ZM11 13.8998V11.6498L13 10.5498L15 11.6498V13.8998L13 14.9998L11 13.8998ZM12 12.1998V13.2998L13 13.8498L14 13.2998V12.1998L13 11.6498L12 12.1998Z" fill="black"/>
</svg>
