<svg width="16" height="16" viewBox="0 0 16 16" fill="none" xmlns="http://www.w3.org/2000/svg">
<path fill-rule="evenodd" clip-rule="evenodd" d="M9.76777 10.2678C9.29893 10.7366 8.66304 11 8 11C7.33696 11 6.70107 10.7366 6.23223 10.2678C5.76339 9.79893 5.5 9.16304 5.5 8.5V3.5C5.5 2.83696 5.76339 2.20107 6.23223 1.73223C6.70107 1.26339 7.33696 1 8 1C8.66304 1 9.29893 1.26339 9.76777 1.73223C10.2366 2.20107 10.5 2.83696 10.5 3.5V8.5C10.5 9.16304 10.2366 9.79893 9.76777 10.2678ZM6.93934 2.43934C6.65804 2.72064 6.5 3.10218 6.5 3.5V8.5C6.5 8.89782 6.65804 9.27936 6.93934 9.56066C7.22064 9.84196 7.60218 10 8 10C8.39782 10 8.77936 9.84196 9.06066 9.56066C9.34196 9.27936 9.5 8.89782 9.5 8.5V3.5C9.5 3.10218 9.34196 2.72064 9.06066 2.43934C8.77936 2.15804 8.39782 2 8 2C7.60218 2 7.22064 2.15804 6.93934 2.43934ZM11.5 8.5V7H12.5V8.5C12.4995 9.60653 12.0913 10.6741 11.3534 11.4987C10.6155 12.3232 9.59968 12.8471 8.5 12.97V14H10.5V15H5.5V14H7.5V12.97C6.40032 12.8471 5.38449 12.3232 4.64661 11.4987C3.90873 10.6741 3.50053 9.60653 3.5 8.5V7H4.5V8.5C4.5 9.42826 4.86875 10.3185 5.52513 10.9749C6.1815 11.6313 7.07174 12 8 12C8.92826 12 9.8185 11.6313 10.4749 10.9749C11.1313 10.3185 11.5 9.42826 11.5 8.5Z" fill="black"/>
</svg>
