<svg width="16" height="16" viewBox="0 0 16 16" fill="none" xmlns="http://www.w3.org/2000/svg">
<path fill-rule="evenodd" clip-rule="evenodd" d="M6.49999 7.50005V3.50005C6.49999 3.10222 6.65802 2.72069 6.93933 2.43939C7.22063 2.15808 7.60216 2.00005 7.99999 2.00005C8.39781 2.00005 8.77934 2.15808 9.06065 2.43939C9.34195 2.72069 9.49999 3.10222 9.49999 3.50005V4.37505L10.5 3.37505C10.4834 2.71201 10.2041 2.08271 9.72356 1.62559C9.243 1.16847 8.60053 0.920974 7.93749 0.93755C7.27445 0.954126 6.64515 1.23341 6.18803 1.71398C5.73091 2.19454 5.48341 2.83701 5.49999 3.50005V7.50005H6.49999ZM4.59 9.285C4.5321 9.02729 4.50193 8.76413 4.5 8.5V7H3.5V8.5C3.49812 9.04332 3.59643 9.58233 3.79 10.09L4.59 9.285ZM10.927 10.409C11.299 9.84166 11.498 9.17843 11.5 8.5V7H12.5V8.5C12.4995 9.60653 12.0913 10.6741 11.3534 11.4987C10.6155 12.3232 9.59968 12.8471 8.5 12.97V14H10.5V15H5.5V14H7.5V12.97C6.53493 12.8645 5.63075 12.4466 4.925 11.78L1.705 15L1 14.295L14.295 1L15 1.71L10.5 6.21V8.5C10.4983 8.98053 10.3582 9.4504 10.0964 9.85335C9.83455 10.2563 9.46216 10.5753 9.02376 10.772C8.58536 10.9688 8.09954 11.0351 7.62446 10.9629C7.14937 10.8907 6.70516 10.6831 6.345 10.365L5.635 11.07C6.13511 11.5284 6.75768 11.8316 7.42695 11.9427C8.09622 12.0538 8.78335 11.968 9.40474 11.6957C10.0261 11.4234 10.555 10.9764 10.927 10.409ZM9.26523 9.29993C9.4175 9.06083 9.4989 8.78347 9.5 8.5V7.21L7.05 9.655C7.26937 9.83454 7.53513 9.94823 7.81647 9.98292C8.09782 10.0176 8.38323 9.97186 8.63964 9.85098C8.89605 9.7301 9.11296 9.53904 9.26523 9.29993Z" fill="black"/>
</svg>
