<svg width="16" height="16" viewBox="0 0 16 16" fill="none" xmlns="http://www.w3.org/2000/svg">
<path fill-rule="evenodd" clip-rule="evenodd" d="M11.5 8.5C11.498 9.17843 11.299 9.84166 10.927 10.409C10.555 10.9764 10.0261 11.4234 9.40474 11.6957C8.78335 11.968 8.09622 12.0538 7.42695 11.9427C6.75768 11.8316 6.13511 11.5284 5.635 11.07L6.345 10.365C6.70516 10.6831 7.14937 10.8907 7.62446 10.9629C8.09954 11.0351 8.58536 10.9688 9.02376 10.772C9.46216 10.5753 9.83455 10.2563 10.0964 9.85335C10.3582 9.4504 10.4983 8.98053 10.5 8.5V6.21L15 1.71L14.295 1L1 14.295L1.705 15L4.925 11.78C5.63075 12.4466 6.53493 12.8645 7.5 12.97V14H5.5V15H10.5V14H8.5V12.97C9.59968 12.8471 10.6155 12.3232 11.3534 11.4987C12.0913 10.6741 12.4995 9.60653 12.5 8.5V7H11.5V8.5ZM4.5 8.66V8.5V7H3.5V8.5C3.50065 8.85202 3.5426 9.20275 3.625 9.545L4.5 8.66ZM9.32313 1.43267C9.82489 1.74584 10.1994 2.22678 10.38 2.79001L5.5 7.67001V3.50001C5.51265 2.90866 5.73456 2.34095 6.12628 1.89778C6.518 1.45461 7.05417 1.16468 7.63949 1.07952C8.22481 0.99436 8.82136 1.11949 9.32313 1.43267Z" fill="black"/>
</svg>
