<svg width="16" height="16" viewBox="0 0 16 16" fill="none" xmlns="http://www.w3.org/2000/svg">
<path d="M12.6972 12C12.9958 11.2831 13.0759 10.4939 12.9272 9.73162C12.7786 8.96934 12.4079 8.26801 11.8618 7.71582C12.0121 7.33724 12.0406 6.92122 11.9434 6.52566C11.8463 6.1301 11.6282 5.77467 11.3196 5.50882L12.7076 4.12087C12.8948 3.93317 13 3.67886 13 3.41372C13 3.14859 12.8948 2.89427 12.7076 2.70657L11.2935 1.29247C11.1058 1.10517 10.8515 0.999969 10.5863 0.999969C10.3211 0.999969 10.0668 1.10517 9.87915 1.29247L3.29295 7.87867C3.10572 8.06639 3.00057 8.32069 3.00057 8.58582C3.00057 8.85095 3.10572 9.10526 3.29295 9.29297L4.70705 10.7071C4.89475 10.8943 5.14906 10.9995 5.4142 10.9995C5.67934 10.9995 5.93365 10.8943 6.12135 10.7071L8.5088 8.31937C8.84733 8.7111 9.32668 8.95351 9.84283 8.99401C10.359 9.0345 10.8703 8.86981 11.2657 8.53567C11.6768 9.00595 11.9292 9.59376 11.9872 10.2156C12.0452 10.8375 11.9058 11.4619 11.5887 12H8V14H2V15H14V12H12.6972ZM5.41405 10L4 8.58572L4.93935 7.64652L6.3535 9.06057L5.41405 10ZM8 7.00002C8.00073 7.12635 8.01349 7.25232 8.0381 7.37622L7.06055 8.35352L5.64635 6.93947L10.5864 1.99947L12.0005 3.41357L10.3761 5.03812C10.0868 4.98063 9.7883 4.98822 9.50228 5.06035C9.21627 5.13247 8.94987 5.26733 8.72242 5.45513C8.49496 5.64294 8.31213 5.879 8.18718 6.1462C8.06224 6.4134 7.9983 6.70506 8 7.00002ZM10 8.00002C9.80222 8.00002 9.60888 7.94137 9.44443 7.83149C9.27998 7.72161 9.15181 7.56543 9.07612 7.38271C9.00043 7.19998 8.98063 6.99891 9.01921 6.80493C9.0578 6.61095 9.15304 6.43277 9.29289 6.29292C9.43275 6.15306 9.61093 6.05782 9.80491 6.01924C9.99889 5.98065 10.2 6.00046 10.3827 6.07614C10.5654 6.15183 10.7216 6.28 10.8315 6.44445C10.9414 6.6089 11 6.80224 11 7.00002C10.9997 7.26515 10.8942 7.51932 10.7068 7.70679C10.5193 7.89426 10.2651 7.99972 10 8.00002ZM13 14H9V13H13V14Z" fill="black"/>
</svg>
