<svg width="16" height="16" viewBox="0 0 16 16" fill="none" xmlns="http://www.w3.org/2000/svg">
<g clip-path="url(#clip0_3_11955)">
<path fill-rule="evenodd" clip-rule="evenodd" d="M10.8328 2.00414C11.6339 2.65376 12.1873 3.55901 12.4004 4.56815C13.1894 4.72903 13.8906 5.17722 14.3679 5.82577C14.8451 6.47433 15.0646 7.27703 14.9836 8.0782C14.9025 8.87936 14.5269 9.62189 13.9294 10.1618C13.3319 10.7016 12.5553 11.0004 11.75 11.0001H11.5V10.0001H11.75C12.3311 10.0003 12.8898 9.77555 13.3088 9.37294C13.7279 8.97034 13.9748 8.42114 13.9979 7.84047C14.0209 7.2598 13.8183 6.69276 13.4324 6.25822C13.0466 5.82367 12.5075 5.55537 11.9282 5.50955L11.5205 5.4776L11.4712 5.0716C11.3674 4.22414 10.9571 3.44395 10.3177 2.87812C9.67834 2.31229 8.85405 1.99993 8.00025 1.99993C7.14646 1.99993 6.32216 2.31229 5.68278 2.87812C5.0434 3.44395 4.63312 4.22414 4.5293 5.0716L4.47975 5.4776L4.072 5.50955C3.4927 5.55537 2.95363 5.82366 2.56779 6.25818C2.18195 6.6927 1.97929 7.25972 2.00231 7.84037C2.02533 8.42102 2.27223 8.97022 2.69125 9.37284C3.11028 9.77546 3.66889 10.0002 4.25 10.0001H4.5V10.0051C4.57731 10.0031 4.65399 10.0194 4.72375 10.0528C4.78248 10.0822 4.83485 10.1228 4.87787 10.1724C4.92088 10.2221 4.95371 10.2797 4.97446 10.342C4.99521 10.4043 5.00349 10.47 4.99883 10.5355C4.99416 10.601 4.97663 10.665 4.94725 10.7237L3.94725 12.7237C3.91851 12.7835 3.87816 12.8369 3.82857 12.8809C3.77897 12.9249 3.72112 12.9587 3.65837 12.9801C3.59562 13.0015 3.52923 13.0103 3.46307 13.0058C3.39691 13.0014 3.33229 12.9838 3.27299 12.9542C3.21368 12.9245 3.16087 12.8833 3.11762 12.8331C3.07437 12.7828 3.04156 12.7244 3.02109 12.6613C3.00062 12.5983 2.99289 12.5317 2.99837 12.4657C3.00385 12.3996 3.02242 12.3352 3.053 12.2764L3.7151 10.9522C2.96653 10.828 2.28513 10.4454 1.78927 9.87104C1.2934 9.29666 1.01441 8.56672 1.00074 7.80804C0.987074 7.04935 1.2396 6.30984 1.71446 5.71797C2.18931 5.12611 2.85649 4.71928 3.6001 4.56815C3.81316 3.55901 4.36662 2.65376 5.16772 2.00414C5.96881 1.35452 6.96886 1 8.00025 1C9.03164 1 10.0317 1.35452 10.8328 2.00414ZM7.06599 14.7521L7.93399 15.2481L10.362 11.0001H7.36149L8.93399 8.24808L8.06599 7.75208L5.63849 12.0001H8.63799L7.06599 14.7521ZM12.25 13.5C12.6642 13.5 13 13.1642 13 12.75C13 12.3358 12.6642 12 12.25 12C11.8358 12 11.5 12.3358 11.5 12.75C11.5 13.1642 11.8358 13.5 12.25 13.5ZM10.75 15.5C11.1642 15.5 11.5 15.1642 11.5 14.75C11.5 14.3358 11.1642 14 10.75 14C10.3358 14 10 14.3358 10 14.75C10 15.1642 10.3358 15.5 10.75 15.5ZM4.5 16C4.41476 16.0001 4.33094 15.9783 4.25649 15.9368C4.18204 15.8952 4.11943 15.8354 4.07463 15.7629C4.02982 15.6904 4.00429 15.6076 4.00047 15.5225C3.99665 15.4373 4.01467 15.3526 4.0528 15.2763L5.0528 13.2761C5.08218 13.2174 5.12283 13.165 5.17244 13.122C5.22205 13.079 5.27965 13.0462 5.34195 13.0254C5.40424 13.0046 5.47002 12.9964 5.53552 13.001C5.60101 13.0057 5.66495 13.0232 5.72368 13.0526C5.7824 13.0819 5.83477 13.1226 5.87779 13.1722C5.9208 13.2218 5.95363 13.2794 5.97438 13.3417C5.99514 13.404 6.00342 13.4698 5.99876 13.5353C5.99409 13.6008 5.97658 13.6647 5.9472 13.7234L4.9472 15.7234C4.90579 15.8066 4.84199 15.8766 4.76299 15.9254C4.68398 15.9743 4.5929 16.0001 4.5 16Z" fill="black"/>
</g>
<defs>
<clipPath id="clip0_3_11955">
<rect width="16" height="16" fill="white"/>
</clipPath>
</defs>
</svg>
