<svg width="16" height="16" viewBox="0 0 16 16" fill="none" xmlns="http://www.w3.org/2000/svg">
<path fill-rule="evenodd" clip-rule="evenodd" d="M2.79323 14.7068C2.9807 14.8942 3.23488 14.9997 3.5 15H10C10.2651 14.9997 10.5193 14.8942 10.7068 14.7068C10.8942 14.5193 10.9997 14.2651 11 14V12H10V14H3.5V2H10V1H3.5C3.23488 1.0003 2.9807 1.10576 2.79323 1.29323C2.60576 1.4807 2.5003 1.73488 2.5 2V14C2.5003 14.2651 2.60576 14.5193 2.79323 14.7068ZM13 3.5H12V10H13V3.5ZM15 6H14V7.5H15V6ZM10 5.5H11V8H10V5.5ZM9 4.5H8V9H9V4.5ZM6 6H7V7.5H6V6ZM6.75 13C7.16421 13 7.5 12.6642 7.5 12.25C7.5 11.8358 7.16421 11.5 6.75 11.5C6.33579 11.5 6 11.8358 6 12.25C6 12.6642 6.33579 13 6.75 13Z" fill="black"/>
</svg>
