<svg width="16" height="16" viewBox="0 0 16 16" fill="none" xmlns="http://www.w3.org/2000/svg">
<path fill-rule="evenodd" clip-rule="evenodd" d="M5 5V14H8V15H5C4.73488 14.9997 4.4807 14.8942 4.29323 14.7068C4.10576 14.5193 4.0003 14.2651 4 14V3C4.00026 2.73486 4.10571 2.48066 4.29319 2.29319C4.48066 2.10571 4.73486 2.00026 5 2H11C11.2651 2.0003 11.5193 2.10576 11.7068 2.29323C11.8942 2.4807 11.9997 2.73488 12 3V8.5H11V5H5ZM11 3H5V4H11V3ZM12 12H14V13H12V15H11V13H9V12H11V10H12V12Z" fill="black"/>
</svg>
