<svg width="16" height="16" viewBox="0 0 16 16" fill="none" xmlns="http://www.w3.org/2000/svg">
<path fill-rule="evenodd" clip-rule="evenodd" d="M12 1H14C14.2651 1.0003 14.5193 1.10576 14.7068 1.29323C14.8942 1.4807 14.9997 1.73488 15 2V6C14.9997 6.26512 14.8942 6.5193 14.7068 6.70677C14.5193 6.89424 14.2651 6.9997 14 7H12C11.7349 6.9997 11.4807 6.89424 11.2932 6.70677C11.1058 6.5193 11.0003 6.26512 11 6V2C11.0003 1.73488 11.1058 1.4807 11.2932 1.29323C11.4807 1.10576 11.7349 1.0003 12 1ZM14 3V2H12V3H14ZM12 4V6H14V4H12ZM10.8028 8.57765L14.669 9.9668C14.7659 10.0016 14.8497 10.0655 14.909 10.1498C14.9682 10.234 15 10.3345 15 10.4375V13C15 13.1326 14.9473 13.2598 14.8536 13.3536C14.7598 13.4473 14.6326 13.5 14.5 13.5H13.429C13.3199 13.9289 13.0711 14.3092 12.7218 14.5808C12.3724 14.8525 11.9425 15 11.5 15C11.0575 15 10.6276 14.8525 10.2783 14.5808C9.92892 14.3092 9.68008 13.9289 9.57105 13.5H6.42895C6.31993 13.9289 6.07108 14.3092 5.72175 14.5808C5.37242 14.8525 4.94252 15 4.5 15C4.05748 15 3.62758 14.8525 3.27825 14.5808C2.92892 14.3092 2.68007 13.9289 2.57105 13.5H1.5C1.36739 13.5 1.24022 13.4473 1.14645 13.3536C1.05268 13.2598 1 13.1326 1 13V10.0537C0.999669 9.55207 1.15061 9.06199 1.4331 8.64745L2.7888 6.65575C2.92635 6.45362 3.11124 6.28819 3.32737 6.1739C3.5435 6.0596 3.78431 5.9999 4.0288 6H8.02685C8.24881 5.99955 8.46808 6.04853 8.66875 6.14337C8.86942 6.23822 9.04646 6.37656 9.187 6.54835L10.8028 8.57765ZM3.94443 13.8315C4.10888 13.9414 4.30222 14 4.5 14C4.76511 13.9996 5.01925 13.8942 5.20671 13.7067C5.39417 13.5193 5.49964 13.2651 5.5 13C5.5 12.8022 5.44135 12.6089 5.33147 12.4444C5.22159 12.28 5.06541 12.1518 4.88268 12.0761C4.69996 12.0004 4.49889 11.9806 4.30491 12.0192C4.11093 12.0578 3.93275 12.153 3.79289 12.2929C3.65304 12.4327 3.5578 12.6109 3.51922 12.8049C3.48063 12.9989 3.50043 13.2 3.57612 13.3827C3.65181 13.5654 3.77998 13.7216 3.94443 13.8315ZM10.9444 13.8315C11.1089 13.9414 11.3022 14 11.5 14C11.7651 13.9997 12.0193 13.8942 12.2067 13.7067C12.3942 13.5193 12.4997 13.2651 12.5 13C12.5 12.8022 12.4414 12.6089 12.3315 12.4444C12.2216 12.28 12.0654 12.1518 11.8827 12.0761C11.7 12.0004 11.4989 11.9806 11.3049 12.0192C11.1109 12.0578 10.9327 12.153 10.7929 12.2929C10.653 12.4327 10.5578 12.6109 10.5192 12.8049C10.4806 12.9989 10.5004 13.2 10.5761 13.3827C10.6518 13.5654 10.78 13.7216 10.9444 13.8315ZM13.429 12.5H14V10.7891L10.3311 9.4707C10.2437 9.43928 10.1667 9.38416 10.1089 9.3115L8.4092 7.17725C8.36237 7.12147 8.30385 7.07667 8.23777 7.04604C8.17169 7.01541 8.09968 6.99969 8.02685 7H4.0288C3.94729 6.99998 3.86702 7.01991 3.79498 7.05804C3.72294 7.09617 3.66132 7.15134 3.6155 7.21875L2.26 9.20945C2.09049 9.45836 1.99989 9.75256 2 10.0537V12.5H2.57105C2.68007 12.0711 2.92892 11.6908 3.27825 11.4192C3.62758 11.1475 4.05748 11.0001 4.5 11.0001C4.94252 11.0001 5.37242 11.1475 5.72175 11.4192C6.07108 11.6908 6.31993 12.0711 6.42895 12.5H9.57105C9.68008 12.0711 9.92892 11.6908 10.2783 11.4192C10.6276 11.1475 11.0575 11.0001 11.5 11.0001C11.9425 11.0001 12.3724 11.1475 12.7218 11.4192C13.0711 11.6908 13.3199 12.0711 13.429 12.5Z" fill="black"/>
</svg>
