<svg width="16" height="16" viewBox="0 0 16 16" fill="none" xmlns="http://www.w3.org/2000/svg">
<path fill-rule="evenodd" clip-rule="evenodd" d="M11 3.5V2H15V6H11V4.5H10.4986C10.3017 4.50007 10.1067 4.53893 9.92483 4.61436C9.74296 4.68978 9.57772 4.8003 9.43856 4.93959C9.29941 5.07888 9.18905 5.24422 9.1138 5.42617C9.03855 5.60812 8.99988 5.80311 9 6V14H8V6C8.0014 5.45741 8.18121 4.93033 8.5117 4.5H5V6H1V2H5V3.5H11ZM2 5H4V3H2V5ZM12 5H14V3H12V5ZM2 11V10H6V14H5V11.707L1.707 15L1 14.293L4.293 11H2Z" fill="black"/>
</svg>
