<svg width="16" height="16" viewBox="0 0 16 16" fill="none" xmlns="http://www.w3.org/2000/svg">
<path fill-rule="evenodd" clip-rule="evenodd" d="M4.24999 2H11.75L15.1421 6.5227L8.66209 14L7.90624 13.346L13.405 7H10.7772L7.99999 11.4433L5.22269 7H2.59499L3.76069 8.345L3.00499 9L0.857895 6.5227L4.24999 2ZM4.74999 3L2.49999 6H5.22289L7.09789 3H4.74999ZM9.5979 6L7.99999 3.44335L6.40209 6H9.5979ZM6.40219 7L7.99999 9.55665L9.5978 7H6.40219ZM8.90209 3L10.7771 6H13.5L11.25 3H8.90209ZM2 11V10H6V14H5V11.707L1.707 15L1 14.293L4.293 11H2Z" fill="black"/>
</svg>
