<svg width="16" height="16" viewBox="0 0 16 16" fill="none" xmlns="http://www.w3.org/2000/svg">
<path fill-rule="evenodd" clip-rule="evenodd" d="M2 10H14C14.2651 9.99964 14.5193 9.89417 14.7067 9.70671C14.8942 9.51925 14.9996 9.26511 15 9V3C14.9993 2.73499 14.8938 2.48103 14.7064 2.29364C14.519 2.10625 14.265 2.00067 14 2H2C1.73499 2.00067 1.48103 2.10625 1.29364 2.29364C1.10625 2.48103 1.00067 2.73499 1 3V9C1.00067 9.26501 1.10625 9.51897 1.29364 9.70636C1.48103 9.89375 1.73499 9.99933 2 10ZM2 3H14V9H2V3ZM6.88886 7.66294C7.21776 7.8827 7.60444 8 8 8C8.53025 7.99941 9.03861 7.7885 9.41356 7.41356C9.7885 7.03861 9.99941 6.53025 10 6C10 5.60444 9.8827 5.21776 9.66294 4.88886C9.44318 4.55996 9.13082 4.30362 8.76537 4.15224C8.39992 4.00087 7.99778 3.96126 7.60982 4.03843C7.22186 4.1156 6.86549 4.30608 6.58579 4.58579C6.30608 4.86549 6.1156 5.22186 6.03843 5.60982C5.96126 5.99778 6.00087 6.39992 6.15224 6.76537C6.30362 7.13082 6.55996 7.44318 6.88886 7.66294ZM7.44443 5.16853C7.60888 5.05865 7.80222 5 8 5C8.26514 5.00027 8.51934 5.10571 8.70682 5.29319C8.89429 5.48067 8.99974 5.73487 9 6C9 6.19778 8.94135 6.39112 8.83147 6.55557C8.72159 6.72002 8.56541 6.84819 8.38268 6.92388C8.19996 6.99957 7.99889 7.01937 7.80491 6.98079C7.61093 6.9422 7.43275 6.84696 7.29289 6.70711C7.15304 6.56726 7.0578 6.38907 7.01922 6.19509C6.98063 6.00111 7.00043 5.80004 7.07612 5.61732C7.15181 5.43459 7.27998 5.27841 7.44443 5.16853ZM12 5C11.8022 5 11.6089 5.05865 11.4444 5.16853C11.28 5.27841 11.1518 5.43459 11.0761 5.61732C11.0004 5.80004 10.9806 6.00111 11.0192 6.19509C11.0578 6.38907 11.153 6.56725 11.2929 6.70711C11.4327 6.84696 11.6109 6.9422 11.8049 6.98079C11.9989 7.01937 12.2 6.99957 12.3827 6.92388C12.5654 6.84819 12.7216 6.72002 12.8315 6.55557C12.9414 6.39112 13 6.19778 13 6C13 5.73478 12.8946 5.48043 12.7071 5.29289C12.5196 5.10536 12.2652 5 12 5ZM1 11H15V12H1V11ZM1 13H15V14H1V13ZM4 5C3.80222 5 3.60888 5.05865 3.44443 5.16853C3.27998 5.27841 3.15181 5.43459 3.07612 5.61732C3.00043 5.80004 2.98063 6.00111 3.01922 6.19509C3.0578 6.38907 3.15304 6.56725 3.29289 6.70711C3.43275 6.84696 3.61093 6.9422 3.80491 6.98079C3.99889 7.01937 4.19996 6.99957 4.38268 6.92388C4.56541 6.84819 4.72159 6.72002 4.83147 6.55557C4.94135 6.39112 5 6.19778 5 6C5 5.73478 4.89464 5.48043 4.70711 5.29289C4.51957 5.10536 4.26522 5 4 5Z" fill="black"/>
</svg>
