<svg width="16" height="16" viewBox="0 0 16 16" fill="none" xmlns="http://www.w3.org/2000/svg">
<path fill-rule="evenodd" clip-rule="evenodd" d="M13.5 5.5H14C14.2651 5.50033 14.5193 5.60579 14.7067 5.79326C14.8942 5.98072 14.9997 6.23489 15 6.5V8.5C14.9997 8.76511 14.8942 9.01928 14.7067 9.20674C14.5193 9.39421 14.2651 9.49967 14 9.5H13.5V11.5C13.499 12.4279 13.1299 13.3176 12.4737 13.9737C11.8176 14.6299 10.9279 14.999 10 15H6C5.07206 14.999 4.18242 14.6299 3.52627 13.9737C2.87011 13.3176 2.50103 12.4279 2.5 11.5V9.5H2C1.73489 9.49967 1.48072 9.39421 1.29326 9.20674C1.10579 9.01928 1.00033 8.76511 1 8.5V6.5C1.00033 6.23489 1.10579 5.98072 1.29326 5.79326C1.48072 5.60579 1.73489 5.50033 2 5.5H2.5V2C2.50033 1.73489 2.60579 1.48072 2.79326 1.29326C2.98072 1.10579 3.23488 1.00033 3.5 1H12.5C12.7651 1.00033 13.0193 1.10579 13.2067 1.29326C13.3942 1.48072 13.4997 1.73489 13.5 2V5.5ZM12.5 3.6909V2H3.5V3.1909L5 3.9409L6.77635 3.05275C6.8458 3.01805 6.92237 2.99999 7 2.99999C7.07763 2.99999 7.1542 3.01805 7.22365 3.05275L9 3.9409L10.7764 3.05275C10.8458 3.01805 10.9224 2.99999 11 2.99999C11.0776 2.99999 11.1542 3.01805 11.2236 3.05275L12.5 3.6909ZM12.5 8.5H14V6.5H12.5V4.8091L11 4.0591L9.22365 4.94725C9.1542 4.98194 9.07763 5 9 5C8.92237 5 8.8458 4.98194 8.77635 4.94725L7 4.0591L5.22365 4.94725C5.1542 4.98195 5.07763 5.00001 5 5.00001C4.92237 5.00001 4.8458 4.98195 4.77635 4.94725L3.5 4.3091V6.5H2V8.5H3.5V11.5C3.50075 12.1628 3.76439 12.7983 4.23307 13.2669C4.70174 13.7356 5.33719 13.9992 6 14H10C10.6628 13.9992 11.2983 13.7356 11.7669 13.2669C12.2356 12.7983 12.4992 12.1628 12.5 11.5V8.5ZM10.5 10V11H11.5V12H10.5V13H9.5V12H8.5V13H7.5V12H6.5V13H5.5V12H4.5V11H5.5V10H6.5V11H7.5V10H8.5V11H9.5V10H10.5ZM7 7H4.5V8H7V7ZM9 7H11.5V8H9V7Z" fill="black"/>
</svg>
