<svg width="16" height="16" viewBox="0 0 16 16" fill="none" xmlns="http://www.w3.org/2000/svg">
<path fill-rule="evenodd" clip-rule="evenodd" d="M5.5 3.5L8 1L10.5 3.5L9.795 4.205L8.5 2.915V3V7H7.5V3V2.915L6.205 4.205L5.5 3.5ZM8.59872 10.8919C8.20573 11.5247 7.99829 12.2551 8 13H7C6.99774 12.2501 7.16546 11.5094 7.49054 10.8335C7.81563 10.1577 8.28963 9.56434 8.87695 9.098C8.58922 9.03264 8.29506 8.99977 8 9C6.93951 9.00122 5.9228 9.42304 5.17292 10.1729C4.42304 10.9228 4.00122 11.9395 4 13H3C3.0015 11.6744 3.52876 10.4035 4.46612 9.46612C5.40348 8.52876 6.67438 8.0015 8 8C8.77184 7.99941 9.5331 8.17946 10.2229 8.52575C10.3061 8.56722 10.3761 8.63106 10.425 8.71011C10.4739 8.78916 10.4999 8.88029 10.4999 8.97325C10.4999 9.06622 10.4739 9.15734 10.425 9.23639C10.3761 9.31544 10.3061 9.37928 10.2229 9.42075C9.55445 9.74943 8.99171 10.2592 8.59872 10.8919ZM12 13H13C13.0008 11.7698 12.5473 10.5826 11.7265 9.66626L10.9815 10.3333C11.6379 11.0663 12.0006 12.016 12 13ZM15 14V15H1V14H15Z" fill="black"/>
</svg>
