<svg width="16" height="16" viewBox="0 0 16 16" fill="none" xmlns="http://www.w3.org/2000/svg">
<path fill-rule="evenodd" clip-rule="evenodd" d="M9.5 1.00244H8.5V3.00244H9.5V1.00244ZM11.475 3.82056L12.8892 2.40638L13.5963 3.11342L12.1821 4.52759L11.475 3.82056ZM10.8715 9.34598C11.0697 9.18775 11.2473 9.00522 11.4 8.80268C11.6748 8.43695 11.8623 8.01321 11.9481 7.56388C12.0339 7.11455 12.0158 6.65154 11.8951 6.21029C11.7745 5.76904 11.5545 5.36124 11.2519 5.0181C10.9494 4.67497 10.5724 4.40558 10.1498 4.23058C9.7271 4.05557 9.27001 3.97957 8.81347 4.0084C8.35693 4.03724 7.91303 4.17013 7.51575 4.39692C7.11848 4.62371 6.77835 4.93838 6.5214 5.31684C6.26445 5.69531 6.09749 6.12755 6.0333 6.58048C5.37362 6.71175 4.76094 7.01675 4.25854 7.46396C3.75613 7.91118 3.38221 8.4844 3.1754 9.12443C2.47988 9.32256 1.87949 9.76556 1.48501 10.3717C1.09054 10.9778 0.928593 11.7062 1.02906 12.4223C1.12953 13.1385 1.48564 13.7942 2.03167 14.2684C2.5777 14.7426 3.27681 15.0033 4 15.0024H9.5C10.1723 15.004 10.8256 14.7792 11.3546 14.3643C11.8835 13.9493 12.2573 13.3683 12.4158 12.7149C12.5742 12.0615 12.508 11.3738 12.2278 10.7626C11.9477 10.1515 11.4699 9.65244 10.8715 9.34598ZM9 5.00238C9.53026 5.00293 10.0386 5.21382 10.4136 5.58878C10.7886 5.96373 10.9994 6.47211 11 7.00238C11.0013 7.43524 10.8608 7.85663 10.6 8.20208C10.4685 8.37518 10.3098 8.52575 10.13 8.64793C9.84633 8.0591 9.41449 7.55412 8.87682 7.1825C8.33915 6.81089 7.71413 6.58541 7.06305 6.52818C7.16889 6.09394 7.41719 5.70769 7.76829 5.43111C8.11939 5.15454 8.55305 5.00359 9 5.00238ZM9.5 14.0024H4C3.49897 14.0035 3.01583 13.8162 2.6465 13.4776C2.27716 13.1391 2.04863 12.674 2.00627 12.1748C1.96391 11.6755 2.11081 11.1786 2.41782 10.7827C2.72483 10.3867 3.16949 10.1207 3.66355 10.0374L3.995 9.98138L4.0678 9.65328C4.20361 9.04316 4.54336 8.49758 5.031 8.10656C5.51863 7.71554 6.125 7.50244 6.75005 7.50244C7.37509 7.50244 7.98147 7.71554 8.4691 8.10656C8.95673 8.49758 9.29649 9.04316 9.4323 9.65328L9.5055 9.98138L9.8366 10.0375C10.3305 10.121 10.7749 10.3872 11.0817 10.7831C11.3886 11.179 11.5353 11.6758 11.493 12.1749C11.4506 12.674 11.2222 13.1389 10.853 13.4774C10.4838 13.8159 10.0009 14.0033 9.5 14.0024ZM15 6.50244H13V7.50244H15V6.50244ZM4.40381 3.11328L5.11084 2.40625L6.52516 3.82056L5.81813 4.5276L4.40381 3.11328Z" fill="black"/>
</svg>
