<svg width="16" height="16" viewBox="0 0 16 16" fill="none" xmlns="http://www.w3.org/2000/svg">
<path d="M13.8172 13L8.8944 2.55277C8.81089 2.38579 8.68231 2.24553 8.52321 2.14785C8.36411 2.05018 8.18085 1.99899 7.99416 2.00008C7.80747 2.00117 7.62482 2.0545 7.46687 2.15404C7.30893 2.25357 7.182 2.39533 7.10045 2.56327L2.18285 13H1V14H15V13H13.8172ZM7.995 2.98952L10.4736 8.25002L9.5 8.89897L8 7.89897L6.5 8.89897L5.52245 8.24732L7.995 2.98952ZM5.0923 9.16237L6.5 10.1011L8 9.10107L9.5 10.1011L10.9045 9.16457L12.7116 13H3.2876L5.0923 9.16237Z" fill="black"/>
</svg>
