<svg width="16" height="16" viewBox="0 0 16 16" fill="none" xmlns="http://www.w3.org/2000/svg">
<path fill-rule="evenodd" clip-rule="evenodd" d="M2.5 5.5H3.5V10.5H2.5V7L1.75 9L1 7V10.5H0V5.5H1L1.75 7.5L2.5 5.5ZM7 5.5H4.5V10.5H5.5V9H7C7.26511 8.99964 7.51925 8.89417 7.70671 8.70671C7.89417 8.51925 7.99964 8.26511 8 8V6.5C7.9997 6.23488 7.89424 5.9807 7.70677 5.79323C7.5193 5.60576 7.26512 5.5003 7 5.5ZM5.5 8V6.5H7L7.0005 8H5.5ZM13.2932 10.2068C13.4807 10.3942 13.7349 10.4997 14 10.5H16V7.5H14.5V8.5H15V9.5H14V6.5H16V5.5H14C13.7349 5.50026 13.4807 5.60571 13.2932 5.79319C13.1057 5.98066 13.0003 6.23486 13 6.5V9.5C13.0003 9.76512 13.1058 10.0193 13.2932 10.2068ZM12 5.51196V6.49996H10V7.49996H11V8.49996H10V9.49996H12V10.5H9V5.51196H12Z" fill="black"/>
</svg>
