<svg width="16" height="16" viewBox="0 0 16 16" fill="none" xmlns="http://www.w3.org/2000/svg">
<path fill-rule="evenodd" clip-rule="evenodd" d="M2.5 5.5H3.5V10.5H2.5V7L1.75 9L1 7V10.5H0V5.5H1L1.75 7.5L2.5 5.5ZM7 5.5H4.5V10.5H5.5V9H7C7.26511 8.99964 7.51925 8.89417 7.70671 8.70671C7.89417 8.51925 7.99964 8.26511 8 8V6.5C7.9997 6.23488 7.89424 5.9807 7.70677 5.79323C7.5193 5.60576 7.26512 5.5003 7 5.5ZM5.5 8V6.5H7L7.0005 8H5.5ZM9.29323 10.2068C9.4807 10.3942 9.73488 10.4997 10 10.5H12V7.5H10.5V8.5H11V9.5H10V6.5H12V5.5H10C9.73487 5.50026 9.48066 5.60571 9.29319 5.79319C9.10571 5.98066 9.00027 6.23486 9 6.5V9.5C9.0003 9.76512 9.10576 10.0193 9.29323 10.2068ZM13 10.5H16V9.5H14V8.5H15C15.2651 8.4997 15.5193 8.39424 15.7068 8.20677C15.8942 8.0193 15.9997 7.76512 16 7.5V6.5C15.9997 6.23488 15.8942 5.9807 15.7068 5.79323C15.5193 5.60576 15.2651 5.5003 15 5.5H13V6.5H15V7.5H14C13.7349 7.50026 13.4807 7.60571 13.2932 7.79319C13.1057 7.98066 13.0003 8.23486 13 8.5V10.5Z" fill="black"/>
</svg>
