<svg width="16" height="16" viewBox="0 0 16 16" fill="none" xmlns="http://www.w3.org/2000/svg">
<path fill-rule="evenodd" clip-rule="evenodd" d="M13.205 3.5L15 1.705L14.295 1L12.5 2.795L10.705 1L10 1.705L11.795 3.5L10 5.295L10.705 6L12.5 4.205L14.295 6L15 5.295L13.205 3.5ZM12 7.5V11.2781C11.6974 11.098 11.3521 11.002 11 11C10.6044 11 10.2178 11.1173 9.88886 11.3371C9.55996 11.5568 9.30362 11.8692 9.15224 12.2346C9.00087 12.6001 8.96126 13.0022 9.03843 13.3902C9.1156 13.7781 9.30608 14.1345 9.58579 14.4142C9.86549 14.6939 10.2219 14.8844 10.6098 14.9616C10.9978 15.0387 11.3999 14.9991 11.7654 14.8478C12.1308 14.6964 12.4432 14.44 12.6629 14.1111C12.8827 13.7822 13 13.3956 13 13V7.5H12ZM11 14C10.8022 14 10.6089 13.9414 10.4444 13.8315C10.28 13.7216 10.1518 13.5654 10.0761 13.3827C10.0004 13.2 9.98063 12.9989 10.0192 12.8049C10.0578 12.6109 10.153 12.4327 10.2929 12.2929C10.4327 12.153 10.6109 12.0578 10.8049 12.0192C10.9989 11.9806 11.2 12.0004 11.3827 12.0761C11.5654 12.1518 11.7216 12.28 11.8315 12.4444C11.9414 12.6089 12 12.8022 12 13C11.9996 13.2651 11.8942 13.5193 11.7067 13.7067C11.5193 13.8942 11.2651 13.9996 11 14ZM5 3H8.5V4H5V13C5 13.3956 4.8827 13.7822 4.66294 14.1111C4.44318 14.44 4.13082 14.6964 3.76537 14.8478C3.39992 14.9991 2.99778 15.0387 2.60982 14.9616C2.22186 14.8844 1.86549 14.6939 1.58579 14.4142C1.30608 14.1345 1.1156 13.7781 1.03843 13.3902C0.96126 13.0022 1.00087 12.6001 1.15224 12.2346C1.30362 11.8692 1.55996 11.5568 1.88886 11.3371C2.21776 11.1173 2.60444 11 3 11C3.35215 11.002 3.69737 11.098 4 11.2781V4C4.00027 3.73486 4.10571 3.48066 4.29319 3.29319C4.48067 3.10571 4.73487 3.00026 5 3ZM2.44443 13.8315C2.60888 13.9414 2.80222 14 3 14C3.26512 13.9997 3.5193 13.8942 3.70677 13.7068C3.89424 13.5193 3.9997 13.2651 4 13C4 12.8022 3.94135 12.6089 3.83147 12.4444C3.72159 12.28 3.56541 12.1518 3.38268 12.0761C3.19996 12.0004 2.99889 11.9806 2.80491 12.0192C2.61093 12.0578 2.43275 12.153 2.29289 12.2929C2.15304 12.4327 2.0578 12.6109 2.01922 12.8049C1.98063 12.9989 2.00043 13.2 2.07612 13.3827C2.15181 13.5654 2.27998 13.7216 2.44443 13.8315Z" fill="black"/>
</svg>
