<svg width="16" height="16" viewBox="0 0 16 16" fill="none" xmlns="http://www.w3.org/2000/svg">
<path fill-rule="evenodd" clip-rule="evenodd" d="M2 6H3.5V5H2V3H3.5V2H2C1.73488 2.0003 1.4807 2.10576 1.29323 2.29323C1.10576 2.4807 1.0003 2.73488 1 3V5C1.0003 5.26512 1.10576 5.5193 1.29323 5.70677C1.4807 5.89424 1.73488 5.9997 2 6ZM4.5 5H7.5V6H4.5V5ZM11.5 5H8.5V6H11.5V5ZM12.5 6H14C14.2651 5.9997 14.5193 5.89424 14.7068 5.70677C14.8942 5.5193 14.9997 5.26512 15 5V3C14.9997 2.73488 14.8942 2.4807 14.7068 2.29323C14.5193 2.10576 14.2651 2.0003 14 2H12.5V3H14V5H12.5V6ZM11.5 2H8.5V3H11.5V2ZM4.5 2H7.5V3H4.5V2ZM14 14H2C1.73488 13.9997 1.4807 13.8942 1.29323 13.7068C1.10576 13.5193 1.0003 13.2651 1 13V11C1.0003 10.7349 1.10576 10.4807 1.29323 10.2932C1.4807 10.1058 1.73488 10.0003 2 10H14C14.2651 10.0003 14.5193 10.1058 14.7068 10.2932C14.8942 10.4807 14.9997 10.7349 15 11V13C14.9997 13.2651 14.8942 13.5193 14.7068 13.7068C14.5193 13.8942 14.2651 13.9997 14 14ZM2 11V13H14V11H2ZM1 7.5H15V8.5H1V7.5Z" fill="black"/>
</svg>
