<svg width="16" height="16" viewBox="0 0 16 16" fill="none" xmlns="http://www.w3.org/2000/svg">
<path fill-rule="evenodd" clip-rule="evenodd" d="M13.9096 7H15V9H13.9096C13.7004 10.226 13.1157 11.3568 12.2362 12.2362C11.3568 13.1157 10.226 13.7004 9 13.9096V15H7V13.9096C5.774 13.7004 4.6432 13.1157 3.76375 12.2362C2.8843 11.3568 2.29959 10.226 2.09035 9H1V7H2.09035C2.29959 5.774 2.8843 4.6432 3.76375 3.76375C4.6432 2.8843 5.774 2.29959 7 2.09035V1H9V2.09035C10.226 2.29959 11.3568 2.8843 12.2362 3.76375C13.1157 4.6432 13.7004 5.774 13.9096 7ZM5.22215 12.1573C6.04439 12.7068 7.01109 13 8 13C9.32562 12.9985 10.5965 12.4712 11.5339 11.5339C12.4712 10.5965 12.9985 9.32562 13 8C13 7.01109 12.7068 6.04439 12.1573 5.22215C11.6079 4.3999 10.827 3.75904 9.91342 3.3806C8.99979 3.00216 7.99445 2.90315 7.02455 3.09607C6.05464 3.289 5.16373 3.7652 4.46447 4.46447C3.7652 5.16373 3.289 6.05464 3.09607 7.02455C2.90315 7.99445 3.00216 8.99979 3.3806 9.91342C3.75904 10.827 4.3999 11.6079 5.22215 12.1573ZM5.77772 11.3259C6.43552 11.7654 7.20887 12 8 12C9.06049 11.9988 10.0772 11.577 10.8271 10.8271C11.577 10.0772 11.9988 9.06049 12 8C12 7.20888 11.7654 6.43552 11.3259 5.77772C10.8864 5.11992 10.2616 4.60723 9.53073 4.30448C8.79983 4.00173 7.99556 3.92252 7.21964 4.07686C6.44371 4.2312 5.73098 4.61216 5.17157 5.17157C4.61216 5.73098 4.2312 6.44372 4.07686 7.21964C3.92252 7.99556 4.00173 8.79983 4.30448 9.53074C4.60723 10.2616 5.11992 10.8864 5.77772 11.3259ZM6.33329 5.50559C6.82664 5.17595 7.40666 5 8 5C8.79538 5.00089 9.55792 5.31724 10.1203 5.87966C10.6828 6.44208 10.9991 7.20462 11 8C11 8.59335 10.8241 9.17337 10.4944 9.66671C10.1648 10.1601 9.69623 10.5446 9.14805 10.7716C8.59987 10.9987 7.99667 11.0581 7.41473 10.9424C6.83279 10.8266 6.29824 10.5409 5.87868 10.1213C5.45912 9.70177 5.1734 9.16722 5.05764 8.58527C4.94189 8.00333 5.0013 7.40013 5.22836 6.85195C5.45542 6.30377 5.83994 5.83524 6.33329 5.50559Z" fill="black"/>
</svg>
