<svg width="16" height="16" viewBox="0 0 16 16" fill="none" xmlns="http://www.w3.org/2000/svg">
<path fill-rule="evenodd" clip-rule="evenodd" d="M12.9341 1.75183L14.9341 5.25183C14.999 5.36536 15.0168 5.49977 14.9837 5.62627C14.9507 5.75277 14.8694 5.86129 14.7573 5.92858L12.3694 7.36143L10.5 10.6327V13.4999C10.5 13.6325 10.4473 13.7597 10.3536 13.8534C10.2598 13.9472 10.1326 13.9999 10 13.9999H6C5.86739 13.9999 5.74022 13.9472 5.64645 13.8534C5.55268 13.7597 5.5 13.6325 5.5 13.4999V10.6327L3.6306 7.36143L1.2427 5.92858C1.1306 5.86129 1.04932 5.75277 1.01627 5.62627C0.98322 5.49977 1.00104 5.36536 1.0659 5.25183L3.0659 1.75183C3.09888 1.694 3.14309 1.64335 3.19593 1.60285C3.24877 1.56235 3.30917 1.53281 3.37358 1.51598C3.43799 1.49915 3.50512 1.49537 3.57101 1.50485C3.63691 1.51433 3.70024 1.53688 3.7573 1.57118L6.13845 2.99988H9.86155L12.2427 1.57118C12.2998 1.53688 12.3631 1.51433 12.429 1.50485C12.4949 1.49537 12.562 1.49915 12.6264 1.51598C12.6908 1.53281 12.7512 1.56235 12.8041 1.60285C12.8569 1.64335 12.9011 1.694 12.9341 1.75183ZM6.5758 10.4999H9.4242L11.7122 6.49598L10.2857 3.99988H5.71435L4.28785 6.49598L6.5758 10.4999ZM9 7C9 7.55228 8.55228 8 8 8C7.44772 8 7 7.55228 7 7C7 6.44772 7.44772 6 8 6C8.55228 6 9 6.44772 9 7Z" fill="black"/>
</svg>
