<svg width="16" height="16" viewBox="0 0 16 16" fill="none" xmlns="http://www.w3.org/2000/svg">
<path fill-rule="evenodd" clip-rule="evenodd" d="M14.7068 2.29323C14.8942 2.4807 14.9997 2.73488 15 3V13C14.9997 13.2651 14.8942 13.5193 14.7068 13.7068C14.5193 13.8942 14.2651 13.9997 14 14H2C1.73488 13.9997 1.4807 13.8942 1.29323 13.7068C1.10576 13.5193 1.0003 13.2651 1 13V3C1.0003 2.73488 1.10576 2.4807 1.29323 2.29323C1.4807 2.10576 1.73488 2.0003 2 2H14C14.2651 2.0003 14.5193 2.10576 14.7068 2.29323ZM11.4818 3L14 6.4629V3H11.4818ZM10.2455 13L13.8819 8L10.2455 3H5.7545L2.11815 8L5.7545 13H10.2455ZM2 6.4624L4.5182 3H2V6.4624ZM4.5182 13L2 9.5376V13H4.5182ZM14.0005 9.53685L11.4818 13H14L14.0005 9.53685ZM9 8C9 8.55228 8.55228 9 8 9C7.44772 9 7 8.55228 7 8C7 7.44772 7.44772 7 8 7C8.55228 7 9 7.44772 9 8Z" fill="black"/>
</svg>
