<svg width="16" height="16" viewBox="0 0 16 16" fill="none" xmlns="http://www.w3.org/2000/svg">
<path fill-rule="evenodd" clip-rule="evenodd" d="M1 6H2V2H6V1H2C1.73487 1.00028 1.48068 1.10572 1.2932 1.2932C1.10572 1.48068 1.00028 1.73487 1 2V6ZM6 15V14H2V10H1V14C1.00028 14.2651 1.10572 14.5193 1.2932 14.7068C1.48068 14.8943 1.73487 14.9997 2 15H6ZM14.7068 14.7068C14.5193 14.8943 14.2651 14.9997 14 15H10V14H14V10H15V14C14.9997 14.2651 14.8943 14.5193 14.7068 14.7068ZM14 6H15V2C14.9997 1.73487 14.8943 1.48068 14.7068 1.2932C14.5193 1.10572 14.2651 1.00028 14 1H10V2H14V6ZM8 11C7.40666 11 6.82664 10.8241 6.33329 10.4944C5.83994 10.1648 5.45543 9.69623 5.22836 9.14805C5.0013 8.59987 4.94189 7.99667 5.05765 7.41473C5.1734 6.83279 5.45912 6.29824 5.87868 5.87868C6.29824 5.45912 6.83279 5.1734 7.41473 5.05765C7.99667 4.94189 8.59987 5.0013 9.14805 5.22836C9.69623 5.45543 10.1648 5.83994 10.4944 6.33329C10.8241 6.82664 11 7.40666 11 8C10.9991 8.79538 10.6828 9.55793 10.1203 10.1203C9.55793 10.6828 8.79538 10.9991 8 11ZM8 6C7.60444 6 7.21776 6.1173 6.88886 6.33706C6.55996 6.55683 6.30362 6.86918 6.15224 7.23463C6.00087 7.60009 5.96126 8.00222 6.03843 8.39018C6.1156 8.77814 6.30608 9.13451 6.58579 9.41421C6.86549 9.69392 7.22186 9.8844 7.60982 9.96157C7.99778 10.0387 8.39992 9.99914 8.76537 9.84776C9.13082 9.69639 9.44318 9.44004 9.66294 9.11114C9.8827 8.78224 10 8.39556 10 8C9.99941 7.46975 9.7885 6.96139 9.41356 6.58645C9.03861 6.2115 8.53025 6.0006 8 6ZM9 8C9 8.55228 8.55228 9 8 9C7.44772 9 7 8.55228 7 8C7 7.44772 7.44772 7 8 7C8.55228 7 9 7.44772 9 8ZM8 4C8.27614 4 8.5 3.77614 8.5 3.5C8.5 3.22386 8.27614 3 8 3C7.72386 3 7.5 3.22386 7.5 3.5C7.5 3.77614 7.72386 4 8 4ZM8.5 1.5C8.5 1.77614 8.27614 2 8 2C7.72386 2 7.5 1.77614 7.5 1.5C7.5 1.22386 7.72386 1 8 1C8.27614 1 8.5 1.22386 8.5 1.5ZM8 13C8.27614 13 8.5 12.7761 8.5 12.5C8.5 12.2239 8.27614 12 8 12C7.72386 12 7.5 12.2239 7.5 12.5C7.5 12.7761 7.72386 13 8 13ZM8.5 14.5C8.5 14.7761 8.27614 15 8 15C7.72386 15 7.5 14.7761 7.5 14.5C7.5 14.2239 7.72386 14 8 14C8.27614 14 8.5 14.2239 8.5 14.5ZM12.5 8.5C12.7761 8.5 13 8.27614 13 8C13 7.72386 12.7761 7.5 12.5 7.5C12.2239 7.5 12 7.72386 12 8C12 8.27614 12.2239 8.5 12.5 8.5ZM15 8C15 8.27614 14.7761 8.5 14.5 8.5C14.2239 8.5 14 8.27614 14 8C14 7.72386 14.2239 7.5 14.5 7.5C14.7761 7.5 15 7.72386 15 8ZM3.5 8.5C3.77614 8.5 4 8.27614 4 8C4 7.72386 3.77614 7.5 3.5 7.5C3.22386 7.5 3 7.72386 3 8C3 8.27614 3.22386 8.5 3.5 8.5ZM2 8C2 8.27614 1.77614 8.5 1.5 8.5C1.22386 8.5 1 8.27614 1 8C1 7.72386 1.22386 7.5 1.5 7.5C1.77614 7.5 2 7.72386 2 8ZM4.818 5.31812C5.09414 5.31812 5.318 5.09426 5.318 4.81812C5.318 4.54197 5.09414 4.31812 4.818 4.31812C4.54186 4.31812 4.318 4.54197 4.318 4.81812C4.318 5.09426 4.54186 5.31812 4.818 5.31812ZM4 3.5C4 3.77614 3.77614 4 3.5 4C3.22386 4 3 3.77614 3 3.5C3 3.22386 3.22386 3 3.5 3C3.77614 3 4 3.22386 4 3.5ZM11.182 11.6819C11.4581 11.6819 11.682 11.458 11.682 11.1819C11.682 10.9057 11.4581 10.6819 11.182 10.6819C10.9059 10.6819 10.682 10.9057 10.682 11.1819C10.682 11.458 10.9059 11.6819 11.182 11.6819ZM13 12.5C13 12.7761 12.7761 13 12.5 13C12.2239 13 12 12.7761 12 12.5C12 12.2239 12.2239 12 12.5 12C12.7761 12 13 12.2239 13 12.5ZM11.182 5.31812C11.4581 5.31812 11.682 5.09426 11.682 4.81812C11.682 4.54197 11.4581 4.31812 11.182 4.31812C10.9059 4.31812 10.682 4.54197 10.682 4.81812C10.682 5.09426 10.9059 5.31812 11.182 5.31812ZM13 3.5C13 3.77614 12.7761 4 12.5 4C12.2239 4 12 3.77614 12 3.5C12 3.22386 12.2239 3 12.5 3C12.7761 3 13 3.22386 13 3.5ZM4.818 11.6819C5.09414 11.6819 5.318 11.458 5.318 11.1819C5.318 10.9057 5.09414 10.6819 4.818 10.6819C4.54186 10.6819 4.318 10.9057 4.318 11.1819C4.318 11.458 4.54186 11.6819 4.818 11.6819ZM4 12.5C4 12.7761 3.77614 13 3.5 13C3.22386 13 3 12.7761 3 12.5C3 12.2239 3.22386 12 3.5 12C3.77614 12 4 12.2239 4 12.5Z" fill="black"/>
</svg>
