<svg width="16" height="16" viewBox="0 0 16 16" fill="none" xmlns="http://www.w3.org/2000/svg">
<path fill-rule="evenodd" clip-rule="evenodd" d="M13.9096 7H15V9H13.9096C13.7004 10.226 13.1157 11.3568 12.2362 12.2362C11.3568 13.1157 10.226 13.7004 9 13.9096V15H7V13.9096C5.774 13.7004 4.6432 13.1157 3.76375 12.2362C2.8843 11.3568 2.29959 10.226 2.09035 9H1V7H2.09035C2.29959 5.774 2.8843 4.6432 3.76375 3.76375C4.6432 2.8843 5.774 2.29959 7 2.09035V1H9V2.09035C10.226 2.29959 11.3568 2.8843 12.2362 3.76375C13.1157 4.6432 13.7004 5.774 13.9096 7ZM5.22215 12.1573C6.04439 12.7068 7.01109 13 8 13C9.32562 12.9985 10.5965 12.4712 11.5339 11.5339C12.4712 10.5965 12.9985 9.32562 13 8C13 7.01109 12.7068 6.04439 12.1573 5.22215C11.6079 4.3999 10.827 3.75904 9.91342 3.3806C8.99979 3.00216 7.99445 2.90315 7.02455 3.09607C6.05464 3.289 5.16373 3.7652 4.46447 4.46447C3.7652 5.16373 3.289 6.05464 3.09607 7.02455C2.90315 7.99445 3.00216 8.99979 3.3806 9.91342C3.75904 10.827 4.3999 11.6079 5.22215 12.1573ZM9.57923 10.2204C9.85067 9.87133 9.99866 9.44209 10 8.9999H11C11 9.79555 10.6839 10.5586 10.1213 11.1212C9.55871 11.6838 8.79565 11.9999 8 11.9999C7.20435 11.9999 6.44129 11.6838 5.87868 11.1212C5.31607 10.5586 5 9.79555 5 8.9999H6C6.00134 9.44209 6.14933 9.87133 6.42077 10.2204C6.69221 10.5695 7.07178 10.8186 7.5 10.9289V8.4999H6.5V7.4999H7.5V6.90785C7.1663 6.7899 6.88503 6.55778 6.70593 6.2525C6.52682 5.94723 6.46141 5.58846 6.52125 5.23962C6.58108 4.89078 6.76232 4.57432 7.03292 4.34618C7.30352 4.11805 7.64606 3.99292 8 3.99292C8.35394 3.99292 8.69648 4.11805 8.96708 4.34618C9.23768 4.57432 9.41892 4.89078 9.47875 5.23962C9.53859 5.58846 9.47318 5.94723 9.29407 6.2525C9.11497 6.55778 8.8337 6.7899 8.5 6.90785V7.4999H9.5V8.4999H8.5V10.9289C8.92822 10.8186 9.30779 10.5695 9.57923 10.2204ZM8.27779 5.08417C8.19556 5.02923 8.09889 4.9999 8 4.9999C7.86743 5.00002 7.74032 5.05274 7.64658 5.14648C7.55284 5.24023 7.50012 5.36733 7.5 5.4999C7.5 5.5988 7.52932 5.69547 7.58427 5.77769C7.63921 5.85991 7.7173 5.924 7.80866 5.96184C7.90002 5.99969 8.00056 6.00959 8.09755 5.9903C8.19454 5.971 8.28363 5.92338 8.35355 5.85346C8.42348 5.78353 8.4711 5.69444 8.49039 5.59745C8.50969 5.50046 8.49978 5.39993 8.46194 5.30856C8.4241 5.2172 8.36001 5.13911 8.27779 5.08417Z" fill="black"/>
</svg>
