<svg width="16" height="16" viewBox="0 0 16 16" fill="none" xmlns="http://www.w3.org/2000/svg">
<path fill-rule="evenodd" clip-rule="evenodd" d="M2 14H14C14.2651 13.9997 14.5193 13.8943 14.7068 13.7068C14.8943 13.5193 14.9997 13.2651 15 13V3C14.9997 2.73487 14.8943 2.48068 14.7068 2.2932C14.5193 2.10572 14.2651 2.00028 14 2H2C1.73487 2.00028 1.48068 2.10572 1.2932 2.2932C1.10572 2.48068 1.00028 2.73487 1 3V13C1.00028 13.2651 1.10572 13.5193 1.2932 13.7068C1.48068 13.8943 1.73487 13.9997 2 14ZM2 13V3H14V13H2ZM12 12H4C3.73487 11.9997 3.48068 11.8943 3.2932 11.7068C3.10572 11.5193 3.00028 11.2651 3 11V5C3.00028 4.73487 3.10572 4.48068 3.2932 4.2932C3.48068 4.10572 3.73487 4.00028 4 4H12C12.2651 4.00028 12.5193 4.10572 12.7068 4.2932C12.8943 4.48068 12.9997 4.73487 13 5V11C12.9997 11.2651 12.8943 11.5193 12.7068 11.7068C12.5193 11.8943 12.2651 11.9997 12 12ZM4 5V11H12V5H4ZM8 10C7.60444 10 7.21776 9.8827 6.88886 9.66294C6.55996 9.44318 6.30362 9.13082 6.15224 8.76537C6.00087 8.39992 5.96126 7.99778 6.03843 7.60982C6.1156 7.22186 6.30608 6.86549 6.58579 6.58579C6.86549 6.30608 7.22186 6.1156 7.60982 6.03843C7.99778 5.96126 8.39992 6.00087 8.76537 6.15224C9.13082 6.30362 9.44318 6.55996 9.66294 6.88886C9.8827 7.21776 10 7.60444 10 8C9.99941 8.53025 9.7885 9.03861 9.41356 9.41356C9.03861 9.7885 8.53025 9.99941 8 10ZM8 7C7.80222 7 7.60888 7.05865 7.44443 7.16853C7.27998 7.27841 7.15181 7.43459 7.07612 7.61732C7.00043 7.80004 6.98063 8.00111 7.01922 8.19509C7.0578 8.38907 7.15304 8.56726 7.29289 8.70711C7.43275 8.84696 7.61093 8.9422 7.80491 8.98079C7.99889 9.01937 8.19996 8.99957 8.38268 8.92388C8.56541 8.84819 8.72159 8.72002 8.83147 8.55557C8.94135 8.39112 9 8.19778 9 8C8.99972 7.73487 8.89428 7.48068 8.7068 7.2932C8.51932 7.10572 8.26513 7.00028 8 7Z" fill="black"/>
</svg>
