<svg width="16" height="16" viewBox="0 0 16 16" fill="none" xmlns="http://www.w3.org/2000/svg">
<path fill-rule="evenodd" clip-rule="evenodd" d="M8 3C8.55228 3 9 2.55228 9 2C9 1.44772 8.55228 1 8 1C7.44772 1 7 1.44772 7 2C7 2.55228 7.44772 3 8 3ZM5.77772 11.3259C6.43552 11.7654 7.20888 12 8 12C9.06049 11.9988 10.0772 11.577 10.8271 10.8271C11.577 10.0772 11.9988 9.06049 12 8C12 7.20888 11.7654 6.43552 11.3259 5.77772C10.8864 5.11992 10.2616 4.60723 9.53074 4.30448C8.79983 4.00173 7.99556 3.92252 7.21964 4.07686C6.44372 4.2312 5.73098 4.61216 5.17157 5.17157C4.61216 5.73098 4.2312 6.44372 4.07686 7.21964C3.92252 7.99556 4.00173 8.79983 4.30448 9.53074C4.60723 10.2616 5.11992 10.8864 5.77772 11.3259ZM6.33329 5.50559C6.82664 5.17595 7.40666 5 8 5C8.79538 5.00089 9.55793 5.31724 10.1203 5.87966C10.6828 6.44208 10.9991 7.20462 11 8C11 8.59335 10.8241 9.17337 10.4944 9.66671C10.1648 10.1601 9.69623 10.5446 9.14805 10.7716C8.59987 10.9987 7.99667 11.0581 7.41473 10.9424C6.83279 10.8266 6.29824 10.5409 5.87868 10.1213C5.45912 9.70177 5.1734 9.16722 5.05765 8.58527C4.94189 8.00333 5.0013 7.40013 5.22836 6.85195C5.45543 6.30377 5.83994 5.83524 6.33329 5.50559ZM9 8C9 8.55228 8.55228 9 8 9C7.44772 9 7 8.55228 7 8C7 7.44772 7.44772 7 8 7C8.55228 7 9 7.44772 9 8ZM9 14C9 14.5523 8.55228 15 8 15C7.44772 15 7 14.5523 7 14C7 13.4477 7.44772 13 8 13C8.55228 13 9 13.4477 9 14ZM14 9C14.5523 9 15 8.55228 15 8C15 7.44772 14.5523 7 14 7C13.4477 7 13 7.44772 13 8C13 8.55228 13.4477 9 14 9ZM3 8C3 8.55228 2.55228 9 2 9C1.44772 9 1 8.55228 1 8C1 7.44772 1.44772 7 2 7C2.55228 7 3 7.44772 3 8ZM3.75735 4.75732C4.30964 4.75732 4.75735 4.30961 4.75735 3.75732C4.75735 3.20504 4.30964 2.75732 3.75735 2.75732C3.20507 2.75732 2.75735 3.20504 2.75735 3.75732C2.75735 4.30961 3.20507 4.75732 3.75735 4.75732ZM13.2426 12.2427C13.2426 12.795 12.7949 13.2427 12.2426 13.2427C11.6904 13.2427 11.2426 12.795 11.2426 12.2427C11.2426 11.6904 11.6904 11.2427 12.2426 11.2427C12.7949 11.2427 13.2426 11.6904 13.2426 12.2427ZM12.2426 4.75732C12.7949 4.75732 13.2426 4.30961 13.2426 3.75732C13.2426 3.20504 12.7949 2.75732 12.2426 2.75732C11.6904 2.75732 11.2426 3.20504 11.2426 3.75732C11.2426 4.30961 11.6904 4.75732 12.2426 4.75732ZM4.75735 12.2427C4.75735 12.795 4.30964 13.2427 3.75735 13.2427C3.20507 13.2427 2.75735 12.795 2.75735 12.2427C2.75735 11.6904 3.20507 11.2427 3.75735 11.2427C4.30964 11.2427 4.75735 11.6904 4.75735 12.2427Z" fill="black"/>
</svg>
