<svg width="16" height="16" viewBox="0 0 16 16" fill="none" xmlns="http://www.w3.org/2000/svg">
<path fill-rule="evenodd" clip-rule="evenodd" d="M11.9319 1.74805L15.4319 7.74805C15.4765 7.82452 15.5 7.91147 15.5 8C15.5 8.08853 15.4765 8.17548 15.4319 8.25195L11.9319 14.252C11.8879 14.3274 11.8248 14.3901 11.749 14.4336C11.6733 14.4771 11.5874 14.5 11.5 14.5H4.5C4.41261 14.5 4.32675 14.4771 4.25097 14.4336C4.17519 14.3901 4.11214 14.3274 4.0681 14.252L0.568104 8.25195C0.523492 8.17548 0.499985 8.08853 0.499985 8C0.499985 7.91147 0.523492 7.82452 0.568104 7.74805L4.0681 1.74805C4.11214 1.67257 4.17519 1.60994 4.25097 1.56642C4.32675 1.5229 4.41261 1.5 4.5 1.5H11.5C11.5874 1.5 11.6733 1.5229 11.749 1.56642C11.8248 1.60994 11.8879 1.67257 11.9319 1.74805ZM4.7871 13.5H11.2129L14.4212 8L11.2129 2.5H4.7871L1.57885 8L4.7871 13.5ZM9 8C9 8.55228 8.55229 9 8 9C7.44772 9 7 8.55228 7 8C7 7.44772 7.44772 7 8 7C8.55229 7 9 7.44772 9 8Z" fill="black"/>
</svg>
