<svg width="16" height="16" viewBox="0 0 16 16" fill="none" xmlns="http://www.w3.org/2000/svg">
<path fill-rule="evenodd" clip-rule="evenodd" d="M6 14H10C10.1326 14 10.2598 13.9473 10.3536 13.8535C10.4473 13.7598 10.5 13.6326 10.5 13.5V10.6328L12.3694 7.36152L14.7573 5.92867C14.8694 5.86138 14.9507 5.75286 14.9837 5.62636C15.0168 5.49986 14.999 5.36545 14.9341 5.25192L12.9341 1.75192C12.9011 1.69414 12.8568 1.64352 12.804 1.60305C12.7512 1.56258 12.6908 1.53307 12.6264 1.51624C12.562 1.49941 12.4949 1.49562 12.429 1.50507C12.3631 1.51452 12.2998 1.53703 12.2427 1.57127L9.86155 2.99997H6.13845L3.7573 1.57127C3.70023 1.53703 3.6369 1.51452 3.57101 1.50507C3.50513 1.49562 3.43802 1.49941 3.37362 1.51624C3.30922 1.53307 3.24883 1.56258 3.19599 1.60305C3.14315 1.64352 3.09892 1.69414 3.0659 1.75192L1.0659 5.25192C1.00104 5.36545 0.98322 5.49986 1.01627 5.62636C1.04932 5.75286 1.1306 5.86138 1.2427 5.92867L3.6306 7.36152L5.5 10.6328V13.5C5.5 13.6326 5.55268 13.7598 5.64645 13.8535C5.74022 13.9473 5.86739 14 6 14ZM9.5 13H6.5V10.3673L4.3692 6.63837L2.177 5.32307L3.68065 2.69152L5.8615 3.99997H10.1385L12.3194 2.69152L13.823 5.32307L11.6308 6.63837L9.5 10.3673V13ZM9 7C9 7.55228 8.55228 8 8 8C7.44772 8 7 7.55228 7 7C7 6.44772 7.44772 6 8 6C8.55228 6 9 6.44772 9 7Z" fill="black"/>
</svg>
