<svg width="16" height="16" viewBox="0 0 16 16" fill="none" xmlns="http://www.w3.org/2000/svg">
<path fill-rule="evenodd" clip-rule="evenodd" d="M9 6L10.793 4.293L11.5 5L8.5 8L5.5 5L6.207 4.293L8 6V1H9V6ZM14.0766 8.11445C14.2577 8.18987 14.4222 8.30031 14.5605 8.43946C14.6999 8.5787 14.8104 8.74404 14.8858 8.92601C14.9612 9.10798 15 9.30303 15 9.50001C15 9.69698 14.9612 9.89203 14.8858 10.074C14.8104 10.256 14.6999 10.4213 14.5605 10.5606L10.8535 14.2676C10.6219 14.5005 10.3464 14.6852 10.043 14.8109C9.73953 14.9366 9.41416 15.0009 9.0857 15H5.5V14H9.0857C9.2828 14.0006 9.47805 13.962 9.66015 13.8866C9.84224 13.8112 10.0075 13.7003 10.1465 13.5606L13.8535 9.85351C13.9233 9.78368 13.9709 9.69476 13.9902 9.59794C14.0096 9.50112 13.9998 9.40074 13.9622 9.30946C13.9245 9.21818 13.8607 9.14008 13.7788 9.08501C13.6968 9.02994 13.6004 9.00036 13.5017 9.00001H13.5C13.4343 8.99983 13.3692 9.01268 13.3086 9.03783C13.2479 9.06298 13.1928 9.09992 13.1465 9.14651L10.3786 11.9141C10.1934 12.1004 9.97301 12.2482 9.73023 12.3488C9.48746 12.4494 9.22713 12.5008 8.96435 12.5H6.5V11.5H8.5C8.63261 11.5 8.75979 11.4473 8.85355 11.3536C8.94732 11.2598 9 11.1326 9 11C9 10.8674 8.94732 10.7402 8.85355 10.6465C8.75979 10.5527 8.63261 10.5 8.5 10.5H5C4.60231 10.5004 4.22103 10.6586 3.93982 10.9398C3.65861 11.221 3.50044 11.6023 3.5 12V12.6665L1.8 14.9316L1 14.3316L2.5 12.3335V12C2.50078 11.3372 2.76442 10.7018 3.2331 10.2331C3.70177 9.76443 4.3372 9.50079 5 9.50001H8.5C8.87776 9.50112 9.24113 9.64499 9.51726 9.90278C9.79339 10.1606 9.96187 10.5132 9.9889 10.89L12.4395 8.43946C12.5783 8.29966 12.7436 8.18883 12.9257 8.11339C13.1077 8.03796 13.3029 7.99942 13.5 8.00001H13.505C13.7012 8.00015 13.8955 8.03904 14.0766 8.11445Z" fill="black"/>
</svg>
