<svg width="16" height="16" viewBox="0 0 16 16" fill="none" xmlns="http://www.w3.org/2000/svg">
<g clip-path="url(#clip0_3_11845)">
<path fill-rule="evenodd" clip-rule="evenodd" d="M11.1501 2.11749C12.0493 2.84686 12.6675 3.86569 12.8991 5.00009H11.8684C11.635 4.09392 11.091 3.29839 10.3313 2.7521C9.57155 2.20582 8.64422 1.94343 7.7109 2.01065C6.77757 2.07788 5.89742 2.47045 5.22382 3.11997C4.55022 3.76949 4.12588 4.63478 4.02474 5.56504L3.97974 5.98179L3.56149 6.01034C2.85032 6.05876 2.1858 6.38163 1.7082 6.91078C1.2306 7.43993 0.977292 8.13395 1.00175 8.84634C1.02621 9.55873 1.32653 10.2337 1.8393 10.7289C2.35207 11.224 3.03717 11.5006 3.74999 11.5001H3.99999V12.5001H3.74999C2.81302 12.5005 1.90986 12.15 1.21848 11.5177C0.527099 10.8853 0.0976356 10.0169 0.0147147 9.0836C-0.0682061 8.15031 0.20143 7.21981 0.770491 6.47544C1.33955 5.73108 2.16677 5.22684 3.08914 5.06209C3.30646 3.92486 3.91172 2.89829 4.80162 2.15761C5.69151 1.41692 6.81088 1.00803 7.96866 1.00071C9.12645 0.993393 10.2509 1.38811 11.1501 2.11749ZM9 6H14C14.2651 6.0003 14.5193 6.10576 14.7068 6.29323C14.8942 6.4807 14.9997 6.73488 15 7V15H5V10C5.0003 9.73488 5.10576 9.4807 5.29323 9.29323C5.4807 9.10576 5.73488 9.0003 6 9H8V7C8.0003 6.73488 8.10576 6.4807 8.29323 6.29323C8.4807 6.10576 8.73488 6.0003 9 6ZM6 10V14H8V10H6ZM9 14H14V7H9V14ZM11 8H10V10H11V8ZM12 8H13V10H12V8ZM11 11H10V13H11V11ZM12 11H13V13H12V11Z" fill="black"/>
</g>
<defs>
<clipPath id="clip0_3_11845">
<rect width="16" height="16" fill="white"/>
</clipPath>
</defs>
</svg>
