<svg width="16" height="16" viewBox="0 0 16 16" fill="none" xmlns="http://www.w3.org/2000/svg">
<g clip-path="url(#clip0_3_11843)">
<path fill-rule="evenodd" clip-rule="evenodd" d="M12 12.5H12.25C13.187 12.5005 14.0902 12.15 14.7816 11.5176C15.473 10.8852 15.9024 10.0168 15.9854 9.08356C16.0683 8.15026 15.7986 7.21975 15.2296 6.47538C14.6605 5.73101 13.8333 5.22677 12.9109 5.06202C12.6928 3.91936 12.083 2.88854 11.1866 2.1471C10.2902 1.40565 9.16333 1 8.00004 1C6.83674 1 5.70986 1.40565 4.81347 2.1471C3.91707 2.88854 3.30729 3.91936 3.08914 5.06202C2.16676 5.22677 1.33954 5.73101 0.770483 6.47538C0.201422 7.21975 -0.0682105 8.15026 0.0147169 9.08356C0.0976444 10.0168 0.527117 10.8852 1.21851 11.5176C1.9099 12.15 2.81306 12.5005 3.75004 12.5H4.00004V11.5H3.75004C3.03721 11.5005 2.35207 11.224 1.83926 10.7289C1.32645 10.2338 1.02609 9.55878 1.00161 8.84637C0.977117 8.13396 1.23041 7.43991 1.70801 6.91075C2.18562 6.38158 2.85015 6.0587 3.56134 6.01027L3.97959 5.98197L4.02459 5.56497C4.13149 4.58531 4.59637 3.67962 5.33003 3.02167C6.06369 2.36371 7.01446 1.99983 7.99994 1.99983C8.98541 1.99983 9.93618 2.36371 10.6698 3.02167C11.4035 3.67962 11.8684 4.58531 11.9753 5.56497L12.0203 5.98197L12.4385 6.01027C13.1497 6.05869 13.8142 6.38156 14.2918 6.91071C14.7694 7.43986 15.0227 8.13388 14.9983 8.84627C14.9738 9.55866 14.6735 10.2337 14.1607 10.7288C13.6479 11.224 12.9628 11.5005 12.25 11.5H12V12.5ZM5.5 6.5H9.585L8.295 5.205L9 4.5L11.5 7L9 9.5L8.295 8.795L9.585 7.5H5.5V6.5ZM11 11.5H6.915L8.205 10.205L7.5 9.5L5 12L7.5 14.5L8.205 13.795L6.915 12.5H11V11.5Z" fill="black"/>
</g>
<defs>
<clipPath id="clip0_3_11843">
<rect width="16" height="16" fill="white"/>
</clipPath>
</defs>
</svg>
