<svg width="16" height="16" viewBox="0 0 16 16" fill="none" xmlns="http://www.w3.org/2000/svg">
<g clip-path="url(#clip0_3_11859)">
<path fill-rule="evenodd" clip-rule="evenodd" d="M11 4.5C10.6044 4.5 10.2178 4.3827 9.88886 4.16294C9.55996 3.94318 9.30362 3.63082 9.15224 3.26537C9.00087 2.89992 8.96126 2.49778 9.03843 2.10982C9.1156 1.72186 9.30608 1.36549 9.58579 1.08579C9.86549 0.806082 10.2219 0.615601 10.6098 0.53843C10.9978 0.46126 11.3999 0.500867 11.7654 0.652242C12.1308 0.803617 12.4432 1.05996 12.6629 1.38886C12.8827 1.71776 13 2.10444 13 2.5C12.9994 3.03025 12.7885 3.53861 12.4136 3.91356C12.0386 4.2885 11.5303 4.49941 11 4.5ZM11 1.5C10.8022 1.5 10.6089 1.55865 10.4444 1.66853C10.28 1.77841 10.1518 1.93459 10.0761 2.11732C10.0004 2.30004 9.98063 2.50111 10.0192 2.69509C10.0578 2.88907 10.153 3.06726 10.2929 3.20711C10.4327 3.34696 10.6109 3.4422 10.8049 3.48079C10.9989 3.51937 11.2 3.49957 11.3827 3.42388C11.5654 3.34819 11.7216 3.22002 11.8315 3.05557C11.9414 2.89112 12 2.69778 12 2.5C11.9997 2.23487 11.8943 1.98068 11.7068 1.7932C11.5193 1.60573 11.2651 1.50028 11 1.5ZM2.5 10C2.10444 10 1.71776 9.8827 1.38886 9.66294C1.05996 9.44318 0.803617 9.13082 0.652242 8.76537C0.500867 8.39992 0.46126 7.99778 0.53843 7.60982C0.615601 7.22186 0.806082 6.86549 1.08579 6.58579C1.36549 6.30608 1.72186 6.1156 2.10982 6.03843C2.49778 5.96126 2.89992 6.00087 3.26537 6.15224C3.63082 6.30362 3.94318 6.55996 4.16294 6.88886C4.3827 7.21776 4.5 7.60444 4.5 8C4.49941 8.53025 4.2885 9.03861 3.91356 9.41356C3.53861 9.7885 3.03025 9.99941 2.5 10ZM2.5 7C2.30222 7 2.10888 7.05865 1.94443 7.16853C1.77998 7.27841 1.65181 7.43459 1.57612 7.61732C1.50043 7.80004 1.48063 8.00111 1.51922 8.19509C1.5578 8.38907 1.65304 8.56726 1.79289 8.70711C1.93275 8.84696 2.11093 8.9422 2.30491 8.98079C2.49889 9.01937 2.69996 8.99957 2.88268 8.92388C3.06541 8.84819 3.22159 8.72002 3.33147 8.55557C3.44135 8.39112 3.5 8.19778 3.5 8C3.4997 7.73488 3.39424 7.4807 3.20677 7.29323C3.0193 7.10576 2.76512 7.00031 2.5 7ZM8 10C7.60444 10 7.21776 9.8827 6.88886 9.66294C6.55996 9.44318 6.30362 9.13082 6.15224 8.76537C6.00087 8.39992 5.96126 7.99778 6.03843 7.60982C6.1156 7.22186 6.30608 6.86549 6.58579 6.58579C6.86549 6.30608 7.22186 6.1156 7.60982 6.03843C7.99778 5.96126 8.39992 6.00087 8.76537 6.15224C9.13082 6.30362 9.44318 6.55996 9.66294 6.88886C9.8827 7.21776 10 7.60444 10 8C9.99941 8.53025 9.7885 9.03861 9.41356 9.41356C9.03861 9.7885 8.53025 9.99941 8 10ZM8 7C7.80222 7 7.60888 7.05865 7.44443 7.16853C7.27998 7.27841 7.15181 7.43459 7.07612 7.61732C7.00043 7.80004 6.98063 8.00111 7.01922 8.19509C7.0578 8.38907 7.15304 8.56726 7.29289 8.70711C7.43275 8.84696 7.61093 8.9422 7.80491 8.98079C7.99889 9.01937 8.19996 8.99957 8.38268 8.92388C8.56541 8.84819 8.72159 8.72002 8.83147 8.55557C8.94135 8.39112 9 8.19778 9 8C8.99972 7.73487 8.89428 7.48068 8.7068 7.2932C8.51932 7.10572 8.26513 7.00028 8 7ZM3.88886 15.1629C4.21776 15.3827 4.60444 15.5 5 15.5C5.53025 15.4994 6.03861 15.2885 6.41356 14.9136C6.7885 14.5386 6.99941 14.0303 7 13.5C7 13.1044 6.8827 12.7178 6.66294 12.3889C6.44318 12.06 6.13082 11.8036 5.76537 11.6522C5.39992 11.5009 4.99778 11.4613 4.60982 11.5384C4.22186 11.6156 3.86549 11.8061 3.58579 12.0858C3.30608 12.3655 3.1156 12.7219 3.03843 13.1098C2.96126 13.4978 3.00087 13.8999 3.15224 14.2654C3.30362 14.6308 3.55996 14.9432 3.88886 15.1629ZM4.44443 12.6685C4.60888 12.5587 4.80222 12.5 5 12.5C5.26513 12.5003 5.51932 12.6057 5.7068 12.7932C5.89428 12.9807 5.99972 13.2349 6 13.5C6 13.6978 5.94135 13.8911 5.83147 14.0556C5.72159 14.22 5.56541 14.3482 5.38268 14.4239C5.19996 14.4996 4.99889 14.5194 4.80491 14.4808C4.61093 14.4422 4.43275 14.347 4.29289 14.2071C4.15304 14.0673 4.0578 13.8891 4.01922 13.6951C3.98063 13.5011 4.00043 13.3 4.07612 13.1173C4.15181 12.9346 4.27998 12.7784 4.44443 12.6685ZM11 15.5C10.6044 15.5 10.2178 15.3827 9.88886 15.1629C9.55996 14.9432 9.30362 14.6308 9.15224 14.2654C9.00087 13.8999 8.96126 13.4978 9.03843 13.1098C9.1156 12.7219 9.30608 12.3655 9.58579 12.0858C9.86549 11.8061 10.2219 11.6156 10.6098 11.5384C10.9978 11.4613 11.3999 11.5009 11.7654 11.6522C12.1308 11.8036 12.4432 12.06 12.6629 12.3889C12.8827 12.7178 13 13.1044 13 13.5C12.9994 14.0303 12.7885 14.5386 12.4136 14.9136C12.0386 15.2885 11.5303 15.4994 11 15.5ZM11 12.5C10.8022 12.5 10.6089 12.5587 10.4444 12.6685C10.28 12.7784 10.1518 12.9346 10.0761 13.1173C10.0004 13.3 9.98063 13.5011 10.0192 13.6951C10.0578 13.8891 10.153 14.0673 10.2929 14.2071C10.4327 14.347 10.6109 14.4422 10.8049 14.4808C10.9989 14.5194 11.2 14.4996 11.3827 14.4239C11.5654 14.3482 11.7216 14.22 11.8315 14.0556C11.9414 13.8911 12 13.6978 12 13.5C11.9997 13.2349 11.8943 12.9807 11.7068 12.7932C11.5193 12.6057 11.2651 12.5003 11 12.5ZM12.3889 9.66294C12.7178 9.8827 13.1044 10 13.5 10C14.0303 9.99941 14.5386 9.7885 14.9136 9.41356C15.2885 9.03861 15.4994 8.53025 15.5 8C15.5 7.60444 15.3827 7.21776 15.1629 6.88886C14.9432 6.55996 14.6308 6.30362 14.2654 6.15224C13.8999 6.00087 13.4978 5.96126 13.1098 6.03843C12.7219 6.1156 12.3655 6.30608 12.0858 6.58579C11.8061 6.86549 11.6156 7.22186 11.5384 7.60982C11.4613 7.99778 11.5009 8.39992 11.6522 8.76537C11.8036 9.13082 12.06 9.44318 12.3889 9.66294ZM12.9444 7.16853C13.1089 7.05865 13.3022 7 13.5 7C13.7651 7.00028 14.0193 7.10572 14.2068 7.2932C14.3943 7.48068 14.4997 7.73487 14.5 8C14.5 8.19778 14.4414 8.39112 14.3315 8.55557C14.2216 8.72002 14.0654 8.84819 13.8827 8.92388C13.7 8.99957 13.4989 9.01937 13.3049 8.98079C13.1109 8.9422 12.9327 8.84696 12.7929 8.70711C12.653 8.56726 12.5578 8.38907 12.5192 8.19509C12.4806 8.00111 12.5004 7.80004 12.5761 7.61732C12.6518 7.43459 12.78 7.27841 12.9444 7.16853ZM3.88886 4.16294C4.21776 4.3827 4.60444 4.5 5 4.5C5.53025 4.49941 6.03861 4.2885 6.41356 3.91356C6.7885 3.53861 6.99941 3.03025 7 2.5C7 2.10444 6.8827 1.71776 6.66294 1.38886C6.44318 1.05996 6.13082 0.803617 5.76537 0.652242C5.39992 0.500867 4.99778 0.46126 4.60982 0.53843C4.22186 0.615601 3.86549 0.806082 3.58579 1.08579C3.30608 1.36549 3.1156 1.72186 3.03843 2.10982C2.96126 2.49778 3.00087 2.89992 3.15224 3.26537C3.30362 3.63082 3.55996 3.94318 3.88886 4.16294ZM4.44443 1.66853C4.60888 1.55865 4.80222 1.5 5 1.5C5.26513 1.50028 5.51932 1.60573 5.7068 1.7932C5.89428 1.98068 5.99972 2.23487 6 2.5C6 2.69778 5.94135 2.89112 5.83147 3.05557C5.72159 3.22002 5.56541 3.34819 5.38268 3.42388C5.19996 3.49957 4.99889 3.51937 4.80491 3.48079C4.61093 3.4422 4.43275 3.34696 4.29289 3.20711C4.15304 3.06726 4.0578 2.88907 4.01922 2.69509C3.98063 2.50111 4.00043 2.30004 4.07612 2.11732C4.15181 1.93459 4.27998 1.77841 4.44443 1.66853Z" fill="black"/>
</g>
<defs>
<clipPath id="clip0_3_11859">
<rect width="16" height="16" fill="white"/>
</clipPath>
</defs>
</svg>
