<svg width="16" height="16" viewBox="0 0 16 16" fill="none" xmlns="http://www.w3.org/2000/svg">
<path fill-rule="evenodd" clip-rule="evenodd" d="M8 1C10.4 1 12.45 2.7 12.9 5H11.85C11.4 3.3 9.85 2 8 2C5.95 2 4.25 3.55 4 5.55V6H3.55C2.1 6.1 1 7.3 1 8.75C1 10.25 2.25 11.5 3.75 11.5H5.5V12.5H3.75C1.7 12.5 0 10.8 0 8.75C0 6.9 1.35 5.4 3.1 5.05C3.55 2.7 5.6 1 8 1ZM7 10.75C7 8.4 8.9 6.5 11.25 6.5C13.6 6.5 15.5 8.4 15.5 10.75C15.5 13.1 13.6 15 11.25 15C8.9 15 7 13.1 7 10.75ZM13 10.5H14.5C14.4 9.25 13.6 8.25 12.55 7.75C12.85 8.5 13 9.5 13 10.5ZM10.5 11.5C10.6 13.1 11.05 13.9 11.25 14C11.45 13.9 11.85 13.1 11.95 11.5H10.5ZM11.2 7.5C11.05 7.6 10.55 8.6 10.5 10.5H11.95C11.9 8.6 11.4 7.6 11.2 7.5ZM9.5 10.5C9.55 9.5 9.65 8.5 9.95 7.75C8.9 8.25 8.1 9.25 8 10.5H9.5ZM9.5 11.5H8.1C8.35 12.5 9.05 13.35 9.95 13.75C9.7 13.1 9.55 12.3 9.5 11.5ZM13 11.5C12.95 12.35 12.8 13.1 12.55 13.75C13.45 13.35 14.15 12.5 14.45 11.5H13Z" fill="black"/>
</svg>
