<svg width="16" height="16" viewBox="0 0 16 16" fill="none" xmlns="http://www.w3.org/2000/svg">
<path fill-rule="evenodd" clip-rule="evenodd" d="M12.7795 6.42077C13.1286 6.14933 13.5578 6.00134 14 6C14.3734 5.99939 14.7395 6.1035 15.0567 6.3005C15.3739 6.49751 15.6295 6.77952 15.7945 7.1145C15.9595 7.44949 16.0272 7.82402 15.99 8.19557C15.9529 8.56713 15.8122 8.9208 15.5841 9.21644C15.356 9.51208 15.0496 9.73782 14.6996 9.86805C14.3496 9.99827 13.9702 10.0277 13.6043 9.95313C13.2384 9.87851 12.9008 9.7028 12.6298 9.44593C12.3587 9.18907 12.1652 8.86135 12.0711 8.5H9.92895C9.80813 8.97116 9.51941 9.38199 9.11703 9.65527C8.71464 9.92855 8.22631 10.0455 7.7438 9.98406C7.26128 9.92266 6.8178 9.68715 6.49669 9.3218C6.17559 8.95645 5.99896 8.48641 6 8C6.00137 7.56862 6.14354 7.14949 6.4049 6.8063L4.8169 4.8213C4.56043 4.93834 4.28192 4.99927 4 5C3.60444 5 3.21776 4.8827 2.88886 4.66294C2.55996 4.44318 2.30362 4.13082 2.15224 3.76537C2.00087 3.39992 1.96126 2.99778 2.03843 2.60982C2.1156 2.22186 2.30608 1.86549 2.58579 1.58579C2.86549 1.30608 3.22186 1.1156 3.60982 1.03843C3.99778 0.96126 4.39992 1.00087 4.76537 1.15224C5.13082 1.30362 5.44318 1.55996 5.66294 1.88886C5.8827 2.21776 6 2.60444 6 3C5.99854 3.43135 5.85634 3.85043 5.595 4.1936L7.18325 6.1787C7.4478 6.05807 7.73565 5.9971 8.02639 6.00011C8.31713 6.00312 8.60365 6.07003 8.86564 6.19611C9.12764 6.32219 9.3587 6.50435 9.54246 6.72968C9.72621 6.95501 9.85816 7.218 9.92895 7.5H12.0711C12.1813 7.07178 12.4304 6.69221 12.7795 6.42077ZM3.44443 3.83147C3.60888 3.94135 3.80222 4 4 4C4.26512 3.9997 4.5193 3.89424 4.70677 3.70677C4.89424 3.5193 4.9997 3.26512 5 3C5 2.80222 4.94135 2.60888 4.83147 2.44443C4.72159 2.27998 4.56541 2.15181 4.38268 2.07612C4.19996 2.00043 3.99889 1.98063 3.80491 2.01922C3.61093 2.0578 3.43275 2.15304 3.29289 2.29289C3.15304 2.43275 3.0578 2.61093 3.01922 2.80491C2.98063 2.99889 3.00043 3.19996 3.07612 3.38268C3.15181 3.56541 3.27998 3.72159 3.44443 3.83147ZM7.44443 8.83147C7.60888 8.94135 7.80222 9 8 9C8.26512 8.99967 8.51928 8.89421 8.70674 8.70674C8.89421 8.51928 8.99967 8.26512 9 8C9 7.80222 8.94135 7.60888 8.83147 7.44443C8.72159 7.27998 8.56541 7.15181 8.38268 7.07612C8.19996 7.00043 7.99889 6.98063 7.80491 7.01922C7.61093 7.0578 7.43275 7.15304 7.29289 7.29289C7.15304 7.43275 7.0578 7.61093 7.01922 7.80491C6.98063 7.99889 7.00043 8.19996 7.07612 8.38268C7.15181 8.56541 7.27998 8.72159 7.44443 8.83147ZM13.4444 8.83147C13.6089 8.94135 13.8022 9 14 9C14.2651 8.9997 14.5193 8.89424 14.7068 8.70677C14.8942 8.5193 14.9997 8.26512 15 8C15 7.80222 14.9414 7.60888 14.8315 7.44443C14.7216 7.27998 14.5654 7.15181 14.3827 7.07612C14.2 7.00043 13.9989 6.98063 13.8049 7.01922C13.6109 7.0578 13.4327 7.15304 13.2929 7.29289C13.153 7.43275 13.0578 7.61093 13.0192 7.80491C12.9806 7.99889 13.0004 8.19996 13.0761 8.38268C13.1518 8.56541 13.28 8.72159 13.4444 8.83147ZM11.5 3C11.5 3.55228 11.0523 4 10.5 4C9.94771 4 9.5 3.55228 9.5 3C9.5 2.44772 9.94771 2 10.5 2C11.0523 2 11.5 2.44772 11.5 3ZM2 10V11H4.293L1 14.293L1.707 15L5 11.707V14H6V10H2ZM10.5 14C11.0523 14 11.5 13.5523 11.5 13C11.5 12.4477 11.0523 12 10.5 12C9.94771 12 9.5 12.4477 9.5 13C9.5 13.5523 9.94771 14 10.5 14ZM2 9C2.55228 9 3 8.55228 3 8C3 7.44772 2.55228 7 2 7C1.44772 7 1 7.44772 1 8C1 8.55228 1.44772 9 2 9Z" fill="black"/>
</svg>
