<svg width="16" height="16" viewBox="0 0 16 16" fill="none" xmlns="http://www.w3.org/2000/svg">
<path fill-rule="evenodd" clip-rule="evenodd" d="M14.2929 1L15 1.70705L14 2.70705V13C13.9996 13.2651 13.8942 13.5193 13.7067 13.7067C13.5193 13.8942 13.2651 13.9996 13 14H2.70705L1.70705 15L1 14.2929L14.2929 1ZM3.70705 13H13V11.4986L11 9.5L10.2071 10.2928C10.0196 10.4804 9.76521 10.5857 9.5 10.5857C9.23479 10.5857 8.98044 10.4804 8.7929 10.2928L7.6035 9.1035L3.70705 13ZM11.7071 8.79115L13 10.0841V3.70705L8.3115 8.39555L9.5 9.5841L10.2929 8.79115C10.4804 8.60362 10.7348 8.49826 11 8.49826C11.2652 8.49826 11.5196 8.60362 11.7071 8.79115ZM3 9.5V11H2V3C2.00026 2.73486 2.10571 2.48066 2.29319 2.29319C2.48066 2.10571 2.73486 2.00026 3 2H11V3H3V8.0858L4.7929 6.29285C4.98044 6.10532 5.23479 5.99996 5.5 5.99996C5.76521 5.99996 6.01956 6.10532 6.2071 6.29285L6.8946 6.98035L6.18665 7.68835L5.5 7.0017L3 9.5Z" fill="black"/>
</svg>
