<svg width="16" height="16" viewBox="0 0 16 16" fill="none" xmlns="http://www.w3.org/2000/svg">
<path fill-rule="evenodd" clip-rule="evenodd" d="M13.7071 3H14C14.2651 3.0003 14.5193 3.10576 14.7068 3.29323C14.8942 3.4807 14.9997 3.73488 15 4V6.5C15 6.63261 14.9473 6.75979 14.8536 6.85355C14.7598 6.94732 14.6326 7 14.5 7C14.2348 7 13.9804 7.10536 13.7929 7.29289C13.6054 7.48043 13.5 7.73478 13.5 8C13.5 8.26522 13.6054 8.51957 13.7929 8.70711C13.9804 8.89464 14.2348 9 14.5 9C14.6326 9 14.7598 9.05268 14.8536 9.14645C14.9473 9.24021 15 9.36739 15 9.5V12C14.9996 12.2651 14.8942 12.5193 14.7067 12.7067C14.5193 12.8942 14.2651 12.9996 14 13H3.70705L1.70705 15L1 14.2929L14.2929 1L15 1.70705L13.7071 3ZM12.9185 6.77492C13.1901 6.42435 13.5706 6.17401 14 6.06325V4H12.7071L10.5 6.20705V9.5H9.5V7.20705L4.70705 12H9.5V10.5H10.5V12H14V9.9365C13.5706 9.82574 13.1901 9.5754 12.9185 9.22483C12.6469 8.87426 12.4995 8.44336 12.4995 7.99988C12.4995 7.55639 12.6469 7.12549 12.9185 6.77492ZM2 4V6.06325C2.42943 6.17401 2.80987 6.42435 3.08149 6.77492C3.35312 7.12549 3.50052 7.55639 3.50052 7.99988C3.50052 8.44336 3.35312 8.87426 3.08149 9.22483C2.80987 9.5754 2.42943 9.82574 2 9.9365V12H1V9.5C1 9.36739 1.05268 9.24021 1.14645 9.14645C1.24021 9.05268 1.36739 9 1.5 9C1.76522 9 2.01957 8.89464 2.20711 8.70711C2.39464 8.51957 2.5 8.26522 2.5 8C2.5 7.73478 2.39464 7.48043 2.20711 7.29289C2.01957 7.10536 1.76522 7 1.5 7C1.36739 7 1.24021 6.94732 1.14645 6.85355C1.05268 6.75979 1 6.63261 1 6.5V4C1.0003 3.73488 1.10576 3.4807 1.29323 3.29323C1.4807 3.10576 1.73488 3.0003 2 3H9.5V4H2Z" fill="black"/>
</svg>
