<svg width="16" height="16" viewBox="0 0 16 16" fill="none" xmlns="http://www.w3.org/2000/svg">
<path fill-rule="evenodd" clip-rule="evenodd" d="M6.33329 6.49441C6.82664 6.82405 7.40666 7 8 7C8.79537 6.99909 9.5579 6.68272 10.1203 6.12031C10.6827 5.5579 10.9991 4.79537 11 4C11 3.40666 10.8241 2.82664 10.4944 2.33329C10.1648 1.83994 9.69623 1.45543 9.14805 1.22836C8.59987 1.0013 7.99667 0.94189 7.41473 1.05765C6.83279 1.1734 6.29824 1.45912 5.87868 1.87868C5.45912 2.29824 5.1734 2.83279 5.05765 3.41473C4.94189 3.99667 5.0013 4.59987 5.22836 5.14805C5.45543 5.69623 5.83994 6.16477 6.33329 6.49441ZM6.88886 2.33706C7.21776 2.1173 7.60444 2 8 2C8.53025 2.0006 9.03861 2.2115 9.41356 2.58645C9.7885 2.96139 9.99941 3.46975 10 4C10 4.39556 9.8827 4.78224 9.66294 5.11114C9.44318 5.44004 9.13082 5.69639 8.76537 5.84776C8.39992 5.99914 7.99778 6.03874 7.60982 5.96157C7.22186 5.8844 6.86549 5.69392 6.58579 5.41422C6.30608 5.13451 6.1156 4.77814 6.03843 4.39018C5.96126 4.00222 6.00087 3.60009 6.15224 3.23463C6.30362 2.86918 6.55996 2.55682 6.88886 2.33706ZM4 14C3.40666 14 2.82664 13.8241 2.33329 13.4944C1.83994 13.1648 1.45543 12.6962 1.22836 12.1481C1.0013 11.5999 0.94189 10.9967 1.05765 10.4147C1.1734 9.83279 1.45912 9.29824 1.87868 8.87868C2.29824 8.45912 2.83279 8.1734 3.41473 8.05765C3.99667 7.94189 4.59987 8.0013 5.14805 8.22836C5.69623 8.45543 6.16477 8.83994 6.49441 9.33329C6.82405 9.82664 7 10.4067 7 11C6.99909 11.7954 6.68272 12.5579 6.12031 13.1203C5.5579 13.6827 4.79537 13.9991 4 14ZM4 9C3.60444 9 3.21776 9.1173 2.88886 9.33706C2.55996 9.55683 2.30362 9.86918 2.15224 10.2346C2.00087 10.6001 1.96126 11.0022 2.03843 11.3902C2.1156 11.7781 2.30608 12.1345 2.58579 12.4142C2.86549 12.6939 3.22186 12.8844 3.60982 12.9616C3.99778 13.0387 4.39992 12.9991 4.76537 12.8478C5.13082 12.6964 5.44318 12.44 5.66294 12.1111C5.8827 11.7822 6 11.3956 6 11C5.99941 10.4698 5.7885 9.96139 5.41356 9.58645C5.03861 9.2115 4.53025 9.0006 4 9ZM12 14C11.4067 14 10.8266 13.8241 10.3333 13.4944C9.83994 13.1648 9.45543 12.6962 9.22836 12.1481C9.0013 11.5999 8.94189 10.9967 9.05765 10.4147C9.1734 9.83279 9.45912 9.29824 9.87868 8.87868C10.2982 8.45912 10.8328 8.1734 11.4147 8.05765C11.9967 7.94189 12.5999 8.0013 13.1481 8.22836C13.6962 8.45543 14.1648 8.83994 14.4944 9.33329C14.8241 9.82664 15 10.4067 15 11C14.9991 11.7954 14.6827 12.5579 14.1203 13.1203C13.5579 13.6827 12.7954 13.9991 12 14ZM12 9C11.6044 9 11.2178 9.1173 10.8889 9.33706C10.56 9.55683 10.3036 9.86918 10.1522 10.2346C10.0009 10.6001 9.96126 11.0022 10.0384 11.3902C10.1156 11.7781 10.3061 12.1345 10.5858 12.4142C10.8655 12.6939 11.2219 12.8844 11.6098 12.9616C11.9978 13.0387 12.3999 12.9991 12.7654 12.8478C13.1308 12.6964 13.4432 12.44 13.6629 12.1111C13.8827 11.7822 14 11.3956 14 11C13.9994 10.4698 13.7885 9.96139 13.4136 9.58645C13.0386 9.2115 12.5303 9.0006 12 9Z" fill="black"/>
</svg>
