<svg width="16" height="16" viewBox="0 0 16 16" fill="none" xmlns="http://www.w3.org/2000/svg">
<path fill-rule="evenodd" clip-rule="evenodd" d="M10.2146 4.1277C10.4679 4.04352 10.7331 4.00041 11 4C11.6628 4.00078 12.2982 4.26442 12.7669 4.7331C13.2356 5.20177 13.4992 5.8372 13.5 6.5H12.5C12.5 6.1892 12.4035 5.88607 12.2237 5.63251C12.044 5.37895 11.7899 5.18749 11.4966 5.08458C11.2034 4.98168 10.8854 4.97242 10.5866 5.05808C10.2878 5.14374 10.023 5.32008 9.82885 5.56275C9.59508 5.85581 9.29815 6.09231 8.96022 6.25459C8.62229 6.41688 8.25208 6.50077 7.8772 6.5H6V5.5H7.8772C8.10226 5.50043 8.32451 5.45004 8.52737 5.35257C8.73023 5.2551 8.90845 5.11308 9.04875 4.9371C9.13837 4.82735 9.23705 4.72533 9.34375 4.6321C9.0627 4.28004 8.70621 3.99555 8.30057 3.79961C7.89493 3.60368 7.45048 3.50129 7 3.5C6.60584 3.49888 6.21538 3.57596 5.85122 3.72678C5.48706 3.8776 5.15644 4.09917 4.8785 4.37865L4.525 4.7324L1.5 1.70705L2.20705 1L4.5469 3.34C5.24747 2.79321 6.11131 2.49741 7 2.5C7.62563 2.50189 8.24215 2.65006 8.8003 2.93268C9.35846 3.2153 9.84279 3.62454 10.2146 4.1277ZM1.70705 3.5L5.70705 7.5H15V8C15 9.85652 14.2625 11.637 12.9497 12.9497C11.637 14.2625 9.85652 15 8 15C6.14348 15 4.36301 14.2625 3.05025 12.9497C1.7375 11.637 1 9.85652 1 8V7.5H4.29295L1 4.20705L1.70705 3.5ZM3.93992 12.4137C5.047 13.4321 6.49579 13.9981 8 14C9.50421 13.9981 10.953 13.4321 12.0601 12.4137C13.1672 11.3954 13.852 9.99882 13.9792 8.5H2.02075C2.148 9.99882 2.83284 11.3954 3.93992 12.4137Z" fill="black"/>
</svg>
