<svg width="16" height="16" viewBox="0 0 16 16" fill="none" xmlns="http://www.w3.org/2000/svg">
<path fill-rule="evenodd" clip-rule="evenodd" d="M1.705 1L15 14.295L14.3 15L10.3 11L8.96 14.67C8.92566 14.7651 8.86332 14.8475 8.7812 14.9064C8.69909 14.9653 8.60104 14.9979 8.5 15C8.40243 14.9971 8.30783 14.9658 8.22787 14.9098C8.14791 14.8539 8.08607 14.7757 8.05 14.685L6.13 9.885L1.33 7.965C1.23513 7.92902 1.15346 7.86502 1.09583 7.78152C1.03819 7.69802 1.00732 7.59896 1.00732 7.4975C1.00732 7.39604 1.03819 7.29698 1.09583 7.21348C1.15346 7.12998 1.23513 7.06598 1.33 7.03L5 5.705L1 1.705L1.705 1ZM5.77 6.5L2.9 7.5L6.38 8.915L7.295 8L5.77 6.5ZM7.105 9.6L8.5 13.1L9.5 10.23L8 8.705L7.105 9.6ZM11.665 4.33491L7.845 5.72491L7.065 4.94491L12.33 3.02991C12.4193 2.9977 12.5159 2.99157 12.6086 3.01225C12.7012 3.03293 12.7861 3.07956 12.8532 3.14669C12.9204 3.21382 12.967 3.29867 12.9877 3.39133C13.0083 3.48398 13.0022 3.58061 12.97 3.66991L11.055 8.93491L10.275 8.15491L11.665 4.33491Z" fill="black"/>
</svg>
