<svg width="16" height="16" viewBox="0 0 16 16" fill="none" xmlns="http://www.w3.org/2000/svg">
<path fill-rule="evenodd" clip-rule="evenodd" d="M2 2.5H14C14.2651 2.50026 14.5193 2.60571 14.7068 2.79319C14.8943 2.98066 14.9997 3.23486 15 3.5V12.5C14.9997 12.7651 14.8943 13.0193 14.7068 13.2068C14.5193 13.3943 14.2651 13.4997 14 13.5H7.5V3.5H2V8.5H1V3.5C1.00026 3.23486 1.10571 2.98066 1.29319 2.79319C1.48066 2.60571 1.73486 2.50026 2 2.5ZM8.5 3.5V12.5H14.0007L14 3.5H8.5ZM13 5H9.5V6H13V5ZM2 10V11H3.793L1 13.793L1.707 14.5L4.5 11.707V13.5H5.5V10H2ZM9.5 7.5H13V8.5H9.5V7.5ZM13 10H9.5V11H13V10Z" fill="black"/>
</svg>
