<svg width="16" height="16" viewBox="0 0 16 16" fill="none" xmlns="http://www.w3.org/2000/svg">
<path fill-rule="evenodd" clip-rule="evenodd" d="M2 2.5H14C14.2651 2.5003 14.5193 2.60576 14.7068 2.79323C14.8942 2.9807 14.9997 3.23488 15 3.5V12.5C14.9996 12.7651 14.8942 13.0193 14.7067 13.2067C14.5193 13.3942 14.2651 13.4996 14 13.5H2C1.73488 13.4997 1.4807 13.3942 1.29323 13.2068C1.10576 13.0193 1.0003 12.7651 1 12.5V3.5C1.00026 3.23486 1.10571 2.98066 1.29319 2.79319C1.48066 2.60571 1.73486 2.50026 2 2.5ZM7.5 3.5H2V12.5H7.5V3.5ZM8.5 3.5V12.5H14.001L14 3.5H8.5ZM9.5 5H13V6H9.5V5ZM9.5 7.5H13V8.5H9.5V7.5ZM13 10H9.5V11H13V10Z" fill="black"/>
</svg>
