<svg width="16" height="16" viewBox="0 0 16 16" fill="none" xmlns="http://www.w3.org/2000/svg">
<path fill-rule="evenodd" clip-rule="evenodd" d="M4 8.5C3.99997 8.6326 3.94727 8.75975 3.8535 8.8535L2.20705 10.5L1.5 9.79295L3 8.29295V6.5C3.0016 5.26098 3.46257 4.06655 4.29377 3.1477C5.12496 2.22884 6.26734 1.65082 7.5 1.5254V0.5H8.5V1.5254C9.4969 1.62557 10.4402 2.02488 11.206 2.6709L10.4929 3.38405C9.78767 2.81256 8.90768 2.50048 8 2.5C6.93951 2.50122 5.9228 2.92304 5.17292 3.67292C4.42304 4.4228 4.00122 5.43951 4 6.5V8.5ZM13 6.5V8.29295L14.3535 9.6465C14.4473 9.74025 14.5 9.8674 14.5 10V11.5C14.5 11.6326 14.4473 11.7598 14.3536 11.8536C14.2598 11.9473 14.1326 12 14 12H10.5V12.5C10.5 13.163 10.2366 13.7989 9.76777 14.2678C9.29893 14.7366 8.66304 15 8 15C7.33696 15 6.70107 14.7366 6.23223 14.2678C5.76339 13.7989 5.5 13.163 5.5 12.5V12H4.70705L1.70705 15L1 14.2929L14.2929 1L15 1.70705L12.4584 4.2488C12.8139 4.94597 12.9996 5.71738 13 6.5ZM9.06066 13.5607C9.34196 13.2794 9.5 12.8978 9.5 12.5V12H6.5V12.5C6.5 12.8978 6.65804 13.2794 6.93934 13.5607C7.22064 13.842 7.60218 14 8 14C8.39782 14 8.77936 13.842 9.06066 13.5607ZM5.70705 11H13.5V10.2071L12.1465 8.8535C12.0527 8.75975 12 8.6326 12 8.5V6.5C11.9998 5.98609 11.8999 5.47709 11.7059 5.0012L5.70705 11Z" fill="black"/>
</svg>
