<svg width="16" height="16" viewBox="0 0 16 16" fill="none" xmlns="http://www.w3.org/2000/svg">
<path fill-rule="evenodd" clip-rule="evenodd" d="M9.48139 7.40549C9.7571 7.1458 10.1213 7.00082 10.5001 6.99999C10.7968 6.99999 11.0868 7.08796 11.3334 7.25279C11.5801 7.41761 11.7724 7.65188 11.8859 7.92597C11.9994 8.20005 12.0291 8.50166 11.9713 8.79263C11.9134 9.0836 11.7705 9.35087 11.5608 9.56065C11.351 9.77043 11.0837 9.91329 10.7927 9.97117C10.5018 10.029 10.2002 9.99934 9.92607 9.88581C9.65198 9.77228 9.41771 9.58002 9.25289 9.33335C9.08807 9.08667 9.00009 8.79666 9.00009 8.49999C9.00221 8.43139 9.00915 8.36302 9.02084 8.29539L7.01889 7.09424C6.80547 7.29435 6.53819 7.42767 6.24995 7.4778C5.96172 7.52794 5.66512 7.49269 5.39666 7.37639C5.12821 7.2601 4.89962 7.06784 4.73905 6.82328C4.57847 6.57873 4.49292 6.29255 4.49292 5.99999C4.49292 5.70743 4.57847 5.42126 4.73905 5.1767C4.89962 4.93214 5.12821 4.73988 5.39666 4.62359C5.66512 4.5073 5.96172 4.47204 6.24995 4.52218C6.53819 4.57231 6.80547 4.70563 7.01889 4.90574L9.02084 3.70459C9.00915 3.63696 9.00221 3.56859 9.00009 3.49999C8.99905 3.15639 9.11636 2.82292 9.33229 2.55565C9.54822 2.28838 9.8496 2.10362 10.1857 2.03244C10.5219 1.96126 10.8723 2.00801 11.178 2.16482C11.4838 2.32163 11.7262 2.57894 11.8645 2.89347C12.0028 3.208 12.0286 3.56057 11.9375 3.89187C11.8464 4.22318 11.644 4.51301 11.3643 4.71263C11.0847 4.91226 10.7448 5.00948 10.4019 4.98797C10.059 4.96645 9.73391 4.8275 9.48139 4.59449L7.47944 5.79564C7.49105 5.8632 7.49795 5.93148 7.50009 5.99999C7.49795 6.0685 7.49105 6.13678 7.47944 6.20434L9.48139 7.40549ZM10.7779 3.08426C10.6957 3.02931 10.599 2.99999 10.5001 2.99999C10.3675 3.00011 10.2404 3.05283 10.1467 3.14657C10.0529 3.24031 10.0002 3.36742 10.0001 3.49999C10.0001 3.59888 10.0294 3.69555 10.0844 3.77778C10.1393 3.86 10.2174 3.92409 10.3088 3.96193C10.4001 3.99977 10.5006 4.00968 10.5976 3.99038C10.6946 3.97109 10.7837 3.92347 10.8536 3.85354C10.9236 3.78362 10.9712 3.69453 10.9905 3.59754C11.0098 3.50054 10.9999 3.40001 10.962 3.30865C10.9242 3.21729 10.8601 3.1392 10.7779 3.08426ZM5.72231 6.41573C5.80453 6.47067 5.9012 6.49999 6.00009 6.49999C6.13266 6.49987 6.25977 6.44715 6.35351 6.35341C6.44726 6.25967 6.49997 6.13256 6.50009 5.99999C6.50009 5.9011 6.47077 5.80443 6.41583 5.72221C6.36089 5.63998 6.2828 5.57589 6.19143 5.53805C6.10007 5.50021 5.99954 5.49031 5.90255 5.5096C5.80556 5.52889 5.71646 5.57651 5.64654 5.64644C5.57661 5.71636 5.52899 5.80545 5.5097 5.90245C5.49041 5.99944 5.50031 6.09997 5.53815 6.19133C5.576 6.2827 5.64008 6.36078 5.72231 6.41573ZM10.2223 8.91573C10.3045 8.97067 10.4012 8.99999 10.5001 8.99999C10.6327 8.99987 10.7598 8.94716 10.8535 8.85341C10.9473 8.75967 11 8.63256 11.0001 8.49999C11.0001 8.4011 10.9708 8.30443 10.9158 8.22221C10.8609 8.13998 10.7828 8.07589 10.6914 8.03805C10.6001 8.00021 10.4995 7.99031 10.4025 8.0096C10.3056 8.02889 10.2165 8.07651 10.1465 8.14644C10.0766 8.21636 10.029 8.30545 10.0097 8.40245C9.99041 8.49944 10.0003 8.59997 10.0382 8.69133C10.076 8.7827 10.1401 8.86079 10.2223 8.91573ZM14 10H13V11H14V14H2V11H7V10H2C1.73488 10.0003 1.48071 10.1058 1.29324 10.2932C1.10578 10.4807 1.00032 10.7349 1 11V14C1.00032 14.2651 1.10578 14.5193 1.29324 14.7068C1.48071 14.8942 1.73488 14.9997 2 15H14C14.2651 14.9997 14.5193 14.8942 14.7068 14.7068C14.8942 14.5193 14.9997 14.2651 15 14V11C14.9997 10.7349 14.8942 10.4807 14.7068 10.2932C14.5193 10.1058 14.2651 10.0003 14 10ZM3.5 13C3.77614 13 4 12.7761 4 12.5C4 12.2239 3.77614 12 3.5 12C3.22386 12 3 12.2239 3 12.5C3 12.7761 3.22386 13 3.5 13Z" fill="black"/>
</svg>
