<svg width="16" height="16" viewBox="0 0 16 16" fill="none" xmlns="http://www.w3.org/2000/svg">
<path fill-rule="evenodd" clip-rule="evenodd" d="M5 5H9V1H5V5ZM8 4H6V2H8V4ZM15 4H11V7H8V11H12V8H15V4ZM11 10H9V8H11V10ZM14 7H12V5H14V7ZM13 10H14C14.2651 10.0003 14.5193 10.1058 14.7068 10.2932C14.8942 10.4807 14.9997 10.7349 15 11V14C14.9997 14.2651 14.8942 14.5193 14.7068 14.7068C14.5193 14.8942 14.2651 14.9997 14 15H2C1.73488 14.9997 1.4807 14.8942 1.29323 14.7068C1.10576 14.5193 1.0003 14.2651 1 14V11C1.0003 10.7349 1.10576 10.4807 1.29323 10.2932C1.4807 10.1058 1.73488 10.0003 2 10H7V11H2V14H14V11H13V10ZM4 12.5C4 12.7761 3.77614 13 3.5 13C3.22386 13 3 12.7761 3 12.5C3 12.2239 3.22386 12 3.5 12C3.77614 12 4 12.2239 4 12.5Z" fill="black"/>
</svg>
