<svg width="16" height="16" viewBox="0 0 16 16" fill="none" xmlns="http://www.w3.org/2000/svg">
<path fill-rule="evenodd" clip-rule="evenodd" d="M3.01118 12.3334C2.35189 11.3467 2 10.1867 2 9H3C3 9.98891 3.29324 10.9556 3.84265 11.7779C4.39206 12.6001 5.17295 13.241 6.08658 13.6194C7.00021 13.9978 8.00555 14.0969 8.97545 13.9039C9.94536 13.711 10.8363 13.2348 11.5355 12.5355C12.2348 11.8363 12.711 10.9454 12.9039 9.97545C13.0969 9.00555 12.9978 8.00021 12.6194 7.08658C12.241 6.17295 11.6001 5.39206 10.7779 4.84265C9.95561 4.29324 8.98891 4 8 4H6V6.5L3 3.5L6 0.5V3H8C9.18669 3 10.3467 3.35189 11.3334 4.01118C12.3201 4.67047 13.0892 5.60754 13.5433 6.7039C13.9974 7.80026 14.1162 9.00666 13.8847 10.1705C13.6532 11.3344 13.0818 12.4035 12.2426 13.2426C11.4035 14.0818 10.3344 14.6532 9.17054 14.8847C8.00666 15.1162 6.80026 14.9974 5.7039 14.5433C4.60754 14.0892 3.67047 13.3201 3.01118 12.3334ZM6.96699 11.5L7.83499 12L9.83399 8.5H7.88899L9.03099 6.5L8.16249 6L6.16599 9.5H8.11049L6.96699 11.5Z" fill="black"/>
</svg>
