<svg width="16" height="16" viewBox="0 0 16 16" fill="none" xmlns="http://www.w3.org/2000/svg">
<path fill-rule="evenodd" clip-rule="evenodd" d="M13.4721 3.47805L14.6524 5.52195C14.7679 5.72221 14.8105 5.95631 14.7729 6.18443C14.7353 6.41254 14.6198 6.62059 14.4462 6.7732L13.0462 8L12.3869 7.24805L13.7858 6.02195L12.6058 3.97805L10.8824 4.56105C10.4819 4.22355 10.026 3.95776 9.53501 3.7754L9.18001 2H6.82001L6.46471 3.7754C5.97024 3.95508 5.51098 4.2198 5.10766 4.5576L3.39431 3.97805L2.21376 6.02195L3.57291 7.21655C3.48202 7.73401 3.4832 8.26345 3.57641 8.7805L2.21421 9.97805L3.39421 12.0219L5.11761 11.4389C5.51815 11.7765 5.97398 12.0423 6.46501 12.2246L6.82001 14H8.00001V15H6.82001C6.58879 15 6.36471 14.9199 6.1859 14.7734C6.00708 14.6268 5.88459 14.4228 5.83926 14.196L5.58741 12.9368C5.36027 12.8256 5.14108 12.6989 4.93141 12.5576L3.71436 12.9692C3.49539 13.0435 3.25744 13.0395 3.04109 12.958C2.82473 12.8764 2.64338 12.7223 2.52796 12.5219L1.34766 10.4781C1.23211 10.2778 1.18948 10.0437 1.22703 9.81562C1.26457 9.58751 1.37998 9.37944 1.55361 9.2268L2.51391 8.3828C2.50501 8.25635 2.50001 8.1289 2.50001 8C2.50001 7.89242 2.50746 7.78675 2.51492 7.68097C2.51632 7.66119 2.51771 7.6414 2.51906 7.6216L1.55361 6.7732C1.37998 6.62056 1.26457 6.41249 1.22703 6.18438C1.18948 5.95626 1.23211 5.72219 1.34766 5.52195L2.52796 3.47805C2.64338 3.2777 2.82473 3.12359 3.04109 3.04202C3.25744 2.96045 3.49539 2.95647 3.71436 3.03075L4.92406 3.44C5.13622 3.29916 5.35794 3.17327 5.58761 3.06325L5.83946 1.80395C5.88478 1.57726 6.00725 1.37327 6.18602 1.22669C6.36479 1.08012 6.58883 1.00001 6.82001 1H9.18001C9.41122 0.999964 9.63531 1.08005 9.81412 1.22663C9.99293 1.37321 10.1154 1.57722 10.1608 1.80395L10.4126 3.06325C10.6397 3.17446 10.8589 3.30114 11.0686 3.4424L12.2857 3.03075C12.5046 2.95647 12.7426 2.96045 12.9589 3.04202C13.1753 3.12359 13.3566 3.2777 13.4721 3.47805ZM8.00001 10C7.73572 10.006 7.47297 9.95836 7.22761 9.85997C6.98225 9.76158 6.75937 9.61449 6.57245 9.42756C6.38552 9.24064 6.23843 9.01776 6.14004 8.7724C6.04165 8.52704 5.99402 8.26429 6.00001 8C5.99402 7.73572 6.04165 7.47296 6.14004 7.2276C6.23843 6.98224 6.38552 6.75937 6.57245 6.57244C6.75937 6.38552 6.98225 6.23842 7.22761 6.14003C7.47297 6.04164 7.73572 5.99401 8.00001 6C8.26429 5.99401 8.52705 6.04164 8.77241 6.14003C9.01777 6.23842 9.24064 6.38552 9.42757 6.57244C9.61449 6.75937 9.76159 6.98224 9.85998 7.2276C9.95837 7.47296 10.006 7.73572 10 8H11C11 7.40666 10.8241 6.82664 10.4944 6.33329C10.1648 5.83994 9.69624 5.45543 9.14806 5.22836C8.59988 5.0013 7.99668 4.94189 7.41474 5.05765C6.8328 5.1734 6.29825 5.45912 5.87869 5.87868C5.45913 6.29824 5.17341 6.83279 5.05765 7.41473C4.9419 7.99667 5.00131 8.59987 5.22837 9.14805C5.45543 9.69623 5.83995 10.1648 6.3333 10.4944C6.82665 10.8241 7.40666 11 8.00001 11V10ZM15 10H10V11H15V10ZM15 12H10V13H15V12ZM10 14H15V15H10V14Z" fill="black"/>
</svg>
