<svg width="16" height="16" viewBox="0 0 16 16" fill="none" xmlns="http://www.w3.org/2000/svg">
<path fill-rule="evenodd" clip-rule="evenodd" d="M13.049 8L14.4464 9.2268C14.62 9.37946 14.7354 9.58754 14.7729 9.81566C14.8104 10.0438 14.7677 10.2778 14.6522 10.4781L13.4719 12.5219C13.3564 12.7223 13.1751 12.8764 12.9587 12.958C12.7424 13.0395 12.5044 13.0435 12.2855 12.9692L11.0758 12.5601C10.8637 12.7009 10.642 12.8267 10.4124 12.9368L10.1606 14.196C10.1152 14.4227 9.99277 14.6267 9.814 14.7733C9.63522 14.9199 9.41119 15 9.18001 15H6.82001C6.58879 15 6.36471 14.9199 6.1859 14.7734C6.00708 14.6268 5.88459 14.4228 5.83926 14.196L5.58741 12.9368C5.36027 12.8256 5.14108 12.6989 4.93141 12.5576L3.71436 12.9692C3.49539 13.0435 3.25744 13.0395 3.04109 12.958C2.82473 12.8764 2.64338 12.7223 2.52796 12.5219L1.34766 10.4781C1.23211 10.2778 1.18948 10.0437 1.22703 9.81562C1.26457 9.58751 1.37998 9.37944 1.55361 9.2268L2.51391 8.3828C2.50501 8.25635 2.50001 8.1289 2.50001 8C2.50001 7.89242 2.50746 7.78675 2.51492 7.68097C2.51632 7.66119 2.51771 7.6414 2.51906 7.6216L1.55361 6.7732C1.37998 6.62056 1.26457 6.41249 1.22703 6.18438C1.18948 5.95626 1.23211 5.72219 1.34766 5.52195L2.52796 3.47805C2.64338 3.2777 2.82473 3.12359 3.04109 3.04202C3.25744 2.96045 3.49539 2.95647 3.71436 3.03075L4.92406 3.44C5.13622 3.29916 5.35794 3.17327 5.58761 3.06325L5.83946 1.80395C5.88478 1.57726 6.00725 1.37327 6.18602 1.22669C6.36479 1.08012 6.58883 1.00001 6.82001 1H8.00001V2H6.82001L6.46471 3.7754C5.97024 3.95508 5.51098 4.2198 5.10766 4.5576L3.39431 3.97805L2.21376 6.02195L3.57291 7.21655C3.48202 7.73401 3.4832 8.26345 3.57641 8.7805L2.21421 9.97805L3.39421 12.0219L5.11761 11.4389C5.51815 11.7765 5.97398 12.0423 6.46501 12.2246L6.82001 14H9.18001L9.53531 12.2246C10.0298 12.0449 10.4891 11.7802 10.8925 11.4424L12.6061 12.0219L13.7861 9.97805L12.39 8.7522L13.049 8ZM10 1V6H11V1H10ZM12 1V6H13V1H12ZM14 6V1H15V6H14ZM8.00001 10C7.73572 10.006 7.47297 9.95836 7.22761 9.85997C6.98225 9.76158 6.75937 9.61449 6.57245 9.42756C6.38552 9.24063 6.23843 9.01776 6.14004 8.7724C6.04165 8.52704 5.99402 8.26428 6.00001 8C5.99402 7.73572 6.04165 7.47296 6.14004 7.2276C6.23843 6.98224 6.38552 6.75937 6.57245 6.57244C6.75937 6.38552 6.98225 6.23842 7.22761 6.14003C7.47297 6.04164 7.73572 5.99401 8.00001 6V5C7.40666 5 6.82665 5.17595 6.3333 5.50559C5.83995 5.83524 5.45543 6.30377 5.22837 6.85195C5.00131 7.40013 4.9419 8.00333 5.05765 8.58527C5.17341 9.16721 5.45913 9.70176 5.87869 10.1213C6.29825 10.5409 6.8328 10.8266 7.41474 10.9424C7.99668 11.0581 8.59988 10.9987 9.14806 10.7716C9.69624 10.5446 10.1648 10.1601 10.4944 9.66671C10.8241 9.17336 11 8.59334 11 8H10C10.006 8.26428 9.95837 8.52704 9.85998 8.7724C9.76159 9.01776 9.61449 9.24063 9.42757 9.42756C9.24064 9.61449 9.01777 9.76158 8.77241 9.85997C8.52705 9.95836 8.26429 10.006 8.00001 10Z" fill="black"/>
</svg>
