<svg width="16" height="16" viewBox="0 0 16 16" fill="none" xmlns="http://www.w3.org/2000/svg">
<path fill-rule="evenodd" clip-rule="evenodd" d="M12 2H15V3L13.19 5H15V6H12V5L13.875 3H12V2ZM11.04 7L10 8.81C10.9112 9.33609 11.6681 10.0925 12.1946 11.0035C12.7212 11.9144 12.9989 12.9478 13 14H12C11.9991 13.1232 11.7676 12.262 11.3288 11.5029C10.89 10.7438 10.2593 10.1134 9.5 9.675L7.865 12.5C7.95313 12.6519 7.99969 12.8244 8 13C8 13.1978 7.94135 13.3911 7.83147 13.5556C7.72159 13.72 7.56541 13.8482 7.38268 13.9239C7.19996 13.9996 6.99889 14.0194 6.80491 13.9808C6.61093 13.9422 6.43275 13.847 6.29289 13.7071C6.15304 13.5673 6.0578 13.3891 6.01921 13.1951C5.98063 13.0011 6.00043 12.8 6.07612 12.6173C6.15181 12.4346 6.27998 12.2784 6.44443 12.1685C6.60888 12.0587 6.80222 12 7 12L8.58 9.26C7.82874 9.00978 7.02879 8.94157 6.246 9.06097C5.46322 9.18038 4.71999 9.484 4.0775 9.94683C3.43501 10.4097 2.91163 11.0185 2.55044 11.7231C2.18926 12.4278 2.0006 13.2082 2 14H1C1.00098 13.033 1.23567 12.0805 1.68409 11.2238C2.13251 10.367 2.78137 9.63134 3.5754 9.07941C4.36942 8.52747 5.28509 8.17562 6.2444 8.05385C7.20372 7.93207 8.17825 8.04396 9.085 8.38L10.175 6.5L11.04 7Z" fill="black"/>
</svg>
