<svg width="16" height="16" viewBox="0 0 16 16" fill="none" xmlns="http://www.w3.org/2000/svg">
<path fill-rule="evenodd" clip-rule="evenodd" d="M14.2929 1L15 1.70705L12.6118 4.095C12.8662 4.69799 12.9981 5.34555 13 6C13.033 6.72638 12.8931 7.45022 12.5919 8.11205C12.2908 8.77388 11.8369 9.35482 11.2676 9.80715C10.7632 10.275 10.5 10.5403 10.5 11H9.5C9.5 10.0806 10.0534 9.5674 10.5889 9.0713C11.0574 8.71388 11.4311 8.24695 11.6771 7.71147C11.9231 7.17599 12.034 6.58832 12 6C11.9992 5.61924 11.9421 5.24069 11.8303 4.8767L1.70705 15L1 14.2929L14.2929 1ZM4.3916 9.48729L5.10045 8.77829C4.72107 8.42685 4.42529 7.99485 4.23485 7.51405C4.04441 7.03326 3.96416 6.51589 4 5.99999C3.99907 5.21616 4.22875 4.44937 4.66043 3.79512C5.0921 3.14087 5.70671 2.62806 6.4277 2.32055C7.14869 2.01304 7.94421 1.92442 8.7152 2.06573C9.48619 2.20703 10.1986 2.57202 10.7636 3.11524L11.4705 2.40844C10.7656 1.72515 9.87508 1.26472 8.91007 1.0847C7.94506 0.904677 6.94839 1.01304 6.04462 1.39625C5.14085 1.77946 4.37005 2.42051 3.82855 3.23931C3.28705 4.05811 2.99886 5.01833 3 5.99999C2.96521 6.6474 3.07165 7.29464 3.31194 7.89682C3.55224 8.49899 3.92064 9.04169 4.3916 9.48729ZM6 12H10.5V13H6V12ZM6.5 14H9.5V15H6.5V14Z" fill="black"/>
</svg>
