<svg width="16" height="16" viewBox="0 0 16 16" fill="none" xmlns="http://www.w3.org/2000/svg">
<path fill-rule="evenodd" clip-rule="evenodd" d="M10.8328 2.00414C11.6339 2.65376 12.1873 3.55901 12.4004 4.56815V4.5679C13.1731 4.72502 13.8622 5.15799 14.339 5.78597C14.8158 6.41395 15.0478 7.19401 14.9916 7.98051C14.9354 8.767 14.5949 9.50616 14.0336 10.06C13.4724 10.6138 12.7287 10.9444 11.9415 10.9901L11.388 10.0001H11.75C12.1728 9.99887 12.5866 9.87748 12.943 9.65005L5.95569 2.66265C5.55228 2.95459 5.21559 3.32901 4.96799 3.76105L6.97479 5.76785L6.46789 6.67535L4.57789 4.78495C4.55834 4.8792 4.54114 4.9744 4.52929 5.0716L4.47974 5.4776L4.07199 5.50955C3.83692 5.53058 3.60676 5.58928 3.39034 5.6834L5.72034 8.0137L5.21384 8.92045L2.56534 6.27225C2.27797 6.59568 2.09041 6.99541 2.02533 7.42313C1.96025 7.85086 2.02044 8.28828 2.19861 8.68254C2.37678 9.0768 2.66532 9.41103 3.02935 9.64483C3.39339 9.87863 3.81734 10.002 4.24999 10.0001H4.61084L4.05774 10.9903C3.27057 10.9445 2.52699 10.6138 1.96582 10.0599C1.40465 9.50595 1.06426 8.76673 1.00822 7.98023C0.952169 7.19373 1.18429 6.41372 1.66125 5.78583C2.1382 5.15794 2.82737 4.72511 3.60009 4.56815C3.81315 3.55901 4.36661 2.65376 5.1677 2.00414C5.9688 1.35452 6.96885 1 8.00024 1C9.03163 1 10.0317 1.35452 10.8328 2.00414ZM13.65 8.94309L6.89114 2.18415C7.38246 2.01783 7.90471 1.96323 8.41981 2.02432C8.93492 2.08541 9.4299 2.26066 9.86869 2.53729C10.3075 2.81393 10.679 3.18498 10.9562 3.6234C11.2335 4.06183 11.4094 4.55658 11.4711 5.0716L11.5204 5.4776L11.9281 5.50955C12.4911 5.55624 13.0162 5.81221 13.3997 6.22697C13.7832 6.64172 13.9974 7.18515 14 7.75005C13.9988 8.17287 13.8774 8.58663 13.65 8.94309ZM8.41589 7.2439L12.4542 14.47C12.4845 14.5242 12.5002 14.5854 12.4996 14.6475C12.4989 14.7096 12.4821 14.7705 12.4506 14.8241C12.4192 14.8777 12.3743 14.9221 12.3204 14.9529C12.2665 14.9838 12.2055 15 12.1433 15H3.85669C3.79457 15 3.73353 14.9838 3.67962 14.9529C3.62571 14.9221 3.58081 14.8777 3.54939 14.8241C3.51796 14.7705 3.50109 14.7096 3.50046 14.6475C3.49983 14.5854 3.51545 14.5242 3.54579 14.47L7.58409 7.2439C7.62546 7.16993 7.68581 7.10834 7.75892 7.06547C7.83202 7.0226 7.91524 7 7.99999 7C8.08474 7 8.16795 7.0226 8.24106 7.06547C8.31416 7.10834 8.37451 7.16993 8.41589 7.2439ZM8.43749 12.25V9.5H7.56249V12.25H8.43749ZM7.7222 13.9157C7.80443 13.9707 7.9011 14 7.99999 14C8.1326 14 8.25977 13.9473 8.35354 13.8536C8.44731 13.7598 8.49999 13.6326 8.49999 13.5C8.49999 13.4011 8.47066 13.3044 8.41572 13.2222C8.36078 13.14 8.28269 13.0759 8.19133 13.0381C8.09997 13.0002 7.99943 12.9903 7.90244 13.0096C7.80545 13.0289 7.71636 13.0765 7.64643 13.1464C7.57651 13.2164 7.52889 13.3055 7.5096 13.4025C7.4903 13.4994 7.5002 13.6 7.53805 13.6913C7.57589 13.7827 7.63998 13.8608 7.7222 13.9157Z" fill="black"/>
</svg>
