<svg width="16" height="16" viewBox="0 0 16 16" fill="none" xmlns="http://www.w3.org/2000/svg">
<path fill-rule="evenodd" clip-rule="evenodd" d="M9.35 1.14993L12.85 4.64993C12.8989 4.69393 12.9376 4.74801 12.9635 4.80844C12.9894 4.86887 13.0018 4.93421 13 4.99993V13.9999C12.9992 14.2649 12.8936 14.5188 12.7062 14.7062C12.5189 14.8935 12.265 14.9992 12 14.9999H4C3.73502 14.9992 3.48112 14.8935 3.29375 14.7062C3.10638 14.5188 3.00078 14.2649 3 13.9999V1.99993C3.00078 1.73496 3.10638 1.48105 3.29375 1.29369C3.48112 1.10632 3.73502 1.00071 4 0.999933H9C9.06572 0.998095 9.13106 1.01056 9.19149 1.03646C9.25192 1.06236 9.30601 1.10107 9.35 1.14993ZM11.8 4.99993L9 2.19993V4.99993H11.8ZM4 13.9999H12V5.99993H9C8.73502 5.99916 8.48112 5.89355 8.29375 5.70618C8.10638 5.51881 8.00078 5.26491 8 4.99993V1.99993H4V13.9999ZM8 13H11V12H9V11H11V8H8V9H10V10H8V13Z" fill="black"/>
</svg>
