<svg width="16" height="16" viewBox="0 0 16 16" fill="none" xmlns="http://www.w3.org/2000/svg">
<path fill-rule="evenodd" clip-rule="evenodd" d="M4 1.99993V7.99993H3V1.99993C3.00077 1.73495 3.10637 1.48104 3.29374 1.29367C3.48111 1.1063 3.73502 1.00069 4 0.999928H9C9.06572 0.99812 9.13105 1.01059 9.19147 1.03649C9.2519 1.06239 9.30599 1.10109 9.35 1.14993L12.85 4.64993C12.8988 4.69395 12.9375 4.74804 12.9634 4.80847C12.9893 4.86889 13.0018 4.93421 13 4.99993V7.99993H12V5.99993H9C8.73502 5.99916 8.48111 5.89356 8.29374 5.70619C8.10637 5.51882 8.00077 5.26491 8 4.99993V1.99993H4ZM11.8 4.99993L9 2.19993V4.99993H11.8ZM1 9H3V10H1V9ZM13 9H15V10H13V9ZM12 11V14H4V11H3V14C3.00077 14.265 3.10637 14.5189 3.29374 14.7063C3.48111 14.8936 3.73502 14.9992 4 15H12C12.265 14.9992 12.5189 14.8936 12.7063 14.7063C12.8936 14.5189 12.9992 14.265 13 14V11H12ZM7 9H5V10H7V9ZM9 9H11V10H9V9Z" fill="black"/>
</svg>
