<svg width="16" height="16" viewBox="0 0 16 16" fill="none" xmlns="http://www.w3.org/2000/svg">
<g clip-path="url(#clip0_3_11697)">
<path d="M14.415 11.585L11.5 8.66503V6.50003C11.5004 6.43423 11.4878 6.369 11.4629 6.30808C11.438 6.24716 11.4013 6.19175 11.355 6.14503L6.355 1.14503C6.30852 1.09817 6.25322 1.06097 6.19229 1.03558C6.13136 1.0102 6.06601 0.997131 6 0.997131C5.93399 0.997131 5.86864 1.0102 5.80771 1.03558C5.74678 1.06097 5.69148 1.09817 5.645 1.14503L1.145 5.64503C1.09814 5.69151 1.06094 5.74681 1.03555 5.80774C1.01017 5.86867 0.997101 5.93402 0.997101 6.00003C0.997101 6.06604 1.01017 6.13139 1.03555 6.19232C1.06094 6.25325 1.09814 6.30855 1.145 6.35503L6.145 11.355C6.19172 11.4014 6.24713 11.438 6.30805 11.4629C6.36897 11.4878 6.4342 11.5004 6.5 11.5H8.67L11.585 14.42C11.9603 14.7953 12.4693 15.0061 13 15.0061C13.5307 15.0061 14.0397 14.7953 14.415 14.42C14.7903 14.0447 15.0011 13.5358 15.0011 13.005C15.0011 12.4743 14.7903 11.9653 14.415 11.59V11.585ZM3 5.20503L4.145 6.35503L4.855 5.64503L3.705 4.50003L4.5 3.70503L6.645 5.85503L7.355 5.14503L5.205 3.00003L6 2.20503L9.295 5.50003L5.5 9.29503L2.205 6.00003L3 5.20503ZM13.705 13.705C13.5176 13.8913 13.2642 13.9958 13 13.9958C12.7358 13.9958 12.4824 13.8913 12.295 13.705L9.23 10.645C9.12346 10.5718 9.00238 10.5223 8.875 10.5H6.705L6.205 10L10 6.20503L10.5 6.70503V8.87503C10.5006 9.0062 10.5526 9.1319 10.645 9.22503L13.705 12.295C13.8913 12.4824 13.9958 12.7358 13.9958 13C13.9958 13.2642 13.8913 13.5177 13.705 13.705Z" fill="black"/>
</g>
<defs>
<clipPath id="clip0_3_11697">
<rect width="16" height="16" fill="white"/>
</clipPath>
</defs>
</svg>
