<svg width="16" height="16" viewBox="0 0 16 16" fill="none" xmlns="http://www.w3.org/2000/svg">
<path d="M14.4141 1.58599C14.0332 1.22214 13.5267 1.0191 13 1.0191C12.4733 1.0191 11.9668 1.22214 11.586 1.58599L2.02501 11.146C1.69903 11.4703 1.44059 11.8559 1.26465 12.2807C1.08871 12.7054 0.998764 13.1609 1.00001 13.6206V15H2.37796C2.8378 15.0014 3.29332 14.9115 3.71817 14.7355C4.14301 14.5596 4.52872 14.3011 4.85296 13.975L14.4141 4.41434C14.5998 4.22866 14.7472 4.0082 14.8477 3.76555C14.9483 3.5229 15 3.26282 15 3.00017C15 2.73751 14.9483 2.47744 14.8477 2.23479C14.7472 1.99214 14.5998 1.77168 14.4141 1.58599ZM5.45501 9.13004L6.86931 10.5443L5.80861 11.605L4.39431 10.1909L5.45501 9.13004ZM4.14576 13.2678C3.91416 13.5007 3.63866 13.6854 3.33522 13.811C3.03177 13.9367 2.70641 14.001 2.37796 14H2.00001V13.6206C1.99914 13.2922 2.0634 12.9669 2.18908 12.6635C2.31476 12.3601 2.49937 12.0847 2.73221 11.8531L3.68721 10.8981L5.10151 12.3121L4.14576 13.2678ZM13.7071 3.70709L7.57641 9.83744L6.16211 8.42314L12.293 2.29314C12.4834 2.11123 12.7366 2.00972 13 2.00972C13.2634 2.00972 13.5166 2.11123 13.7071 2.29314C13.7999 2.38598 13.8736 2.49621 13.9239 2.61753C13.9741 2.73884 14 2.86888 14 3.00019C14 3.13151 13.9741 3.26154 13.9239 3.38286C13.8736 3.50418 13.7999 3.6144 13.7071 3.70724V3.70709Z" fill="black"/>
</svg>
