<svg width="16" height="16" viewBox="0 0 16 16" fill="none" xmlns="http://www.w3.org/2000/svg">
<path fill-rule="evenodd" clip-rule="evenodd" d="M7.5 0.5H8.5V2.5H7.5V0.5ZM13 2.29335L11.5 3.79333L12.207 4.50037L13.707 3.00039L13 2.29335ZM15.5 7.5H13.5V8.5H15.5V7.5ZM3.79295 11.5004L2.29296 13.0004L3 13.7074L4.49998 12.2074L3.79295 11.5004ZM2.29298 3.00037L3.00001 2.29333L4.5 3.79332L3.79296 4.50035L2.29298 3.00037ZM2.5 7.5H0.5V8.5H2.5V7.5ZM12.4629 8.53738C12.9183 8.98582 13.2415 9.55099 13.3969 10.1709C13.9419 10.3799 14.3965 10.7732 14.6817 11.2825C14.9669 11.7918 15.0646 12.3849 14.9581 12.9587C14.8515 13.5326 14.5472 14.051 14.0982 14.4239C13.6492 14.7968 13.0837 15.0007 12.5 15H7.5C7.08588 15.0019 6.67782 14.9005 6.31283 14.7048C5.94783 14.5092 5.63744 14.2255 5.40977 13.8796C5.1821 13.5337 5.04437 13.1364 5.00905 12.7238C4.97373 12.3111 5.04194 11.8962 5.2075 11.5166C4.60948 11.0434 4.14155 10.4259 3.84764 9.7222C3.55372 9.01849 3.44348 8.25163 3.52725 7.49362C3.61102 6.73561 3.88605 6.01133 4.32653 5.38878C4.76701 4.76623 5.35849 4.26583 6.04541 3.93458C6.73234 3.60333 7.49218 3.45209 8.25359 3.49507C9.015 3.53804 9.753 3.77381 10.3983 4.18025C11.0436 4.58669 11.575 5.15046 11.9426 5.81862C12.3103 6.48678 12.5021 7.23742 12.5 8.00003C12.499 8.17976 12.4866 8.35923 12.4629 8.53738ZM5.49751 5.55158C4.85748 6.20579 4.49936 7.08481 4.5 8.00003C4.50058 8.51607 4.61579 9.02554 4.83731 9.49162C5.05883 9.95769 5.38112 10.3687 5.7809 10.695C6.01771 10.468 6.29702 10.2899 6.6028 10.1709C6.79157 9.41144 7.22806 8.7365 7.84329 8.25281C8.45852 7.76911 9.21741 7.50423 10 7.50003C10.5176 7.50359 11.0277 7.62375 11.4925 7.85158C11.4542 6.93716 11.0591 6.07413 10.3919 5.44767C9.72471 4.8212 8.83853 4.48121 7.92351 4.50064C7.00849 4.52007 6.13754 4.89736 5.49751 5.55158ZM7.5 14H12.5C12.8674 14.001 13.2223 13.8668 13.4972 13.623C13.7721 13.3792 13.9477 13.0429 13.9907 12.678C14.0337 12.3131 13.9411 11.9452 13.7304 11.6442C13.5197 11.3432 13.2057 11.1302 12.8482 11.0457L12.5188 10.9671L12.4695 10.6323C12.3822 10.0397 12.0847 9.4983 11.6314 9.10683C11.178 8.71536 10.599 8.49996 10 8.49996C9.40101 8.49996 8.822 8.71536 8.36863 9.10683C7.91527 9.4983 7.61779 10.0397 7.5305 10.6323L7.4812 10.9673L7.15185 11.0459C6.79454 11.1307 6.48083 11.3437 6.27037 11.6447C6.05991 11.9456 5.96737 12.3133 6.01035 12.678C6.05333 13.0427 6.22883 13.3789 6.50348 13.6226C6.77814 13.8664 7.13279 14.0007 7.5 14Z" fill="black"/>
</svg>
