<svg width="16" height="16" viewBox="0 0 16 16" fill="none" xmlns="http://www.w3.org/2000/svg">
<path fill-rule="evenodd" clip-rule="evenodd" d="M15 1V2C14.9992 2.44237 14.8514 2.87193 14.5799 3.22116C14.3084 3.57039 13.9285 3.81949 13.5 3.9293V5.5H14.5V6.5H11.5V5.5H12.5V3.9293C12.0715 3.81949 11.6916 3.57039 11.4201 3.22116C11.1486 2.87193 11.0008 2.44237 11 2V1H15ZM4.27775 4.20507C4.56553 4.39737 4.90388 4.5 5.25 4.5C5.71395 4.49945 6.15875 4.31489 6.48682 3.98682C6.81489 3.65876 6.99944 3.21396 7 2.75C7 2.40388 6.89736 2.06554 6.70507 1.77775C6.51278 1.48997 6.23946 1.26566 5.91969 1.13321C5.59992 1.00076 5.24806 0.966102 4.90859 1.03363C4.56912 1.10115 4.2573 1.26782 4.01256 1.51256C3.76782 1.75731 3.60115 2.06913 3.53362 2.40859C3.4661 2.74806 3.50075 3.09993 3.63321 3.4197C3.76566 3.73947 3.98996 4.01278 4.27775 4.20507ZM4.83332 2.1264C4.95666 2.04399 5.10166 2 5.25 2C5.44884 2.00023 5.63947 2.07932 5.78008 2.21992C5.92068 2.36052 5.99977 2.55116 6 2.75C6 2.89834 5.95601 3.04334 5.8736 3.16668C5.79119 3.29002 5.67405 3.38615 5.53701 3.44291C5.39996 3.49968 5.24916 3.51453 5.10368 3.48559C4.95819 3.45665 4.82456 3.38522 4.71967 3.28033C4.61478 3.17544 4.54335 3.0418 4.51441 2.89632C4.48547 2.75083 4.50032 2.60003 4.55709 2.46299C4.61385 2.32594 4.70998 2.20881 4.83332 2.1264ZM11.2373 15.6565L9.67039 12H6.11965C5.67892 11.9995 5.25065 11.8537 4.90117 11.5852C4.55169 11.3166 4.3005 10.9404 4.1865 10.5147L3.36965 7.45166C3.23643 6.95212 3.30711 6.42011 3.56614 5.97268C3.82517 5.52525 4.25133 5.19905 4.75087 5.06583C5.25041 4.93261 5.78241 5.00329 6.22984 5.26232C6.67727 5.52135 7.00348 5.94752 7.1367 6.44706L7.5508 8.00001H10.5V9.00001H6.78225L6.1709 6.70461C6.10193 6.46578 5.94211 6.26349 5.72571 6.14115C5.50931 6.01882 5.25357 5.98617 5.01338 6.05023C4.77319 6.11429 4.56767 6.26994 4.44093 6.48379C4.31419 6.69764 4.27632 6.95265 4.33545 7.19411L5.15235 10.2569C5.20941 10.4699 5.33511 10.6581 5.50998 10.7925C5.68485 10.9268 5.89913 10.9998 6.11965 11H10.3296L12.1568 15.2627L11.2373 15.6565ZM3.88415 14H9V13H3.88415L1.98315 5.87122L1.01685 6.12882L2.91785 13.2576C2.97479 13.4704 3.10034 13.6585 3.27504 13.7927C3.44974 13.927 3.66383 13.9998 3.88415 14Z" fill="black"/>
</svg>
