<svg width="16" height="16" viewBox="0 0 16 16" fill="none" xmlns="http://www.w3.org/2000/svg">
<path fill-rule="evenodd" clip-rule="evenodd" d="M15 3H13V1H12V3H10V4H12V6H13V4H15V3ZM4.27775 4.20507C4.56553 4.39737 4.90388 4.5 5.25 4.5C5.71395 4.49945 6.15875 4.31489 6.48682 3.98682C6.81489 3.65876 6.99944 3.21396 7 2.75C7 2.40388 6.89736 2.06554 6.70507 1.77775C6.51278 1.48997 6.23946 1.26566 5.91969 1.13321C5.59992 1.00076 5.24806 0.966102 4.90859 1.03363C4.56912 1.10115 4.2573 1.26782 4.01256 1.51256C3.76782 1.75731 3.60115 2.06913 3.53362 2.40859C3.4661 2.74806 3.50075 3.09993 3.63321 3.4197C3.76566 3.73947 3.98996 4.01278 4.27775 4.20507ZM4.83332 2.1264C4.95666 2.04399 5.10166 2 5.25 2C5.44884 2.00023 5.63947 2.07932 5.78008 2.21992C5.92068 2.36052 5.99977 2.55116 6 2.75C6 2.89834 5.95601 3.04334 5.8736 3.16668C5.79119 3.29002 5.67405 3.38615 5.53701 3.44291C5.39996 3.49968 5.24916 3.51453 5.10368 3.48559C4.95819 3.45665 4.82456 3.38522 4.71967 3.28033C4.61478 3.17544 4.54335 3.0418 4.51441 2.89632C4.48547 2.75083 4.50032 2.60003 4.55709 2.46299C4.61385 2.32594 4.70998 2.20881 4.83332 2.1264ZM9.67 11.9999L11.2369 15.6564L12.1564 15.2626L10.3292 10.9999H6.11925C5.89874 10.9997 5.68446 10.9267 5.5096 10.7924C5.33474 10.658 5.20905 10.4698 5.152 10.2568L4.3351 7.19404C4.27597 6.95259 4.31384 6.69758 4.44058 6.48373C4.56733 6.26988 4.77284 6.11422 5.01303 6.05017C5.25323 5.98611 5.50896 6.01875 5.72536 6.14109C5.94176 6.26343 6.10159 6.46571 6.17055 6.70454L6.78185 8.99994H10.5V7.99994H7.5504L7.13635 6.44699C7.00108 5.94973 6.67442 5.52626 6.2278 5.26918C5.78117 5.0121 5.25092 4.94232 4.753 5.07511C4.25507 5.20789 3.82998 5.53244 3.57067 5.97778C3.31137 6.42311 3.23895 6.95301 3.36925 7.45159L4.18615 10.5146C4.30014 10.9403 4.55133 11.3166 4.9008 11.5851C5.25027 11.8536 5.67853 11.9994 6.11925 11.9999H9.67ZM3.8838 14H9V13H3.8838L1.98279 5.87122L1.01649 6.12882L2.9175 13.2576C2.97444 13.4704 3.09999 13.6585 3.27469 13.7927C3.44939 13.927 3.66348 13.9998 3.8838 14Z" fill="black"/>
</svg>
