<svg width="16" height="16" viewBox="0 0 16 16" fill="none" xmlns="http://www.w3.org/2000/svg">
<path fill-rule="evenodd" clip-rule="evenodd" d="M5.28496 1.55071C6.14391 1.18701 7.06722 0.999726 8 1C9.38447 1 10.7378 1.41054 11.889 2.17971C13.0401 2.94888 13.9373 4.04213 14.4672 5.32122C14.997 6.6003 15.1356 8.00777 14.8655 9.36563C14.5954 10.7235 13.9287 11.9708 12.9497 12.9497C11.9708 13.9287 10.7235 14.5954 9.36563 14.8655C8.00776 15.1356 6.6003 14.997 5.32122 14.4672C4.04213 13.9373 2.94888 13.0401 2.17971 11.889C1.41054 10.7378 1 9.38447 1 8H2C1.99787 9.39986 2.48603 10.7563 3.37971 11.8337C4.27339 12.9112 5.51617 13.6417 6.8923 13.8984C8.26842 14.1551 9.69099 13.9218 10.913 13.239C12.1351 12.5562 13.0794 11.467 13.5822 10.1605C14.0849 8.85407 14.1142 7.41279 13.6651 6.08694C13.2159 4.76109 12.3167 3.63438 11.1234 2.90242C9.93017 2.17046 8.51827 1.87947 7.13284 2.07997C5.74741 2.28046 4.47593 2.95979 3.53915 4H6V5H2V1H3V3.11715C3.64895 2.44712 4.42601 1.91442 5.28496 1.55071ZM7 5.5H6V11H7V5.5ZM10 5.5H9V11H10V5.5Z" fill="black"/>
</svg>
