<svg width="16" height="16" viewBox="0 0 16 16" fill="none" xmlns="http://www.w3.org/2000/svg">
<g clip-path="url(#clip0_3_11647)">
<path fill-rule="evenodd" clip-rule="evenodd" d="M15.4239 8.38266C15.3736 8.50397 15.2999 8.6142 15.2071 8.70704L12.3137 11.6003L13.764 13.0317C13.9775 12.9791 14.2023 12.9983 14.4037 13.0865C14.6051 13.1746 14.7718 13.3267 14.878 13.5192C14.9842 13.7117 15.0239 13.9339 14.991 14.1513C14.958 14.3686 14.8543 14.5691 14.6959 14.7215C14.5375 14.874 14.3332 14.9699 14.1147 14.9944C13.8963 15.019 13.6758 14.9708 13.4875 14.8573C13.2992 14.7438 13.1536 14.5713 13.0733 14.3667C12.993 14.162 12.9824 13.9366 13.0432 13.7253L11.6066 12.3076L8.70716 15.207C8.61432 15.2999 8.50409 15.3736 8.38277 15.4238C8.26146 15.4741 8.13143 15.5 8.00011 15.5C7.86879 15.5 7.73876 15.4741 7.61744 15.4238C7.49613 15.3736 7.3859 15.2999 7.29306 15.207L4.39976 12.3137L2.96851 13.7641C3.02108 13.9776 3.00179 14.2024 2.91362 14.4037C2.82544 14.6051 2.67332 14.7717 2.48082 14.8778C2.28832 14.9839 2.06619 15.0236 1.84887 14.9906C1.63155 14.9576 1.43117 14.8539 1.27879 14.6955C1.1264 14.5371 1.03053 14.3328 1.00603 14.1144C0.981523 13.896 1.02976 13.6755 1.14325 13.4873C1.25674 13.2991 1.42916 13.1535 1.63378 13.0732C1.83839 12.9929 2.06378 12.9824 2.27501 13.0432L3.69241 11.6064L0.792959 8.70704C0.700088 8.6142 0.626416 8.50397 0.576153 8.38266C0.52589 8.26134 0.500019 8.13131 0.500019 7.99999C0.500019 7.86867 0.52589 7.73864 0.576153 7.61732C0.626416 7.49601 0.700088 7.38578 0.792959 7.29294L3.69251 4.39354L2.27501 2.95679C2.06331 3.01805 1.8373 3.00774 1.63206 2.92744C1.42682 2.84715 1.25381 2.70136 1.13988 2.51271C1.02595 2.32405 0.977467 2.10307 1.00195 1.88404C1.02643 1.66501 1.12252 1.46019 1.27529 1.30135C1.42806 1.1425 1.62899 1.03852 1.8469 1.00552C2.0648 0.972529 2.28751 1.01237 2.48046 1.11887C2.67341 1.22536 2.82582 1.39256 2.91405 1.59452C3.00227 1.79648 3.02138 2.02191 2.96841 2.23584L4.39966 3.68629L7.29296 0.79294C7.3858 0.700069 7.49603 0.626397 7.61734 0.576134C7.73866 0.525871 7.86869 0.5 8.00001 0.5C8.13133 0.5 8.26136 0.525871 8.38268 0.576134C8.50399 0.626397 8.61422 0.700069 8.70706 0.79294L11.6065 3.69239L13.0431 2.27464C12.9819 2.06294 12.9923 1.83697 13.0727 1.63178C13.153 1.42659 13.2988 1.25365 13.4875 1.13979C13.6761 1.02593 13.8971 0.97751 14.1161 1.00205C14.3351 1.02659 14.5399 1.12271 14.6987 1.2755C14.8574 1.4283 14.9614 1.62922 14.9943 1.84711C15.0272 2.06499 14.9874 2.28766 14.8808 2.48056C14.7743 2.67347 14.6071 2.82582 14.4052 2.914C14.2032 3.00218 13.9778 3.02124 13.7639 2.96824L12.3136 4.39964L15.2071 7.29294C15.2999 7.38578 15.3736 7.49601 15.4239 7.61732C15.4741 7.73864 15.5 7.86867 15.5 7.99999C15.5 8.13131 15.4741 8.26134 15.4239 8.38266ZM1.50001 7.99999L8.00001 14.5L14.5 7.99999L8.00001 1.49999L1.50001 7.99999ZM6 4.5H10V5.5L7 10.5H10V11.5H6V10.5L9 5.5H6V4.5Z" fill="black"/>
</g>
<defs>
<clipPath id="clip0_3_11647">
<rect width="16" height="16" fill="white"/>
</clipPath>
</defs>
</svg>
