<svg width="16" height="16" viewBox="0 0 16 16" fill="none" xmlns="http://www.w3.org/2000/svg">
<path fill-rule="evenodd" clip-rule="evenodd" d="M12 8H11V1H15V2H12V4H14.5V5H12V8ZM2 11V10H6V14H5V11.707L1.707 15L1 14.293L4.293 11H2ZM8 1H6V8H8C8.53043 8 9.03914 7.78929 9.41421 7.41421C9.78929 7.03914 10 6.53043 10 6V3C10 2.46957 9.78929 1.96086 9.41421 1.58579C9.03914 1.21071 8.53043 1 8 1ZM9 6C9 6.26522 8.89464 6.51957 8.70711 6.70711C8.51957 6.89464 8.26522 7 8 7H7V2H8C8.26522 2 8.51957 2.10536 8.70711 2.29289C8.89464 2.48043 9 2.73478 9 3V6ZM1 1H4C4.26522 1 4.51957 1.10536 4.70711 1.29289C4.89464 1.48043 5 1.73478 5 2V4.5C5 4.76522 4.89464 5.01957 4.70711 5.20711C4.51957 5.39464 4.26522 5.5 4 5.5H2V8H1V1ZM2 4.5H4V2H2V4.5Z" fill="black"/>
</svg>
