<svg width="16" height="16" viewBox="0 0 16 16" fill="none" xmlns="http://www.w3.org/2000/svg">
<path fill-rule="evenodd" clip-rule="evenodd" d="M4 4.5H1V11.5H2V9H4C4.26522 9 4.51957 8.89464 4.70711 8.70711C4.89464 8.51957 5 8.26522 5 8V5.5C5 5.23478 4.89464 4.98043 4.70711 4.79289C4.51957 4.60536 4.26522 4.5 4 4.5ZM4 8H2V5.5H4V8ZM15 5.5V4.5H11V11.5H12V8.5H14.5V7.5H12V5.5H15ZM6 11.5H8C8.53043 11.5 9.03914 11.2893 9.41421 10.9142C9.78929 10.5391 10 10.0304 10 9.5V6.5C10 5.96957 9.78929 5.46086 9.41421 5.08579C9.03914 4.71071 8.53043 4.5 8 4.5H6V11.5ZM8 10.5H7V5.5H8C8.26522 5.5 8.51957 5.60536 8.70711 5.79289C8.89464 5.98043 9 6.23478 9 6.5V9.5C9 9.76522 8.89464 10.0196 8.70711 10.2071C8.51957 10.3946 8.26522 10.5 8 10.5Z" fill="black"/>
</svg>
