<svg width="16" height="16" viewBox="0 0 16 16" fill="none" xmlns="http://www.w3.org/2000/svg">
<path fill-rule="evenodd" clip-rule="evenodd" d="M7.27775 3.70507C7.56554 3.89736 7.90388 4 8.25 4C8.71396 3.99944 9.15876 3.81489 9.48682 3.48682C9.81489 3.15876 9.99945 2.71396 10 2.25C10 1.90388 9.89737 1.56554 9.70507 1.27775C9.51278 0.989967 9.23947 0.765665 8.9197 0.633212C8.59993 0.500758 8.24806 0.466102 7.90859 0.533627C7.56913 0.601151 7.25731 0.767822 7.01256 1.01256C6.76782 1.25731 6.60115 1.56913 6.53363 1.90859C6.4661 2.24806 6.50076 2.59993 6.63321 2.9197C6.76567 3.23947 6.98997 3.51278 7.27775 3.70507ZM7.83332 1.6264C7.95666 1.54399 8.10167 1.5 8.25 1.5C8.44884 1.50023 8.63948 1.57932 8.78008 1.71992C8.92069 1.86052 8.99978 2.05116 9 2.25C9 2.39834 8.95601 2.54334 8.8736 2.66668C8.79119 2.79002 8.67406 2.88614 8.53701 2.94291C8.39997 2.99968 8.24917 3.01453 8.10368 2.98559C7.9582 2.95665 7.82456 2.88522 7.71967 2.78033C7.61478 2.67544 7.54335 2.5418 7.51441 2.39632C7.48547 2.25083 7.50033 2.10003 7.55709 1.96299C7.61386 1.82594 7.70999 1.70881 7.83332 1.6264ZM10.8386 7.00001L10.2158 5.44286C10.1052 5.16396 9.91323 4.92483 9.66479 4.75665C9.41635 4.58847 9.12301 4.49904 8.823 4.50001H6.7771C6.50516 4.50004 6.23834 4.57396 6.00515 4.71386L3.5 6.21681V9.00001H4.5V6.78321L6 5.88321V11.8487L4.26915 14.4453L5.1012 15L7 12.1514V5.50001H8.823C8.923 5.4997 9.02077 5.52954 9.10356 5.58563C9.18635 5.64173 9.25031 5.72147 9.2871 5.81446L10.1614 8.00001H13V7.00001H10.8386ZM8.5255 9.15804L9.5 12.081V15H10.5V11.919L9.4745 8.84204L8.5255 9.15804Z" fill="black"/>
</svg>
