<svg width="16" height="16" viewBox="0 0 16 16" fill="none" xmlns="http://www.w3.org/2000/svg">
<path d="M14.8535 2.64646L13.3535 1.14646C13.3071 1.10001 13.252 1.06316 13.1913 1.03802C13.1307 1.01288 13.0657 0.999939 13 0.999939C12.9343 0.999939 12.8693 1.01288 12.8087 1.03802C12.748 1.06316 12.6929 1.10001 12.6465 1.14646L9.79295 3.99996H8.54735C7.40723 4.00084 6.29549 4.35564 5.36563 5.01537C4.43577 5.6751 3.73365 6.60723 3.3562 7.68306L1.0281 14.335C0.997034 14.4238 0.991674 14.5196 1.01264 14.6114C1.0336 14.7031 1.08003 14.7871 1.14659 14.8536C1.21316 14.9202 1.29715 14.9666 1.38891 14.9875C1.48067 15.0084 1.57647 15.003 1.6653 14.9719L8.31715 12.6438C9.39293 12.2663 10.325 11.5641 10.9847 10.6343C11.6444 9.70442 11.9991 8.59271 12 7.45261V6.20701L14.8535 3.35346C14.8999 3.30705 14.9368 3.25194 14.9619 3.19129C14.9871 3.13063 15 3.06562 15 2.99996C15 2.9343 14.9871 2.86928 14.9619 2.80863C14.9368 2.74797 14.8999 2.69286 14.8535 2.64646ZM11.1465 5.64646C11.0527 5.7402 11 5.86736 11 5.99996V7.45261C10.9993 8.38544 10.709 9.29504 10.1692 10.0558C9.62941 10.8166 8.86677 11.3911 7.98655 11.7L3.4027 13.3045L8 8.70701L7.29295 7.99996L2.6957 12.5974L4.3 8.01341C4.60885 7.13319 5.18332 6.37055 5.94412 5.83077C6.70492 5.29099 7.61452 5.0007 8.54735 4.99996H10C10.1326 4.99993 10.2598 4.94723 10.3535 4.85346L13 2.20701L13.7929 2.99996L11.1465 5.64646Z" fill="black"/>
</svg>
