<svg width="16" height="16" viewBox="0 0 16 16" fill="none" xmlns="http://www.w3.org/2000/svg">
<path fill-rule="evenodd" clip-rule="evenodd" d="M4.50001 7C4.00555 7 3.5222 6.85338 3.11108 6.57867C2.69996 6.30397 2.37953 5.91352 2.19031 5.45671C2.00109 4.99989 1.95158 4.49723 2.04804 4.01228C2.1445 3.52732 2.38261 3.08187 2.73224 2.73223C3.08187 2.3826 3.52733 2.1445 4.01228 2.04804C4.49723 1.95157 4.9999 2.00108 5.45671 2.1903C5.91353 2.37952 6.30398 2.69995 6.57868 3.11108C6.85338 3.5222 7 4.00555 7 4.5C6.99928 5.16282 6.73565 5.79828 6.26697 6.26696C5.79828 6.73565 5.16282 6.99927 4.50001 7ZM13.293 2.00002L2 13.293L2.70704 14L14 2.70705L13.293 2.00002ZM10.1111 13.5787C10.5222 13.8534 11.0056 14 11.5 14C12.1628 13.9993 12.7983 13.7356 13.267 13.267C13.7357 12.7983 13.9993 12.1628 14 11.5C14 11.0055 13.8534 10.5222 13.5787 10.1111C13.304 9.69995 12.9135 9.37952 12.4567 9.1903C11.9999 9.00108 11.4972 8.95157 11.0123 9.04804C10.5273 9.1445 10.0819 9.3826 9.73224 9.73223C9.38261 10.0819 9.14451 10.5273 9.04804 11.0123C8.95158 11.4972 9.00109 11.9999 9.19031 12.4567C9.37953 12.9135 9.69996 13.304 10.1111 13.5787Z" fill="black"/>
</svg>
