<svg width="16" height="16" viewBox="0 0 16 16" fill="none" xmlns="http://www.w3.org/2000/svg">
<path fill-rule="evenodd" clip-rule="evenodd" d="M4 5C3.60444 5 3.21776 4.8827 2.88886 4.66294C2.55997 4.44318 2.30362 4.13082 2.15225 3.76537C2.00087 3.39992 1.96126 2.99778 2.03843 2.60982C2.1156 2.22186 2.30609 1.86549 2.58579 1.58579C2.8655 1.30608 3.22186 1.1156 3.60982 1.03843C3.99779 0.96126 4.39992 1.00087 4.76537 1.15224C5.13082 1.30362 5.44318 1.55996 5.66294 1.88886C5.88271 2.21776 6 2.60444 6 3C5.99941 3.53025 5.7885 4.03861 5.41356 4.41356C5.03862 4.7885 4.53025 4.99941 4 5ZM4 2C3.80222 2 3.60888 2.05865 3.44443 2.16853C3.27999 2.27841 3.15181 2.43459 3.07613 2.61732C3.00044 2.80004 2.98063 3.00111 3.01922 3.19509C3.0578 3.38907 3.15305 3.56726 3.2929 3.70711C3.43275 3.84696 3.61093 3.9422 3.80491 3.98079C3.9989 4.01937 4.19996 3.99957 4.38269 3.92388C4.56541 3.84819 4.72159 3.72002 4.83147 3.55557C4.94136 3.39112 5 3.19778 5 3C4.99974 2.73487 4.8943 2.48067 4.70682 2.29319C4.51934 2.10571 4.26514 2.00027 4 2ZM5 15.5H3C2.73503 15.4992 2.48112 15.3936 2.29376 15.2063C2.10639 15.0189 2.00078 14.765 2 14.5V11C1.73503 10.9992 1.48112 10.8936 1.29376 10.7063C1.10639 10.5189 1.00078 10.265 1 10V7C0.996375 6.80202 1.03269 6.60534 1.10679 6.42171C1.18089 6.23808 1.29124 6.07128 1.43126 5.93126C1.57128 5.79124 1.73808 5.68089 1.92171 5.60679C2.10534 5.53269 2.30202 5.49637 2.5 5.5H5.5C5.69798 5.49637 5.89467 5.53269 6.07829 5.60679C6.26192 5.68089 6.42873 5.79124 6.56875 5.93126C6.70876 6.07128 6.81912 6.23808 6.89322 6.42171C6.96731 6.60534 7.00363 6.80202 7 7V10C6.99923 10.265 6.89362 10.5189 6.70625 10.7063C6.51888 10.8936 6.26498 10.9992 6 11V14.5C5.99923 14.765 5.89362 15.0189 5.70625 15.2063C5.51888 15.3936 5.26498 15.4992 5 15.5ZM2.5 6.5C2.43329 6.49598 2.36649 6.50615 2.304 6.52986C2.24151 6.55356 2.18477 6.59025 2.13751 6.63751C2.09025 6.68477 2.05356 6.74151 2.02986 6.804C2.00615 6.86649 1.99598 6.93329 2 7V10H3V14.5H5V10H6V7C6.00403 6.93329 5.99385 6.86649 5.97015 6.804C5.94645 6.74151 5.90976 6.68477 5.8625 6.63751C5.81524 6.59025 5.75849 6.55356 5.69601 6.52986C5.63352 6.50615 5.56671 6.49598 5.5 6.5H2.5ZM12.9637 1.50073C13.4995 1.52151 14.0071 1.74583 14.3832 2.12794C14.7785 2.53157 15 3.07409 15 3.63912C15 4.20414 14.7785 4.74666 14.3832 5.15029L11.501 8.06979L11.5 8.06884L11.499 8.07004L8.61685 5.15029C8.22146 4.74666 8.00001 4.20414 8.00001 3.63912C8.00001 3.07409 8.22146 2.53157 8.61685 2.12794C8.99291 1.74583 9.50054 1.52151 10.0363 1.50073C10.572 1.47995 11.0955 1.66426 11.5 2.01609C11.9045 1.66426 12.428 1.47995 12.9637 1.50073ZM11.501 6.64609L13.671 4.44744C13.8828 4.23164 14.0014 3.94135 14.0014 3.63899C14.0014 3.33663 13.8828 3.04635 13.671 2.83054C13.4597 2.62514 13.1767 2.51023 12.882 2.51023C12.5873 2.51023 12.3042 2.62514 12.093 2.83054L11.5025 3.43424L11.5 3.43174L11.4976 3.43419L10.9071 2.83049C10.6958 2.62509 10.4127 2.51018 10.118 2.51018C9.82335 2.51018 9.54029 2.62509 9.32901 2.83049C9.11723 3.0463 8.99859 3.33658 8.99859 3.63894C8.99859 3.9413 9.11723 4.23159 9.32901 4.44739L11.499 6.64604L11.5 6.64504L11.501 6.64609Z" fill="black"/>
</svg>
