<svg width="16" height="16" viewBox="0 0 16 16" fill="none" xmlns="http://www.w3.org/2000/svg">
<path fill-rule="evenodd" clip-rule="evenodd" d="M10.5595 7.44136C11.1652 7.15101 11.8283 7.00019 12.5 7H15V8.5C14.9987 9.69307 14.5242 10.8369 13.6805 11.6805C12.8369 12.5241 11.6931 12.9987 10.5 13H9.00001V15H8.00001V10H6.50001C6.21249 9.99809 5.92556 9.97368 5.64186 9.927L5.37306 9.88475L5.26271 9.63625C5.03336 9.12516 4.65414 8.69582 4.17529 8.40509C3.69644 8.11437 3.14057 7.976 2.58131 8.0083L2.31131 8.02735L2.11696 7.8135C1.39065 6.86174 0.998108 5.69723 1.00001 4.5V1H3.50001C4.29165 0.999918 5.07384 1.17212 5.79226 1.50465L6.18091 1.6831L6.06471 2.09475C6.02441 2.22617 6.00263 2.36257 6.00001 2.5C6.00044 2.89769 6.15862 3.27897 6.43983 3.56018C6.72104 3.84139 7.10232 3.99956 7.50001 4C7.63754 3.99732 7.77402 3.97544 7.90551 3.935L8.31691 3.81935L8.49536 4.20775C8.82798 4.92614 9.00019 5.70834 9.00001 6.5V8.67775C9.42085 8.15421 9.95374 7.73172 10.5595 7.44136ZM4.67829 7.53568C5.25663 7.88293 5.73075 8.37957 6.05081 8.9734C6.19993 8.99057 6.3499 8.99945 6.50001 9H8.00001V6.5C8.00028 5.98403 7.9106 5.47197 7.73501 4.9868C7.38807 5.02222 7.03757 4.98415 6.70633 4.87509C6.37509 4.76602 6.07053 4.5884 5.81251 4.35379C5.55449 4.11918 5.34878 3.83285 5.20879 3.51345C5.06879 3.19404 4.99766 2.84873 5.00001 2.5C4.99997 2.42149 5.0043 2.34303 5.01296 2.265C4.52791 2.08927 4.0159 1.99959 3.50001 2H2.00001V4.5C1.99852 5.39107 2.26474 6.26204 2.76416 7C3.43874 7.00338 4.09995 7.18842 4.67829 7.53568ZM12.9737 10.9737C13.6299 10.3176 13.999 9.42794 14 8.5V8H12.9541C12.9837 8.08008 12.9992 8.16465 13 8.25C13.0002 8.35289 12.9792 8.45472 12.9383 8.54914C12.8975 8.64356 12.8375 8.72853 12.7623 8.79875C12.6871 8.86897 12.5982 8.92293 12.5013 8.95727C12.4043 8.99161 12.3012 9.00558 12.1986 8.99831C12.096 8.99104 11.9959 8.9627 11.9047 8.91504C11.8135 8.86738 11.7332 8.80143 11.6686 8.72131C11.604 8.6412 11.5567 8.54863 11.5295 8.44939C11.5023 8.35016 11.4959 8.24638 11.5106 8.14455C10.7865 8.35878 10.151 8.80113 9.6986 9.40574C9.24622 10.0103 9.0012 10.7449 9.00001 11.5V12H10.5C11.4279 11.999 12.3176 11.6299 12.9737 10.9737ZM4.50001 4.75C4.50001 5.16421 4.16422 5.5 3.75001 5.5C3.33579 5.5 3.00001 5.16421 3.00001 4.75C3.00001 4.33579 3.33579 4 3.75001 4C4.16422 4 4.50001 4.33579 4.50001 4.75ZM7.00001 6.5C7.00001 6.77614 6.77615 7 6.50001 7C6.22387 7 6.00001 6.77614 6.00001 6.5C6.00001 6.22386 6.22387 6 6.50001 6C6.77615 6 7.00001 6.22386 7.00001 6.5ZM11 11C11.2761 11 11.5 10.7761 11.5 10.5C11.5 10.2239 11.2761 10 11 10C10.7239 10 10.5 10.2239 10.5 10.5C10.5 10.7761 10.7239 11 11 11Z" fill="black"/>
</svg>
