<svg width="16" height="16" viewBox="0 0 16 16" fill="none" xmlns="http://www.w3.org/2000/svg">
<g clip-path="url(#clip0_3_11617)">
<path fill-rule="evenodd" clip-rule="evenodd" d="M10.5 0H9.5V1.5H10.5V0ZM10.5 10.5H9.5V12H10.5V10.5ZM4 5.5H5.5V6.5H4V5.5ZM16 5.5H14.5V6.5H16V5.5ZM5.40808 2.10791L6.10812 1.40787L7.16878 2.46853L6.46874 3.16857L5.40808 2.10791ZM13.5387 8.8278L12.8386 9.52783L13.8993 10.5885L14.5993 9.88846L13.5387 8.8278ZM5.41336 9.88672L6.47402 8.82606L7.17406 9.52609L6.1134 10.5868L5.41336 9.88672ZM13.894 1.40223L12.8334 2.46289L13.5334 3.16293L14.5941 2.10227L13.894 1.40223ZM8.0555 3.08986C8.63108 2.70527 9.30777 2.5 10 2.5C10.9283 2.5 11.8185 2.86875 12.4749 3.52513C13.1313 4.1815 13.5 5.07174 13.5 6C13.5 6.69223 13.2947 7.36892 12.9101 7.9445C12.5256 8.52007 11.9789 8.96867 11.3394 9.23358C10.6999 9.49849 9.99612 9.5678 9.31718 9.43275C8.63825 9.2977 8.01461 8.96436 7.52513 8.47487C7.03564 7.98539 6.7023 7.36175 6.56725 6.68282C6.4322 6.00388 6.50152 5.30015 6.76642 4.66061C7.03133 4.02107 7.47993 3.47444 8.0555 3.08986ZM8.23223 7.76777C8.70108 8.23661 9.33696 8.5 10 8.5V3.5C9.33696 3.5 8.70108 3.76339 8.23223 4.23223C7.76339 4.70107 7.5 5.33696 7.5 6C7.5 6.66304 7.76339 7.29893 8.23223 7.76777ZM2.5 9H0V16H2.5C2.89782 16 3.27936 15.842 3.56066 15.5607C3.84196 15.2794 4 14.8978 4 14.5V13.5C3.99779 13.13 3.85889 12.7738 3.61 12.5C3.85889 12.2262 3.99779 11.87 4 11.5V10.5C4 10.1022 3.84196 9.72064 3.56066 9.43934C3.27936 9.15804 2.89782 9 2.5 9ZM1 10H2.5C2.63261 10 2.75979 10.0527 2.85355 10.1464C2.94732 10.2402 3 10.3674 3 10.5V11.5C3 11.6326 2.94732 11.7598 2.85355 11.8536C2.75979 11.9473 2.63261 12 2.5 12H1V10ZM3 14.5C3 14.6326 2.94732 14.7598 2.85355 14.8536C2.75979 14.9473 2.63261 15 2.5 15H1V13H2.5C2.63261 13 2.75979 13.0527 2.85355 13.1464C2.94732 13.2402 3 13.3674 3 13.5V14.5ZM4.5 1H1V4.5H0V0H4.5V1Z" fill="black"/>
</g>
<defs>
<clipPath id="clip0_3_11617">
<rect width="16" height="16" fill="white"/>
</clipPath>
</defs>
</svg>
