<svg width="16" height="16" viewBox="0 0 16 16" fill="none" xmlns="http://www.w3.org/2000/svg">
<g clip-path="url(#clip0_3_11615)">
<path fill-rule="evenodd" clip-rule="evenodd" d="M1 1H4.5V0H0V4.5H1V1ZM6.5 4H5.5V5.5H6.5V4ZM6.5 16V14.5H5.5V16H6.5ZM0 9.5H1.5V10.5H0V9.5ZM12 9.5H10.5V10.5H12V9.5ZM1.41016 6.1167L2.1102 5.41666L3.17086 6.47732L2.47082 7.17736L1.41016 6.1167ZM9.5372 12.8332L8.83716 13.5332L9.89782 14.5939L10.5979 13.8938L9.5372 12.8332ZM1.41543 13.8955L2.47609 12.8348L3.17613 13.5349L2.11547 14.5955L1.41543 13.8955ZM9.89256 5.4076L8.8319 6.46826L9.53193 7.1683L10.5926 6.10764L9.89256 5.4076ZM4.0555 7.08986C4.63108 6.70527 5.30777 6.5 6 6.5C6.92826 6.5 7.8185 6.86875 8.47487 7.52513C9.13125 8.1815 9.5 9.07174 9.5 10C9.5 10.6922 9.29473 11.3689 8.91014 11.9445C8.52556 12.5201 7.97893 12.9687 7.33939 13.2336C6.69985 13.4985 5.99612 13.5678 5.31718 13.4327C4.63825 13.2977 4.01461 12.9644 3.52513 12.4749C3.03564 11.9854 2.7023 11.3617 2.56725 10.6828C2.4322 10.0039 2.50151 9.30015 2.76642 8.66061C3.03133 8.02107 3.47993 7.47444 4.0555 7.08986ZM4.23223 11.7678C4.70107 12.2366 5.33696 12.5 6 12.5V7.5C5.33696 7.5 4.70107 7.76339 4.23223 8.23223C3.76339 8.70107 3.5 9.33696 3.5 10C3.5 10.663 3.76339 11.2989 4.23223 11.7678ZM13 0H15C15.2652 0 15.5196 0.105357 15.7071 0.292893C15.8946 0.48043 16 0.734784 16 1V6C16 6.26522 15.8946 6.51957 15.7071 6.70711C15.5196 6.89464 15.2652 7 15 7H13C12.7348 7 12.4804 6.89464 12.2929 6.70711C12.1054 6.51957 12 6.26522 12 6V1C12 0.734784 12.1054 0.48043 12.2929 0.292893C12.4804 0.105357 12.7348 0 13 0ZM13 1V6H15V1H13Z" fill="black"/>
</g>
<defs>
<clipPath id="clip0_3_11615">
<rect width="16" height="16" fill="white"/>
</clipPath>
</defs>
</svg>
