<svg width="16" height="16" viewBox="0 0 16 16" fill="none" xmlns="http://www.w3.org/2000/svg">
<path fill-rule="evenodd" clip-rule="evenodd" d="M12.915 14.5H13C13.3978 14.5 13.7794 14.342 14.0607 14.0607C14.342 13.7794 14.5 13.3978 14.5 13V10.36C14.5014 10.1614 14.4437 9.96696 14.3341 9.80134C14.2246 9.63571 14.0683 9.50644 13.885 9.43L12 8.675C11.819 8.59887 11.6196 8.57771 11.4266 8.61417C11.2337 8.65063 11.0558 8.74308 10.915 8.88L9.83 9.955C8.88478 9.78683 8.01415 9.33202 7.33617 8.65226C6.6582 7.97249 6.20569 7.10066 6.04001 6.155L7.10501 5.08C7.24346 4.94134 7.33812 4.76505 7.37723 4.57305C7.41634 4.38104 7.39818 4.18177 7.32501 4L6.56501 2.13C6.4909 1.94394 6.36264 1.78441 6.19682 1.67208C6.03101 1.55976 5.83528 1.49981 5.63501 1.5H3.00001C2.96001 1.5 2.92021 1.50147 2.88061 1.5044C2.6842 1.5195 2.49269 1.57314 2.31702 1.66225C2.14134 1.75136 1.98494 1.87421 1.85674 2.02377C1.72853 2.17332 1.63105 2.34667 1.56984 2.5339C1.50863 2.72114 1.4849 2.9186 1.50001 3.115C1.69501 5.645 3.09001 13.935 12.915 14.5ZM2.80854 2.53745C2.86929 2.51252 2.93435 2.49979 3.00001 2.5H5.64001L6.39001 4.385L4.97001 5.82L5.00001 6.06C5.00001 6.105 5.59001 10.455 9.94 11L10.18 11.03L11.615 9.605L13.5 10.36V13C13.5 13.0103 13.4997 13.0206 13.4991 13.0309C13.4952 13.0964 13.4784 13.1606 13.4496 13.2196C13.4209 13.2787 13.3808 13.3315 13.3317 13.375C13.2826 13.4186 13.2253 13.452 13.1633 13.4735C13.1012 13.4949 13.0355 13.5039 12.97 13.5C4.20501 13 2.73001 6 2.50001 3.04C2.49894 3.02617 2.49841 3.0123 2.49841 2.9984C2.49862 2.93274 2.51176 2.86776 2.53708 2.80718C2.5624 2.7466 2.59941 2.6916 2.64598 2.64532C2.69256 2.59903 2.7478 2.56238 2.80854 2.53745ZM13.5 5.5V6.5H9.50001V2.5H10.5V4.793L13.793 1.5L14.5 2.207L11.207 5.5H13.5Z" fill="black"/>
</svg>
