<svg width="16" height="16" viewBox="0 0 16 16" fill="none" xmlns="http://www.w3.org/2000/svg">
<path fill-rule="evenodd" clip-rule="evenodd" d="M11.2867 9.62115L10.1667 10.7412C5.83337 10.1995 5.21252 5.83336 5.21252 5.83336L6.33252 4.71335C6.48247 4.56346 6.58513 4.37287 6.62779 4.16518C6.67046 3.9575 6.65124 3.74187 6.57252 3.54501L6.02687 2.18101C5.94646 1.97997 5.80766 1.80765 5.62837 1.68626C5.44908 1.56488 5.23754 1.5 5.02102 1.50001H2.58462C2.43201 1.49954 2.28102 1.53139 2.14161 1.59346C2.00219 1.65554 1.87749 1.74643 1.77573 1.86016C1.67396 1.97389 1.59743 2.10788 1.55117 2.25332C1.50491 2.39875 1.48996 2.55233 1.50732 2.70396C1.86607 5.80571 3.79692 13.9027 13.3579 14.4979C13.5051 14.5059 13.6524 14.4838 13.7907 14.4329C13.9291 14.3819 14.0556 14.3033 14.1625 14.2018C14.2695 14.1003 14.3545 13.978 14.4126 13.8425C14.4706 13.707 14.5004 13.561 14.5 13.4136V10.933C14.5001 10.7164 14.4353 10.5048 14.3139 10.3254C14.1925 10.1461 14.0202 10.0072 13.8191 9.9268L12.4551 9.38116C12.2582 9.30243 12.0426 9.28321 11.8349 9.32587C11.6272 9.36854 11.4366 9.4712 11.2867 9.62115ZM14 6.5H13C12.999 5.57206 12.6299 4.68242 11.9738 4.02627C11.3176 3.37011 10.428 3.00103 9.50002 3V2C10.6931 2.00132 11.8369 2.47585 12.6805 3.31948C13.5242 4.16311 13.9987 5.30693 14 6.5ZM12 6.5H11C10.9996 6.10231 10.8414 5.72103 10.5602 5.43982C10.279 5.15861 9.89771 5.00044 9.50002 5V4C10.1628 4.00075 10.7983 4.26439 11.267 4.73307C11.7356 5.20174 11.9993 5.83719 12 6.5Z" fill="black"/>
</svg>
