<svg width="16" height="16" viewBox="0 0 16 16" fill="none" xmlns="http://www.w3.org/2000/svg">
<path fill-rule="evenodd" clip-rule="evenodd" d="M10 1H12V3H10V1ZM15 1H13V3H15V1ZM15 4H13V6H15V4ZM12 4H10V6H12V4ZM12.415 15H12.5C12.8978 15 13.2794 14.842 13.5607 14.5607C13.842 14.2794 14 13.8978 14 13.5V10.86C14.0014 10.6614 13.9437 10.467 13.8342 10.3013C13.7246 10.1357 13.5683 10.0064 13.385 9.93L11.5 9.175C11.319 9.09887 11.1196 9.07771 10.9267 9.11417C10.7337 9.15063 10.5558 9.24308 10.415 9.38L9.33002 10.455C8.3848 10.2868 7.51417 9.83202 6.83619 9.15226C6.15822 8.47249 5.70571 7.60066 5.54002 6.655L6.60502 5.58C6.74347 5.44134 6.83814 5.26505 6.87725 5.07305C6.91636 4.88104 6.8982 4.68177 6.82502 4.5L6.06502 2.63C5.99092 2.44394 5.86266 2.28441 5.69684 2.17208C5.53103 2.05976 5.3353 1.99981 5.13503 2H2.50002C2.46002 2 2.42021 2.00147 2.38057 2.0044C1.98392 2.03491 1.61564 2.22174 1.35674 2.52378C1.09783 2.82583 0.969521 3.21835 1.00003 3.615C1.19503 6.145 2.59002 14.435 12.415 15ZM2.30856 3.03745C2.3693 3.01251 2.43436 2.99979 2.50002 3H5.14003L5.89002 4.885L4.47002 6.32L4.50002 6.56C4.50002 6.605 5.09002 10.955 9.44002 11.5L9.68002 11.53L11.115 10.105L13 10.86V13.5C13 13.5103 12.9997 13.5206 12.9991 13.5309C12.9911 13.6633 12.9309 13.787 12.8317 13.875C12.7325 13.963 12.6024 14.0079 12.47 14C3.70502 13.5 2.23002 6.5 2.00003 3.54C1.99892 3.52615 1.99843 3.5123 1.99843 3.4984C1.99863 3.43274 2.01178 3.36776 2.0371 3.30718C2.06242 3.2466 2.09942 3.1916 2.146 3.14531C2.19258 3.09903 2.24782 3.06238 2.30856 3.03745Z" fill="black"/>
</svg>
