<svg width="16" height="16" viewBox="0 0 16 16" fill="none" xmlns="http://www.w3.org/2000/svg">
<path fill-rule="evenodd" clip-rule="evenodd" d="M12.11 9.28L13.37 9.78C13.5553 9.85379 13.7143 9.98129 13.8265 10.1461C13.9388 10.3109 13.9992 10.5056 14 10.705V13C14.0002 13.1361 13.9726 13.2708 13.919 13.3958C13.8653 13.5209 13.7867 13.6337 13.6879 13.7273C13.5892 13.8209 13.4723 13.8934 13.3446 13.9403C13.2168 13.9872 13.0809 14.0075 12.945 14C9.615 13.79 7.29 12.6 5.67 11.04L1.705 15L1 14.295L14.295 1L15 1.705L7.325 9.385C8.08231 10.0252 9.01399 10.424 10 10.53L11.035 9.5C11.1732 9.36254 11.3486 9.26847 11.5396 9.22939C11.7306 9.1903 11.9289 9.20789 12.11 9.28ZM5.835 7.33502L4.075 9.09502C2.95069 7.27733 2.24212 5.23356 2 3.11002C1.98448 2.96976 1.99881 2.8278 2.04207 2.69348C2.08532 2.55916 2.15652 2.43551 2.25097 2.33067C2.34542 2.22582 2.461 2.14216 2.59009 2.08517C2.71919 2.02818 2.85889 1.99916 3 2.00002H5.25C5.45028 1.99982 5.646 2.05977 5.81182 2.1721C5.97763 2.28443 6.1059 2.44395 6.18 2.63002L6.68 3.89002C6.75211 4.07114 6.7697 4.2694 6.73061 4.46039C6.69153 4.65138 6.59747 4.82678 6.46 4.96502L5.425 6.00002C5.50778 6.45982 5.64543 6.90802 5.835 7.33502Z" fill="black"/>
</svg>
