<svg width="16" height="16" viewBox="0 0 16 16" fill="none" xmlns="http://www.w3.org/2000/svg">
<path fill-rule="evenodd" clip-rule="evenodd" d="M7 3H14C14.2651 3.00033 14.5193 3.10579 14.7067 3.29326C14.8942 3.48072 14.9997 3.73488 15 4V13C14.9997 13.2651 14.8942 13.5193 14.7067 13.7067C14.5193 13.8942 14.2651 13.9997 14 14H2C1.73489 13.9997 1.48072 13.8942 1.29326 13.7067C1.10579 13.5193 1.00033 13.2651 1 13V4C1.00033 3.73488 1.10579 3.48072 1.29326 3.29326C1.48072 3.10579 1.73489 3.00033 2 3H3V2.5C3.00033 2.23489 3.10579 1.98072 3.29326 1.79326C3.48072 1.60579 3.73488 1.50033 4 1.5H6C6.26511 1.50033 6.51928 1.60579 6.70674 1.79326C6.89421 1.98072 6.99967 2.23489 7 2.5V3ZM6 2.5H4V11H6V2.5ZM2 4V13H14V4H7V11C6.99967 11.2651 6.89421 11.5193 6.70674 11.7067C6.51928 11.8942 6.26511 11.9997 6 12H4C3.73488 11.9997 3.48072 11.8942 3.29326 11.7067C3.10579 11.5193 3.00033 11.2651 3 11V4H2ZM13 5H8V6H13V5ZM9 7H8V8H9V7ZM11 7H10V8H11V7ZM12 7H13V8H12V7ZM9 9H8V10H9V9ZM10 9H11V10H10V9ZM13 9H12V10H13V9ZM8 11H9V12H8V11ZM11 11H10V12H11V11ZM12 11H13V12H12V11Z" fill="black"/>
</svg>
