<svg width="16" height="16" viewBox="0 0 16 16" fill="none" xmlns="http://www.w3.org/2000/svg">
<path fill-rule="evenodd" clip-rule="evenodd" d="M1.50001 3.1C1.70001 5.65 3.10001 13.95 12.9 14.5H13C13.85 14.5 14.5 13.85 14.55 13V10.4C14.55 9.95 14.3 9.6 13.95 9.45L12.05 8.7C11.65 8.55 11.25 8.6 10.95 8.9L9.85001 9.95C7.90001 9.6 6.40001 8.1 6.05001 6.15L7.10001 5.1C7.35001 4.8 7.45001 4.35 7.30001 4L6.60001 2.15C6.45001 1.75 6.05001 1.5 5.65001 1.5H3.00001H2.90001C2.05001 1.55 1.45001 2.3 1.50001 3.1ZM2.50001 3C2.50001 2.7 2.70001 2.5 3.00001 2.5H5.65001L6.35001 4.35L4.95001 5.8L5.00001 6.05C5.00001 6.1 5.60001 10.45 9.95001 11L10.15 11.05L11.6 9.6L13.5 10.35V13V13.05C13.45 13.3 13.25 13.5 12.95 13.5C4.20001 13 2.75001 6 2.50001 3.05V3ZM10 3V2H14V6H13V3.7L9.70001 7L9.00001 6.3L12.3 3H10Z" fill="black"/>
</svg>
