<svg width="16" height="16" viewBox="0 0 16 16" fill="none" xmlns="http://www.w3.org/2000/svg">
<path d="M10.165 10.74L11.285 9.61996C11.4359 9.47098 11.6267 9.369 11.8344 9.3264C12.0421 9.28379 12.2577 9.3024 12.455 9.37996L13.82 9.92496C14.0194 10.0059 14.1904 10.1441 14.3114 10.322C14.4324 10.5 14.498 10.7098 14.5 10.925V13.425C14.4988 13.5713 14.4681 13.716 14.4095 13.8502C14.351 13.9844 14.2659 14.1053 14.1594 14.2057C14.0529 14.3062 13.9272 14.384 13.7898 14.4346C13.6524 14.4851 13.5062 14.5074 13.36 14.5C3.79501 13.905 1.86501 5.80496 1.50001 2.70496C1.48306 2.55273 1.49854 2.39863 1.54543 2.25281C1.59232 2.107 1.66955 1.97276 1.77204 1.85893C1.87453 1.7451 1.99996 1.65426 2.14008 1.59239C2.2802 1.53052 2.43184 1.49902 2.58501 1.49996H5.00001C5.21551 1.5006 5.4259 1.56569 5.6041 1.68687C5.78231 1.80806 5.92019 1.97978 6.00001 2.17996L6.54501 3.54496C6.62513 3.74149 6.64558 3.95728 6.60378 4.16537C6.56199 4.37345 6.45981 4.56461 6.31001 4.71496L5.19001 5.83496C5.19001 5.83496 5.83501 10.2 10.165 10.74Z" fill="black"/>
</svg>
