<svg width="16" height="16" viewBox="0 0 16 16" fill="none" xmlns="http://www.w3.org/2000/svg">
<path fill-rule="evenodd" clip-rule="evenodd" d="M12.915 14.5H13C13.3978 14.5 13.7794 14.342 14.0607 14.0607C14.342 13.7794 14.5 13.3978 14.5 13V10.36C14.5014 10.1614 14.4437 9.96696 14.3342 9.80134C14.2246 9.63571 14.0683 9.50644 13.885 9.43L12 8.675C11.819 8.59887 11.6196 8.57771 11.4267 8.61417C11.2337 8.65063 11.0558 8.74308 10.915 8.88L9.83002 9.955C8.8848 9.78683 8.01416 9.33202 7.33619 8.65226C6.65821 7.97249 6.2057 7.10066 6.04002 6.155L7.10502 5.08C7.24347 4.94134 7.33813 4.76505 7.37724 4.57305C7.41636 4.38104 7.3982 4.18177 7.32502 4L6.56502 2.13C6.49092 1.94394 6.36265 1.78441 6.19684 1.67208C6.03102 1.55976 5.8353 1.49981 5.63502 1.5H3.00002C2.96002 1.5 2.92022 1.50147 2.88062 1.5044C2.68422 1.5195 2.49271 1.57314 2.31703 1.66225C2.14136 1.75136 1.98495 1.87421 1.85675 2.02377C1.72855 2.17332 1.63106 2.34667 1.56985 2.5339C1.50865 2.72114 1.48492 2.9186 1.50002 3.115C1.69502 5.645 3.09002 13.935 12.915 14.5ZM2.80856 2.53745C2.8693 2.51252 2.93436 2.49979 3.00002 2.5H5.64002L6.39002 4.385L4.97002 5.82L5.00002 6.06C5.00002 6.105 5.59002 10.455 9.94002 11L10.18 11.03L11.615 9.605L13.5 10.36V13C13.5 13.0103 13.4997 13.0206 13.4991 13.0309C13.4952 13.0964 13.4784 13.1606 13.4496 13.2196C13.4209 13.2787 13.3809 13.3315 13.3317 13.375C13.2826 13.4186 13.2254 13.452 13.1633 13.4735C13.1012 13.4949 13.0356 13.5039 12.97 13.5C4.20502 13 2.73002 6 2.50002 3.04C2.49895 3.02617 2.49842 3.0123 2.49842 2.9984C2.49863 2.93274 2.51177 2.86776 2.53709 2.80718C2.56241 2.7466 2.59942 2.6916 2.646 2.64532C2.69258 2.59903 2.74781 2.56238 2.80856 2.53745ZM14 6.5H13C12.999 5.57206 12.6299 4.68242 11.9737 4.02627C11.3176 3.37011 10.428 3.00103 9.50002 3V2C10.6931 2.00132 11.8369 2.47585 12.6805 3.31948C13.5242 4.16311 13.9987 5.30693 14 6.5ZM12 6.5H11C10.9996 6.10231 10.8414 5.72103 10.5602 5.43982C10.279 5.15861 9.89771 5.00044 9.50002 5V4C10.1628 4.00075 10.7983 4.26439 11.2669 4.73307C11.7356 5.20174 11.9993 5.83719 12 6.5Z" fill="black"/>
</svg>
