<svg width="16" height="16" viewBox="0 0 16 16" fill="none" xmlns="http://www.w3.org/2000/svg">
<path fill-rule="evenodd" clip-rule="evenodd" d="M11.2866 9.62115L10.1666 10.7412C5.83334 10.1995 5.21249 5.83336 5.21249 5.83336L6.33249 4.71335C6.48244 4.56346 6.5851 4.37287 6.62776 4.16518C6.67043 3.9575 6.65121 3.74187 6.57249 3.54501L6.02684 2.18101C5.94643 1.97997 5.80763 1.80765 5.62834 1.68626C5.44905 1.56488 5.23751 1.5 5.02099 1.50001H2.58459C2.43198 1.49954 2.28099 1.53139 2.14158 1.59346C2.00216 1.65554 1.87746 1.74643 1.7757 1.86016C1.67393 1.97389 1.5974 2.10788 1.55114 2.25332C1.50487 2.39875 1.48993 2.55233 1.50729 2.70396C1.86604 5.80571 3.79689 13.9027 13.3578 14.4979C13.5051 14.5059 13.6524 14.4838 13.7907 14.4329C13.9291 14.3819 14.0556 14.3033 14.1625 14.2018C14.2694 14.1003 14.3545 13.978 14.4125 13.8425C14.4706 13.707 14.5003 13.561 14.5 13.4136V10.933C14.5001 10.7164 14.4352 10.5048 14.3139 10.3254C14.1925 10.1461 14.0202 10.0072 13.8191 9.9268L12.455 9.38116C12.2582 9.30243 12.0425 9.28321 11.8348 9.32587C11.6271 9.36854 11.4365 9.4712 11.2866 9.62115ZM14 2.705L12.205 4.5L14 6.295L13.295 7L11.5 5.205L9.70499 7L8.99999 6.295L10.795 4.5L8.99999 2.705L9.70499 2L11.5 3.795L13.295 2L14 2.705Z" fill="black"/>
</svg>
