<svg width="16" height="16" viewBox="0 0 16 16" fill="none" xmlns="http://www.w3.org/2000/svg">
<path fill-rule="evenodd" clip-rule="evenodd" d="M11.2867 9.62115L10.1667 10.7412C5.83336 10.1995 5.21251 5.83336 5.21251 5.83336L6.33251 4.71335C6.48245 4.56346 6.58512 4.37287 6.62778 4.16518C6.67044 3.9575 6.65122 3.74187 6.57251 3.54501L6.02686 2.18101C5.94645 1.97997 5.80765 1.80765 5.62836 1.68626C5.44907 1.56488 5.23752 1.5 5.02101 1.50001H2.58461C2.43199 1.49954 2.28101 1.53139 2.14159 1.59346C2.00217 1.65554 1.87748 1.74643 1.77571 1.86016C1.67394 1.97389 1.59741 2.10788 1.55115 2.25332C1.50489 2.39875 1.48995 2.55233 1.50731 2.70396C1.86606 5.80571 3.79691 13.9027 13.3579 14.4979C13.5051 14.5059 13.6524 14.4838 13.7907 14.4329C13.9291 14.3819 14.0556 14.3033 14.1625 14.2018C14.2695 14.1003 14.3545 13.978 14.4126 13.8425C14.4706 13.707 14.5003 13.561 14.5 13.4136V10.933C14.5001 10.7164 14.4352 10.5048 14.3139 10.3254C14.1925 10.1461 14.0202 10.0072 13.8191 9.9268L12.4551 9.38116C12.2582 9.30243 12.0425 9.28321 11.8349 9.32587C11.6272 9.36854 11.4366 9.4712 11.2867 9.62115ZM13.5 5.5V6.5H9.50001V2.5H10.5V4.793L13.793 1.5L14.5 2.207L11.207 5.5H13.5Z" fill="black"/>
</svg>
