<svg width="16" height="16" viewBox="0 0 16 16" fill="none" xmlns="http://www.w3.org/2000/svg">
<path fill-rule="evenodd" clip-rule="evenodd" d="M8 14.5L8.8679 15L10.5823 12H13C13.2627 12 13.5227 11.9483 13.7654 11.8479C14.0081 11.7474 14.2286 11.6 14.4143 11.4143C14.6 11.2286 14.7474 11.0081 14.8479 10.7654C14.9483 10.5227 15 10.2627 15 10V4C15.0001 3.73733 14.9484 3.47723 14.8479 3.23454C14.7474 2.99185 14.6001 2.77134 14.4144 2.58561C14.2287 2.39988 14.0081 2.25256 13.7655 2.15208C13.5228 2.0516 13.2627 1.99992 13 2H3C2.73733 1.99992 2.47723 2.0516 2.23454 2.15208C1.99185 2.25256 1.77134 2.39988 1.58561 2.58561C1.39988 2.77134 1.25256 2.99185 1.15208 3.23454C1.0516 3.47723 0.999921 3.73733 1 4V10C0.999954 10.2627 1.05165 10.5227 1.15215 10.7654C1.25264 11.0081 1.39996 11.2286 1.58568 11.4143C1.77141 11.6 1.99191 11.7474 2.23458 11.8479C2.47725 11.9483 2.73734 12 3 12H7.5V11H3C2.86862 11.0002 2.73848 10.9745 2.61705 10.9243C2.49563 10.8742 2.3853 10.8005 2.29239 10.7076C2.19949 10.6147 2.12584 10.5044 2.07566 10.3829C2.02549 10.2615 1.99978 10.1314 2 10V4C1.99978 3.86862 2.02549 3.73848 2.07566 3.61705C2.12584 3.49563 2.19949 3.3853 2.29239 3.29239C2.3853 3.19949 2.49563 3.12584 2.61705 3.07566C2.73848 3.02549 2.86862 2.99978 3 3H13C13.1314 2.99978 13.2615 3.02549 13.3829 3.07566C13.5044 3.12584 13.6147 3.19949 13.7076 3.29239C13.8005 3.3853 13.8742 3.49563 13.9243 3.61705C13.9745 3.73848 14.0002 3.86862 14 4V10C14.0002 10.1314 13.9745 10.2615 13.9243 10.3829C13.8742 10.5044 13.8005 10.6147 13.7076 10.7076C13.6147 10.8005 13.5044 10.8742 13.3829 10.9243C13.2615 10.9745 13.1314 11.0002 13 11H10L8 14.5ZM8.63373 5.10486C8.79758 5.03566 8.97364 5 9.1515 5C9.32935 5.00001 9.5054 5.03567 9.66924 5.10487C9.83308 5.17407 9.98139 5.27541 10.1054 5.4029C10.3585 5.66401 10.5 6.01337 10.5 6.377C10.5 6.74063 10.3585 7.08999 10.1054 7.3511L8.00095 9.5L5.8946 7.3511C5.64152 7.08999 5.49999 6.74063 5.49999 6.377C5.49999 6.01337 5.64152 5.66401 5.8946 5.4029C6.01861 5.27541 6.16692 5.17406 6.33077 5.10486C6.49461 5.03566 6.67067 5.00001 6.84853 5.00001C7.02638 5.00001 7.20244 5.03566 7.36628 5.10486C7.53013 5.17406 7.67844 5.27541 7.80245 5.4029L8.00095 5.6056L8.19755 5.4029C8.32157 5.2754 8.46988 5.17406 8.63373 5.10486Z" fill="black"/>
</svg>
