<svg width="16" height="16" viewBox="0 0 16 16" fill="none" xmlns="http://www.w3.org/2000/svg">
<path fill-rule="evenodd" clip-rule="evenodd" d="M10.8889 5.66294C11.2178 5.8827 11.6044 6 12 6C12.5303 5.99941 13.0386 5.7885 13.4136 5.41356C13.7885 5.03861 13.9994 4.53025 14 4C14 3.60444 13.8827 3.21776 13.6629 2.88886C13.4432 2.55996 13.1308 2.30362 12.7654 2.15224C12.3999 2.00087 11.9978 1.96126 11.6098 2.03843C11.2219 2.1156 10.8655 2.30608 10.5858 2.58579C10.3061 2.86549 10.1156 3.22186 10.0384 3.60982C9.96126 3.99778 10.0009 4.39992 10.1522 4.76537C10.3036 5.13082 10.56 5.44318 10.8889 5.66294ZM11.4444 3.16853C11.6089 3.05865 11.8022 3 12 3C12.2651 3.00028 12.5193 3.10572 12.7068 3.2932C12.8943 3.48068 12.9997 3.73487 13 4C13 4.19778 12.9414 4.39112 12.8315 4.55557C12.7216 4.72002 12.5654 4.84819 12.3827 4.92388C12.2 4.99957 11.9989 5.01937 11.8049 4.98079C11.6109 4.9422 11.4327 4.84696 11.2929 4.70711C11.153 4.56726 11.0578 4.38907 11.0192 4.19509C10.9806 4.00111 11.0004 3.80004 11.0761 3.61732C11.1518 3.43459 11.28 3.27841 11.4444 3.16853ZM10.9236 11H13V12H11.09L11.4234 14H10.4096L10.0762 12H5.9234L5.59 14H4.5766L4.91 12H3V11H5.0766L5.41 9H4V8H12V9H10.59L10.9236 11ZM6.42325 9L6.09 11H9.9096L9.57635 9H6.42325Z" fill="black"/>
</svg>
