<svg width="16" height="16" viewBox="0 0 16 16" fill="none" xmlns="http://www.w3.org/2000/svg">
<path fill-rule="evenodd" clip-rule="evenodd" d="M13.49 6.5H14.5C14.6326 6.5 14.7598 6.55268 14.8536 6.64645C14.9473 6.74021 15 6.86739 15 7V9.5C15 9.63261 14.9473 9.75979 14.8536 9.85355C14.7598 9.94732 14.6326 10 14.5 10H13.4094C13.3337 10.3925 13.1667 10.7616 12.9218 11.0776C12.677 11.3935 12.3612 11.6474 12 11.8186V13.5C12 13.6326 11.9473 13.7598 11.8536 13.8536C11.7598 13.9473 11.6326 14 11.5 14H9.5C9.36739 14 9.24021 13.9473 9.14645 13.8536C9.05268 13.7598 9 13.6326 9 13.5V12.5H7.5V13.5C7.5 13.6326 7.44732 13.7598 7.35355 13.8536C7.25979 13.9473 7.13261 14 7 14H5C4.86739 14 4.74021 13.9473 4.64645 13.8536C4.55268 13.7598 4.5 13.6326 4.5 13.5V11.7783C3.95601 11.4053 3.49886 10.9193 3.15975 10.3536C2.82065 9.78783 2.60755 9.1556 2.535 8.5H2.5C2.10231 8.49956 1.72103 8.34139 1.43982 8.06018C1.15861 7.77897 1.00044 7.39769 1 7V6H2V7C2.00012 7.13257 2.05284 7.25968 2.14658 7.35342C2.24032 7.44716 2.36743 7.49988 2.5 7.5H2.52575C2.7683 5.1206 4.74525 3.5 7.5 3.5H9.83325L11.7 2.1C11.7743 2.04429 11.8626 2.01036 11.9551 2.00202C12.0476 1.99368 12.1406 2.01126 12.2236 2.05279C12.3067 2.09431 12.3765 2.15815 12.4253 2.23713C12.4741 2.31612 12.5 2.40714 12.5 2.5V4.42625C12.7981 4.68582 13.0397 5.00378 13.21 5.36048C13.3803 5.71717 13.4756 6.10501 13.49 6.5ZM12.562 9H14V7.5H12.5091C12.5 7.32383 12.5 7.15828 12.5 7.00015C12.5 6.24382 12.5 5.65709 11.5 4.8882V3.5L10.1667 4.5H7.5C5.50905 4.5 3.5 5.5823 3.5 8C3.49572 8.66669 3.68159 9.32078 4.03582 9.8856C4.39005 10.4504 4.89796 10.9025 5.5 11.1889V13H6.5V11.5H10V13H11V11.1577C12.1502 10.7427 12.4094 10.3764 12.562 9ZM10 7H8.25C8.1837 7 8.12011 7.02634 8.07322 7.07322C8.02634 7.12011 8 7.1837 8 7.25C8 7.3163 8.02634 7.37989 8.07322 7.42678C8.12011 7.47366 8.1837 7.5 8.25 7.5H8.75C9.05965 7.50018 9.35821 7.61527 9.58784 7.823C9.81747 8.03072 9.96184 8.31628 9.99296 8.62436C10.0241 8.93243 9.93976 9.2411 9.75631 9.49055C9.57286 9.74001 9.30335 9.9125 9 9.9746V10.5H8V10H7V9H8.75C8.8163 9 8.87989 8.97366 8.92678 8.92678C8.97366 8.87989 9 8.8163 9 8.75C9 8.6837 8.97366 8.62011 8.92678 8.57322C8.87989 8.52634 8.8163 8.5 8.75 8.5H8.25C7.94035 8.49982 7.64179 8.38473 7.41216 8.177C7.18252 7.96928 7.03816 7.68372 7.00704 7.37564C6.97591 7.06757 7.06025 6.7589 7.24369 6.50945C7.42714 6.25999 7.69665 6.0875 8 6.0254V5.5H9V6H10V7Z" fill="black"/>
</svg>
