<svg width="16" height="16" viewBox="0 0 16 16" fill="none" xmlns="http://www.w3.org/2000/svg">
<path fill-rule="evenodd" clip-rule="evenodd" d="M7.6614 2.00001H7V5.00001H6V2.00001C6.0003 1.73488 6.10576 1.48071 6.29323 1.29323C6.4807 1.10576 6.73488 1.00031 7 1.00001H7.6614C7.86143 0.999344 8.05702 1.05897 8.22266 1.17111C8.3883 1.28324 8.51631 1.44269 8.59 1.62866L9.93865 5.00001H8.8614L7.6614 2.00001ZM12.7323 6.35645L14.2922 7.2925C14.5656 7.45651 14.7777 7.7056 14.8959 8.00163C15.0142 8.29766 15.0322 8.6243 14.9471 8.93151C14.862 9.23873 14.6785 9.50957 14.4248 9.70255C14.171 9.89554 13.861 10 13.5422 10H9.84645L8.59 13.3511C8.51801 13.5413 8.38993 13.7053 8.2227 13.8212C8.05548 13.9371 7.857 13.9994 7.65355 14H7C6.73488 13.9997 6.4807 13.8942 6.29323 13.7068C6.10576 13.5193 6.0003 13.2651 6 13V10H2.5C2.10231 9.99956 1.72103 9.84139 1.43982 9.56018C1.15861 9.27897 1.00044 8.89769 1 8.5V5C1.0003 4.73488 1.10576 4.4807 1.29323 4.29323C1.4807 4.10576 1.73488 4.00031 2 4H2.6096C2.83273 3.99973 3.04952 4.07418 3.2254 4.21148C3.40128 4.34879 3.52611 4.54103 3.58 4.75755L3.8904 6H11.446C11.8992 5.99994 12.3438 6.12316 12.7323 6.35645ZM9.15355 9H13.5422L13.5421 8.9999C13.6422 8.99986 13.7395 8.96704 13.8191 8.90646C13.8987 8.84588 13.9563 8.76087 13.983 8.66446C14.0098 8.56804 14.0042 8.46552 13.9671 8.37259C13.93 8.27966 13.8635 8.20144 13.7778 8.1499L12.2177 7.21385C11.9847 7.0739 11.7179 6.99998 11.446 7H11V8H10V7H8.5V8H7.5V7H6V8H5V7H3.1096L2.6096 5H2V8.5C2.00012 8.63257 2.05284 8.75968 2.14658 8.85342C2.24032 8.94717 2.36743 8.99988 2.5 9H7V13H7.65355L9.15355 9Z" fill="black"/>
</svg>
