<svg width="16" height="16" viewBox="0 0 16 16" fill="none" xmlns="http://www.w3.org/2000/svg">
<path fill-rule="evenodd" clip-rule="evenodd" d="M12.75 5H14V3H15V8H14V6.20705L12.939 7.2676C12.7075 7.5005 12.432 7.68516 12.1286 7.81088C11.8252 7.93659 11.4999 8.00088 11.1714 8H11.09L11.4235 10H13.5C13.6326 10 13.7598 10.0527 13.8536 10.1464C13.9473 10.2402 14 10.3674 14 10.5C14 10.6326 13.9473 10.7598 13.8536 10.8536C13.7598 10.9473 13.6326 11 13.5 11H3.5C3.36739 11 3.24021 10.9473 3.14645 10.8536C3.05268 10.7598 3 10.6326 3 10.5C3 10.3674 3.05268 10.2402 3.14645 10.1464C3.24021 10.0527 3.36739 10 3.5 10H5.5767L5.91 8H2.5C2.10231 7.99956 1.72103 7.84139 1.43982 7.56018C1.15861 7.27897 1.00044 6.89769 1 6.5V3.5C1 3.36739 1.05268 3.24021 1.14645 3.14645C1.24021 3.05268 1.36739 3 1.5 3H3C3.09286 2.99999 3.18388 3.02584 3.26288 3.07465C3.34187 3.12346 3.40571 3.1933 3.44725 3.27635L3.94725 4.27635L4.3091 5H6V4.5C6.00044 4.10231 6.15861 3.72103 6.43982 3.43982C6.72103 3.15861 7.10231 3.00044 7.5 3H10.5C10.7328 3.0005 10.9623 3.05493 11.1705 3.15904C11.3787 3.26314 11.5599 3.41408 11.7 3.6L12.75 5ZM7.14658 4.14658C7.05284 4.24032 7.00012 4.36743 7 4.5V5H11.5L10.9 4.2C10.8533 4.13803 10.7929 4.08772 10.7235 4.05302C10.6541 4.01832 10.5776 4.00017 10.5 4H7.5C7.36743 4.00012 7.24032 4.05284 7.14658 4.14658ZM6.59 10H10.41L10.0763 8H6.9233L6.59 10ZM2.5 7H11.1716C11.3687 7.00055 11.5639 6.96199 11.746 6.88656C11.928 6.81112 12.0933 6.70031 12.2322 6.56055L12.7929 6H3.6909L3.05275 4.72365L2.6909 4H2V6.5C2.00012 6.63257 2.05284 6.75968 2.14658 6.85342C2.24032 6.94716 2.36743 6.99988 2.5 7ZM14 15H15V14H14C13.6595 13.9801 13.3326 13.8593 13.0609 13.6531C12.7893 13.4469 12.5851 13.1645 12.4743 12.8419C12.4412 12.7426 12.3778 12.6562 12.2929 12.5948C12.2081 12.5335 12.1061 12.5004 12.0014 12.5001C11.8967 12.4998 11.7946 12.5323 11.7094 12.5932C11.6242 12.6541 11.5603 12.7401 11.5266 12.8392C11.4161 13.1624 11.212 13.4454 10.9401 13.6521C10.6682 13.8588 10.341 13.9799 10 14C9.6595 13.9801 9.33261 13.8593 9.06094 13.6531C8.78926 13.4469 8.58507 13.1645 8.47435 12.8419C8.44072 12.7426 8.37693 12.6563 8.2919 12.595C8.20686 12.5337 8.10482 12.5005 8 12.5C7.89536 12.4992 7.79318 12.5317 7.70813 12.5926C7.62307 12.6536 7.55952 12.7399 7.5266 12.8392C7.41614 13.1624 7.21196 13.4454 6.94009 13.6521C6.66821 13.8588 6.34095 13.9799 6 14C5.6595 13.9801 5.33261 13.8593 5.06093 13.6531C4.78926 13.4469 4.58507 13.1645 4.47435 12.8419C4.44072 12.7426 4.37693 12.6563 4.2919 12.595C4.20686 12.5337 4.10482 12.5005 4 12.5C3.89502 12.4978 3.79215 12.5296 3.7068 12.5908C3.62145 12.6519 3.55822 12.7391 3.5266 12.8392C3.41614 13.1624 3.21196 13.4454 2.94009 13.6521C2.66821 13.8588 2.34095 13.9799 2 14H1V15H2C2.38804 15.0034 2.77141 14.9152 3.11894 14.7426C3.46647 14.5699 3.76834 14.3177 4 14.0063C4.23404 14.3151 4.5364 14.5655 4.88338 14.7379C5.23036 14.9103 5.61255 15 6 15C6.38745 15 6.76964 14.9103 7.11662 14.7379C7.4636 14.5655 7.76596 14.3151 8 14.0063C8.23404 14.3151 8.5364 14.5655 8.88338 14.7379C9.23037 14.9103 9.61255 15 10 15C10.3874 15 10.7696 14.9103 11.1166 14.7379C11.4636 14.5655 11.766 14.3151 12 14.0063C12.2317 14.3177 12.5335 14.5699 12.8811 14.7426C13.2286 14.9152 13.612 15.0034 14 15Z" fill="black"/>
</svg>
