<svg width="16" height="16" viewBox="0 0 16 16" fill="none" xmlns="http://www.w3.org/2000/svg">
<path fill-rule="evenodd" clip-rule="evenodd" d="M4.11101 2.17971C5.26215 1.41054 6.61553 1 8 1C9.85651 1 11.637 1.7375 12.9497 3.05025C14.2625 4.36301 15 6.14348 15 8C15 9.38447 14.5895 10.7378 13.8203 11.889C13.0511 13.0401 11.9579 13.9373 10.6788 14.4672C9.3997 14.997 7.99223 15.1356 6.63437 14.8655C5.2765 14.5954 4.02922 13.9287 3.05025 12.9497C2.07128 11.9708 1.4046 10.7235 1.1345 9.36563C0.864406 8.00776 1.00303 6.6003 1.53284 5.32122C2.06266 4.04213 2.95986 2.94888 4.11101 2.17971ZM5.72365 11.4473L11.7236 8.44725C11.8067 8.40573 11.8766 8.3419 11.9254 8.2629C11.9742 8.1839 12.0001 8.09287 12.0001 8C12.0001 7.90713 11.9742 7.8161 11.9254 7.7371C11.8766 7.6581 11.8067 7.59427 11.7236 7.55275L5.72365 4.55275C5.64741 4.51462 5.5627 4.49662 5.47755 4.50045C5.3924 4.50427 5.30964 4.52981 5.23713 4.57462C5.16462 4.61943 5.10478 4.68204 5.06327 4.75649C5.02177 4.83094 4.99999 4.91476 5 5V11C4.99999 11.0852 5.02177 11.1691 5.06327 11.2435C5.10478 11.318 5.16462 11.3806 5.23713 11.4254C5.30964 11.4702 5.3924 11.4957 5.47755 11.4996C5.5627 11.5034 5.64741 11.4854 5.72365 11.4473ZM10.382 8.00008L6 10.1911V5.80908L10.382 8.00008Z" fill="black"/>
</svg>
