<svg width="16" height="16" viewBox="0 0 16 16" fill="none" xmlns="http://www.w3.org/2000/svg">
<path fill-rule="evenodd" clip-rule="evenodd" d="M7.7068 7.7068C7.51932 7.89428 7.26513 7.99972 7 8H2C1.73487 7.99972 1.48068 7.89428 1.2932 7.7068C1.10572 7.51932 1.00028 7.26513 1 7V2C1.00028 1.73487 1.10572 1.48068 1.2932 1.2932C1.48068 1.10572 1.73487 1.00028 2 1H7C7.26513 1.00028 7.51932 1.10572 7.7068 1.2932C7.89428 1.48068 7.99972 1.73487 8 2V3H7V2H2V7H7V6H8V7C7.99972 7.26513 7.89428 7.51932 7.7068 7.7068ZM14.7068 14.7068C14.5193 14.8943 14.2651 14.9997 14 15H9C8.73487 14.9997 8.48068 14.8943 8.2932 14.7068C8.10572 14.5193 8.00028 14.2651 8 14V9C8.00028 8.73487 8.10572 8.48068 8.2932 8.2932C8.48068 8.10572 8.73487 8.00028 9 8H10V9H9V14H14V9H13V8H14C14.2651 8.00028 14.5193 8.10572 14.7068 8.2932C14.8943 8.48068 14.9997 8.73487 15 9V14C14.9997 14.2651 14.8943 14.5193 14.7068 14.7068ZM12.649 3.53368C12.8765 3.80426 13.0008 4.14664 13 4.50013C12.999 4.80933 12.9024 5.11064 12.7233 5.36272C12.5443 5.61481 12.2916 5.80531 12 5.90808V11.5001H11V5.90783C10.7908 5.83333 10.6009 5.71324 10.4438 5.55624C10.2868 5.39925 10.1667 5.20929 10.0921 5.00013H4.5V4.00013H10.0921C10.2094 3.66666 10.441 3.38548 10.7458 3.20642C11.0505 3.02736 11.4089 2.96199 11.7573 3.02189C12.1056 3.08179 12.4216 3.2631 12.649 3.53368ZM11.2222 4.91587C11.3044 4.97081 11.4011 5.00013 11.5 5.00013C11.6326 5.00001 11.7597 4.9473 11.8534 4.85355C11.9472 4.75981 11.9999 4.6327 12 4.50013C12 4.40124 11.9707 4.30457 11.9157 4.22235C11.8608 4.14012 11.7827 4.07604 11.6913 4.03819C11.6 4.00035 11.4994 3.99045 11.4025 4.00974C11.3055 4.02903 11.2164 4.07665 11.1464 4.14658C11.0765 4.2165 11.0289 4.3056 11.0096 4.40259C10.9903 4.49958 11.0002 4.60011 11.0381 4.69147C11.0759 4.78284 11.14 4.86093 11.2222 4.91587Z" fill="black"/>
</svg>
