<svg width="16" height="16" viewBox="0 0 16 16" fill="none" xmlns="http://www.w3.org/2000/svg">
<path fill-rule="evenodd" clip-rule="evenodd" d="M6.855 6.145L3.705 3H6.5V2H2V6.5H3V3.705L6.145 6.855L6.855 6.145ZM14 15H6C5.73478 15 5.48043 14.8946 5.29289 14.7071C5.10536 14.5196 5 14.2652 5 14V9H6V14H14V6H9V5H14C14.2652 5 14.5196 5.10536 14.7071 5.29289C14.8946 5.48043 15 5.73478 15 6V14C15 14.2652 14.8946 14.5196 14.7071 14.7071C14.5196 14.8946 14.2652 15 14 15ZM8.5 7.5H11C11.2652 7.5 11.5196 7.60536 11.7071 7.79289C11.8946 7.98043 12 8.23478 12 8.5V12.5H9C8.73478 12.5 8.48043 12.3946 8.29289 12.2071C8.10536 12.0196 8 11.7652 8 11.5V10.5C8 10.2348 8.10536 9.98043 8.29289 9.79289C8.48043 9.60536 8.73478 9.5 9 9.5H11V8.5H8.5V7.5ZM9 11.5H11V10.5H9V11.5Z" fill="black"/>
</svg>
