<svg width="16" height="16" viewBox="0 0 16 16" fill="none" xmlns="http://www.w3.org/2000/svg">
<path fill-rule="evenodd" clip-rule="evenodd" d="M9.1373 1.01925L12.6373 2.01925C12.762 2.05482 12.868 2.13749 12.9329 2.24979C12.9978 2.3621 13.0165 2.49523 12.985 2.62105L12.5 4.56145V5.49995C12.5 5.95958 12.4095 6.4147 12.2336 6.83934C12.0577 7.26398 11.7999 7.64982 11.4749 7.97482C11.1499 8.29983 10.764 8.55764 10.3394 8.73353C9.91475 8.90942 9.45963 8.99995 9 8.99995C8.54037 8.99995 8.08525 8.90942 7.66061 8.73353C7.23597 8.55764 6.85013 8.29983 6.52513 7.97482C6.20012 7.64982 5.94231 7.26398 5.76642 6.83934C5.59053 6.4147 5.5 5.95958 5.5 5.49995V4.56145L5.015 2.62105C4.98349 2.49528 5.00211 2.3622 5.06692 2.2499C5.13172 2.13761 5.23764 2.0549 5.3623 2.01925L8.8623 1.01925C8.95217 0.993583 9.04743 0.993583 9.1373 1.01925ZM11.8976 2.84785L9 2.01995L6.1024 2.84785L6.3905 3.99995H8.5V2.99995H9.5V3.99995H11.6095L11.8976 2.84785ZM7.23308 7.26687C7.70175 7.73555 8.33719 7.99918 9 7.99995C9.6628 7.99918 10.2982 7.73555 10.7669 7.26687C11.2356 6.7982 11.4992 6.16276 11.5 5.49995V4.99995H6.5V5.49995C6.50077 6.16276 6.7644 6.7982 7.23308 7.26687ZM10.5 10H3.5C3.10231 9.99956 2.72103 9.84139 2.43982 9.56018C2.15861 9.27897 2.00044 8.89769 2 8.5V3H1V8.5C1.00078 9.1628 1.26442 9.79823 1.7331 10.2669C2.20177 10.7356 2.8372 10.9992 3.5 11H10.5C10.8643 11.0016 11.2237 11.0837 11.5525 11.2405L8.5 14.2929L9.20705 15L12.3606 11.8464C12.7702 12.3 12.9979 12.8889 13 13.5V15H14V13.5C13.999 12.5721 13.6299 11.6824 12.9737 11.0263C12.3176 10.3701 11.4279 10.001 10.5 10ZM6 12H5V15H6V12Z" fill="black"/>
</svg>
