<svg width="16" height="16" viewBox="0 0 16 16" fill="none" xmlns="http://www.w3.org/2000/svg">
<path fill-rule="evenodd" clip-rule="evenodd" d="M1 8C1 11.3084 3.69165 14 7 14C8.16745 14 9.2993 13.6643 10.2731 13.0293L9.7269 12.1917C8.91585 12.7205 7.97295 13 6.99995 13C4.243 13 1.99995 10.757 1.99995 8C1.99995 5.243 4.243 3 6.99995 3C7.973 3 8.91585 3.27955 9.7269 3.80835L10.2731 2.9707C9.2993 2.3357 8.1675 2 7 2C3.69165 2 1 4.6916 1 8ZM11.5 4.5L15 8L11.5 11.5L10.7929 10.7929L13.0859 8.5H4.5V7.5H13.0859L10.7929 5.20705L11.5 4.5Z" fill="black"/>
</svg>
