<svg width="16" height="16" viewBox="0 0 16 16" fill="none" xmlns="http://www.w3.org/2000/svg">
<path fill-rule="evenodd" clip-rule="evenodd" d="M4.37158 11.8185C5.51658 13.205 7.20348 14.0001 8.99988 14.0001C12.3083 14.0001 14.9999 11.3084 14.9999 8C14.9999 4.6916 12.3083 2 8.99988 2C7.20348 2 5.51658 2.7952 4.37158 4.1816L5.14258 4.81845C6.09693 3.66285 7.50293 3.00005 8.99988 3.00005C11.7568 3.00005 13.9999 5.24305 13.9999 8.00005C13.9999 10.757 11.7568 13.0001 8.99988 13.0001C7.50293 13.0001 6.09693 12.3373 5.14258 11.1817L4.37158 11.8185ZM8 4.5L11.5 8L8 11.5L7.29295 10.7929L9.58595 8.5H1V7.5H9.58595L7.29295 5.20705L8 4.5Z" fill="black"/>
</svg>
