<svg width="16" height="16" viewBox="0 0 16 16" fill="none" xmlns="http://www.w3.org/2000/svg">
<path fill-rule="evenodd" clip-rule="evenodd" d="M7.5 1H8.5V8H7.5V1ZM10.75 3.73512L11.25 2.87012C12.4892 3.58555 13.4576 4.68989 14.0052 6.01184C14.5528 7.33379 14.6489 8.79949 14.2785 10.1816C13.9082 11.5637 13.0921 12.785 11.957 13.6561C10.8218 14.5271 9.43087 14.9993 8 14.9993C6.56913 14.9993 5.17824 14.5271 4.04305 13.6561C2.90787 12.785 2.09182 11.5637 1.72148 10.1816C1.35115 8.79949 1.44721 7.33379 1.99479 6.01184C2.54236 4.68989 3.51083 3.58555 4.75 2.87012L5.25 3.73512C4.20147 4.34049 3.38199 5.27492 2.91866 6.3935C2.45534 7.51207 2.37405 8.75228 2.68741 9.92176C3.00077 11.0912 3.69127 12.1246 4.65181 12.8617C5.61236 13.5988 6.78926 13.9983 8 13.9983C9.21074 13.9983 10.3876 13.5988 11.3482 12.8617C12.3087 12.1246 12.9992 11.0912 13.3126 9.92176C13.626 8.75228 13.5447 7.51207 13.0813 6.3935C12.618 5.27492 11.7985 4.34049 10.75 3.73512Z" fill="black"/>
</svg>
