<svg width="16" height="16" viewBox="0 0 16 16" fill="none" xmlns="http://www.w3.org/2000/svg">
<path fill-rule="evenodd" clip-rule="evenodd" d="M1 11.5H2V9H4C4.26514 8.99974 4.51934 8.89429 4.70681 8.70681C4.89429 8.51934 4.99974 8.26514 5 8V5.5C4.99974 5.23486 4.89429 4.98066 4.70681 4.79319C4.51934 4.60571 4.26514 4.50026 4 4.5H1V11.5ZM4 8H2V5.49925H4V8ZM7 11.5H6V4.5H9C9.26513 4.50026 9.51934 4.60571 9.70681 4.79319C9.89429 4.98066 9.99973 5.23486 10 5.5V8C9.99973 8.26514 9.89429 8.51934 9.70681 8.70681C9.51934 8.89429 9.26513 8.99974 9 9H7V11.5ZM7 8H9V5.49925H7V8ZM11 5.5H12.5V11.5H13.5V5.5H15V4.5H11V5.5Z" fill="black"/>
</svg>
