<svg width="16" height="16" viewBox="0 0 16 16" fill="none" xmlns="http://www.w3.org/2000/svg">
<path fill-rule="evenodd" clip-rule="evenodd" d="M8.5 2H12.5C12.7652 2 13.0196 2.10536 13.2071 2.29289C13.3946 2.48043 13.5 2.73478 13.5 3V10C13.5 10.2652 13.3946 10.5196 13.2071 10.7071C13.0196 10.8946 12.7652 11 12.5 11H8.5V14H10.5V15H5.5V14H7.5V11H3.5C3.23478 11 2.98043 10.8946 2.79289 10.7071C2.60536 10.5196 2.5 10.2652 2.5 10V3C2.5 2.73478 2.60536 2.48043 2.79289 2.29289C2.98043 2.10536 3.23478 2 3.5 2H7.5V1H8.5V2ZM3.5 10H12.5V3H3.5V10ZM7.5 5H8.5V9H7.5V5ZM10 7H11V9H10V7ZM6 6H5V9H6V6Z" fill="black"/>
</svg>
