<svg width="16" height="16" viewBox="0 0 16 16" fill="none" xmlns="http://www.w3.org/2000/svg">
<path fill-rule="evenodd" clip-rule="evenodd" d="M3 2H13C13.2651 2.00033 13.5193 2.10579 13.7067 2.29326C13.8942 2.48072 13.9997 2.73489 14 3V13C13.9997 13.2651 13.8942 13.5193 13.7067 13.7067C13.5193 13.8942 13.2651 13.9997 13 14H3C2.73489 13.9997 2.48072 13.8942 2.29326 13.7067C2.10579 13.5193 2.00033 13.2651 2 13V3C2.00033 2.73489 2.10579 2.48072 2.29326 2.29326C2.48072 2.10579 2.73489 2.00033 3 2ZM9 5V3H7V5H9ZM3 3V13H13.0006L13 3H10V6H6V3H3ZM7 9H4V10H7V9ZM9 11H4V12H9V11Z" fill="black"/>
</svg>
