<svg width="16" height="16" viewBox="0 0 16 16" fill="none" xmlns="http://www.w3.org/2000/svg">
<path fill-rule="evenodd" clip-rule="evenodd" d="M2 10.5H14C14.2651 10.4997 14.5193 10.3943 14.7068 10.2068C14.8943 10.0193 14.9997 9.76513 15 9.5V6.5C14.9997 6.23487 14.8943 5.98068 14.7068 5.7932C14.5193 5.60572 14.2651 5.50028 14 5.5H2C1.73487 5.50028 1.48068 5.60572 1.2932 5.7932C1.10572 5.98068 1.00028 6.23487 1 6.5V9.5C1.00028 9.76513 1.10572 10.0193 1.2932 10.2068C1.48068 10.3943 1.73487 10.4997 2 10.5ZM2 9.5V6.5H14V9.5H2ZM3 7.5H10V8.5H3V7.5Z" fill="black"/>
</svg>
