<svg width="16" height="16" viewBox="0 0 16 16" fill="none" xmlns="http://www.w3.org/2000/svg">
<path fill-rule="evenodd" clip-rule="evenodd" d="M10.4999 11H11.4999V8.7L13.3999 6.85C14.4499 5.8 14.9999 4.4 14.9999 2.95V2C14.9999 1.45 14.5499 1 13.9999 1H13.0499C11.5999 1 10.1999 1.55 9.19993 2.6L7.29993 4.5H3.49993C3.34993 4.5 3.19993 4.55 3.09993 4.75L1.09993 7.25C0.999933 7.4 0.999933 7.6 1.04993 7.75C1.09993 7.9 1.24993 8 1.44993 8.05L4.94993 8.55L5.09993 7.55L2.44993 7.15L3.74993 5.5H7.49993C7.64993 5.5 7.74993 5.45 7.79993 5.35L9.84993 3.3C10.6999 2.45 11.8499 2 13.0499 2H13.9999V2.9C13.9999 4.1 13.5499 5.25 12.6999 6.1L10.6499 8.15C10.5499 8.25 10.4999 8.35 10.4999 8.5V11ZM7.62646 7.66651L3.63135 11.6616L4.33845 12.3687L8.33356 8.37361L7.62646 7.66651ZM8 10.5L8.7 11.2L7.4 12.5H11.5V13.5H7.4L8.7 14.8L8 15.5L5.5 13L8 10.5Z" fill="black"/>
</svg>
