<svg width="16" height="16" viewBox="0 0 16 16" fill="none" xmlns="http://www.w3.org/2000/svg">
<path fill-rule="evenodd" clip-rule="evenodd" d="M14.2929 1L15 1.70655L2.70655 14H15V15H2C1.73478 15 1.48043 14.8946 1.29289 14.7071C1.10536 14.5196 1 14.2652 1 14V1H2V13.2925L14.2929 1ZM11 2C11 2.55228 10.5523 3 10 3C9.44771 3 9 2.55228 9 2C9 1.44772 9.44771 1 10 1C10.5523 1 11 1.44772 11 2ZM5 8C5 8.55228 4.55228 9 4 9C3.44772 9 3 8.55228 3 8C3 7.44772 3.44772 7 4 7C4.55228 7 5 7.44772 5 8ZM14 7C14.5523 7 15 6.55228 15 6C15 5.44772 14.5523 5 14 5C13.4477 5 13 5.44772 13 6C13 6.55228 13.4477 7 14 7ZM6.5 3.5C6.5 4.05228 6.05228 4.5 5.5 4.5C4.94772 4.5 4.5 4.05228 4.5 3.5C4.5 2.94772 4.94772 2.5 5.5 2.5C6.05228 2.5 6.5 2.94772 6.5 3.5ZM8 13C8.55228 13 9 12.5523 9 12C9 11.4477 8.55228 11 8 11C7.44772 11 7 11.4477 7 12C7 12.5523 7.44772 13 8 13Z" fill="black"/>
</svg>
