<svg width="16" height="16" viewBox="0 0 16 16" fill="none" xmlns="http://www.w3.org/2000/svg">
<path fill-rule="evenodd" clip-rule="evenodd" d="M6 6H5V4H6C6.26522 4 6.51957 3.89464 6.70711 3.70711C6.89464 3.51957 7 3.26522 7 3C7 2.73478 6.89464 2.48043 6.70711 2.29289C6.51957 2.10536 6.26522 2 6 2H5C4.73488 2.0003 4.4807 2.10576 4.29323 2.29323C4.10576 2.4807 4.00031 2.73488 4 3V3.25H3V3C3.0006 2.46975 3.2115 1.96139 3.58645 1.58644C3.96139 1.2115 4.46975 1.0006 5 1H6C6.53043 1 7.03914 1.21071 7.41422 1.58579C7.78929 1.96086 8 2.46957 8 3C8 3.53043 7.78929 4.03914 7.41422 4.41421C7.03914 4.78929 6.53043 5 6 5V6ZM5.5 8.5C5.91422 8.5 6.25 8.16421 6.25 7.75C6.25 7.33579 5.91422 7 5.5 7C5.08579 7 4.75 7.33579 4.75 7.75C4.75 8.16421 5.08579 8.5 5.5 8.5ZM12.2997 8.46845C12.0908 9.21997 11.7241 9.91831 11.224 10.5169L15 14.293L14.293 15L10.5169 11.2239C9.71437 11.8936 8.73751 12.3205 7.70092 12.4546C6.66432 12.5887 5.61098 12.4244 4.66445 11.981C3.71792 11.5377 2.91746 10.8335 2.35697 9.95129C1.79648 9.06904 1.4992 8.04525 1.5 7.00001H2.5C2.49972 7.77908 2.70177 8.54487 3.08638 9.22239C3.47099 9.8999 4.02497 10.4659 4.69406 10.865C5.36315 11.2641 6.12442 11.4825 6.90331 11.499C7.68221 11.5155 8.45203 11.3293 9.13738 10.9589C9.82274 10.5884 10.4001 10.0463 10.813 9.38567C11.2259 8.725 11.4601 7.96844 11.4928 7.19005C11.5254 6.41166 11.3553 5.63815 10.9991 4.94525C10.643 4.25235 10.113 3.66383 9.46105 3.23731L9.96055 2.37231C10.6185 2.79122 11.1796 3.34564 11.6063 3.99857C12.033 4.6515 12.3156 5.38792 12.4352 6.15871C12.5547 6.9295 12.5086 7.71692 12.2997 8.46845Z" fill="black"/>
</svg>
