<svg width="16" height="16" viewBox="0 0 16 16" fill="none" xmlns="http://www.w3.org/2000/svg">
<path fill-rule="evenodd" clip-rule="evenodd" d="M3.055 7.5H6C6.26522 7.5 6.51957 7.60536 6.70711 7.79289C6.89464 7.98043 7 8.23478 7 8.5V11.5C7 11.7652 6.89464 12.0196 6.70711 12.2071C6.51957 12.3946 6.26522 12.5 6 12.5H3C2.73478 12.5 2.48043 12.3946 2.29289 12.2071C2.10536 12.0196 2 11.7652 2 11.5V8.175C2.0003 7.26969 2.22408 6.37844 2.65147 5.58036C3.07885 4.78228 3.69664 4.10204 4.45 3.6L5.345 3L5.895 3.83L5 4.43C4.48016 4.77836 4.03869 5.23131 3.70379 5.75992C3.36889 6.28852 3.14793 6.88117 3.055 7.5ZM10.055 7.5H13C13.2652 7.5 13.5196 7.60536 13.7071 7.79289C13.8946 7.98043 14 8.23478 14 8.5V11.5C14 11.7652 13.8946 12.0196 13.7071 12.2071C13.5196 12.3946 13.2652 12.5 13 12.5H10C9.73478 12.5 9.48043 12.3946 9.29289 12.2071C9.10536 12.0196 9 11.7652 9 11.5V8.175C9.0003 7.26969 9.22408 6.37844 9.65147 5.58036C10.0789 4.78228 10.6966 4.10204 11.45 3.6L12.35 3L12.895 3.83L12 4.43C11.4802 4.77836 11.0387 5.23131 10.7038 5.75992C10.3689 6.28852 10.1479 6.88117 10.055 7.5Z" fill="black"/>
</svg>
