<svg width="16" height="16" viewBox="0 0 16 16" fill="none" xmlns="http://www.w3.org/2000/svg">
<path d="M15 1.70731L14.2927 1.00001L8.6466 6.64626C8.59902 6.69243 8.56108 6.7476 8.53502 6.80856C8.50895 6.86952 8.49527 6.93506 8.49477 7.00136C8.49426 7.06765 8.50695 7.13339 8.53209 7.19474C8.55724 7.25609 8.59433 7.31183 8.64121 7.35871C8.68809 7.40559 8.74383 7.44267 8.80518 7.46781C8.86653 7.49295 8.93227 7.50563 8.99857 7.50513C9.06487 7.50462 9.13041 7.49093 9.19137 7.46486C9.25233 7.43879 9.30749 7.40085 9.35365 7.35326L11.0808 5.62621C11.3251 5.99128 11.4681 6.41462 11.4953 6.85303C11.5224 7.29143 11.4328 7.7292 11.2355 8.12163C11.0382 8.51407 10.7403 8.84713 10.3722 9.0868C10.0041 9.32647 9.57896 9.46418 9.14025 9.48586C8.8962 8.98199 8.53561 8.54351 8.08836 8.20674C7.6411 7.86998 7.12005 7.64461 6.56835 7.54931C6.4804 7.1836 6.47708 6.80264 6.55865 6.43545C6.64021 6.06826 6.80451 5.72453 7.03903 5.43044C7.27354 5.13636 7.57208 4.89968 7.91191 4.73845C8.25174 4.57721 8.62389 4.49566 9 4.50001V3.50001C8.49388 3.49673 7.99315 3.60397 7.53277 3.81424C7.07238 4.0245 6.66344 4.33273 6.3345 4.71739C6.00556 5.10206 5.76456 5.55389 5.62831 6.04133C5.49206 6.52878 5.46385 7.04009 5.54565 7.53956C5.03684 7.60838 4.54968 7.78941 4.1194 8.06956C3.95666 7.33945 3.96031 6.58207 4.13008 5.85357C4.29986 5.12506 4.63141 4.4441 5.10016 3.86115C5.56891 3.27821 6.16285 2.80823 6.83794 2.48606C7.51303 2.16388 8.25198 1.99776 9 2.00001V1.00001C8.05584 0.998086 7.12459 1.21946 6.2823 1.64607C5.44 2.07268 4.71053 2.69242 4.15342 3.45471C3.59632 4.21701 3.22738 5.10024 3.07671 6.03231C2.92605 6.96438 2.99793 7.91887 3.2865 8.81786C2.96152 9.21288 2.72803 9.67496 2.6028 10.1709C2.05786 10.38 1.60335 10.7733 1.31821 11.2826C1.03308 11.7919 0.93533 12.3849 1.04195 12.9588C1.14856 13.5327 1.45281 14.051 1.90184 14.4239C2.35087 14.7968 2.91633 15.0006 3.5 15H8.5C9.13373 14.9982 9.74302 14.7553 10.2043 14.3208C10.6656 13.8862 10.9443 13.2925 10.9839 12.66C12.1556 12.2465 13.1707 11.4804 13.8897 10.467C14.6088 9.45366 14.9966 8.24258 15 7.00001C15.0053 5.5807 14.5017 4.20651 13.5806 3.12671L15 1.70731ZM8.5 14H3.5C3.13279 14.0007 2.77814 13.8664 2.50348 13.6226C2.22883 13.3789 2.05333 13.0427 2.01035 12.678C1.96737 12.3133 2.05991 11.9455 2.27037 11.6446C2.48084 11.3437 2.79455 11.1306 3.15185 11.0459L3.4812 10.9673L3.5305 10.6323C3.6178 10.0397 3.91527 9.49827 4.36864 9.1068C4.822 8.71533 5.40101 8.49994 6 8.49994C6.59899 8.49994 7.17801 8.71533 7.63137 9.1068C8.08473 9.49827 8.38221 10.0397 8.4695 10.6323L8.5188 10.9671L8.84815 11.0457C9.2057 11.1302 9.5197 11.3432 9.73038 11.6442C9.94106 11.9452 10.0337 12.3131 9.99073 12.678C9.94773 13.0429 9.77207 13.3792 9.49719 13.623C9.22231 13.8667 8.8674 14.0009 8.5 14ZM14 7.00001C13.9973 8.00078 13.6953 8.97787 13.1329 9.80569C12.5705 10.6335 11.7735 11.2742 10.8441 11.6455C10.6555 11.1282 10.3 10.6884 9.83375 10.3955C10.3952 10.2583 10.9139 9.98409 11.3433 9.59734C11.7728 9.2106 12.0997 8.72341 12.2948 8.17937C12.4899 7.63533 12.5471 7.05142 12.4612 6.47988C12.3753 5.90834 12.1491 5.367 11.8028 4.90431L12.8688 3.83841C13.6032 4.72801 14.0033 5.84644 14 7.00001Z" fill="black"/>
</svg>
