<svg width="16" height="16" viewBox="0 0 16 16" fill="none" xmlns="http://www.w3.org/2000/svg">
<path d="M15 1.7073L14.2927 1L8.6466 6.64625C8.59901 6.69241 8.56108 6.74758 8.53501 6.80855C8.50895 6.86951 8.49526 6.93504 8.49476 7.00134C8.49426 7.06764 8.50695 7.13338 8.53209 7.19473C8.55723 7.25608 8.59432 7.31181 8.64121 7.35869C8.68809 7.40557 8.74383 7.44266 8.80518 7.4678C8.86653 7.49293 8.93227 7.50562 8.99857 7.50511C9.06487 7.50461 9.1304 7.49092 9.19136 7.46485C9.25232 7.43878 9.30749 7.40084 9.35365 7.35325L11.0808 5.6262C11.3316 6.00192 11.4755 6.43879 11.4971 6.89002C11.5188 7.34125 11.4172 7.78987 11.2035 8.18784C10.9897 8.58581 10.6717 8.91816 10.2836 9.14929C9.89544 9.38043 9.45175 9.50166 9 9.5C8.89835 9.4978 8.79693 9.48945 8.6963 9.475C8.28824 8.49264 7.5076 7.71196 6.52525 7.30385C6.47376 6.95165 6.49964 6.59245 6.60108 6.25127C6.70252 5.91008 6.87709 5.59509 7.11263 5.32822C7.34818 5.06136 7.63904 4.84902 7.96498 4.70599C8.29093 4.56295 8.64413 4.49266 9 4.5V3.5C8.07206 3.50103 7.18242 3.87011 6.52627 4.52627C5.87011 5.18242 5.50103 6.07206 5.5 7C5.5 7.0117 5.5028 7.02345 5.50295 7.035C5.3362 7.01283 5.16822 7.00114 5 7C4.66446 7.0012 4.33042 7.04488 4.00585 7.13C4.00475 7.08645 4 7.04395 4 7C4.00151 5.67438 4.52878 4.40349 5.46613 3.46613C6.40349 2.52878 7.67438 2.00151 9 2V1C7.40926 1.00181 5.88419 1.63454 4.75936 2.75936C3.63454 3.88419 3.00181 5.40926 3 7C3 7.1775 3.00855 7.35305 3.02355 7.52685C2.48825 7.83078 2.03038 8.25424 1.68564 8.7642C1.34089 9.27417 1.11859 9.85687 1.03606 10.4669C0.953524 11.0769 1.01299 11.6977 1.20983 12.2809C1.40666 12.8642 1.73555 13.3941 2.17083 13.8293C2.60612 14.2646 3.13605 14.5934 3.71932 14.7902C4.30258 14.987 4.92341 15.0464 5.5334 14.9638C6.1434 14.8812 6.72608 14.6589 7.23602 14.3141C7.74595 13.9693 8.16937 13.5114 8.47325 12.9761C8.64825 12.9911 8.8242 13 9 13C10.1441 13.0014 11.2648 12.6752 12.2295 12.0601C13.1941 11.4449 13.9626 10.5664 14.4439 9.52846C14.9252 8.4905 15.0994 7.33644 14.9457 6.20266C14.7921 5.06888 14.3171 4.00278 13.5769 3.13035L15 1.7073ZM7.955 10.5H6.97815C6.91321 9.74612 6.70659 9.01126 6.36915 8.334C6.7833 8.54739 7.14216 8.85416 7.41739 9.23007C7.69261 9.60598 7.87666 10.0407 7.955 10.5ZM2.045 11.5H3.02175C3.08672 12.254 3.29337 12.9889 3.63085 13.6663C3.21667 13.4528 2.85779 13.146 2.58256 12.7701C2.30733 12.3941 2.1233 11.9593 2.045 11.5ZM3.0216 10.5H2.045C2.12332 10.0408 2.30735 9.606 2.58254 9.23009C2.85774 8.85419 3.21658 8.54741 3.6307 8.334C3.29331 9.01128 3.08671 9.74613 3.02175 10.5H3.0216ZM5 13.9929C4.45573 13.2655 4.1196 12.4038 4.0276 11.5H5.9726C5.88054 12.4038 5.54434 13.2655 5 13.9929ZM4.0276 10.5C4.1196 9.59635 4.45574 8.73476 5 8.00755C5.5443 8.73474 5.88044 9.59634 5.9724 10.5H4.0276ZM6.36915 13.6663C6.70663 12.9889 6.91327 12.254 6.97825 11.5H7.955C7.8767 11.9593 7.69267 12.3941 7.41744 12.7701C7.14221 13.146 6.78333 13.4528 6.36915 13.6663ZM14 7C13.9985 8.32562 13.4712 9.59651 12.5339 10.5339C11.5965 11.4712 10.3256 11.9985 9 12C8.95655 12 8.91335 11.995 8.87 11.9942C9.00146 11.5065 9.03377 10.9974 8.965 10.4971C8.97685 10.4971 8.9883 10.5 9 10.5C9.64956 10.5001 10.2863 10.3194 10.839 9.9781C11.3917 9.63683 11.8385 9.14847 12.1294 8.56769C12.4203 7.9869 12.5438 7.33662 12.4861 6.68962C12.4285 6.04262 12.1918 5.42445 11.8027 4.9043L12.8684 3.8386C13.6006 4.72942 14.0006 5.8469 14 7Z" fill="black"/>
</svg>
