<svg width="16" height="16" viewBox="0 0 16 16" fill="none" xmlns="http://www.w3.org/2000/svg">
<path fill-rule="evenodd" clip-rule="evenodd" d="M14.7068 5.70677C14.5193 5.89424 14.2651 5.9997 14 6H10C9.73488 5.9997 9.4807 5.89424 9.29323 5.70677C9.10576 5.5193 9.0003 5.26512 9 5V4.5H6C5.73488 4.5003 5.4807 4.60576 5.29323 4.79323C5.10576 4.9807 5.0003 5.23488 5 5.5V7H14C14.2651 7.0003 14.5193 7.10576 14.7068 7.29323C14.8942 7.4807 14.9997 7.73488 15 8V14C14.9997 14.2651 14.8942 14.5193 14.7068 14.7068C14.5193 14.8942 14.2651 14.9997 14 15H2C1.73488 14.9997 1.4807 14.8942 1.29323 14.7068C1.10576 14.5193 1.0003 14.2651 1 14V8C1.0003 7.73488 1.10576 7.4807 1.29323 7.29323C1.4807 7.10576 1.73488 7.0003 2 7V2H3V7H4V5.5C4.0006 4.96975 4.2115 4.46139 4.58644 4.08644C4.96139 3.7115 5.46975 3.5006 6 3.5H9V3C9.0003 2.73488 9.10576 2.4807 9.29323 2.29323C9.4807 2.10576 9.73488 2.0003 10 2H14C14.2651 2.0003 14.5193 2.10576 14.7068 2.29323C14.8942 2.4807 14.9997 2.73488 15 3V5C14.9997 5.26512 14.8942 5.5193 14.7068 5.70677ZM14 3H12V5H14V3ZM11 3H10V5H11V3ZM2 14H14V8H2V14ZM3.88886 12.6629C4.21776 12.8827 4.60444 13 5 13C5.53025 12.9994 6.03861 12.7885 6.41356 12.4136C6.7885 12.0386 6.99941 11.5303 7 11C7 10.6044 6.8827 10.2178 6.66294 9.88886C6.44318 9.55996 6.13082 9.30362 5.76537 9.15224C5.39992 9.00087 4.99778 8.96126 4.60982 9.03843C4.22186 9.1156 3.86549 9.30608 3.58579 9.58579C3.30608 9.86549 3.1156 10.2219 3.03843 10.6098C2.96126 10.9978 3.00087 11.3999 3.15224 11.7654C3.30362 12.1308 3.55996 12.4432 3.88886 12.6629ZM4.44443 10.1685C4.60888 10.0587 4.80222 10 5 10C5.26513 10.0003 5.51932 10.1057 5.7068 10.2932C5.89428 10.4807 5.99972 10.7349 6 11C6 11.1978 5.94135 11.3911 5.83147 11.5556C5.72159 11.72 5.56541 11.8482 5.38268 11.9239C5.19996 11.9996 4.99889 12.0194 4.80491 11.9808C4.61093 11.9422 4.43275 11.847 4.29289 11.7071C4.15304 11.5673 4.0578 11.3891 4.01922 11.1951C3.98063 11.0011 4.00043 10.8 4.07612 10.6173C4.15181 10.4346 4.27998 10.2784 4.44443 10.1685ZM8.5 10H13V11H8.5V10ZM13 12H8.5V13H13V12Z" fill="black"/>
</svg>
