<svg width="16" height="16" viewBox="0 0 16 16" fill="none" xmlns="http://www.w3.org/2000/svg">
<path fill-rule="evenodd" clip-rule="evenodd" d="M12 5H14C14.2652 5 14.5196 5.10536 14.7071 5.29289C14.8946 5.48043 15 5.73478 15 6V14C15 14.2652 14.8946 14.5196 14.7071 14.7071C14.5196 14.8946 14.2652 15 14 15H2C1.73478 15 1.48043 14.8946 1.29289 14.7071C1.10536 14.5196 1 14.2652 1 14V6C1 5.73478 1.10536 5.48043 1.29289 5.29289C1.48043 5.10536 1.73478 5 2 5H3V4H4V5H5.5V4H6.5V5H11V1H12V5ZM2 6V14H14V6H2ZM3.88886 12.6629C4.21776 12.8827 4.60444 13 5 13C5.53043 13 6.03914 12.7893 6.41421 12.4142C6.78929 12.0391 7 11.5304 7 11C7 10.6044 6.8827 10.2178 6.66294 9.88886C6.44318 9.55996 6.13082 9.30362 5.76537 9.15224C5.39992 9.00087 4.99778 8.96126 4.60982 9.03843C4.22186 9.1156 3.86549 9.30608 3.58579 9.58579C3.30608 9.86549 3.1156 10.2219 3.03843 10.6098C2.96126 10.9978 3.00087 11.3999 3.15224 11.7654C3.30362 12.1308 3.55996 12.4432 3.88886 12.6629ZM4.44443 10.1685C4.60888 10.0587 4.80222 10 5 10C5.26522 10 5.51957 10.1054 5.70711 10.2929C5.89464 10.4804 6 10.7348 6 11C6 11.1978 5.94135 11.3911 5.83147 11.5556C5.72159 11.72 5.56541 11.8482 5.38268 11.9239C5.19996 11.9996 4.99889 12.0194 4.80491 11.9808C4.61093 11.9422 4.43275 11.847 4.29289 11.7071C4.15304 11.5673 4.0578 11.3891 4.01922 11.1951C3.98063 11.0011 4.00043 10.8 4.07612 10.6173C4.15181 10.4346 4.27998 10.2784 4.44443 10.1685ZM6.5 7H3.5V8H6.5V7ZM8.5 8H13V9H8.5V8ZM13 10H8.5V11H13V10ZM8.5 12H13V13H8.5V12Z" fill="black"/>
</svg>
