<svg width="16" height="16" viewBox="0 0 16 16" fill="none" xmlns="http://www.w3.org/2000/svg">
<path fill-rule="evenodd" clip-rule="evenodd" d="M10.5 3.5H11C11.2651 3.5003 11.5193 3.60576 11.7068 3.79323C11.8942 3.9807 11.9997 4.23488 12 4.5V14C11.9997 14.2651 11.8942 14.5193 11.7068 14.7068C11.5193 14.8942 11.2651 14.9997 11 15H5C4.73488 14.9997 4.4807 14.8942 4.29323 14.7068C4.10576 14.5193 4.0003 14.2651 4 14V8.5H3V7.5H4V6.5H3V5.5H4V4.5C4.0003 4.23488 4.10576 3.9807 4.29323 3.79323C4.4807 3.60576 4.73488 3.5003 5 3.5H9.5V1H10.5V3.5ZM5 4.5V14H11V4.5H5ZM6.5 5.5H9.5V6.5H6.5V5.5ZM6.5 7.5H9.5V8.5H6.5V7.5ZM8 12.5C8.55228 12.5 9 12.0523 9 11.5C9 10.9477 8.55228 10.5 8 10.5C7.44772 10.5 7 10.9477 7 11.5C7 12.0523 7.44772 12.5 8 12.5Z" fill="black"/>
</svg>
