<svg width="16" height="16" viewBox="0 0 16 16" fill="none" xmlns="http://www.w3.org/2000/svg">
<path fill-rule="evenodd" clip-rule="evenodd" d="M10.8328 2.00414C11.6339 2.65376 12.1873 3.55901 12.4004 4.56815C13.1894 4.72903 13.8906 5.17722 14.3678 5.82577C14.8451 6.47433 15.0646 7.27703 14.9835 8.0782C14.9025 8.87936 14.5268 9.62189 13.9294 10.1618C13.3319 10.7016 12.5552 11.0004 11.75 11.0001H10.8088L9.94699 12.7237C9.88767 12.8423 9.78366 12.9325 9.65785 12.9744C9.59555 12.9952 9.52977 13.0035 9.46427 12.9988C9.39876 12.9942 9.33482 12.9767 9.27609 12.9473C9.21735 12.9179 9.16498 12.8773 9.12196 12.8277C9.07893 12.7781 9.0461 12.7205 9.02534 12.6582C9.00458 12.5959 8.99629 12.5301 9.00094 12.4646C9.0056 12.3991 9.02312 12.3351 9.05249 12.2764L9.69064 11.0001H4.24999C3.4447 11.0004 2.668 10.7016 2.07053 10.1617C1.47307 9.62177 1.09742 8.87919 1.01647 8.07799C0.935509 7.27679 1.15501 6.47408 1.6324 5.82555C2.10978 5.17703 2.81102 4.72892 3.60009 4.56815C3.81315 3.55901 4.3666 2.65376 5.1677 2.00414C5.9688 1.35452 6.96885 1 8.00024 1C9.03163 1 10.0317 1.35452 10.8328 2.00414ZM4.24999 10.0001H11.75C12.3311 10.0003 12.8898 9.77555 13.3088 9.37294C13.7279 8.97034 13.9748 8.42114 13.9979 7.84047C14.0209 7.2598 13.8183 6.69276 13.4324 6.25822C13.0466 5.82367 12.5075 5.55537 11.9282 5.50955L11.5205 5.4776L11.4712 5.0716C11.3674 4.22414 10.9571 3.44395 10.3177 2.87812C9.67833 2.31229 8.85403 1.99993 8.00024 1.99993C7.14644 1.99993 6.32214 2.31229 5.68277 2.87812C5.04339 3.44395 4.63311 4.22414 4.52929 5.0716L4.47974 5.4776L4.07199 5.50955C3.49269 5.55537 2.95362 5.82366 2.56777 6.25818C2.18193 6.6927 1.97928 7.25972 2.00229 7.84037C2.02531 8.42102 2.27221 8.97022 2.69124 9.37284C3.11026 9.77546 3.66888 10.0002 4.24999 10.0001ZM5.25649 14.9368C5.33094 14.9783 5.41476 15.0001 5.5 15.0001C5.59287 15.0002 5.68393 14.9744 5.76293 14.9256C5.84193 14.8767 5.90573 14.8068 5.94715 14.7237L6.94715 12.7237C6.97713 12.6649 6.99517 12.6008 7.00024 12.535C7.00531 12.4692 6.99731 12.4031 6.97669 12.3404C6.95608 12.2777 6.92326 12.2197 6.88012 12.1698C6.83699 12.1198 6.7844 12.0789 6.72538 12.0494C6.66636 12.0199 6.60208 12.0023 6.53625 11.9978C6.47042 11.9932 6.40434 12.0017 6.34181 12.0228C6.27929 12.0439 6.22156 12.0772 6.17196 12.1207C6.12236 12.1643 6.08186 12.2172 6.0528 12.2764L5.0528 14.2764C5.01467 14.3527 4.99665 14.4374 5.00047 14.5225C5.00429 14.6077 5.02982 14.6904 5.07463 14.763C5.11943 14.8355 5.18204 14.8953 5.25649 14.9368Z" fill="black"/>
</svg>
