<svg width="16" height="16" viewBox="0 0 16 16" fill="none" xmlns="http://www.w3.org/2000/svg">
<g clip-path="url(#clip0_3_11455)">
<path fill-rule="evenodd" clip-rule="evenodd" d="M14.6718 6.21941C14.7797 6.29532 14.866 6.39805 14.9221 6.51747C14.9807 6.63744 15.007 6.7706 14.9985 6.90384C14.99 7.03708 14.947 7.16581 14.8736 7.27737C14.6 7.70215 14.2435 8.06728 13.8253 8.35082C13.4071 8.63436 12.9359 8.83047 12.44 8.92737C12.5287 9.36183 12.5192 9.81061 12.4122 10.2409C12.3053 10.6713 12.1035 11.0723 11.8218 11.4147C11.54 11.7571 11.1854 12.0322 10.7837 12.22C10.382 12.4078 9.94341 12.5035 9.50001 12.5001H8.80886L7.94726 14.2238C7.91851 14.2835 7.87817 14.337 7.82857 14.381C7.77898 14.425 7.72112 14.4587 7.65837 14.4802C7.59563 14.5016 7.52924 14.5104 7.46308 14.5059C7.39691 14.5015 7.3323 14.4839 7.27299 14.4542C7.21368 14.4246 7.16087 14.3834 7.11762 14.3331C7.07438 14.2828 7.04156 14.2245 7.02109 14.1614C7.00062 14.0983 6.9929 14.0318 6.99838 13.9657C7.00386 13.8996 7.02243 13.8353 7.05301 13.7765L7.69091 12.5001H4.00001C3.27681 12.501 2.57768 12.2403 2.03163 11.7662C1.48558 11.292 1.12946 10.6363 1.02898 9.92013C0.928495 9.20395 1.09043 8.47559 1.48491 7.86945C1.87939 7.26331 2.47978 6.8203 3.17531 6.62217C3.41856 5.86401 3.89527 5.20216 4.53729 4.73123C5.17932 4.26031 5.95379 4.00441 6.75001 4.00012C7.2009 4.0029 7.64746 4.08838 8.06751 4.25232C8.18873 3.4668 8.54543 2.73654 9.09049 2.15805C9.63554 1.57955 10.3433 1.18005 11.1202 1.01232L11.1298 1.01087C11.2547 0.989019 11.3831 1.00024 11.5024 1.04341C11.6216 1.08659 11.7275 1.16021 11.8095 1.25697C11.8989 1.36201 11.9596 1.48835 11.9859 1.62375C12.0122 1.75916 12.0031 1.89906 11.9595 2.02992C11.7737 2.57186 11.7353 3.15344 11.8482 3.71511C11.9611 4.27678 12.2212 4.79835 12.602 5.22642C13.0456 5.71201 13.6524 6.01745 14.3067 6.08457C14.438 6.09702 14.5639 6.14349 14.6718 6.21941ZM4.00001 11.5001H9.50001C10.0009 11.5011 10.4838 11.3137 10.853 10.9752C11.2222 10.6367 11.4506 10.1718 11.493 9.67267C11.5353 9.17358 11.3885 8.6768 11.0817 8.28091C10.7748 7.88502 10.3303 7.61896 9.83646 7.53552L9.50516 7.47912L9.43236 7.15102C9.29654 6.54088 8.95678 5.99527 8.46912 5.60423C7.98147 5.2132 7.37508 5.00009 6.75001 5.00009C6.12493 5.00009 5.51854 5.2132 5.03089 5.60423C4.54324 5.99527 4.20347 6.54088 4.06766 7.15102L3.99486 7.47912L3.66336 7.53552C3.16957 7.6191 2.72523 7.88522 2.41848 8.28111C2.11174 8.67699 1.965 9.17371 2.00738 9.67273C2.04975 10.1717 2.27814 10.6366 2.64724 10.9751C3.01634 11.3136 3.49919 11.501 4.00001 11.5001ZM10.3247 6.62217C11.0604 6.8322 11.6872 7.31695 12.0755 7.97617C12.7568 7.88936 13.38 7.54799 13.82 7.02062C13.07 6.86047 12.3882 6.47122 11.8691 5.90672C11.4128 5.39885 11.0863 4.78807 10.9174 4.12658C10.7485 3.46508 10.7423 2.77254 10.8993 2.10812C10.3614 2.3236 9.89731 2.69 9.56287 3.16318C9.22843 3.63637 9.03792 4.19615 9.01431 4.77512C9.63084 5.24121 10.0885 5.88626 10.3247 6.62217ZM4.02996 15.9473C4.09965 15.9819 4.17639 16 4.2542 16.0001C4.34728 16.0002 4.43856 15.9745 4.5178 15.9257C4.59704 15.8768 4.66111 15.8069 4.7028 15.7237L5.4495 14.2237C5.50728 14.1049 5.51584 13.9681 5.47331 13.843C5.43078 13.718 5.3406 13.6148 5.22238 13.5558C5.10417 13.4969 4.96747 13.487 4.842 13.5283C4.71653 13.5696 4.61244 13.6588 4.55236 13.7764L3.80566 15.2764C3.77621 15.3352 3.75865 15.3992 3.75399 15.4647C3.74933 15.5303 3.75766 15.5961 3.7785 15.6584C3.79934 15.7208 3.83228 15.7784 3.87543 15.828C3.91858 15.8775 3.97109 15.9181 4.02996 15.9473Z" fill="black"/>
</g>
<defs>
<clipPath id="clip0_3_11455">
<rect width="16" height="16" fill="white"/>
</clipPath>
</defs>
</svg>
