<svg width="16" height="16" viewBox="0 0 16 16" fill="none" xmlns="http://www.w3.org/2000/svg">
<path fill-rule="evenodd" clip-rule="evenodd" d="M14.2632 5.69912C14.7364 6.27825 14.9965 7.00222 15 7.75005C14.9989 8.40576 14.7996 9.04581 14.4283 9.58628C14.057 10.1267 13.5311 10.5424 12.9195 10.7787L11.9473 12.7237C11.9185 12.7835 11.8782 12.8369 11.8286 12.8809C11.779 12.9249 11.7211 12.9587 11.6584 12.9801C11.5956 13.0015 11.5292 13.0103 11.4631 13.0058C11.3969 13.0014 11.3323 12.9838 11.273 12.9542C11.2137 12.9245 11.1609 12.8833 11.1176 12.8331C11.0744 12.7828 11.0416 12.7244 11.0211 12.6613C11.0006 12.5983 10.9929 12.5317 10.9984 12.4657C11.0039 12.3996 11.0224 12.3352 11.053 12.2764L11.6909 11.0001H8.30886L7.44725 12.7237C7.41851 12.7835 7.37817 12.8369 7.32857 12.8809C7.27898 12.9249 7.22112 12.9587 7.15837 12.9801C7.09563 13.0015 7.02924 13.0103 6.96308 13.0058C6.89691 13.0014 6.8323 12.9838 6.77299 12.9542C6.71368 12.9245 6.66087 12.8833 6.61762 12.8331C6.57438 12.7828 6.54156 12.7244 6.52109 12.6613C6.50062 12.5983 6.4929 12.5317 6.49838 12.4657C6.50386 12.3996 6.52243 12.3352 6.553 12.2764L7.1909 11.0001H3.8087L2.94725 12.7237C2.91851 12.7835 2.87817 12.8369 2.82857 12.8809C2.77898 12.9249 2.72112 12.9587 2.65837 12.9801C2.59563 13.0015 2.52924 13.0103 2.46308 13.0058C2.39691 13.0014 2.3323 12.9838 2.27299 12.9542C2.21368 12.9245 2.16087 12.8833 2.11762 12.8331C2.07438 12.7828 2.04156 12.7244 2.02109 12.6613C2.00062 12.5983 1.9929 12.5317 1.99838 12.4657C2.00386 12.3996 2.02243 12.3352 2.053 12.2764L2.8513 10.6793C2.23637 10.3868 1.72902 9.90824 1.4011 9.31145C1.07317 8.71466 0.941276 8.02983 1.02409 7.35394C1.10691 6.67804 1.40024 6.04532 1.86256 5.54535C2.32487 5.04539 2.93274 4.70352 3.6001 4.56815C3.81316 3.55901 4.36662 2.65376 5.16772 2.00414C5.96882 1.35452 6.96886 1 8.00025 1C9.03164 1 10.0317 1.35452 10.8328 2.00414C11.6339 2.65376 12.1873 3.55901 12.4004 4.56815C13.1325 4.72076 13.7901 5.11999 14.2632 5.69912ZM4.25 10.0001H11.75C12.3311 10.0003 12.8898 9.77555 13.3088 9.37294C13.7279 8.97034 13.9749 8.42114 13.9979 7.84047C14.0209 7.2598 13.8183 6.69276 13.4325 6.25822C13.0466 5.82367 12.5075 5.55537 11.9282 5.50955L11.5205 5.4776L11.4712 5.0716C11.3674 4.22414 10.9571 3.44395 10.3177 2.87812C9.67835 2.31229 8.85405 1.99993 8.00025 1.99993C7.14646 1.99993 6.32216 2.31229 5.68278 2.87812C5.04341 3.44395 4.63313 4.22414 4.5293 5.0716L4.47975 5.4776L4.072 5.50955C3.49271 5.55537 2.95364 5.82366 2.56779 6.25818C2.18195 6.6927 1.9793 7.25972 2.00231 7.84037C2.02533 8.42102 2.27223 8.97022 2.69126 9.37284C3.11028 9.77546 3.6689 10.0002 4.25 10.0001ZM4.00001 15C3.91477 15.0001 3.83094 14.9783 3.75649 14.9368C3.68204 14.8953 3.61944 14.8354 3.57463 14.7629C3.52982 14.6904 3.5043 14.6076 3.50048 14.5225C3.49666 14.4373 3.51467 14.3526 3.55281 14.2764L4.55281 12.2761C4.58218 12.2174 4.62284 12.165 4.67245 12.122C4.72206 12.079 4.77966 12.0462 4.84195 12.0254C4.90425 12.0046 4.97003 11.9964 5.03552 12.001C5.10102 12.0057 5.16496 12.0232 5.22368 12.0526C5.28241 12.0819 5.33478 12.1226 5.37779 12.1722C5.42081 12.2218 5.45363 12.2794 5.47439 12.3417C5.49515 12.404 5.50343 12.4698 5.49877 12.5353C5.4941 12.6008 5.47658 12.6647 5.44721 12.7234L4.44721 14.7234C4.4058 14.8066 4.342 14.8766 4.26299 14.9254C4.18399 14.9743 4.09291 15.0001 4.00001 15ZM8.50001 15.0001C8.41477 15.0001 8.33094 14.9783 8.25649 14.9368C8.18204 14.8953 8.11944 14.8354 8.07463 14.7629C8.02983 14.6904 8.0043 14.6076 8.00048 14.5225C7.99666 14.4373 8.01467 14.3526 8.05281 14.2764L9.05281 12.2761C9.11213 12.1575 9.21614 12.0673 9.34195 12.0254C9.46777 11.9835 9.60508 11.9933 9.72369 12.0526C9.84229 12.1119 9.93247 12.2159 9.97439 12.3417C10.0163 12.4675 10.0065 12.6048 9.94721 12.7234L8.94721 14.7235C8.9058 14.8066 8.842 14.8766 8.76299 14.9254C8.68399 14.9743 8.59291 15.0001 8.50001 15.0001Z" fill="black"/>
</svg>
