<svg width="16" height="16" viewBox="0 0 16 16" fill="none" xmlns="http://www.w3.org/2000/svg">
<path fill-rule="evenodd" clip-rule="evenodd" d="M2.08348 10.1541C2.67657 10.6937 3.44819 10.995 4.24999 11H11.75C12.5518 10.995 13.3234 10.6937 13.9165 10.1541C14.5096 9.61449 14.8823 8.87471 14.9629 8.07697C15.0436 7.27922 14.8265 6.47982 14.3534 5.83246C13.8803 5.18509 13.1846 4.73547 12.4 4.57003C12.1841 3.56329 11.6296 2.66102 10.8288 2.01376C10.0281 1.36651 9.02961 1.01343 7.99999 1.01343C6.97037 1.01343 5.97189 1.36651 5.17115 2.01376C4.37041 2.66102 3.81584 3.56329 3.59999 4.57003C2.81543 4.73547 2.11972 5.18509 1.64662 5.83246C1.17351 6.47982 0.956412 7.27922 1.03706 8.07697C1.1177 8.87471 1.49039 9.61449 2.08348 10.1541ZM5.6843 2.87868C6.3233 2.31334 7.1468 2.00088 7.99999 2.00003C8.85278 2.00634 9.67392 2.3238 10.3092 2.89278C10.9444 3.46175 11.3501 4.24309 11.45 5.09003L11.5 5.50003H11.93C12.5267 5.5239 13.0895 5.78384 13.4946 6.22268C13.8997 6.66151 14.1139 7.24329 14.09 7.84003C14.0661 8.43677 13.8062 8.99958 13.3673 9.40466C12.9285 9.80974 12.3467 10.0239 11.75 10H4.24999C3.65325 10.0239 3.07148 9.80974 2.63264 9.40466C2.1938 8.99958 1.93386 8.43677 1.90999 7.84003C1.88612 7.24329 2.10028 6.66151 2.50536 6.22268C2.91044 5.78384 3.47325 5.5239 4.06999 5.50003H4.49999L4.52999 5.07003C4.63481 4.2233 5.0453 3.44402 5.6843 2.87868ZM6.77499 14.9451C6.84415 14.9821 6.92155 15.001 6.99999 15.0001C7.09232 14.9998 7.18278 14.974 7.26132 14.9254C7.33987 14.8769 7.40344 14.8075 7.44499 14.7251L8.44499 12.7251C8.48044 12.6662 8.50336 12.6006 8.51231 12.5324C8.52127 12.4642 8.51606 12.3949 8.49703 12.3289C8.478 12.2628 8.44554 12.2014 8.40169 12.1484C8.35784 12.0954 8.30354 12.0521 8.24218 12.0211C8.18082 11.9901 8.11372 11.972 8.04508 11.9681C7.97643 11.9642 7.90772 11.9745 7.84322 11.9983C7.77873 12.0221 7.71985 12.059 7.67025 12.1066C7.62066 12.1543 7.58142 12.2116 7.55499 12.2751L6.55499 14.2751C6.49568 14.3932 6.48554 14.5299 6.52676 14.6555C6.56798 14.781 6.65723 14.8851 6.77499 14.9451ZM9.99999 15.0001C9.92155 15.001 9.84415 14.9821 9.77499 14.9451C9.65723 14.8851 9.56798 14.781 9.52676 14.6555C9.48553 14.5299 9.49569 14.3932 9.55499 14.2751L10.555 12.2751C10.5814 12.2116 10.6207 12.1543 10.6703 12.1066C10.7198 12.059 10.7787 12.0221 10.8432 11.9983C10.9077 11.9745 10.9764 11.9642 11.0451 11.9681C11.1137 11.972 11.1808 11.9901 11.2422 12.0211C11.3035 12.0521 11.3578 12.0954 11.4017 12.1484C11.4455 12.2014 11.478 12.2628 11.497 12.3289C11.5161 12.3949 11.5213 12.4642 11.5123 12.5324C11.5034 12.6006 11.4804 12.6662 11.445 12.7251L10.445 14.7251C10.4034 14.8075 10.3399 14.8769 10.2613 14.9254C10.1828 14.974 10.0923 14.9998 9.99999 15.0001ZM3.77499 14.9451C3.84415 14.9821 3.92155 15.001 3.99999 15.0001C4.09232 14.9998 4.18278 14.974 4.26132 14.9254C4.33987 14.8769 4.40344 14.8075 4.44499 14.7251L5.44499 12.7251C5.48044 12.6662 5.50336 12.6006 5.51231 12.5324C5.52127 12.4642 5.51606 12.3949 5.49703 12.3289C5.478 12.2628 5.44554 12.2014 5.40169 12.1484C5.35784 12.0954 5.30354 12.0521 5.24218 12.0211C5.18082 11.9901 5.11372 11.972 5.04508 11.9681C4.97643 11.9642 4.90772 11.9745 4.84322 11.9983C4.77873 12.0221 4.71985 12.059 4.67025 12.1066C4.62066 12.1543 4.58142 12.2116 4.55499 12.2751L3.55499 14.2751C3.49569 14.3932 3.48553 14.5299 3.52676 14.6555C3.56798 14.781 3.65723 14.8851 3.77499 14.9451Z" fill="black"/>
</svg>
