<svg width="16" height="16" viewBox="0 0 16 16" fill="none" xmlns="http://www.w3.org/2000/svg">
<g clip-path="url(#clip0_3_11457)">
<path fill-rule="evenodd" clip-rule="evenodd" d="M10 0H11V1.5H10V0ZM14.2929 1.5003L13.2321 2.56104L13.9393 3.26821L15 2.20748L14.2929 1.5003ZM14.5 5H16V6H14.5V5ZM13.9392 7.73255L13.2323 8.4397L14.2931 9.50012L15 8.79297L13.9392 7.73255ZM4.2542 16C4.17639 15.9999 4.09965 15.9819 4.02995 15.9473C3.97108 15.9181 3.91857 15.8775 3.87542 15.828C3.83227 15.7784 3.79933 15.7208 3.77849 15.6585C3.75765 15.5961 3.74932 15.5303 3.75398 15.4647C3.75864 15.3992 3.7762 15.3352 3.80565 15.2764L4.55235 13.7762C4.61243 13.6585 4.71652 13.5694 4.84199 13.5281C4.96746 13.4868 5.10416 13.4966 5.22237 13.5556C5.34059 13.6145 5.43077 13.7177 5.4733 13.8428C5.51583 13.9679 5.50727 14.1046 5.4495 14.2234L4.7028 15.7234C4.66113 15.8067 4.59708 15.8767 4.51784 15.9255C4.43859 15.9744 4.34729 16.0002 4.2542 16ZM6.70709 1.50034L5.99991 2.20752L7.06064 3.26825L7.76782 2.56107L6.70709 1.50034ZM12.8525 3.6369C13.2723 4.16713 13.5005 4.82375 13.5 5.50007C13.4993 6.00433 13.3714 6.50028 13.1281 6.94197C12.8848 7.38367 12.534 7.75683 12.1081 8.02691C12.3676 8.48265 12.5027 8.99855 12.5 9.52294C12.4973 10.0473 12.3568 10.5618 12.0927 11.0148C11.8285 11.4678 11.45 11.8435 10.995 12.1042C10.5399 12.3648 10.0244 12.5014 9.5 12.5001H8.80885L7.94725 14.2237C7.9185 14.2835 7.87816 14.3369 7.82857 14.3809C7.77897 14.425 7.72111 14.4587 7.65837 14.4801C7.59562 14.5016 7.52923 14.5103 7.46307 14.5059C7.3969 14.5014 7.33229 14.4838 7.27298 14.4542C7.21368 14.4245 7.16086 14.3833 7.11762 14.3331C7.07437 14.2828 7.04156 14.2244 7.02108 14.1614C7.00061 14.0983 6.99289 14.0318 6.99837 13.9657C7.00385 13.8996 7.02242 13.8353 7.053 13.7764L7.6909 12.5001H4C3.27681 12.501 2.5777 12.2403 2.03167 11.7661C1.48564 11.2919 1.12953 10.6362 1.02906 9.92003C0.928593 9.20386 1.09054 8.47551 1.48501 7.86938C1.87949 7.26325 2.47988 6.82025 3.1754 6.62212C3.41863 5.86397 3.89532 5.20212 4.53733 4.73119C5.17934 4.26026 5.9538 4.00436 6.75 4.00007C7.11179 4.00243 7.47125 4.05822 7.81675 4.16562C8.11729 3.55975 8.61387 3.07331 9.22581 2.78533C9.83775 2.49736 10.5291 2.42478 11.1875 2.57937C11.8459 2.73397 12.4327 3.10666 12.8525 3.6369ZM4 11.5001H9.5C10.0009 11.5011 10.4839 11.3138 10.8532 10.9753C11.2224 10.6369 11.4509 10.1719 11.4933 9.6728C11.5357 9.17368 11.3889 8.67685 11.0821 8.28093C10.7752 7.885 10.3307 7.61891 9.8368 7.53547L9.5055 7.47907L9.4326 7.15097C9.29678 6.54083 8.95702 5.99522 8.46936 5.60418C7.98171 5.21315 7.37532 5.00004 6.75025 5.00004C6.12517 5.00004 5.51878 5.21315 5.03113 5.60418C4.54348 5.99522 4.20371 6.54083 4.0679 7.15097L3.995 7.47907L3.66345 7.53547C3.16955 7.61891 2.72507 7.88498 2.41821 8.28088C2.11135 8.67678 1.96454 9.17357 2.00691 9.67267C2.04928 10.1718 2.27773 10.6367 2.64693 10.9752C3.01613 11.3137 3.4991 11.5011 4 11.5001ZM10.3246 6.62212C10.7453 6.74346 11.1341 6.95603 11.4634 7.24472C11.7371 7.09497 11.9718 6.88308 12.1486 6.62611C12.3255 6.36913 12.4395 6.07423 12.4817 5.76514C12.5238 5.45604 12.4928 5.14138 12.3911 4.84645C12.2895 4.55152 12.1201 4.28456 11.8964 4.06704C11.6728 3.84953 11.4013 3.68753 11.1037 3.59407C10.806 3.50062 10.4906 3.47832 10.1828 3.52896C9.87501 3.57961 9.58338 3.70179 9.33139 3.88567C9.0794 4.06956 8.87408 4.31002 8.73195 4.58772C9.48659 5.0563 10.0508 5.77706 10.3246 6.62212Z" fill="black"/>
</g>
<defs>
<clipPath id="clip0_3_11457">
<rect width="16" height="16" fill="white"/>
</clipPath>
</defs>
</svg>
