<svg width="16" height="16" viewBox="0 0 16 16" fill="none" xmlns="http://www.w3.org/2000/svg">
<path fill-rule="evenodd" clip-rule="evenodd" d="M5 5.5V7.5C5 7.76522 4.89464 8.01957 4.70711 8.20711C4.51957 8.39464 4.26522 8.5 4 8.5H3.815L5 11.5H3.91L2.74 8.5H2V11.5H1V4.5H4C4.26522 4.5 4.51957 4.60536 4.70711 4.79289C4.89464 4.98043 5 5.23478 5 5.5ZM4 5.5H2V7.5H4V5.5ZM9 4.5H7C6.73478 4.5 6.48043 4.60536 6.29289 4.79289C6.10536 4.98043 6 5.23478 6 5.5V11.5H7V9H9V11.5H10V5.5C10 5.23478 9.89464 4.98043 9.70711 4.79289C9.51957 4.60536 9.26522 4.5 9 4.5ZM7 8V5.5H9V8H7ZM14.6 4.5L14.43 8.5L14.3 10.77L14.095 9L13.755 6.27H12.745L12.405 9L12.2 10.77L12.07 8.5L11.9 4.5H11L11.5 11.5H12.635L13.015 9.035L13.245 7L13.25 6.985L13.255 7L13.485 9.035L13.865 11.5H15L15.5 4.5H14.6Z" fill="black"/>
</svg>
