<svg width="16" height="16" viewBox="0 0 16 16" fill="none" xmlns="http://www.w3.org/2000/svg">
<path fill-rule="evenodd" clip-rule="evenodd" d="M3.5 1H12.5C12.7651 1.0003 13.0193 1.10576 13.2068 1.29323C13.3942 1.4807 13.4997 1.73488 13.5 2V14.5C13.5 14.6326 13.4473 14.7598 13.3536 14.8536C13.2598 14.9473 13.1326 15 13 15H12.5C12.4224 15 12.3458 14.982 12.2764 14.9473C12.2069 14.9125 12.1466 14.8621 12.1 14.8L11 13.3335L9.9 14.8C9.85144 14.8591 9.79038 14.9067 9.72122 14.9394C9.65205 14.9721 9.5765 14.9891 9.5 14.9891C9.4235 14.9891 9.34795 14.9721 9.27878 14.9394C9.20962 14.9067 9.14856 14.8591 9.1 14.8L8 13.3335L6.9 14.8C6.85144 14.8591 6.79038 14.9067 6.72122 14.9394C6.65205 14.9721 6.5765 14.9891 6.5 14.9891C6.4235 14.9891 6.34795 14.9721 6.27878 14.9394C6.20962 14.9067 6.14856 14.8591 6.1 14.8L5 13.3335L3.9 14.8C3.85346 14.8621 3.79308 14.9126 3.72364 14.9473C3.65421 14.982 3.57763 15.0001 3.5 15H3C2.86739 15 2.74021 14.9473 2.64645 14.8536C2.55268 14.7598 2.5 14.6326 2.5 14.5V2C2.50026 1.73486 2.60571 1.48066 2.79319 1.29319C2.98066 1.10571 3.23486 1.00026 3.5 1ZM11.4 12.2L12.5 13.6665V2H3.5V13.6665L4.6 12.2C4.64856 12.1409 4.70962 12.0933 4.77878 12.0606C4.84795 12.0279 4.9235 12.0109 5 12.0109C5.0765 12.0109 5.15205 12.0279 5.22122 12.0606C5.29038 12.0933 5.35144 12.1409 5.4 12.2L6.5 13.6665L7.6 12.2C7.64856 12.1409 7.70962 12.0933 7.77878 12.0606C7.84795 12.0279 7.9235 12.0109 8 12.0109C8.0765 12.0109 8.15205 12.0279 8.22122 12.0606C8.29038 12.0933 8.35144 12.1409 8.4 12.2L9.5 13.6665L10.6 12.2C10.6486 12.1409 10.7096 12.0933 10.7788 12.0606C10.8479 12.0279 10.9235 12.0109 11 12.0109C11.0765 12.0109 11.1521 12.0279 11.2212 12.0606C11.2904 12.0933 11.3514 12.1409 11.4 12.2ZM11.5 4H4.5V5H11.5V4ZM11.5 6H10.5V7H11.5V6ZM4.5 8H8.5V9H4.5V8ZM10.5 8H11.5V9H10.5V8ZM4.5 6H8.5V7H4.5V6Z" fill="black"/>
</svg>
