<svg width="16" height="16" viewBox="0 0 16 16" fill="none" xmlns="http://www.w3.org/2000/svg">
<path d="M8 1C7.09066 1.00205 6.20328 1.27954 5.45478 1.79591C4.70628 2.31229 4.13178 3.04331 3.80698 3.89266C3.48218 4.74202 3.42232 5.66984 3.63529 6.55389C3.84825 7.43794 4.32406 8.23673 5 8.845V15L8 13L11 15V8.845C11.6759 8.23673 12.1517 7.43794 12.3647 6.55389C12.5777 5.66984 12.5178 4.74202 12.193 3.89266C11.8682 3.04331 11.2937 2.31229 10.5452 1.79591C9.79672 1.27954 8.90934 1.00205 8 1ZM10 13.13L8.555 12.17L8 11.8L7.445 12.17L6 13.13V9.525C6.62025 9.83794 7.30528 10.001 8 10.001C8.69472 10.001 9.37975 9.83794 10 9.525V13.13ZM10.445 8C9.86675 8.56454 9.11096 8.91158 8.30592 8.98221C7.50089 9.05285 6.69621 8.84272 6.02849 8.38751C5.36076 7.9323 4.87114 7.26005 4.64272 6.48487C4.4143 5.7097 4.46117 4.87936 4.77537 4.13481C5.08957 3.39026 5.65174 2.77738 6.36645 2.40021C7.08116 2.02303 7.90437 1.90479 8.69634 2.06558C9.48832 2.22636 10.2003 2.65624 10.7113 3.28227C11.2223 3.90829 11.501 4.69187 11.5 5.5C11.4994 5.96596 11.4058 6.4271 11.2246 6.8564C11.0435 7.2857 10.7784 7.6745 10.445 8Z" fill="black"/>
</svg>
