<svg width="16" height="16" viewBox="0 0 16 16" fill="none" xmlns="http://www.w3.org/2000/svg">
<path fill-rule="evenodd" clip-rule="evenodd" d="M12.2313 6.5864L12.7551 4.8269L13.7113 5.1101L12.7071 8.5L9.31711 7.49585L9.60031 6.5398L11.3473 7.0547L8.80101 2.4712C8.63721 2.17625 8.33776 2 8.00011 2C7.66246 2 7.36301 2.1763 7.19921 2.4712L5.65941 5.2427L4.78516 4.75735L6.32496 1.9856C6.66781 1.3684 7.29406 1 8.00011 1C8.70616 1 9.33236 1.3684 9.67526 1.9856L12.2313 6.5864ZM2.9362 13C2.60195 13 2.3012 12.8281 2.13165 12.54C1.9621 12.2517 1.9578 11.9053 2.1202 11.6133L4.17575 7.9131L4.6997 9.6731L5.65575 9.3899L4.6516 6L1.2617 7.00415L1.5449 7.9602L3.2916 7.4453L1.24595 11.1274C0.909748 11.7329 0.918698 12.4502 1.2699 13.0471C1.62095 13.6438 2.2439 14 2.9363 14H6V13L2.9362 13ZM14.754 11.1274L13.715 9.25732L12.8407 9.74267L13.8797 11.6133C14.0421 11.9053 14.0379 12.2517 13.8683 12.54C13.6987 12.8281 13.398 13 13.0637 13H9.41505L10.7051 11.7051L10 11L7.5 13.5L10 16L10.7051 15.2949L9.41505 14H13.0637C13.7561 14 14.379 13.6438 14.7302 13.0471C15.0813 12.4502 15.0901 11.7329 14.754 11.1274Z" fill="black"/>
</svg>
