<svg width="16" height="16" viewBox="0 0 16 16" fill="none" xmlns="http://www.w3.org/2000/svg">
<path fill-rule="evenodd" clip-rule="evenodd" d="M5.60997 5.46879C5.98482 5.82274 6.48464 6.01374 7 5.99998C7.51536 6.01374 8.01518 5.82274 8.39003 5.46879C8.76488 5.11484 8.98421 4.62679 9 4.11148C8.98877 3.73392 8.87001 3.3674 8.6577 3.05498L7.4146 1.20703C7.36624 1.14274 7.30359 1.09056 7.2316 1.05463C7.15961 1.0187 7.08026 1 6.9998 1C6.91934 1 6.83999 1.0187 6.768 1.05463C6.69601 1.09056 6.63336 1.14274 6.585 1.20703L5.32665 3.07953C5.12261 3.38582 5.00937 3.74358 5 4.11148C5.01579 4.62679 5.23512 5.11484 5.60997 5.46879ZM6.1719 3.61283L7.00025 2.38158L7.8125 3.58818C7.92369 3.74113 7.98876 3.92272 8 4.11148C7.98416 4.36152 7.87018 4.59517 7.68289 4.76158C7.4956 4.92799 7.25016 5.01367 7 4.99998C6.74984 5.01367 6.5044 4.92799 6.31711 4.76158C6.12982 4.59517 6.01584 4.36152 6 4.11148C6.00881 3.93232 6.06843 3.75937 6.1719 3.61283ZM1.83274 12.256C2.3482 12.748 3.03764 13.0155 3.75 13.0001C4.46236 13.0155 5.1518 12.748 5.66726 12.256C6.18272 11.7641 6.48217 11.0879 6.5 10.3756C6.48665 9.8515 6.32356 9.34217 6.03 8.9078L4.255 6.26895C4.19932 6.18614 4.12413 6.11829 4.03605 6.07139C3.94797 6.02449 3.84971 5.99997 3.74992 6C3.65013 6.00003 3.55188 6.0246 3.46383 6.07156C3.37578 6.11851 3.30063 6.1864 3.245 6.26925L1.437 8.9601C1.16181 9.38177 1.01041 9.87218 1 10.3756C1.01783 11.0879 1.31728 11.7641 1.83274 12.256ZM2.28245 9.4935L3.75 7.3101L5.185 9.4421C5.3789 9.71583 5.4884 10.0403 5.5 10.3756C5.48223 10.8227 5.28816 11.2446 4.96023 11.549C4.6323 11.8534 4.19718 12.0156 3.75 12.0001C3.30282 12.0156 2.8677 11.8534 2.53977 11.549C2.21184 11.2446 2.01777 10.8227 2 10.3756C2.0096 10.0609 2.10747 9.75524 2.28245 9.4935ZM12.5 1L10 3.5L10.7071 4.20705L12 2.91405V8C11.9994 8.53025 11.7885 9.03861 11.4136 9.41356C11.0386 9.7885 10.5303 9.9994 10 10H8V11H10C10.7954 10.9991 11.5579 10.6828 12.1204 10.1204C12.6828 9.55794 12.9991 8.79538 13 8V2.91405L14.2929 4.20705L15 3.5L12.5 1ZM1 15V14H15V15H1Z" fill="black"/>
</svg>
