<svg width="16" height="16" viewBox="0 0 16 16" fill="none" xmlns="http://www.w3.org/2000/svg">
<path fill-rule="evenodd" clip-rule="evenodd" d="M7.5 15H8.5V1H7.5V15ZM9.693 7.60535L14.193 4.10535C14.2669 4.04787 14.3554 4.01229 14.4485 4.00265C14.5417 3.99302 14.6356 4.00972 14.7197 4.05086C14.8038 4.09199 14.8746 4.1559 14.9242 4.23533C14.9738 4.31475 15 4.40648 15 4.5001V11.5001C15.0001 11.5937 14.9738 11.6855 14.9243 11.765C14.8748 11.8444 14.8039 11.9084 14.7198 11.9495C14.6357 11.9907 14.5417 12.0074 14.4486 11.9978C14.3555 11.9882 14.2669 11.9526 14.193 11.8951L9.693 8.3951C9.63286 8.34835 9.58419 8.28849 9.55072 8.22007C9.51724 8.15165 9.49984 8.07649 9.49984 8.00032C9.49984 7.92415 9.51724 7.84899 9.55072 7.78057C9.58419 7.71216 9.63286 7.65229 9.693 7.60555V7.60535ZM6.44919 8.21993C6.48264 8.15147 6.50002 8.07629 6.5 8.0001C6.50002 7.92392 6.48264 7.84873 6.44919 7.78028C6.41574 7.71182 6.36711 7.65191 6.307 7.6051L1.807 4.1051C1.73309 4.04761 1.64453 4.01203 1.55139 4.0024C1.45825 3.99278 1.36429 4.0095 1.28019 4.05067C1.19609 4.09183 1.12523 4.15578 1.0757 4.23524C1.02616 4.3147 0.999935 4.40647 1 4.5001V11.5001C0.999935 11.5937 1.02616 11.6855 1.0757 11.765C1.12523 11.8444 1.19609 11.9084 1.28019 11.9495C1.36429 11.9907 1.45825 12.0074 1.55139 11.9978C1.64453 11.9882 1.73309 11.9526 1.807 11.8951L6.307 8.3951C6.36711 8.3483 6.41574 8.28838 6.44919 8.21993ZM5.18555 8.0001L2 10.4779V5.5223L5.18555 8.0001Z" fill="black"/>
</svg>
