<svg width="16" height="16" viewBox="0 0 16 16" fill="none" xmlns="http://www.w3.org/2000/svg">
<path fill-rule="evenodd" clip-rule="evenodd" d="M7.78017 6.44919C7.84862 6.48264 7.92381 6.50002 8 6.5C8.07618 6.50002 8.15137 6.48264 8.21982 6.44919C8.28827 6.41574 8.34819 6.36711 8.395 6.307L11.895 1.807C11.9525 1.73309 11.9881 1.64453 11.9977 1.55139C12.0073 1.45825 11.9906 1.36429 11.9494 1.28019C11.9083 1.19609 11.8443 1.12523 11.7649 1.0757C11.6854 1.02616 11.5936 0.999935 11.5 1H4.5C4.40636 0.999935 4.31459 1.02616 4.23513 1.0757C4.15568 1.12523 4.09172 1.19609 4.05056 1.28019C4.0094 1.36429 3.99267 1.45825 4.0023 1.55139C4.01192 1.64453 4.04751 1.73309 4.105 1.807L7.605 6.307C7.6518 6.36711 7.71172 6.41574 7.78017 6.44919ZM8 5.18555L5.5222 2H10.4778L8 5.18555ZM1 7.5V8.5H15V7.5H1ZM8.395 9.69291L11.895 14.1929C11.9525 14.2668 11.9881 14.3554 11.9977 14.4485C12.0073 14.5417 11.9906 14.6356 11.9494 14.7197C11.9083 14.8038 11.8443 14.8747 11.7649 14.9242C11.6854 14.9737 11.5936 15 11.5 14.9999H4.5C4.40636 15 4.31459 14.9737 4.23513 14.9242C4.15568 14.8747 4.09172 14.8038 4.05056 14.7197C4.0094 14.6356 3.99267 14.5417 4.0023 14.4485C4.01192 14.3554 4.04751 14.2668 4.105 14.1929L7.605 9.69291C7.65174 9.63277 7.71161 9.58411 7.78002 9.55063C7.84844 9.51716 7.9236 9.49976 7.99977 9.49976C8.07594 9.49976 8.1511 9.51716 8.21952 9.55063C8.28794 9.58411 8.3478 9.63277 8.39455 9.69291H8.395Z" fill="black"/>
</svg>
