<svg width="16" height="16" viewBox="0 0 16 16" fill="none" xmlns="http://www.w3.org/2000/svg">
<path fill-rule="evenodd" clip-rule="evenodd" d="M1.29323 12.2068C1.4807 12.3942 1.73488 12.4997 2 12.5H6C6.26512 12.4997 6.5193 12.3942 6.70677 12.2068C6.89424 12.0193 6.9997 11.7651 7 11.5V10H6V11.5H2V4.5H6V6H7V4.5C6.99974 4.23486 6.89429 3.98066 6.70681 3.79319C6.51934 3.60571 6.26514 3.50026 6 3.5H2C1.73486 3.50026 1.48066 3.60571 1.29319 3.79319C1.10571 3.98066 1.00026 4.23486 1 4.5V11.5C1.0003 11.7651 1.10576 12.0193 1.29323 12.2068ZM14.7067 12.2067C14.5193 12.3942 14.2651 12.4996 14 12.5H10C9.73489 12.4996 9.48075 12.3942 9.29329 12.2067C9.10583 12.0193 9.00036 11.7651 9 11.5V10H10V11.5H14V4.5H10V6H9V4.5C9.0003 4.23488 9.10576 3.9807 9.29323 3.79323C9.4807 3.60576 9.73488 3.5003 10 3.5H14C14.2651 3.5003 14.5193 3.60576 14.7068 3.79323C14.8942 3.9807 14.9997 4.23488 15 4.5V11.5C14.9996 11.7651 14.8942 12.0193 14.7067 12.2067ZM6 7.5H4V8.5H6V7.5ZM10 7.5H12V8.5H10V7.5ZM9 7.5H7V8.5H9V7.5Z" fill="black"/>
</svg>
