<svg width="16" height="16" viewBox="0 0 16 16" fill="none" xmlns="http://www.w3.org/2000/svg">
<path fill-rule="evenodd" clip-rule="evenodd" d="M7.5 11.4822C5.73176 11.4129 3.99848 10.9682 2.41525 10.1778C2.85407 11.3024 3.62167 12.2687 4.61791 12.9505C5.61415 13.6324 6.79278 13.9981 8 14V15C6.61553 15 5.26216 14.5895 4.11101 13.8203C2.95987 13.0511 2.06266 11.9579 1.53285 10.6788C1.00303 9.3997 0.86441 7.99224 1.13451 6.63437C1.4046 5.2765 2.07129 4.02922 3.05026 3.05026C4.02922 2.07129 5.2765 1.4046 6.63437 1.13451C7.99224 0.86441 9.3997 1.00303 10.6788 1.53285C11.9579 2.06266 13.0511 2.95987 13.8203 4.11101C14.5895 5.26216 15 6.61553 15 8H14C13.9978 7.71712 13.9755 7.43474 13.9334 7.155C12.1436 6.0724 10.0917 5.5001 8 5.5001C5.90826 5.5001 3.85639 6.0724 2.0666 7.155C2.02449 7.43474 2.00223 7.71712 2 8C2.00222 8.28321 2.02453 8.5659 2.06675 8.84595C3.71188 9.83857 5.58032 10.4013 7.5 10.4822V11.4822ZM11.3825 3.04983C10.3862 2.3678 9.20739 2.00194 8 2C6.79257 2.00188 5.61374 2.36771 4.61737 3.04974C3.62101 3.73177 2.85339 4.69833 2.4147 5.82325C4.14794 4.95318 6.06049 4.50008 7.99985 4.50008C9.93922 4.50008 11.8518 4.95318 13.585 5.82325C13.1463 4.69837 12.3788 3.73185 11.3825 3.04983ZM15 10.5V11.5H14V13H15V14H14V15H13V14H11.5V15H10.5V14H9.5V13H10.5V11.5H9.5V10.5H10.5V9.5H11.5V10.5H13V9.5H14V10.5H15ZM11.5 13H13V11.5H11.5V13Z" fill="black"/>
</svg>
