<svg width="16" height="16" viewBox="0 0 16 16" fill="none" xmlns="http://www.w3.org/2000/svg">
<path fill-rule="evenodd" clip-rule="evenodd" d="M11 2H13C13.2652 2 13.5196 2.10536 13.7071 2.29289C13.8946 2.48043 14 2.73478 14 3V5H13V3H11V4H10V3H6V4H5V3H3V13H5V14H3C2.73478 14 2.48043 13.8946 2.29289 13.7071C2.10536 13.5196 2 13.2652 2 13V3C2 2.73478 2.10536 2.48043 2.29289 2.29289C2.48043 2.10536 2.73478 2 3 2H5V1H6V2H10V1H11V2ZM13.5 7V6H15V9C14.9992 9.57603 14.7999 10.1342 14.4355 10.5804C14.0712 11.0265 13.5642 11.3335 13 11.4494V12C13 12.7956 12.6839 13.5587 12.1213 14.1213C11.5587 14.6839 10.7957 15 10 15C9.20435 15 8.44129 14.6839 7.87868 14.1213C7.31607 13.5587 7 12.7956 7 12V10.9079C6.6664 10.7899 6.38523 10.5578 6.20619 10.2526C6.02715 9.9474 5.96177 9.58873 6.02161 9.23998C6.08144 8.89124 6.26264 8.57487 6.53317 8.3468C6.80371 8.11873 7.14616 7.99364 7.5 7.99364C7.85385 7.99364 8.1963 8.11873 8.46683 8.3468C8.73737 8.57487 8.91856 8.89124 8.9784 9.23998C9.03824 9.58873 8.97286 9.9474 8.79382 10.2526C8.61478 10.5578 8.33361 10.7899 8 10.9079V12C8 12.5304 8.21072 13.0391 8.58579 13.4142C8.96086 13.7893 9.46957 14 10 14C10.5304 14 11.0391 13.7893 11.4142 13.4142C11.7893 13.0391 12 12.5304 12 12V11.4494C11.4358 11.3335 10.9288 11.0265 10.5645 10.5804C10.2001 10.1342 10.0008 9.57603 10 9V6H11.5V7H11V9C11 9.39782 11.158 9.77936 11.4393 10.0607C11.7206 10.342 12.1022 10.5 12.5 10.5C12.8978 10.5 13.2794 10.342 13.5607 10.0607C13.842 9.77936 14 9.39782 14 9V7H13.5ZM7.77779 9.08426C7.69556 9.02932 7.59889 9 7.5 9C7.36743 9.00012 7.24032 9.05284 7.14658 9.14658C7.05284 9.24032 7.00012 9.36743 7 9.5C7 9.59889 7.02933 9.69556 7.08427 9.77779C7.13921 9.86001 7.2173 9.9241 7.30866 9.96194C7.40002 9.99978 7.50056 10.0097 7.59755 9.99039C7.69454 9.9711 7.78363 9.92348 7.85356 9.85355C7.92348 9.78363 7.9711 9.69454 7.9904 9.59755C8.00969 9.50056 7.99979 9.40002 7.96194 9.30866C7.9241 9.2173 7.86001 9.13921 7.77779 9.08426Z" fill="black"/>
</svg>
