<svg width="16" height="16" viewBox="0 0 16 16" fill="none" xmlns="http://www.w3.org/2000/svg">
<path fill-rule="evenodd" clip-rule="evenodd" d="M13.7071 2.29289C13.8946 2.48043 14 2.73478 14 3V6H13V3H11V4H10V3H6V4H5V3H3V13H5V14H3C2.73478 14 2.48043 13.8946 2.29289 13.7071C2.10536 13.5196 2 13.2652 2 13V3C2 2.73478 2.10536 2.48043 2.29289 2.29289C2.48043 2.10536 2.73478 2 3 2H5V1H6V2H10V1H11V2H13C13.2652 2 13.5196 2.10536 13.7071 2.29289ZM14 11.1909L15 11.6909V14H12V15H10V14H7V11.6909L8 11.1909V10C8.00118 9.29169 8.25274 8.6066 8.71023 8.06585C9.16772 7.52509 9.80167 7.1635 10.5 7.045V6H11.5V7.045C12.1983 7.1635 12.8323 7.52509 13.2898 8.06585C13.7473 8.6066 13.9988 9.29169 14 10V11.1909ZM8 12.3091V13H14V12.3091L13 11.8091V10C13 9.46957 12.7893 8.96086 12.4142 8.58579C12.0391 8.21071 11.5304 8 11 8C10.4696 8 9.96086 8.21071 9.58579 8.58579C9.21071 8.96086 9 9.46957 9 10V11.8091L8 12.3091Z" fill="black"/>
</svg>
