<svg width="16" height="16" viewBox="0 0 16 16" fill="none" xmlns="http://www.w3.org/2000/svg">
<path fill-rule="evenodd" clip-rule="evenodd" d="M3.39 5.0001H6V6.0001H2V2.0001H3V3.8401C3.85447 2.81144 5.00541 2.07136 6.29589 1.72077C7.58637 1.37018 8.95358 1.42615 10.2111 1.88104C11.4686 2.33593 12.5552 3.1676 13.3227 4.26265C14.0903 5.35771 14.5014 6.66285 14.5 8.0001H13.5C13.5001 6.81439 13.117 5.66041 12.4078 4.71016C11.6986 3.75992 10.7013 3.0643 9.56462 2.72699C8.4279 2.38969 7.21261 2.42876 6.09991 2.83839C4.98721 3.24802 4.03667 4.00626 3.39 5.0001ZM12.61 11H10V10H14V14H13V12.16C12.1455 13.1887 10.9946 13.9287 9.70411 14.2793C8.41363 14.6299 7.04642 14.574 5.78892 14.1191C4.53141 13.6642 3.4448 12.8325 2.67727 11.7374C1.90973 10.6424 1.49863 9.33726 1.5 8H2.5C2.49993 9.18571 2.88303 10.3397 3.59221 11.2899C4.30139 12.2402 5.29867 12.9358 6.43539 13.2731C7.5721 13.6104 8.78739 13.5713 9.90009 13.1617C11.0128 12.7521 11.9633 11.9938 12.61 11Z" fill="black"/>
</svg>
