<svg width="16" height="16" viewBox="0 0 16 16" fill="none" xmlns="http://www.w3.org/2000/svg">
<path fill-rule="evenodd" clip-rule="evenodd" d="M13.0859 3H3C2.73488 3.00032 2.48071 3.10578 2.29324 3.29324C2.10578 3.48071 2.00032 3.73488 2 4V7.5H3V4H13.0859L11.2929 5.79295L12 6.5L15 3.5L12 0.5L11.2929 1.20705L13.0859 3ZM2.91405 12L4.70705 10.2071L4 9.5L1 12.5L4 15.5L4.707 14.7929L2.91405 13H13C13.2651 12.9997 13.5193 12.8942 13.7068 12.7068C13.8942 12.5193 13.9997 12.2651 14 12V8.5H13V12H2.91405Z" fill="black"/>
</svg>
