<svg width="16" height="16" viewBox="0 0 16 16" fill="none" xmlns="http://www.w3.org/2000/svg">
<path fill-rule="evenodd" clip-rule="evenodd" d="M14 11V9H15V11C14.9997 11.2651 14.8942 11.5193 14.7068 11.7068C14.5193 11.8942 14.2651 11.9997 14 12H12V14C11.9997 14.2651 11.8942 14.5193 11.7068 14.7068C11.5193 14.8942 11.2651 14.9997 11 15H2C1.73488 14.9997 1.4807 14.8942 1.29323 14.7068C1.10576 14.5193 1.0003 14.2651 1 14V5C1.0003 4.73488 1.10576 4.4807 1.29323 4.29323C1.4807 4.10576 1.73488 4.0003 2 4H4V2C4.0003 1.73488 4.10576 1.4807 4.29323 1.29323C4.4807 1.10576 4.73488 1.0003 5 1H7V2H5V4H11C11.2651 4.0003 11.5193 4.10576 11.7068 4.29323C11.8942 4.4807 11.9997 4.73488 12 5V11H14ZM2 14H11V5H2V14ZM8.5 1H10.5V2H8.5V1ZM15 4H14V2H12V1H14C14.2651 1.00028 14.5193 1.10572 14.7068 1.2932C14.8943 1.48068 14.9997 1.73487 15 2V4ZM15 5.5H14V7.5H15V5.5Z" fill="black"/>
</svg>
