<svg width="16" height="16" viewBox="0 0 16 16" fill="none" xmlns="http://www.w3.org/2000/svg">
<path fill-rule="evenodd" clip-rule="evenodd" d="M9.28795 14.4528C9.35431 14.4839 9.42671 14.5 9.5 14.5C9.63261 14.5 9.75979 14.4473 9.85356 14.3536C9.94733 14.2598 10 14.1326 10 14V10.5143C11.9044 10.627 13.1891 11.419 14.6 13.3001C14.663 13.3841 14.7508 13.4461 14.8509 13.4774C14.9511 13.5087 15.0586 13.5076 15.1581 13.4745C15.2577 13.4413 15.3443 13.3776 15.4056 13.2925C15.467 13.2073 15.5 13.1051 15.5 13.0001C15.5 8.44627 13.5037 5.74772 10 5.51627V2.00002C9.99996 1.8973 9.96828 1.79708 9.90926 1.71301C9.85025 1.62893 9.76678 1.56506 9.67019 1.5301C9.5736 1.49514 9.46859 1.49077 9.36944 1.51759C9.27028 1.54442 9.18179 1.60113 9.116 1.68002L4.116 7.68002C4.04117 7.76986 4.00019 7.88309 4.00019 8.00002C4.00019 8.11695 4.04117 8.23018 4.116 8.32002L9.116 14.32C9.16288 14.3764 9.22159 14.4217 9.28795 14.4528ZM9 12.619L5.1508 8.00002L9 3.38092V6.00002C9 6.13263 9.05268 6.2598 9.14645 6.35357C9.24022 6.44734 9.3674 6.50002 9.5 6.50002C12.3294 6.50002 14.0432 8.27767 14.4207 11.5455C13.7974 10.8687 13.0346 10.3353 12.1851 9.98219C11.3355 9.62904 10.4194 9.46453 9.5 9.50002C9.3674 9.50002 9.24022 9.5527 9.14645 9.64647C9.05268 9.74023 9 9.86741 9 10V12.619ZM0.615904 8.31995L5.73195 14.4591L6.5 13.819L1.6508 7.99995L6.5 2.17995L5.7319 1.53955L0.615904 7.67995C0.541071 7.76979 0.500092 7.88302 0.500092 7.99995C0.500092 8.11688 0.541071 8.23011 0.615904 8.31995Z" fill="black"/>
</svg>
