<svg width="16" height="16" viewBox="0 0 16 16" fill="none" xmlns="http://www.w3.org/2000/svg">
<path fill-rule="evenodd" clip-rule="evenodd" d="M8 4H14C14.55 4 15 4.45 15 5V7.5H14V5H7.6L7.3 4.7L5.6 3H2V13H7V14H2C1.45 14 1 13.55 1 13V3C1 2.45 1.45 2 2 2H5.6C5.85 2 6.1 2.1 6.3 2.3L8 4ZM13.95 11H15V12H13.95C13.9 12.35 13.75 12.65 13.6 12.9L14.35 13.65L13.65 14.35L12.9 13.6C12.6 13.75 12.3 13.9 12 13.95V15H11V13.95C10.65 13.9 10.35 13.75 10.1 13.6L9.35 14.35L8.65 13.65L9.4 12.9C9.25 12.6 9.1 12.3 9.05 12H8V11H9.05C9.1 10.65 9.25 10.35 9.4 10.1L8.65 9.35L9.35 8.65L10.1 9.4C10.4 9.25 10.7 9.1 11 9.05V8H12V9.05C12.35 9.1 12.65 9.25 12.9 9.4L13.65 8.65L14.35 9.35L13.6 10.1C13.75 10.4 13.9 10.7 13.95 11ZM10 11.5C10 12.35 10.65 13 11.5 13C12.35 13 13 12.35 13 11.5C13 10.65 12.35 10 11.5 10C10.65 10 10 10.65 10 11.5Z" fill="black"/>
</svg>
