<svg width="16" height="16" viewBox="0 0 16 16" fill="none" xmlns="http://www.w3.org/2000/svg">
<path fill-rule="evenodd" clip-rule="evenodd" d="M11 14V11H12V14C12 14.2652 11.8946 14.5196 11.7071 14.7071C11.5196 14.8946 11.2652 15 11 15H3C2.73478 15 2.48043 14.8946 2.29289 14.7071C2.10536 14.5196 2 14.2652 2 14V2C2 1.73478 2.10536 1.48043 2.29289 1.29289C2.48043 1.10536 2.73478 1 3 1H8V2H3V14H11ZM13.12 1.22991L14.77 2.87991H14.765C14.9116 3.02945 14.9937 3.2305 14.9937 3.43991C14.9937 3.64931 14.9116 3.85036 14.765 3.99991L7.765 10.9999H5V8.22991L12 1.22991C12.1495 1.08332 12.3506 1.00122 12.56 1.00122C12.7694 1.00122 12.9705 1.08332 13.12 1.22991ZM6 9.99991H7.35L12.075 5.27991L10.72 3.92491L6 8.64991V9.99991ZM11.425 3.21991L12.78 4.57491L13.915 3.43991L12.56 2.08491L11.425 3.21991Z" fill="black"/>
</svg>
