<svg width="16" height="16" viewBox="0 0 16 16" fill="none" xmlns="http://www.w3.org/2000/svg">
<path fill-rule="evenodd" clip-rule="evenodd" d="M10.5 0.999981H11C11.3981 0.984516 11.7951 1.05153 12.1661 1.19683C12.5371 1.34212 12.874 1.56254 13.1557 1.84426C13.4374 2.12598 13.6579 2.46291 13.8032 2.83389C13.9484 3.20486 14.0155 3.60187 14 3.99998V8.99998C14 9.2652 13.8946 9.51955 13.7071 9.70709C13.5196 9.89462 13.2652 9.99998 13 9.99998H11.5V15H10.5V0.999981ZM11.5 8.99998H13V3.99998C13 3.81498 12.94 2.32498 11.5 2.04498V8.99998ZM7 5.5C7 6.03043 6.78929 6.53914 6.41421 6.91421C6.03914 7.28929 5.53043 7.5 5 7.5C4.46957 7.5 3.96086 7.28929 3.58579 6.91421C3.21071 6.53914 3 6.03043 3 5.5V1H2V5.5C2.00072 6.20844 2.25212 6.89377 2.70969 7.43461C3.16726 7.97546 3.80147 8.33693 4.5 8.455V15H5.5V8.455C6.19853 8.33693 6.83274 7.97546 7.29031 7.43461C7.74788 6.89377 7.99928 6.20844 8 5.5V1H7V5.5ZM5.5 1H4.5V6H5.5V1Z" fill="black"/>
</svg>
