<svg width="16" height="16" viewBox="0 0 16 16" fill="none" xmlns="http://www.w3.org/2000/svg">
<path fill-rule="evenodd" clip-rule="evenodd" d="M3.5 3.5V14H9V15H3.5C3.23478 15 2.98043 14.8946 2.79289 14.7071C2.60536 14.5196 2.5 14.2652 2.5 14V3.5C2.5 3.23478 2.60536 2.98043 2.79289 2.79289C2.98043 2.60536 3.23478 2.5 3.5 2.5H5V2C5 1.73478 5.10536 1.48043 5.29289 1.29289C5.48043 1.10536 5.73478 1 6 1H10C10.2652 1 10.5196 1.10536 10.7071 1.29289C10.8946 1.48043 11 1.73478 11 2V2.5H12.5C12.7652 2.5 13.0196 2.60536 13.2071 2.79289C13.3946 2.98043 13.5 3.23478 13.5 3.5V9H12.5V3.5H11V5H5V3.5H3.5ZM10 2H6V4H10V2ZM5 6.5H6V7.5H5V6.5ZM15 13C15 14.1046 14.1046 15 13 15C11.8954 15 11 14.1046 11 13C11 11.8954 11.8954 11 13 11C14.1046 11 15 11.8954 15 13ZM6 9H5V10H6V9ZM5 11.5H6V12.5H5V11.5ZM11 6.5H7V7.5H11V6.5ZM7 9H11V10H7V9ZM9.00005 11.5H7V12.5H9.00005V11.5Z" fill="black"/>
</svg>
