<svg width="16" height="16" viewBox="0 0 16 16" fill="none" xmlns="http://www.w3.org/2000/svg">
<g clip-path="url(#clip0_3_11381)">
<path fill-rule="evenodd" clip-rule="evenodd" d="M3.5 14V3.5H5V5H11V3.5H12.5V7.5H13.5V3.5C13.5 3.23478 13.3946 2.98043 13.2071 2.79289C13.0196 2.60536 12.7652 2.5 12.5 2.5H11V2C11 1.73478 10.8946 1.48043 10.7071 1.29289C10.5196 1.10536 10.2652 1 10 1H6C5.73478 1 5.48043 1.10536 5.29289 1.29289C5.10536 1.48043 5 1.73478 5 2V2.5H3.5C3.23478 2.5 2.98043 2.60536 2.79289 2.79289C2.60536 2.98043 2.5 3.23478 2.5 3.5V14C2.5 14.2652 2.60536 14.5196 2.79289 14.7071C2.98043 14.8946 3.23478 15 3.5 15H8V14H3.5ZM6 2H10V4H6V2ZM5 6.5H6V7.5H5V6.5ZM7 6.5H11V7.5H7V6.5ZM6 9H5V10H6V9ZM5 11.5H6V12.5H5V11.5ZM9 10.7067V9.50015H8V12.5001H11V11.5001H9.7119C9.89224 11.0869 10.181 10.7302 10.5475 10.4677C10.9141 10.2051 11.3448 10.0466 11.7941 10.0089C12.2434 9.9712 12.6945 10.0557 13.0997 10.2534C13.5048 10.4512 13.849 10.7548 14.0957 11.1322C14.3424 11.5096 14.4825 11.9466 14.5011 12.3971C14.5196 12.8476 14.4161 13.2947 14.2013 13.6911C13.9865 14.0875 13.6685 14.4185 13.281 14.6489C12.8935 14.8794 12.4509 15.0007 12 15.0002V16.0002C12.6118 16.0005 13.2131 15.8404 13.7437 15.5358C14.2743 15.2311 14.7157 14.7927 15.0239 14.2641C15.3321 13.7356 15.4962 13.1355 15.5 12.5236C15.5038 11.9118 15.347 11.3097 15.0453 10.7774C14.7436 10.2451 14.3076 9.80128 13.7808 9.49016C13.254 9.17904 12.6548 9.01155 12.043 9.00439C11.4312 8.99723 10.8282 9.15067 10.2943 9.44937C9.76031 9.74808 9.31404 10.1816 9 10.7067Z" fill="black"/>
</g>
<defs>
<clipPath id="clip0_3_11381">
<rect width="16" height="16" fill="white"/>
</clipPath>
</defs>
</svg>
