<svg width="16" height="16" viewBox="0 0 16 16" fill="none" xmlns="http://www.w3.org/2000/svg">
<path fill-rule="evenodd" clip-rule="evenodd" d="M4.76247 2.76247C5.88669 1.63826 7.41012 1.00463 9 1C10.5899 1.00463 12.1133 1.63826 13.2375 2.76247C14.3617 3.88669 14.9954 5.41012 15 7V8.5H14V7C14 5.67392 13.4732 4.40215 12.5355 3.46447C11.5979 2.52678 10.3261 2 9 2C7.67392 2 6.40215 2.52678 5.46447 3.46447C4.52678 4.40215 4 5.67392 4 7V10.1L5.8 8.3L6.5 9L3.5 12L0.5 9L1.2 8.3L3 10.1V7C3.00463 5.41012 3.63826 3.88669 4.76247 2.76247ZM15 10.705L13.205 12.5L15 14.295L14.295 15L12.5 13.205L10.705 15L10 14.295L11.795 12.5L10 10.705L10.705 10L12.5 11.795L14.295 10L15 10.705Z" fill="black"/>
</svg>
