<svg width="16" height="16" viewBox="0 0 16 16" fill="none" xmlns="http://www.w3.org/2000/svg">
<path fill-rule="evenodd" clip-rule="evenodd" d="M3.01118 12.3334C2.35189 11.3467 2 10.1867 2 9H3C3 9.98891 3.29324 10.9556 3.84265 11.7779C4.39206 12.6001 5.17295 13.241 6.08658 13.6194C7.00021 13.9978 8.00555 14.0969 8.97545 13.9039C9.94536 13.711 10.8363 13.2348 11.5355 12.5355C12.2348 11.8363 12.711 10.9454 12.9039 9.97545C13.0969 9.00555 12.9978 8.00021 12.6194 7.08658C12.241 6.17295 11.6001 5.39206 10.7779 4.84265C9.95561 4.29324 8.98891 4 8 4H6V6.5L3 3.5L6 0.5V3H8C9.18669 3 10.3467 3.35189 11.3334 4.01118C12.3201 4.67047 13.0892 5.60754 13.5433 6.7039C13.9974 7.80026 14.1162 9.00666 13.8847 10.1705C13.6532 11.3344 13.0818 12.4035 12.2426 13.2426C11.4035 14.0818 10.3344 14.6532 9.17054 14.8847C8.00666 15.1162 6.80026 14.9974 5.7039 14.5433C4.60754 14.0892 3.67047 13.3201 3.01118 12.3334ZM7.565 7.78991H9.29L9.28 7.15991H7.02L6.875 9.31491L7.47 9.39991C7.53906 9.3225 7.62009 9.25666 7.71 9.20491C7.82742 9.13957 7.96079 9.1084 8.095 9.11491C8.18051 9.10736 8.26664 9.11856 8.34738 9.14773C8.42812 9.1769 8.50152 9.22334 8.56245 9.2838C8.62339 9.34426 8.6704 9.41729 8.70021 9.4978C8.73001 9.57831 8.74188 9.66434 8.735 9.74991V9.77991C8.74664 9.96163 8.68751 10.1408 8.57 10.2799C8.50423 10.3437 8.42562 10.3928 8.3394 10.4238C8.25319 10.4548 8.16135 10.4671 8.07 10.4599C7.97666 10.4636 7.88343 10.45 7.795 10.4199C7.71815 10.3944 7.64565 10.3573 7.58 10.3099C7.51607 10.261 7.4589 10.2038 7.41 10.1399L7.275 9.93491L6.745 10.3399C6.80559 10.4371 6.87416 10.5291 6.95 10.6149C7.03025 10.7029 7.12289 10.7787 7.225 10.8399C7.34058 10.9097 7.46503 10.9635 7.595 10.9999C7.74876 11.0378 7.90665 11.0563 8.065 11.0549C8.2712 11.0605 8.47657 11.0266 8.67 10.9549C8.83647 10.8965 8.9883 10.8027 9.115 10.6799C9.23573 10.5613 9.32952 10.418 9.39 10.2599C9.45545 10.0893 9.4877 9.90767 9.485 9.72491C9.48656 9.55408 9.45603 9.38448 9.395 9.22491C9.33864 9.08096 9.25358 8.94997 9.145 8.83991C9.04044 8.73414 8.91422 8.65226 8.775 8.59991C8.62793 8.54505 8.47196 8.51792 8.315 8.51991C8.21355 8.51795 8.11239 8.53144 8.015 8.55991C7.9359 8.58601 7.86159 8.62486 7.795 8.67491C7.73145 8.72454 7.67581 8.78355 7.63 8.84991C7.58266 8.92253 7.53927 8.99763 7.5 9.07491L7.565 7.78991Z" fill="black"/>
</svg>
