<svg width="16" height="16" viewBox="0 0 16 16" fill="none" xmlns="http://www.w3.org/2000/svg">
<path fill-rule="evenodd" clip-rule="evenodd" d="M2 9C2 10.1867 2.35189 11.3467 3.01118 12.3334C3.67047 13.3201 4.60754 14.0892 5.7039 14.5433C6.80026 14.9974 8.00666 15.1162 9.17054 14.8847C10.3344 14.6532 11.4035 14.0818 12.2426 13.2426C13.0818 12.4035 13.6532 11.3344 13.8847 10.1705C14.1162 9.00666 13.9974 7.80026 13.5433 6.7039C13.0892 5.60754 12.3201 4.67047 11.3334 4.01118C10.3467 3.35189 9.18669 3 8 3H6V0.5L3 3.5L6 6.5V4H8C8.98891 4 9.95561 4.29324 10.7779 4.84265C11.6001 5.39206 12.241 6.17295 12.6194 7.08658C12.9978 8.00021 13.0969 9.00555 12.9039 9.97545C12.711 10.9454 12.2348 11.8363 11.5355 12.5355C10.8363 13.2348 9.94536 13.711 8.97545 13.9039C8.00555 14.0969 7.00021 13.9978 6.08658 13.6194C5.17295 13.241 4.39206 12.6001 3.84265 11.7779C3.29324 10.9556 3 9.98891 3 9H2ZM9.82001 11.0651C9.59902 11.071 9.37975 11.0248 9.18001 10.9301C9.00154 10.8414 8.84845 10.7089 8.73501 10.5451C8.61601 10.3544 8.53612 10.1419 8.50001 9.92007C8.43845 9.64443 8.40992 9.36245 8.41501 9.08007C8.41048 8.79771 8.43901 8.51579 8.50001 8.24007C8.54467 8.01665 8.63303 7.80425 8.76001 7.61507C8.87345 7.45122 9.02654 7.31877 9.20501 7.23007C9.40475 7.13535 9.62402 7.08909 9.84501 7.09507C10.0527 7.07926 10.2611 7.11692 10.4501 7.20444C10.6392 7.29197 10.8027 7.42645 10.925 7.59507C11.1807 8.03938 11.3022 8.54819 11.275 9.06007C11.3022 9.57195 11.1807 10.0808 10.925 10.5251C10.8051 10.7049 10.6397 10.8496 10.4455 10.9445C10.2514 11.0394 10.0355 11.081 9.82001 11.0651ZM9.82001 10.4551C9.92145 10.4657 10.0237 10.4451 10.1131 10.3959C10.2025 10.3467 10.2747 10.2714 10.32 10.1801C10.4299 9.94411 10.4814 9.68513 10.47 9.42507V8.73507C10.482 8.47657 10.4305 8.21908 10.32 7.98507C10.2647 7.89941 10.1888 7.82898 10.0993 7.78021C10.0098 7.73144 9.90946 7.70589 9.80751 7.70589C9.70556 7.70589 9.60523 7.73144 9.5157 7.78021C9.42617 7.82898 9.3503 7.89941 9.29501 7.98507C9.18644 8.21957 9.13667 8.477 9.15001 8.73507V9.42507C9.13725 9.68471 9.18698 9.94362 9.29501 10.1801C9.34176 10.2759 9.41792 10.3543 9.51237 10.4037C9.60682 10.4532 9.71461 10.4712 9.82001 10.4551ZM6.81 8.57508C6.66543 8.67967 6.48756 8.7277 6.31 8.71008H5.94V9.31507H6.32C6.507 9.30482 6.69246 9.35381 6.85 9.45508C6.90935 9.50318 6.95688 9.56425 6.98895 9.63359C7.02102 9.70293 7.03677 9.7787 7.035 9.85507V9.89508C7.0382 9.97389 7.0247 10.0525 6.99541 10.1257C6.96611 10.199 6.92167 10.2652 6.865 10.3201C6.72274 10.4304 6.54451 10.4839 6.365 10.4701C6.26881 10.4722 6.17282 10.4604 6.08 10.4351C5.9996 10.4107 5.92363 10.3735 5.855 10.3251C5.78798 10.2763 5.72749 10.2192 5.675 10.1551C5.62265 10.089 5.57582 10.0188 5.535 9.94508L5 10.3501C5.06554 10.4477 5.13913 10.5397 5.22 10.6251C5.30313 10.712 5.39726 10.7876 5.5 10.8501C5.61924 10.9184 5.74702 10.9705 5.88 11.0051C6.04378 11.0439 6.21171 11.0623 6.38 11.0601C6.57465 11.0633 6.76863 11.0364 6.955 10.9801C7.11619 10.9338 7.26718 10.8575 7.4 10.7551C7.52346 10.6594 7.62278 10.5361 7.69 10.3951C7.75946 10.2519 7.79375 10.0942 7.79 9.93508C7.79208 9.81079 7.77176 9.68715 7.73 9.57008C7.68955 9.46932 7.63204 9.3763 7.56 9.29508C7.48771 9.21626 7.4012 9.1518 7.305 9.10507C7.20553 9.05528 7.09946 9.01992 6.99 9.00008V8.97008C7.08903 8.94959 7.18488 8.91596 7.275 8.87008C7.36278 8.82353 7.4422 8.7627 7.51 8.69007C7.57759 8.61304 7.63169 8.52513 7.67 8.43008C7.70729 8.32236 7.72589 8.20906 7.725 8.09508C7.72723 7.95167 7.69643 7.80967 7.635 7.68007C7.56917 7.55656 7.477 7.44902 7.365 7.36507C7.24285 7.27204 7.10351 7.20407 6.955 7.16507C6.78233 7.11777 6.60403 7.09422 6.425 7.09507C6.27841 7.09204 6.13208 7.10886 5.99 7.14507C5.86732 7.17257 5.74937 7.21806 5.64 7.28008C5.54202 7.33524 5.45132 7.40242 5.37 7.48007C5.2914 7.56039 5.21793 7.64556 5.15 7.73507L5.615 8.15007C5.70051 8.01197 5.81689 7.89558 5.955 7.81007C6.08892 7.72861 6.24328 7.68699 6.4 7.69007C6.55037 7.68139 6.69852 7.72958 6.815 7.82507C6.86563 7.87196 6.90532 7.92941 6.93124 7.99336C6.95716 8.0573 6.96869 8.12617 6.965 8.19507V8.23507C6.96716 8.29987 6.95428 8.36428 6.92739 8.42326C6.9005 8.48225 6.86032 8.53421 6.81 8.57508Z" fill="black"/>
</svg>
