<svg width="16" height="16" viewBox="0 0 16 16" fill="none" xmlns="http://www.w3.org/2000/svg">
<path fill-rule="evenodd" clip-rule="evenodd" d="M2 9C2 10.1867 2.35189 11.3467 3.01118 12.3334C3.67047 13.3201 4.60754 14.0892 5.7039 14.5433C6.80026 14.9974 8.00666 15.1162 9.17054 14.8847C10.3344 14.6532 11.4035 14.0818 12.2426 13.2426C13.0818 12.4035 13.6532 11.3344 13.8847 10.1705C14.1162 9.00666 13.9974 7.80026 13.5433 6.7039C13.0892 5.60754 12.3201 4.67047 11.3334 4.01118C10.3467 3.35189 9.18669 3 8 3H6V0.5L3 3.5L6 6.5V4H8C8.98891 4 9.95561 4.29324 10.7779 4.84265C11.6001 5.39206 12.241 6.17295 12.6194 7.08658C12.9978 8.00021 13.0969 9.00555 12.9039 9.97545C12.711 10.9454 12.2348 11.8363 11.5355 12.5355C10.8363 13.2348 9.94536 13.711 8.97545 13.9039C8.00555 14.0969 7.00021 13.9978 6.08658 13.6194C5.17295 13.241 4.39206 12.6001 3.84265 11.7779C3.29324 10.9556 3 9.98891 3 9H2ZM9.815 11.0651C9.59407 11.0705 9.37493 11.0243 9.175 10.9301C8.99748 10.84 8.8447 10.7078 8.73 10.5451C8.60426 10.3552 8.51601 10.1431 8.47 9.92007C8.41092 9.64404 8.38242 9.36234 8.385 9.08007C8.38297 8.79782 8.41147 8.51619 8.47 8.24007C8.51694 8.01734 8.60512 7.80537 8.73 7.61507C8.8447 7.45235 8.99748 7.32017 9.175 7.23007C9.37493 7.13588 9.59407 7.08965 9.815 7.09507C10.0227 7.07926 10.2311 7.11692 10.4201 7.20444C10.6092 7.29197 10.7727 7.42645 10.895 7.59507C11.1528 8.03851 11.2745 8.54798 11.245 9.06007C11.2745 9.57216 11.1528 10.0816 10.895 10.5251C10.7773 10.701 10.6159 10.8434 10.4265 10.9381C10.2371 11.0327 10.0264 11.0765 9.815 11.0651ZM9.815 10.4551C9.9158 10.4611 10.0162 10.4385 10.1047 10.3898C10.1932 10.3411 10.2661 10.2684 10.315 10.1801C10.4345 9.9462 10.4978 9.68769 10.5 9.42507V8.73507C10.5108 8.47718 10.4612 8.22034 10.355 7.98507C10.2991 7.89944 10.2227 7.8291 10.1328 7.78041C10.0429 7.73172 9.94226 7.70622 9.84 7.70622C9.73775 7.70622 9.6371 7.73172 9.54718 7.78041C9.45726 7.8291 9.3809 7.89944 9.325 7.98507C9.21885 8.22034 9.16919 8.47718 9.18 8.73507V9.42507C9.16969 9.68453 9.21931 9.94288 9.325 10.1801C9.37269 10.2672 9.44392 10.3392 9.53056 10.3878C9.6172 10.4365 9.71576 10.4598 9.815 10.4551ZM5.315 10.41V11H7.89V10.385H7V7.13501H6.27L5.11 7.78501L5.385 8.31501L6.315 7.81501V10.41H5.315Z" fill="black"/>
</svg>
