<svg width="16" height="16" viewBox="0 0 16 16" fill="none" xmlns="http://www.w3.org/2000/svg">
<path fill-rule="evenodd" clip-rule="evenodd" d="M12.0843 1.725L12.7205 4H14V5H13V8.5C12.9997 8.76511 12.8942 9.01928 12.7067 9.20674C12.5193 9.39421 12.2651 9.49967 12 9.5V11H11V9.5H5V11H4V9.5C3.73488 9.49967 3.48072 9.39421 3.29326 9.20674C3.10579 9.01928 3.00033 8.76511 3 8.5V5H2V4H3.26575L3.91565 1.72535C3.97599 1.51676 4.10229 1.33333 4.27564 1.20256C4.449 1.07179 4.66006 1.00072 4.8772 1H11.1228C11.3399 1.00071 11.5509 1.07173 11.7243 1.20243C11.8976 1.33313 12.0239 1.51648 12.0843 1.725ZM11.1229 2H4.8772L4.16285 4.5H11.8371L11.1229 2ZM11 6.5H12V5.5H4V6.5H5V7.5H4V8.5H12V7.5H11V6.5ZM6.5 6.5H9.5V7.5H6.5V6.5ZM2 8H1V15H2V8ZM14 8H15V15H14V8ZM8.5 10.5H7.5V12H8.5V10.5ZM7.5 13H8.5V15H7.5V13Z" fill="black"/>
</svg>
