<svg width="16" height="16" viewBox="0 0 16 16" fill="none" xmlns="http://www.w3.org/2000/svg">
<path fill-rule="evenodd" clip-rule="evenodd" d="M11.0843 1.725L11.7205 4H13V5H12V8.5C11.9997 8.76511 11.8942 9.01928 11.7067 9.20674C11.5193 9.39421 11.2651 9.49967 11 9.5V10.5H10V9.5H4V10.5H3V9.5C2.73488 9.49967 2.48072 9.39421 2.29326 9.20674C2.10579 9.01928 2.00033 8.76511 2 8.5V5H1V4H2.26575L2.91565 1.72535C2.97599 1.51676 3.10229 1.33333 3.27564 1.20256C3.449 1.07179 3.66006 1.00072 3.8772 1H10.1228C10.3399 1.00071 10.5509 1.07173 10.7243 1.20243C10.8976 1.33313 11.0239 1.51648 11.0843 1.725ZM10.1229 2H3.8772L3.16285 4.5H10.8371L10.1229 2ZM10 6.5H11V5.5H3V6.5H4V7.5H3V8.5H11V7.5H10V6.5ZM8.5 6.5H5.5V7.5H8.5V6.5ZM7 15.5H8V15.386C7.99844 14.8774 7.84251 14.3813 7.55282 13.9633C7.26313 13.5452 6.85335 13.225 6.3777 13.045L4.6118 12.3829C4.43242 12.315 4.27789 12.1942 4.16865 12.0366C4.05941 11.8789 4.0006 11.6918 4 11.5H3C3.00124 11.8952 3.12243 12.2808 3.34756 12.6056C3.57268 12.9304 3.89112 13.1793 4.26075 13.3192L6.0266 13.9815C6.31199 14.0895 6.55786 14.2816 6.73167 14.5324C6.90549 14.7832 6.99906 15.0809 7 15.386V15.5ZM14 15.5H15V15.386C14.9984 14.8774 14.8425 14.3813 14.5528 13.9633C14.2631 13.5452 13.8534 13.225 13.3777 13.045L11.6118 12.3829C11.4324 12.315 11.2779 12.1942 11.1687 12.0366C11.0594 11.8789 11.0006 11.6918 11 11.5H10C10.0012 11.8952 10.1224 12.2808 10.3476 12.6056C10.5727 12.9304 10.8911 13.1793 11.2607 13.3192L13.0266 13.9815C13.312 14.0895 13.5579 14.2816 13.7317 14.5324C13.9055 14.7832 13.9991 15.0809 14 15.386V15.5Z" fill="black"/>
</svg>
