<svg width="16" height="16" viewBox="0 0 16 16" fill="none" xmlns="http://www.w3.org/2000/svg">
<path fill-rule="evenodd" clip-rule="evenodd" d="M14.295 6.795L15 7.5L12.5 10L10 7.5L10.705 6.795L12 8.085V5.5C11.9992 4.83719 11.7356 4.20174 11.2669 3.73307C10.7983 3.26439 10.1628 3.00075 9.5 3H7V2H9.5C10.4279 2.00103 11.3176 2.37011 11.9737 3.02627C12.6299 3.68242 12.999 4.57206 13 5.5V8.085L14.295 6.795ZM2 15H8C8.26512 14.9997 8.5193 14.8942 8.70677 14.7068C8.89424 14.5193 8.9997 14.2651 9 14V8C8.9997 7.73488 8.89424 7.4807 8.70677 7.29323C8.5193 7.10576 8.26512 7.0003 8 7H2C1.73488 7.0003 1.4807 7.10576 1.29323 7.29323C1.10576 7.4807 1.0003 7.73488 1 8V14C1.0003 14.2651 1.10576 14.5193 1.29323 14.7068C1.4807 14.8942 1.73488 14.9997 2 15ZM2 14V8H8L8.0006 14H2Z" fill="black"/>
</svg>
