<svg width="16" height="16" viewBox="0 0 16 16" fill="none" xmlns="http://www.w3.org/2000/svg">
<path fill-rule="evenodd" clip-rule="evenodd" d="M10.7617 2.09412C11.6258 2.4997 12.39 3.09065 13 3.82496L12.21 4.46496C11.6574 3.81014 10.9594 3.29349 10.1717 2.95622C9.38406 2.61894 8.52848 2.47036 7.67321 2.52233C6.81794 2.5743 5.98665 2.82537 5.24561 3.25553C4.50456 3.6857 3.87428 4.28305 3.405 4.99996H6V5.99996H2V1.99996H3V3.82496C3.60997 3.09065 4.37418 2.4997 5.23835 2.09412C6.10251 1.68853 7.04539 1.47827 8 1.47827C8.95461 1.47827 9.89749 1.68853 10.7617 2.09412ZM14.5 8.00003C14.4986 7.24223 14.3632 6.49065 14.1 5.78003L13.165 6.12003C13.3837 6.72284 13.497 7.35879 13.5 8.00003H14.5ZM1.89999 10.2199L2.83499 9.87988L2.81499 9.88988C3.03433 10.493 3.35754 11.0532 3.76999 11.5449L3.15999 12.0449L2.99999 12.1749C2.5228 11.5919 2.15059 10.9304 1.89999 10.2199ZM13 12.1749L12.21 11.5349C12.6296 11.0447 12.9596 10.4845 13.185 9.87988L14.12 10.2199C13.8633 10.9318 13.4843 11.5934 13 12.1749ZM9.12999 14.4099L8.95499 13.4099C9.586 13.3054 10.1936 13.0904 10.75 12.7749L11.25 13.6399C10.594 14.0191 9.87639 14.2797 9.12999 14.4099ZM4.75 13.6251C5.40596 14.0043 6.12359 14.265 6.87 14.3951L7.045 13.3951C6.41303 13.286 5.80534 13.0659 5.25 12.7451L4.75 13.6251Z" fill="black"/>
</svg>
