<svg width="16" height="16" viewBox="0 0 16 16" fill="none" xmlns="http://www.w3.org/2000/svg">
<path fill-rule="evenodd" clip-rule="evenodd" d="M9.205 1.705L8.5 1L6 3.5L8.5 6L9.205 5.295L7.915 4H10.5C11.1628 4.00075 11.7983 4.26439 12.2669 4.73307C12.7356 5.20174 12.9992 5.83719 13 6.5V9H14V6.5C13.999 5.57206 13.6299 4.68242 12.9737 4.02627C12.3176 3.37011 11.4279 3.00103 10.5 3H7.915L9.205 1.705ZM1 8V14C1.0003 14.2651 1.10576 14.5193 1.29323 14.7068C1.4807 14.8942 1.73488 14.9997 2 15H8C8.26512 14.9997 8.5193 14.8942 8.70677 14.7068C8.89424 14.5193 8.9997 14.2651 9 14V8C8.9997 7.73488 8.89424 7.4807 8.70677 7.29323C8.5193 7.10576 8.26512 7.0003 8 7H2C1.73488 7.0003 1.4807 7.10576 1.29323 7.29323C1.10576 7.4807 1.0003 7.73488 1 8ZM1.9994 14L2 8H8V14H1.9994Z" fill="black"/>
</svg>
