<svg width="16" height="16" viewBox="0 0 16 16" fill="none" xmlns="http://www.w3.org/2000/svg">
<path fill-rule="evenodd" clip-rule="evenodd" d="M6.795 1.705L7.5 1L10 3.5L7.5 6L6.795 5.295L8.085 4H5.5C4.83719 4.00075 4.20174 4.26439 3.73307 4.73307C3.26439 5.20174 3.00075 5.83719 3 6.5V9H2V6.5C2.00103 5.57206 2.37011 4.68242 3.02627 4.02627C3.68242 3.37011 4.57206 3.00103 5.5 3H8.085L6.795 1.705ZM8 15H14C14.2651 14.9997 14.5193 14.8942 14.7068 14.7068C14.8942 14.5193 14.9997 14.2651 15 14V8C14.9997 7.73488 14.8942 7.4807 14.7068 7.29323C14.5193 7.10576 14.2651 7.0003 14 7H8C7.73488 7.0003 7.4807 7.10576 7.29323 7.29323C7.10576 7.4807 7.0003 7.73488 7 8V14C7.0003 14.2651 7.10576 14.5193 7.29323 14.7068C7.4807 14.8942 7.73488 14.9997 8 15ZM8 14V8H14L14.0006 14H8Z" fill="black"/>
</svg>
