<svg width="16" height="16" viewBox="0 0 16 16" fill="none" xmlns="http://www.w3.org/2000/svg">
<path fill-rule="evenodd" clip-rule="evenodd" d="M6.65794 2.67194C6.71522 2.65635 6.77247 2.64078 6.8308 2.6281C6.9535 2.60145 7.07875 2.58265 7.2042 2.56435C7.22991 2.56063 7.25542 2.55632 7.28092 2.55202C7.32218 2.54507 7.36342 2.53811 7.4055 2.5336C7.60293 2.51183 7.80138 2.50067 8 2.50015C8.91347 2.50097 9.81224 2.73011 10.6146 3.16672C11.417 3.60333 12.0975 4.23358 12.5943 5.00015H10V6.00015H14V2.00015H13V3.8517C12.3164 3.02299 11.4371 2.37764 10.4416 1.97395C9.44608 1.57026 8.36566 1.42095 7.29795 1.5395C7.24863 1.5449 7.20033 1.55303 7.15201 1.56117C7.12151 1.56631 7.09101 1.57145 7.06025 1.5759C6.91185 1.5976 6.7636 1.6196 6.6186 1.6513C6.54738 1.66668 6.4777 1.68568 6.40793 1.70471C6.38561 1.71079 6.36329 1.71688 6.3409 1.72285C6.21455 1.7563 6.0887 1.79025 5.96555 1.831C5.87855 1.85954 5.79369 1.89199 5.70864 1.92452C5.69906 1.92818 5.68949 1.93184 5.6799 1.9355C5.5654 1.97945 5.4521 2.02515 5.3409 2.07515C5.2459 2.11785 5.1532 2.16305 5.0609 2.21015C4.95517 2.26422 4.85095 2.32102 4.74825 2.38055C4.6583 2.43305 4.5693 2.48605 4.48215 2.54245C4.3822 2.60715 4.2855 2.67555 4.18945 2.74555C4.18137 2.75143 4.17328 2.75731 4.1652 2.76318C4.09075 2.81727 4.01651 2.87121 3.9447 2.9289C3.84875 3.00561 3.75766 3.08743 3.66635 3.16948L3.66565 3.1701C3.64672 3.18707 3.62768 3.2039 3.60865 3.22073C3.55511 3.26806 3.50163 3.31536 3.45065 3.36545C3.35576 3.45874 3.26704 3.5576 3.17807 3.65673L3.1689 3.66695C3.14855 3.68963 3.12731 3.71142 3.10609 3.73321C3.07752 3.76253 3.04899 3.79182 3.02265 3.8232L3.025 3.82515C2.03945 4.99298 1.4992 6.47203 1.5 8.00015H2.5C2.50057 6.64577 3.00341 5.33972 3.91125 4.33465C3.91532 4.33012 3.91939 4.32559 3.92346 4.32107C3.99747 4.23868 4.07145 4.15634 4.1505 4.0788C4.19338 4.03672 4.23837 3.99689 4.28338 3.95703C4.29999 3.94233 4.31659 3.92762 4.3331 3.9128C4.4103 3.84345 4.4873 3.77435 4.5681 3.70965C4.62661 3.6626 4.68728 3.61844 4.74809 3.57417C4.75759 3.56726 4.7671 3.56033 4.7766 3.5534C4.8573 3.49485 4.93875 3.4372 5.0227 3.38275C5.09695 3.33485 5.17275 3.2895 5.24925 3.24485C5.33542 3.19472 5.42312 3.14693 5.51235 3.1015C5.59085 3.0615 5.66995 3.02285 5.7505 2.9865C5.84375 2.9445 5.9392 2.90615 6.0355 2.86905C6.04052 2.86713 6.04553 2.86521 6.05055 2.8633C6.12598 2.83445 6.20142 2.80559 6.27845 2.77995C6.3823 2.74575 6.48865 2.71695 6.5952 2.68885C6.61615 2.6833 6.63705 2.67762 6.65794 2.67194ZM3.78835 11.5341L3.02245 12.1767C2.53616 11.5955 2.15541 10.9336 1.89745 10.2211L2.8362 9.87939C3.05451 10.4823 3.37677 11.0424 3.78835 11.5341ZM7.04565 13.4115L6.8723 14.3955C6.12582 14.2651 5.40818 14.0042 4.7523 13.6246L5.2523 12.7593C5.80711 13.0804 6.41418 13.3012 7.04565 13.4115ZM9.12755 14.396C9.87403 14.2656 10.5917 14.0047 11.2476 13.6251L10.7477 12.7598C10.1928 13.0809 9.5857 13.3017 8.9542 13.412L9.12755 14.396ZM13.1636 9.87939L14.1023 10.2211C13.8444 10.9336 13.4637 11.5955 12.9776 12.1767L12.8218 12.046L12.2118 11.5341C12.6233 11.0424 12.9454 10.4824 13.1637 9.87949L13.1636 9.87939Z" fill="black"/>
</svg>
