<svg width="16" height="16" viewBox="0 0 16 16" fill="none" xmlns="http://www.w3.org/2000/svg">
<path fill-rule="evenodd" clip-rule="evenodd" d="M1.705 6.795L1 7.5L3.5 10L6 7.5L5.295 6.795L4 8.085V5.5C4.00075 4.83719 4.26439 4.20174 4.73307 3.73307C5.20174 3.26439 5.83719 3.00075 6.5 3H9V2H6.5C5.57206 2.00103 4.68242 2.37011 4.02627 3.02627C3.37011 3.68242 3.00103 4.57206 3 5.5V8.085L1.705 6.795ZM7 8V14C7.0003 14.2651 7.10576 14.5193 7.29323 14.7068C7.4807 14.8942 7.73488 14.9997 8 15H14C14.2651 14.9997 14.5193 14.8942 14.7068 14.7068C14.8942 14.5193 14.9997 14.2651 15 14V8C14.9997 7.73488 14.8942 7.4807 14.7068 7.29323C14.5193 7.10576 14.2651 7.0003 14 7H8C7.73488 7.0003 7.4807 7.10576 7.29323 7.29323C7.10576 7.4807 7.0003 7.73488 7 8Z" fill="black"/>
</svg>
