<svg width="16" height="16" viewBox="0 0 16 16" fill="none" xmlns="http://www.w3.org/2000/svg">
<path fill-rule="evenodd" clip-rule="evenodd" d="M6.21447 3.72635V2.91135C7.98631 1.5324 9.80917 2.88584 9.80917 2.88584V3.70085C9.80934 3.81003 9.84169 3.91674 9.90216 4.00764C9.96263 4.09855 10.0485 4.16963 10.1492 4.21199L10.8442 4.51035C10.946 4.55414 11.0587 4.56645 11.1676 4.5457C11.2765 4.52494 11.3768 4.47208 11.4554 4.39389L12.3341 3.5153C12.3496 3.49999 12.3641 3.48378 12.3777 3.46674C12.4702 3.35111 12.5129 3.20349 12.4966 3.05634C12.4802 2.90919 12.406 2.77458 12.2904 2.6821C11.0297 1.68705 7.38057 -0.557755 3.68407 2.70574L3.66667 2.72215C3.61441 2.77357 3.5728 2.83479 3.54421 2.9023C3.51561 2.96981 3.5006 3.04229 3.50002 3.1156C3.49944 3.18891 3.5133 3.26162 3.54082 3.32958C3.56835 3.39753 3.60898 3.4594 3.66041 3.51165L4.57002 4.42119C4.64901 4.49875 4.74919 4.5512 4.85793 4.57193C4.96668 4.59266 5.07913 4.58075 5.18112 4.5377L5.87611 4.23934C5.97612 4.19577 6.06132 4.1241 6.12138 4.03303C6.18145 3.94197 6.21378 3.83543 6.21447 3.72635ZM4 5.5L6.5 8L4 10.5L3.2905 9.7955L4.5765 8.5H1V7.5H4.603L3.2905 6.2045L4 5.5ZM9.5 8L12 5.5L12.7095 6.2045L11.397 7.5H15V8.5H11.4235L12.7095 9.7955L12 10.5L9.5 8ZM8 15L10.5 12.5L9.7955 11.7905L8.5 13.103V9.5H7.5V13.0765L6.2045 11.7905L5.5 12.5L8 15Z" fill="black"/>
</svg>
