<svg width="16" height="16" viewBox="0 0 16 16" fill="none" xmlns="http://www.w3.org/2000/svg">
<path fill-rule="evenodd" clip-rule="evenodd" d="M11.5357 3.46449C11.0714 3.00016 10.5202 2.63184 9.91352 2.38054C9.30687 2.12925 8.65666 1.99991 8.00002 1.99991C7.34339 1.99991 6.69318 2.12925 6.08653 2.38054C5.47988 2.63184 4.92867 3.00016 4.46437 3.46449L3.75732 2.75719C4.88262 1.63207 6.40874 1 8.00002 1C9.59131 1 11.1174 1.63207 12.2427 2.75719L11.5357 3.46449ZM8.95659 4.69037C9.25993 4.81604 9.53555 5.00022 9.7677 5.23242L10.4749 4.52542C10.1499 4.20033 9.76407 3.94245 9.33941 3.7665C8.91474 3.59056 8.45957 3.5 7.9999 3.5C7.54023 3.5 7.08506 3.59056 6.6604 3.7665C6.23573 3.94245 5.84989 4.20033 5.5249 4.52542L6.23185 5.23242C6.464 5.00022 6.73962 4.81604 7.04297 4.69037C7.34631 4.56471 7.67143 4.50003 7.99978 4.50003C8.32812 4.50003 8.65325 4.56471 8.95659 4.69037ZM8.75 6.75C8.75 7.16421 8.41421 7.5 8 7.5C7.58579 7.5 7.25 7.16421 7.25 6.75C7.25 6.33579 7.58579 6 8 6C8.41421 6 8.75 6.33579 8.75 6.75ZM8 15L10.5 12.5L9.7955 11.7905L8.5 13.103V9.5H7.5V13.0765L6.2045 11.7905L5.5 12.5L8 15ZM12 5.5L9.5 8L12 10.5L12.7095 9.7955L11.4235 8.5H15V7.5H11.397L12.7095 6.2045L12 5.5ZM6.5 8L4 5.5L3.2905 6.2045L4.603 7.5H1V8.5H4.5765L3.2905 9.7955L4 10.5L6.5 8Z" fill="black"/>
</svg>
