<svg width="16" height="16" viewBox="0 0 16 16" fill="none" xmlns="http://www.w3.org/2000/svg">
<path fill-rule="evenodd" clip-rule="evenodd" d="M9.793 5.207L8.5 3.914V7H14V8H2V7H7.5V3.914L6.207 5.207L5.5 4.5L8 2L10.5 4.5L9.793 5.207ZM2.29289 10.2929C2.48043 10.1054 2.73478 10 3 10H13C13.2652 10 13.5196 10.1054 13.7071 10.2929C13.8946 10.4804 14 10.7348 14 11V13C14 13.2652 13.8946 13.5196 13.7071 13.7071C13.5196 13.8946 13.2652 14 13 14H3C2.73478 14 2.48043 13.8946 2.29289 13.7071C2.10536 13.5196 2 13.2652 2 13V11C2 10.7348 2.10536 10.4804 2.29289 10.2929ZM3 11V13H13V11H3Z" fill="black"/>
</svg>
