<svg width="16" height="16" viewBox="0 0 16 16" fill="none" xmlns="http://www.w3.org/2000/svg">
<path fill-rule="evenodd" clip-rule="evenodd" d="M15 1.705L14.295 1L12.5 2.795L10.705 1L10 1.705L11.795 3.5L10 5.295L10.705 6L12.5 4.205L14.295 6L15 5.295L13.205 3.5L15 1.705ZM12 15H2C1.73487 14.9997 1.48068 14.8943 1.2932 14.7068C1.10572 14.5193 1.00028 14.2651 1 14V11C1.00028 10.7349 1.10572 10.4807 1.2932 10.2932C1.48068 10.1057 1.73487 10.0003 2 10H12C12.2651 10.0003 12.5193 10.1057 12.7068 10.2932C12.8943 10.4807 12.9997 10.7349 13 11V14C12.9997 14.2651 12.8943 14.5193 12.7068 14.7068C12.5193 14.8943 12.2651 14.9997 12 15ZM2 11H1.99925L2 14H12V11H2ZM2 4V7H13V8H2C1.73488 7.9997 1.4807 7.89424 1.29323 7.70677C1.10576 7.5193 1.0003 7.26512 1 7V4C1.0003 3.73488 1.10576 3.4807 1.29323 3.29323C1.4807 3.10576 1.73488 3.0003 2 3H9V4H2Z" fill="black"/>
</svg>
