<svg width="16" height="16" viewBox="0 0 16 16" fill="none" xmlns="http://www.w3.org/2000/svg">
<path fill-rule="evenodd" clip-rule="evenodd" d="M12.7068 1.29323C12.8942 1.4807 12.9997 1.73488 13 2V6.5H12V2H2V8.5C1.99916 9.31591 2.22051 10.1166 2.64031 10.8163C3.0601 11.5159 3.66248 12.088 4.3828 12.4712L6.5 13.6V14.7334L3.9121 13.3535C3.03173 12.8852 2.29551 12.186 1.78246 11.3309C1.26942 10.4758 0.99892 9.49718 1 8.5V2C1.00031 1.73488 1.10576 1.4807 1.29323 1.29323C1.4807 1.10576 1.73488 1.0003 2 1H12C12.2651 1.0003 12.5193 1.10576 12.7068 1.29323ZM10 5H4V6H10V5ZM4 8H9V9H4V8ZM13.3535 8.14652L14.8535 9.64652C14.8999 9.69292 14.9368 9.74803 14.9619 9.80869C14.9871 9.86934 15 9.93436 15 10C15 10.0657 14.9871 10.1307 14.9619 10.1913C14.9368 10.252 14.8999 10.3071 14.8535 10.3535L10.2071 15H8V12.793L12.6465 8.14652C12.6929 8.10007 12.748 8.06322 12.8087 8.03808C12.8693 8.01294 12.9343 8 13 8C13.0657 8 13.1307 8.01294 13.1913 8.03808C13.252 8.06322 13.3071 8.10007 13.3535 8.14652ZM9 14H9.79295L12.2929 11.5L11.5 10.7071L9 13.2071V14ZM12.2071 10L13 10.793L13.7929 10L13 9.20707L12.2071 10Z" fill="black"/>
</svg>
