<svg width="16" height="16" viewBox="0 0 16 16" fill="none" xmlns="http://www.w3.org/2000/svg">
<path fill-rule="evenodd" clip-rule="evenodd" d="M4.4 12.45L7 13.85V15L3.9 13.35C2.1 12.4 1 10.55 1 8.5V2C1 1.45 1.45 1 2 1H12C12.55 1 13 1.45 13 2V7.5H12V2H2V8.5C2 10.15 2.9 11.7 4.4 12.45ZM10 5H4V6H10V5ZM4 8H9V9H4V8ZM14 11.5C14 12 13.85 12.5 13.6 12.9L15 14.3L14.3 15L12.9 13.6C12.5 13.85 12 14 11.5 14C10.1 14 9 12.9 9 11.5C9 10.1 10.1 9 11.5 9C12.9 9 14 10.1 14 11.5ZM11.5 10C10.65 10 10 10.65 10 11.5C10 12.35 10.65 13 11.5 13C12.35 13 13 12.35 13 11.5C13 10.65 12.35 10 11.5 10Z" fill="black"/>
</svg>
