<svg width="16" height="16" viewBox="0 0 16 16" fill="none" xmlns="http://www.w3.org/2000/svg">
<path fill-rule="evenodd" clip-rule="evenodd" d="M4.3828 12.4712L7 13.8667V15L3.9121 13.3535C3.03173 12.8852 2.29551 12.186 1.78246 11.3309C1.26942 10.4758 0.99892 9.49718 1 8.5V2C1.00031 1.73488 1.10576 1.4807 1.29323 1.29323C1.4807 1.10576 1.73488 1.0003 2 1H12C12.2651 1.0003 12.5193 1.10576 12.7068 1.29323C12.8942 1.4807 12.9997 1.73488 13 2V7.5H12V2H2V8.5C1.99916 9.31591 2.22051 10.1166 2.64031 10.8163C3.0601 11.5159 3.66248 12.088 4.3828 12.4712ZM10 5H4V6H10V5ZM4 8H9V9H4V8ZM14.4944 10.3333C14.8241 10.8266 15 11.4067 15 12C14.9991 12.7954 14.6828 13.5579 14.1204 14.1204C13.5579 14.6828 12.7954 14.9991 12 15C11.4067 15 10.8266 14.8241 10.3333 14.4944C9.83994 14.1648 9.45543 13.6962 9.22836 13.1481C9.0013 12.5999 8.94189 11.9967 9.05765 11.4147C9.1734 10.8328 9.45912 10.2982 9.87868 9.87868C10.2982 9.45912 10.8328 9.1734 11.4147 9.05765C11.9967 8.94189 12.5999 9.0013 13.1481 9.22836C13.6962 9.45543 14.1648 9.83994 14.4944 10.3333ZM13.7166 13.0095C13.9002 12.7047 13.9981 12.3559 14 12C13.9994 11.4698 13.7885 10.9614 13.4136 10.5864C13.0386 10.2115 12.5303 10.0006 12 10C11.6441 10.0019 11.2953 10.0998 10.9905 10.2835L13.7166 13.0095ZM10.2835 10.9905C10.0998 11.2953 10.0019 11.6441 10 12C10.0006 12.5303 10.2115 13.0386 10.5864 13.4136C10.9614 13.7885 11.4698 13.9994 12 14C12.3559 13.9981 12.7047 13.9002 13.0095 13.7166L10.2835 10.9905Z" fill="black"/>
</svg>
