<svg width="16" height="16" viewBox="0 0 16 16" fill="none" xmlns="http://www.w3.org/2000/svg">
<path fill-rule="evenodd" clip-rule="evenodd" d="M11 4.5H12V5.5H11V8.5H10V5.5H9V4.5H10V3.5H11V4.5ZM4 11.5H7C7.26522 11.5 7.51957 11.3946 7.70711 11.2071C7.89464 11.0196 8 10.7652 8 10.5V8.5C8 8.23478 7.89464 7.98043 7.70711 7.79289C7.51957 7.60536 7.26522 7.5 7 7.5H5V5.5H8V4.5H5C4.73478 4.5 4.48043 4.60536 4.29289 4.79289C4.10536 4.98043 4 5.23478 4 5.5V7.5C4 7.76522 4.10536 8.01957 4.29289 8.20711C4.48043 8.39464 4.73478 8.5 5 8.5H7V10.5H4V11.5Z" fill="black"/>
</svg>
