<svg width="16" height="16" viewBox="0 0 16 16" fill="none" xmlns="http://www.w3.org/2000/svg">
<path fill-rule="evenodd" clip-rule="evenodd" d="M4.51541 12.5001H3.48461L3.01501 10.6212C2.99661 10.5475 2.99525 10.4705 3.01102 10.3962C3.02679 10.3219 3.05929 10.2522 3.10604 10.1923C3.15279 10.1325 3.21256 10.084 3.28083 10.0507C3.34909 10.0174 3.42405 10.0001 3.50001 10.0001H9.00001V8.50006H4.50001C4.40667 8.50002 4.3152 8.47386 4.23596 8.42453C4.15671 8.3752 4.09286 8.30468 4.05162 8.22094C4.01039 8.1372 3.99342 8.04359 4.00263 7.9507C4.01185 7.85782 4.04688 7.76936 4.10376 7.69536L9.10306 1.19561C9.15551 1.1273 9.2247 1.07369 9.30394 1.03996C9.38318 1.00624 9.46979 0.993534 9.55538 1.00309C9.64096 1.01264 9.72264 1.04413 9.79249 1.0945C9.86234 1.14487 9.91801 1.21242 9.95411 1.29061L12.9541 7.79061C12.9893 7.8668 13.0047 7.9506 12.9989 8.03431C12.9932 8.11802 12.9664 8.19894 12.9212 8.26961C12.876 8.34027 12.8137 8.39842 12.7401 8.4387C12.6665 8.47897 12.5839 8.50007 12.5 8.50006H10V10.0001H12.5C12.576 10.0001 12.6509 10.0174 12.7192 10.0507C12.7875 10.084 12.8473 10.1324 12.894 10.1923C12.9408 10.2522 12.9733 10.3219 12.9891 10.3962C13.0049 10.4705 13.0035 10.5475 12.9851 10.6212L12.5154 12.5001H11.4846L11.8596 11.0001H4.14041L4.51541 12.5001ZM11.7185 7.50006L10 3.77641V7.50006H11.7185ZM9.00001 2.97006L5.51541 7.50006H9.00001V2.97006ZM12.9189 13.6865C13.182 13.483 13.3698 13.1977 13.4529 12.8756L14.4212 13.1246C14.2829 13.6616 13.97 14.1373 13.5317 14.4769C13.0933 14.8164 12.5545 15.0005 12 15.0001C11.612 15.0035 11.2286 14.9153 10.8811 14.7427C10.5335 14.57 10.2317 14.3178 10 14.0065C9.76597 14.3152 9.46361 14.5656 9.11663 14.738C8.76964 14.9104 8.38746 15.0001 8.00001 15.0001C7.61256 15.0001 7.23037 14.9104 6.88339 14.738C6.53641 14.5656 6.23405 14.3152 6.00001 14.0065C5.76834 14.3178 5.46647 14.57 5.11895 14.7427C4.77142 14.9153 4.38805 15.0035 4.00001 15.0001C3.44553 15.0005 2.90668 14.8164 2.46834 14.4769C2.03 14.1373 1.71707 13.6616 1.57886 13.1246L2.54711 12.8756C2.6302 13.1977 2.81806 13.483 3.08109 13.6865C3.34412 13.8901 3.6674 14.0004 4.00001 14.0001C4.34095 13.9801 4.6682 13.859 4.94007 13.6523C5.21195 13.4456 5.41613 13.1626 5.52661 12.8395C5.5582 12.7393 5.62141 12.6521 5.70677 12.5909C5.79212 12.5297 5.89501 12.4979 6.00001 12.5001C6.10481 12.5006 6.20684 12.5338 6.29188 12.5951C6.37691 12.6564 6.4407 12.7427 6.47436 12.8419C6.58503 13.1646 6.7892 13.447 7.06089 13.6532C7.33257 13.8595 7.65948 13.9802 8.00001 14.0001C8.34095 13.9801 8.6682 13.859 8.94007 13.6523C9.21195 13.4456 9.41613 13.1626 9.52661 12.8395C9.55947 12.7401 9.623 12.6537 9.70807 12.5927C9.79313 12.5318 9.89535 12.4993 10 12.5001C10.1048 12.5006 10.2068 12.5338 10.2919 12.5951C10.3769 12.6564 10.4407 12.7427 10.4744 12.8419C10.585 13.1646 10.7892 13.447 11.0609 13.6532C11.3326 13.8595 11.6595 13.9802 12 14.0001C12.3326 14.0004 12.6559 13.8901 12.9189 13.6865Z" fill="black"/>
</svg>
