<svg width="16" height="16" viewBox="0 0 16 16" fill="none" xmlns="http://www.w3.org/2000/svg">
<path d="M12.3904 12.9999L12.985 10.621C13.0034 10.5473 13.0048 10.4704 12.989 10.3961C12.9732 10.3218 12.9407 10.2521 12.894 10.1922C12.8472 10.1323 12.7874 10.0839 12.7192 10.0506C12.6509 10.0173 12.576 9.99995 12.5 9.99994H10V8.49994H12.5C12.5839 8.49995 12.6665 8.47885 12.7401 8.43857C12.8137 8.3983 12.876 8.34015 12.9212 8.26948C12.9664 8.19881 12.9932 8.1179 12.9989 8.03419C13.0047 7.95048 12.9892 7.86667 12.9541 7.79049L9.9541 1.29049C9.918 1.21229 9.86234 1.14475 9.79248 1.09438C9.72263 1.04401 9.64096 1.01252 9.55537 1.00297C9.46978 0.993412 9.38317 1.00611 9.30393 1.03984C9.22469 1.07357 9.1555 1.12718 9.10305 1.19549L4.10375 7.69524C4.04687 7.76924 4.01184 7.8577 4.00262 7.95058C3.99341 8.04347 4.01038 8.13708 4.05162 8.22082C4.09285 8.30456 4.1567 8.37508 4.23595 8.42441C4.31519 8.47374 4.40666 8.4999 4.5 8.49994H9V9.99994H3.5C3.42404 9.99995 3.34908 10.0173 3.28082 10.0506C3.21256 10.0839 3.15278 10.1323 3.10603 10.1922C3.05928 10.2521 3.02678 10.3218 3.01101 10.3961C2.99524 10.4704 2.9966 10.5473 3.015 10.621L3.6096 12.9999H1V13.9999H15V12.9999H12.3904ZM10 3.77629L11.7185 7.49994H10V3.77629ZM5.5154 7.49994L9 2.96994V7.49994H5.5154ZM11.3596 12.9999H4.6404L4.1404 10.9999H11.8596L11.3596 12.9999Z" fill="black"/>
</svg>
