<svg width="16" height="16" viewBox="0 0 16 16" fill="none" xmlns="http://www.w3.org/2000/svg">
<path fill-rule="evenodd" clip-rule="evenodd" d="M15 7H14C13.9985 5.67438 13.4712 4.40348 12.5339 3.46612C11.5965 2.52876 10.3256 2.0015 9 2V1C10.5907 1.00181 12.1158 1.63454 13.2406 2.75936C14.3655 3.88419 14.9982 5.40926 15 7ZM13 7H12C11.9991 6.20462 11.6828 5.44208 11.1203 4.87966C10.5579 4.31724 9.79538 4.00089 9 4V3C10.0605 3.00122 11.0772 3.42304 11.8271 4.17292C12.577 4.9228 12.9988 5.93951 13 7ZM8 12.48V14H15V15H1V14H3.13965L4.36765 10.3163C3.75737 9.427 3.4524 8.36356 3.49863 7.286C3.54486 6.20844 3.93979 5.17503 4.624 4.34128C4.70532 4.24131 4.80668 4.15949 4.92155 4.10108C5.03643 4.04268 5.16226 4.00899 5.29095 4.00218C5.41621 3.99641 5.54131 4.01666 5.65835 4.06166C5.77539 4.10666 5.88183 4.17543 5.97095 4.26363L8.5 6.79293L9.79295 5.49998L10.5 6.20703L9.20705 7.49998L11.7359 10.0288C11.8245 10.1176 11.8936 10.224 11.9387 10.3411C11.9838 10.4582 12.004 10.5834 11.9978 10.7088C11.991 10.8375 11.9573 10.9633 11.8989 11.0782C11.8406 11.1931 11.7588 11.2945 11.6589 11.376C11.1525 11.793 10.5683 12.1053 9.94017 12.2949C9.31207 12.4844 8.6526 12.5473 8 12.48ZM10.9529 10.66L5.34 5.04688C4.74294 5.81662 4.44726 6.77777 4.50842 7.75C4.56959 8.72223 4.98339 9.63874 5.67221 10.3276C6.36103 11.0164 7.27753 11.4303 8.24976 11.4915C9.22199 11.5527 10.1831 11.257 10.9529 10.66ZM4.19375 14H7V12.2717C6.30548 12.0506 5.66776 11.6802 5.1316 11.1865L4.19375 14Z" fill="black"/>
</svg>
