<svg width="16" height="16" viewBox="0 0 16 16" fill="none" xmlns="http://www.w3.org/2000/svg">
<path fill-rule="evenodd" clip-rule="evenodd" d="M9.5 6.00003H13.25C13.714 5.99949 14.1588 5.81494 14.4868 5.48687C14.8149 5.1588 14.9995 4.71399 15 4.25003C15.0017 3.88708 14.8894 3.53276 14.679 3.23703C14.4686 2.94131 14.1706 2.71909 13.8272 2.60173C13.6471 2.1305 13.3282 1.72505 12.9126 1.43904C12.4971 1.15303 12.0045 0.999943 11.5 1.00003C11.1174 0.998056 10.74 1.08783 10.3992 1.26182C10.0585 1.43582 9.76446 1.68896 9.54175 2.00003H9.5C8.96957 2.00003 8.46086 2.21075 8.08579 2.58582C7.71071 2.96089 7.5 3.4696 7.5 4.00003C7.5 4.53046 7.71071 5.03917 8.08579 5.41425C8.46086 5.78932 8.96957 6.00003 9.5 6.00003ZM8.79289 3.29293C8.98043 3.10539 9.23478 3.00003 9.5 3.00003H10.0571L10.206 2.78313C10.3474 2.51794 10.5661 2.30212 10.8332 2.16441C11.1003 2.0267 11.403 1.97364 11.701 2.01232C11.999 2.05099 12.2781 2.17955 12.5012 2.38087C12.7243 2.58219 12.8807 2.84671 12.9497 3.13918L13.0305 3.46353L13.3611 3.51308C13.5386 3.53814 13.701 3.62655 13.8185 3.762C13.9359 3.89744 14.0004 4.07078 14 4.25003C13.9998 4.44888 13.9207 4.63951 13.7801 4.78011C13.6395 4.92072 13.4488 4.99981 13.25 5.00003H9.5C9.23478 5.00003 8.98043 4.89467 8.79289 4.70714C8.60536 4.5196 8.5 4.26525 8.5 4.00003C8.5 3.73482 8.60536 3.48046 8.79289 3.29293ZM6.5 12.4441V14H15V15H1V14H2.21605L3.4497 11.5327C3.36315 11.4595 3.27785 11.3843 3.1968 11.3032C2.82535 10.9318 2.53069 10.4909 2.32966 10.0056C2.12863 9.52029 2.02516 9.00015 2.02516 8.47487C2.02516 7.94959 2.12863 7.42945 2.32966 6.94416C2.53069 6.45887 2.82535 6.01793 3.1968 5.64652C3.24321 5.60007 3.29831 5.56322 3.35897 5.53808C3.41963 5.51294 3.48464 5.5 3.5503 5.5C3.61596 5.5 3.68097 5.51294 3.74163 5.53808C3.80229 5.56322 3.85739 5.60007 3.9038 5.64652L6.025 7.76782L7.29295 6.50002L8 7.20707L6.7322 8.47502L8.8535 10.5962C8.89994 10.6426 8.93679 10.6977 8.96192 10.7584C8.98706 10.819 9 10.8841 9 10.9497C9 11.0154 8.98706 11.0804 8.96192 11.141C8.93679 11.2017 8.89994 11.2568 8.8535 11.3032C8.22047 11.9386 7.39089 12.3407 6.5 12.4441ZM3.33425 14H5.5V12.4365C5.08178 12.3823 4.67495 12.2614 4.295 12.0784L3.33425 14ZM3.03564 8.72555C3.09503 9.43207 3.40258 10.0948 3.9038 10.5962C4.40524 11.0975 5.06781 11.4049 5.77435 11.4642C6.48089 11.5236 7.18562 11.3309 7.76365 10.9203L3.57935 6.73622C3.16887 7.31431 2.97626 8.01904 3.03564 8.72555Z" fill="black"/>
</svg>
