<svg width="16" height="16" viewBox="0 0 16 16" fill="none" xmlns="http://www.w3.org/2000/svg">
<path d="M11.457 8.25002L12.8535 6.85352C12.8999 6.80711 12.9368 6.752 12.9619 6.69135C12.9871 6.63069 13 6.56568 13 6.50002C13 6.43436 12.9871 6.36934 12.9619 6.30869C12.9368 6.24803 12.8999 6.19292 12.8535 6.14652L11.707 5.00002L12.75 3.95707L14.2929 5.50002L15 4.79297L11.207 1.00002L10.5 1.70707L12.0429 3.25002L11 4.29297L9.85349 3.14652C9.80708 3.10007 9.75197 3.06322 9.69132 3.03808C9.63066 3.01294 9.56565 3 9.49999 3C9.43433 3 9.36931 3.01294 9.30866 3.03808C9.248 3.06322 9.19289 3.10007 9.14649 3.14652L7.74999 4.54297L4.35349 1.14652C4.30708 1.10007 4.25197 1.06322 4.19132 1.03808C4.13066 1.01294 4.06565 1 3.99999 1C3.93433 1 3.86931 1.01294 3.80866 1.03808C3.748 1.06322 3.69289 1.10007 3.64649 1.14652L1.14649 3.64652C1.10004 3.69292 1.06319 3.74803 1.03805 3.80869C1.01291 3.86934 0.999969 3.93436 0.999969 4.00002C0.999969 4.06568 1.01291 4.13069 1.03805 4.19135C1.06319 4.252 1.10004 4.30711 1.14649 4.35352L4.54294 7.75002L3.14649 9.14652C3.10004 9.19292 3.06319 9.24803 3.03805 9.30869C3.01291 9.36934 2.99997 9.43436 2.99997 9.50002C2.99997 9.56568 3.01291 9.63069 3.03805 9.69135C3.06319 9.752 3.10004 9.80711 3.14649 9.85352L4.29294 11L3.24999 12.043L1.70704 10.5L0.999987 11.2071L4.79294 15L5.49999 14.293L3.95704 12.75L4.99999 11.7071L6.14649 12.8535C6.1929 12.9 6.24801 12.9368 6.30866 12.9619C6.36932 12.9871 6.43433 13 6.49999 13C6.56564 13 6.63066 12.9871 6.69131 12.9619C6.75197 12.9368 6.80708 12.9 6.85349 12.8535L8.24999 11.4571L11.6465 14.8535C11.6929 14.9 11.748 14.9368 11.8087 14.9619C11.8693 14.9871 11.9343 15 12 15C12.0656 15 12.1307 14.9871 12.1913 14.9619C12.252 14.9368 12.3071 14.9 12.3535 14.8535L14.8535 12.3535C14.8999 12.3071 14.9368 12.252 14.9619 12.1913C14.9871 12.1307 15 12.0657 15 12C15 11.9344 14.9871 11.8693 14.9619 11.8087C14.9368 11.748 14.8999 11.6929 14.8535 11.6465L11.457 8.25002ZM2.20704 4.00002L3.99999 2.20707L5.04294 3.25002L3.24999 5.04297L2.20704 4.00002ZM3.95704 5.75002L5.74999 3.95707L7.04294 5.25002L5.24999 7.04297L3.95704 5.75002ZM6.49999 11.793L4.20704 9.50002L9.49999 4.20707L11.7929 6.50002L6.49999 11.793ZM8.95704 10.75L10.75 8.95707L12.0429 10.25L10.25 12.043L8.95704 10.75ZM12 13.793L10.957 12.75L12.75 10.9571L13.7929 12L12 13.793Z" fill="black"/>
</svg>
