<svg width="16" height="16" viewBox="0 0 16 16" fill="none" xmlns="http://www.w3.org/2000/svg">
<path fill-rule="evenodd" clip-rule="evenodd" d="M12.5 10H14C14.2652 10 14.5196 9.89464 14.7071 9.70711C14.8946 9.51957 15 9.26522 15 9V2C15 1.73478 14.8946 1.48043 14.7071 1.29289C14.5196 1.10536 14.2652 1 14 1H4C3.73478 1 3.48043 1.10536 3.29289 1.29289C3.10536 1.48043 3 1.73478 3 2V3.5H4V2H14V9H12.5V10ZM9.04 5.375L10.78 7.55C10.9222 7.72728 10.9998 7.94772 11 8.175V14C11 14.2652 10.8946 14.5196 10.7071 14.7071C10.5196 14.8946 10.2652 15 10 15H2C1.73478 15 1.48043 14.8946 1.29289 14.7071C1.10536 14.5196 1 14.2652 1 14V6C1 5.73478 1.10536 5.48043 1.29289 5.29289C1.48043 5.10536 1.73478 5 2 5H8.26C8.4098 5.00009 8.55766 5.03384 8.69267 5.09875C8.82768 5.16365 8.94638 5.25806 9.04 5.375ZM7.5 6H4.5V7.5H7.5V6ZM4.5 14H7.5V11H4.5V14ZM8.5 11V14H10V8.175L8.5 6.3V7.5C8.5 7.76522 8.39464 8.01957 8.20711 8.20711C8.01957 8.39464 7.76522 8.5 7.5 8.5H4.5C4.23478 8.5 3.98043 8.39464 3.79289 8.20711C3.60536 8.01957 3.5 7.76522 3.5 7.5V6H2V14H3.5V11C3.5 10.7348 3.60536 10.4804 3.79289 10.2929C3.98043 10.1054 4.23478 10 4.5 10H7.5C7.76522 10 8.01957 10.1054 8.20711 10.2929C8.39464 10.4804 8.5 10.7348 8.5 11ZM13 3H10V4H13V3ZM11 5H13V6H11V5Z" fill="black"/>
</svg>
