<svg width="16" height="16" viewBox="0 0 16 16" fill="none" xmlns="http://www.w3.org/2000/svg">
<path fill-rule="evenodd" clip-rule="evenodd" d="M6.63738 1.27674C6.88946 1.09769 7.19078 1.00106 7.49998 1.00013C7.77444 0.999659 8.04375 1.07464 8.27848 1.21687C8.51322 1.35909 8.70434 1.56311 8.83098 1.80661C8.95761 2.05011 9.01489 2.32373 8.99654 2.59758C8.97819 2.87143 8.88493 3.13496 8.72694 3.35939C8.56895 3.58382 8.35232 3.76051 8.10071 3.87016C7.8491 3.9798 7.57219 4.01818 7.30025 3.9811C7.0283 3.94402 6.77178 3.83291 6.55871 3.6599C6.34564 3.4869 6.18421 3.25866 6.09208 3.00013H3.90778C3.83322 3.20929 3.71309 3.39927 3.55609 3.5563C3.39908 3.71333 3.20913 3.83349 2.99998 3.90808V6.09218C3.33359 6.21013 3.61476 6.44221 3.79379 6.74742C3.97283 7.05262 4.03821 7.4113 3.97838 7.76005C3.91854 8.10879 3.73734 8.42516 3.46681 8.65323C3.19627 8.8813 2.85382 9.00639 2.49998 9.00639C2.14613 9.00639 1.80368 8.8813 1.53315 8.65323C1.26261 8.42516 1.08142 8.10879 1.02158 7.76005C0.961745 7.4113 1.02712 7.05262 1.20616 6.74742C1.3852 6.44221 1.66637 6.21013 1.99998 6.09218V3.90783C1.76131 3.82393 1.54781 3.68089 1.37943 3.49207C1.21106 3.30325 1.09331 3.07482 1.0372 2.82814C0.981081 2.58145 0.98843 2.32457 1.05856 2.08149C1.12868 1.83842 1.2593 1.6171 1.43819 1.43821C1.61709 1.25933 1.83842 1.12873 2.08149 1.05861C2.32457 0.988497 2.58146 0.981161 2.82814 1.03729C3.07482 1.09342 3.30324 1.21118 3.49205 1.37956C3.68086 1.54795 3.82389 1.76145 3.90778 2.00013H6.09213C6.19483 1.70849 6.3853 1.45579 6.63738 1.27674ZM2.22219 7.91586C2.30442 7.9708 2.40109 8.00013 2.49998 8.00013C2.63255 8.00002 2.75967 7.94731 2.85341 7.85357C2.94716 7.75982 2.99987 7.6327 2.99998 7.50013C2.99998 7.40124 2.97065 7.30457 2.91571 7.22234C2.86077 7.14012 2.78268 7.07603 2.69132 7.03819C2.59996 7.00035 2.49942 6.99044 2.40243 7.00974C2.30544 7.02903 2.21635 7.07665 2.14643 7.14658C2.0765 7.2165 2.02888 7.30559 2.00959 7.40258C1.99029 7.49957 2.00019 7.60011 2.03804 7.69147C2.07588 7.78283 2.13997 7.86092 2.22219 7.91586ZM2.22219 2.91586C2.30442 2.9708 2.40109 3.00013 2.49998 3.00013C2.63255 3.00002 2.75967 2.94731 2.85341 2.85357C2.94716 2.75982 2.99987 2.6327 2.99998 2.50013C2.99998 2.40124 2.97065 2.30457 2.91571 2.22234C2.86077 2.14012 2.78268 2.07603 2.69132 2.03819C2.59996 2.00035 2.49942 1.99044 2.40243 2.00974C2.30544 2.02903 2.21635 2.07665 2.14643 2.14658C2.0765 2.2165 2.02888 2.30559 2.00959 2.40258C1.99029 2.49957 2.00019 2.60011 2.03804 2.69147C2.07588 2.78283 2.13997 2.86092 2.22219 2.91586ZM7.22219 2.91586C7.30442 2.9708 7.40109 3.00013 7.49998 3.00013C7.63255 3.00002 7.75967 2.94731 7.85341 2.85357C7.94716 2.75982 7.99987 2.6327 7.99998 2.50013C7.99998 2.40124 7.97065 2.30457 7.91571 2.22234C7.86077 2.14012 7.78268 2.07603 7.69132 2.03819C7.59996 2.00035 7.49942 1.99044 7.40243 2.00974C7.30544 2.02903 7.21635 2.07665 7.14642 2.14658C7.0765 2.2165 7.02888 2.30559 7.00959 2.40258C6.99029 2.49957 7.00019 2.60011 7.03804 2.69147C7.07588 2.78283 7.13997 2.86092 7.22219 2.91586ZM13 3.01904C13.5267 3.01904 14.0332 3.22208 14.414 3.58593C14.5998 3.77159 14.7472 3.99203 14.8477 4.23466C14.9482 4.47729 15 4.73735 15 4.99998C15 5.26262 14.9482 5.52268 14.8477 5.76531C14.7472 6.00793 14.5998 6.22837 14.414 6.41403L6.56223 14.2676C6.33062 14.5005 6.05512 14.6851 5.75168 14.8108C5.44824 14.9365 5.12288 15.0008 4.79443 15H0.171631L11.5859 3.58593C11.9668 3.22208 12.4733 3.01904 13 3.01904ZM7.18938 9.39638L6.14638 10.4393L7.56118 11.8542L8.60403 10.8111L7.18938 9.39638ZM5.36869 13.8864C5.55072 13.811 5.71601 13.7002 5.85498 13.5605L6.85433 12.5614L5.43933 11.1464L2.58568 14H4.79443C4.99147 14.0004 5.18665 13.9618 5.36869 13.8864ZM9.31083 10.104L13.7068 5.70703C13.7997 5.61419 13.8734 5.50397 13.9236 5.38265C13.9739 5.26133 13.9998 5.1313 13.9998 4.99998C13.9998 4.86866 13.9739 4.73863 13.9236 4.61732C13.8734 4.496 13.7997 4.38577 13.7068 4.29293C13.5164 4.11102 13.2631 4.00951 12.9998 4.00951C12.7364 4.00951 12.4832 4.11102 12.2927 4.29293L7.89618 8.68938L9.31083 10.104Z" fill="black"/>
</svg>
