<svg width="16" height="16" viewBox="0 0 16 16" fill="none" xmlns="http://www.w3.org/2000/svg">
<path fill-rule="evenodd" clip-rule="evenodd" d="M3.49999 1.00001H5.49999C6.16303 1.00001 6.79892 1.2634 7.26776 1.73225C7.7366 2.20109 7.99999 2.83697 7.99999 3.50001C7.99999 4.16305 7.7366 4.79894 7.26776 5.26778C6.79892 5.73662 6.16303 6.00001 5.49999 6.00001H4.40784C4.33328 6.20918 4.21314 6.39916 4.05613 6.55619C3.89912 6.71322 3.70915 6.83338 3.49999 6.90796V7.00001C3.4994 7.53026 3.28849 8.03862 2.91355 8.41357C2.5386 8.78851 2.03024 8.99942 1.49999 9.00001H0.999992V8.00001H1.49999C1.76511 7.99968 2.01927 7.89422 2.20673 7.70675C2.3942 7.51929 2.49966 7.26513 2.49999 7.00001V6.90771C2.20836 6.80503 1.95567 6.61459 1.77662 6.36254C1.59757 6.11049 1.50094 5.80919 1.49999 5.50001C1.50207 5.35624 1.52509 5.21354 1.56834 5.07641C1.26759 4.7112 1.077 4.26793 1.01886 3.7984C0.960721 3.32888 1.03743 2.85251 1.24003 2.42497C1.44262 1.99743 1.76273 1.63639 2.16293 1.38406C2.56313 1.13172 3.02688 0.998518 3.49999 1.00001ZM2.72221 5.91575C2.80443 5.97069 2.9011 6.00001 2.99999 6.00001C3.13256 5.99989 3.25967 5.94718 3.35341 5.85343C3.44716 5.75969 3.49987 5.63258 3.49999 5.50001C3.49999 5.40112 3.47067 5.30445 3.41573 5.22223C3.36079 5.14 3.2827 5.07592 3.19133 5.03807C3.09997 5.00023 2.99944 4.99033 2.90245 5.00962C2.80546 5.02891 2.71637 5.07653 2.64644 5.14646C2.57651 5.21639 2.52889 5.30548 2.5096 5.40247C2.49031 5.49946 2.50021 5.59999 2.53805 5.69135C2.5759 5.78272 2.63998 5.86081 2.72221 5.91575ZM4.40784 5.00001H5.49999C5.89782 5.00001 6.27935 4.84198 6.56065 4.56067C6.84196 4.27937 6.99999 3.89784 6.99999 3.50001C6.99999 3.10219 6.84196 2.72066 6.56065 2.43935C6.27935 2.15805 5.89782 2.00001 5.49999 2.00001H3.49999C3.23767 1.9992 2.97975 2.06741 2.75212 2.19779C2.5245 2.32817 2.33517 2.51614 2.20315 2.74282C2.07113 2.9695 2.00107 3.22692 1.99999 3.48924C1.99891 3.75156 2.06685 4.00955 2.19699 4.23731C2.38628 4.11525 2.60083 4.03778 2.82444 4.01076C3.04805 3.98373 3.27487 4.00786 3.48779 4.08131C3.70071 4.15477 3.89417 4.27563 4.05355 4.43478C4.21293 4.59392 4.33408 4.7872 4.40784 5.00001ZM13 3C13.5267 3 14.0332 3.20304 14.4141 3.56689C14.5998 3.75255 14.7472 3.97299 14.8477 4.21562C14.9483 4.45824 15 4.7183 15 4.98094C15 5.24357 14.9483 5.50363 14.8477 5.74626C14.7472 5.98889 14.5998 6.20933 14.4141 6.39499L6.56226 14.2485C6.33065 14.4814 6.05515 14.6661 5.75171 14.7918C5.44827 14.9175 5.12291 14.9818 4.79446 14.9809H0.171661L11.586 3.56689C11.9668 3.20304 12.4733 3 13 3ZM7.18941 9.37739L6.14641 10.4203L7.56121 11.835L8.60406 10.792L7.18941 9.37739ZM5.36863 13.8674C5.5507 13.792 5.71601 13.6812 5.85501 13.5415L6.85436 12.5423L5.43936 11.1273L2.58571 13.9809H4.79426C4.99134 13.9814 5.18656 13.9428 5.36863 13.8674ZM9.31106 10.085L13.7071 5.68799V5.68804C13.7999 5.59521 13.8736 5.48499 13.9239 5.36367C13.9741 5.24236 14 5.11233 14 4.98101C14 4.8497 13.9741 4.71967 13.9239 4.59836C13.8736 4.47704 13.7999 4.36682 13.7071 4.27399C13.5166 4.09205 13.2634 3.99053 13 3.99053C12.7366 3.99053 12.4834 4.09205 12.293 4.27399L7.89641 8.67039L9.31106 10.085Z" fill="black"/>
</svg>
