<svg width="16" height="16" viewBox="0 0 16 16" fill="none" xmlns="http://www.w3.org/2000/svg">
<path d="M14.415 2.58498C14.0337 2.22124 13.527 2.01831 13 2.01831C12.473 2.01831 11.9663 2.22124 11.585 2.58498L0.170013 14H4.79501C5.45678 13.9998 6.09149 13.7373 6.56001 13.27L14.415 5.41498C14.601 5.22923 14.7485 5.00865 14.8491 4.76586C14.9498 4.52306 15.0016 4.26281 15.0016 3.99998C15.0016 3.73715 14.9498 3.47689 14.8491 3.2341C14.7485 2.9913 14.601 2.77072 14.415 2.58498ZM6.14501 9.43998L7.19001 8.39498L8.60501 9.80998L7.56001 10.855L6.14501 9.43998ZM5.85501 12.56C5.57398 12.8414 5.1927 12.9996 4.79501 13H2.58501L5.44001 10.145L6.85501 11.56L5.85501 12.56ZM13.705 4.70498L9.31001 9.10498L7.89501 7.68998L12.295 3.29498C12.4824 3.10873 12.7358 3.00419 13 3.00419C13.2642 3.00419 13.5177 3.10873 13.705 3.29498C13.8913 3.48234 13.9958 3.73579 13.9958 3.99998C13.9958 4.26416 13.8913 4.51762 13.705 4.70498Z" fill="black"/>
</svg>
