<svg width="16" height="16" viewBox="0 0 16 16" fill="none" xmlns="http://www.w3.org/2000/svg">
<path fill-rule="evenodd" clip-rule="evenodd" d="M15 5H14V2H11V1H15V5ZM11 6.5H12V5C12 4.73478 11.8946 4.48043 11.7071 4.29289C11.5196 4.10536 11.2652 4 11 4H5C4.73478 4 4.48043 4.10536 4.29289 4.29289C4.10536 4.48043 4 4.73478 4 5V6.5H5V5H11V6.5ZM15 7.5H1V8.5H15V7.5ZM11 12H5C4.73478 12 4.48043 11.8946 4.29289 11.7071C4.10536 11.5196 4 11.2652 4 11V9.5H5V11H11V9.5H12V11C12 11.2652 11.8946 11.5196 11.7071 11.7071C11.5196 11.8946 11.2652 12 11 12ZM1 5H2V2H5V1H1V5ZM5 15H1V11H2V14H5V15ZM11 15H15V11H14V14H11V15Z" fill="black"/>
</svg>
