<svg width="16" height="16" viewBox="0 0 16 16" fill="none" xmlns="http://www.w3.org/2000/svg">
<path fill-rule="evenodd" clip-rule="evenodd" d="M5.49997 1H0.999971V5.5H1.99997V2H5.49997V1ZM14.4023 1.0096C14.4993 0.990302 14.5999 1.00024 14.6913 1.03815C14.7826 1.07598 14.8607 1.14006 14.9157 1.22228C14.9706 1.3045 15 1.40116 15 1.50005V5.50005H14V2.70735L12 4.70735V11.0001C11.9997 11.2652 11.8942 11.5194 11.7068 11.7069C11.5193 11.8943 11.2651 11.9998 11 12.0001H4.70712L2.70712 14.0001H5.49997V15.0001H1.49997C1.40108 15.0001 1.3044 14.9708 1.22217 14.9158C1.13993 14.8609 1.07583 14.7828 1.03797 14.6915C1.00011 14.6001 0.990193 14.4996 1.00947 14.4026C1.02875 14.3056 1.07635 14.2165 1.14627 14.1466L14.1463 1.14655C14.2162 1.07656 14.3053 1.0289 14.4023 1.0096ZM5.70712 11.0001H11V5.70735L5.70712 11.0001ZM4.99997 5V8.8777L3.99997 9.8777V5C4.0003 4.73488 4.10577 4.48072 4.29323 4.29326C4.48069 4.10579 4.73486 4.00033 4.99997 4H9.87767L8.87767 5H4.99997ZM15 15H10.5V14H14V10.5H15V15ZM1.99997 11.8775V10.5H0.999971V12.877L1.99997 11.8775ZM10.5 1H12.8775L11.8775 2H10.5V1Z" fill="black"/>
</svg>
