<svg width="16" height="16" viewBox="0 0 16 16" fill="none" xmlns="http://www.w3.org/2000/svg">
<path fill-rule="evenodd" clip-rule="evenodd" d="M2 1H14C14.2651 1.0003 14.5193 1.10576 14.7068 1.29323C14.8942 1.4807 14.9997 1.73488 15 2V14C14.9997 14.2651 14.8942 14.5193 14.7068 14.7068C14.5193 14.8942 14.2651 14.9997 14 15H2C1.73488 14.9997 1.4807 14.8942 1.29323 14.7068C1.10576 14.5193 1.0003 14.2651 1 14V2C1.0003 1.73488 1.10576 1.4807 1.29323 1.29323C1.4807 1.10576 1.73488 1.0003 2 1ZM8.5 7.5H14V2H8.5V7.5ZM2 7.5H7.5V2H2V7.5ZM2 14H7.5V8.5H2V14ZM14 8.5H8.5V14H14V8.5ZM6 4.75C6 5.44036 5.44036 6 4.75 6C4.05964 6 3.5 5.44036 3.5 4.75C3.5 4.05964 4.05964 3.5 4.75 3.5C5.44036 3.5 6 4.05964 6 4.75ZM6 11.25C6 11.9404 5.44036 12.5 4.75 12.5C4.05964 12.5 3.5 11.9404 3.5 11.25C3.5 10.5596 4.05964 10 4.75 10C5.44036 10 6 10.5596 6 11.25ZM11.25 12.5C11.9404 12.5 12.5 11.9404 12.5 11.25C12.5 10.5596 11.9404 10 11.25 10C10.5596 10 10 10.5596 10 11.25C10 11.9404 10.5596 12.5 11.25 12.5Z" fill="black"/>
</svg>
