<svg width="16" height="16" viewBox="0 0 16 16" fill="none" xmlns="http://www.w3.org/2000/svg">
<path d="M13.5 9.50041C13.4994 8.97004 13.2884 8.46157 12.9134 8.08654C12.5384 7.7115 12.0299 7.50053 11.4995 7.49991H4.50055C4.23528 7.49965 3.98096 7.39416 3.79338 7.2066C3.6058 7.01904 3.50029 6.76473 3.5 6.49946V4.92891C3.84375 4.83931 4.15738 4.65966 4.40858 4.40848C4.65977 4.15729 4.83943 3.84366 4.92905 3.49991H11.071C11.1927 3.97124 11.4822 4.38201 11.885 4.65521C12.2879 4.92842 12.7766 5.04531 13.2595 4.98397C13.7425 4.92263 14.1864 4.68728 14.5082 4.32203C14.83 3.95678 15.0075 3.4867 15.0075 2.99991C15.0075 2.51313 14.83 2.04305 14.5082 1.6778C14.1864 1.31254 13.7425 1.07719 13.2595 1.01585C12.7766 0.954516 12.2879 1.07141 11.885 1.34461C11.4822 1.61782 11.1927 2.02858 11.071 2.49991H4.92905C4.84157 2.15879 4.66539 1.84689 4.4184 1.59588C4.17141 1.34486 3.86239 1.16367 3.52273 1.07069C3.18307 0.977718 2.82486 0.97627 2.48446 1.0665C2.14405 1.15672 1.83359 1.33541 1.58457 1.58442C1.33556 1.83343 1.15686 2.14389 1.06663 2.48429C0.976396 2.82469 0.977837 3.18291 1.07081 3.52257C1.16378 3.86223 1.34496 4.17125 1.59597 4.41825C1.84698 4.66524 2.15888 4.84143 2.5 4.92891V6.49946C2.50063 7.02984 2.71161 7.53831 3.08665 7.91333C3.46169 8.28835 3.97017 8.4993 4.50055 8.49991H11.4995C11.7648 8.50019 12.0191 8.60569 12.2067 8.79326C12.3942 8.98083 12.4997 9.23515 12.5 9.50041V10.9999H11V12.4999H4.92905C4.80735 12.0286 4.51793 11.6178 4.11504 11.3446C3.71215 11.0714 3.22345 10.9545 2.74055 11.0159C2.25764 11.0772 1.81368 11.3125 1.49188 11.6778C1.17009 12.043 0.992554 12.5131 0.992554 12.9999C0.992554 13.4867 1.17009 13.9568 1.49188 14.322C1.81368 14.6873 2.25764 14.9226 2.74055 14.984C3.22345 15.0453 3.71215 14.9284 4.11504 14.6552C4.51793 14.382 4.80735 13.9712 4.92905 13.4999H11V14.9999H15V10.9999H13.5V9.50041ZM13 1.99991C13.1978 1.99991 13.3911 2.05856 13.5556 2.16844C13.72 2.27832 13.8482 2.4345 13.9239 2.61723C13.9996 2.79995 14.0194 3.00102 13.9808 3.195C13.9422 3.38898 13.847 3.56717 13.7071 3.70702C13.5672 3.84687 13.3891 3.94211 13.1951 3.9807C13.0011 4.01928 12.8 3.99948 12.6173 3.92379C12.4346 3.8481 12.2784 3.71993 12.1685 3.55548C12.0586 3.39103 12 3.19769 12 2.99991C12.0002 2.73477 12.1057 2.48056 12.2932 2.29308C12.4806 2.1056 12.7349 2.00016 13 1.99991ZM2 2.99991C2 2.80213 2.05864 2.60879 2.16853 2.44434C2.27841 2.27989 2.43459 2.15172 2.61731 2.07603C2.80004 2.00034 3.0011 1.98054 3.19509 2.01913C3.38907 2.05771 3.56725 2.15295 3.7071 2.29281C3.84695 2.43266 3.9422 2.61084 3.98078 2.80482C4.01937 2.9988 3.99956 3.19987 3.92388 3.3826C3.84819 3.56532 3.72001 3.7215 3.55557 3.83138C3.39112 3.94126 3.19778 3.99991 3 3.99991C2.73486 3.99966 2.48065 3.89422 2.29317 3.70674C2.10568 3.51926 2.00025 3.26505 2 2.99991ZM3 13.9999C2.80221 13.9999 2.60887 13.9413 2.44443 13.8314C2.27998 13.7215 2.1518 13.5653 2.07612 13.3826C2.00043 13.1999 1.98062 12.9988 2.01921 12.8048C2.0578 12.6108 2.15304 12.4327 2.29289 12.2928C2.43274 12.153 2.61092 12.0577 2.80491 12.0191C2.99889 11.9805 3.19995 12.0003 3.38268 12.076C3.56541 12.1517 3.72158 12.2799 3.83147 12.4443C3.94135 12.6088 4 12.8021 4 12.9999C3.99973 13.265 3.89429 13.5192 3.70681 13.7067C3.51933 13.8942 3.26513 13.9996 3 13.9999ZM14 11.9999V13.9999H12V11.9999H14Z" fill="black"/>
</svg>
