<svg width="16" height="16" viewBox="0 0 16 16" fill="none" xmlns="http://www.w3.org/2000/svg">
<g clip-path="url(#clip0_3_11247)">
<path fill-rule="evenodd" clip-rule="evenodd" d="M4.5 2H11.75C12.612 2 13.4386 2.34241 14.0481 2.9519C14.6576 3.5614 15 4.38805 15 5.25C15 6.11195 14.6576 6.9386 14.0481 7.5481C13.4386 8.15759 12.612 8.5 11.75 8.5H11.5V7.5H11.75C12.3467 7.5 12.919 7.26295 13.341 6.84099C13.7629 6.41903 14 5.84674 14 5.25C14 4.65326 13.7629 4.08097 13.341 3.65901C12.919 3.23705 12.3467 3 11.75 3H4.5V4.5H0.5V0.5H4.5V2ZM1.5 3.5H3.5V1.5H1.5V3.5ZM8 8C7.70333 8 7.41332 7.91203 7.16665 7.7472C6.91997 7.58238 6.72771 7.34811 6.61418 7.07403C6.50065 6.79994 6.47094 6.49834 6.52882 6.20737C6.5867 5.91639 6.72956 5.64912 6.93934 5.43934C7.14912 5.22956 7.41639 5.0867 7.70737 5.02882C7.99834 4.97094 8.29994 5.00065 8.57403 5.11418C8.84811 5.22771 9.08238 5.41997 9.24721 5.66665C9.41203 5.91332 9.5 6.20333 9.5 6.5C9.49956 6.89769 9.34139 7.27897 9.06018 7.56018C8.77897 7.84139 8.39769 7.99956 8 8ZM8 6C7.90111 6 7.80444 6.02933 7.72222 6.08427C7.63999 6.13921 7.5759 6.2173 7.53806 6.30866C7.50022 6.40002 7.49032 6.50056 7.50961 6.59755C7.5289 6.69454 7.57652 6.78363 7.64645 6.85355C7.71637 6.92348 7.80547 6.9711 7.90246 6.99039C7.99945 7.00969 8.09998 6.99978 8.19134 6.96194C8.28271 6.9241 8.3608 6.86001 8.41574 6.77779C8.47068 6.69556 8.5 6.59889 8.5 6.5C8.49983 6.36745 8.44709 6.24037 8.35336 6.14664C8.25963 6.05291 8.13256 6.00017 8 6ZM11.5 13V11.5H15.5V15.5H11.5V14H4.25C3.38805 14 2.5614 13.6576 1.9519 13.0481C1.34241 12.4386 1 11.612 1 10.75C1 9.88805 1.34241 9.0614 1.9519 8.4519C2.5614 7.84241 3.38805 7.5 4.25 7.5H4.5V8.5H4.25C3.65326 8.5 3.08097 8.73705 2.65901 9.15901C2.23705 9.58097 2 10.1533 2 10.75C2 11.3467 2.23705 11.919 2.65901 12.341C3.08097 12.7629 3.65326 13 4.25 13H11.5ZM12.5 14.5H14.5V12.5H12.5V14.5ZM9.5 11H10.5V9.5C10.4997 9.23488 10.3942 8.9807 10.2068 8.79323C10.0193 8.60576 9.76512 8.5003 9.5 8.5H6.5C6.23488 8.5003 5.9807 8.60576 5.79323 8.79323C5.60576 8.9807 5.5003 9.23488 5.5 9.5V11H6.5V9.5H9.5V11Z" fill="black"/>
</g>
<defs>
<clipPath id="clip0_3_11247">
<rect width="16" height="16" fill="white"/>
</clipPath>
</defs>
</svg>
