<svg width="16" height="16" viewBox="0 0 16 16" fill="none" xmlns="http://www.w3.org/2000/svg">
<path fill-rule="evenodd" clip-rule="evenodd" d="M9 4H12C12.3978 4 12.7794 4.15804 13.0607 4.43934C13.342 4.72064 13.5 5.10218 13.5 5.5C13.5 5.89782 13.342 6.27936 13.0607 6.56066C12.7794 6.84196 12.3978 7 12 7H11.11L11.4902 8.90185C11.5147 9.02386 11.4927 9.1506 11.4287 9.2573L9.9287 11.7573C9.88428 11.8313 9.82144 11.8926 9.74631 11.9351C9.67119 11.9776 9.58633 12 9.5 12H6C6 12.5304 5.78929 13.0391 5.41421 13.4142C5.03914 13.7893 4.53043 14 4 14C3.46957 14 2.96086 13.7893 2.58579 13.4142C2.21071 13.0391 2 12.5304 2 12H1.5C1.36739 12 1.24021 11.9473 1.14645 11.8536C1.05268 11.7598 1 11.6326 1 11.5V10.5C1.00075 9.83719 1.26439 9.20174 1.73307 8.73307C2.20174 8.26439 2.83719 8.00075 3.5 8H5.92805L5.62805 7H3V6H5.62795C5.84321 5.99902 6.05297 6.06795 6.22569 6.19642C6.39842 6.32489 6.52477 6.50596 6.58575 6.7124L7.8719 11H9.2169L10.472 8.9087L10.01 6.59815C9.99548 6.52563 9.99723 6.45079 10.0151 6.37902C10.033 6.30726 10.0666 6.24036 10.1135 6.18315C10.1604 6.12593 10.2193 6.07983 10.2862 6.04816C10.353 6.01649 10.426 6.00004 10.5 6H12C12.1326 6 12.2598 5.94732 12.3536 5.85355C12.4473 5.75979 12.5 5.63261 12.5 5.5C12.5 5.36739 12.4473 5.24021 12.3536 5.14645C12.2598 5.05268 12.1326 5 12 5H9V4ZM3.29326 12.7067C3.48072 12.8942 3.73488 12.9997 4 13C4.26512 12.9997 4.51928 12.8942 4.70674 12.7067C4.89421 12.5193 4.99967 12.2651 5 12H3C3.00033 12.2651 3.10579 12.5193 3.29326 12.7067ZM2 10.5V11H6.82805L6.22805 9H3.5C3.10231 9.00044 2.72103 9.15861 2.43982 9.43982C2.15861 9.72103 2.00044 10.1023 2 10.5ZM11.8889 13.6629C12.2178 13.8827 12.6044 14 13 14C13.5303 13.9994 14.0386 13.7885 14.4136 13.4136C14.7885 13.0386 14.9994 12.5303 15 12C15 11.6044 14.8827 11.2178 14.6629 10.8889C14.4432 10.56 14.1308 10.3036 13.7654 10.1522C13.3999 10.0009 12.9978 9.96126 12.6098 10.0384C12.2219 10.1156 11.8655 10.3061 11.5858 10.5858C11.3061 10.8655 11.1156 11.2219 11.0384 11.6098C10.9613 11.9978 11.0009 12.3999 11.1522 12.7654C11.3036 13.1308 11.56 13.4432 11.8889 13.6629ZM12.4444 11.1685C12.6089 11.0587 12.8022 11 13 11C13.2651 11.0003 13.5193 11.1058 13.7068 11.2932C13.8942 11.4807 13.9997 11.7349 14 12C14 12.1978 13.9414 12.3911 13.8315 12.5556C13.7216 12.72 13.5654 12.8482 13.3827 12.9239C13.2 12.9996 12.9989 13.0194 12.8049 12.9808C12.6109 12.9422 12.4327 12.847 12.2929 12.7071C12.153 12.5673 12.0578 12.3891 12.0192 12.1951C11.9806 12.0011 12.0004 11.8 12.0761 11.6173C12.1518 11.4346 12.28 11.2784 12.4444 11.1685Z" fill="black"/>
</svg>
