<svg width="16" height="16" viewBox="0 0 16 16" fill="none" xmlns="http://www.w3.org/2000/svg">
<path fill-rule="evenodd" clip-rule="evenodd" d="M11.5 4V5H10V7.09205C10.2916 7.19482 10.5443 7.38532 10.7233 7.6374C10.9024 7.88949 10.999 8.1908 11 8.5V12H10V8.5C9.99989 8.36742 9.94718 8.24031 9.85344 8.14656C9.75969 8.05282 9.63258 8.00011 9.5 8H6.5C6.36742 8.00011 6.24031 8.05282 6.14656 8.14656C6.05282 8.24031 6.00011 8.36742 6 8.5V12H5V8.5C5.00098 8.1908 5.09762 7.88949 5.27667 7.6374C5.45571 7.38532 5.70838 7.19482 6 7.09205V5H4.5V4H6C6.00033 3.73489 6.10579 3.48072 6.29326 3.29326C6.48072 3.10579 6.73488 3.00033 7 3H9C9.26511 3.00033 9.51928 3.10579 9.70674 3.29326C9.89421 3.48072 9.99967 3.73489 10 4H11.5ZM9 7V4H7V7H9ZM7.5 9.5H8.5V14H7.5V9.5Z" fill="black"/>
</svg>
