<svg width="16" height="16" viewBox="0 0 16 16" fill="none" xmlns="http://www.w3.org/2000/svg">
<path fill-rule="evenodd" clip-rule="evenodd" d="M13 0.5V1.5H1.5V9H0.5V1.5C0.5 0.94825 0.9486 0.5 1.5 0.5H13ZM3.5 3.5H14.5V9.5H15.5V3.5C15.5 2.94875 15.0514 2.5 14.5 2.5H3.5C2.9486 2.5 2.5 2.94875 2.5 3.5V11C2.5 11.5513 2.9486 12 3.5 12H7V14H5V15H11V11H3.5V3.5ZM10 14H8V12H10V14ZM12.5 6H10.2071L13.5 9.29295L12.7929 10L9.5 6.70705V9H8.5V5H12.5V6ZM15.5 11H12V12H15.5V11ZM15.5 13H12V14H15.5V13Z" fill="black"/>
</svg>
