<svg width="16" height="16" viewBox="0 0 16 16" fill="none" xmlns="http://www.w3.org/2000/svg">
<path fill-rule="evenodd" clip-rule="evenodd" d="M13 3H15V4H13V6H12V4H10V3H12V1H13V3ZM9.01246 11.3053L12 14.2929L11.293 14.9999L8.30541 12.0124C7.4046 12.7325 6.26226 13.0803 5.11302 12.9843C3.96378 12.8884 2.8949 12.356 2.12595 11.4966C1.357 10.6371 0.946353 9.51582 0.978364 8.36303C1.01037 7.21024 1.48261 6.11347 2.29807 5.29801C3.11353 4.48255 4.2103 4.01031 5.36309 3.9783C6.51589 3.94629 7.63717 4.35694 8.49663 5.12589C9.35608 5.89484 9.88846 6.96372 9.98439 8.11296C10.0803 9.2622 9.73253 10.4045 9.01246 11.3053ZM2.58986 6.55545C2.20528 7.13102 2.00001 7.80771 2.00001 8.49994C2.00104 9.42789 2.37012 10.3175 3.02627 10.9737C3.68243 11.6298 4.57206 11.9989 5.50001 11.9999C6.19224 11.9999 6.86893 11.7947 7.4445 11.4101C8.02007 11.0255 8.46868 10.4789 8.73358 9.83934C8.99849 9.19979 9.0678 8.49606 8.93275 7.81713C8.79771 7.1382 8.46436 6.51455 7.97488 6.02507C7.4854 5.53559 6.86176 5.20224 6.18282 5.0672C5.50389 4.93215 4.80015 5.00146 4.16061 5.26637C3.52107 5.53127 2.97445 5.97988 2.58986 6.55545Z" fill="black"/>
</svg>
