<svg width="16" height="16" viewBox="0 0 16 16" fill="none" xmlns="http://www.w3.org/2000/svg">
<path fill-rule="evenodd" clip-rule="evenodd" d="M5.3828 12.4712L7 13.3335V14.4668L4.9121 13.3535C4.03173 12.8852 3.29551 12.186 2.78246 11.3309C2.26942 10.4758 1.99892 9.49718 2 8.5V2C2.00031 1.73488 2.10576 1.4807 2.29323 1.29323C2.4807 1.10576 2.73488 1.0003 3 1H13C13.2651 1.0003 13.5193 1.10576 13.7068 1.29323C13.8942 1.4807 13.9997 1.73488 14 2V7H13V2H3V8.5C2.99916 9.31591 3.22051 10.1166 3.64031 10.8163C4.0601 11.5159 4.66248 12.088 5.3828 12.4712ZM13.9494 11H15V12H13.9494C13.885 12.313 13.7607 12.6106 13.5835 12.8765L14.3285 13.6215L13.6215 14.3285L12.8764 13.5835C12.6106 13.7607 12.313 13.885 12 13.9494V15H11V13.9494C10.687 13.885 10.3894 13.7607 10.1235 13.5835L9.3785 14.3285L8.6715 13.6215L9.4165 12.8764C9.23928 12.6106 9.11502 12.313 9.05055 12H8V11H9.05055C9.11503 10.687 9.2393 10.3894 9.41655 10.1235L8.67155 9.3785L9.37855 8.6715L10.1236 9.4165C10.3894 9.23928 10.687 9.11502 11 9.05055V8H12V9.05055C12.313 9.11503 12.6106 9.2393 12.8765 9.41655L13.6215 8.67155L14.3285 9.37855L13.5835 10.1236C13.7607 10.3894 13.885 10.687 13.9494 11ZM10.6666 12.7472C10.9133 12.912 11.2033 13 11.5 13C11.8977 12.9996 12.279 12.8414 12.5602 12.5602C12.8414 12.279 12.9996 11.8977 13 11.5C13 11.2033 12.912 10.9133 12.7472 10.6666C12.5824 10.42 12.3481 10.2277 12.074 10.1142C11.7999 10.0006 11.4983 9.97094 11.2074 10.0288C10.9164 10.0867 10.6491 10.2296 10.4393 10.4393C10.2296 10.6491 10.0867 10.9164 10.0288 11.2074C9.97094 11.4983 10.0006 11.7999 10.1142 12.074C10.2277 12.3481 10.42 12.5824 10.6666 12.7472Z" fill="black"/>
</svg>
