<svg width="16" height="16" viewBox="0 0 16 16" fill="none" xmlns="http://www.w3.org/2000/svg">
<path fill-rule="evenodd" clip-rule="evenodd" d="M4.9121 13.3535L8 15L11.0879 13.3535C11.9683 12.8852 12.7045 12.186 13.2175 11.3309C13.7306 10.4758 14.0011 9.49718 14 8.5V2C13.9997 1.73487 13.8943 1.48068 13.7068 1.2932C13.5193 1.10572 13.2651 1.00028 13 1H3C2.73487 1.00028 2.48068 1.10572 2.2932 1.2932C2.10573 1.48068 2.00028 1.73487 2 2V8.5C1.99893 9.49718 2.26944 10.4758 2.78248 11.3309C3.29552 12.186 4.03174 12.8852 4.9121 13.3535ZM3 8.5V2H13V8.5C13.0009 9.3159 12.7795 10.1166 12.3597 10.8163C11.9399 11.5159 11.3375 12.088 10.6172 12.4712L8 13.8666L5.3828 12.4712C4.66246 12.088 4.06007 11.5159 3.64028 10.8163C3.22048 10.1166 2.99914 9.3159 3 8.5ZM5.705 7L7 8.295L10.295 5L11 5.705L7 9.705L5 7.705L5.705 7Z" fill="black"/>
</svg>
