<svg width="16" height="16" viewBox="0 0 16 16" fill="none" xmlns="http://www.w3.org/2000/svg">
<g clip-path="url(#clip0_3_11211)">
<path fill-rule="evenodd" clip-rule="evenodd" d="M13 4H12V2H10V1H12C12.2651 1.00028 12.5193 1.10572 12.7068 1.2932C12.8943 1.48068 12.9997 1.73487 13 2V4ZM1 6H2V8H1V6ZM2 13H4V12H2V10H1V12C1.00028 12.2651 1.10572 12.5193 1.2932 12.7068C1.48068 12.8943 1.73487 12.9997 2 13ZM6 1H8V2H6V1ZM2 4H1V2C1.00028 1.73487 1.10572 1.48068 1.2932 1.2932C1.48068 1.10572 1.73487 1.00028 2 1H4V2H2V4ZM13.3086 15.9621C13.3693 15.9872 13.4343 16.0001 13.5 16.0001C13.5657 16.0001 13.6307 15.9872 13.6914 15.9621C13.752 15.937 13.8071 15.9001 13.8535 15.8536L15.8535 13.8536C15.9 13.8072 15.9368 13.7521 15.9619 13.6914C15.9871 13.6307 16 13.5657 16 13.5001C16 13.4344 15.9871 13.3694 15.9619 13.3087C15.9368 13.2481 15.9 13.193 15.8535 13.1466L12.7847 10.0777L15.2774 8.41607C15.3563 8.36343 15.4187 8.28941 15.4571 8.20264C15.4956 8.11588 15.5086 8.01996 15.4945 7.9261C15.4805 7.83224 15.44 7.74431 15.3779 7.67259C15.3157 7.60087 15.2345 7.54831 15.1436 7.52107L5.14355 4.52107C5.05708 4.49514 4.9652 4.4931 4.87767 4.51518C4.79014 4.53725 4.71021 4.58261 4.64638 4.64645C4.58254 4.71028 4.53718 4.79021 4.51511 4.87774C4.49304 4.96527 4.49507 5.05715 4.521 5.14362L7.521 15.1436C7.54824 15.2345 7.6008 15.3158 7.67252 15.378C7.74424 15.4401 7.83217 15.4806 7.92603 15.4946C8.0199 15.5086 8.11581 15.4957 8.20257 15.4572C8.28934 15.4187 8.36336 15.3564 8.416 15.2774L10.0777 12.7847L13.1465 15.8536C13.1929 15.9001 13.248 15.937 13.3086 15.9621ZM14.793 13.5001L13.5 14.793L9.9225 11.2156L8.1736 13.8385L5.74585 5.74592L13.8384 8.17367L11.2155 9.92257L14.793 13.5001Z" fill="black"/>
</g>
<defs>
<clipPath id="clip0_3_11211">
<rect width="16" height="16" fill="white"/>
</clipPath>
</defs>
</svg>
