<svg width="16" height="16" viewBox="0 0 16 16" fill="none" xmlns="http://www.w3.org/2000/svg">
<path fill-rule="evenodd" clip-rule="evenodd" d="M4 3H6V4H4V6H3V4H1V3H3V1H4V3ZM8 3H10V4H8V3ZM12 3V4H14V6H15V4C15 3.73478 14.8946 3.48043 14.7071 3.29289C14.5196 3.10536 14.2652 3 14 3H12ZM3 8H4V10H3V8ZM4 14V12H3V14C3 14.2652 3.10536 14.5196 3.29289 14.7071C3.48043 14.8946 3.73478 15 4 15H6V14H4ZM14 8H15V10H14V8ZM10 14H8V15H10V14ZM14 14V12H15V14C15 14.2652 14.8946 14.5196 14.7071 14.7071C14.5196 14.8946 14.2652 15 14 15H12V14H14Z" fill="black"/>
</svg>
