<svg width="16" height="16" viewBox="0 0 16 16" fill="none" xmlns="http://www.w3.org/2000/svg">
<path d="M13.855 2.14501C13.7875 2.07784 13.7023 2.03134 13.6093 2.01097C13.5163 1.9906 13.4194 1.9972 13.33 2.03001L2.33 6.03001C2.23513 6.06599 2.15346 6.12998 2.09583 6.21348C2.03819 6.29699 2.00732 6.39605 2.00732 6.49751C2.00732 6.59897 2.03819 6.69803 2.09583 6.78153C2.15346 6.86503 2.23513 6.92902 2.33 6.96501L6.625 8.68001L9.795 5.50001L10.5 6.20501L7.315 9.39001L9.035 13.685C9.07205 13.778 9.13619 13.8578 9.21909 13.914C9.302 13.9701 9.39986 14.0001 9.5 14C9.60104 13.9979 9.69909 13.9653 9.7812 13.9064C9.86332 13.8475 9.92566 13.7651 9.96 13.67L13.96 2.67001C13.9941 2.58155 14.0023 2.48522 13.9837 2.39227C13.9651 2.29932 13.9205 2.21356 13.855 2.14501Z" fill="black"/>
</svg>
