<svg width="16" height="16" viewBox="0 0 16 16" fill="none" xmlns="http://www.w3.org/2000/svg">
<path fill-rule="evenodd" clip-rule="evenodd" d="M1 3.5H2V2H3.5V1H2C1.73488 1.0003 1.4807 1.10576 1.29323 1.29323C1.10576 1.4807 1.0003 1.73488 1 2V3.5ZM2 11H3.5V10H2V8.5H1V10C1.0003 10.2651 1.10576 10.5193 1.29323 10.7068C1.4807 10.8942 1.73488 10.9997 2 11ZM2 5H1V7H2V5ZM10 3.5H11V2C10.9997 1.73488 10.8942 1.4807 10.7068 1.29323C10.5193 1.10576 10.2651 1.0003 10 1H8.5V2H10V3.5ZM7 1H5V2H7V1ZM5.29323 14.7068C5.4807 14.8942 5.73488 14.9997 6 15H14C14.2651 14.9997 14.5193 14.8942 14.7068 14.7068C14.8942 14.5193 14.9997 14.2651 15 14V6C14.9997 5.73488 14.8942 5.4807 14.7068 5.29323C14.5193 5.10576 14.2651 5.0003 14 5H6C5.73488 5.0003 5.4807 5.10576 5.29323 5.29323C5.10576 5.4807 5.0003 5.73488 5 6V14C5.0003 14.2651 5.10576 14.5193 5.29323 14.7068ZM6 14V6H14V14H6Z" fill="black"/>
</svg>
