<svg width="16" height="16" viewBox="0 0 16 16" fill="none" xmlns="http://www.w3.org/2000/svg">
<path fill-rule="evenodd" clip-rule="evenodd" d="M12.295 1.70512L13 1.00012L15.5 3.50012L13 6.00012L12.295 5.29513L13.585 4.00012H11.46C11.5868 4.83091 11.4096 5.67955 10.9611 6.39027C10.5126 7.10099 9.82285 7.62611 9.01838 7.86924C8.21391 8.11237 7.34875 8.05721 6.58168 7.71387C5.81461 7.37053 5.1971 6.76205 4.8425 6.00012H2.415L3.705 7.29513L3 8.00012L0.5 5.50012L3 3.00012L3.705 3.70512L2.415 5.00012H4.54C4.41324 4.16934 4.59036 3.3207 5.03886 2.60998C5.48737 1.89926 6.17715 1.37414 6.98162 1.13101C7.78609 0.887876 8.65125 0.943042 9.41832 1.28638C10.1854 1.62972 10.8029 2.2382 11.1575 3.00012H13.585L12.295 1.70512ZM10.0328 5.96113C10.3383 5.53538 10.5018 5.02414 10.5 4.50012C10.5 4.33218 10.483 4.16467 10.4494 4.00012H8V3.00012H9.98725C9.6476 2.54587 9.16319 2.22103 8.614 2.07926C8.06481 1.93749 7.48369 1.98726 6.9666 2.22035C6.44952 2.45344 6.02739 2.85592 5.76994 3.36132C5.51248 3.86672 5.43509 4.44481 5.55055 5.00012H8V6.00012H6.01275C6.32644 6.41988 6.76449 6.73004 7.2646 6.8865C7.76471 7.04296 8.30143 7.03775 8.79841 6.87162C9.29539 6.70549 9.72734 6.38689 10.0328 5.96113ZM2.29289 14.7071C2.48043 14.8946 2.73478 15 3 15H13C13.2652 15 13.5196 14.8946 13.7071 14.7071C13.8946 14.5196 14 14.2652 14 14V11C14 10.7348 13.8946 10.4804 13.7071 10.2929C13.5196 10.1054 13.2652 10 13 10H3C2.73478 10 2.48043 10.1054 2.29289 10.2929C2.10536 10.4804 2 10.7348 2 11V14C2 14.2652 2.10536 14.5196 2.29289 14.7071ZM3 14V11H13V14H3ZM4.5 13C4.77614 13 5 12.7761 5 12.5C5 12.2239 4.77614 12 4.5 12C4.22386 12 4 12.2239 4 12.5C4 12.7761 4.22386 13 4.5 13Z" fill="black"/>
</svg>
