<svg width="16" height="16" viewBox="0 0 16 16" fill="none" xmlns="http://www.w3.org/2000/svg">
<path fill-rule="evenodd" clip-rule="evenodd" d="M3 2V14H7V15H3C2.4485 15 2 14.5515 2 14V2C2 1.4485 2.4485 1 3 1H11C11.5515 1 12 1.4485 12 2V6.5H11V2H3ZM8 3H6V4H8V3ZM15 11H13.9495C13.8845 10.6815 13.7575 10.3855 13.5835 10.1235L14.3285 9.3785L13.6215 8.6715L12.8765 9.4165C12.6145 9.2425 12.3185 9.1155 12 9.0505V8H11V9.0505C10.6815 9.1155 10.3855 9.2425 10.1235 9.4165L9.3785 8.6715L8.6715 9.3785L9.4165 10.1235C9.2425 10.3855 9.1155 10.6815 9.0505 11H8V12H9.0505C9.1155 12.3185 9.2425 12.6145 9.4165 12.8765L8.6715 13.6215L9.3785 14.3285L10.1235 13.5835C10.3855 13.7575 10.6815 13.8845 11 13.9495V15H12V13.9495C12.3185 13.8845 12.6145 13.7575 12.8765 13.5835L13.6215 14.3285L14.3285 13.6215L13.5835 12.8765C13.7575 12.6145 13.8845 12.3185 13.9495 12H15V11ZM11.5 13C10.673 13 10 12.327 10 11.5C10 10.673 10.673 10 11.5 10C12.327 10 13 10.673 13 11.5C13 12.327 12.327 13 11.5 13Z" fill="black"/>
</svg>
