<svg width="16" height="16" viewBox="0 0 16 16" fill="none" xmlns="http://www.w3.org/2000/svg">
<path d="M14 12.0024V11.0024C13.9977 9.4988 13.4314 8.05073 12.413 6.94447C11.3947 5.8382 9.99831 5.15424 8.5 5.02779V4.00244H10V3.00244H6V4.00244H7.5V5.02779C6.00169 5.15424 4.60533 5.8382 3.58695 6.94447C2.56857 8.05073 2.00227 9.4988 2 11.0024V12.0024H1V13.0024H15V12.0024H14ZM8 6.00244C9.1521 6.00396 10.2685 6.40263 11.1609 7.13127C12.0533 7.8599 12.6672 8.87393 12.8992 10.0024H3.10075C3.33269 8.87392 3.94663 7.85987 4.83907 7.13123C5.73151 6.40259 6.84789 6.00393 8 6.00244ZM3 11.0024H13V12.0024H3V11.0024Z" fill="black"/>
</svg>
