<svg width="16" height="16" viewBox="0 0 16 16" fill="none" xmlns="http://www.w3.org/2000/svg">
<path fill-rule="evenodd" clip-rule="evenodd" d="M13.2899 7.79L14.4449 6.775C14.6193 6.62206 14.7352 6.41324 14.7726 6.18428C14.81 5.95533 14.7666 5.72049 14.6499 5.52L13.4699 3.48C13.3833 3.3272 13.2574 3.20029 13.1054 3.1124C12.9533 3.0245 12.7805 2.97879 12.6049 2.98C12.4962 2.9795 12.3882 2.99638 12.2849 3.03L11.0699 3.44C10.8601 3.30068 10.6413 3.17541 10.4149 3.065L10.1599 1.805C10.1147 1.57824 9.99242 1.37411 9.81376 1.22735C9.63509 1.08059 9.4111 1.00025 9.17988 1H6.81988C6.58867 1.00025 6.36468 1.08059 6.18601 1.22735C6.00735 1.37411 5.88504 1.57824 5.83988 1.805L5.58488 3.065C5.35689 3.17538 5.13642 3.30065 4.92488 3.44L3.71488 3.03C3.61156 2.99638 3.50353 2.9795 3.39488 2.98C3.21925 2.97879 3.04647 3.0245 2.8944 3.1124C2.74234 3.20029 2.6165 3.3272 2.52988 3.48L1.34988 5.52C1.23318 5.72049 1.18981 5.95533 1.22721 6.18428C1.26461 6.41324 1.38045 6.62206 1.55488 6.775L2.51988 7.62C2.50988 7.745 2.49988 7.87 2.49988 8C2.49988 8.13 2.50488 8.255 2.51488 8.385L1.55488 9.225C1.38045 9.37794 1.26461 9.58677 1.22721 9.81572C1.18981 10.0447 1.23318 10.2795 1.34988 10.48L2.52988 12.52C2.6165 12.6728 2.74234 12.7997 2.8944 12.8876C3.04647 12.9755 3.21925 13.0212 3.39488 13.02C3.50353 13.0205 3.61156 13.0036 3.71488 12.97L4.92988 12.56C5.1397 12.6993 5.35851 12.8246 5.58488 12.935L5.83988 14.195C5.88504 14.4218 6.00735 14.6259 6.18601 14.7726C6.36468 14.9194 6.58867 14.9997 6.81988 15H7.49988V14H6.81988L6.46488 12.225C5.97413 12.0407 5.51779 11.7754 5.11488 11.44L3.39488 12.02L2.21488 9.98L3.57488 8.78C3.48238 8.26243 3.48238 7.73257 3.57488 7.215L2.21488 6.02L3.39488 3.98L5.10988 4.56C5.51136 4.21995 5.97019 3.95414 6.46488 3.775L6.81988 2H9.17988L9.53488 3.775C10.0256 3.95928 10.482 4.22464 10.8849 4.56L12.6049 3.98L13.7849 6.02L12.5799 7.08L13.2899 7.79ZM7.5 9.92906C7.13865 9.83494 6.81093 9.64137 6.55407 9.37035C6.2972 9.09932 6.12149 8.7617 6.04687 8.39582C5.97225 8.02994 6.00173 7.65048 6.13195 7.30051C6.26217 6.95054 6.48792 6.64411 6.78356 6.416C7.0792 6.18789 7.43287 6.04726 7.80442 6.01007C8.17597 5.97287 8.55051 6.04061 8.88549 6.2056C9.22048 6.37058 9.50249 6.62619 9.6995 6.9434C9.8965 7.26061 10.0006 7.6267 10 8.00011H11C11.0006 7.42801 10.8376 6.86768 10.5302 6.38518C10.2228 5.90267 9.78384 5.51812 9.2651 5.27687C8.74636 5.03561 8.16945 4.94771 7.6024 5.02354C7.03535 5.09936 6.5018 5.33574 6.06467 5.7048C5.62753 6.07387 5.30504 6.56023 5.13522 7.10654C4.9654 7.65285 4.95532 8.23633 5.10619 8.78818C5.25705 9.34003 5.56256 9.83723 5.9867 10.2212C6.41083 10.6051 6.9359 10.8598 7.5 10.9551V9.92906ZM14.5 12.5C14.6326 12.5 14.7598 12.4473 14.8535 12.3536C14.9473 12.2598 15 12.1326 15 12V9C15 8.86739 14.9473 8.74021 14.8535 8.64645C14.7598 8.55268 14.6326 8.5 14.5 8.5H11.5C11.3674 8.5 11.2402 8.55268 11.1464 8.64645C11.0527 8.74021 11 8.86739 11 9V10H12V9.5H14V11.5H13.5V12.5H14.5ZM9 15H12C12.1326 15 12.2598 14.9473 12.3535 14.8536C12.4473 14.7598 12.5 14.6326 12.5 14.5V11.5C12.5 11.3674 12.4473 11.2402 12.3535 11.1464C12.2598 11.0527 12.1326 11 12 11H9C8.86739 11 8.74021 11.0527 8.64644 11.1464C8.55267 11.2402 8.5 11.3674 8.5 11.5V14.5C8.5 14.6326 8.55267 14.7598 8.64644 14.8536C8.74021 14.9473 8.86739 15 9 15ZM11.5 14H9.5V12H11.5V14Z" fill="black"/>
</svg>
