<svg width="16" height="16" viewBox="0 0 16 16" fill="none" xmlns="http://www.w3.org/2000/svg">
<path fill-rule="evenodd" clip-rule="evenodd" d="M13.4722 3.47805L14.6525 5.52195C14.768 5.72221 14.8106 5.95631 14.773 6.18443C14.7354 6.41254 14.6199 6.62059 14.4463 6.7732L13.0463 8L12.387 7.24805L13.7859 6.02195L12.6059 3.97805L10.8825 4.56105C10.482 4.22355 10.0261 3.95776 9.53512 3.7754L9.18012 2H6.82012L6.46482 3.7754C5.97035 3.95508 5.51109 4.2198 5.10776 4.5576L3.39441 3.97805L2.21386 6.02195L3.57301 7.21655C3.48212 7.73401 3.48331 8.26345 3.57651 8.7805L2.21432 9.97805L3.39432 12.0219L5.11771 11.4389C5.51825 11.7765 5.97409 12.0423 6.46512 12.2246L6.82012 14H7.50011V15H6.82012C6.5889 15 6.36482 14.9199 6.186 14.7734C6.00719 14.6268 5.88469 14.4228 5.83937 14.196L5.58751 12.9368C5.36037 12.8256 5.14118 12.6989 4.93151 12.5576L3.71446 12.9692C3.4955 13.0435 3.25755 13.0395 3.04119 12.958C2.82484 12.8764 2.64348 12.7223 2.52807 12.5219L1.34777 10.4781C1.23221 10.2778 1.18959 10.0437 1.22713 9.81562C1.26468 9.58751 1.38008 9.37944 1.55371 9.2268L2.51402 8.3828C2.50512 8.25635 2.50012 8.1289 2.50012 8C2.50012 7.89242 2.50757 7.78675 2.51503 7.68097C2.51642 7.66119 2.51782 7.6414 2.51916 7.6216L1.55371 6.7732C1.38008 6.62056 1.26468 6.41249 1.22713 6.18438C1.18959 5.95626 1.23221 5.72219 1.34777 5.52195L2.52807 3.47805C2.64348 3.2777 2.82484 3.12359 3.04119 3.04202C3.25755 2.96045 3.4955 2.95647 3.71446 3.03075L4.92416 3.44C5.13633 3.29916 5.35805 3.17327 5.58772 3.06325L5.83956 1.80395C5.88489 1.57726 6.00735 1.37327 6.18613 1.22669C6.3649 1.08012 6.58894 1.00001 6.82012 1H9.18012C9.41133 0.999964 9.63541 1.08005 9.81423 1.22663C9.99304 1.37321 10.1155 1.57722 10.1609 1.80395L10.4127 3.06325C10.6398 3.17446 10.859 3.30114 11.0687 3.4424L12.2858 3.03075C12.5047 2.95647 12.7427 2.96045 12.959 3.04202C13.1754 3.12359 13.3567 3.2777 13.4722 3.47805ZM6.19945 10.4001C5.79046 10.0932 5.4667 9.68686 5.25891 9.21966C5.05111 8.75247 4.96617 8.23991 5.01216 7.73066C5.05815 7.22141 5.23354 6.73237 5.52168 6.30996C5.80981 5.88755 6.20113 5.5458 6.65848 5.31715C7.11584 5.0885 7.62404 4.98054 8.13485 5.00352C8.64565 5.0265 9.14211 5.17967 9.57708 5.44846C10.012 5.71726 10.3711 6.09278 10.6201 6.53936C10.8692 6.98593 10.9999 7.48875 11 8.00008H10C10 7.65916 9.91286 7.32391 9.74685 7.02615C9.58083 6.72839 9.34146 6.478 9.05147 6.29877C8.76147 6.11955 8.43047 6.01742 8.0899 6.0021C7.74933 5.98677 7.4105 6.05876 7.10558 6.21122C6.80065 6.36368 6.53976 6.59156 6.34768 6.87321C6.1556 7.15485 6.0387 7.48093 6.00808 7.82047C5.97747 8.16 6.03415 8.50173 6.17275 8.81319C6.31135 9.12466 6.52727 9.39553 6.8 9.60008L6.19945 10.4001ZM13.8552 9.78629C14.5464 10.2732 15.0795 10.9522 15.3885 11.7393L15.5 12L15.3885 12.2607C15.0795 13.0478 14.5464 13.7268 13.8552 14.2137C13.164 14.7006 12.3451 14.974 11.5 15C10.6549 14.974 9.83604 14.7006 9.14484 14.2137C8.45365 13.7268 7.92053 13.0478 7.61155 12.2607L7.5 12L7.61155 11.7393C7.92053 10.9522 8.45365 10.2732 9.14484 9.78629C9.83604 9.29937 10.6549 9.02598 11.5 9C12.3451 9.02598 13.164 9.29937 13.8552 9.78629ZM10.3889 13.6629C10.7178 13.8827 11.1044 14 11.5 14C12.0303 13.9994 12.5386 13.7885 12.9136 13.4136C13.2885 13.0386 13.4994 12.5303 13.5 12C13.5 11.6044 13.3827 11.2178 13.1629 10.8889C12.9432 10.56 12.6308 10.3036 12.2654 10.1522C11.8999 10.0009 11.4978 9.96126 11.1098 10.0384C10.7219 10.1156 10.3655 10.3061 10.0858 10.5858C9.80608 10.8655 9.6156 11.2219 9.53843 11.6098C9.46126 11.9978 9.50087 12.3999 9.65224 12.7654C9.80362 13.1308 10.06 13.4432 10.3889 13.6629ZM12.5 12C12.5 12.5523 12.0523 13 11.5 13C10.9477 13 10.5 12.5523 10.5 12C10.5 11.4477 10.9477 11 11.5 11C12.0523 11 12.5 11.4477 12.5 12Z" fill="black"/>
</svg>
