<svg width="16" height="16" viewBox="0 0 16 16" fill="none" xmlns="http://www.w3.org/2000/svg">
<path fill-rule="evenodd" clip-rule="evenodd" d="M13.5 7.99996V8.37996L14.445 9.24496C14.6194 9.3979 14.7353 9.60672 14.7727 9.83568C14.8101 10.0646 14.7667 10.2995 14.65 10.5L13.51 12.5C13.4223 12.6518 13.2962 12.778 13.1444 12.8657C12.9926 12.9535 12.8204 12.9998 12.645 13C12.5363 13.0008 12.4282 12.9839 12.325 12.95L11.115 12.54C10.9035 12.6794 10.683 12.8047 10.455 12.915L10.2 14.175C10.1543 14.4052 10.029 14.6119 9.84623 14.7591C9.66341 14.9063 9.43466 14.9845 9.2 14.98H6.84C6.60535 14.9845 6.3766 14.9063 6.19378 14.7591C6.01096 14.6119 5.88573 14.4052 5.84 14.175L5.585 12.915C5.35859 12.8046 5.13977 12.6794 4.93 12.54L3.715 12.95C3.61176 12.9839 3.50368 13.0008 3.395 13C3.21964 12.9998 3.04741 12.9535 2.89559 12.8657C2.74376 12.778 2.61769 12.6518 2.53 12.5L1.35 10.5C1.22795 10.2975 1.18158 10.0583 1.2191 9.82493C1.25663 9.59152 1.37564 9.37896 1.555 9.22496L2.5 8.38496V7.99996V7.61996L1.555 6.75496C1.38057 6.60202 1.26473 6.39319 1.22733 6.16424C1.18993 5.93529 1.2333 5.70045 1.35 5.49996L2.53 3.49996C2.61769 3.34809 2.74376 3.22195 2.89559 3.13419C3.04741 3.04643 3.21964 3.00014 3.395 2.99996C3.50259 2.99264 3.61065 3.00277 3.715 3.02996L4.905 3.45996C5.11649 3.32053 5.33697 3.19526 5.565 3.08496L5.82 1.82496C5.86573 1.59476 5.99096 1.38798 6.17378 1.24081C6.3566 1.09364 6.58535 1.01546 6.82 1.01996H9.16C9.39466 1.01546 9.62341 1.09364 9.80623 1.24081C9.98905 1.38798 10.1143 1.59476 10.16 1.82496L10.415 3.08496C10.6414 3.19529 10.8602 3.32056 11.07 3.45996L12.285 3.04996C12.3882 3.01601 12.4963 2.99913 12.605 2.99996C12.7804 3.00014 12.9526 3.04643 13.1044 3.13419C13.2562 3.22195 13.3823 3.34809 13.47 3.49996L14.65 5.49996C14.7738 5.70075 14.8226 5.93885 14.7879 6.17216C14.7531 6.40547 14.637 6.61898 14.46 6.77496L13.5 7.61496V7.99996ZM10.89 11.42L12.605 12L13.785 9.99996L12.425 8.76496C12.5175 8.24739 12.5175 7.71753 12.425 7.19996L13.785 5.99996L12.605 3.99996L10.885 4.55996C10.4821 4.22453 10.0258 3.95917 9.535 3.77496L9.18 1.99996H6.82L6.465 3.79496C5.97031 3.97409 5.51147 4.23991 5.11 4.57996L3.395 3.99996L2.215 5.99996L3.575 7.23496C3.48255 7.75253 3.48255 8.28239 3.575 8.79996L2.215 9.99996L3.395 12L5.115 11.44C5.51786 11.7754 5.97422 12.0407 6.465 12.225L6.82 14H9.18L9.535 12.205C10.0297 12.0258 10.4885 11.76 10.89 11.42ZM6.33329 10.4944C6.82664 10.8241 7.40666 11 8 11C8.39508 11.004 8.78699 10.9292 9.15278 10.7798C9.51857 10.6305 9.85088 10.4096 10.1303 10.1303C10.4096 9.85088 10.6305 9.51857 10.7798 9.15278C10.9292 8.78699 11.004 8.39508 11 8C11 7.40666 10.8241 6.82664 10.4944 6.33329C10.1648 5.83994 9.69623 5.45543 9.14805 5.22836C8.59987 5.0013 7.99667 4.94189 7.41473 5.05765C6.83279 5.1734 6.29824 5.45912 5.87868 5.87868C5.45912 6.29824 5.1734 6.83279 5.05765 7.41473C4.94189 7.99667 5.0013 8.59987 5.22836 9.14805C5.45543 9.69623 5.83994 10.1648 6.33329 10.4944ZM7.22741 6.1397C7.47284 6.04137 7.73567 5.99384 8 6C8.26433 5.99384 8.52716 6.04137 8.77259 6.1397C9.01803 6.23803 9.24097 6.38512 9.42793 6.57208C9.61488 6.75904 9.76198 6.98197 9.86031 7.22741C9.95864 7.47284 10.0062 7.73567 10 8C10.0062 8.26433 9.95864 8.52716 9.86031 8.77259C9.76198 9.01803 9.61488 9.24097 9.42793 9.42793C9.24097 9.61488 9.01803 9.76198 8.77259 9.86031C8.52716 9.95864 8.26433 10.0062 8 10C7.73567 10.0062 7.47284 9.95864 7.22741 9.86031C6.98197 9.76198 6.75904 9.61488 6.57208 9.42793C6.38512 9.24097 6.23803 9.01803 6.1397 8.77259C6.04137 8.52716 5.99384 8.26433 6 8C5.99384 7.73567 6.04137 7.47284 6.1397 7.22741C6.23803 6.98197 6.38512 6.75904 6.57208 6.57208C6.75904 6.38512 6.98197 6.23803 7.22741 6.1397Z" fill="black"/>
</svg>
