<svg width="16" height="16" viewBox="0 0 16 16" fill="none" xmlns="http://www.w3.org/2000/svg">
<path fill-rule="evenodd" clip-rule="evenodd" d="M14.6524 5.522L13.4721 3.4781C13.3566 3.27775 13.1753 3.12364 12.9589 3.04207C12.7426 2.9605 12.5046 2.95652 12.2857 3.0308L11.0686 3.44245C10.8589 3.30119 10.6397 3.17451 10.4126 3.0633L10.1608 1.804C10.1154 1.57726 9.99294 1.37324 9.81413 1.22665C9.63531 1.08006 9.41122 0.999966 9.18 1H6.82C6.58878 0.999966 6.36469 1.08006 6.18588 1.22665C6.00706 1.37324 5.88457 1.57726 5.83925 1.804L5.5874 3.0633C5.35781 3.17331 5.13615 3.29919 4.92405 3.44L3.71435 3.0308C3.49539 2.95652 3.25743 2.9605 3.04108 3.04207C2.82472 3.12364 2.64337 3.27775 2.52795 3.4781L1.34765 5.522C1.2321 5.72224 1.18947 5.95631 1.22702 6.18443C1.26457 6.41254 1.37997 6.62061 1.5536 6.77325L2.51905 7.62165L2.51491 7.68104C2.50745 7.78681 2.5 7.89247 2.5 8C2.5 8.1289 2.505 8.25635 2.5139 8.3828L1.5536 9.2268C1.37997 9.37944 1.26457 9.58751 1.22702 9.81562C1.18947 10.0437 1.2321 10.2778 1.34765 10.4781L2.52795 12.522C2.64337 12.7224 2.82472 12.8765 3.04108 12.958C3.25743 13.0396 3.49539 13.0436 3.71435 12.9693L4.9314 12.5576C5.14107 12.699 5.36026 12.8257 5.5874 12.9368L5.83925 14.1961C5.88459 14.4228 6.00709 14.6268 6.1859 14.7734C6.36472 14.92 6.58879 15 6.82 15H9V14H6.82L6.465 12.2246C5.97397 12.0423 5.51814 11.7765 5.1176 11.4389L3.3939 12.022L2.2139 9.9781L3.57655 8.78055C3.48334 8.2635 3.48216 7.73406 3.57305 7.2166L2.21375 6.022L3.3943 3.9781L5.10765 4.55765C5.51098 4.21985 5.97024 3.95513 6.4647 3.77545L6.82 2H9.18L9.535 3.7754C10.026 3.95776 10.4818 4.22355 10.8824 4.56105L12.6058 3.97805L13.7858 6.02195L12.3869 7.24805L13.0462 8L14.4462 6.7732C14.6198 6.6206 14.7353 6.41255 14.7728 6.18445C14.8104 5.95634 14.7679 5.72226 14.6524 5.522ZM8 11C7.40666 11 6.82664 10.8241 6.33329 10.4944C5.83994 10.1648 5.45543 9.69623 5.22836 9.14805C5.0013 8.59987 4.94189 7.99667 5.05765 7.41473C5.1734 6.83279 5.45912 6.29824 5.87868 5.87868C6.29824 5.45912 6.83279 5.1734 7.41473 5.05765C7.99667 4.94189 8.59987 5.0013 9.14805 5.22836C9.69623 5.45543 10.1648 5.83994 10.4944 6.33329C10.8241 6.82664 11 7.40666 11 8C11.0043 8.39515 10.9296 8.78717 10.7803 9.15307C10.6311 9.51897 10.4102 9.85138 10.1308 10.1308C9.85138 10.4102 9.51897 10.6311 9.15307 10.7803C8.78717 10.9296 8.39515 11.0043 8 11ZM8 6C7.73572 5.99401 7.47296 6.04164 7.2276 6.14003C6.98224 6.23842 6.75937 6.38552 6.57244 6.57244C6.38552 6.75937 6.23842 6.98224 6.14003 7.2276C6.04164 7.47296 5.99401 7.73572 6 8C5.99401 8.26429 6.04164 8.52704 6.14003 8.7724C6.23842 9.01776 6.38552 9.24064 6.57244 9.42756C6.75937 9.61449 6.98224 9.76158 7.2276 9.85997C7.47296 9.95836 7.73572 10.006 8 10C8.26429 10.006 8.52704 9.95836 8.7724 9.85997C9.01776 9.76158 9.24064 9.61449 9.42756 9.42756C9.61449 9.24064 9.76158 9.01776 9.85997 8.7724C9.95836 8.52704 10.006 8.26429 10 8C10.006 7.73572 9.95836 7.47296 9.85997 7.2276C9.76158 6.98224 9.61449 6.75937 9.42756 6.57244C9.24064 6.38552 9.01776 6.23842 8.7724 6.14003C8.52704 6.04164 8.26429 5.99401 8 6ZM10.205 11.7949L11.5 13.0899L14.295 10.2949L15 10.9999L11.5 14.4999L9.5 12.4999L10.205 11.7949Z" fill="black"/>
</svg>
