<svg width="16" height="16" viewBox="0 0 16 16" fill="none" xmlns="http://www.w3.org/2000/svg">
<path d="M14.38 5.675C14.333 5.62012 14.2748 5.57606 14.2092 5.54585C14.1436 5.51564 14.0722 5.5 14 5.5H11V3.5C11 3.10218 10.842 2.72064 10.5606 2.43934C10.2793 2.15804 9.89781 2 9.49999 2H6.49999C6.10216 2 5.72063 2.15804 5.43933 2.43934C5.15802 2.72064 4.99999 3.10218 4.99999 3.5V5.5H1.99999C1.92751 5.49918 1.85572 5.51413 1.78959 5.5438C1.72347 5.57348 1.66458 5.61718 1.61702 5.67188C1.56946 5.72657 1.53436 5.79096 1.51415 5.86056C1.49394 5.93017 1.48911 6.00334 1.49999 6.075L2.43999 12.15C2.47615 12.3885 2.59727 12.6058 2.78103 12.762C2.9648 12.9182 3.19882 13.0027 3.43999 13H12.57C12.8111 13.0027 13.0452 12.9182 13.2289 12.762C13.4127 12.6058 13.5338 12.3885 13.57 12.15L14.5 6.075C14.51 6.00362 14.5045 5.93091 14.4837 5.86187C14.463 5.79283 14.4276 5.72908 14.38 5.675ZM5.99999 3.5C5.99999 3.36739 6.05266 3.24021 6.14643 3.14645C6.2402 3.05268 6.36738 3 6.49999 3H9.49999C9.63259 3 9.75977 3.05268 9.85354 3.14645C9.94731 3.24021 9.99999 3.36739 9.99999 3.5V5.5H5.99999V3.5ZM12.57 12H3.42999L2.58499 6.5H13.415L12.57 12Z" fill="black"/>
</svg>
