<svg width="16" height="16" viewBox="0 0 16 16" fill="none" xmlns="http://www.w3.org/2000/svg">
<path fill-rule="evenodd" clip-rule="evenodd" d="M2.4903 1.40195C2.46763 1.2886 2.40639 1.18661 2.317 1.11333C2.22761 1.04005 2.11559 1 2 1H0V2H1.59L3.5097 11.5981C3.53237 11.7114 3.59361 11.8134 3.683 11.8867C3.77239 11.96 3.88441 12 4 12H13V11H4.41L4.01 9H13C13.1138 9 13.2241 8.96121 13.3129 8.89004C13.4016 8.81886 13.4634 8.71955 13.4881 8.6085L14.6222 3.5H13.5985L12.5991 8H3.81L2.4903 1.40195ZM6 14C6 14.5523 5.55228 15 5 15C4.44772 15 4 14.5523 4 14C4 13.4477 4.44772 13 5 13C5.55228 13 6 13.4477 6 14ZM13 14C13 14.5523 12.5523 15 12 15C11.4477 15 11 14.5523 11 14C11 13.4477 11.4477 13 12 13C12.5523 13 13 13.4477 13 14ZM6.83329 1.50559C7.32664 1.17595 7.90666 1 8.5 1C9.29538 1.00087 10.0579 1.31722 10.6204 1.87964C11.1828 2.44206 11.4991 3.20462 11.5 4C11.5 4.59334 11.3241 5.17336 10.9944 5.66671C10.6648 6.16006 10.1962 6.54458 9.64805 6.77164C9.09987 6.9987 8.49667 7.05811 7.91473 6.94236C7.33279 6.8266 6.79824 6.54088 6.37868 6.12132C5.95912 5.70176 5.6734 5.16721 5.55765 4.58527C5.44189 4.00333 5.5013 3.40013 5.72836 2.85195C5.95543 2.30377 6.33994 1.83524 6.83329 1.50559ZM9.5095 2.28345C9.20467 2.09978 8.85589 2.00185 8.5 2C7.96975 2.0006 7.46139 2.2115 7.08645 2.58644C6.7115 2.96139 6.5006 3.46975 6.5 4C6.50187 4.35588 6.5998 4.70466 6.78345 5.0095L9.5095 2.28345ZM7.4905 5.71655C7.79534 5.90022 8.14412 5.99815 8.5 6C9.03025 5.9994 9.53861 5.7885 9.91356 5.41356C10.2885 5.03861 10.4994 4.53025 10.5 4C10.4981 3.64412 10.4002 3.29534 10.2166 2.9905L7.4905 5.71655Z" fill="black"/>
</svg>
