<svg width="16" height="16" viewBox="0 0 16 16" fill="none" xmlns="http://www.w3.org/2000/svg">
<path fill-rule="evenodd" clip-rule="evenodd" d="M2.4903 1.40195C2.46763 1.2886 2.40639 1.18661 2.317 1.11333C2.22761 1.04005 2.11559 1 2 1H0V2H1.59L3.5097 11.5981C3.53237 11.7114 3.59361 11.8134 3.683 11.8867C3.77239 11.96 3.88441 12 4 12H13V11H4.41L4.01 9H13C13.1138 9 13.2241 8.96121 13.3129 8.89004C13.4016 8.81886 13.4634 8.71955 13.4881 8.6085L14.6222 3.5H13.5985L12.5991 8H3.81L2.4903 1.40195ZM6 14C6 14.5523 5.55228 15 5 15C4.44772 15 4 14.5523 4 14C4 13.4477 4.44772 13 5 13C5.55228 13 6 13.4477 6 14ZM13 14C13 14.5523 12.5523 15 12 15C11.4477 15 11 14.5523 11 14C11 13.4477 11.4477 13 12 13C12.5523 13 13 13.4477 13 14ZM8 1H9V3H11V4H9V6H8V4H6V3H8V1Z" fill="black"/>
</svg>
