<svg width="16" height="16" viewBox="0 0 16 16" fill="none" xmlns="http://www.w3.org/2000/svg">
<path fill-rule="evenodd" clip-rule="evenodd" d="M2 11H6.5V10H2V3.5H13V8H14V3.5C13.9997 3.23488 13.8942 2.9807 13.7068 2.79323C13.5193 2.60576 13.2651 2.5003 13 2.5H2C1.73486 2.50026 1.48066 2.60571 1.29319 2.79319C1.10571 2.98066 1.00026 3.23486 1 3.5V10C1.0003 10.2651 1.10576 10.5193 1.29323 10.7068C1.4807 10.8942 1.73488 10.9997 2 11ZM6 4.99998V6.79298L3.8535 4.64648L3.1465 5.35348L5.293 7.49998H3.5V8.49998H7V4.99998H6ZM14 14H8.5C8.23488 13.9997 7.9807 13.8942 7.79323 13.7068C7.60576 13.5193 7.5003 13.2651 7.5 13V10C7.5003 9.73488 7.60576 9.4807 7.79323 9.29323C7.9807 9.10576 8.23488 9.0003 8.5 9H14C14.2651 9.00036 14.5193 9.10583 14.7067 9.29329C14.8942 9.48075 14.9996 9.73489 15 10V13C14.9996 13.2651 14.8942 13.5193 14.7067 13.7067C14.5193 13.8942 14.2651 13.9996 14 14ZM8.5 10V13H14.001L14 10H8.5Z" fill="black"/>
</svg>
