<svg width="16" height="16" viewBox="0 0 16 16" fill="none" xmlns="http://www.w3.org/2000/svg">
<path fill-rule="evenodd" clip-rule="evenodd" d="M2 11H6.5V10H2V3.5H13V8H14V3.5C13.9997 3.23488 13.8942 2.9807 13.7068 2.79323C13.5193 2.60576 13.2651 2.5003 13 2.5H2C1.73486 2.50026 1.48066 2.60571 1.29319 2.79319C1.10571 2.98066 1.00026 3.23486 1 3.5V10C1.0003 10.2651 1.10576 10.5193 1.29323 10.7068C1.4807 10.8942 1.73488 10.9997 2 11ZM6 4.99998V6.79298L3.8535 4.64648L3.1465 5.35348L5.293 7.49998H3.5V8.49998H7V4.99998H6ZM14 9H8.5C7.94772 9 7.5 9.44772 7.5 10V13C7.5 13.5523 7.94772 14 8.5 14H14C14.5523 14 15 13.5523 15 13V10C15 9.44772 14.5523 9 14 9Z" fill="black"/>
</svg>
