<svg width="16" height="16" viewBox="0 0 16 16" fill="none" xmlns="http://www.w3.org/2000/svg">
<path fill-rule="evenodd" clip-rule="evenodd" d="M12 15V13.5H10C9.33718 13.4993 8.70172 13.2356 8.23304 12.767C7.76435 12.2983 7.50073 11.6628 7.5 11V10.3603L6.3419 9.97435C6.27088 9.95067 6.20608 9.91134 6.15229 9.85927C6.0985 9.80719 6.05709 9.7437 6.03112 9.67349C6.00514 9.60327 5.99527 9.52812 6.00222 9.45357C6.00918 9.37903 6.03279 9.307 6.0713 9.2428L7.5 6.86145V5.5C7.50132 4.30693 7.97585 3.16311 8.81948 2.31948C9.66311 1.47585 10.8069 1.00132 12 1H14.5V2H12C11.0721 2.00103 10.1824 2.37011 9.52627 3.02627C8.87011 3.68242 8.50103 4.57206 8.5 5.5V7C8.5 7.09061 8.47535 7.17952 8.4287 7.2572L7.2494 9.2228L8.1581 9.52565C8.25766 9.55883 8.34425 9.6225 8.40562 9.70764C8.46698 9.79277 8.5 9.89506 8.5 10V11C8.50044 11.3977 8.65861 11.779 8.93982 12.0602C9.22103 12.3414 9.60231 12.4996 10 12.5H12.5C12.6326 12.5 12.7598 12.5527 12.8536 12.6464C12.9473 12.7402 13 12.8674 13 13V15H12ZM1 6H2V7H1V6ZM4 6H3V7H4V6ZM6 6H5V7H6V6ZM9.50006 6H11.5001V7H9.50006V6Z" fill="black"/>
</svg>
