<svg width="16" height="16" viewBox="0 0 16 16" fill="none" xmlns="http://www.w3.org/2000/svg">
<path fill-rule="evenodd" clip-rule="evenodd" d="M2 13.5H11.7659C11.9125 13.5002 12.0573 13.468 12.1901 13.4057C12.3229 13.3435 12.4403 13.2528 12.5339 13.14L14.7681 10.4593C14.9178 10.2795 14.9998 10.0529 15 9.81895V3.5C14.9997 3.23487 14.8943 2.98068 14.7068 2.7932C14.5193 2.60572 14.2651 2.50028 14 2.5H2C1.73487 2.50028 1.48068 2.60572 1.2932 2.7932C1.10572 2.98068 1.00028 3.23487 1 3.5V12.5C1.00028 12.7651 1.10572 13.0193 1.2932 13.2068C1.48068 13.3943 1.73487 13.4997 2 13.5ZM2 12.5V3.5H14V9.81895L11.7659 12.5H2ZM4 4.5H10.5C10.7651 4.5003 11.0193 4.60576 11.2068 4.79323C11.3942 4.9807 11.4997 5.23488 11.5 5.5V10.5C11.4997 10.7651 11.3942 11.0193 11.2068 11.2068C11.0193 11.3942 10.7651 11.4997 10.5 11.5H4C3.73488 11.4997 3.4807 11.3942 3.29323 11.2068C3.10576 11.0193 3.0003 10.7651 3 10.5V5.5C3.0003 5.23488 3.10576 4.9807 3.29323 4.79323C3.4807 4.60576 3.73488 4.5003 4 4.5ZM9 6.5H10.5V5.5H9V6.5ZM10.5 7.5H9V8.5H10.5V7.5ZM8 10.5V5.5H4V6.5H6C6.13261 6.5 6.25979 6.55268 6.35355 6.64645C6.44732 6.74021 6.5 6.86739 6.5 7V10.5H8ZM4 8.5H5.5V7.5H4V8.5ZM5.5 9.5H4V10.5H5.5V9.5ZM9 9.5V10.5H10.5V9.5H9Z" fill="black"/>
</svg>
