<svg width="16" height="16" viewBox="0 0 16 16" fill="none" xmlns="http://www.w3.org/2000/svg">
<path fill-rule="evenodd" clip-rule="evenodd" d="M4.11101 2.17971C5.26216 1.41054 6.61553 1 8 1C9.85652 1 11.637 1.7375 12.9497 3.05025C14.2625 4.36301 15 6.14348 15 8C15 9.38447 14.5895 10.7378 13.8203 11.889C13.0511 13.0401 11.9579 13.9373 10.6788 14.4672C9.3997 14.997 7.99224 15.1356 6.63437 14.8655C5.2765 14.5954 4.02922 13.9287 3.05026 12.9497C2.07129 11.9708 1.4046 10.7235 1.13451 9.36563C0.86441 8.00776 1.00303 6.6003 1.53285 5.32122C2.06266 4.04213 2.95987 2.94888 4.11101 2.17971ZM4.7429 10.937L9.2429 8.437C9.32081 8.39368 9.38572 8.33033 9.43092 8.25349C9.47611 8.17666 9.49994 8.08914 9.49994 8C9.49994 7.91086 9.47611 7.82334 9.43092 7.74651C9.38572 7.66967 9.32081 7.60632 9.2429 7.563L4.7429 5.063C4.66679 5.0207 4.58096 4.99901 4.49389 5.00007C4.40682 5.00114 4.32154 5.02492 4.24649 5.06907C4.17144 5.11322 4.10922 5.1762 4.06599 5.25178C4.02275 5.32736 4.00001 5.41293 4 5.5V10.5C4.00001 10.5871 4.02275 10.6726 4.06599 10.7482C4.10922 10.8238 4.17144 10.8868 4.24649 10.9309C4.32154 10.9751 4.40682 10.9989 4.49389 10.9999C4.58096 11.001 4.66679 10.9793 4.7429 10.937ZM11 11H12V5H11V11ZM7.9705 8.00011L5 9.65061V6.34961L7.9705 8.00011Z" fill="black"/>
</svg>
