<svg width="16" height="16" viewBox="0 0 16 16" fill="none" xmlns="http://www.w3.org/2000/svg">
<path fill-rule="evenodd" clip-rule="evenodd" d="M2.14645 13.8536C2.24022 13.9474 2.3674 14 2.5 14C2.58759 14.0006 2.6738 13.9782 2.75 13.935L12.25 8.43503C12.327 8.39143 12.391 8.32819 12.4355 8.25177C12.48 8.17535 12.5035 8.08848 12.5035 8.00003C12.5035 7.91159 12.48 7.82472 12.4355 7.7483C12.391 7.67188 12.327 7.60864 12.25 7.56503L2.75 2.06503C2.67399 2.02115 2.58777 1.99805 2.5 1.99805C2.41224 1.99805 2.32601 2.02115 2.25 2.06503C2.1737 2.10909 2.11039 2.17252 2.06649 2.24891C2.02259 2.3253 1.99965 2.41193 2 2.50003V13.5C2 13.6326 2.05268 13.7598 2.14645 13.8536ZM11 8.00003L3 12.635V3.36503L11 8.00003ZM14 2H15V14H14V2Z" fill="black"/>
</svg>
