<svg width="16" height="16" viewBox="0 0 16 16" fill="none" xmlns="http://www.w3.org/2000/svg">
<path fill-rule="evenodd" clip-rule="evenodd" d="M4.11101 13.8203C5.26216 14.5895 6.61553 15 8 15C9.85588 14.9979 11.6351 14.2597 12.9474 12.9474C14.2597 11.6351 14.9979 9.85588 15 8C15 6.61553 14.5895 5.26216 13.8203 4.11101C13.0511 2.95987 11.9579 2.06266 10.6788 1.53285C9.3997 1.00303 7.99224 0.86441 6.63437 1.13451C5.2765 1.4046 4.02922 2.07129 3.05026 3.05026C2.07129 4.02922 1.4046 5.2765 1.13451 6.63437C0.86441 7.99224 1.00303 9.3997 1.53285 10.6788C2.06266 11.9579 2.95987 13.0511 4.11101 13.8203ZM4.66658 3.01119C5.65328 2.3519 6.81332 2 8 2C9.59075 2.00182 11.1158 2.63454 12.2406 3.75936C13.3655 4.88419 13.9982 6.40926 14 8C14 9.18669 13.6481 10.3467 12.9888 11.3334C12.3295 12.3201 11.3925 13.0892 10.2961 13.5433C9.19975 13.9974 7.99335 14.1162 6.82946 13.8847C5.66558 13.6532 4.59648 13.0818 3.75736 12.2426C2.91825 11.4035 2.3468 10.3344 2.11529 9.17054C1.88378 8.00666 2.0026 6.80026 2.45673 5.7039C2.91085 4.60755 3.67989 3.67047 4.66658 3.01119ZM4.5 11H5.5V5H4.5V11ZM11.5 11.0001C11.415 11 11.3314 10.9784 11.2571 10.9372L6.75709 8.43721C6.67913 8.39392 6.61416 8.33055 6.56892 8.25369C6.52369 8.17683 6.49983 8.08927 6.49983 8.00009C6.49983 7.91091 6.52369 7.82335 6.56892 7.74648C6.61416 7.66962 6.67913 7.60626 6.75709 7.56296L11.2571 5.06296C11.3332 5.02066 11.4191 4.99897 11.5061 5.00004C11.5932 5.00111 11.6785 5.0249 11.7535 5.06906C11.8286 5.11322 11.8908 5.17621 11.934 5.25181C11.9773 5.32741 12 5.41298 12 5.50006V10.5001C12 10.6327 11.9473 10.7599 11.8535 10.8536C11.7598 10.9474 11.6326 11.0001 11.5 11.0001ZM8.02954 8.00006L11 9.65036V6.35006L8.02954 8.00006Z" fill="black"/>
</svg>
