<svg width="16" height="16" viewBox="0 0 16 16" fill="none" xmlns="http://www.w3.org/2000/svg">
<path fill-rule="evenodd" clip-rule="evenodd" d="M13.25 13.935C13.3262 13.9782 13.4124 14.0006 13.5 14C13.6326 14 13.7598 13.9474 13.8535 13.8536C13.9473 13.7598 14 13.6326 14 13.5V2.50003C14.0003 2.41193 13.9774 2.3253 13.9335 2.24891C13.8896 2.17252 13.8263 2.10909 13.75 2.06503C13.674 2.02115 13.5878 1.99805 13.5 1.99805C13.4122 1.99805 13.326 2.02115 13.25 2.06503L3.75 7.56503C3.67305 7.60864 3.60904 7.67188 3.56451 7.7483C3.51998 7.82472 3.49652 7.91159 3.49652 8.00003C3.49652 8.08848 3.51998 8.17535 3.56451 8.25177C3.60904 8.32819 3.67305 8.39143 3.75 8.43503L13.25 13.935ZM13 12.635L5 8.00003L13 3.36503V12.635ZM1 2H2V14H1V2Z" fill="black"/>
</svg>
