<svg width="16" height="16" viewBox="0 0 16 16" fill="none" xmlns="http://www.w3.org/2000/svg">
<path fill-rule="evenodd" clip-rule="evenodd" d="M14 2H15V14H14V2ZM2.14645 13.8537C2.24021 13.9474 2.36739 14.0001 2.5 14.0001C2.588 14.0001 2.67443 13.9768 2.7505 13.9325L12.2505 8.43252C12.3263 8.38857 12.3892 8.32548 12.4329 8.24958C12.4766 8.17367 12.4996 8.08762 12.4996 8.00002C12.4996 7.91243 12.4766 7.82637 12.4329 7.75046C12.3892 7.67456 12.3263 7.61147 12.2505 7.56752L2.7505 2.06752C2.67451 2.02353 2.58827 2.00033 2.50046 2.00024C2.41266 2.00016 2.32638 2.02321 2.2503 2.06706C2.17423 2.11091 2.11105 2.17402 2.06711 2.25004C2.02317 2.32606 2.00002 2.41231 2 2.50012V13.5001C2 13.6327 2.05268 13.7599 2.14645 13.8537Z" fill="black"/>
</svg>
