<svg width="16" height="16" viewBox="0 0 16 16" fill="none" xmlns="http://www.w3.org/2000/svg">
<path fill-rule="evenodd" clip-rule="evenodd" d="M4.11101 13.8203C5.26216 14.5895 6.61553 15 8 15C9.85588 14.9979 11.6351 14.2597 12.9474 12.9474C14.2597 11.6351 14.9979 9.85588 15 8C15 6.61553 14.5895 5.26216 13.8203 4.11101C13.0511 2.95987 11.9579 2.06266 10.6788 1.53285C9.3997 1.00303 7.99224 0.86441 6.63437 1.13451C5.2765 1.4046 4.02922 2.07129 3.05026 3.05026C2.07129 4.02922 1.4046 5.2765 1.13451 6.63437C0.86441 7.99224 1.00303 9.3997 1.53285 10.6788C2.06266 11.9579 2.95987 13.0511 4.11101 13.8203ZM4.66658 3.01119C5.65328 2.3519 6.81331 2 8 2C9.59074 2.00182 11.1158 2.63454 12.2406 3.75936C13.3655 4.88419 13.9982 6.40926 14 8C14 9.18669 13.6481 10.3467 12.9888 11.3334C12.3295 12.3201 11.3925 13.0892 10.2961 13.5433C9.19975 13.9974 7.99335 14.1162 6.82946 13.8847C5.66558 13.6532 4.59648 13.0818 3.75736 12.2426C2.91825 11.4035 2.3468 10.3344 2.11529 9.17054C1.88378 8.00666 2.0026 6.80026 2.45673 5.7039C2.91085 4.60755 3.67989 3.67047 4.66658 3.01119ZM4.24635 10.931C4.17133 10.8868 4.10914 10.8238 4.06594 10.7482C4.02273 10.6727 4 10.5871 4 10.5001V5.50006C3.99999 5.41298 4.02272 5.32741 4.06595 5.25181C4.10918 5.17621 4.1714 5.11322 4.24645 5.06906C4.32151 5.0249 4.40679 5.00111 4.49387 5.00004C4.58094 4.99897 4.66679 5.02066 4.7429 5.06296L9.2429 7.56297C9.32087 7.60626 9.38584 7.66962 9.43108 7.74649C9.47631 7.82335 9.50017 7.91091 9.50017 8.00009C9.50017 8.08927 9.47631 8.17683 9.43108 8.2537C9.38584 8.33056 9.32087 8.39392 9.2429 8.43722L4.7429 10.9372C4.66675 10.9795 4.58088 11.0011 4.4938 11C4.40671 10.9989 4.32142 10.9751 4.24635 10.931ZM5 6.35006V9.65062L7.97045 8.00007L5 6.35006ZM11.5 5H10.5V11H11.5V5Z" fill="black"/>
</svg>
