<svg width="16" height="16" viewBox="0 0 16 16" fill="none" xmlns="http://www.w3.org/2000/svg">
<path fill-rule="evenodd" clip-rule="evenodd" d="M1 2H2V14H1V2ZM13.2495 13.9325C13.3256 13.9767 13.412 13.9999 13.5 13.9999C13.6326 13.9999 13.7598 13.9472 13.8536 13.8535C13.9473 13.7597 14 13.6325 14 13.4999V2.49992C13.9999 2.41213 13.9768 2.3259 13.9328 2.24991C13.8889 2.17391 13.8257 2.11083 13.7496 2.06701C13.6735 2.02318 13.5873 2.00015 13.4995 2.00024C13.4117 2.00033 13.3255 2.02354 13.2495 2.06752L3.7495 7.56752C3.67373 7.61147 3.61084 7.67456 3.56712 7.75046C3.5234 7.82637 3.50039 7.91243 3.50039 8.00002C3.50039 8.08762 3.5234 8.17367 3.56712 8.24958C3.61084 8.32548 3.67373 8.38857 3.7495 8.43252L13.2495 13.9325Z" fill="black"/>
</svg>
