<svg width="16" height="16" viewBox="0 0 16 16" fill="none" xmlns="http://www.w3.org/2000/svg">
<path fill-rule="evenodd" clip-rule="evenodd" d="M4.11101 2.17971C5.26216 1.41054 6.61553 1 8 1C9.85652 1 11.637 1.7375 12.9497 3.05025C14.2625 4.36301 15 6.14348 15 8C15 9.38447 14.5895 10.7378 13.8203 11.889C13.0511 13.0401 11.9579 13.9373 10.6788 14.4672C9.3997 14.997 7.99224 15.1356 6.63437 14.8655C5.2765 14.5954 4.02922 13.9287 3.05026 12.9497C2.07129 11.9708 1.4046 10.7235 1.13451 9.36563C0.86441 8.00776 1.00303 6.6003 1.53285 5.32122C2.06266 4.04213 2.95987 2.94888 4.11101 2.17971ZM4 11H5V5H4V11ZM11.934 10.7482C11.9773 10.6726 12 10.5871 12 10.5V5.5C12 5.41293 11.9773 5.32736 11.934 5.25178C11.8908 5.1762 11.8286 5.11322 11.7535 5.06907C11.6785 5.02492 11.5932 5.00114 11.5061 5.00007C11.419 4.99901 11.3332 5.0207 11.2571 5.063L6.7571 7.563C6.67919 7.60632 6.61428 7.66967 6.56909 7.74651C6.5239 7.82334 6.50007 7.91086 6.50007 8C6.50007 8.08914 6.5239 8.17666 6.56909 8.25349C6.61428 8.33033 6.67919 8.39368 6.7571 8.437L11.2571 10.937C11.3332 10.9793 11.419 11.001 11.5061 10.9999C11.5932 10.9989 11.6785 10.9751 11.7535 10.9309C11.8286 10.8868 11.8908 10.8238 11.934 10.7482ZM8.0295 8.00011L11 6.34961V9.65061L8.0295 8.00011Z" fill="black"/>
</svg>
