<svg width="16" height="16" viewBox="0 0 16 16" fill="none" xmlns="http://www.w3.org/2000/svg">
<path fill-rule="evenodd" clip-rule="evenodd" d="M10.8328 2.00414C11.6339 2.65376 12.1873 3.55901 12.4004 4.56815C13.1894 4.72903 13.8906 5.17722 14.3679 5.82577C14.8451 6.47433 15.0646 7.27703 14.9836 8.0782C14.9025 8.87936 14.5269 9.62189 13.9294 10.1618C13.3319 10.7016 12.5553 11.0004 11.75 11.0001H9.80885L8.94725 12.7237C8.91851 12.7835 8.87816 12.8369 8.82857 12.8809C8.77898 12.9249 8.72112 12.9587 8.65837 12.9801C8.59562 13.0015 8.52923 13.0103 8.46307 13.0058C8.39691 13.0014 8.33229 12.9838 8.27299 12.9542C8.21368 12.9245 8.16087 12.8833 8.11762 12.8331C8.07438 12.7828 8.04156 12.7244 8.02109 12.6613C8.00062 12.5983 7.99289 12.5317 7.99837 12.4657C8.00385 12.3996 8.02242 12.3352 8.053 12.2764L8.6909 11.0001H4.25C3.44472 11.0004 2.66802 10.7016 2.07055 10.1617C1.47308 9.62177 1.09744 8.87919 1.01648 8.07799C0.935525 7.27679 1.15503 6.47408 1.63241 5.82555C2.10979 5.17703 2.81103 4.72892 3.6001 4.56815C3.81316 3.55901 4.36662 2.65376 5.16772 2.00414C5.96881 1.35452 6.96886 1 8.00025 1C9.03164 1 10.0317 1.35452 10.8328 2.00414ZM4.25 10.0001H11.75C12.3311 10.0003 12.8898 9.77555 13.3088 9.37294C13.7279 8.97034 13.9748 8.42114 13.9979 7.84047C14.0209 7.2598 13.8183 6.69276 13.4324 6.25822C13.0466 5.82367 12.5075 5.55537 11.9282 5.50955L11.5205 5.4776L11.4712 5.0716C11.3674 4.22414 10.9571 3.44395 10.3177 2.87812C9.67834 2.31229 8.85405 1.99993 8.00025 1.99993C7.14646 1.99993 6.32216 2.31229 5.68278 2.87812C5.0434 3.44395 4.63312 4.22414 4.5293 5.0716L4.47975 5.4776L4.072 5.50955C3.4927 5.55537 2.95363 5.82366 2.56779 6.25818C2.18195 6.6927 1.97929 7.25972 2.00231 7.84037C2.02533 8.42102 2.27223 8.97022 2.69125 9.37284C3.11028 9.77546 3.66889 10.0002 4.25 10.0001ZM10.5 15C10.4148 15.0001 10.3309 14.9783 10.2565 14.9368C10.182 14.8953 10.1194 14.8354 10.0746 14.7629C10.0298 14.6904 10.0043 14.6076 10.0005 14.5225C9.99665 14.4373 10.0147 14.3526 10.0528 14.2764L11.0528 12.2761C11.0822 12.2174 11.1228 12.165 11.1724 12.122C11.2221 12.079 11.2796 12.0462 11.3419 12.0254C11.4042 12.0046 11.47 11.9964 11.5355 12.001C11.601 12.0057 11.665 12.0232 11.7237 12.0526C11.7824 12.0819 11.8348 12.1226 11.8778 12.1722C11.9208 12.2218 11.9536 12.2794 11.9744 12.3417C11.9951 12.404 12.0034 12.4698 11.9988 12.5353C11.9941 12.6008 11.9766 12.6647 11.9472 12.7234L10.9472 14.7234C10.9058 14.8066 10.842 14.8766 10.763 14.9254C10.684 14.9743 10.5929 15.0001 10.5 15ZM4 12H3V13H4V14H3V15H4V14H5V15H6V14H5V13H6V12H5V13H4V12Z" fill="black"/>
</svg>
