<svg width="16" height="16" viewBox="0 0 16 16" fill="none" xmlns="http://www.w3.org/2000/svg">
<path fill-rule="evenodd" clip-rule="evenodd" d="M7.77647 7.94726C7.84591 7.98196 7.92248 8.00002 8.00012 8.00001C8.07775 8.00002 8.15432 7.98196 8.22377 7.94726L13.2238 5.44726C13.3068 5.40574 13.3767 5.34191 13.4255 5.26291C13.4744 5.18392 13.5002 5.09288 13.5002 5.00001C13.5002 4.90714 13.4744 4.81611 13.4255 4.73711C13.3767 4.65811 13.3068 4.59428 13.2238 4.55276L8.22377 2.05276C8.15432 2.01806 8.07775 2 8.00012 2C7.92248 2 7.84591 2.01806 7.77647 2.05276L2.77647 4.55276C2.69339 4.59428 2.62353 4.65811 2.5747 4.73711C2.52587 4.81611 2.5 4.90714 2.5 5.00001C2.5 5.09288 2.52587 5.18392 2.5747 5.26291C2.62353 5.34191 2.69339 5.40574 2.77647 5.44726L7.77647 7.94726ZM8.00012 6.94106L4.11802 5.00001L8.00012 3.05896L11.8822 5.00001L8.00012 6.94106ZM8.00002 11C7.92238 11.0001 7.84581 10.982 7.77637 10.9473L2.77637 8.4473L3.22367 7.5528L8.00002 9.94109L12.7764 7.5528L13.2237 8.4473L8.22367 10.9473C8.15422 10.982 8.07765 11.0001 8.00002 11ZM13 10H14C14.2651 10.0003 14.5193 10.1058 14.7068 10.2932C14.8942 10.4807 14.9997 10.7349 15 11V14C14.9997 14.2651 14.8942 14.5193 14.7068 14.7068C14.5193 14.8942 14.2651 14.9997 14 15H2C1.73488 14.9997 1.48071 14.8942 1.29324 14.7068C1.10578 14.5193 1.00032 14.2651 1 14V11C1.00032 10.7349 1.10578 10.4807 1.29324 10.2932C1.48071 10.1058 1.73488 10.0003 2 10H3V11H2V14H14V11H13V10ZM4 12.5C4 12.7761 3.77614 13 3.5 13C3.22386 13 3 12.7761 3 12.5C3 12.2239 3.22386 12 3.5 12C3.77614 12 4 12.2239 4 12.5Z" fill="black"/>
</svg>
