<svg width="16" height="16" viewBox="0 0 16 16" fill="none" xmlns="http://www.w3.org/2000/svg">
<path fill-rule="evenodd" clip-rule="evenodd" d="M5.85001 1.35009L6.15001 2.30009C6.74606 2.09938 7.37107 1.99802 8.00001 2.00009V1.00009C7.26839 0.990123 6.54069 1.10858 5.85001 1.35009ZM3.85001 2.3501C3.27652 2.7902 2.77108 3.31249 2.35001 3.9001L3.15001 4.5001C3.51725 3.99083 3.95495 3.53629 4.45001 3.1501L3.85001 2.3501ZM8 10.5C9.38071 10.5 10.5 9.38071 10.5 8C10.5 6.61929 9.38071 5.5 8 5.5C6.61929 5.5 5.5 6.61929 5.5 8C5.5 9.38071 6.61929 10.5 8 10.5ZM1.35 5.8501L2.3 6.1501C2.09928 6.74615 1.99793 7.37116 2 8.0001H1C0.990031 7.26848 1.10849 6.54078 1.35 5.8501ZM1.35001 10.1999C1.58191 10.8971 1.91915 11.5547 2.35001 12.1499L3.15001 11.5499C2.78853 11.0438 2.50222 10.488 2.30001 9.8999L1.35001 10.1999ZM5.84999 14.6501C5.15278 14.4182 4.49517 14.081 3.89999 13.6501L4.49999 12.8501C5.00609 13.2116 5.56185 13.4979 6.14999 13.7001L5.84999 14.6501ZM13.65 12.1C13.2111 12.6889 12.6889 13.2111 12.1 13.65L11.5 12.85C12.0219 12.4782 12.4782 12.0219 12.85 11.5L13.65 12.1ZM13.7 9.85L14.65 10.15C14.8675 9.45342 14.9853 8.72959 15 8H14C14.0021 8.62894 13.9007 9.25394 13.7 9.85ZM13.6 3.8501C14.0309 4.44528 14.3681 5.10289 14.6 5.8001L13.65 6.1001C13.4478 5.51196 13.1615 4.95619 12.8 4.4501L13.6 3.8501ZM12.05 2.2998C11.4548 1.86894 10.7972 1.53171 10.1 1.2998L9.8 2.2498C10.3881 2.45202 10.9439 2.73832 11.45 3.0998L12.05 2.2998ZM9.85 13.7002L10.15 14.6502C9.44709 14.8396 8.7267 14.9569 8 15.0002V14.0002C8.62894 14.0023 9.25394 13.9009 9.85 13.7002Z" fill="black"/>
</svg>
