<svg width="16" height="16" viewBox="0 0 16 16" fill="none" xmlns="http://www.w3.org/2000/svg">
<path fill-rule="evenodd" clip-rule="evenodd" d="M2.00076 3.79464L3.79218 1.99976L4.49972 2.70593L2.70831 4.50082L2.00076 3.79464ZM11.5003 2.70602L12.2078 1.99984L13.9993 3.79473L13.2917 4.5009L11.5003 2.70602ZM10 5.99996V6.99996L7.2535 9.99996H10V11H6V9.99996L8.75 6.99996H6V5.99996H10ZM8 14C6.91221 14 5.84884 13.6774 4.94437 13.073C4.0399 12.4687 3.33495 11.6097 2.91867 10.6047C2.50238 9.59973 2.39346 8.49386 2.60568 7.42697C2.8179 6.36007 3.34173 5.38007 4.11092 4.61088C4.8801 3.84169 5.86011 3.31787 6.92701 3.10565C7.9939 2.89343 9.09977 3.00235 10.1048 3.41863C11.1098 3.83491 11.9687 4.53986 12.5731 5.44433C13.1774 6.3488 13.5 7.41217 13.5 8.49997C13.4983 9.95815 12.9184 11.3561 11.8873 12.3872C10.8562 13.4183 9.45819 13.9983 8 14ZM8 3.99997C7.10999 3.99997 6.23996 4.26389 5.49994 4.75835C4.75991 5.25282 4.18314 5.95562 3.84254 6.77789C3.50195 7.60016 3.41284 8.50496 3.58647 9.37787C3.7601 10.2508 4.18869 11.0526 4.81802 11.6819C5.44736 12.3113 6.24918 12.7399 7.1221 12.9135C7.99501 13.0871 8.89981 12.998 9.72208 12.6574C10.5443 12.3168 11.2471 11.7401 11.7416 11C12.2361 10.26 12.5 9.38998 12.5 8.49997C12.4987 7.3069 12.0241 6.16307 11.1805 5.31945C10.3369 4.47582 9.19307 4.00129 8 3.99997Z" fill="black"/>
</svg>
