<svg width="16" height="16" viewBox="0 0 16 16" fill="none" xmlns="http://www.w3.org/2000/svg">
<path fill-rule="evenodd" clip-rule="evenodd" d="M4.81969 12.6804C5.66327 13.524 6.80699 13.9985 8 14C9.19301 13.9985 10.3367 13.524 11.1803 12.6804C12.0239 11.8368 12.4985 10.6931 12.5 9.50005C12.4713 8.61297 12.2084 7.74928 11.7381 6.9966L8.4236 1.7184C8.37552 1.65086 8.31198 1.59581 8.23829 1.55781C8.16461 1.51982 8.0829 1.5 8 1.5C7.9171 1.5 7.83539 1.51982 7.76171 1.55781C7.68802 1.59581 7.62448 1.65086 7.5764 1.7184L4.24705 7.02235C3.78457 7.76823 3.5269 8.62284 3.5 9.50005C3.50151 10.6931 3.9761 11.8368 4.81969 12.6804ZM5.10915 7.52815L8 2.9242L10.876 7.5024C11.2563 8.10173 11.4715 8.79084 11.5 9.50005C11.5 10.4283 11.1313 11.3185 10.4749 11.9749C9.8185 12.6313 8.92826 13 8 13C7.07174 13 6.1815 12.6313 5.52513 11.9749C4.86875 11.3185 4.5 10.4283 4.5 9.50005C4.52653 8.80069 4.73661 8.12062 5.10915 7.52815ZM9.7 7.6L10.3 8.4L8.8335 9.5L10.3 10.6L9.7 11.4L8.5 10.5V12H7.5V10.5L6.3 11.4L5.7 10.6L7.1665 9.5L5.7 8.4L6.3 7.6L7.5 8.5V7H8.5V8.5L9.7 7.6Z" fill="black"/>
</svg>
