<svg width="16" height="16" viewBox="0 0 16 16" fill="none" xmlns="http://www.w3.org/2000/svg">
<path fill-rule="evenodd" clip-rule="evenodd" d="M11 0H10V1.5H11V0ZM2.00001 13H1.00001V14H2.00001V15H1.00001V16H2.00001V15H3.00001V16H4.00001V15H3.00001V14H4.00001V13H3.00001V14H2.00001V13ZM11 13H10V14H11V15H10V16H11V15H12V16H13V15H12V14H13V13H12V14H11V13ZM5.50001 13H6.50001V14H5.50001V13ZM7.50001 14H6.50001V15H5.50001V16H6.50001V15H7.50001V16H8.50001V15H7.50001V14ZM7.50001 14V13H8.50001V14H7.50001ZM14.5 5.00024H16V6.00024H14.5V5.00024ZM14.2929 1.50038L13.2322 2.56104L13.9393 3.26814L15 2.20748L14.2929 1.50038ZM14.2929 9.50024L13.2322 8.43958L13.9393 7.73248L15 8.79314L14.2929 9.50024ZM5.99995 2.20741L7.06061 3.26807L7.76772 2.56096L6.70706 1.5003L5.99995 2.20741ZM12.928 3.73296C13.3013 4.2464 13.5016 4.86522 13.5 5.49999C13.4992 5.96733 13.3886 6.42795 13.1773 6.84479C12.966 7.26164 12.6598 7.62306 12.2834 7.89999C12.4666 8.35415 12.5353 8.84643 12.4832 9.3334C12.4312 9.82037 12.2601 10.287 11.985 10.6922C11.71 11.0974 11.3394 11.4287 10.906 11.6567C10.4726 11.8848 9.98974 12.0027 9.50001 12H4.00001C3.27681 12.0009 2.57768 11.7402 2.03163 11.266C1.48558 10.7919 1.12946 10.1362 1.02898 9.42001C0.928495 8.70382 1.09043 7.97546 1.48491 7.36933C1.87939 6.76319 2.47978 6.32018 3.17531 6.12204C3.41856 5.36388 3.89527 4.70204 4.53729 4.23111C5.17932 3.76018 5.95379 3.50428 6.75001 3.49999C7.20238 3.50291 7.65036 3.58906 8.07156 3.75414C8.44031 3.23746 8.9638 2.85142 9.56636 2.65181C10.1689 2.4522 10.8194 2.44937 11.4236 2.64371C12.0279 2.83806 12.5548 3.21952 12.928 3.73296ZM4.00001 11H9.50001C10.0009 11.001 10.4838 10.8136 10.853 10.4751C11.2222 10.1366 11.4506 9.67164 11.493 9.17255C11.5353 8.67345 11.3885 8.17667 11.0817 7.78079C10.7748 7.3849 10.3303 7.11883 9.83646 7.03539L9.50516 6.97899L9.43236 6.65089C9.29654 6.04075 8.95678 5.49515 8.46912 5.10411C7.98147 4.71307 7.37508 4.49997 6.75001 4.49997C6.12493 4.49997 5.51854 4.71307 5.03089 5.10411C4.54324 5.49515 4.20347 6.04075 4.06766 6.65089L3.99486 6.97899L3.66336 7.03539C3.16957 7.11897 2.72523 7.3851 2.41848 7.78098C2.11174 8.17686 1.965 8.67358 2.00738 9.1726C2.04975 9.67162 2.27814 10.1365 2.64724 10.475C3.01634 10.8135 3.49919 11.0009 4.00001 11ZM10.3247 6.12204C10.8831 6.28256 11.3824 6.60283 11.7611 7.04344V7.04329C11.9779 6.86774 12.1554 6.64864 12.2822 6.40017C12.409 6.15171 12.4822 5.87939 12.4972 5.60084C12.5121 5.32229 12.4684 5.04371 12.3689 4.78311C12.2694 4.52251 12.1163 4.28568 11.9196 4.08796C11.7228 3.89023 11.4867 3.736 11.2266 3.63524C10.9665 3.53449 10.6881 3.48944 10.4095 3.50302C10.1309 3.5166 9.85823 3.5885 9.60915 3.71408C9.36007 3.83966 9.14011 4.01612 8.96351 4.23204C9.60582 4.70211 10.0824 5.36386 10.3247 6.12204Z" fill="black"/>
</svg>
