<svg width="16" height="16" viewBox="0 0 16 16" fill="none" xmlns="http://www.w3.org/2000/svg">
<path fill-rule="evenodd" clip-rule="evenodd" d="M2.08348 10.1541C2.67657 10.6937 3.44819 10.995 4.24999 11H11.75C12.5518 10.995 13.3234 10.6937 13.9165 10.1541C14.5096 9.61449 14.8823 8.87471 14.9629 8.07697C15.0436 7.27922 14.8265 6.47982 14.3534 5.83246C13.8803 5.18509 13.1846 4.73547 12.4 4.57003C12.1841 3.56329 11.6296 2.66102 10.8288 2.01376C10.0281 1.36651 9.02961 1.01343 7.99999 1.01343C6.97037 1.01343 5.97189 1.36651 5.17115 2.01376C4.37041 2.66102 3.81584 3.56329 3.59999 4.57003C2.81543 4.73547 2.11972 5.18509 1.64662 5.83246C1.17351 6.47982 0.956412 7.27922 1.03706 8.07697C1.1177 8.87471 1.49039 9.61449 2.08348 10.1541ZM5.6843 2.87868C6.3233 2.31334 7.1468 2.00088 7.99999 2.00003C8.85278 2.00634 9.67392 2.3238 10.3092 2.89278C10.9444 3.46175 11.3501 4.24309 11.45 5.09003L11.5 5.50003H11.93C12.5267 5.5239 13.0895 5.78384 13.4946 6.22268C13.8997 6.66151 14.1139 7.24329 14.09 7.84003C14.0661 8.43677 13.8062 8.99958 13.3673 9.40466C12.9285 9.80974 12.3467 10.0239 11.75 10H4.24999C3.65325 10.0239 3.07148 9.80974 2.63264 9.40466C2.1938 8.99958 1.93386 8.43677 1.90999 7.84003C1.88612 7.24329 2.10028 6.66151 2.50536 6.22268C2.91044 5.78384 3.47325 5.5239 4.06999 5.50003H4.49999L4.52999 5.07003C4.63481 4.2233 5.0453 3.44402 5.6843 2.87868ZM5.47499 12L5.99999 12.525L5.27499 13.25L5.99999 13.975L5.47499 14.5L4.74999 13.775L4.02499 14.5L3.49999 13.975L4.22499 13.25L3.49999 12.525L4.02499 12L4.74999 12.725L5.47499 12ZM13 12.525L12.475 12L11.75 12.725L11.025 12L10.5 12.525L11.225 13.25L10.5 13.975L11.025 14.5L11.75 13.775L12.475 14.5L13 13.975L12.275 13.25L13 12.525ZM8.97499 13L9.49999 13.525L8.77499 14.25L9.49999 14.975L8.97499 15.5L8.24999 14.775L7.52499 15.5L6.99999 14.975L7.72499 14.25L6.99999 13.525L7.52499 13L8.24999 13.725L8.97499 13Z" fill="black"/>
</svg>
