<svg width="16" height="16" viewBox="0 0 16 16" fill="none" xmlns="http://www.w3.org/2000/svg">
<path fill-rule="evenodd" clip-rule="evenodd" d="M10.8328 2.00414C11.6339 2.65376 12.1873 3.55901 12.4004 4.56815C13.0814 4.70691 13.7 5.06048 14.1652 5.57688C14.6303 6.09329 14.9176 6.74529 14.9847 7.43707C15.0518 8.12884 14.8952 8.8239 14.538 9.42008C14.1807 10.0163 13.6417 10.4821 13 10.7492V9.6192C13.3887 9.35988 13.6868 8.98586 13.853 8.54919C14.0192 8.11251 14.0451 7.6349 13.9272 7.18279C13.8093 6.73068 13.5534 6.32657 13.1951 6.02668C12.8369 5.72679 12.394 5.54603 11.9282 5.50955L11.5205 5.4776L11.4712 5.0716C11.3674 4.22414 10.9571 3.44395 10.3177 2.87812C9.67835 2.31229 8.85405 1.99993 8.00026 1.99993C7.14646 1.99993 6.32216 2.31229 5.68279 2.87812C5.04341 3.44395 4.63313 4.22414 4.52931 5.0716L4.47976 5.4776L4.07201 5.50955C3.60614 5.54594 3.16321 5.72664 2.80485 6.02653C2.44649 6.32641 2.19053 6.73055 2.07258 7.1827C1.95464 7.63486 1.98059 8.11253 2.14681 8.54925C2.31304 8.98596 2.61127 9.36 3.00001 9.6193V10.7493C2.35828 10.4822 1.81915 10.0163 1.46189 9.4201C1.10462 8.82386 0.948066 8.12873 1.01523 7.4369C1.0824 6.74507 1.36975 6.09304 1.83503 5.57666C2.30031 5.06028 2.91899 4.70678 3.60011 4.56815C3.81316 3.55901 4.36662 2.65376 5.16772 2.00414C5.96882 1.35452 6.96887 1 8.00026 1C9.03165 1 10.0317 1.35452 10.8328 2.00414ZM5.00001 9H4.00001V10H5.00001V11H4.00001V12H5.00001V11H6.00001V12H7.00001V11H6.00001V10H7.00001V9H6.00001V10H5.00001V9ZM3.00001 13H2.00001V14H3.00001V15H2.00001V16H3.00001V15H4.00001V16H5.00001V15H4.00001V14H5.00001V13H4.00001V14H3.00001V13ZM9.00001 9H10V10H9.00001V9ZM11 10H10V11H9.00001V12H10V11H11V12H12V11H11V10ZM11 10V9H12V10H11ZM8.00001 13H7.00001V14H8.00001V15H7.00001V16H8.00001V15H9.00001V16H10V15H9.00001V14H10V13H9.00001V14H8.00001V13Z" fill="black"/>
</svg>
