<svg width="16" height="16" viewBox="0 0 16 16" fill="none" xmlns="http://www.w3.org/2000/svg">
<path fill-rule="evenodd" clip-rule="evenodd" d="M14.6719 6.21938C14.7797 6.2953 14.8659 6.39802 14.922 6.51742C14.9806 6.63738 15.007 6.77056 14.9985 6.90383C14.9901 7.0371 14.947 7.16586 14.8736 7.27742C14.6047 7.69425 14.2559 8.05367 13.8473 8.33488C13.4387 8.6161 12.9784 8.81355 12.4931 8.91582C12.4934 8.92916 12.495 8.94218 12.4965 8.95516C12.4983 8.97002 12.5 8.98484 12.5 9.00007C12.4991 9.79545 12.1828 10.558 11.6204 11.1204C11.0579 11.6828 10.2954 11.9992 9.50001 12.0001H4.00001C3.27681 12.001 2.57768 11.7403 2.03163 11.2661C1.48558 10.7919 1.12946 10.1363 1.02898 9.42009C0.928495 8.7039 1.09043 7.97554 1.48491 7.36941C1.87939 6.76327 2.47978 6.32026 3.17531 6.12212C3.41856 5.36396 3.89527 4.70212 4.53729 4.23119C5.17932 3.76026 5.95379 3.50436 6.75001 3.50007C7.24116 3.50377 7.72662 3.60562 8.17786 3.79962C8.36425 3.10927 8.7376 2.48377 9.25677 1.99205C9.77593 1.50032 10.4208 1.16145 11.1202 1.01277L11.1298 1.01082C11.2548 0.989012 11.3833 1.00029 11.5026 1.04355C11.6219 1.0868 11.7278 1.16052 11.8098 1.25737C11.8991 1.36245 11.9598 1.48881 11.986 1.62422C12.0121 1.75964 12.0029 1.89951 11.9592 2.03032C11.7736 2.57228 11.7353 3.15384 11.8483 3.71547C11.9612 4.27709 12.2214 4.7986 12.6022 5.22662C13.0458 5.71226 13.6526 6.01764 14.307 6.08452C14.4383 6.09698 14.564 6.14346 14.6719 6.21938ZM4.00001 11.0001H9.50001C10.0009 11.001 10.4838 10.8137 10.853 10.4752C11.2222 10.1367 11.4506 9.67172 11.493 9.17263C11.5353 8.67353 11.3885 8.17675 11.0817 7.78087C10.7748 7.38498 10.3303 7.11891 9.83646 7.03547L9.50516 6.97907L9.43236 6.65097C9.29654 6.04083 8.95678 5.49523 8.46912 5.10419C7.98147 4.71315 7.37508 4.50005 6.75001 4.50005C6.12493 4.50005 5.51854 4.71315 5.03089 5.10419C4.54324 5.49523 4.20347 6.04083 4.06766 6.65097L3.99486 6.97907L3.66336 7.03547C3.16957 7.11905 2.72523 7.38518 2.41848 7.78106C2.11174 8.17694 1.965 8.67366 2.00738 9.17268C2.04975 9.6717 2.27814 10.1366 2.64724 10.4751C3.01634 10.8135 3.49919 11.0009 4.00001 11.0001ZM11.5269 6.79465C11.8696 7.10955 12.134 7.50029 12.2987 7.93562C12.8938 7.80902 13.4293 7.48689 13.82 7.02057C13.0701 6.86042 12.3884 6.47124 11.8693 5.90682C11.413 5.39901 11.0864 4.78829 10.9175 4.12684C10.7486 3.46538 10.7423 2.77287 10.8993 2.10847C10.4317 2.29345 10.0192 2.59481 9.70085 2.98398C9.3825 3.37315 9.16886 3.8372 9.08021 4.33212C9.66337 4.79217 10.0966 5.41524 10.3247 6.12212C10.7724 6.24944 11.1841 6.47976 11.5269 6.79465ZM1.00001 13H2.00001V14H1.00001V13ZM3.00001 14H2.00001V15H1.00001V16H2.00001V15H3.00001V16H4.00001V15H3.00001V14ZM3.00001 14V13H4.00001V14H3.00001ZM10 13H11V14H10V13ZM12 14H11V15H10V16H11V15H12V16H13V15H12V14ZM12 14V13H13V14H12ZM6.50001 13H5.50001V14H6.50001V15H5.50001V16H6.50001V15H7.50001V16H8.50001V15H7.50001V14H8.50001V13H7.50001V14H6.50001V13Z" fill="black"/>
</svg>
