<svg width="16" height="16" viewBox="0 0 16 16" fill="none" xmlns="http://www.w3.org/2000/svg">
<path fill-rule="evenodd" clip-rule="evenodd" d="M11.2778 4.20507C11.5655 4.39737 11.9039 4.5 12.25 4.5C12.714 4.49947 13.1588 4.31493 13.4869 3.98685C13.8149 3.65878 13.9995 3.21397 14 2.75C14 2.40388 13.8974 2.06554 13.7051 1.77775C13.5128 1.48997 13.2395 1.26566 12.9197 1.13321C12.5999 1.00076 12.2481 0.966102 11.9086 1.03363C11.5691 1.10115 11.2573 1.26782 11.0126 1.51256C10.7678 1.75731 10.6012 2.06913 10.5336 2.40859C10.4661 2.74806 10.5008 3.09993 10.6332 3.4197C10.7657 3.73947 10.99 4.01278 11.2778 4.20507ZM11.8333 2.1264C11.9567 2.04399 12.1017 2 12.25 2C12.4488 2.00023 12.6395 2.07932 12.7801 2.21992C12.9207 2.36052 12.9998 2.55116 13 2.75C13 2.89834 12.956 3.04334 12.8736 3.16668C12.7912 3.29002 12.6741 3.38614 12.537 3.44291C12.4 3.49968 12.2492 3.51453 12.1037 3.48559C11.9582 3.45665 11.8246 3.38522 11.7197 3.28033C11.6148 3.17544 11.5434 3.0418 11.5144 2.89632C11.4855 2.75083 11.5003 2.60003 11.5571 2.46299C11.6139 2.32594 11.71 2.20881 11.8333 2.1264ZM14 8.292L9.70715 4H3V5H9.29285L10.7928 6.5L3 14.2929L3.70705 15L11.5 7.2075L13.292 9L11.5 10.7929L12.2071 11.5L14 9.708C14.1875 9.52011 14.2929 9.26548 14.2929 9C14.2929 8.73452 14.1875 8.47989 14 8.292ZM3.99998 10.293L6.79295 7.5L7.49999 8.20704L4.70702 11L3.99998 10.293ZM9.5 14C9.5 14.5523 9.05228 15 8.5 15C7.94772 15 7.5 14.5523 7.5 14C7.5 13.4477 7.94772 13 8.5 13C9.05228 13 9.5 13.4477 9.5 14Z" fill="black"/>
</svg>
