<svg width="16" height="16" viewBox="0 0 16 16" fill="none" xmlns="http://www.w3.org/2000/svg">
<path fill-rule="evenodd" clip-rule="evenodd" d="M7.3 6.2C7.5 6.4 7.75 6.5 8 6.5C8.25 6.5 8.5 6.4 8.7 6.2L10.2 4.7C10.4 4.5 10.5 4.25 10.5 4C10.5 3.75 10.4 3.5 10.2 3.3L8.7 1.8C8.5 1.6 8.25 1.5 8 1.5C7.75 1.5 7.5 1.6 7.3 1.8L5.8 3.3C5.6 3.5 5.5 3.75 5.5 4C5.5 4.25 5.6 4.5 5.8 4.7L7.3 6.2ZM6.5 4L8 2.5L9.5 4L8 5.5L6.5 4ZM11.3 10.2C11.5 10.4 11.75 10.5 12 10.5C12.25 10.5 12.5 10.4 12.7 10.2L14.2 8.7C14.4 8.5 14.5 8.25 14.5 8C14.5 7.75 14.4 7.5 14.2 7.3L12.7 5.8C12.5 5.6 12.25 5.5 12 5.5C11.75 5.5 11.5 5.6 11.3 5.8L9.8 7.3C9.6 7.5 9.5 7.75 9.5 8C9.5 8.25 9.6 8.5 9.8 8.7L11.3 10.2ZM10.5 8L12 6.5L13.5 8L12 9.5L10.5 8ZM8 14.5C7.75 14.5 7.5 14.4 7.3 14.2L5.8 12.7C5.6 12.5 5.5 12.25 5.5 12C5.5 11.75 5.6 11.5 5.8 11.3L7.3 9.8C7.5 9.6 7.75 9.5 8 9.5C8.25 9.5 8.5 9.6 8.7 9.8L10.2 11.3C10.4 11.5 10.5 11.75 10.5 12C10.5 12.25 10.4 12.5 10.2 12.7L8.7 14.2C8.5 14.4 8.25 14.5 8 14.5ZM8 10.5L6.5 12L8 13.5L9.5 12L8 10.5ZM3.3 10.2C3.5 10.4 3.75 10.5 4 10.5C4.25 10.5 4.5 10.4 4.7 10.2L6.2 8.7C6.4 8.5 6.5 8.25 6.5 8C6.5 7.75 6.4 7.5 6.2 7.3L4.7 5.8C4.5 5.6 4.25 5.5 4 5.5C3.75 5.5 3.5 5.6 3.3 5.8L1.8 7.3C1.6 7.5 1.5 7.75 1.5 8C1.5 8.25 1.6 8.5 1.8 8.7L3.3 10.2ZM2.5 8L4 6.5L5.5 8L4 9.5L2.5 8Z" fill="black"/>
</svg>
