<svg width="16" height="16" viewBox="0 0 16 16" fill="none" xmlns="http://www.w3.org/2000/svg">
<path fill-rule="evenodd" clip-rule="evenodd" d="M7.3 1.3C7.5 1.1 7.75 1 8 1C8.25 1 8.5 1.1 8.7 1.3L9.85 2.45L9.15 3.15L8 2L6.85 3.15L6.15 2.45L7.3 1.3ZM3.44931 5.1416L5.14635 3.44456L5.85345 4.15166L4.15641 5.8487L3.44931 5.1416ZM1.3 8.6999L2.45 9.8499L3.15 9.1499L2 7.9999L3.15 6.8499L2.45 6.1499L1.3 7.2999C1.1 7.4999 1 7.7499 1 7.9999C1 8.2499 1.1 8.4999 1.3 8.6999ZM4.15148 10.1464L3.44438 10.8535L5.14142 12.5506L5.84852 11.8435L4.15148 10.1464ZM7.3 14.7001C7.5 14.9001 7.75 15.0001 8 15.0001C8.25 15.0001 8.5 14.9001 8.7 14.7001L9.85 13.5501L9.15 12.8501L8 14.0001L6.85 12.8501L6.15 13.5501L7.3 14.7001ZM11.8434 10.1516L10.1463 11.8486L10.8534 12.5557L12.5505 10.8587L11.8434 10.1516ZM12.85 9.1499L13.55 9.8499L14.7 8.6999C14.9 8.4999 15 8.2499 15 7.9999C15 7.7499 14.9 7.4999 14.7 7.2999L13.55 6.1499L12.85 6.8499L14 7.9999L12.85 9.1499ZM10.8584 3.44964L10.1513 4.15674L11.8483 5.85378L12.5554 5.14668L10.8584 3.44964Z" fill="black"/>
</svg>
