<svg width="16" height="16" viewBox="0 0 16 16" fill="none" xmlns="http://www.w3.org/2000/svg">
<path fill-rule="evenodd" clip-rule="evenodd" d="M5.5 5.5V8H8V9H1V8H4.5V5.5H4C3.20462 5.49913 2.44206 5.18278 1.87964 4.62036C1.31722 4.05794 1.00087 3.29538 1 2.5V1H2.5C3.0367 1.00046 3.56346 1.1448 4.02542 1.418C4.48738 1.6912 4.86764 2.08326 5.1266 2.55335C5.49612 2.19902 5.98805 2.00082 6.5 2H8V3.5C7.9994 4.03025 7.7885 4.53861 7.41356 4.91356C7.03861 5.2885 6.53025 5.4994 6 5.5H5.5ZM7 3H6.5C6.23486 3.00026 5.98066 3.10571 5.79319 3.29319C5.60571 3.48066 5.50026 3.73486 5.5 4V4.5H6C6.26514 4.49974 6.51934 4.39429 6.70681 4.20681C6.89429 4.01934 6.99974 3.76514 7 3.5V3ZM2.58644 3.91356C2.96139 4.2885 3.46975 4.4994 4 4.5H4.5V4C4.4994 3.46975 4.2885 2.96139 3.91356 2.58644C3.53861 2.2115 3.03025 2.0006 2.5 2H2V2.5C2.0006 3.03025 2.2115 3.53861 2.58644 3.91356ZM10.8613 14.6899C11.2864 14.9203 11.7673 15.0276 12.25 14.9999C12.9624 15.0154 13.6518 14.7478 14.1673 14.2559C14.6827 13.7639 14.9822 13.0877 15 12.3754C14.9867 11.8513 14.8236 11.342 14.53 10.9076L12.755 8.26902C12.6993 8.18621 12.6241 8.11836 12.5361 8.07145C12.448 8.02454 12.3498 8 12.25 8C12.1502 8 12.052 8.02454 11.9639 8.07145C11.8758 8.11836 11.8007 8.18621 11.745 8.26902L9.93699 10.9599C9.6687 11.3622 9.51783 11.8312 9.50133 12.3144C9.48483 12.7977 9.60335 13.2759 9.84358 13.6955C10.0838 14.1151 10.4363 14.4595 10.8613 14.6899ZM10.7822 11.4935L12.25 9.30992L13.685 11.4419C13.8789 11.7157 13.9884 12.0402 14 12.3754C13.9822 12.8225 13.7882 13.2444 13.4602 13.5488C13.1323 13.8532 12.6972 14.0154 12.25 13.9999C11.9465 14.0277 11.6414 13.9685 11.3703 13.8292C11.0993 13.6899 10.8735 13.4762 10.7195 13.2132C10.5655 12.9502 10.4896 12.6488 10.5007 12.3442C10.5118 12.0397 10.6094 11.7446 10.7822 11.4935ZM1 10.5V11.5H8V10.5H1ZM1 14V13H8V14H1Z" fill="black"/>
</svg>
