<svg width="16" height="16" viewBox="0 0 16 16" fill="none" xmlns="http://www.w3.org/2000/svg">
<path fill-rule="evenodd" clip-rule="evenodd" d="M6.99965 2.78785C8.78266 1.6196 10.8683 0.998156 13 1H15V2H13C10.3488 2.003 7.80695 3.05752 5.93224 4.93224C4.05752 6.80696 3.00299 9.34876 3 12H2C1.99905 10.4207 2.34033 8.86003 3.00035 7.4253C2.37051 7.14562 1.68914 7.00075 1 7V6C1.84827 6.00361 2.68618 6.18656 3.45875 6.53685C3.71272 6.09487 3.997 5.671 4.30955 5.2683C3.27958 4.76265 2.1474 4.49982 1 4.5V3.5C2.38543 3.50108 3.74959 3.84077 4.97375 4.4895C5.33356 4.10512 5.72033 3.74687 6.1311 3.4175C4.58148 2.48713 2.80745 1.99705 1 2V1C3.13144 0.998103 5.21692 1.61956 6.99965 2.78785ZM5.5 12H4.5C4.50254 9.74644 5.39889 7.58591 6.9924 5.9924C8.58591 4.39889 10.7464 3.50254 13 3.5H15V4.5H13C11.0116 4.50225 9.10522 5.29315 7.69918 6.69918C6.29315 8.10522 5.50225 10.0116 5.5 12ZM11.0386 14.532C11.4644 14.8378 11.9758 15.0015 12.5 15C13.0242 15.0015 13.5356 14.8378 13.9614 14.532C14.3872 14.2263 14.7058 13.7941 14.8719 13.2968C15.038 12.7996 15.0432 12.2627 14.8866 11.7624C14.7301 11.2621 14.4199 10.8239 14 10.51V7.5C14 7.10218 13.842 6.72064 13.5607 6.43934C13.2794 6.15804 12.8978 6 12.5 6C12.1022 6 11.7206 6.15804 11.4393 6.43934C11.158 6.72064 11 7.10218 11 7.5V10.51C10.5801 10.8239 10.2699 11.2621 10.1134 11.7624C9.95682 12.2627 9.96198 12.7996 10.1281 13.2968C10.2942 13.7941 10.6128 14.2263 11.0386 14.532ZM12.1466 7.14661C12.2403 7.05287 12.3674 7.00015 12.5 7C12.6326 7.00015 12.7597 7.05287 12.8534 7.14661C12.9471 7.24034 12.9999 7.36744 13 7.5V11.065L13.2486 11.2094C13.4767 11.3389 13.6665 11.5266 13.7985 11.7533C13.9305 11.98 14 12.2377 14 12.5C14 12.8978 13.842 13.2794 13.5607 13.5607C13.2794 13.842 12.8978 14 12.5 14C12.1022 14 11.7206 13.842 11.4393 13.5607C11.158 13.2794 11 12.8978 11 12.5C11 12.2377 11.0696 11.9801 11.2016 11.7534C11.3336 11.5267 11.5233 11.3391 11.7514 11.2097L12 11.065V7.5C12.0001 7.36744 12.0529 7.24034 12.1466 7.14661ZM7 12H8C7.99733 11.3186 8.13526 10.644 8.40516 10.0183C8.67505 9.39256 9.07112 8.82926 9.5686 8.36357L8.8821 7.63647C8.28517 8.19528 7.80993 8.87121 7.48609 9.62201C7.16225 10.3728 6.99677 11.1824 7 12Z" fill="black"/>
</svg>
