<svg width="16" height="16" viewBox="0 0 16 16" fill="none" xmlns="http://www.w3.org/2000/svg">
<path fill-rule="evenodd" clip-rule="evenodd" d="M6.99965 2.78785C8.78266 1.6196 10.8683 0.998156 13 1H15V2H13C10.3488 2.003 7.80695 3.05752 5.93224 4.93224C4.05752 6.80696 3.00299 9.34876 3 12H2C1.99905 10.4207 2.34033 8.86003 3.00035 7.4253C2.37051 7.14562 1.68914 7.00075 1 7V6C1.84827 6.00361 2.68618 6.18656 3.45875 6.53685C3.71272 6.09487 3.997 5.671 4.30955 5.2683C3.27958 4.76265 2.1474 4.49982 1 4.5V3.5C2.38543 3.50108 3.74959 3.84077 4.97375 4.4895C5.33356 4.10512 5.72033 3.74687 6.1311 3.4175C4.58148 2.48713 2.80745 1.99705 1 2V1C3.13144 0.998103 5.21692 1.61956 6.99965 2.78785ZM4.5 12H5.5C5.50225 10.0116 6.29315 8.10522 7.69918 6.69918C9.10522 5.29315 11.0116 4.50225 13 4.5H15V3.5H13C10.7464 3.50254 8.58591 4.39889 6.9924 5.9924C5.39889 7.58591 4.50254 9.74644 4.5 12ZM11.2377 14.7169C11.624 14.9266 12.0611 15.0247 12.5 15C13.1479 15.0137 13.7749 14.77 14.2435 14.3223C14.7121 13.8746 14.9841 13.2594 15 12.6115C14.9886 12.1374 14.8419 11.6764 14.5772 11.2829L12.9196 8.7279C12.8742 8.65795 12.812 8.60046 12.7388 8.56065C12.6655 8.52085 12.5835 8.5 12.5001 8.5C12.4167 8.5 12.3346 8.52085 12.2614 8.56065C12.1881 8.60046 12.126 8.65795 12.0806 8.7279L10.3963 11.325C10.1527 11.691 10.0159 12.1175 10.0012 12.5569C9.98642 12.9962 10.0943 13.431 10.3127 13.8125C10.5311 14.194 10.8514 14.5072 11.2377 14.7169ZM11.2461 11.8516L12.5 9.91855L13.7278 11.8101C13.8946 12.0451 13.9892 12.3236 14 12.6115C13.9889 12.8304 13.9288 13.0439 13.8241 13.2363C13.7195 13.4288 13.5729 13.5953 13.3953 13.7236C13.2177 13.8519 13.0135 13.9386 12.7979 13.9774C12.5823 14.0162 12.3607 14.0061 12.1495 13.9478C11.9383 13.8896 11.7429 13.7846 11.5777 13.6407C11.4125 13.4968 11.2817 13.3176 11.195 13.1164C11.1082 12.9152 11.0678 12.6971 11.0767 12.4782C11.0855 12.2593 11.1434 12.0452 11.2461 11.8516ZM8 12H7C7.00181 10.4093 7.63454 8.88419 8.75936 7.75936C9.88419 6.63454 11.4093 6.00181 13 6H15V7H13C11.6744 7.0015 10.4035 7.52876 9.46612 8.46612C8.52876 9.40348 8.0015 10.6744 8 12Z" fill="black"/>
</svg>
