<svg width="16" height="16" viewBox="0 0 16 16" fill="none" xmlns="http://www.w3.org/2000/svg">
<path fill-rule="evenodd" clip-rule="evenodd" d="M1 3H15V4H1V3ZM7 5.5C7 5.77614 6.77614 6 6.5 6C6.22386 6 6 5.77614 6 5.5C6 5.22386 6.22386 5 6.5 5C6.77614 5 7 5.22386 7 5.5ZM3 6.5C3 6.77614 2.77614 7 2.5 7C2.22386 7 2 6.77614 2 6.5C2 6.22386 2.22386 6 2.5 6C2.77614 6 3 6.22386 3 6.5ZM10.3327 13.2561C10.8482 13.748 11.5376 14.0156 12.25 14.0001C12.9624 14.0156 13.6518 13.748 14.1673 13.2561C14.6827 12.7641 14.9822 12.0879 15 11.3756C14.9867 10.8515 14.8236 10.3422 14.53 9.90781L12.755 7.26926C12.6993 7.18645 12.6242 7.11861 12.5361 7.07169C12.448 7.02478 12.3498 7.00024 12.25 7.00024C12.1502 7.00024 12.052 7.02478 11.9639 7.07169C11.8758 7.11861 11.8007 7.18645 11.745 7.26926L9.937 9.96021C9.66183 10.3819 9.51043 10.8722 9.5 11.3756C9.51783 12.0879 9.81728 12.7641 10.3327 13.2561ZM10.7822 10.4937L12.25 8.31011L13.685 10.4421C13.8789 10.7158 13.9884 11.0404 14 11.3756C13.9666 11.8169 13.7678 12.2293 13.4433 12.5302C13.1187 12.831 12.6925 12.9982 12.25 12.9982C11.8075 12.9982 11.3813 12.831 11.0567 12.5302C10.7322 12.2293 10.5334 11.8169 10.5 11.3756C10.5096 11.061 10.6073 10.7554 10.7822 10.4937ZM5.5 10C5.77614 10 6 9.77614 6 9.5C6 9.22386 5.77614 9 5.5 9C5.22386 9 5 9.22386 5 9.5C5 9.77614 5.22386 10 5.5 10ZM8 12.5C8 12.7761 7.77614 13 7.5 13C7.22386 13 7 12.7761 7 12.5C7 12.2239 7.22386 12 7.5 12C7.77614 12 8 12.2239 8 12.5ZM8.5 8C8.77614 8 9 7.77614 9 7.5C9 7.22386 8.77614 7 8.5 7C8.22386 7 8 7.22386 8 7.5C8 7.77614 8.22386 8 8.5 8ZM13.5 6C13.7761 6 14 5.77614 14 5.5C14 5.22386 13.7761 5 13.5 5C13.2239 5 13 5.22386 13 5.5C13 5.77614 13.2239 6 13.5 6ZM5 13.5C5 13.7761 4.77614 14 4.5 14C4.22386 14 4 13.7761 4 13.5C4 13.2239 4.22386 13 4.5 13C4.77614 13 5 13.2239 5 13.5ZM1.5 11C1.77614 11 2 10.7761 2 10.5C2 10.2239 1.77614 10 1.5 10C1.22386 10 1 10.2239 1 10.5C1 10.7761 1.22386 11 1.5 11Z" fill="black"/>
</svg>
