<svg width="16" height="16" viewBox="0 0 16 16" fill="none" xmlns="http://www.w3.org/2000/svg">
<path fill-rule="evenodd" clip-rule="evenodd" d="M6.5 1H5.5V3H6.5V1ZM4.11656 6.67284C4.22877 6.987 4.41779 7.26809 4.6664 7.49054L5.33335 6.74539C5.20902 6.63418 5.11448 6.49364 5.05834 6.33657C5.0022 6.17949 4.98624 6.01086 5.01192 5.84604C5.03761 5.68122 5.10411 5.52545 5.20539 5.3929C5.30666 5.26035 5.43948 5.15524 5.59175 5.08714C5.74403 5.01904 5.91092 4.99012 6.07723 5.003C6.24354 5.01588 6.40398 5.07016 6.54395 5.1609C6.68393 5.25163 6.79898 5.37594 6.87863 5.52251C6.95828 5.66907 7 5.83323 7 6.00004H8C8 5.66644 7.91655 5.33814 7.75725 5.04504C7.59795 4.75193 7.36787 4.50332 7.08795 4.32186C6.80803 4.14039 6.48716 4.03182 6.15456 4.00604C5.82196 3.98026 5.4882 4.03809 5.18366 4.17425C4.87911 4.31042 4.61347 4.5206 4.41091 4.78565C4.20835 5.05071 4.0753 5.36223 4.02389 5.69184C3.97248 6.02145 4.00434 6.35869 4.11656 6.67284ZM15 7V13H12.5V14H15V15H1V14H9V13H6.5V7H15ZM12.5 10.5V12H14V10.5H12.5ZM11.5 12V10.5H10V12H11.5ZM10 8V9.5H11.5V8H10ZM12.5 9.5H14V8H12.5V9.5ZM9 9.5V8H7.5V9.5H9ZM7.5 10.5V12H9V10.5H7.5ZM10 14H11.5V13H10V14ZM1 5.5H3V6.5H1V5.5ZM2.81795 2.11076L2.11084 2.81787L3.52505 4.23208L4.23216 3.52498L2.81795 2.11076ZM8.47485 4.2323L7.76775 3.52519L9.18196 2.11098L9.88907 2.81809L8.47485 4.2323Z" fill="black"/>
</svg>
