<svg width="16" height="16" viewBox="0 0 16 16" fill="none" xmlns="http://www.w3.org/2000/svg">
<path fill-rule="evenodd" clip-rule="evenodd" d="M11.5 1.5H13C13.2652 1.5 13.5196 1.60536 13.7071 1.79289C13.8947 1.98043 14 2.23478 14 2.5V3.5C14 3.76522 13.8947 4.01957 13.7071 4.20711C13.5196 4.39464 13.2652 4.5 13 4.5H11.5V5H10.5V4.5H9.00002C8.7348 4.5 8.48044 4.39464 8.29291 4.20711C8.10537 4.01957 8.00002 3.76522 8.00002 3.5V2.5C8.00002 2.23478 8.10537 1.98043 8.29291 1.79289C8.48044 1.60536 8.7348 1.5 9.00002 1.5H10.5V1H11.5V1.5ZM9.00002 2.5V3.5H13V2.5H9.00002ZM1.50002 6.5V5.5H6.00002V10H5.00002V7.205L1.85502 10.355L1.14502 9.645L4.29502 6.5H1.50002ZM11.5 6.5H13C13.2652 6.5 13.5196 6.60536 13.7071 6.79289C13.8947 6.98043 14 7.23478 14 7.5V8.5C14 8.76522 13.8947 9.01957 13.7071 9.20711C13.5196 9.39464 13.2652 9.5 13 9.5H11.5V10H10.5V9.5H9.00002C8.7348 9.5 8.48044 9.39464 8.29291 9.20711C8.10537 9.01957 8.00002 8.76522 8.00002 8.5V7.5C8.00002 7.23478 8.10537 6.98043 8.29291 6.79289C8.48044 6.60536 8.7348 6.5 9.00002 6.5H10.5V6H11.5V6.5ZM9.00002 7.5V8.5H13V7.5H9.00002ZM13 11.5H11.5V11H10.5V11.5H9.00002C8.7348 11.5 8.48044 11.6054 8.29291 11.7929C8.10537 11.9804 8.00002 12.2348 8.00002 12.5V13.5C8.00002 13.7652 8.10537 14.0196 8.29291 14.2071C8.48044 14.3946 8.7348 14.5 9.00002 14.5H10.5V15H11.5V14.5H13C13.2652 14.5 13.5196 14.3946 13.7071 14.2071C13.8947 14.0196 14 13.7652 14 13.5V12.5C14 12.2348 13.8947 11.9804 13.7071 11.7929C13.5196 11.6054 13.2652 11.5 13 11.5ZM9.00002 13.5V12.5H13V13.5H9.00002Z" fill="black"/>
</svg>
