<svg width="16" height="16" viewBox="0 0 16 16" fill="none" xmlns="http://www.w3.org/2000/svg">
<path fill-rule="evenodd" clip-rule="evenodd" d="M12.413 3.94206C13.4314 5.04831 13.9977 6.49637 14 8C13.9977 9.50363 13.4314 10.9517 12.413 12.0579C11.3947 13.1642 9.9983 13.8482 8.5 13.9746V15H7.5V13.9746C6.00069 13.8506 4.6028 13.1674 3.58379 12.0606C2.56478 10.9539 1.99915 9.50443 1.99915 8C1.99915 6.49557 2.56478 5.04613 3.58379 3.93936C4.6028 2.83259 6.00069 2.1494 7.5 2.0254V1H8.5V2.0254C9.9983 2.15185 11.3947 2.8358 12.413 3.94206ZM5.22215 12.1573C6.04439 12.7068 7.01109 13 8 13C9.32562 12.9985 10.5965 12.4712 11.5339 11.5339C12.4712 10.5965 12.9985 9.32562 13 8C13 7.01109 12.7068 6.04439 12.1573 5.22215C11.6079 4.3999 10.827 3.75904 9.91342 3.3806C8.99979 3.00216 7.99445 2.90315 7.02455 3.09607C6.05464 3.289 5.16373 3.7652 4.46447 4.46447C3.7652 5.16373 3.289 6.05464 3.09607 7.02455C2.90315 7.99445 3.00216 8.99979 3.3806 9.91342C3.75904 10.827 4.3999 11.6079 5.22215 12.1573ZM8.5 4H7.5V6H8.5V4ZM7.5 7H8.5V9H7.5V7ZM7.5 10H8.5V12H7.5V10Z" fill="black"/>
</svg>
