<svg width="16" height="16" viewBox="0 0 16 16" fill="none" xmlns="http://www.w3.org/2000/svg">
<path fill-rule="evenodd" clip-rule="evenodd" d="M8.5 2H7.5V14H8.5V2ZM5 3.5V12.5H2V3.5H5ZM5 2.5H2C1.73478 2.5 1.48043 2.60536 1.29289 2.79289C1.10536 2.98043 1 3.23478 1 3.5V12.5C1 12.7652 1.10536 13.0196 1.29289 13.2071C1.48043 13.3946 1.73478 13.5 2 13.5H5C5.26522 13.5 5.51957 13.3946 5.70711 13.2071C5.89464 13.0196 6 12.7652 6 12.5V3.5C6 3.23478 5.89464 2.98043 5.70711 2.79289C5.51957 2.60536 5.26522 2.5 5 2.5ZM14 12.5V3.5H11V12.5H14ZM11 2.5H14C14.2652 2.5 14.5196 2.60536 14.7071 2.79289C14.8946 2.98043 15 3.23478 15 3.5V12.5C15 12.7652 14.8946 13.0196 14.7071 13.2071C14.5196 13.3946 14.2652 13.5 14 13.5H11C10.7348 13.5 10.4804 13.3946 10.2929 13.2071C10.1054 13.0196 10 12.7652 10 12.5V3.5C10 3.23478 10.1054 2.98043 10.2929 2.79289C10.4804 2.60536 10.7348 2.5 11 2.5Z" fill="black"/>
</svg>
