<svg width="16" height="16" viewBox="0 0 16 16" fill="none" xmlns="http://www.w3.org/2000/svg">
<path d="M14 8C13.9977 6.49637 13.4314 5.04831 12.413 3.94206C11.3947 2.8358 9.9983 2.15185 8.5 2.0254V1H7.5V2.0254C6.00069 2.1494 4.6028 2.83259 3.58379 3.93936C2.56478 5.04613 1.99915 6.49557 1.99915 8C1.99915 9.50443 2.56478 10.9539 3.58379 12.0606C4.6028 13.1674 6.00069 13.8506 7.5 13.9746V15H8.5V13.9746C9.9983 13.8482 11.3947 13.1642 12.413 12.0579C13.4314 10.9517 13.9977 9.50363 14 8ZM8 13V3C9.32608 3 10.5979 3.52678 11.5355 4.46447C12.4732 5.40215 13 6.67392 13 8C13 9.32608 12.4732 10.5979 11.5355 11.5355C10.5979 12.4732 9.32608 13 8 13Z" fill="black"/>
</svg>
