<svg width="16" height="16" viewBox="0 0 16 16" fill="none" xmlns="http://www.w3.org/2000/svg">
<path fill-rule="evenodd" clip-rule="evenodd" d="M13 4H14C14.2651 4.0003 14.5193 4.10576 14.7068 4.29323C14.8942 4.4807 14.9997 4.73488 15 5V14C14.9996 14.2651 14.8942 14.5193 14.7067 14.7067C14.5193 14.8942 14.2651 14.9996 14 15H8.5C8.23488 14.9997 7.9807 14.8942 7.79323 14.7068C7.60576 14.5193 7.5003 14.2651 7.5 14V5C7.50026 4.73486 7.60571 4.48066 7.79319 4.29319C7.98066 4.10571 8.23486 4.00026 8.5 4H9.5V1.5H13V4ZM12 2.5H10.5V4H12V2.5ZM8.5 5V14H14.001L14 5H8.5ZM9.99997 11.1208C10.37 11.368 10.805 11.5 11.25 11.5C11.8465 11.4993 12.4184 11.2621 12.8403 10.8403C13.2621 10.4184 13.4993 9.84653 13.5 9.25C13.5 8.80499 13.368 8.36998 13.1208 7.99997C12.8736 7.62996 12.5222 7.34157 12.111 7.17127C11.6999 7.00097 11.2475 6.95642 10.811 7.04323C10.3746 7.13005 9.97368 7.34434 9.65901 7.65901C9.34434 7.97368 9.13005 8.37459 9.04323 8.81105C8.95642 9.2475 9.00098 9.6999 9.17127 10.111C9.34157 10.5222 9.62996 10.8736 9.99997 11.1208ZM10.5555 8.21066C10.7611 8.07331 11.0028 8 11.25 8C11.5814 8.00035 11.8992 8.13215 12.1335 8.3665C12.3679 8.60084 12.4997 8.91859 12.5 9.25C12.5 9.49723 12.4267 9.7389 12.2893 9.94446C12.152 10.15 11.9568 10.3102 11.7284 10.4049C11.4999 10.4995 11.2486 10.5242 11.0061 10.476C10.7637 10.4278 10.5409 10.3087 10.3661 10.1339C10.1913 9.95907 10.0723 9.73634 10.024 9.49386C9.97579 9.25139 10.0005 9.00005 10.0952 8.77165C10.1898 8.54324 10.35 8.34802 10.5555 8.21066ZM2.5 7H1V8.5H2.5V7ZM3.5 4.5H5V6H3.5V4.5ZM2.5 4.5H1V6H2.5V4.5ZM6 2H7.5V3.5H6V2ZM5 2H3.5V3.5H5V2ZM1 2H2.5V3.5H1V2Z" fill="black"/>
</svg>
