<svg width="16" height="16" viewBox="0 0 16 16" fill="none" xmlns="http://www.w3.org/2000/svg">
<path fill-rule="evenodd" clip-rule="evenodd" d="M15 8H16V2C16 1.73478 15.8946 1.48043 15.7071 1.29289C15.5196 1.10536 15.2652 1 15 1H11V2H15V8ZM13.5 10.5H12.5V4.5H8.5V3.5H12.5C12.7652 3.5 13.0196 3.60536 13.2071 3.79289C13.3946 3.98043 13.5 4.23478 13.5 4.5V10.5ZM1 15H4C4.26522 15 4.51957 14.8946 4.70711 14.7071C4.89464 14.5196 5 14.2652 5 14V7C5 6.73478 4.89464 6.48043 4.70711 6.29289C4.51957 6.10536 4.26522 6 4 6H1C0.734784 6 0.48043 6.10536 0.292893 6.29289C0.105357 6.48043 0 6.73478 0 7V14C0 14.2652 0.105357 14.5196 0.292893 14.7071C0.48043 14.8946 0.734784 15 1 15ZM1 14V7H4V14H1ZM10 15C10.2652 15 10.5196 14.8946 10.7071 14.7071C10.8946 14.5196 11 14.2652 11 14V7C11 6.73478 10.8946 6.48043 10.7071 6.29289C10.5196 6.10536 10.2652 6 10 6H7C6.73478 6 6.48043 6.10536 6.29289 6.29289C6.10536 6.48043 6 6.73478 6 7V14C6 14.2652 6.10536 14.5196 6.29289 14.7071C6.48043 14.8946 6.73478 15 7 15H10ZM7 14V7H10V14H7Z" fill="black"/>
</svg>
