<svg width="16" height="16" viewBox="0 0 16 16" fill="none" xmlns="http://www.w3.org/2000/svg">
<path fill-rule="evenodd" clip-rule="evenodd" d="M7.295 1L8 1.705L6.705 3L8 4.295L7.295 5L6 3.705L4.705 5L4 4.295L5.295 3L4 1.705L4.705 1L6 2.295L7.295 1ZM10 6H12C12.2651 6.0003 12.5193 6.10576 12.7068 6.29323C12.8942 6.4807 12.9997 6.73488 13 7V10C12.9996 10.2651 12.8942 10.5193 12.7067 10.7067C12.5193 10.8942 12.2651 10.9996 12 11H10V10H12V9H10.5V8H12V7H10V6ZM4 15V11H8V15H4ZM8 6V10H4V6H8ZM5 9H7V7H5V9Z" fill="black"/>
</svg>
