<svg width="16" height="16" viewBox="0 0 16 16" fill="none" xmlns="http://www.w3.org/2000/svg">
<path fill-rule="evenodd" clip-rule="evenodd" d="M12.295 3.705L13 3L15.5 5.5L13 8L12.295 7.295L13.5 6H11V10H10V3H5V2H10C10.2652 2 10.5196 2.10536 10.7071 2.29289C10.8946 2.48043 11 2.73478 11 3V5H13.5L12.295 3.705ZM2 14H7.5C7.76522 14 8.01957 13.8946 8.20711 13.7071C8.39464 13.5196 8.5 13.2652 8.5 13V5.5C8.5 5.23478 8.39464 4.98043 8.20711 4.79289C8.01957 4.60536 7.76522 4.5 7.5 4.5H2C1.73478 4.5 1.48043 4.60536 1.29289 4.79289C1.10536 4.98043 1 5.23478 1 5.5V13C1 13.2652 1.10536 13.5196 1.29289 13.7071C1.48043 13.8946 1.73478 14 2 14ZM2 13V5.5H7.5V13H2Z" fill="black"/>
</svg>
