<svg width="16" height="16" viewBox="0 0 16 16" fill="none" xmlns="http://www.w3.org/2000/svg">
<path d="M13 9.00008H10V7.44918C10.0138 6.76601 10.2141 6.0996 10.5794 5.52208C10.9469 4.90494 11.0797 4.17606 10.9536 3.46894C10.8275 2.76182 10.4508 2.12381 9.8926 1.67178C9.48967 1.34328 9.00826 1.12519 8.4956 1.0389C7.98294 0.952618 7.45665 1.00111 6.96839 1.17961C6.48013 1.35812 6.04667 1.6605 5.71055 2.0571C5.37442 2.45369 5.14719 2.93086 5.05115 3.44178C4.9132 4.15991 5.04642 4.90368 5.42505 5.52928C5.78392 6.08762 5.98279 6.73368 6 7.39718V9.00008H3C2.73486 9.00035 2.48066 9.10579 2.29319 9.29327C2.10571 9.48075 2.00026 9.73495 2 10.0001V12.0001C2.00033 12.2652 2.10579 12.5194 2.29326 12.7068C2.48072 12.8943 2.73489 12.9998 3 13.0001V14.0001C3.00033 14.2652 3.10579 14.5194 3.29326 14.7068C3.48072 14.8943 3.73488 14.9998 4 15.0001H12C12.2651 14.9998 12.5193 14.8943 12.7067 14.7068C12.8942 14.5194 12.9997 14.2652 13 14.0001V13.0001C13.2651 12.9998 13.5193 12.8943 13.7067 12.7068C13.8942 12.5194 13.9997 12.2652 14 12.0001V10.0001C13.9997 9.73495 13.8943 9.48075 13.7068 9.29327C13.5193 9.10579 13.2651 9.00035 13 9.00008ZM6.035 3.62208C6.08874 3.33504 6.2047 3.06325 6.37472 2.82582C6.54474 2.58839 6.7647 2.39108 7.01914 2.24776C7.27358 2.10444 7.55633 2.01858 7.8475 1.99623C8.13867 1.97388 8.4312 2.01558 8.70454 2.11838C8.97787 2.22119 9.22537 2.38262 9.42964 2.59132C9.63391 2.80002 9.78999 3.05092 9.88691 3.3264C9.98383 3.60188 10.0192 3.89524 9.99064 4.18586C9.96205 4.47649 9.87015 4.75733 9.7214 5.00863C9.34972 5.61442 9.11485 6.29407 9.0332 7.00008H6.97C6.89124 6.2949 6.6562 5.61616 6.282 5.01328C6.03032 4.5961 5.94231 4.1004 6.035 3.62208ZM9 8.00008V9.00008H7V8.00008H9ZM12 14.0001H4V13.0001H12V14.0001ZM3 12.0001V10.0001H13V12.0001H3Z" fill="black"/>
</svg>
