<svg width="16" height="16" viewBox="0 0 16 16" fill="none" xmlns="http://www.w3.org/2000/svg">
<path fill-rule="evenodd" clip-rule="evenodd" d="M8.00001 1L10.2745 5.6085L14 6.15L13.8575 7.1405L10.1305 6.598L9.61051 6.5225L9.37751 6.051L8.00001 3.2595L6.62251 6.051L6.38951 6.5225L5.86951 6.598L2.78901 7.0455L5.01801 9.219L5.39451 9.5855L5.30551 10.104L4.77951 13.172L7.00001 12.0045V13.1345L3.45101 15L4.32001 9.935L0.640015 6.3475L5.72551 5.6085L8.00001 1ZM15 9H9.00002V10H15V9ZM9.00002 11H15V12H9.00002V11ZM9.00002 13H13V14H9.00002V13Z" fill="black"/>
</svg>
