<svg width="16" height="16" viewBox="0 0 16 16" fill="none" xmlns="http://www.w3.org/2000/svg">
<path fill-rule="evenodd" clip-rule="evenodd" d="M4.22215 11.1574C5.0444 11.7068 6.0111 12 7 12V13C5.81331 13 4.65328 12.6481 3.66658 11.9888C2.67989 11.3295 1.91085 10.3925 1.45673 9.2961C1.0026 8.19975 0.88378 6.99335 1.11529 5.82946C1.3468 4.66558 1.91825 3.59648 2.75736 2.75736C3.59648 1.91825 4.66558 1.3468 5.82946 1.11529C6.99335 0.88378 8.19975 1.0026 9.2961 1.45673C10.3925 1.91085 11.3295 2.67989 11.9888 3.66658C12.6481 4.65328 13 5.81331 13 7H12C12 6.0111 11.7068 5.0444 11.1574 4.22215C10.6079 3.39991 9.82705 2.75904 8.91342 2.3806C7.99979 2.00217 6.99446 1.90315 6.02455 2.09608C5.05465 2.289 4.16373 2.76521 3.46447 3.46447C2.76521 4.16373 2.289 5.05465 2.09608 6.02455C1.90315 6.99446 2.00217 7.99979 2.3806 8.91342C2.75904 9.82705 3.39991 10.6079 4.22215 11.1574ZM6 7.795L4.705 6.5L4 7.205L6 9.205L9.5 5.705L8.795 5L6 7.795ZM12 15C11.4067 15 10.8266 14.8241 10.3333 14.4944C9.83994 14.1648 9.45543 13.6962 9.22836 13.1481C9.0013 12.5999 8.94189 11.9967 9.05765 11.4147C9.1734 10.8328 9.45912 10.2982 9.87868 9.87868C10.2982 9.45912 10.8328 9.1734 11.4147 9.05765C11.9967 8.94189 12.5999 9.0013 13.1481 9.22836C13.6962 9.45543 14.1648 9.83994 14.4944 10.3333C14.8241 10.8266 15 11.4067 15 12C14.9991 12.7954 14.6828 13.5579 14.1203 14.1203C13.5579 14.6828 12.7954 14.9991 12 15ZM12 10C11.6044 10 11.2178 10.1173 10.8889 10.3371C10.56 10.5568 10.3036 10.8692 10.1522 11.2346C10.0009 11.6001 9.96126 12.0022 10.0384 12.3902C10.1156 12.7781 10.3061 13.1345 10.5858 13.4142C10.8655 13.6939 11.2219 13.8844 11.6098 13.9616C11.9978 14.0387 12.3999 13.9991 12.7654 13.8478C13.1308 13.6964 13.4432 13.44 13.6629 13.1111C13.8827 12.7822 14 12.3956 14 12C13.9994 11.4698 13.7885 10.9614 13.4136 10.5864C13.0386 10.2115 12.5303 10.0006 12 10Z" fill="black"/>
</svg>
