<svg width="16" height="16" viewBox="0 0 16 16" fill="none" xmlns="http://www.w3.org/2000/svg">
<path d="M3.5 15C3.00555 15 2.5222 14.8534 2.11108 14.5787C1.69995 14.304 1.37952 13.9135 1.1903 13.4567C1.00108 12.9999 0.951575 12.4972 1.04804 12.0123C1.1445 11.5273 1.3826 11.0819 1.73223 10.7322C2.08187 10.3826 2.52732 10.1445 3.01228 10.048C3.49723 9.95157 3.99989 10.0011 4.45671 10.1903C4.91352 10.3795 5.30397 10.7 5.57867 11.1111C5.85338 11.5222 6 12.0055 6 12.5C5.99925 13.1628 5.73561 13.7983 5.26693 14.2669C4.79826 14.7356 4.16281 14.9992 3.5 15ZM3.5 11C3.20333 11 2.91332 11.088 2.66665 11.2528C2.41997 11.4176 2.22771 11.6519 2.11418 11.926C2.00065 12.2001 1.97095 12.5017 2.02882 12.7926C2.0867 13.0836 2.22956 13.3509 2.43934 13.5607C2.64912 13.7704 2.91639 13.9133 3.20737 13.9712C3.49834 14.0291 3.79994 13.9994 4.07403 13.8858C4.34812 13.7723 4.58238 13.58 4.74721 13.3334C4.91203 13.0867 5 12.7967 5 12.5C4.99956 12.1023 4.84139 11.721 4.56018 11.4398C4.27897 11.1586 3.89769 11.0004 3.5 11Z" fill="black"/>
<path d="M11.5 15C11.0055 15 10.5222 14.8534 10.1111 14.5787C9.69995 14.304 9.37952 13.9135 9.1903 13.4567C9.00108 12.9999 8.95157 12.4972 9.04804 12.0123C9.1445 11.5273 9.3826 11.0819 9.73223 10.7322C10.0819 10.3826 10.5273 10.1445 11.0123 10.048C11.4972 9.95157 11.9999 10.0011 12.4567 10.1903C12.9135 10.3795 13.304 10.7 13.5787 11.1111C13.8534 11.5222 14 12.0055 14 12.5C13.9992 13.1628 13.7356 13.7983 13.2669 14.2669C12.7983 14.7356 12.1628 14.9992 11.5 15ZM11.5 11C11.2033 11 10.9133 11.088 10.6666 11.2528C10.42 11.4176 10.2277 11.6519 10.1142 11.926C10.0007 12.2001 9.97095 12.5017 10.0288 12.7926C10.0867 13.0836 10.2296 13.3509 10.4393 13.5607C10.6491 13.7704 10.9164 13.9133 11.2074 13.9712C11.4983 14.0291 11.7999 13.9994 12.074 13.8858C12.3481 13.7723 12.5824 13.58 12.7472 13.3334C12.912 13.0867 13 12.7967 13 12.5C12.9996 12.1023 12.8414 11.721 12.5602 11.4398C12.279 11.1586 11.8977 11.0004 11.5 11Z" fill="black"/>
<path d="M12 3.5V7L13.7929 5.29295L14.5 6L11.5 9L8.5 6L9.20705 5.29295L11 7V3.5C10.9999 3.36743 10.9472 3.24032 10.8534 3.14658C10.7597 3.05284 10.6326 3.00012 10.5 3H4.5C4.36742 3.00008 4.24029 3.05278 4.14653 3.14653C4.05278 3.24029 4.00008 3.36742 4 3.5V9H3V3.5C3.00044 3.10231 3.15861 2.72103 3.43982 2.43982C3.72103 2.15861 4.10231 2.00044 4.5 2H10.5C10.8977 2.00044 11.279 2.15861 11.5602 2.43982C11.8414 2.72103 11.9996 3.10231 12 3.5Z" fill="black"/>
</svg>
