<svg width="16" height="16" viewBox="0 0 16 16" fill="none" xmlns="http://www.w3.org/2000/svg">
<path fill-rule="evenodd" clip-rule="evenodd" d="M14 8H15C15 6.14348 14.2625 4.36301 12.9497 3.05025C11.637 1.7375 9.85652 1 8 1C6.14348 1 4.36301 1.7375 3.05025 3.05025C1.7375 4.36301 1 6.14348 1 8H2C2 6.4087 2.63214 4.88258 3.75736 3.75736C4.88258 2.63214 6.4087 2 8 2C9.5913 2 11.1174 2.63214 12.2426 3.75736C13.3679 4.88258 14 6.4087 14 8ZM8.5 9.5V4H7.5V9.5H8.5ZM2.3823 10.0918L1.4435 10.4336C1.72553 11.1963 2.13853 11.9039 2.6639 12.5246L3.42965 11.8821C2.97902 11.3508 2.62458 10.745 2.3823 10.0918ZM12.5703 11.8821L13.3361 12.5246C13.8615 11.9039 14.2745 11.1963 14.5565 10.4336L13.6177 10.0918C13.3754 10.745 13.021 11.3508 12.5703 11.8821ZM9 13.9052L9.2064 14.8891C10.0053 14.7508 10.7738 14.4737 11.4771 14.0702L11 13.2046C10.378 13.5501 9.70164 13.787 9 13.9052ZM4.5 14.0702L5 13.2046C5.61032 13.55 6.27583 13.7871 6.96705 13.9055L6.7936 14.8893C5.98744 14.751 5.2114 14.4739 4.5 14.0702ZM7.58332 11.1264C7.70666 11.044 7.85166 11 8 11C8.19891 11 8.38968 11.079 8.53033 11.2197C8.67098 11.3603 8.75 11.5511 8.75 11.75C8.75 11.8983 8.70601 12.0433 8.6236 12.1667C8.54119 12.29 8.42406 12.3861 8.28701 12.4429C8.14997 12.4997 7.99917 12.5145 7.85368 12.4856C7.7082 12.4566 7.57456 12.3852 7.46967 12.2803C7.36478 12.1754 7.29335 12.0418 7.26441 11.8963C7.23547 11.7508 7.25033 11.6 7.30709 11.463C7.36386 11.3259 7.45999 11.2088 7.58332 11.1264Z" fill="black"/>
</svg>
