<svg width="16" height="16" viewBox="0 0 16 16" fill="none" xmlns="http://www.w3.org/2000/svg">
<path fill-rule="evenodd" clip-rule="evenodd" d="M2.81973 11.3004C3.66882 12.1277 4.74409 12.6847 5.90965 12.9011L6.09035 11.9175C5.11791 11.7374 4.22069 11.2731 3.51212 10.5832C2.80356 9.89331 2.31548 9.00878 2.10959 8.04149C1.90371 7.0742 1.98928 6.06758 2.35546 5.14892C2.72165 4.23025 3.35202 3.4408 4.16687 2.88038C4.98171 2.31995 5.94443 2.01374 6.9333 2.00044C7.92217 1.98714 8.89278 2.26736 9.72239 2.80567C10.552 3.34398 11.2034 4.1162 11.5941 5.02468C11.9849 5.93317 12.0975 6.93713 11.9177 7.9096L12.9011 8.0903C13.1155 6.92439 12.9795 5.72107 12.5103 4.63242C12.0411 3.54377 11.2596 2.61864 10.2648 1.97395C9.26995 1.32925 8.10633 0.993925 6.92097 1.01034C5.73561 1.02676 4.58172 1.39418 3.60511 2.06617C2.6285 2.73817 1.87301 3.68458 1.4341 4.78581C0.99519 5.88703 0.892565 7.09365 1.13919 8.25319C1.38582 9.41272 1.97063 10.4731 2.81973 11.3004ZM6 7.795L4.705 6.5L4 7.205L6 9.205L9.5 5.705L8.795 5L6 7.795ZM10.5 14.207L8 11.7065L8.7065 11L10.5 12.793L14.2925 9L15 9.7075L10.5 14.207Z" fill="black"/>
</svg>
