<svg width="16" height="16" viewBox="0 0 16 16" fill="none" xmlns="http://www.w3.org/2000/svg">
<path fill-rule="evenodd" clip-rule="evenodd" d="M14 15H15V7.00003C15 6.92737 14.9842 6.85558 14.9536 6.78966C14.923 6.72374 14.8785 6.66527 14.823 6.61833L8.323 1.11833C8.23272 1.04193 8.11827 1 8 1C7.88173 1 7.76728 1.04193 7.677 1.11833L1.177 6.61833C1.12153 6.66527 1.07696 6.72374 1.0464 6.78966C1.01583 6.85558 0.999995 6.92737 1 7.00003V15H2V7.23198L8 2.15503L14 7.23198V15ZM8 6.5C8.29667 6.5 8.58668 6.58797 8.83336 6.7528C9.08003 6.91762 9.27229 7.15189 9.38582 7.42597C9.49935 7.70006 9.52906 8.00166 9.47118 8.29264C9.4133 8.58361 9.27044 8.85088 9.06066 9.06066C8.85088 9.27044 8.58361 9.4133 8.29264 9.47118C8.00167 9.52906 7.70007 9.49935 7.42598 9.38582C7.15189 9.27229 6.91762 9.08003 6.7528 8.83335C6.58797 8.58668 6.5 8.29667 6.5 8C6.5 7.60218 6.65804 7.22064 6.93934 6.93934C7.22065 6.65803 7.60218 6.5 8 6.5ZM8 5.5C7.50555 5.5 7.0222 5.64662 6.61108 5.92133C6.19995 6.19603 5.87952 6.58648 5.6903 7.04329C5.50108 7.50011 5.45157 8.00277 5.54804 8.48773C5.6445 8.97268 5.8826 9.41814 6.23223 9.76777C6.58187 10.1174 7.02732 10.3555 7.51228 10.452C7.99723 10.5484 8.49989 10.4989 8.95671 10.3097C9.41353 10.1205 9.80397 9.80005 10.0787 9.38893C10.3534 8.9778 10.5 8.49445 10.5 8C10.5 7.33696 10.2366 6.70107 9.76777 6.23223C9.29893 5.76339 8.66304 5.5 8 5.5ZM11.5 15H10.5V14C10.4996 13.6023 10.3414 13.221 10.0602 12.9398C9.77897 12.6586 9.39769 12.5004 9 12.5H7C6.60231 12.5004 6.22103 12.6586 5.93982 12.9398C5.65861 13.221 5.50044 13.6023 5.5 14V15H4.5V14C4.50078 13.3372 4.76442 12.7018 5.2331 12.2331C5.70177 11.7644 6.3372 11.5008 7 11.5H9C9.6628 11.5008 10.2982 11.7644 10.7669 12.2331C11.2356 12.7018 11.4992 13.3372 11.5 14V15Z" fill="black"/>
</svg>
