<svg width="16" height="16" viewBox="0 0 16 16" fill="none" xmlns="http://www.w3.org/2000/svg">
<path fill-rule="evenodd" clip-rule="evenodd" d="M4.11101 2.17971C5.26216 1.41054 6.61553 1 8 1C9.85652 1 11.637 1.7375 12.9497 3.05025C14.2625 4.36301 15 6.14348 15 8C15 9.38447 14.5895 10.7378 13.8203 11.889C13.0511 13.0401 11.9579 13.9373 10.6788 14.4672C9.3997 14.997 7.99224 15.1356 6.63437 14.8655C5.2765 14.5954 4.02922 13.9287 3.05026 12.9497C2.07129 11.9708 1.4046 10.7235 1.13451 9.36563C0.86441 8.00776 1.00303 6.6003 1.53285 5.32122C2.06266 4.04213 2.95987 2.94888 4.11101 2.17971ZM10.7071 10.7071C10.8946 10.5196 11 10.2652 11 10V6C11 5.73478 10.8946 5.48043 10.7071 5.29289C10.5196 5.10536 10.2652 5 10 5H6C5.73479 5 5.48043 5.10536 5.2929 5.29289C5.10536 5.48043 5 5.73478 5 6V10C5 10.2652 5.10536 10.5196 5.2929 10.7071C5.48043 10.8946 5.73479 11 6 11H10C10.2652 11 10.5196 10.8946 10.7071 10.7071ZM6 6H10V10H6V6Z" fill="black"/>
</svg>
