<svg width="16" height="16" viewBox="0 0 16 16" fill="none" xmlns="http://www.w3.org/2000/svg">
<path fill-rule="evenodd" clip-rule="evenodd" d="M2 4H3.5V3H2C1.73502 3.00078 1.48112 3.10638 1.29375 3.29375C1.10638 3.48112 1.00078 3.73502 1 4V5.5H2V4ZM2 10.5H1V12C1.00078 12.265 1.10638 12.5189 1.29375 12.7062C1.48112 12.8936 1.73502 12.9992 2 13H3.5V12H2V10.5ZM8.5 3H11.5V4H8.5V3ZM7.5 3H4.5V4H7.5V3ZM8.5 12H11.5V13H8.5V12ZM14 7.5H2V6.5H1V9.5H2V8.5H14V9.5H15V6.5H14V7.5ZM12.5 12H14V10.5H15V12C14.9992 12.265 14.8936 12.5189 14.7062 12.7062C14.5189 12.8936 14.265 12.9992 14 13H12.5V12ZM14 3H12.5V4H14V5.5H15V4C14.9992 3.73502 14.8936 3.48112 14.7062 3.29375C14.5189 3.10638 14.265 3.00078 14 3ZM4.5 12H7.5V13H4.5V12ZM3.5 6.5C3.77614 6.5 4 6.27614 4 6C4 5.72386 3.77614 5.5 3.5 5.5C3.22386 5.5 3 5.72386 3 6C3 6.27614 3.22386 6.5 3.5 6.5ZM4 10C4 10.2761 3.77614 10.5 3.5 10.5C3.22386 10.5 3 10.2761 3 10C3 9.72386 3.22386 9.5 3.5 9.5C3.77614 9.5 4 9.72386 4 10Z" fill="black"/>
</svg>
