<svg width="16" height="16" viewBox="0 0 16 16" fill="none" xmlns="http://www.w3.org/2000/svg">
<path d="M8.00001 1C7.8873 0.99998 7.77788 1.03805 7.68952 1.10802C7.60115 1.178 7.53903 1.27578 7.51321 1.3855L6.65176 5.04665C5.60765 4.90335 4.54489 5.09145 3.61339 5.58443C2.68189 6.07741 1.92866 6.85038 1.45994 7.79431C0.991222 8.73825 0.830668 9.80552 1.00092 10.8456C1.17118 11.8856 1.66366 12.846 2.40889 13.5912C3.15412 14.3364 4.1145 14.8289 5.15457 14.9991C6.19463 15.1694 7.2619 15.0088 8.20582 14.54C9.14975 14.0713 9.9227 13.318 10.4157 12.3865C10.9086 11.455 11.0967 10.3923 10.9534 9.34815L14.6145 8.4868C14.7242 8.46099 14.822 8.39886 14.892 8.3105C14.962 8.22213 15 8.11272 15 8C14.9979 6.14413 14.2598 4.36486 12.9475 3.05256C11.6352 1.74026 9.85589 1.00209 8.00001 1ZM5.64651 10.3535C5.74026 10.4473 5.86742 10.5 6.00001 10.5C6.03856 10.5 6.07697 10.4955 6.11451 10.4868L7.99561 10.0442C7.9873 10.4357 7.86414 10.8161 7.64144 11.1381C7.41875 11.4602 7.10633 11.7097 6.74301 11.8557C6.37969 12.0017 5.98149 12.0377 5.59787 11.9593C5.21425 11.8808 4.86214 11.6914 4.58527 11.4145C4.3084 11.1377 4.11898 10.7856 4.04055 10.4019C3.96213 10.0183 3.99815 9.62012 4.14413 9.2568C4.29012 8.89348 4.53965 8.58107 4.8617 8.35837C5.18376 8.13568 5.56415 8.01252 5.95561 8.0042L5.51301 9.8853C5.49353 9.96825 5.49556 10.0548 5.51893 10.1367C5.54229 10.2187 5.58621 10.2933 5.64651 10.3535ZM6.67151 9.3281L7.80701 4.5031C8.78077 4.51879 9.71025 4.91259 10.3989 5.60123C11.0875 6.28987 11.4813 7.21934 11.497 8.1931L6.67151 9.3281ZM10 10C10 10.7911 9.76542 11.5645 9.32589 12.2223C8.88637 12.8801 8.26165 13.3928 7.53075 13.6955C6.79984 13.9983 5.99558 14.0775 5.21965 13.9231C4.44373 13.7688 3.731 13.3878 3.17159 12.8284C2.61218 12.269 2.23121 11.5563 2.07687 10.7804C1.92253 10.0044 2.00175 9.20017 2.3045 8.46927C2.60725 7.73836 3.11994 7.11365 3.77773 6.67412C4.43553 6.2346 5.20889 6 6.00001 6C6.14096 6.00047 6.28178 6.0083 6.42191 6.02345L6.19001 7.0095C6.12661 7.00535 6.06351 7 6.00001 7C5.40667 7 4.82665 7.17595 4.3333 7.50559C3.83996 7.83524 3.45544 8.30377 3.22838 8.85195C3.00131 9.40013 2.9419 10.0033 3.05766 10.5853C3.17341 11.1672 3.45914 11.7018 3.87869 12.1213C4.29825 12.5409 4.8328 12.8266 5.41474 12.9424C5.99669 13.0581 6.59989 12.9987 7.14806 12.7716C7.69624 12.5446 8.16478 12.1601 8.49442 11.6667C8.82407 11.1734 9.00001 10.5933 9.00001 10C9.00001 9.9365 8.99451 9.8733 8.99051 9.81L9.97656 9.57785C9.99172 9.71806 9.99955 9.85897 10 10ZM12.4854 7.96045C12.4137 6.80485 11.9223 5.71525 11.1036 4.89653C10.2849 4.07781 9.19527 3.58638 8.03966 3.51465L8.39306 2.0127C9.84473 2.11001 11.2118 2.73064 12.2406 3.75943C13.2694 4.78821 13.89 6.15529 13.9873 7.60695L12.4854 7.96045Z" fill="black"/>
</svg>
