<svg width="16" height="16" viewBox="0 0 16 16" fill="none" xmlns="http://www.w3.org/2000/svg">
<path d="M15 5.34007L14 2.34007C13.9652 2.23658 13.8975 2.14732 13.8072 2.08593C13.7169 2.02453 13.609 1.99438 13.5 2.00007H2.49997C2.39094 1.99438 2.28304 2.02453 2.19275 2.08593C2.10247 2.14732 2.03476 2.23658 1.99997 2.34007L0.999971 5.34007C0.992767 5.39316 0.992767 5.44698 0.999971 5.50007V8.50007C0.999971 8.63268 1.05265 8.75986 1.14642 8.85362C1.24019 8.94739 1.36736 9.00007 1.49997 9.00007H1.99997V14.0001H2.99997V9.00007H5.99997V14.0001H14V9.00007H14.5C14.6326 9.00007 14.7598 8.94739 14.8535 8.85362C14.9473 8.75986 15 8.63268 15 8.50007V5.50007C15.0072 5.44698 15.0072 5.39316 15 5.34007ZM13 13.0001H6.99997V9.00007H13V13.0001ZM14 8.00007H12V6.00007H11V8.00007H8.49997V6.00007H7.49997V8.00007H4.99997V6.00007H3.99997V8.00007H1.99997V5.58007L2.85997 3.00007H13.14L14 5.58007V8.00007Z" fill="black"/>
</svg>
