<svg width="16" height="16" viewBox="0 0 16 16" fill="none" xmlns="http://www.w3.org/2000/svg">
<path fill-rule="evenodd" clip-rule="evenodd" d="M11 3.5H13V2.5H11C10.7349 2.49972 10.4807 2.39428 10.2932 2.2068C10.1058 2.01932 10.0003 1.76513 10 1.5V1H9.00003V1.5C9.00062 2.03025 9.21153 2.53861 9.58647 2.91356C9.96141 3.2885 10.4698 3.4994 11 3.5ZM4.50003 14.0001C4.37552 14 4.25118 13.991 4.12798 13.9731C3.52866 13.8732 2.9848 13.5623 2.59457 13.0966C2.20435 12.6309 1.99348 12.0411 2.00003 11.4335V5.59931C1.99331 4.71867 2.31137 3.86644 2.8934 3.20552C3.47543 2.5446 4.2806 2.12134 5.15503 2.01666C5.9382 1.93753 6.72507 2.12623 7.38718 2.55196L11.3716 5.04231C11.8985 5.37457 12.3269 5.84181 12.6123 6.39553C12.8976 6.94925 13.0296 7.56925 12.9945 8.19119C12.9594 8.81313 12.7584 9.41433 12.4125 9.93239C12.0666 10.4505 11.5883 10.8665 11.0273 11.1373L5.58733 13.7516C5.24837 13.9156 4.87659 14.0006 4.50003 14.0001ZM5.50103 3.00006C5.41823 3.00006 5.33481 3.00407 5.25078 3.01211C4.6232 3.09131 4.04678 3.39889 3.63161 3.87613C3.21644 4.35337 2.99159 4.96681 3.00003 5.59931V11.4335C2.99243 11.8011 3.1164 12.1592 3.34959 12.4434C3.58277 12.7276 3.90983 12.9192 4.27178 12.9835C4.57211 13.0288 4.87912 12.9826 5.15288 12.8511L10.5943 10.2361C10.9942 10.0426 11.3351 9.74563 11.5816 9.37602C11.8281 9.00641 11.9712 8.57759 11.9961 8.13402C12.0211 7.69046 11.9269 7.2483 11.7233 6.8534C11.5198 6.4585 11.2143 6.12523 10.8386 5.88816L6.85233 3.39681C6.44959 3.13698 5.9803 2.99919 5.50103 3.00006ZM5.50003 5H4.50003V6H5.50003V5ZM5.50003 7H4.50003V8H5.50003V7ZM6.50003 6H7.50003V7H6.50003V6Z" fill="black"/>
</svg>
