<svg width="16" height="16" viewBox="0 0 16 16" fill="none" xmlns="http://www.w3.org/2000/svg">
<path fill-rule="evenodd" clip-rule="evenodd" d="M11.3889 2.42133C10.9778 2.14662 10.4945 2 10 2C9.33696 2 8.70108 2.26339 8.23223 2.73223C7.76339 3.20107 7.5 3.83696 7.5 4.5C7.5 4.99445 7.64662 5.4778 7.92133 5.88893C8.19603 6.30005 8.58648 6.62048 9.04329 6.8097C9.50011 6.99892 10.0028 7.04843 10.4877 6.95196C10.9727 6.8555 11.4181 6.6174 11.7678 6.26777C12.1174 5.91814 12.3555 5.47268 12.452 4.98773C12.5484 4.50277 12.4989 4.00011 12.3097 3.54329C12.1205 3.08648 11.8 2.69603 11.3889 2.42133ZM8.05551 1.58986C8.63108 1.20527 9.30777 1 10 1C10.9283 1 11.8185 1.36875 12.4749 2.02513C13.1313 2.6815 13.5 3.57174 13.5 4.5C13.5 5.19223 13.2947 5.86892 12.9101 6.4445C12.5256 7.02007 11.9789 7.46867 11.3394 7.73358C10.6999 7.99848 9.99612 8.0678 9.31718 7.93275C8.63825 7.7977 8.01461 7.46436 7.52513 6.97487C7.03564 6.48539 6.7023 5.86175 6.56725 5.18282C6.4322 4.50388 6.50152 3.80015 6.76642 3.16061C7.03133 2.52107 7.47993 1.97444 8.05551 1.58986ZM14 15H15V12.5C15 11.5717 14.6313 10.6815 13.9749 10.0251C13.3185 9.36875 12.4283 9 11.5 9H8.5C7.57174 9 6.6815 9.36875 6.02513 10.0251C5.36875 10.6815 5 11.5717 5 12.5V15H6V12.5C6 11.837 6.26339 11.2011 6.73223 10.7322C7.20107 10.2634 7.83696 10 8.5 10H11.5C12.163 10 12.7989 10.2634 13.2678 10.7322C13.7366 11.2011 14 11.837 14 12.5V15ZM5.5 4H2.5C2.10218 4 1.72064 3.84196 1.43934 3.56066C1.15804 3.27936 1 2.89782 1 2.5V1.5H2V2.5C2 2.63261 2.05268 2.75979 2.14645 2.85355C2.24021 2.94732 2.36739 3 2.5 3H5.5V4ZM1 7.5H2V6.5C2 6.36739 2.05268 6.24021 2.14645 6.14645C2.24021 6.05268 2.36739 6 2.5 6H5.5V5H2.5C2.10218 5 1.72064 5.15804 1.43934 5.43934C1.15804 5.72064 1 6.10218 1 6.5V7.5Z" fill="black"/>
</svg>
