<svg width="16" height="16" viewBox="0 0 16 16" fill="none" xmlns="http://www.w3.org/2000/svg">
<path fill-rule="evenodd" clip-rule="evenodd" d="M9 6H7V4H6V11H9C9.26511 10.9996 9.51925 10.8942 9.70671 10.7067C9.89417 10.5193 9.99964 10.2651 10 10V7C9.9997 6.73488 9.89424 6.4807 9.70677 6.29323C9.5193 6.10576 9.26512 6.0003 9 6ZM7 10V7H9V10H7ZM14.5 11H12C11.7349 10.9996 11.4807 10.8942 11.2933 10.7067C11.1058 10.5193 11.0004 10.2651 11 10V7C11.0003 6.73488 11.1058 6.4807 11.2932 6.29323C11.4807 6.10576 11.7349 6.0003 12 6H14.5V7H12V10H14.5V11ZM1.5 6H4C4.26512 6.0003 4.5193 6.10576 4.70677 6.29323C4.89424 6.4807 4.9997 6.73488 5 7V11H2C1.73478 11 1.48043 10.8946 1.29289 10.7071C1.10536 10.5196 1 10.2652 1 10V9C1 8.73478 1.10536 8.48043 1.29289 8.29289C1.48043 8.10536 1.73478 8 2 8H4V7H1.5V6ZM2 10H4V9H2V10Z" fill="black"/>
</svg>
