<svg width="16" height="16" viewBox="0 0 16 16" fill="none" xmlns="http://www.w3.org/2000/svg">
<path fill-rule="evenodd" clip-rule="evenodd" d="M4 6V10H5V11H2V10H3V7.5H2V6.5H3V6H4ZM9.5 11H6.5V9C6.50026 8.73486 6.60571 8.48066 6.79319 8.29319C6.98066 8.10571 7.23486 8.00026 7.5 8H8.5V7H6.5V6H8.5C8.76512 6.0003 9.0193 6.10576 9.20677 6.29323C9.39424 6.4807 9.4997 6.73488 9.5 7V8C9.4997 8.26512 9.39424 8.5193 9.20677 8.70677C9.0193 8.89424 8.76512 8.9997 8.5 9H7.5V10H9.5V11ZM13 6H11V7H13V8H11.5V9H13V10H11V11H13C13.2651 10.9996 13.5193 10.8942 13.7067 10.7067C13.8942 10.5193 13.9996 10.2651 14 10V7C13.9997 6.73488 13.8942 6.4807 13.7068 6.29323C13.5193 6.10576 13.2651 6.0003 13 6Z" fill="black"/>
</svg>
