<svg width="16" height="16" viewBox="0 0 16 16" fill="none" xmlns="http://www.w3.org/2000/svg">
<path fill-rule="evenodd" clip-rule="evenodd" d="M2 12H6.5V13H2C1.73478 13 1.48043 12.8946 1.29289 12.7071C1.10536 12.5196 1 12.2652 1 12V2C1 1.73478 1.10536 1.48043 1.29289 1.29289C1.48043 1.10536 1.73478 1 2 1H12C12.2652 1 12.5196 1.10536 12.7071 1.29289C12.8946 1.48043 13 1.73478 13 2V8H12V2H2V12ZM10 7V6H7.5V5H9V4H7.5V3H6.5V4H5V5H6.5V6H4V7H6.5V8H4V9H6.5V10H5V11H7.5V9H9V8H7.5V7H10ZM10.5 14.707L8 12.2065L8.7065 11.5L10.5 13.293L14.2925 9.5L15 10.2075L10.5 14.707Z" fill="black"/>
</svg>
