<svg width="16" height="16" viewBox="0 0 16 16" fill="none" xmlns="http://www.w3.org/2000/svg">
<path fill-rule="evenodd" clip-rule="evenodd" d="M14 12H9.5V13H14C14.2652 13 14.5196 12.8946 14.7071 12.7071C14.8946 12.5196 15 12.2652 15 12V2C15 1.73478 14.8946 1.48043 14.7071 1.29289C14.5196 1.10536 14.2652 1 14 1H4C3.73478 1 3.48043 1.10536 3.29289 1.29289C3.10536 1.48043 3 1.73478 3 2V8H4V2H14V12ZM6 7V6H8.5V5H7V4H8.5V3H9.5V4H11V5H9.5V6H12V7H9.5V8H12V9H9.5V10H11V11H8.5V9H7V8H8.5V7H6ZM3.5825 12L1.293 9.707L2 9L5 12L2 15L1.293 14.293L3.5825 12ZM6.5825 12L4.293 9.707L5 9L8 12L5 15L4.293 14.293L6.5825 12Z" fill="black"/>
</svg>
