<svg width="16" height="16" viewBox="0 0 16 16" fill="none" xmlns="http://www.w3.org/2000/svg">
<path fill-rule="evenodd" clip-rule="evenodd" d="M11 4.50011H13.6C12.9516 3.51082 12.0015 2.75692 10.8908 2.35028C9.78006 1.94363 8.56782 1.90591 7.43394 2.2427C6.30006 2.5795 5.30497 3.27287 4.59632 4.21993C3.88767 5.16699 3.50321 6.31727 3.5 7.50011H2.5C2.50068 6.16371 2.91327 4.85999 3.68158 3.76652C4.44988 2.67305 5.53656 1.84298 6.79362 1.38935C8.05067 0.935714 9.417 0.880573 10.7065 1.23144C11.996 1.5823 13.1461 2.32211 14 3.35011V1.50011H15V5.50011H11V4.50011ZM8 6C8.29667 6 8.58668 6.08797 8.83336 6.2528C9.08003 6.41762 9.27229 6.65189 9.38582 6.92597C9.49935 7.20006 9.52906 7.50166 9.47118 7.79263C9.4133 8.08361 9.27044 8.35088 9.06066 8.56066C8.85088 8.77044 8.58361 8.9133 8.29264 8.97118C8.00167 9.02906 7.70007 8.99935 7.42598 8.88582C7.15189 8.77229 6.91762 8.58003 6.7528 8.33335C6.58797 8.08668 6.5 7.79667 6.5 7.5C6.49662 7.30208 6.5331 7.10551 6.60729 6.922C6.68147 6.73848 6.79184 6.57177 6.9318 6.4318C7.07177 6.29183 7.23848 6.18147 7.422 6.10729C7.60551 6.0331 7.80209 5.99662 8 6ZM8 5C7.50555 5 7.0222 5.14662 6.61108 5.42133C6.19995 5.69603 5.87952 6.08648 5.6903 6.54329C5.50108 7.00011 5.45157 7.50277 5.54804 7.98773C5.6445 8.47268 5.8826 8.91814 6.23223 9.26777C6.58187 9.6174 7.02732 9.8555 7.51228 9.95196C7.99723 10.0484 8.49989 9.99892 8.95671 9.8097C9.41353 9.62048 9.80397 9.30005 10.0787 8.88893C10.3534 8.4778 10.5 7.99445 10.5 7.5C10.5 6.83696 10.2366 6.20107 9.76777 5.73223C9.29893 5.26339 8.66304 5 8 5ZM10.5 13.5V15H11.5V13.5C11.5 13.1717 11.4353 12.8466 11.3097 12.5433C11.1841 12.24 10.9999 11.9644 10.7678 11.7322C10.5356 11.5001 10.26 11.3159 9.95671 11.1903C9.65339 11.0647 9.3283 11 9 11H7C6.33696 11 5.70107 11.2634 5.23223 11.7322C4.76339 12.2011 4.5 12.837 4.5 13.5V15H5.5V13.5C5.5 13.1022 5.65804 12.7206 5.93934 12.4393C6.22064 12.158 6.60218 12 7 12H9C9.39782 12 9.77936 12.158 10.0607 12.4393C10.342 12.7206 10.5 13.1022 10.5 13.5Z" fill="black"/>
</svg>
