<svg width="16" height="16" viewBox="0 0 16 16" fill="none" xmlns="http://www.w3.org/2000/svg">
<path fill-rule="evenodd" clip-rule="evenodd" d="M14 10H12.5V9H14V2H7V3.5H6V2C6.00026 1.73486 6.10571 1.48066 6.29319 1.29319C6.48066 1.10571 6.73486 1.00026 7 1H14C14.2651 1.0003 14.5193 1.10576 14.7068 1.29323C14.8942 1.4807 14.9997 1.73488 15 2V9C14.9996 9.26511 14.8942 9.51925 14.7067 9.70671C14.5193 9.89417 14.2651 9.99964 14 10ZM8.5 11V10H6.5V9H8V8H6.5V7H5.5V8H4V9H5.5V10H3.5V11H5.5V12H4V13H8V12H6.5V11H8.5ZM2 15H10C10.2651 14.9997 10.5193 14.8943 10.7068 14.7068C10.8943 14.5193 10.9997 14.2651 11 14V6C10.9997 5.73487 10.8943 5.48068 10.7068 5.2932C10.5193 5.10572 10.2651 5.00028 10 5H2C1.73487 5.00028 1.48068 5.10572 1.2932 5.2932C1.10572 5.48068 1.00028 5.73487 1 6V14C1.00028 14.2651 1.10572 14.5193 1.2932 14.7068C1.48068 14.8943 1.73487 14.9997 2 15ZM2 14V6H10V14H2Z" fill="black"/>
</svg>
