<svg width="16" height="16" viewBox="0 0 16 16" fill="none" xmlns="http://www.w3.org/2000/svg">
<path d="M14.7371 9.55999L11.8404 7.99999L14.7371 6.43999C14.8165 6.39718 14.8829 6.33365 14.9292 6.25616C14.9755 6.17866 14.9999 6.09008 14.9999 5.99982C14.9999 5.90956 14.9755 5.82098 14.9292 5.74348C14.8829 5.66598 14.8165 5.60246 14.7371 5.55964L8.23706 2.05964C8.16423 2.02034 8.08277 1.99976 8.00001 1.99976C7.91725 1.99976 7.83579 2.02034 7.76296 2.05964L1.26296 5.55964C1.1835 5.60246 1.11711 5.66598 1.07083 5.74348C1.02456 5.82098 1.00012 5.90956 1.00012 5.99982C1.00012 6.09008 1.02456 6.17866 1.07083 6.25616C1.11711 6.33365 1.1835 6.39718 1.26296 6.43999L4.15966 7.99999L1.26296 9.55999C1.1835 9.60281 1.11711 9.66633 1.07083 9.74383C1.02456 9.82133 1.00012 9.90991 1.00012 10.0002C1.00012 10.0904 1.02456 10.179 1.07083 10.2565C1.11711 10.334 1.1835 10.3975 1.26296 10.4403L7.76296 13.9403C7.83581 13.9796 7.91726 14.0001 8.00001 14.0001C8.08276 14.0001 8.16421 13.9796 8.23706 13.9403L14.7371 10.4403C14.8165 10.3975 14.8829 10.334 14.9292 10.2565C14.9755 10.179 14.9999 10.0904 14.9999 10.0002C14.9999 9.90991 14.9755 9.82133 14.9292 9.74383C14.8829 9.66633 14.8165 9.60281 14.7371 9.55999ZM8.00001 3.06794L13.4453 5.99999L8.00001 8.93214L2.55471 5.99999L8.00001 3.06794ZM8.00001 12.9321L2.55471 9.99999L5.21436 8.56789L7.76296 9.93999C7.83581 9.97924 7.91726 9.99979 8.00001 9.99979C8.08276 9.99979 8.16421 9.97924 8.23706 9.93999L10.7857 8.56769L13.4453 9.99999L8.00001 12.9321Z" fill="black"/>
</svg>
