<svg width="16" height="16" viewBox="0 0 16 16" fill="none" xmlns="http://www.w3.org/2000/svg">
<path fill-rule="evenodd" clip-rule="evenodd" d="M13.7442 6.26172C13.914 6.82548 14.0002 7.4111 14 7.99987H15C15.0001 7.31319 14.8996 6.6302 14.7016 5.97267L13.7442 6.26172ZM11.6873 3.26622C12.1736 3.64548 12.5989 4.09716 12.9482 4.60547L13.7722 4.03882C13.3649 3.44644 12.8692 2.92002 12.3022 2.47792L11.6873 3.26622ZM4.23045 2.10057L4.76955 2.94287C5.28836 2.61027 5.85565 2.36018 6.45115 2.20152L6.19385 1.23522C5.49857 1.42042 4.83623 1.71234 4.23045 2.10057ZM8.2805 2.00632C8.89616 2.03403 9.5038 2.15699 10.0818 2.37082L10.4289 1.43312C9.7543 1.18345 9.04503 1.03981 8.3264 1.00732L8.2805 2.00632ZM13 8.50004L12.2929 9.20709L13.0859 10H7.90785C7.87257 9.89939 7.8266 9.8028 7.77075 9.71194L10.0112 6.91144C10.168 6.96823 10.3333 6.99818 10.5 7.00004C10.7753 7.00121 11.0455 6.92661 11.2812 6.78441C11.5169 6.64221 11.709 6.4379 11.8363 6.19384C11.9636 5.94979 12.0213 5.67541 12.0031 5.40074C11.9848 5.12608 11.8914 4.86173 11.7329 4.63663C11.5745 4.41154 11.3572 4.23439 11.1047 4.12458C10.8523 4.01477 10.5746 3.97653 10.3019 4.01406C10.0292 4.05159 9.77206 4.16343 9.55868 4.33734C9.34531 4.51125 9.18391 4.74052 9.09215 5.00004H6.90785C6.80596 4.70787 6.6157 4.45464 6.36344 4.27545C6.11118 4.09627 5.80942 4 5.5 4C5.19058 4 4.88882 4.09627 4.63656 4.27545C4.3843 4.45464 4.19404 4.70787 4.09215 5.00004H1V6.00004H4.09215C4.19404 6.29221 4.3843 6.54544 4.63656 6.72463C4.88882 6.90382 5.19058 7.00008 5.5 7.00008C5.80942 7.00008 6.11118 6.90382 6.36344 6.72463C6.6157 6.54544 6.80596 6.29221 6.90785 6.00004H9.09215C9.12743 6.1007 9.1734 6.19728 9.22925 6.28814L6.98875 9.08864C6.83197 9.03186 6.66674 9.0019 6.5 9.00004C6.22473 8.99888 5.95446 9.07348 5.71876 9.21568C5.48307 9.35787 5.29105 9.56219 5.16373 9.80624C5.03641 10.0503 4.97871 10.3247 4.99693 10.5993C5.01516 10.874 5.10861 11.1384 5.26706 11.3635C5.42551 11.5885 5.64284 11.7657 5.89526 11.8755C6.14767 11.9853 6.42544 12.0236 6.69813 11.986C6.97083 11.9485 7.22794 11.8367 7.44132 11.6627C7.65469 11.4888 7.81609 11.2596 7.90785 11H13.0859L12.2929 11.793L13 12.5L15 10.5L13 8.50004ZM10.5 5.00004C10.5989 5.00004 10.6956 5.02937 10.7778 5.08431C10.86 5.13925 10.9241 5.21734 10.9619 5.3087C10.9998 5.40006 11.0097 5.5006 10.9904 5.59759C10.9711 5.69458 10.9235 5.78367 10.8536 5.8536C10.7836 5.92352 10.6945 5.97114 10.5975 5.99044C10.5006 6.00973 10.4 5.99983 10.3087 5.96198C10.2173 5.92414 10.1392 5.86005 10.0843 5.77783C10.0293 5.6956 10 5.59893 10 5.50004C10.0001 5.36747 10.0528 5.24036 10.1466 5.14662C10.2403 5.05288 10.3674 5.00016 10.5 5.00004ZM5.5 6.00004C5.40111 6.00004 5.30444 5.97072 5.22221 5.91578C5.13999 5.86084 5.0759 5.78275 5.03806 5.69138C5.00022 5.60002 4.99031 5.49949 5.00961 5.4025C5.0289 5.30551 5.07652 5.21642 5.14645 5.14649C5.21637 5.07656 5.30546 5.02894 5.40245 5.00965C5.49945 4.99036 5.59998 5.00026 5.69134 5.0381C5.7827 5.07595 5.86079 5.14003 5.91573 5.22226C5.97068 5.30448 6 5.40115 6 5.50004C5.99988 5.63261 5.94716 5.75972 5.85342 5.85346C5.75968 5.94721 5.63257 5.99992 5.5 6.00004ZM6.5 11C6.40111 11 6.30444 10.9707 6.22221 10.9158C6.13999 10.8608 6.0759 10.7827 6.03806 10.6914C6.00022 10.6 5.99031 10.4995 6.00961 10.4025C6.0289 10.3055 6.07652 10.2164 6.14645 10.1465C6.21637 10.0766 6.30546 10.0289 6.40245 10.0096C6.49945 9.99036 6.59998 10.0003 6.69134 10.0381C6.7827 10.0759 6.86079 10.14 6.91573 10.2223C6.97068 10.3045 7 10.4012 7 10.5C6.99988 10.6326 6.94716 10.7597 6.85342 10.8535C6.75968 10.9472 6.63257 10.9999 6.5 11ZM7.6736 14.9925C6.95496 14.9601 6.2457 14.8164 5.57105 14.5667L5.9182 13.6291C6.4962 13.8429 7.10384 13.9658 7.7195 13.9936L7.6736 14.9925ZM9.80615 14.7647L9.54885 13.7984C10.1444 13.6397 10.7116 13.3896 11.2304 13.057L11.7695 13.8993C11.1638 14.2875 10.5014 14.5795 9.80615 14.7647ZM3.6975 13.5219C3.13059 13.0799 2.63482 12.5534 2.2275 11.9611L3.0517 11.3944C3.40102 11.9027 3.8263 12.3544 4.3127 12.7337L3.6975 13.5219ZM1.29835 10.0272C1.10045 9.36967 1.00001 8.68667 1.00025 8H2C1.99983 8.58878 2.08603 9.17439 2.25585 9.73815L1.29835 10.0272Z" fill="black"/>
</svg>
