<svg width="16" height="16" viewBox="0 0 16 16" fill="none" xmlns="http://www.w3.org/2000/svg">
<path fill-rule="evenodd" clip-rule="evenodd" d="M11 14V12H12V14C11.9997 14.2651 11.8942 14.5193 11.7068 14.7067C11.5193 14.8942 11.2651 14.9997 11 15H3C2.73488 14.9997 2.4807 14.8942 2.29323 14.7067C2.10576 14.5193 2.0003 14.2651 2 14V7.99997C2.0003 7.73484 2.10576 7.48067 2.29323 7.2932C2.4807 7.10573 2.73488 7.00027 3 6.99997H4V3.99997C4.00018 3.31075 4.23762 2.64261 4.67242 2.10785C5.10722 1.57309 5.71286 1.20432 6.38754 1.06352C7.06222 0.922728 7.7648 1.01849 8.37719 1.33472C8.98958 1.65094 9.47443 2.16835 9.75025 2.79997L8.83375 3.19997C8.64991 2.7788 8.32667 2.43378 7.91837 2.2229C7.51008 2.01202 7.04162 1.94814 6.59177 2.04202C6.14192 2.13589 5.73811 2.38178 5.44823 2.73835C5.15834 3.09492 5.00006 3.54043 5 3.99997V6.99997H7V7.99997H3V14H11ZM15 4.49994H9V5.49994H15V4.49994ZM9 6.99994H15V7.99994H9V6.99994ZM9 9.49994H13V10.4999H9V9.49994Z" fill="black"/>
</svg>
