<svg width="16" height="16" viewBox="0 0 16 16" fill="none" xmlns="http://www.w3.org/2000/svg">
<path fill-rule="evenodd" clip-rule="evenodd" d="M9 2H11C11.2651 2.0003 11.5193 2.10576 11.7068 2.29323C11.8942 2.4807 11.9997 2.73488 12 3V6C11.9996 6.26511 11.8942 6.51925 11.7067 6.70671C11.5193 6.89417 11.2651 6.99964 11 7H9V6H11V5H9.5V4H11V3H9V2ZM13 5.5L14 4L15 5.5H13ZM3.83335 13.7514L1 11.2243L1.66555 10.4779L4.4861 12.9937L8.3314 9.27125C8.51047 9.09789 8.74972 9.00062 8.99895 8.99984C9.24819 8.99905 9.48804 9.09482 9.6682 9.26705L11.48 10.9992L14.2696 8.01245L15 8.6953L12.2094 11.6832C12.1193 11.7797 12.0109 11.8573 11.8905 11.9116C11.7702 11.9659 11.6403 11.9958 11.5083 11.9995C11.3763 12.0032 11.2449 11.9807 11.1217 11.9333C10.9985 11.8858 10.8859 11.8144 10.7905 11.7232L9.0022 10.0137L5.1692 13.724C4.99114 13.8963 4.75446 13.995 4.50667 14.0001C4.25888 14.0052 4.01834 13.9163 3.83335 13.7514ZM8 7H5V5C5.00026 4.73486 5.10571 4.48066 5.29319 4.29319C5.48066 4.10571 5.73486 4.00026 6 4H7V3H5V2H7C7.26512 2.0003 7.5193 2.10576 7.70677 2.29323C7.89424 2.4807 7.9997 2.73488 8 3V4C7.9997 4.26512 7.89424 4.5193 7.70677 4.70677C7.5193 4.89424 7.26512 4.9997 7 5H6V6H8V7ZM3 2V6H4V7H1V6H2V3.5H1V2.5H2V2H3Z" fill="black"/>
</svg>
