<svg width="16" height="16" viewBox="0 0 16 16" fill="none" xmlns="http://www.w3.org/2000/svg">
<path fill-rule="evenodd" clip-rule="evenodd" d="M15 6H14V2H13V2.5H12V3.5H13V6H12V7H15V6ZM12.15 13.75L15 11.2L14.35 10.5L11.5 13L7.65 9.3C7.3 8.95 6.7 8.95 6.3 9.3L4.5 11L1.7 8L1 8.7L3.8 11.7C4.2 12.1 4.8 12.1 5.2 11.75L7 10L10.85 13.7C11.2 14.1 11.8 14.1 12.15 13.75ZM8 7H11V6H9V5H10C10.55 5 11 4.55 11 4V3C11 2.45 10.55 2 10 2H8V3H10V4H9C8.45 4 8 4.45 8 5V7ZM6 2H4V3H6V4H4.5V5H6V6H4V7H6C6.55 7 7 6.55 7 6V3C7 2.45 6.55 2 6 2ZM2 4L1 5.5H3L2 4Z" fill="black"/>
</svg>
