<svg width="16" height="16" viewBox="0 0 16 16" fill="none" xmlns="http://www.w3.org/2000/svg">
<path fill-rule="evenodd" clip-rule="evenodd" d="M5.5 4.5L8 2L10.5 4.5L9.795 5.205L8.5 3.915V4V7.5H7.5V4V3.915L6.205 5.205L5.5 4.5ZM12.5962 6.69679L10.8433 8.44971L11.5503 9.15674L13.3032 7.40383L12.5962 6.69679ZM8 10C8.53025 10.0006 9.03861 10.2115 9.41356 10.5864C9.7885 10.9614 9.9994 11.4697 10 12H11C11 11.2044 10.6839 10.4413 10.1213 9.87868C9.55871 9.31607 8.79565 9 8 9C7.20435 9 6.44129 9.31607 5.87868 9.87868C5.31607 10.4413 5 11.2044 5 12H6C6.0006 11.4697 6.2115 10.9614 6.58644 10.5864C6.96139 10.2115 7.46975 10.0006 8 10ZM14.9993 13.5H1V14.5H14.9993V13.5ZM12.5 11H15V12H12.5V11ZM3.4038 6.69677L2.69676 7.40381L4.44968 9.15673L5.15672 8.44969L3.4038 6.69677ZM1 11H3.5V12H1V11Z" fill="black"/>
</svg>
