<svg width="16" height="16" viewBox="0 0 16 16" fill="none" xmlns="http://www.w3.org/2000/svg">
<path fill-rule="evenodd" clip-rule="evenodd" d="M8.5 6.08744L9.795 4.79744L10.5 5.50244L8 8.00244L5.5 5.50244L6.205 4.79744L7.5 6.08744V2.00244H8.5V6.08744ZM12.5962 6.69923L10.8433 8.45215L11.5503 9.15918L13.3032 7.40627L12.5962 6.69923ZM8 10.0024C8.53025 10.003 9.03861 10.2139 9.41356 10.5889C9.7885 10.9638 9.9994 11.4722 10 12.0024H11C11 11.2068 10.6839 10.4437 10.1213 9.88112C9.55871 9.31851 8.79565 9.00244 8 9.00244C7.20435 9.00244 6.44129 9.31851 5.87868 9.88112C5.31607 10.4437 5 11.2068 5 12.0024H6C6.0006 11.4722 6.2115 10.9638 6.58644 10.5889C6.96139 10.2139 7.46975 10.003 8 10.0024ZM14.9993 13.5024H1V14.5024H14.9993V13.5024ZM12.5 11.0024H15V12.0024H12.5V11.0024ZM3.4038 6.69921L2.69676 7.40625L4.44968 9.15917L5.15672 8.45213L3.4038 6.69921ZM1 11.0024H3.5V12.0024H1V11.0024Z" fill="black"/>
</svg>
