<svg width="16" height="16" viewBox="0 0 16 16" fill="none" xmlns="http://www.w3.org/2000/svg">
<path fill-rule="evenodd" clip-rule="evenodd" d="M1 11.5H4C4.26522 11.5 4.51957 11.3946 4.70711 11.2071C4.89464 11.0196 5 10.7652 5 10.5V8.5C5 8.23478 4.89464 7.98043 4.70711 7.79289C4.51957 7.60536 4.26522 7.5 4 7.5H2V5.5H5V4.5H2C1.73478 4.5 1.48043 4.60536 1.29289 4.79289C1.10536 4.98043 1 5.23478 1 5.5V7.5C1 7.76522 1.10536 8.01957 1.29289 8.20711C1.48043 8.39464 1.73478 8.5 2 8.5H4V10.5H1V11.5ZM9 4.5L8 11L7 4.5H6L7.26 11.5H8.74L10 4.5H9ZM15 11.5H12C11.7348 11.5 11.4804 11.3946 11.2929 11.2071C11.1054 11.0196 11 10.7652 11 10.5V5.5C11 5.23478 11.1054 4.98043 11.2929 4.79289C11.4804 4.60536 11.7348 4.5 12 4.5H15V5.5H12V10.5H14V8.5H13V7.5H15V11.5Z" fill="black"/>
</svg>
