<svg width="16" height="16" viewBox="0 0 16 16" fill="none" xmlns="http://www.w3.org/2000/svg">
<path fill-rule="evenodd" clip-rule="evenodd" d="M10.3371 3.88886C10.1173 4.21776 10 4.60444 10 5C10.0006 5.53026 10.2114 6.03865 10.5864 6.4136C10.9614 6.78855 11.4697 6.99944 12 7C12.3956 7 12.7822 6.8827 13.1111 6.66294C13.44 6.44318 13.6964 6.13082 13.8478 5.76537C13.9991 5.39992 14.0387 4.99778 13.9616 4.60982C13.8844 4.22186 13.6939 3.86549 13.4142 3.58579C13.1345 3.30608 12.7781 3.1156 12.3902 3.03843C12.0022 2.96126 11.6001 3.00087 11.2346 3.15224C10.8692 3.30362 10.5568 3.55996 10.3371 3.88886ZM11.1685 5.55557C11.0586 5.39112 11 5.19778 11 5C11.0003 4.73488 11.1058 4.4807 11.2932 4.29323C11.4807 4.10576 11.7349 4.00031 12 4C12.1978 4 12.3911 4.05865 12.5556 4.16853C12.72 4.27841 12.8482 4.43459 12.9239 4.61732C12.9996 4.80004 13.0194 5.00111 12.9808 5.19509C12.9422 5.38907 12.847 5.56726 12.7071 5.70711C12.5673 5.84696 12.3891 5.9422 12.1951 5.98079C12.0011 6.01937 11.8 5.99957 11.6173 5.92388C11.4346 5.84819 11.2784 5.72002 11.1685 5.55557ZM11.5 8.79296L7.1465 4.43946C7.00755 4.29967 6.84224 4.18884 6.66015 4.11341C6.47805 4.03797 6.2828 3.99943 6.0857 4.00001H2V5.00001H6.0857C6.15142 4.9998 6.21654 5.01265 6.27726 5.0378C6.33798 5.06294 6.39311 5.0999 6.43945 5.14651L7.79295 6.50001L5 9.29296L5.70705 10L8.5 7.20706L10.7929 9.50001L11.5 8.79296ZM15 13.0001H14C13.612 13.0035 13.2286 12.9153 12.8811 12.7427C12.5335 12.57 12.2317 12.3178 12 12.0065C11.766 12.3152 11.4636 12.5656 11.1166 12.738C10.7696 12.9104 10.3874 13.0001 10 13.0001C9.61255 13.0001 9.23037 12.9104 8.88338 12.738C8.5364 12.5656 8.23404 12.3152 8 12.0065C7.76596 12.3152 7.4636 12.5656 7.11662 12.738C6.76964 12.9104 6.38745 13.0001 6 13.0001C5.61255 13.0001 5.23036 12.9104 4.88338 12.738C4.5364 12.5656 4.23404 12.3152 4 12.0065C3.76834 12.3178 3.46647 12.57 3.11894 12.7427C2.77141 12.9153 2.38804 13.0035 2 13.0001H1V12.0001H2C2.34095 11.9801 2.66821 11.859 2.94009 11.6522C3.21196 11.4455 3.41614 11.1625 3.5266 10.8394C3.55822 10.7392 3.62145 10.6521 3.7068 10.5909C3.79215 10.5297 3.89502 10.4979 4 10.5001C4.10482 10.5006 4.20686 10.5338 4.2919 10.5951C4.37693 10.6564 4.44072 10.7427 4.47435 10.842C4.58507 11.1646 4.78926 11.447 5.06093 11.6532C5.33261 11.8595 5.6595 11.9802 6 12.0001C6.34095 11.9801 6.66821 11.859 6.94009 11.6522C7.21196 11.4455 7.41614 11.1625 7.5266 10.8394C7.55952 10.74 7.62307 10.6537 7.70813 10.5927C7.79318 10.5318 7.89536 10.4994 8 10.5001C8.10482 10.5006 8.20686 10.5338 8.2919 10.5951C8.37693 10.6564 8.44072 10.7427 8.47435 10.842C8.58507 11.1646 8.78926 11.447 9.06094 11.6532C9.33261 11.8595 9.6595 11.9802 10 12.0001C10.341 11.9801 10.6682 11.859 10.9401 11.6522C11.212 11.4455 11.4161 11.1625 11.5266 10.8394C11.5603 10.7402 11.6242 10.6542 11.7094 10.5933C11.7946 10.5325 11.8967 10.4999 12.0014 10.5002C12.1061 10.5005 12.2081 10.5336 12.2929 10.595C12.3778 10.6563 12.4412 10.7427 12.4743 10.842C12.5851 11.1646 12.7893 11.447 13.0609 11.6532C13.3326 11.8595 13.6595 11.9802 14 12.0001H15V13.0001Z" fill="black"/>
</svg>
