<svg width="16" height="16" viewBox="0 0 16 16" fill="none" xmlns="http://www.w3.org/2000/svg">
<g clip-path="url(#clip0_3_10907)">
<path fill-rule="evenodd" clip-rule="evenodd" d="M10 2.5L8 0.5L6 2.5L6.707 3.207L7.5 2.4145V5.5H8.5V2.4145L9.293 3.207L10 2.5ZM5 3V2H2V5H3V3.707L5.5 6.207L6.207 5.5L3.707 3H5ZM11 2H14V5H13V3.707L10.5 6.207L9.79297 5.5L12.293 3H11V2ZM11 13.0001V14.0001H14V11.0001H13V12.2931L10.5 9.79309L9.79297 10.5001L12.293 13.0001H11ZM5 14.0001V13.0001H3.707L6.207 10.5001L5.5 9.79309L3 12.2931V11.0001H2V14.0001H5ZM8 15.5L10 13.5L9.293 12.793L8.5 13.5855V10.5H7.5V13.5855L6.707 12.793L6 13.5L8 15.5ZM2.5 6L0.5 8L2.5 10L3.207 9.293L2.4145 8.5H5.5V7.5H2.4145L3.207 6.707L2.5 6ZM15.5 8L13.5 6L12.793 6.707L13.5855 7.5H10.5V8.5H13.5855L12.793 9.293L13.5 10L15.5 8Z" fill="black"/>
</g>
<defs>
<clipPath id="clip0_3_10907">
<rect width="16" height="16" fill="white"/>
</clipPath>
</defs>
</svg>
