<svg width="16" height="16" viewBox="0 0 16 16" fill="none" xmlns="http://www.w3.org/2000/svg">
<path fill-rule="evenodd" clip-rule="evenodd" d="M12.9724 6.45492H12.9756C12.9919 6.63465 13 6.81632 13 6.99992C13.0003 7.55314 12.9243 8.10376 12.7742 8.63622L11.8118 8.36422C12.1139 7.29569 12.051 6.15692 11.6331 5.12814C11.2152 4.09936 10.4661 3.23934 9.50441 2.68419C8.54272 2.12904 7.42335 1.91048 6.32347 2.06309C5.22358 2.21571 4.20601 2.73078 3.4318 3.52679C2.65759 4.3228 2.17096 5.35428 2.04894 6.45798C1.92692 7.56167 2.17647 8.67454 2.75811 9.62045C3.33974 10.5664 4.22022 11.2913 5.2602 11.6805C6.30019 12.0697 7.44027 12.1009 8.5 11.7692V12.8024C7.30513 13.1162 6.04269 13.055 4.88374 12.6273C3.72478 12.1995 2.72532 11.4258 2.02078 10.4111C1.31623 9.3963 0.940649 8.18948 0.944921 6.95411C0.949194 5.71875 1.33311 4.51455 2.04466 3.50468C2.75621 2.4948 3.761 1.72807 4.92289 1.30835C6.08477 0.888627 7.3476 0.836214 8.54027 1.15821C9.73295 1.4802 10.7978 2.16104 11.5906 3.10848C12.3834 4.05592 12.8658 5.22415 12.9724 6.45492ZM7 10C6.40666 10 5.82664 9.82405 5.33329 9.49441C4.83994 9.16477 4.45543 8.69623 4.22836 8.14805C4.0013 7.59987 3.94189 6.99667 4.05765 6.41473C4.1734 5.83279 4.45912 5.29824 4.87868 4.87868C5.29824 4.45912 5.83279 4.1734 6.41473 4.05765C6.99667 3.94189 7.59987 4.0013 8.14805 4.22836C8.69623 4.45543 9.16477 4.83994 9.49441 5.33329C9.82405 5.82664 10 6.40666 10 7C9.99913 7.79538 9.68278 8.55794 9.12036 9.12036C8.55794 9.68278 7.79538 9.99913 7 10ZM7 5C6.60444 5 6.21776 5.1173 5.88886 5.33706C5.55996 5.55682 5.30362 5.86918 5.15224 6.23463C5.00087 6.60009 4.96126 7.00222 5.03843 7.39018C5.1156 7.77814 5.30608 8.13451 5.58579 8.41421C5.86549 8.69392 6.22186 8.8844 6.60982 8.96157C6.99778 9.03874 7.39992 8.99914 7.76537 8.84776C8.13082 8.69638 8.44318 8.44004 8.66294 8.11114C8.8827 7.78224 9 7.39556 9 7C8.9994 6.46975 8.7885 5.96139 8.41356 5.58645C8.03861 5.2115 7.53025 5.0006 7 5ZM8 7C8 7.55228 7.55228 8 7 8C6.44772 8 6 7.55228 6 7C6 6.44772 6.44772 6 7 6C7.55228 6 8 6.44772 8 7ZM15 12.5L10.5 15V10L15 12.5Z" fill="black"/>
</svg>
