<svg width="16" height="16" viewBox="0 0 16 16" fill="none" xmlns="http://www.w3.org/2000/svg">
<path fill-rule="evenodd" clip-rule="evenodd" d="M3.5 15H12.5C12.7651 14.9996 13.0193 14.8942 13.2067 14.7067C13.3942 14.5193 13.4996 14.2651 13.5 14V2C13.4997 1.73488 13.3942 1.4807 13.2068 1.29323C13.0193 1.10576 12.7651 1.0003 12.5 1H3.5C3.23486 1.00026 2.98066 1.10571 2.79319 1.29319C2.60571 1.48066 2.50026 1.73486 2.5 2V14C2.5003 14.2651 2.60576 14.5193 2.79323 14.7068C2.9807 14.8942 3.23488 14.9997 3.5 15ZM3.5 14V2H12.5V14H3.5ZM9.5 12V13H6.5V12H9.5Z" fill="black"/>
</svg>
