<svg width="16" height="16" viewBox="0 0 16 16" fill="none" xmlns="http://www.w3.org/2000/svg">
<path fill-rule="evenodd" clip-rule="evenodd" d="M15 12.5V3.5C14.9996 3.23489 14.8942 2.98075 14.7067 2.79329C14.5193 2.60583 14.2651 2.50036 14 2.5H2C1.73488 2.5003 1.4807 2.60576 1.29323 2.79323C1.10576 2.9807 1.0003 3.23488 1 3.5V12.5C1.00026 12.7651 1.10571 13.0193 1.29319 13.2068C1.48066 13.3943 1.73486 13.4997 2 13.5H14C14.2651 13.4997 14.5193 13.3942 14.7068 13.2068C14.8942 13.0193 14.9997 12.7651 15 12.5ZM14 12.5H2V3.5H14V12.5ZM12 6.5H13V9.5H12V6.5Z" fill="black"/>
</svg>
