<svg width="16" height="16" viewBox="0 0 16 16" fill="none" xmlns="http://www.w3.org/2000/svg">
<path fill-rule="evenodd" clip-rule="evenodd" d="M2.5 1.5H13.5C13.7652 1.5 14.0196 1.60536 14.2071 1.79289C14.3946 1.98043 14.5 2.23478 14.5 2.5V13.5C14.5 13.7652 14.3946 14.0196 14.2071 14.2071C14.0196 14.3946 13.7652 14.5 13.5 14.5H8.5V13.5H13.5V10H8.5V9H13.5V5.5H8.5V7.5H7.5V5.5H2.5V7.5H1.5V2.5C1.5 2.23478 1.60536 1.98043 1.79289 1.79289C1.98043 1.60536 2.23478 1.5 2.5 1.5ZM2.5 4.5H13.5V2.5H2.5V4.5ZM2.5 14.5H6C6.26513 14.4997 6.51932 14.3943 6.7068 14.2068C6.89428 14.0193 6.99972 13.7651 7 13.5V10C6.99972 9.73487 6.89428 9.48068 6.7068 9.2932C6.51932 9.10572 6.26513 9.00028 6 9H2.5C2.23487 9.00028 1.98068 9.10572 1.7932 9.2932C1.60572 9.48068 1.50028 9.73487 1.5 10V13.5C1.50028 13.7651 1.60572 14.0193 1.7932 14.2068C1.98068 14.3943 2.23487 14.4997 2.5 14.5ZM2.5 13.5V10H6V13.5H2.5Z" fill="black"/>
</svg>
