<svg width="16" height="16" viewBox="0 0 16 16" fill="none" xmlns="http://www.w3.org/2000/svg">
<path fill-rule="evenodd" clip-rule="evenodd" d="M2.5 1.5H13.5C13.7652 1.5 14.0196 1.60536 14.2071 1.79289C14.3946 1.98043 14.5 2.23478 14.5 2.5V13.5C14.5 13.7652 14.3946 14.0196 14.2071 14.2071C14.0196 14.3946 13.7652 14.5 13.5 14.5H8.5V13.5H13.5V10H8.5V9H13.5V5.5H8.5V7.5H7.5V5.5H2.5V7.5H1.5V2.5C1.5 2.23478 1.60536 1.98043 1.79289 1.79289C1.98043 1.60536 2.23478 1.5 2.5 1.5ZM2.5 4.5H13.5V2.5H2.5V4.5ZM2.5 10V9H7V13.5H6V10.707L2.207 14.5L1.5 13.793L5.293 10H2.5Z" fill="black"/>
</svg>
