<svg width="16" height="16" viewBox="0 0 16 16" fill="none" xmlns="http://www.w3.org/2000/svg">
<path fill-rule="evenodd" clip-rule="evenodd" d="M9.02895 14L10.0293 13L10.7364 13.707L9.7361 14.7073C9.5485 14.8947 9.29415 15 9.02895 15C8.76375 15 8.50941 14.8947 8.3218 14.7073L1.29285 7.67775C1.10534 7.49022 1 7.23589 1 6.9707V2C1 1.73478 1.10536 1.48043 1.29289 1.29289C1.48043 1.10536 1.73478 1 2 1H6.9707C7.23583 1.00011 7.49006 1.1055 7.6775 1.293L10.678 4.293L9.97085 5L6.97085 2H2V6.9707L9.02895 14ZM5 7C4.60444 7 4.21776 6.8827 3.88886 6.66294C3.55996 6.44318 3.30362 6.13082 3.15224 5.76537C3.00087 5.39992 2.96126 4.99778 3.03843 4.60982C3.1156 4.22186 3.30608 3.86549 3.58579 3.58579C3.86549 3.30608 4.22186 3.1156 4.60982 3.03843C4.99778 2.96126 5.39992 3.00087 5.76537 3.15224C6.13082 3.30362 6.44318 3.55996 6.66294 3.88886C6.8827 4.21776 7 4.60444 7 5C6.99941 5.53025 6.7885 6.03861 6.41356 6.41356C6.03861 6.7885 5.53025 6.99941 5 7ZM5 4C4.80227 3.9998 4.60892 4.05823 4.44439 4.16789C4.27986 4.27756 4.15153 4.43354 4.07562 4.61612C3.99972 4.7987 3.97964 4.99968 4.01794 5.19367C4.05623 5.38766 4.15117 5.56594 4.29077 5.70598C4.43036 5.84601 4.60833 5.94153 4.8022 5.98044C4.99606 6.01936 5.19711 5.99993 5.37993 5.92461C5.56275 5.84928 5.71914 5.72146 5.82933 5.55727C5.93952 5.39309 5.99857 5.19993 5.999 5.0022C5.99932 4.73686 5.89427 4.48224 5.70695 4.29432C5.51962 4.10639 5.26534 4.00053 5 4ZM8 9L11 6L11.707 6.707L9.914 8.5H15V9.5H9.914L11.707 11.293L11 12L8 9Z" fill="black"/>
</svg>
