<svg width="16" height="16" viewBox="0 0 16 16" fill="none" xmlns="http://www.w3.org/2000/svg">
<path fill-rule="evenodd" clip-rule="evenodd" d="M13.5182 7.1035L14.7078 8.29295C14.8952 8.4805 15.0005 8.73484 15.0005 9.00003C15.0005 9.26522 14.8951 9.51954 14.7076 9.70705L9.7076 14.7068C9.51989 14.8945 9.2653 14.9999 8.99985 14.9999C8.7344 14.9999 8.47981 14.8945 8.2921 14.7068L1.2921 7.7068C1.10505 7.51913 1.00001 7.26497 1 7V2C1.00045 1.73492 1.10595 1.48083 1.29339 1.29339C1.48083 1.10595 1.73492 1.00045 2 1H7C7.26499 0.999944 7.5192 1.10495 7.7069 1.292L9.89575 3.48095L9.1887 4.188L7 2H2V7L9 14L14 9L12.8111 7.81055L13.5182 7.1035ZM14.8535 3.64652L13.3535 2.14652C13.3071 2.10007 13.252 2.06322 13.1913 2.03808C13.1307 2.01294 13.0657 2 13 2C12.9343 2 12.8693 2.01294 12.8087 2.03808C12.748 2.06322 12.6929 2.10007 12.6465 2.14652L8 6.79297V9.00002H10.2071L14.8535 4.35352C14.8999 4.30711 14.9368 4.252 14.9619 4.19135C14.9871 4.13069 15 4.06568 15 4.00002C15 3.93436 14.9871 3.86934 14.9619 3.80869C14.9368 3.74803 14.8999 3.69293 14.8535 3.64652ZM9.79295 8.00002H9V7.20707L11.5 4.70707L12.2929 5.50002L9.79295 8.00002ZM13 4.79297L12.2071 4.00002L13 3.20707L13.7929 4.00002L13 4.79297ZM5 7C4.60444 7 4.21776 6.8827 3.88886 6.66294C3.55996 6.44318 3.30362 6.13082 3.15224 5.76537C3.00087 5.39992 2.96126 4.99778 3.03843 4.60982C3.1156 4.22186 3.30608 3.86549 3.58579 3.58579C3.86549 3.30608 4.22186 3.1156 4.60982 3.03843C4.99778 2.96126 5.39991 3.00087 5.76537 3.15224C6.13082 3.30362 6.44318 3.55996 6.66294 3.88886C6.8827 4.21776 7 4.60444 7 5C6.9994 5.53025 6.7885 6.03861 6.41356 6.41356C6.03861 6.7885 5.53025 6.99941 5 7ZM5 4C4.80222 4 4.60888 4.05865 4.44443 4.16853C4.27998 4.27841 4.15181 4.43459 4.07612 4.61732C4.00043 4.80004 3.98063 5.00111 4.01921 5.19509C4.0578 5.38907 4.15304 5.56726 4.29289 5.70711C4.43275 5.84696 4.61093 5.9422 4.80491 5.98079C4.99889 6.01937 5.19996 5.99957 5.38268 5.92388C5.56541 5.84819 5.72159 5.72002 5.83147 5.55557C5.94135 5.39112 6 5.19778 6 5C5.99974 4.73487 5.89429 4.48067 5.70681 4.29319C5.51934 4.10571 5.26514 4.00027 5 4Z" fill="black"/>
</svg>
