<svg width="16" height="16" viewBox="0 0 16 16" fill="none" xmlns="http://www.w3.org/2000/svg">
<path fill-rule="evenodd" clip-rule="evenodd" d="M8.2 14.56C8.48103 14.8414 8.86231 14.9997 9.26 15C9.65769 14.9997 10.039 14.8414 10.32 14.56L14.56 10.32C14.6998 10.1806 14.8108 10.0151 14.8865 9.83273C14.9622 9.6504 15.0012 9.45492 15.0012 9.2575C15.0012 9.06008 14.9622 8.8646 14.8865 8.68227C14.8108 8.49994 14.6998 8.33435 14.56 8.195L7.805 1.44C7.52396 1.15862 7.14269 1.00035 6.745 1H2.5C2.10218 1 1.72064 1.15804 1.43934 1.43934C1.15804 1.72064 1 2.10218 1 2.5V6.745C1.00035 7.14269 1.15862 7.52396 1.44 7.805L8.2 14.56ZM2.14645 2.14645C2.24021 2.05268 2.36739 2 2.5 2H6.745C6.81115 2.00027 6.8766 2.01367 6.93753 2.03942C6.99847 2.06517 7.05369 2.10276 7.1 2.15L13.855 8.905C13.9481 8.99868 14.0004 9.12541 14.0004 9.2575C14.0004 9.38959 13.9481 9.51632 13.855 9.61L9.61 13.855C9.51632 13.9481 9.38959 14.0004 9.2575 14.0004C9.12541 14.0004 8.99868 13.9481 8.905 13.855L2.15 7.1C2.10276 7.05369 2.06517 6.99847 2.03942 6.93753C2.01367 6.8766 2.00027 6.81115 2 6.745V2.5C2 2.36739 2.05268 2.24021 2.14645 2.14645ZM3.88886 6.66294C4.21776 6.8827 4.60444 7 5 7C5.53043 7 6.03914 6.78929 6.41421 6.41421C6.78929 6.03914 7 5.53043 7 5C7 4.60444 6.8827 4.21776 6.66294 3.88886C6.44318 3.55996 6.13082 3.30362 5.76537 3.15224C5.39992 3.00087 4.99778 2.96126 4.60982 3.03843C4.22186 3.1156 3.86549 3.30608 3.58579 3.58579C3.30608 3.86549 3.1156 4.22186 3.03843 4.60982C2.96126 4.99778 3.00087 5.39992 3.15224 5.76537C3.30362 6.13082 3.55996 6.44318 3.88886 6.66294ZM4.44443 4.16853C4.60888 4.05865 4.80222 4 5 4C5.26522 4 5.51957 4.10536 5.70711 4.29289C5.89464 4.48043 6 4.73478 6 5C6 5.19778 5.94135 5.39112 5.83147 5.55557C5.72159 5.72002 5.56541 5.84819 5.38268 5.92388C5.19996 5.99957 4.99889 6.01937 4.80491 5.98079C4.61093 5.9422 4.43275 5.84696 4.29289 5.70711C4.15304 5.56726 4.0578 5.38907 4.01922 5.19509C3.98063 5.00111 4.00043 4.80004 4.07612 4.61732C4.15181 4.43459 4.27998 4.27841 4.44443 4.16853Z" fill="black"/>
</svg>
