<svg width="16" height="16" viewBox="0 0 16 16" fill="none" xmlns="http://www.w3.org/2000/svg">
<path fill-rule="evenodd" clip-rule="evenodd" d="M11 2.5H12.5C12.765 2.50077 13.0189 2.60637 13.2063 2.79374C13.3936 2.98111 13.4992 3.23502 13.5 3.5V6.5H12.5V3.5H11V5H5V3.5H3.5V14H7V15H3.5C3.23502 14.9992 2.98111 14.8936 2.79374 14.7063C2.60637 14.5189 2.50077 14.265 2.5 14V3.5C2.50077 3.23502 2.60637 2.98111 2.79374 2.79374C2.98111 2.60637 3.23502 2.50077 3.5 2.5H5V2C5.00077 1.73502 5.10637 1.48111 5.29374 1.29374C5.48111 1.10637 5.73502 1.00077 6 1H10C10.265 1.00077 10.5189 1.10637 10.7063 1.29374C10.8936 1.48111 10.9992 1.73502 11 2V2.5ZM6 4H10V2H6V4ZM13.9494 11H15V12H13.9494C13.885 12.313 13.7607 12.6106 13.5835 12.8765L14.3285 13.6215L13.6215 14.3285L12.8764 13.5835C12.6106 13.7607 12.313 13.885 12 13.9494V15H11V13.9494C10.687 13.885 10.3894 13.7607 10.1235 13.5835L9.3785 14.3285L8.6715 13.6215L9.4165 12.8764C9.23928 12.6106 9.11502 12.313 9.05055 12H8V11H9.05055C9.11503 10.687 9.2393 10.3894 9.41655 10.1235L8.67155 9.3785L9.37855 8.6715L10.1236 9.4165C10.3894 9.23928 10.687 9.11502 11 9.05055V8H12V9.05055C12.313 9.11503 12.6106 9.2393 12.8765 9.41655L13.6215 8.67155L14.3285 9.37855L13.5835 10.1236C13.7607 10.3894 13.885 10.687 13.9494 11ZM10.6666 12.7472C10.9133 12.912 11.2033 13 11.5 13C11.8977 12.9996 12.279 12.8414 12.5602 12.5602C12.8414 12.279 12.9996 11.8977 13 11.5C13 11.2033 12.912 10.9133 12.7472 10.6666C12.5824 10.42 12.3481 10.2277 12.074 10.1142C11.7999 10.0006 11.4983 9.97094 11.2074 10.0288C10.9164 10.0867 10.6491 10.2296 10.4393 10.4393C10.2296 10.6491 10.0867 10.9164 10.0288 11.2074C9.97094 11.4983 10.0006 11.7999 10.1142 12.074C10.2277 12.3481 10.42 12.5824 10.6666 12.7472Z" fill="black"/>
</svg>
