<svg width="16" height="16" viewBox="0 0 16 16" fill="none" xmlns="http://www.w3.org/2000/svg">
<g clip-path="url(#clip0_3_10863)">
<path fill-rule="evenodd" clip-rule="evenodd" d="M11 2.5H12.5C12.765 2.50077 13.0189 2.60637 13.2063 2.79374C13.3936 2.98111 13.4992 3.23502 13.5 3.5V6H12.5V3.5H11V5H5V3.5H3.5V14H8V15H3.5C3.23502 14.9992 2.98111 14.8936 2.79374 14.7063C2.60637 14.5189 2.50077 14.265 2.5 14V3.5C2.50077 3.23502 2.60637 2.98111 2.79374 2.79374C2.98111 2.60637 3.23502 2.50077 3.5 2.5H5V2C5.00077 1.73502 5.10637 1.48111 5.29374 1.29374C5.48111 1.10637 5.73502 1.00077 6 1H10C10.265 1.00077 10.5189 1.10637 10.7063 1.29374C10.8936 1.48111 10.9992 1.73502 11 2V2.5ZM6 4H10V2H6V4ZM14.6384 8.56624C14.8767 9.00656 15.001 9.49953 15 10.0002C14.9998 10.4214 14.9106 10.8377 14.7383 11.222C14.5659 11.6063 14.3143 11.9499 14 12.2302V16.0002L12 15.0534L10 16.0002V12.2302C9.62682 11.8964 9.34312 11.4745 9.17474 11.003C9.00637 10.5315 8.95868 10.0254 9.03602 9.53069C9.11337 9.03603 9.31329 8.56859 9.61756 8.17098C9.92183 7.77336 10.3208 7.45823 10.778 7.25429C11.2353 7.05035 11.7363 6.9641 12.2355 7.00339C12.7346 7.04269 13.2159 7.20628 13.6357 7.47926C14.0554 7.75223 14.4001 8.12591 14.6384 8.56624ZM12 13.9469L13 14.4202V12.8252C12.3538 13.0586 11.6462 13.0586 11 12.8252V14.4202L12 13.9469ZM10.8889 11.6631C11.2178 11.8829 11.6044 12.0002 12 12.0002C12.5303 11.9996 13.0386 11.7887 13.4136 11.4138C13.7885 11.0388 13.9994 10.5305 14 10.0002C14 9.60464 13.8827 9.21796 13.6629 8.88906C13.4432 8.56017 13.1308 8.30382 12.7654 8.15244C12.3999 8.00107 11.9978 7.96146 11.6098 8.03863C11.2219 8.1158 10.8655 8.30629 10.5858 8.58599C10.3061 8.8657 10.1156 9.22206 10.0384 9.61002C9.96126 9.99799 10.0009 10.4001 10.1522 10.7656C10.3036 11.131 10.56 11.4434 10.8889 11.6631Z" fill="black"/>
</g>
<defs>
<clipPath id="clip0_3_10863">
<rect width="16" height="16" fill="white"/>
</clipPath>
</defs>
</svg>
