<svg width="16" height="16" viewBox="0 0 16 16" fill="none" xmlns="http://www.w3.org/2000/svg">
<g clip-path="url(#clip0_3_10849)">
<path fill-rule="evenodd" clip-rule="evenodd" d="M11 2.5H12.5C12.765 2.50077 13.0189 2.60637 13.2063 2.79374C13.3936 2.98111 13.4992 3.23502 13.5 3.5V6H12.5V3.5H11V5H5V3.5H3.5V14H7V15H3.5C3.23502 14.9992 2.98111 14.8936 2.79374 14.7063C2.60637 14.5189 2.50077 14.265 2.5 14V3.5C2.50077 3.23502 2.60637 2.98111 2.79374 2.79374C2.98111 2.60637 3.23502 2.50077 3.5 2.5H5V2C5.00077 1.73502 5.10637 1.48111 5.29374 1.29374C5.48111 1.10637 5.73502 1.00077 6 1H10C10.265 1.00077 10.5189 1.10637 10.7063 1.29374C10.8936 1.48111 10.9992 1.73502 11 2V2.5ZM6 4H10V2H6V4ZM13.5799 15.8678C13.7923 15.9558 14.0201 16.0008 14.25 16.0002C14.5961 16.0002 14.9345 15.8975 15.2222 15.7052C15.51 15.5129 15.7343 15.2396 15.8668 14.9198C15.9992 14.6001 16.0339 14.2482 15.9663 13.9087C15.8988 13.5693 15.7321 13.2575 15.4874 13.0127L13.4237 10.9486C13.553 10.3629 13.5177 9.75275 13.3215 9.18588C13.1253 8.61901 12.7759 8.11755 12.3122 7.73706C11.8485 7.35657 11.2884 7.11193 10.6941 7.03025C10.0999 6.94858 9.4946 7.03305 8.9454 7.27431L8.2754 7.56836L10.3535 9.64661C10.4 9.69302 10.4368 9.74814 10.462 9.80881C10.4871 9.86948 10.5 9.93452 10.5 10.0002C10.5 10.0659 10.487 10.1309 10.4618 10.1915C10.4366 10.2522 10.3997 10.3073 10.3533 10.3537C10.2581 10.4446 10.1315 10.4953 9.99988 10.4953C9.86826 10.4953 9.7417 10.4446 9.6465 10.3537L7.56835 8.27546L7.2744 8.94546C7.0331 9.49463 6.94859 10.0999 7.03024 10.6942C7.11189 11.2884 7.35651 11.8485 7.73699 12.3122C8.11747 12.776 8.61893 13.1253 9.18579 13.3214C9.75266 13.5176 10.3628 13.553 10.9485 13.4236L13.0125 15.4875C13.1746 15.6505 13.3674 15.7798 13.5799 15.8678ZM13.7197 14.7804L11.235 12.2958L10.9439 12.3902C10.6062 12.5 10.2474 12.5283 9.89673 12.4727C9.54606 12.4172 9.21353 12.2794 8.92635 12.0707C8.63918 11.8619 8.40552 11.5881 8.24451 11.2717C8.0835 10.9553 7.99971 10.6052 8 10.2502C8 10.2082 8.00122 10.1664 8.00365 10.1248L8.93945 11.0606C9.22518 11.3334 9.60502 11.4856 10.0001 11.4857C10.3951 11.4857 10.775 11.3336 11.0608 11.0608C11.2001 10.9216 11.3106 10.7562 11.386 10.5742C11.4614 10.3922 11.5002 10.1972 11.5002 10.0002C11.5002 9.80323 11.4614 9.60818 11.386 9.42619C11.3106 9.24421 11.2001 9.07887 11.0608 8.93961L10.125 8.00356C10.1663 8.0013 10.208 8.00016 10.25 8.00016C10.605 7.99985 10.9551 8.08363 11.2715 8.24464C11.5879 8.40564 11.8616 8.63929 12.0704 8.92647C12.2791 9.21364 12.4169 9.54616 12.4723 9.89682C12.5278 10.2475 12.4995 10.6063 12.3896 10.9439L12.2956 11.235L14.7802 13.72C14.8499 13.7896 14.9052 13.8722 14.9429 13.9632C14.9806 14.0542 15.0001 14.1517 15.0001 14.2502C15.0001 14.3487 14.9806 14.4462 14.9429 14.5372C14.9052 14.6282 14.8499 14.7108 14.7802 14.7804C14.6374 14.9169 14.4475 14.993 14.2499 14.993C14.0524 14.993 13.8625 14.9169 13.7197 14.7804Z" fill="black"/>
</g>
<defs>
<clipPath id="clip0_3_10849">
<rect width="16" height="16" fill="white"/>
</clipPath>
</defs>
</svg>
