<svg width="16" height="16" viewBox="0 0 16 16" fill="none" xmlns="http://www.w3.org/2000/svg">
<path fill-rule="evenodd" clip-rule="evenodd" d="M11 2.5H12.5C12.765 2.50077 13.0189 2.60637 13.2063 2.79374C13.3936 2.98111 13.4992 3.23502 13.5 3.5V6H12.5V3.5H11V5H5V3.5H3.5V14H8V15H3.5C3.23502 14.9992 2.98111 14.8936 2.79374 14.7063C2.60637 14.5189 2.50077 14.265 2.5 14V3.5C2.50077 3.23502 2.60637 2.98111 2.79374 2.79374C2.98111 2.60637 3.23502 2.50077 3.5 2.5H5V2C5.00077 1.73502 5.10637 1.48111 5.29374 1.29374C5.48111 1.10637 5.73502 1.00077 6 1H10C10.265 1.00077 10.5189 1.10637 10.7063 1.29374C10.8936 1.48111 10.9992 1.73502 11 2V2.5ZM6 4H10V2H6V4ZM12 15.5L9.6106 12.2991C9.21543 11.7825 9.0009 11.1504 9 10.5C9 9.70435 9.31607 8.94129 9.87868 8.37868C10.4413 7.81607 11.2044 7.5 12 7.5C12.7956 7.5 13.5587 7.81607 14.1213 8.37868C14.6839 8.94129 15 9.70435 15 10.5C14.9989 11.1514 14.7838 11.7843 14.3877 12.3014L12 15.5ZM12 8.5C11.4697 8.5006 10.9614 8.7115 10.5864 9.08644C10.2115 9.46139 10.0006 9.96975 10 10.5C10.0016 10.9337 10.1457 11.3548 10.41 11.6986L12 13.8284L13.5882 11.7009C13.8534 11.3566 13.9982 10.9347 14 10.5C13.9994 9.96975 13.7885 9.46139 13.4136 9.08644C13.0386 8.7115 12.5303 8.5006 12 8.5ZM12 11.5C12.5523 11.5 13 11.0523 13 10.5C13 9.94771 12.5523 9.5 12 9.5C11.4477 9.5 11 9.94771 11 10.5C11 11.0523 11.4477 11.5 12 11.5Z" fill="black"/>
</svg>
