<svg width="16" height="16" viewBox="0 0 16 16" fill="none" xmlns="http://www.w3.org/2000/svg">
<path fill-rule="evenodd" clip-rule="evenodd" d="M11 2.5H12.5C12.765 2.50077 13.0189 2.60637 13.2063 2.79374C13.3936 2.98111 13.4992 3.23502 13.5 3.5V8H12.5V3.5H11V5H5V3.5H3.5V14H8.5V15H3.5C3.23502 14.9992 2.98111 14.8936 2.79374 14.7063C2.60637 14.5189 2.50077 14.265 2.5 14V3.5C2.50077 3.23502 2.60637 2.98111 2.79374 2.79374C2.98111 2.60637 3.23502 2.50077 3.5 2.5H5V2C5.00077 1.73502 5.10637 1.48111 5.29374 1.29374C5.48111 1.10637 5.73502 1.00077 6 1H10C10.265 1.00077 10.5189 1.10637 10.7063 1.29374C10.8936 1.48111 10.9992 1.73502 11 2V2.5ZM6 4H10V2H6V4ZM13.5 12H15.5V13H13.5V15H12.5V13H10.5V12H12.5V10H13.5V12Z" fill="black"/>
</svg>
