<svg width="16" height="16" viewBox="0 0 16 16" fill="none" xmlns="http://www.w3.org/2000/svg">
<path fill-rule="evenodd" clip-rule="evenodd" d="M2 3V2H14V3H12V7C12 8.06087 11.5786 9.07828 10.8284 9.82843C10.0783 10.5786 9.06087 11 8 11C6.93913 11 5.92172 10.5786 5.17157 9.82843C4.42143 9.07828 4 8.06087 4 7V3H2ZM10.1213 9.12132C10.6839 8.55871 11 7.79565 11 7V3H8.5V7H7.5V3H5V7C5 7.79565 5.31607 8.55871 5.87868 9.12132C6.44129 9.68393 7.20435 10 8 10C8.79565 10 9.55871 9.68393 10.1213 9.12132ZM5.5 13H6.5V14H5.5V13ZM3.5 12V13H4.5V12H3.5ZM7.5 13V12H8.5V13H7.5ZM10.5 13H9.5V14H10.5V13ZM11.5 13V12H12.5V13H11.5Z" fill="black"/>
</svg>
