<svg width="16" height="16" viewBox="0 0 16 16" fill="none" xmlns="http://www.w3.org/2000/svg">
<path fill-rule="evenodd" clip-rule="evenodd" d="M2.5 5.5H6.5C7.0514 5.5 7.5 5.0514 7.5 4.5V2C7.5 1.4486 7.0514 1 6.5 1H2.5C1.9486 1 1.5 1.4486 1.5 2V4.5C1.5 5.0514 1.9486 5.5 2.5 5.5ZM2.5 4.5V2H6.5V4.5H2.5ZM8 6.5H1V7.5H8V6.5ZM5 11.5H7.5V10.5H5V8.5H4V10.5C4 11.0514 4.4486 11.5 5 11.5ZM13.5 13H9.5C8.9486 13 8.5 12.5514 8.5 12V9.5C8.5 8.9486 8.9486 8.5 9.5 8.5H13.5C14.0514 8.5 14.5 8.9486 14.5 9.5V12C14.5 12.5514 14.0514 13 13.5 13ZM9.5 9.5V12H13.5V9.5H9.5ZM15 14H8V15H15V14Z" fill="black"/>
</svg>
