<svg width="16" height="16" viewBox="0 0 16 16" fill="none" xmlns="http://www.w3.org/2000/svg">
<path fill-rule="evenodd" clip-rule="evenodd" d="M2.56325 14.4169C3.13728 14.7978 3.81105 15.0007 4.49997 15C5.18889 15.0007 5.86266 14.7978 6.4367 14.4169C7.01073 14.036 7.45945 13.494 7.72652 12.8589C7.99359 12.2239 8.06711 11.5241 7.93785 10.8474C7.80859 10.1707 7.48231 9.5473 6.99997 9.0554V3.5C6.99997 2.83696 6.73658 2.20107 6.26774 1.73223C5.7989 1.26339 5.16301 1 4.49997 1C3.83693 1 3.20105 1.26339 2.73221 1.73223C2.26337 2.20107 1.99997 2.83696 1.99997 3.5V9.0554C1.51764 9.5473 1.19136 10.1707 1.0621 10.8474C0.932839 11.5241 1.00636 12.2239 1.27343 12.8589C1.5405 13.494 1.98921 14.036 2.56325 14.4169ZM3.4398 2.43982C3.72101 2.15861 4.10228 2.00044 4.49997 2C4.89766 2.00044 5.27894 2.15861 5.56015 2.43982C5.84136 2.72103 5.99954 3.10231 5.99997 3.5V9.4917L6.16597 9.64085C6.54353 9.97831 6.80971 10.4225 6.92928 10.9145C7.04885 11.4066 7.01617 11.9234 6.83556 12.3965C6.65496 12.8696 6.33494 13.2766 5.91788 13.5639C5.50081 13.8511 5.00636 14.0048 4.49997 14.0048C3.99358 14.0048 3.49913 13.8511 3.08207 13.5639C2.665 13.2766 2.34499 12.8696 2.16438 12.3965C1.98378 11.9234 1.95109 11.4066 2.07066 10.9145C2.19023 10.4225 2.45641 9.97831 2.83397 9.64085L2.99997 9.4917V3.5C3.00041 3.10231 3.15859 2.72103 3.4398 2.43982ZM13.5835 8.445L10.86 6.5L13.5835 4.5545L14.842 4.974L15.158 4.0255L14 3.6395V2.5H13V3.7425L10.5 5.5285V2.6835L11.7775 1.832L11.2225 1L9.99997 1.815L8.77747 1L8.22247 1.832L9.49997 2.6835V5.5285L7.99997 4.457V5.686L9.13997 6.5L7.99997 7.314V8.543L9.49997 7.4715V10.8515L11.2225 12L11.7775 11.168L10.5 10.3165V7.4715L13 9.2575V10.5H14V9.3605L15.158 8.974L14.842 8.0255L13.5835 8.445ZM5.99997 11.5C5.99997 11.8978 5.84193 12.2794 5.56063 12.5607C5.27933 12.842 4.89779 13 4.49997 13C4.10214 13 3.72061 12.842 3.43931 12.5607C3.158 12.2794 2.99997 11.8978 2.99997 11.5H5.99997Z" fill="black"/>
</svg>
