<svg width="16" height="16" viewBox="0 0 16 16" fill="none" xmlns="http://www.w3.org/2000/svg">
<path fill-rule="evenodd" clip-rule="evenodd" d="M7.9596 11H15V12H7.96C7.88146 12.5469 7.67445 13.0674 7.35594 13.5189C7.03742 13.9704 6.61647 14.34 6.12757 14.5974C5.63867 14.8548 5.09573 14.9927 4.54325 14.9999C3.99077 15.007 3.44446 14.8831 2.94909 14.6383C2.45372 14.3936 2.02339 14.035 1.69336 13.5918C1.36333 13.1487 1.14298 12.6337 1.05038 12.089C0.957781 11.5443 0.99556 10.9854 1.16062 10.4581C1.32569 9.93077 1.61333 9.45009 2 9.0554V3.5C2 2.83696 2.26339 2.20107 2.73223 1.73223C3.20107 1.26339 3.83696 1 4.5 1C5.16304 1 5.79893 1.26339 6.26777 1.73223C6.73661 2.20107 7 2.83696 7 3.5V9.0554C7.51736 9.58588 7.85331 10.2667 7.9596 11ZM3.0824 13.5608C3.49949 13.8475 3.99387 14.0007 4.5 14C5.00613 14.0007 5.50051 13.8475 5.91761 13.5608C6.3347 13.2741 6.65481 12.8674 6.8355 12.3947C7.01619 11.9219 7.04892 11.4054 6.92935 10.9136C6.80979 10.4218 6.54357 9.9779 6.166 9.64085L6 9.4917V3.5C6 3.10218 5.84197 2.72064 5.56066 2.43934C5.27936 2.15804 4.89783 2 4.5 2C4.10218 2 3.72064 2.15804 3.43934 2.43934C3.15804 2.72064 3 3.10218 3 3.5V9.4917L2.834 9.64085C2.45643 9.9779 2.19021 10.4218 2.07065 10.9136C1.95108 11.4054 1.98381 11.9219 2.1645 12.3947C2.34519 12.8674 2.6653 13.2741 3.0824 13.5608ZM13.5 2H10V3H13.5V2ZM15 5H10V6H15V5ZM10 8H13.5V9H10V8ZM6 11.5C6 11.8978 5.84196 12.2794 5.56066 12.5607C5.27936 12.842 4.89782 13 4.5 13C4.10218 13 3.72064 12.842 3.43934 12.5607C3.15804 12.2794 3 11.8978 3 11.5H6Z" fill="black"/>
</svg>
