<svg width="16" height="16" viewBox="0 0 16 16" fill="none" xmlns="http://www.w3.org/2000/svg">
<path fill-rule="evenodd" clip-rule="evenodd" d="M2.56325 14.4169C3.13728 14.7978 3.81105 15.0007 4.49997 15C5.18889 15.0007 5.86266 14.7978 6.4367 14.4169C7.01073 14.036 7.45945 13.494 7.72652 12.8589C7.99359 12.2239 8.06711 11.5241 7.93785 10.8474C7.80859 10.1707 7.48231 9.5473 6.99997 9.0554V3.5C6.99997 2.83696 6.73658 2.20107 6.26774 1.73223C5.7989 1.26339 5.16301 1 4.49997 1C3.83693 1 3.20105 1.26339 2.73221 1.73223C2.26337 2.20107 1.99997 2.83696 1.99997 3.5V9.0554C1.51764 9.5473 1.19136 10.1707 1.0621 10.8474C0.932839 11.5241 1.00636 12.2239 1.27343 12.8589C1.5405 13.494 1.98921 14.036 2.56325 14.4169ZM3.4398 2.43982C3.72101 2.15861 4.10228 2.00044 4.49997 2C4.89766 2.00044 5.27894 2.15861 5.56015 2.43982C5.84136 2.72103 5.99954 3.10231 5.99997 3.5V9.4917L6.16597 9.64085C6.54353 9.97831 6.80971 10.4225 6.92928 10.9145C7.04885 11.4066 7.01617 11.9234 6.83556 12.3965C6.65496 12.8696 6.33494 13.2766 5.91788 13.5639C5.50081 13.8511 5.00636 14.0048 4.49997 14.0048C3.99358 14.0048 3.49913 13.8511 3.08207 13.5639C2.665 13.2766 2.34499 12.8696 2.16438 12.3965C1.98378 11.9234 1.95109 11.4066 2.07066 10.9145C2.19023 10.4225 2.45641 9.97831 2.83397 9.64085L2.99997 9.4917V3.5C3.00041 3.10231 3.15859 2.72103 3.4398 2.43982ZM10 2C10 2.55228 9.55228 3 9 3C8.44772 3 8 2.55228 8 2C8 1.44772 8.44772 1 9 1C9.55228 1 10 1.44772 10 2ZM12 9H15V8H12V3H15V2H12C11.7349 2.00026 11.4807 2.10571 11.2932 2.29319C11.1057 2.48066 11.0003 2.73486 11 3V8C11.0003 8.26512 11.1058 8.5193 11.2932 8.70677C11.4807 8.89424 11.7349 8.9997 12 9ZM5 10.092V6H4V10.092C3.6664 10.21 3.38523 10.4421 3.20619 10.7473C3.02715 11.0525 2.96177 11.4112 3.02161 11.7599C3.08144 12.1087 3.26264 12.425 3.53317 12.6531C3.80371 12.8812 4.14616 13.0063 4.5 13.0063C4.85385 13.0063 5.1963 12.8812 5.46683 12.6531C5.73737 12.425 5.91857 12.1087 5.9784 11.7599C6.03824 11.4112 5.97286 11.0525 5.79382 10.7473C5.61478 10.4421 5.33361 10.21 5 10.092Z" fill="black"/>
</svg>
