<svg width="16" height="16" viewBox="0 0 16 16" fill="none" xmlns="http://www.w3.org/2000/svg">
<path fill-rule="evenodd" clip-rule="evenodd" d="M2.56325 14.4169C3.13728 14.7978 3.81105 15.0007 4.49997 15C5.18889 15.0007 5.86266 14.7978 6.4367 14.4169C7.01073 14.036 7.45945 13.494 7.72652 12.8589C7.99359 12.2239 8.06711 11.5241 7.93785 10.8474C7.80859 10.1707 7.48231 9.5473 6.99997 9.0554V3.5C6.99997 2.83696 6.73658 2.20107 6.26774 1.73223C5.7989 1.26339 5.16301 1 4.49997 1C3.83693 1 3.20105 1.26339 2.73221 1.73223C2.26337 2.20107 1.99997 2.83696 1.99997 3.5V9.0554C1.51764 9.5473 1.19136 10.1707 1.0621 10.8474C0.932839 11.5241 1.00636 12.2239 1.27343 12.8589C1.5405 13.494 1.98921 14.036 2.56325 14.4169ZM3.4398 2.43982C3.72101 2.15861 4.10228 2.00044 4.49997 2C4.89766 2.00044 5.27894 2.15861 5.56015 2.43982C5.84136 2.72103 5.99954 3.10231 5.99997 3.5V9.4917L6.16597 9.64085C6.54353 9.97831 6.80971 10.4225 6.92928 10.9145C7.04885 11.4066 7.01617 11.9234 6.83556 12.3965C6.65496 12.8696 6.33494 13.2766 5.91788 13.5639C5.50081 13.8511 5.00636 14.0048 4.49997 14.0048C3.99358 14.0048 3.49913 13.8511 3.08207 13.5639C2.665 13.2766 2.34499 12.8696 2.16438 12.3965C1.98378 11.9234 1.95109 11.4066 2.07066 10.9145C2.19023 10.4225 2.45641 9.97831 2.83397 9.64085L2.99997 9.4917V3.5C3.00041 3.10231 3.15859 2.72103 3.4398 2.43982ZM9.49997 1H8.49997V3H9.49997V1ZM12.9142 2.37879L11.5 3.79297L12.207 4.5L13.6212 3.08583L12.9142 2.37879ZM15 6.5H13V7.5H15V6.5ZM11.4999 10.207L12.2069 9.5L13.6211 10.9142L12.9141 11.6212L11.4999 10.207ZM8.49997 4.045C8.6651 4.01614 8.83235 4.00109 8.99997 4C9.79562 4 10.5587 4.31607 11.1213 4.87868C11.6839 5.44129 12 6.20435 12 7C12 7.79565 11.6839 8.55871 11.1213 9.12132C10.5587 9.68393 9.79562 10 8.99997 10V9C9.53041 9 10.0391 8.78929 10.4142 8.41421C10.7893 8.03914 11 7.53043 11 7C11 6.46957 10.7893 5.96086 10.4142 5.58579C10.0391 5.21071 9.53041 5 8.99997 5C8.83096 5.00218 8.66293 5.026 8.49997 5.0709V4.045ZM4.99997 10.092V3.5H3.99997V10.092C3.66637 10.2099 3.3852 10.442 3.20616 10.7472C3.02712 11.0524 2.96174 11.4111 3.02157 11.7598C3.08141 12.1086 3.26261 12.4249 3.53314 12.653C3.80368 12.8811 4.14613 13.0062 4.49997 13.0062C4.85382 13.0062 5.19627 12.8811 5.4668 12.653C5.73734 12.4249 5.91853 12.1086 5.97837 11.7598C6.03821 11.4111 5.97283 11.0524 5.79379 10.7472C5.61475 10.442 5.33358 10.2099 4.99997 10.092Z" fill="black"/>
</svg>
