<svg width="16" height="16" viewBox="0 0 16 16" fill="none" xmlns="http://www.w3.org/2000/svg">
<path fill-rule="evenodd" clip-rule="evenodd" d="M1.36203 6.64664C1.12632 6.12952 1.00293 5.5683 1 5C1.00122 3.93951 1.42304 2.9228 2.17292 2.17292C2.9228 1.42304 3.93951 1.00122 5 1V2C4.20462 2.00087 3.44206 2.31722 2.87964 2.87964C2.31722 3.44206 2.00087 4.20462 2 5C1.99901 5.4213 2.08766 5.838 2.26008 6.22241C2.43249 6.60682 2.68471 6.95015 3 7.2296V6H4V9H1V8H2.36745C1.94041 7.62502 1.59774 7.16375 1.36203 6.64664ZM12 4H15V5H13.6326C14.2156 5.50838 14.6382 6.17528 14.8491 6.91952C15.06 7.66377 15.0499 8.45326 14.8202 9.19191C14.5905 9.93055 14.151 10.5865 13.5552 11.0799C12.9595 11.5733 12.2331 11.8828 11.4646 11.9708C11.3866 12.5472 11.1662 13.095 10.8232 13.5647C10.4803 14.0345 10.0256 14.4112 9.50032 14.661C8.97508 14.9108 8.39584 15.0256 7.81504 14.9952C7.23423 14.9647 6.67018 14.7899 6.17393 14.4866C5.67767 14.1833 5.26488 13.761 4.9729 13.258C4.68093 12.755 4.51898 12.1872 4.50171 11.6058C4.48444 11.0245 4.6124 10.448 4.87401 9.92855C5.13562 9.4091 5.52262 8.96308 6 8.63085V3C6 2.46957 6.21071 1.96086 6.58579 1.58579C6.96086 1.21071 7.46957 1 8 1C8.53043 1 9.03914 1.21071 9.41421 1.58579C9.78929 1.96086 10 2.46957 10 3V8.63085C10.3863 8.90196 10.714 9.24811 10.9636 9.64865C11.2132 10.0492 11.3796 10.4959 11.4527 10.9621C12.161 10.8536 12.807 10.4954 13.2742 9.95214C13.7413 9.40889 13.9988 8.71648 14 8C14.001 7.57871 13.9124 7.16202 13.7399 6.77763C13.5675 6.39323 13.3153 6.04992 13 5.7705V7H12V4ZM7.29289 2.29289C7.10536 2.48043 7 2.73478 7 3V6.5H9V3C9 2.73478 8.89464 2.48043 8.70711 2.29289C8.51957 2.10536 8.26522 2 8 2C7.73478 2 7.48043 2.10536 7.29289 2.29289ZM6.47813 13.4843C6.91479 13.8191 7.44976 14.0004 8 14C8.55024 14.0004 9.08521 13.8191 9.52187 13.4843C9.95853 13.1495 10.2724 12.6799 10.4149 12.1484C10.5573 11.6169 10.5203 11.0533 10.3096 10.545C10.0988 10.0367 9.7262 9.61221 9.2495 9.3374L9 9.19285V7.5H7V9.19285L6.7505 9.3374C6.2738 9.61221 5.90117 10.0367 5.69044 10.545C5.47972 11.0533 5.4427 11.6169 5.58513 12.1484C5.72756 12.6799 6.04147 13.1495 6.47813 13.4843Z" fill="black"/>
</svg>
