<svg width="16" height="16" viewBox="0 0 16 16" fill="none" xmlns="http://www.w3.org/2000/svg">
<path fill-rule="evenodd" clip-rule="evenodd" d="M2.88886 6.16294C3.21776 6.3827 3.60444 6.5 4 6.5C4.52996 6.49844 5.03776 6.28723 5.4125 5.9125C5.78723 5.53776 5.99844 5.02996 6 4.5C6 4.10444 5.8827 3.71776 5.66294 3.38886C5.44318 3.05996 5.13082 2.80362 4.76537 2.65224C4.39992 2.50087 3.99778 2.46126 3.60982 2.53843C3.22186 2.6156 2.86549 2.80608 2.58579 3.08579C2.30608 3.36549 2.1156 3.72186 2.03843 4.10982C1.96126 4.49778 2.00087 4.89992 2.15224 5.26537C2.30362 5.63082 2.55996 5.94318 2.88886 6.16294ZM3.44443 3.66853C3.60888 3.55865 3.80222 3.5 4 3.5C4.26498 3.50078 4.51888 3.60639 4.70625 3.79375C4.89362 3.98112 4.99922 4.23502 5 4.5C5 4.69778 4.94135 4.89112 4.83147 5.05557C4.72159 5.22002 4.56541 5.34819 4.38268 5.42388C4.19996 5.49957 3.99889 5.51937 3.80491 5.48079C3.61093 5.4422 3.43275 5.34696 3.29289 5.20711C3.15304 5.06726 3.0578 4.88907 3.01922 4.69509C2.98063 4.50111 3.00043 4.30004 3.07612 4.11732C3.15181 3.93459 3.27998 3.77841 3.44443 3.66853ZM13 4.5V5.5H8.5V8.5H12.5V9.5H8.5V13.5H7.5V4.5H13Z" fill="black"/>
</svg>
