<svg width="16" height="16" viewBox="0 0 16 16" fill="none" xmlns="http://www.w3.org/2000/svg">
<path fill-rule="evenodd" clip-rule="evenodd" d="M6.4872 2.00006H15V3.00006H6.94945C6.98304 3.16461 6.99998 3.33212 7 3.50006V9.05546C7.48233 9.54774 7.8086 10.1715 7.93787 10.8484C8.06715 11.5254 7.99369 12.2254 7.7267 12.8608C7.45971 13.4962 7.01108 14.0386 6.43706 14.42C5.86305 14.8015 5.18919 15.0049 4.5 15.0049C3.81081 15.0049 3.13695 14.8015 2.56293 14.42C1.98892 14.0386 1.54029 13.4962 1.2733 12.8608C1.00631 12.2254 0.932848 11.5254 1.06213 10.8484C1.1914 10.1715 1.51767 9.54774 2 9.05546V3.50006C1.99819 2.97604 2.16165 2.4648 2.46713 2.03903C2.77261 1.61327 3.20456 1.29466 3.70155 1.12853C4.19853 0.962394 4.73525 0.95719 5.23536 1.11366C5.73547 1.27013 6.17352 1.5803 6.4872 2.00006ZM3.0824 13.5609C3.49949 13.8476 3.99387 14.0007 4.5 14.0001C5.00613 14.0007 5.50051 13.8476 5.9176 13.5609C6.3347 13.2742 6.65481 12.8675 6.8355 12.3947C7.01619 11.9219 7.04892 11.4054 6.92935 10.9136C6.80979 10.4218 6.54357 9.97796 6.166 9.64091L6 9.49176V3.50006C6 3.10223 5.84196 2.7207 5.56066 2.4394C5.27936 2.15809 4.89782 2.00006 4.5 2.00006C4.10217 2.00006 3.72064 2.15809 3.43934 2.4394C3.15804 2.7207 3 3.10223 3 3.50006V9.49176L2.834 9.64091C2.45643 9.97796 2.19021 10.4218 2.07065 10.9136C1.95108 11.4054 1.98381 11.9219 2.1645 12.3947C2.34519 12.8675 2.6653 13.2742 3.0824 13.5609ZM5 10.092V3.5H4V10.092C3.66639 10.2099 3.38522 10.442 3.20618 10.7472C3.02714 11.0524 2.96177 11.4111 3.0216 11.7598C3.08144 12.1086 3.26263 12.4249 3.53317 12.653C3.8037 12.8811 4.14616 13.0062 4.5 13.0062C4.85384 13.0062 5.19629 12.8811 5.46683 12.653C5.73736 12.4249 5.91856 12.1086 5.9784 11.7598C6.03823 11.4111 5.97285 11.0524 5.79382 10.7472C5.61478 10.442 5.33361 10.2099 5 10.092ZM13.5 5H10V6H13.5V5ZM15 8H10V9H15V8ZM10 11H13.5V12H10V11Z" fill="black"/>
</svg>
