<svg width="16" height="16" viewBox="0 0 16 16" fill="none" xmlns="http://www.w3.org/2000/svg">
<path fill-rule="evenodd" clip-rule="evenodd" d="M10.8889 4.16294C11.2178 4.3827 11.6044 4.5 12 4.5C12.53 4.49844 13.0378 4.28723 13.4125 3.9125C13.7872 3.53776 13.9984 3.02996 14 2.5C14 2.10444 13.8827 1.71776 13.6629 1.38886C13.4432 1.05996 13.1308 0.803617 12.7654 0.652242C12.3999 0.500867 11.9978 0.46126 11.6098 0.53843C11.2219 0.615601 10.8655 0.806082 10.5858 1.08579C10.3061 1.36549 10.1156 1.72186 10.0384 2.10982C9.96126 2.49778 10.0009 2.89992 10.1522 3.26537C10.3036 3.63082 10.56 3.94318 10.8889 4.16294ZM11.4444 1.66853C11.6089 1.55865 11.8022 1.5 12 1.5C12.265 1.50078 12.5189 1.60639 12.7062 1.79375C12.8936 1.98112 12.9992 2.23502 13 2.5C13 2.69778 12.9414 2.89112 12.8315 3.05557C12.7216 3.22002 12.5654 3.34819 12.3827 3.42388C12.2 3.49957 11.9989 3.51937 11.8049 3.48079C11.6109 3.4422 11.4327 3.34696 11.2929 3.20711C11.153 3.06726 11.0578 2.88907 11.0192 2.69509C10.9806 2.50111 11.0004 2.30004 11.0761 2.11732C11.1518 1.93459 11.28 1.77841 11.4444 1.66853ZM11 15H13C13.265 14.9992 13.5189 14.8936 13.7063 14.7063C13.8936 14.5189 13.9992 14.265 14 14V10.5C14.265 10.4992 14.5189 10.3936 14.7063 10.2063C14.8936 10.0189 14.9992 9.76498 15 9.5V6.5C15.0036 6.30202 14.9673 6.10534 14.8932 5.92171C14.8191 5.73808 14.7088 5.57128 14.5687 5.43126C14.4287 5.29124 14.2619 5.18089 14.0783 5.10679C13.8947 5.03269 13.698 4.99637 13.5 5H10.5C10.302 4.99637 10.1053 5.03269 9.92171 5.10679C9.73808 5.18089 9.57128 5.29124 9.43126 5.43126C9.29124 5.57128 9.18089 5.73808 9.10679 5.92171C9.03269 6.10534 8.99637 6.30202 9 6.5V9.5C9.00078 9.76498 9.10639 10.0189 9.29376 10.2063C9.48112 10.3936 9.73503 10.4992 10 10.5V14C10.0008 14.265 10.1064 14.5189 10.2938 14.7063C10.4811 14.8936 10.735 14.9992 11 15ZM10.304 6.02986C10.3665 6.00615 10.4333 5.99598 10.5 6H13.5C13.5667 5.99598 13.6335 6.00615 13.696 6.02986C13.7585 6.05356 13.8152 6.09025 13.8625 6.13751C13.9098 6.18477 13.9464 6.24151 13.9702 6.304C13.9939 6.36649 14.004 6.43329 14 6.5V9.5H13V14H11V9.5H10V6.5C9.99598 6.43329 10.0062 6.36649 10.0299 6.304C10.0536 6.24151 10.0903 6.18477 10.1375 6.13751C10.1848 6.09025 10.2415 6.05356 10.304 6.02986ZM5 10.092V6H4V10.092C3.6664 10.2099 3.38523 10.442 3.20619 10.7472C3.02715 11.0524 2.96177 11.4111 3.02161 11.7598C3.08144 12.1086 3.26264 12.4249 3.53317 12.653C3.80371 12.8811 4.14616 13.0062 4.5 13.0062C4.85385 13.0062 5.1963 12.8811 5.46683 12.653C5.73737 12.4249 5.91857 12.1086 5.9784 11.7598C6.03824 11.4111 5.97286 11.0524 5.79382 10.7472C5.61478 10.442 5.33361 10.2099 5 10.092ZM2.56328 14.4169C3.13731 14.7978 3.81108 15.0007 4.5 15C5.18892 15.0007 5.86269 14.7978 6.43673 14.4169C7.01076 14.036 7.45948 13.494 7.72655 12.8589C7.99362 12.2239 8.06714 11.5241 7.93788 10.8474C7.80862 10.1707 7.48234 9.5473 7 9.0554V3.5C7 2.83696 6.73661 2.20107 6.26777 1.73223C5.79893 1.26339 5.16304 1 4.5 1C3.83696 1 3.20108 1.26339 2.73224 1.73223C2.2634 2.20107 2 2.83696 2 3.5V9.0554C1.51767 9.5473 1.19139 10.1707 1.06213 10.8474C0.932869 11.5241 1.00639 12.2239 1.27346 12.8589C1.54053 13.494 1.98925 14.036 2.56328 14.4169ZM3.43983 2.43982C3.72104 2.15861 4.10231 2.00044 4.5 2C4.89769 2.00044 5.27897 2.15861 5.56018 2.43982C5.84139 2.72103 5.99957 3.10231 6 3.5V9.4917L6.166 9.64085C6.54356 9.97831 6.80974 10.4225 6.92931 10.9145C7.04888 11.4066 7.0162 11.9234 6.83559 12.3965C6.65499 12.8696 6.33497 13.2766 5.91791 13.5639C5.50084 13.8511 5.00639 14.0048 4.5 14.0048C3.99361 14.0048 3.49916 13.8511 3.0821 13.5639C2.66503 13.2766 2.34502 12.8696 2.16441 12.3965C1.98381 11.9234 1.95113 11.4066 2.07069 10.9145C2.19026 10.4225 2.45644 9.97831 2.834 9.64085L3 9.4917V3.5C3.00044 3.10231 3.15862 2.72103 3.43983 2.43982Z" fill="black"/>
</svg>
