<svg width="16" height="16" viewBox="0 0 16 16" fill="none" xmlns="http://www.w3.org/2000/svg">
<path d="M7 4.5C7.38804 4.50343 7.77141 4.41523 8.11894 4.24257C8.46646 4.06991 8.76833 3.81767 9 3.50635C9.23404 3.81512 9.5364 4.06551 9.88338 4.2379C10.2304 4.41029 10.6125 4.5 11 4.5C11.3874 4.5 11.7696 4.41029 12.1166 4.2379C12.4636 4.06551 12.766 3.81512 13 3.50635C13.2317 3.81767 13.5335 4.06991 13.8811 4.24257C14.2286 4.41523 14.612 4.50343 15 4.5V3.5C14.6595 3.48012 14.3326 3.35937 14.0609 3.15312C13.7892 2.94687 13.585 2.66445 13.4743 2.3418C13.4407 2.24254 13.3769 2.15627 13.2919 2.095C13.2068 2.03373 13.1048 2.00052 13 2C12.8953 1.99921 12.7931 2.03164 12.7081 2.09262C12.623 2.1536 12.5595 2.23998 12.5266 2.33935C12.4161 2.66251 12.2119 2.94547 11.9401 3.15217C11.6682 3.35888 11.3409 3.47996 11 3.5C10.6595 3.48012 10.3326 3.35937 10.0609 3.15312C9.7892 2.94687 9.58502 2.66445 9.47435 2.3418C9.44069 2.24254 9.3769 2.15627 9.29187 2.095C9.20684 2.03373 9.1048 2.00052 9 2C8.895 1.99775 8.79211 2.02961 8.70676 2.0908C8.6214 2.15198 8.55819 2.23919 8.5266 2.33935C8.41612 2.66251 8.21194 2.94547 7.94006 3.15217C7.66819 3.35888 7.34094 3.47996 7 3.5H6.5V3C6.5 2.46957 6.28929 1.96086 5.91421 1.58579C5.53914 1.21071 5.03043 1 4.5 1C3.96957 1 3.46086 1.21071 3.08578 1.58579C2.71071 1.96086 2.5 2.46957 2.5 3V8.63085C1.90555 9.04176 1.45259 9.6263 1.20308 10.3045C0.953572 10.9827 0.919706 11.7214 1.10612 12.4196C1.29253 13.1178 1.69011 13.7413 2.24446 14.2049C2.79882 14.6685 3.48287 14.9494 4.20302 15.0094C4.92317 15.0693 5.64425 14.9052 6.26759 14.5396C6.89094 14.1741 7.3861 13.6248 7.68533 12.967C7.98456 12.3092 8.07324 11.5751 7.93924 10.865C7.80525 10.1549 7.45511 9.5035 6.93675 9H7C7.38804 9.00343 7.77141 8.91523 8.11894 8.74257C8.46646 8.56991 8.76833 8.31767 9 8.00635C9.23404 8.31512 9.5364 8.56551 9.88338 8.7379C10.2304 8.91029 10.6125 9 11 9C11.3874 9 11.7696 8.91029 12.1166 8.7379C12.4636 8.56551 12.766 8.31512 13 8.00635C13.2317 8.31767 13.5335 8.56991 13.8811 8.74257C14.2286 8.91523 14.612 9.00343 15 9V8C14.6595 7.98012 14.3326 7.85937 14.0609 7.65312C13.7892 7.44687 13.585 7.16445 13.4743 6.8418C13.4407 6.74255 13.3769 6.65627 13.2919 6.595C13.2068 6.53373 13.1048 6.50052 13 6.5C12.8953 6.49921 12.7931 6.53164 12.7081 6.59262C12.623 6.65359 12.5595 6.73998 12.5266 6.83935C12.4161 7.16251 12.2119 7.44547 11.9401 7.65217C11.6682 7.85888 11.3409 7.97996 11 8C10.6595 7.98012 10.3326 7.85937 10.0609 7.65312C9.7892 7.44687 9.58502 7.16445 9.47435 6.8418C9.44069 6.74255 9.3769 6.65627 9.29187 6.595C9.20684 6.53373 9.1048 6.50052 9 6.5C8.895 6.49775 8.79211 6.52961 8.70676 6.5908C8.6214 6.65198 8.55819 6.73919 8.5266 6.83935C8.41612 7.16251 8.21194 7.44547 7.94006 7.65217C7.66819 7.85888 7.34094 7.97996 7 8H6.5V4.5H7ZM3.5 3C3.5 2.73478 3.60536 2.48043 3.79289 2.29289C3.98043 2.10536 4.23478 2 4.5 2C4.76522 2 5.01957 2.10536 5.20711 2.29289C5.39464 2.48043 5.5 2.73478 5.5 3V6H3.5V3ZM4.5 14C3.94976 14.0004 3.41478 13.8191 2.97813 13.4843C2.54147 13.1495 2.22756 12.6799 2.08513 12.1484C1.9427 11.6169 1.97972 11.0533 2.19044 10.545C2.40116 10.0367 2.7738 9.61221 3.2505 9.3374L3.5 9.19285V7H5.5V9.19285L5.7495 9.3374C6.2262 9.61221 6.59883 10.0367 6.80955 10.545C7.02028 11.0533 7.0573 11.6169 6.91487 12.1484C6.77244 12.6799 6.45853 13.1495 6.02187 13.4843C5.58521 13.8191 5.05024 14.0004 4.5 14Z" fill="black"/>
</svg>
