<svg width="16" height="16" viewBox="0 0 16 16" fill="none" xmlns="http://www.w3.org/2000/svg">
<path fill-rule="evenodd" clip-rule="evenodd" d="M12 2C12 1.44772 11.5523 1 11 1C10.4477 1 10 1.44772 10 2C10 2.55228 10.4477 3 11 3C11.5523 3 12 2.55228 12 2ZM5.49998 8.00004C5.40111 8.00002 5.30446 7.97068 5.22226 7.91574C5.14005 7.8608 5.07598 7.78272 5.03815 7.69137C5.00031 7.60002 4.99041 7.4995 5.00969 7.40252C5.02898 7.30555 5.07658 7.21647 5.14649 7.14654L8.64648 3.64654C8.69261 3.59879 8.74778 3.56069 8.80878 3.53449C8.86978 3.50829 8.9354 3.49449 9.00179 3.49392C9.06817 3.49334 9.13401 3.50599 9.19546 3.53113C9.25691 3.55627 9.31274 3.5934 9.35968 3.64034C9.40663 3.68729 9.44376 3.74312 9.4689 3.80456C9.49404 3.86601 9.50669 3.93185 9.50611 3.99824C9.50553 4.06463 9.49174 4.13024 9.46554 4.19124C9.43933 4.25224 9.40124 4.30742 9.35349 4.35354L5.85349 7.85354C5.80713 7.90006 5.75203 7.93695 5.69136 7.96209C5.6307 7.98723 5.56566 8.00013 5.49998 8.00004ZM9.49351 11.042C10.3774 11.1505 11.2039 11.5373 11.8535 12.1465L14 14.293L13.293 15L11.1463 12.8535C10.5509 12.3286 9.79155 12.0269 8.99821 12H6.49981V11.9876C6.46982 11.9862 6.43989 11.9851 6.40996 11.9841C6.33662 11.9815 6.26323 11.9788 6.18866 11.971C4.87017 11.8188 3.64136 11.227 2.70036 10.291C0.872313 8.46438 0.239013 5.18582 2.21036 3.21657C3.42956 1.99807 5.33081 1.66652 7.17236 2.35077L6.82301 3.28827C5.33166 2.73377 3.87171 2.97112 2.91831 3.92377C1.37061 5.46997 1.92221 8.09877 3.40856 9.58377C4.18656 10.3591 5.20305 10.8497 6.29406 10.9766C6.79559 11.0462 7.30638 11.0012 7.78799 10.8449C8.2696 10.6886 8.70949 10.4251 9.07456 10.0742C10.028 9.12187 10.2657 7.66337 9.71066 6.17312L10.6491 5.82447C10.9989 6.64615 11.1032 7.55158 10.9494 8.43128C10.7956 9.31098 10.3902 10.1273 9.78236 10.7815C9.69006 10.8738 9.59311 10.96 9.49351 11.042Z" fill="black"/>
</svg>
