<svg width="16" height="16" viewBox="0 0 16 16" fill="none" xmlns="http://www.w3.org/2000/svg">
<path fill-rule="evenodd" clip-rule="evenodd" d="M2 13H3.5V12H2V4H3.5V3H2C1.73486 3.00026 1.48066 3.10571 1.29319 3.29319C1.10571 3.48066 1.00026 3.73486 1 4V12C1.0003 12.2651 1.10576 12.5193 1.29323 12.7068C1.4807 12.8942 1.73488 12.9997 2 13ZM14 13H12.5V12H14V4H12.5V3H14C14.2651 3.0003 14.5193 3.10576 14.7068 3.29323C14.8942 3.4807 14.9997 3.73488 15 4V12C14.9996 12.2651 14.8942 12.5193 14.7067 12.7067C14.5193 12.8942 14.2651 12.9996 14 13ZM11.5 9C12.0523 9 12.5 8.55228 12.5 8C12.5 7.44772 12.0523 7 11.5 7C10.9477 7 10.5 7.44772 10.5 8C10.5 8.55228 10.9477 9 11.5 9ZM9 8C9 8.55228 8.55228 9 8 9C7.44772 9 7 8.55228 7 8C7 7.44772 7.44772 7 8 7C8.55228 7 9 7.44772 9 8ZM4.5 9C5.05228 9 5.5 8.55228 5.5 8C5.5 7.44772 5.05228 7 4.5 7C3.94772 7 3.5 7.44772 3.5 8C3.5 8.55228 3.94772 9 4.5 9Z" fill="black"/>
</svg>
