<svg width="16" height="16" viewBox="0 0 16 16" fill="none" xmlns="http://www.w3.org/2000/svg">
<path fill-rule="evenodd" clip-rule="evenodd" d="M9 12H8L7.15355 9.5H3.8468L3 12H2L5 3.5H6L9 12ZM5.43385 4.81445L4.18555 8.5H6.815L5.56725 4.8147L5.43385 4.81445ZM10 6H12.5C12.8977 6.00044 13.279 6.15861 13.5602 6.43982C13.8414 6.72103 13.9996 7.10231 14 7.5V12H11C10.6023 11.9996 10.221 11.8414 9.93982 11.5602C9.65861 11.279 9.50044 10.8977 9.5 10.5V10C9.50044 9.60231 9.65861 9.22103 9.93982 8.93982C10.221 8.65861 10.6023 8.50044 11 8.5H13V7.5C12.9999 7.36742 12.9472 7.24031 12.8534 7.14656C12.7597 7.05282 12.6326 7.00011 12.5 7H10V6ZM10.6466 10.8534C10.7403 10.9472 10.8674 10.9999 11 11H13V9.5H11C10.8674 9.50011 10.7403 9.55282 10.6466 9.64656C10.5528 9.74031 10.5001 9.86742 10.5 10V10.5C10.5001 10.6326 10.5528 10.7597 10.6466 10.8534Z" fill="black"/>
</svg>
