<svg width="16" height="16" viewBox="0 0 16 16" fill="none" xmlns="http://www.w3.org/2000/svg">
<path fill-rule="evenodd" clip-rule="evenodd" d="M1 1H7V2H1V1ZM7 3H1V4H7V3ZM1 5H5V6H1V5ZM9.35305 13.7926C8.83249 13.7929 8.32353 13.6388 7.89057 13.3498C7.45762 13.0608 7.12014 12.6498 6.92086 12.1689C6.72157 11.688 6.66944 11.1588 6.77105 10.6483C6.87267 10.1377 7.12347 9.6688 7.4917 9.30086L8.1992 10.0079C7.89313 10.3139 7.72116 10.7289 7.72111 11.1617C7.72107 11.5946 7.89296 12.0097 8.19898 12.3157C8.50499 12.6218 8.92006 12.7938 9.35287 12.7938C9.78568 12.7939 10.2008 12.622 10.5069 12.316L13.5219 9.30096C13.8279 8.99488 13.9998 8.57977 13.9998 8.14693C13.9998 7.7141 13.8278 7.299 13.5218 6.99296C13.2157 6.68691 12.8006 6.51498 12.3677 6.515C11.9349 6.51502 11.5198 6.68698 11.2138 6.99306L10.5068 6.28606C11.0003 5.79247 11.6697 5.51516 12.3677 5.51514C12.7134 5.51513 13.0556 5.58319 13.3749 5.71544C13.6942 5.8477 13.9844 6.04155 14.2288 6.28593C14.4732 6.53031 14.6671 6.82044 14.7993 7.13975C14.9316 7.45906 14.9997 7.8013 14.9997 8.14692C14.9997 8.49254 14.9316 8.83478 14.7994 9.1541C14.6671 9.47341 14.4733 9.76356 14.2289 10.008L11.2139 13.023C10.9697 13.2675 10.6796 13.4614 10.3603 13.5934C10.0409 13.7255 9.69863 13.7932 9.35305 13.7926ZM5.1321 14.9985C4.6116 14.9988 4.10274 14.8446 3.66988 14.5555C3.23703 14.2665 2.89964 13.8555 2.7004 13.3747C2.50117 12.8938 2.44903 12.3647 2.5506 11.8542C2.65217 11.3437 2.90288 10.8748 3.271 10.5068L6.286 7.49184C6.53004 7.24592 6.82024 7.0506 7.13995 6.9171C7.45965 6.7836 7.80257 6.71453 8.14903 6.71387C8.49549 6.71321 8.83868 6.78096 9.15889 6.91324C9.4791 7.04552 9.77005 7.23972 10.015 7.4847C10.26 7.72969 10.4542 8.02063 10.5865 8.34085C10.7188 8.66106 10.7865 9.00424 10.7859 9.3507C10.7852 9.69716 10.7161 10.0401 10.5826 10.3598C10.4491 10.6795 10.2538 10.9697 10.0079 11.2137L9.3009 10.5067C9.45362 10.3555 9.57494 10.1755 9.65791 9.97719C9.74087 9.77889 9.78384 9.56615 9.78435 9.35119C9.78486 9.13623 9.7429 8.92329 9.66087 8.72459C9.57884 8.5259 9.45837 8.34537 9.30637 8.19337C9.15437 8.04137 8.97384 7.92089 8.77514 7.83887C8.57645 7.75684 8.36351 7.71488 8.14855 7.71538C7.93359 7.71589 7.72085 7.75886 7.52254 7.84183C7.32424 7.9248 7.14428 8.04612 6.993 8.19884L3.978 11.2138C3.67411 11.5203 3.504 11.9347 3.50491 12.3663C3.50582 12.798 3.67767 13.2116 3.98285 13.5168C4.28803 13.8221 4.70168 13.9939 5.1333 13.9949C5.56491 13.9959 5.97932 13.8258 6.28585 13.5219L6.99285 14.229C6.74869 14.4735 6.4586 14.6674 6.13927 14.7995C5.81994 14.9315 5.47766 14.9992 5.1321 14.9985Z" fill="black"/>
</svg>
