<svg width="16" height="16" viewBox="0 0 16 16" fill="none" xmlns="http://www.w3.org/2000/svg">
<path d="M14 7.50003H8.97815C8.75205 7.43818 8.5263 7.38383 8.3091 7.33243C6.90525 7.00038 6.1111 6.75713 6.1111 5.62088C6.09969 5.4247 6.12871 5.22827 6.19636 5.04378C6.26402 4.85929 6.36887 4.69066 6.5044 4.54838C6.92919 4.19904 7.46128 4.0066 8.01125 4.00338C9.4258 3.96838 10.0786 4.44808 10.6118 5.17838L11.4194 4.58878C11.0415 4.04589 10.5262 3.61307 9.92623 3.33454C9.32623 3.05602 8.66305 2.94177 8.00445 3.00348C7.19545 3.00864 6.41503 3.30327 5.80445 3.83403C5.57305 4.06874 5.39217 4.34837 5.27297 4.65566C5.15376 4.96296 5.09876 5.29141 5.11135 5.62078C5.08943 5.98129 5.15717 6.34161 5.30852 6.66954C5.45986 6.99748 5.6901 7.28281 5.97865 7.50003H2V8.50003H8.82595C9.80935 8.78503 10.3975 9.15618 10.4126 10.179C10.4288 10.3975 10.3988 10.617 10.3245 10.8232C10.2503 11.0294 10.1334 11.2176 9.98145 11.3755C9.4524 11.7925 8.79512 12.0132 8.1216 12C7.61884 11.9854 7.12598 11.8567 6.6803 11.6236C6.23462 11.3905 5.84778 11.0591 5.54905 10.6544L4.78245 11.2965C5.17082 11.8141 5.67191 12.2364 6.24773 12.5316C6.82356 12.8267 7.45902 12.9869 8.10595 13C8.11035 12.9994 8.12695 13 8.15595 13C9.07935 13.0107 9.97558 12.6878 10.68 12.0906C10.93 11.8386 11.1243 11.5369 11.2505 11.205C11.3766 10.8732 11.4318 10.5186 11.4124 10.1641C11.4311 9.55771 11.2266 8.96557 10.8377 8.50003H14V7.50003Z" fill="black"/>
</svg>
