<svg width="16" height="16" viewBox="0 0 16 16" fill="none" xmlns="http://www.w3.org/2000/svg">
<path fill-rule="evenodd" clip-rule="evenodd" d="M12.875 6.925C12.9589 7.02 13.0036 7.14331 13 7.27V7.285V10.5C13 10.6326 12.9473 10.7598 12.8536 10.8536C12.7598 10.9473 12.6326 11 12.5 11C12.3674 11 12.2402 10.9473 12.1464 10.8536C12.0527 10.7598 12 10.6326 12 10.5V8.4L7.125 12.87C7.03384 12.9529 6.91538 12.9991 6.79237 13H14V15H2V13H6.76C6.62768 12.9929 6.50359 12.9335 6.415 12.835L2.13 8.075C2.04075 7.97741 1.99379 7.84843 1.99941 7.71631C2.00504 7.58418 2.06278 7.45966 2.16 7.37L7.5 2.5V1H8.5V2.1C8.53039 2.11883 8.55886 2.1406 8.585 2.165L12.875 6.925ZM3.21 7.77L6.825 11.77L11.795 7.23L8.5 3.565V6H7.5V3.835L3.21 7.77Z" fill="black"/>
</svg>
