<svg width="16" height="16" viewBox="0 0 16 16" fill="none" xmlns="http://www.w3.org/2000/svg">
<path fill-rule="evenodd" clip-rule="evenodd" d="M2 10H4V11H2C1.73478 11 1.48043 10.8946 1.29289 10.7071C1.10536 10.5196 1 10.2652 1 10V2C1 1.73478 1.10536 1.48043 1.29289 1.29289C1.48043 1.10536 1.73478 1 2 1H10C10.2652 1 10.5196 1.10536 10.7071 1.29289C10.8946 1.48043 11 1.73478 11 2V4H10V2H2V10ZM6.5 8.5V5H8V4H4V5H5.5V8.5H6.5ZM14.7685 6.87999L13.12 5.23149C12.9713 5.08325 12.7699 5 12.56 5C12.3501 5 12.1487 5.08325 12 5.23149L5 12.2337V15H7.7663L14.7685 7.99999C14.9167 7.85132 15 7.64994 15 7.43999C15 7.23004 14.9167 7.02866 14.7685 6.87999ZM7.3521 14H6V12.6479L10.7205 7.92744L12.0725 9.27954L7.3521 14ZM12.7795 8.57249L11.4275 7.22044L12.5611 6.08684L13.9132 7.43894L12.7795 8.57249Z" fill="black"/>
</svg>
