<svg width="16" height="16" viewBox="0 0 16 16" fill="none" xmlns="http://www.w3.org/2000/svg">
<path fill-rule="evenodd" clip-rule="evenodd" d="M14 6H12.925L12.525 5H9.975L9.575 6H8.5L10.68 1H11.82L14 6ZM11.25 1.815L10.375 4H12.125L11.25 1.815ZM7 6.5H15V7.5H7V6.5ZM15 14V15H7.5V14H15ZM12.925 13.5H14L11.82 8.5H10.68L8.5 13.5H9.575L9.975 12.5H12.525L12.925 13.5ZM10.375 11.5L11.25 9.315L12.125 11.5H10.375ZM3 7.915L4.29 9.205L5 8.5L3 6.5L1 8.5L1.705 9.21L3 7.915ZM1.71 12.295L3 13.585L4.295 12.29L5 13L3 15L1 13L1.71 12.295Z" fill="black"/>
</svg>
