<svg width="16" height="16" viewBox="0 0 16 16" fill="none" xmlns="http://www.w3.org/2000/svg">
<path fill-rule="evenodd" clip-rule="evenodd" d="M6 7.5H2.5C2.10218 7.5 1.72064 7.34196 1.43934 7.06066C1.15804 6.77936 1 6.39782 1 6V5C1 4.60218 1.15804 4.22064 1.43934 3.93934C1.72064 3.65804 2.10218 3.5 2.5 3.5H5V2.5C5 2.36739 4.94732 2.24021 4.85355 2.14645C4.75979 2.05268 4.63261 2 4.5 2H1.5V1H4.5C4.89782 1 5.27936 1.15804 5.56066 1.43934C5.84196 1.72064 6 2.10218 6 2.5V7.5ZM2.5 4.5C2.36739 4.5 2.24021 4.55268 2.14645 4.64645C2.05268 4.74021 2 4.86739 2 5V6C2 6.13261 2.05268 6.25979 2.14645 6.35355C2.24021 6.44732 2.36739 6.5 2.5 6.5H5V4.5H2.5ZM10 11.5V12.5C10 12.6326 10.0527 12.7598 10.1464 12.8536C10.2402 12.9473 10.3674 13 10.5 13H13V11H10.5C10.3674 11 10.2402 11.0527 10.1464 11.1464C10.0527 11.2402 10 11.3674 10 11.5ZM15 15H1L15 1V15ZM10.5 14H14V9C14 8.60218 13.842 8.22064 13.5607 7.93934C13.2794 7.65804 12.8978 7.5 12.5 7.5H9.5V8.5H12.5C12.6326 8.5 12.7598 8.55268 12.8536 8.64645C12.9473 8.74021 13 8.86739 13 9V10H10.5C10.1022 10 9.72064 10.158 9.43934 10.4393C9.15804 10.7206 9 11.1022 9 11.5V12.5C9 12.8978 9.15804 13.2794 9.43934 13.5607C9.72064 13.842 10.1022 14 10.5 14Z" fill="black"/>
</svg>
