<svg width="16" height="16" viewBox="0 0 16 16" fill="none" xmlns="http://www.w3.org/2000/svg">
<path fill-rule="evenodd" clip-rule="evenodd" d="M5.17115 9.00195L2.35555 14H15V15H2C1.73488 14.9997 1.4807 14.8942 1.29323 14.7068C1.10576 14.5193 1.0003 14.2651 1 14V1H2V12.5913L4.2917 8.5171C4.36431 8.38579 4.46548 8.27248 4.58776 8.18552C4.71004 8.09857 4.85029 8.04019 4.99815 8.01472C5.14602 7.98924 5.29771 7.99731 5.44204 8.03833C5.58637 8.07934 5.71964 8.15226 5.832 8.2517L9.54925 11.4971L9.58425 11.4453L13.0843 6.2217L13.9153 6.7783L10.43 11.98C10.3578 12.1119 10.2568 12.2258 10.1344 12.3133C10.0121 12.4007 9.87162 12.4595 9.72345 12.4851C9.57528 12.5108 9.42323 12.5027 9.27862 12.4615C9.134 12.4202 9.00056 12.3469 8.8882 12.247L5.17115 9.00195ZM10 1H4V2H10V1ZM4 3H10V4H4V3ZM4 5H8V6H4V5Z" fill="black"/>
</svg>
