<svg width="16" height="16" viewBox="0 0 16 16" fill="none" xmlns="http://www.w3.org/2000/svg">
<g clip-path="url(#clip0_3_10783)">
<path fill-rule="evenodd" clip-rule="evenodd" d="M13.5 4.92993V11.0699C13.8426 11.1567 14.156 11.3328 14.4084 11.5801C14.6608 11.8274 14.8432 12.1372 14.937 12.4779C15.0308 12.8186 15.0326 13.1781 14.9423 13.5197C14.852 13.8614 14.6728 14.173 14.4229 14.4229C14.1731 14.6728 13.8614 14.852 13.5198 14.9423C13.1781 15.0326 12.8186 15.0307 12.4779 14.9369C12.1372 14.8432 11.8274 14.6608 11.5801 14.4084C11.3328 14.1559 11.1568 13.8425 11.07 13.4999H4.93C4.84319 13.8425 4.66717 14.1559 4.41986 14.4084C4.17255 14.6608 3.86277 14.8432 3.52206 14.9369C3.18134 15.0307 2.82187 15.0326 2.48022 14.9423C2.13856 14.852 1.82694 14.6728 1.57706 14.4229C1.32718 14.173 1.14797 13.8614 1.05767 13.5197C0.967369 13.1781 0.969206 12.8186 1.06299 12.4779C1.15678 12.1372 1.33916 11.8274 1.59158 11.5801C1.844 11.3328 2.15744 11.1567 2.5 11.0699V4.92993C2.15744 4.84313 1.844 4.66711 1.59158 4.4198C1.33916 4.17248 1.15678 3.86271 1.06299 3.52199C0.969206 3.18128 0.967369 2.82181 1.05767 2.48015C1.14797 2.1385 1.32718 1.82688 1.57706 1.577C1.82694 1.32712 2.13856 1.14791 2.48022 1.05761C2.82187 0.967308 3.18134 0.969145 3.52206 1.06293C3.86277 1.15671 4.17255 1.3391 4.41986 1.59152C4.66717 1.84394 4.84319 2.15738 4.93 2.49993H11.07C11.1568 2.15738 11.3328 1.84394 11.5801 1.59152C11.8274 1.3391 12.1372 1.15671 12.4779 1.06293C12.8186 0.969145 13.1781 0.967308 13.5198 1.05761C13.8614 1.14791 14.1731 1.32712 14.4229 1.577C14.6728 1.82688 14.852 2.1385 14.9423 2.48015C15.0326 2.82181 15.0308 3.18128 14.937 3.52199C14.8432 3.86271 14.6608 4.17248 14.4084 4.4198C14.156 4.66711 13.8426 4.84313 13.5 4.92993ZM13.5556 2.16846C13.3911 2.05858 13.1978 1.99993 13 1.99993C12.7348 1.99993 12.4804 2.10529 12.2929 2.29283C12.1054 2.48036 12 2.73472 12 2.99993C12 3.19772 12.0586 3.39106 12.1685 3.5555C12.2784 3.71995 12.4346 3.84813 12.6173 3.92381C12.8 3.9995 13.0011 4.0193 13.1951 3.98072C13.3891 3.94213 13.5673 3.84689 13.7071 3.70704C13.847 3.56719 13.9422 3.38901 13.9808 3.19502C14.0194 3.00104 13.9996 2.79998 13.9239 2.61725C13.8482 2.43452 13.72 2.27835 13.5556 2.16846ZM2.16853 2.44436C2.05864 2.60881 2 2.80215 2 2.99993C2 3.26515 2.10535 3.5195 2.29289 3.70704C2.48042 3.89458 2.73478 3.99993 3 3.99993C3.19778 3.99993 3.39112 3.94129 3.55557 3.8314C3.72001 3.72152 3.84819 3.56534 3.92387 3.38262C3.99956 3.19989 4.01937 2.99882 3.98078 2.80484C3.9422 2.61086 3.84695 2.43268 3.7071 2.29283C3.56725 2.15297 3.38907 2.05773 3.19509 2.01915C3.0011 1.98056 2.80004 2.00037 2.61731 2.07605C2.43459 2.15174 2.27841 2.27991 2.16853 2.44436ZM2.44442 13.8314C2.60887 13.9413 2.80221 13.9999 3 13.9999C3.26521 13.9999 3.51957 13.8946 3.7071 13.707C3.89464 13.5195 4 13.2652 4 12.9999C4 12.8022 3.94135 12.6088 3.83146 12.4444C3.72158 12.2799 3.5654 12.1517 3.38268 12.0761C3.19995 12.0004 2.99889 11.9806 2.8049 12.0191C2.61092 12.0577 2.43274 12.153 2.29289 12.2928C2.15304 12.4327 2.05779 12.6109 2.01921 12.8048C1.98062 12.9988 2.00043 13.1999 2.07612 13.3826C2.1518 13.5653 2.27998 13.7215 2.44442 13.8314ZM4.93 12.4999H11.07C11.1598 12.156 11.3396 11.8422 11.5909 11.5909C11.8423 11.3395 12.1561 11.1597 12.5 11.0699V4.92993C12.1561 4.84015 11.8423 4.66034 11.5909 4.40899C11.3396 4.15765 11.1598 3.84386 11.07 3.49993H4.93C4.84022 3.84386 4.6604 4.15765 4.40906 4.40899C4.15771 4.66034 3.84392 4.84015 3.5 4.92993V11.0699C3.84392 11.1597 4.15771 11.3395 4.40906 11.5909C4.6604 11.8422 4.84022 12.156 4.93 12.4999ZM12.4444 13.8314C12.6089 13.9413 12.8022 13.9999 13 13.9999C13.2652 13.9999 13.5196 13.8946 13.7071 13.707C13.8946 13.5195 14 13.2652 14 12.9999C14 12.8022 13.9413 12.6088 13.8315 12.4444C13.7216 12.2799 13.5654 12.1517 13.3827 12.0761C13.2 12.0004 12.9989 11.9806 12.8049 12.0191C12.6109 12.0577 12.4327 12.153 12.2929 12.2928C12.153 12.4327 12.0578 12.6109 12.0192 12.8048C11.9806 12.9988 12.0004 13.1999 12.0761 13.3826C12.1518 13.5653 12.28 13.7215 12.4444 13.8314ZM5.49999 5.5H10.5V6.5H8.49999V11H7.49999V6.5H5.49999V5.5Z" fill="black"/>
</g>
<defs>
<clipPath id="clip0_3_10783">
<rect width="16" height="16" fill="white"/>
</clipPath>
</defs>
</svg>
