<svg width="16" height="16" viewBox="0 0 16 16" fill="none" xmlns="http://www.w3.org/2000/svg">
<path fill-rule="evenodd" clip-rule="evenodd" d="M5.52513 10.4749C6.1815 11.1313 7.07174 11.5 8 11.5C8.92826 11.5 9.8185 11.1313 10.4749 10.4749C11.1313 9.8185 11.5 8.92826 11.5 8V2.5H10.5V8C10.5 8.66304 10.2366 9.29893 9.76777 9.76777C9.29893 10.2366 8.66304 10.5 8 10.5C7.33696 10.5 6.70107 10.2366 6.23223 9.76777C5.76339 9.29893 5.5 8.66304 5.5 8V2.5H4.5V8C4.5 8.92826 4.86875 9.8185 5.52513 10.4749ZM2 14V13H14V14H2Z" fill="black"/>
</svg>
