<svg width="16" height="16" viewBox="0 0 16 16" fill="none" xmlns="http://www.w3.org/2000/svg">
<path fill-rule="evenodd" clip-rule="evenodd" d="M2 1H1V8H2V1ZM4.5 2H7C7.26512 2.0003 7.5193 2.10576 7.70677 2.29323C7.89424 2.4807 7.9997 2.73488 8 3V7H5C4.73478 7 4.48043 6.89464 4.29289 6.70711C4.10536 6.51957 4 6.26522 4 6V5C4 4.73478 4.10536 4.48043 4.29289 4.29289C4.48043 4.10536 4.73478 4 5 4H7V3H4.5V2ZM5 6H7V5H5V6ZM11 9V13H12V14H9V13H10V10.5H9V9.5H10V9H11ZM14 8H15V15H14V8Z" fill="black"/>
</svg>
