<svg width="16" height="16" viewBox="0 0 16 16" fill="none" xmlns="http://www.w3.org/2000/svg">
<path fill-rule="evenodd" clip-rule="evenodd" d="M3 2H13C13.2651 2.0003 13.5193 2.10576 13.7068 2.29323C13.8942 2.4807 13.9997 2.73488 14 3V13C13.9997 13.2651 13.8942 13.5193 13.7068 13.7068C13.5193 13.8942 13.2651 13.9997 13 14H3C2.73489 13.9997 2.48072 13.8942 2.29326 13.7067C2.10579 13.5193 2.00033 13.2651 2 13V3C2.00033 2.73489 2.10579 2.48072 2.29326 2.29326C2.48072 2.10579 2.73489 2.00033 3 2ZM13 3H3V13H4V12H5V13H6V12H7V13H8V12H9V13H10V12H11V13H12V12H13V11H12V10H13V9H12V8H13V3ZM4 10H5V11H4V10ZM7 10H6V11H7V10ZM8 10H9V11H8V10ZM11 10H10V11H11V10ZM4 8H5V9H4V8ZM9 8H8V9H9V8ZM10 8H11V9H10V8ZM11 6H10V7H11V6ZM10 4H11V5H10V4Z" fill="black"/>
</svg>
