<svg width="16" height="16" viewBox="0 0 16 16" fill="none" xmlns="http://www.w3.org/2000/svg">
<path fill-rule="evenodd" clip-rule="evenodd" d="M1 1H3.5V8H1V1ZM4.5 1H11.5C12.4279 1.00103 13.3176 1.37011 13.9737 2.02627C14.6299 2.68242 14.999 3.57206 15 4.5V8C14.9994 8.53025 14.7885 9.03861 14.4136 9.41356C14.0386 9.7885 13.5303 9.9994 13 10H9V13C8.99956 13.3977 8.84139 13.779 8.56018 14.0602C8.27897 14.3414 7.89769 14.4996 7.5 14.5H7.4336C7.19316 14.499 6.96106 14.4118 6.77943 14.2543C6.5978 14.0967 6.4787 13.8792 6.44375 13.6413L6.0211 10.6831L4.5 8.40135V1Z" fill="black"/>
</svg>
