<svg width="16" height="16" viewBox="0 0 16 16" fill="none" xmlns="http://www.w3.org/2000/svg">
<g clip-path="url(#clip0_3_10701)">
<path fill-rule="evenodd" clip-rule="evenodd" d="M15.9558 5.96773L12.8142 0.185282C12.7831 0.129147 12.7376 0.0823542 12.6823 0.04977C12.6271 0.0171857 12.5641 0 12.5 0C12.4358 0 12.3728 0.0171857 12.3176 0.04977C12.2623 0.0823542 12.2168 0.129147 12.1858 0.185282L9.04417 5.96773C9.0143 6.02254 8.9992 6.08417 9.00034 6.14658C9.00149 6.20899 9.01884 6.27002 9.05069 6.3237C9.08254 6.37738 9.12781 6.42185 9.18204 6.45276C9.23627 6.48366 9.2976 6.49994 9.36001 6.49998H15.64C15.7024 6.49992 15.7637 6.48363 15.818 6.45272C15.8722 6.42181 15.9174 6.37733 15.9493 6.32366C15.9811 6.26998 15.9984 6.20895 15.9996 6.14656C16.0007 6.08416 15.9856 6.02253 15.9558 5.96773ZM12.125 1.99998H12.875V3.99998H12.125V1.99998ZM12.5 5.49998C12.4011 5.49998 12.3045 5.47066 12.2222 5.41572C12.14 5.36078 12.0759 5.28269 12.0381 5.19132C12.0002 5.09996 11.9903 4.99943 12.0096 4.90244C12.0289 4.80545 12.0765 4.71636 12.1465 4.64643C12.2164 4.5765 12.3055 4.52888 12.4025 4.50959C12.4995 4.4903 12.6 4.5002 12.6914 4.53804C12.7827 4.57589 12.8608 4.63997 12.9158 4.7222C12.9707 4.80442 13 4.90109 13 4.99998C13 5.13259 12.9473 5.25977 12.8536 5.35354C12.7598 5.4473 12.6326 5.49998 12.5 5.49998ZM14 7.75C13.9967 7.66627 13.9886 7.5828 13.9758 7.5H14.9778C14.9802 7.53054 14.9838 7.56081 14.9875 7.59108L14.9875 7.59109C14.9937 7.64359 15 7.69609 15 7.75C14.999 8.61165 14.6563 9.43772 14.047 10.047C13.4377 10.6563 12.6117 10.999 11.75 11H11.5V10H11.75C12.3466 9.99935 12.9185 9.76209 13.3403 9.34027C13.7621 8.91846 13.9994 8.34654 14 7.75ZM7.95051 15.248L7.08251 14.752L8.65451 12H5.65501L8.08251 7.75195L8.95051 8.24795L7.37801 11H10.3785L7.95051 15.248ZM10.2565 14.9368C10.331 14.9783 10.4148 15.0001 10.5 15.0001C10.5929 15.0002 10.684 14.9743 10.763 14.9255C10.842 14.8766 10.9058 14.8067 10.9472 14.7235L11.9472 12.7235C11.9769 12.6648 11.9946 12.6007 11.9995 12.5351C12.0044 12.4694 11.9963 12.4035 11.9756 12.341C11.9549 12.2785 11.9221 12.2207 11.879 12.1709C11.8359 12.1211 11.7834 12.0803 11.7246 12.0509C11.6657 12.0214 11.6016 12.0039 11.5359 11.9993C11.4702 11.9947 11.4043 12.0031 11.3419 12.024C11.2795 12.0449 11.2218 12.078 11.1722 12.1213C11.1226 12.1645 11.082 12.2172 11.0528 12.2762L10.0528 14.2764C10.0147 14.3526 9.99667 14.4374 10.0005 14.5225C10.0043 14.6077 10.0298 14.6904 10.0746 14.7629C10.1194 14.8355 10.1821 14.8953 10.2565 14.9368ZM4.2565 15.9368C4.33095 15.9783 4.41478 16.0001 4.50002 16.0001C4.59291 16.0002 4.68398 15.9743 4.76297 15.9255C4.84197 15.8766 4.90576 15.8067 4.94717 15.7235L5.94717 13.7235C5.97685 13.6648 5.99464 13.6007 5.99952 13.5351C6.00439 13.4694 5.99625 13.4035 5.97557 13.341C5.95489 13.2785 5.92207 13.2207 5.879 13.1709C5.83592 13.1211 5.78344 13.0803 5.72457 13.0509C5.66569 13.0214 5.60158 13.0039 5.53591 12.9993C5.47024 12.9947 5.40431 13.0031 5.3419 13.024C5.27949 13.0449 5.22182 13.078 5.17221 13.1213C5.12261 13.1645 5.08203 13.2172 5.05282 13.2762L4.05282 15.2764C4.01468 15.3526 3.99667 15.4374 4.00049 15.5225C4.00431 15.6077 4.02983 15.6904 4.07464 15.7629C4.11945 15.8355 4.18205 15.8953 4.2565 15.9368ZM4.47971 5.47761L4.07206 5.50956C3.49277 5.55537 2.9537 5.82366 2.56786 6.25817C2.18201 6.69269 1.97936 7.2597 2.00237 7.84035C2.02538 8.421 2.27227 8.97019 2.69128 9.37282C3.1103 9.77544 3.66891 10.0002 4.25001 10.0001H4.50001V10.0051C4.57728 10.0031 4.65393 10.0194 4.72366 10.0528C4.78239 10.0822 4.83477 10.1228 4.87779 10.1724C4.92081 10.222 4.95364 10.2797 4.9744 10.342C4.99516 10.4043 5.00344 10.47 4.99878 10.5355C4.99411 10.601 4.97659 10.665 4.94721 10.7237L3.94721 12.7237C3.91847 12.7835 3.87812 12.8369 3.82853 12.8809C3.77893 12.9249 3.72108 12.9587 3.65833 12.9801C3.59558 13.0016 3.52919 13.0103 3.46303 13.0058C3.39687 13.0014 3.33225 12.9838 3.27295 12.9542C3.21364 12.9245 3.16082 12.8833 3.11758 12.8331C3.07433 12.7828 3.04152 12.7244 3.02105 12.6613C3.00057 12.5983 2.99285 12.5318 2.99833 12.4657C3.00381 12.3996 3.02238 12.3352 3.05296 12.2764L3.71501 10.9522C2.96644 10.828 2.28504 10.4454 1.78918 9.87104C1.29331 9.29666 1.01432 8.56673 1.00065 7.80804C0.986982 7.04935 1.23951 6.30985 1.71436 5.71798C2.18922 5.12611 2.8564 4.71928 3.60001 4.56816C3.74085 3.89609 4.03399 3.2653 4.45688 2.72432C4.87977 2.18333 5.42114 1.74658 6.03932 1.44766C6.6575 1.14874 7.33602 0.995623 8.02266 1.0001C8.70931 1.00457 9.38577 1.16651 10 1.47346L9.51426 2.34661C9.01393 2.10532 8.46328 1.98683 7.90799 2.00097C7.35271 2.01511 6.8088 2.16146 6.3214 2.4279C5.834 2.69433 5.41717 3.07315 5.10549 3.53293C4.79381 3.99271 4.59627 4.5202 4.52926 5.07161L4.47971 5.47761Z" fill="black"/>
</g>
<defs>
<clipPath id="clip0_3_10701">
<rect width="16" height="16" fill="white"/>
</clipPath>
</defs>
</svg>
