<svg width="16" height="16" viewBox="0 0 16 16" fill="none" xmlns="http://www.w3.org/2000/svg">
<g clip-path="url(#clip0_3_10699)">
<path fill-rule="evenodd" clip-rule="evenodd" d="M10.8328 2.00414C11.6339 2.65376 12.1874 3.55901 12.4004 4.56815C13.1894 4.72903 13.8906 5.17722 14.3679 5.82577C14.8452 6.47433 15.0646 7.27703 14.9836 8.0782C14.9026 8.87936 14.5269 9.62189 13.9294 10.1618C13.332 10.7016 12.5553 11.0004 11.75 11.0001H11.5V10.0001H11.75C12.3312 10.0003 12.8898 9.77555 13.3089 9.37294C13.7279 8.97034 13.9749 8.42114 13.9979 7.84047C14.021 7.2598 13.8183 6.69276 13.4325 6.25822C13.0466 5.82367 12.5075 5.55537 11.9282 5.50955L11.5205 5.4776L11.4712 5.0716C11.3674 4.22414 10.9571 3.44395 10.3178 2.87812C9.67837 2.31229 8.85408 1.99993 8.00028 1.99993C7.14649 1.99993 6.32219 2.31229 5.68281 2.87812C5.04343 3.44395 4.63315 4.22414 4.52933 5.0716L4.47978 5.4776L4.07203 5.50955C3.49273 5.55537 2.95366 5.82366 2.56782 6.25818C2.18198 6.6927 1.97932 7.25972 2.00234 7.84037C2.02536 8.42102 2.27226 8.97022 2.69128 9.37284C3.11031 9.77546 3.66892 10.0002 4.25003 10.0001H4.50003V10.0051C4.57734 10.0031 4.65402 10.0194 4.72378 10.0528C4.78251 10.0822 4.83488 10.1228 4.8779 10.1724C4.92091 10.2221 4.95374 10.2797 4.97449 10.342C4.99525 10.4043 5.00352 10.47 4.99886 10.5355C4.99419 10.601 4.97666 10.665 4.94728 10.7237L3.94728 12.7237C3.91854 12.7835 3.87819 12.8369 3.8286 12.8809C3.779 12.9249 3.72115 12.9587 3.6584 12.9801C3.59565 13.0015 3.52926 13.0103 3.4631 13.0058C3.39694 13.0014 3.33232 12.9838 3.27302 12.9542C3.21371 12.9245 3.1609 12.8833 3.11765 12.8331C3.0744 12.7828 3.04159 12.7244 3.02112 12.6613C3.00065 12.5983 2.99292 12.5317 2.9984 12.4657C3.00388 12.3996 3.02245 12.3352 3.05303 12.2764L3.71513 10.9522C2.96656 10.828 2.28516 10.4454 1.7893 9.87104C1.29344 9.29666 1.01444 8.56672 1.00077 7.80804C0.987104 7.04935 1.23963 6.30984 1.71449 5.71797C2.18934 5.12611 2.85652 4.71928 3.60013 4.56815C3.81319 3.55901 4.36665 2.65376 5.16775 2.00414C5.96884 1.35452 6.96889 1 8.00028 1C9.03167 1 10.0317 1.35452 10.8328 2.00414ZM7.95053 15.248L7.08253 14.752L8.65503 12H5.65503L8.08253 7.75195L8.95053 8.24795L7.37803 11H10.3785L7.95053 15.248ZM10.2565 14.9368C10.331 14.9783 10.4148 15.0001 10.5 15C10.5929 15.0001 10.684 14.9743 10.763 14.9254C10.842 14.8766 10.9058 14.8066 10.9472 14.7234L11.9472 12.7234C11.9766 12.6647 11.9941 12.6008 11.9988 12.5353C12.0035 12.4698 11.9952 12.404 11.9744 12.3417C11.9537 12.2794 11.9208 12.2218 11.8778 12.1722C11.8348 12.1226 11.7824 12.0819 11.7237 12.0526C11.665 12.0232 11.601 12.0057 11.5355 12.001C11.47 11.9964 11.4043 12.0046 11.342 12.0254C11.2797 12.0462 11.2221 12.079 11.1725 12.122C11.1229 12.165 11.0822 12.2174 11.0528 12.2761L10.0528 14.2764C10.0147 14.3526 9.99668 14.4373 10.0005 14.5225C10.0043 14.6076 10.0298 14.6904 10.0747 14.7629C10.1195 14.8354 10.1821 14.8953 10.2565 14.9368ZM4.25652 15.9368C4.33097 15.9783 4.41479 16.0001 4.50003 16C4.59293 16.0001 4.68401 15.9743 4.76302 15.9254C4.84203 15.8766 4.90582 15.8066 4.94723 15.7234L5.94723 13.7234C5.97661 13.6647 5.99412 13.6008 5.99879 13.5353C6.00345 13.4698 5.99517 13.404 5.97441 13.3417C5.95366 13.2794 5.92083 13.2218 5.87782 13.1722C5.8348 13.1226 5.78243 13.0819 5.72371 13.0526C5.66498 13.0232 5.60104 13.0057 5.53555 13.001C5.47005 12.9964 5.40427 13.0046 5.34198 13.0254C5.27968 13.0462 5.22208 13.079 5.17247 13.122C5.12286 13.165 5.08221 13.2174 5.05283 13.2761L4.05283 15.2764C4.0147 15.3526 3.99668 15.4373 4.0005 15.5225C4.00432 15.6076 4.02985 15.6904 4.07466 15.7629C4.11946 15.8354 4.18207 15.8953 4.25652 15.9368Z" fill="black"/>
</g>
<defs>
<clipPath id="clip0_3_10699">
<rect width="16" height="16" fill="white"/>
</clipPath>
</defs>
</svg>
