<svg width="16" height="16" viewBox="0 0 16 16" fill="none" xmlns="http://www.w3.org/2000/svg">
<path fill-rule="evenodd" clip-rule="evenodd" d="M14.6716 6.21946C14.7795 6.29537 14.8658 6.39806 14.922 6.51744C14.9806 6.6374 15.007 6.77057 14.9985 6.90382C14.9899 7.03707 14.9469 7.16581 14.8735 7.27734C14.5999 7.70207 14.2433 8.06716 13.8251 8.35069C13.407 8.63423 12.9358 8.83037 12.44 8.92734C12.5287 9.3618 12.5192 9.81059 12.4122 10.2409C12.3053 10.6712 12.1035 11.0722 11.8218 11.4146C11.54 11.757 11.1854 12.0322 10.7837 12.22C10.382 12.4078 9.94341 12.5035 9.50001 12.5001V11.5001C10.0009 11.5011 10.4838 11.3137 10.853 10.9752C11.2222 10.6367 11.4506 10.1717 11.493 9.67264C11.5353 9.17355 11.3885 8.67677 11.0817 8.28088C10.7748 7.885 10.3303 7.61893 9.83646 7.53549L9.50516 7.47909L9.43236 7.15099C9.29654 6.54085 8.95678 5.99524 8.46912 5.60421C7.98147 5.21317 7.37508 5.00007 6.75001 5.00007C6.12493 5.00007 5.51854 5.21317 5.03089 5.60421C4.54324 5.99524 4.20347 6.54085 4.06766 7.15099L3.99486 7.47909L3.66336 7.53549C3.16957 7.61907 2.72523 7.88519 2.41848 8.28108C2.11174 8.67696 1.965 9.17368 2.00738 9.6727C2.04975 10.1717 2.27814 10.6366 2.64724 10.9751C3.01634 11.3136 3.49919 11.501 4.00001 11.5001V12.5001C3.27681 12.501 2.57768 12.2403 2.03163 11.7661C1.48558 11.292 1.12946 10.6363 1.02898 9.9201C0.928495 9.20392 1.09043 8.47556 1.48491 7.86942C1.87939 7.26329 2.47978 6.82027 3.17531 6.62214C3.41856 5.86398 3.89527 5.20213 4.53729 4.7312C5.17932 4.26028 5.95379 4.00438 6.75001 4.00009C7.20096 4.00308 7.64754 4.0888 8.06756 4.25299C8.18875 3.46745 8.54544 2.73718 9.0905 2.15868C9.63556 1.58018 10.3433 1.18068 11.1203 1.01299L11.1298 1.01104C11.2547 0.989279 11.3831 1.00054 11.5023 1.04371C11.6215 1.08688 11.7274 1.16045 11.8094 1.25714C11.8987 1.3622 11.9595 1.48854 11.9857 1.62394C12.012 1.75934 12.0029 1.89923 11.9594 2.03009C11.7736 2.57203 11.7352 3.15362 11.8481 3.71529C11.9609 4.27697 12.2211 4.79855 12.6018 5.22664C13.0454 5.71223 13.6522 6.0176 14.3065 6.08454C14.4379 6.09706 14.5637 6.14356 14.6716 6.21946ZM10.3247 6.62214C11.0605 6.83226 11.6873 7.3171 12.0757 7.97639C12.7569 7.88933 13.38 7.5479 13.82 7.02059C13.07 6.86035 12.3882 6.47113 11.869 5.90669C11.4128 5.39883 11.0864 4.78809 10.9175 4.12664C10.7487 3.4652 10.7425 2.77271 10.8994 2.10834C10.3615 2.32372 9.89736 2.69007 9.56291 3.16322C9.22847 3.63637 9.03798 4.19615 9.01441 4.77509C9.63088 5.24122 10.0885 5.88626 10.3247 6.62214ZM5.80101 14.5L6.66901 15L8.66851 11.5H6.72301L7.86501 9.5L6.99651 9L5.00001 12.5H6.94451L5.80101 14.5Z" fill="black"/>
</svg>
