<svg width="16" height="16" viewBox="0 0 16 16" fill="none" xmlns="http://www.w3.org/2000/svg">
<path fill-rule="evenodd" clip-rule="evenodd" d="M11 0H10V1.5H11V0ZM13.2322 2.56104L14.2928 1.50038L15 2.20748L13.9393 3.26814L13.2322 2.56104ZM13.5 5.50007C13.5005 4.82375 13.2723 4.16713 12.8525 3.6369C12.4327 3.10666 11.8459 2.73397 11.1875 2.57937C10.5291 2.42478 9.83775 2.49736 9.22581 2.78533C8.61387 3.07331 8.11729 3.55975 7.81675 4.16562C7.47125 4.05822 7.11179 4.00243 6.75 4.00007C5.9538 4.00436 5.17934 4.26026 4.53733 4.73119C3.89532 5.20212 3.41863 5.86397 3.1754 6.62212C2.47988 6.82025 1.87949 7.26325 1.48501 7.86938C1.09054 8.47551 0.928593 9.20386 1.02906 9.92003C1.12953 10.6362 1.48564 11.2919 2.03167 11.7661C2.5777 12.2403 3.27681 12.501 4 12.5001V11.5001C3.4991 11.5011 3.01613 11.3137 2.64693 10.9752C2.27773 10.6367 2.04928 10.1718 2.00691 9.67267C1.96454 9.17357 2.11135 8.67678 2.41821 8.28088C2.72507 7.88498 3.16955 7.61891 3.66345 7.53547L3.995 7.47907L4.0679 7.15097C4.20371 6.54083 4.54348 5.99522 5.03113 5.60418C5.51878 5.21315 6.12517 5.00004 6.75025 5.00004C7.37532 5.00004 7.98171 5.21315 8.46936 5.60418C8.95702 5.99522 9.29678 6.54083 9.4326 7.15097L9.5055 7.47907L9.8368 7.53547C10.3307 7.61891 10.7752 7.885 11.0821 8.28093C11.3889 8.67685 11.5357 9.17368 11.4933 9.6728C11.4509 10.1719 11.2224 10.6369 10.8532 10.9753C10.4839 11.3138 10.0009 11.5011 9.5 11.5001V12.5001C10.0244 12.5014 10.5399 12.3648 10.995 12.1042C11.45 11.8435 11.8285 11.4678 12.0927 11.0148C12.3568 10.5618 12.4973 10.0473 12.5 9.52294C12.5027 8.99855 12.3676 8.48265 12.1081 8.02691C12.534 7.75683 12.8848 7.38367 13.1281 6.94197C13.3714 6.50028 13.4993 6.00433 13.5 5.50007ZM11.4634 7.24472C11.1341 6.95603 10.7453 6.74346 10.3246 6.62212C10.0508 5.77706 9.48659 5.0563 8.73195 4.58772C8.87408 4.31002 9.0794 4.06956 9.33139 3.88567C9.58338 3.70179 9.87501 3.57961 10.1828 3.52896C10.4906 3.47832 10.806 3.50062 11.1037 3.59407C11.4013 3.68753 11.6728 3.84953 11.8964 4.06704C12.1201 4.28456 12.2895 4.55152 12.3911 4.84645C12.4928 5.14138 12.5238 5.45604 12.4817 5.76514C12.4395 6.07423 12.3255 6.36913 12.1486 6.62611C11.9718 6.88308 11.7371 7.09497 11.4634 7.24472ZM6.669 15L5.801 14.5L6.9445 12.5H5L6.9965 9L7.865 9.5L6.723 11.5H8.6685L6.669 15ZM14.2929 9.50024L13.2322 8.43958L13.9393 7.73248L15 8.79314L14.2929 9.50024ZM16 5H14.5V6H16V5ZM7.0606 3.26807L5.99994 2.20741L6.70705 1.5003L7.76771 2.56096L7.0606 3.26807Z" fill="black"/>
</svg>
