<svg width="16" height="16" viewBox="0 0 16 16" fill="none" xmlns="http://www.w3.org/2000/svg">
<path fill-rule="evenodd" clip-rule="evenodd" d="M14.8536 6.85355C14.7598 6.94732 14.6326 7 14.5 7C14.2348 7 13.9804 7.10536 13.7929 7.29289C13.6054 7.48043 13.5 7.73478 13.5 8C13.5 8.26522 13.6054 8.51957 13.7929 8.70711C13.9804 8.89464 14.2348 9 14.5 9C14.6326 9 14.7598 9.05268 14.8536 9.14645C14.9473 9.24021 15 9.36739 15 9.5V12C15 12.2652 14.8946 12.5196 14.7071 12.7071C14.5196 12.8946 14.2652 13 14 13H2C1.73478 13 1.48043 12.8946 1.29289 12.7071C1.10536 12.5196 1 12.2652 1 12V9.5C1 9.36739 1.05268 9.24021 1.14645 9.14645C1.24021 9.05268 1.36739 9 1.5 9C1.76522 9 2.01957 8.89464 2.20711 8.70711C2.39464 8.51957 2.5 8.26522 2.5 8C2.5 7.73478 2.39464 7.48043 2.20711 7.29289C2.01957 7.10536 1.76522 7 1.5 7C1.36739 7 1.24021 6.94732 1.14645 6.85355C1.05268 6.75979 1 6.63261 1 6.5V4C1 3.73478 1.10536 3.48043 1.29289 3.29289C1.48043 3.10536 1.73478 3 2 3H14C14.2652 3 14.5196 3.10536 14.7071 3.29289C14.8946 3.48043 15 3.73478 15 4V6.5C15 6.63261 14.9473 6.75979 14.8536 6.85355ZM14 12V9.935C13.572 9.82314 13.1932 9.57253 12.9228 9.2224C12.6524 8.87227 12.5057 8.44238 12.5057 8C12.5057 7.55762 12.6524 7.12773 12.9228 6.7776C13.1932 6.42747 13.572 6.17686 14 6.065V4H10.5V5.5H9.5V4H2V6.065C2.428 6.17686 2.80683 6.42747 3.07721 6.7776C3.34759 7.12773 3.49426 7.55762 3.49426 8C3.49426 8.44238 3.34759 8.87227 3.07721 9.2224C2.80683 9.57253 2.428 9.82314 2 9.935V12H9.5V10.5H10.5V12H14ZM9.5 6.5H10.5V9.5H9.5V6.5Z" fill="black"/>
</svg>
