<svg width="16" height="16" viewBox="0 0 16 16" fill="none" xmlns="http://www.w3.org/2000/svg">
<path fill-rule="evenodd" clip-rule="evenodd" d="M4.5 1L7 3.5L6.293 4.207L5 2.9165V7H4V2.9165L2.7065 4.208L2 3.5L4.5 1ZM12 5.0835L13.293 3.793L14 4.5L11.5 7L9 4.5L9.7065 3.792L11 5.0835V1H12V5.0835ZM10 10.0001C9.65948 9.98023 9.33257 9.85948 9.06088 9.65324C8.7892 9.44699 8.58502 9.16456 8.47435 8.84191C8.44069 8.74266 8.3769 8.65638 8.29187 8.59511C8.20684 8.53384 8.10481 8.50063 8 8.50011C7.89534 8.49932 7.79313 8.53175 7.70806 8.59273C7.623 8.65371 7.55946 8.74009 7.5266 8.83946C7.41612 9.16263 7.21194 9.44559 6.94007 9.65229C6.66819 9.85899 6.34094 9.98007 6 10.0001C5.65948 9.98023 5.33257 9.85948 5.06088 9.65324C4.7892 9.44699 4.58502 9.16456 4.47435 8.84191C4.44069 8.74266 4.3769 8.65638 4.29187 8.59511C4.20684 8.53384 4.10481 8.50063 4 8.50011C3.895 8.49786 3.79211 8.52972 3.70676 8.59091C3.6214 8.65209 3.55819 8.73931 3.5266 8.83946C3.41612 9.16263 3.21194 9.44559 2.94007 9.65229C2.66819 9.85899 2.34094 9.98007 2 10.0001H1V11.0001H2C2.38804 11.0035 2.77141 10.9153 3.11894 10.7427C3.46647 10.57 3.76834 10.3178 4 10.0065C4.23404 10.3152 4.5364 10.5656 4.88338 10.738C5.23036 10.9104 5.61255 11.0001 6 11.0001C6.38745 11.0001 6.76964 10.9104 7.11662 10.738C7.4636 10.5656 7.76596 10.3152 8 10.0065C8.23166 10.3178 8.53353 10.57 8.88106 10.7427C9.22859 10.9153 9.61196 11.0035 10 11.0001H15V10.0001H10ZM13.0609 13.6532C13.3326 13.8595 13.6595 13.9802 14 14.0001H15V15.0001H14C13.612 15.0035 13.2286 14.9153 12.8811 14.7427C12.5335 14.57 12.2317 14.3178 12 14.0065C11.766 14.3152 11.4636 14.5656 11.1166 14.738C10.7696 14.9104 10.3874 15.0001 10 15.0001C9.61255 15.0001 9.23037 14.9104 8.88338 14.738C8.5364 14.5656 8.23404 14.3152 8 14.0065C7.76834 14.3178 7.46647 14.57 7.11894 14.7427C6.77141 14.9153 6.38804 15.0035 6 15.0001H1V14.0001H6C6.34094 13.9801 6.66819 13.859 6.94007 13.6523C7.21194 13.4456 7.41612 13.1626 7.5266 12.8395C7.55819 12.7393 7.6214 12.6521 7.70676 12.5909C7.79211 12.5297 7.89501 12.4979 8 12.5001C8.10481 12.5006 8.20684 12.5338 8.29187 12.5951C8.3769 12.6564 8.44069 12.7427 8.47435 12.8419C8.58502 13.1646 8.7892 13.447 9.06088 13.6532C9.33257 13.8595 9.65948 13.9802 10 14.0001C10.3409 13.9801 10.6682 13.859 10.9401 13.6523C11.2119 13.4456 11.4161 13.1626 11.5266 12.8395C11.5595 12.7401 11.623 12.6537 11.7081 12.5927C11.7931 12.5318 11.8953 12.4993 12 12.5001C12.1048 12.5006 12.2068 12.5338 12.2919 12.5951C12.3769 12.6564 12.4407 12.7427 12.4743 12.8419C12.585 13.1646 12.7892 13.447 13.0609 13.6532Z" fill="black"/>
</svg>
