<svg width="16" height="16" viewBox="0 0 16 16" fill="none" xmlns="http://www.w3.org/2000/svg">
<path fill-rule="evenodd" clip-rule="evenodd" d="M9.5 1H6.5V2H9.5V1ZM8.5 5.5H7.5V10H8.5V5.5ZM13.29 3.79506L14 4.50006L12.755 5.74506C13.4637 6.96028 13.677 8.40184 13.3505 9.77022C13.024 11.1386 12.1829 12.3286 11.0019 13.0929C9.82086 13.8573 8.39075 14.1372 7.0087 13.8746C5.62664 13.612 4.3989 12.827 3.58056 11.6827C2.76223 10.5384 2.41622 9.12284 2.61443 7.73008C2.81264 6.33733 3.53982 5.07448 4.6449 4.20393C5.74997 3.33337 7.14796 2.92205 8.54842 3.05541C9.94887 3.18877 11.2441 3.85657 12.165 4.92006L13.29 3.79506ZM5.49993 12.2417C6.23996 12.7361 7.10998 13.0001 8 13.0001C9.19347 13.0001 10.3381 12.526 11.182 11.682C12.0259 10.8381 12.5 9.69353 12.5 8.50006C12.5 7.61004 12.2361 6.74001 11.7416 5.99999C11.2471 5.25997 10.5443 4.68319 9.72208 4.3426C8.89981 4.002 7.99501 3.91289 7.12209 4.08652C6.24918 4.26016 5.44736 4.68874 4.81802 5.31808C4.18868 5.94741 3.7601 6.74924 3.58647 7.62215C3.41283 8.49506 3.50195 9.39987 3.84254 10.2221C4.18314 11.0444 4.75991 11.7472 5.49993 12.2417Z" fill="black"/>
</svg>
