<svg width="16" height="16" viewBox="0 0 16 16" fill="none" xmlns="http://www.w3.org/2000/svg">
<path fill-rule="evenodd" clip-rule="evenodd" d="M13.5008 1C13.8958 1 14.2757 1.1522 14.5614 1.42498C14.8423 1.70652 15.0001 2.08804 15.0001 2.4858C15 2.88355 14.8422 3.26504 14.5612 3.54653L10.8212 7.28628L10.1142 6.57923L13.8542 2.83923C13.9477 2.74533 14.0003 2.61817 14.0003 2.48561C14.0003 2.35305 13.9477 2.22589 13.8542 2.13198C13.7589 2.04111 13.6323 1.99042 13.5006 1.99042C13.369 1.99042 13.2424 2.04111 13.1471 2.13198L9.40711 5.87198L8.70006 5.16498L12.4403 1.42498C12.726 1.1522 13.1058 1 13.5008 1ZM12 15C11.2046 14.9991 10.442 14.6828 9.87963 14.1204C9.31721 13.558 9.00086 12.7954 8.99997 12C9.00035 11.7387 9.03582 11.4785 9.10542 11.2266L4.77342 6.89468C4.52147 6.9642 4.26134 6.99964 3.99997 7.00003C3.51119 7.00202 3.02938 6.88407 2.5968 6.65652C2.16421 6.42896 1.79406 6.09876 1.51879 5.69485C1.24353 5.29094 1.07155 4.82567 1.01796 4.33983C0.96436 3.85399 1.03077 3.36243 1.21137 2.90823L1.49022 2.19728L3.14647 3.85353C3.24166 3.94444 3.36822 3.99516 3.49985 3.99516C3.63147 3.99516 3.75803 3.94444 3.85322 3.85353C3.8997 3.80713 3.93658 3.75203 3.96174 3.69137C3.9869 3.6307 3.99985 3.56568 3.99985 3.5C3.99985 3.43433 3.9869 3.3693 3.96174 3.30864C3.93658 3.24798 3.8997 3.19287 3.85322 3.14648L2.19677 1.48953L2.90842 1.21098C3.36265 1.03061 3.85418 0.964387 4.33995 1.01812C4.82571 1.07184 5.29089 1.24388 5.69472 1.51916C6.09855 1.79443 6.42871 2.16454 6.65627 2.59706C6.88383 3.02958 7.00184 3.5113 6.99997 4.00003C6.9996 4.2614 6.96413 4.52154 6.89452 4.77348L11.2265 9.10523C11.4785 9.03579 11.7386 9.00041 12 9.00003C12.4888 8.99802 12.9706 9.11596 13.4032 9.34351C13.8358 9.57106 14.2059 9.90127 14.4812 10.3052C14.7564 10.7091 14.9284 11.1744 14.982 11.6602C15.0356 12.1461 14.9691 12.6376 14.7885 13.0918L14.51 13.8028L12.8535 12.1465C12.7583 12.0556 12.6317 12.0049 12.5001 12.0049C12.3685 12.0049 12.2419 12.0556 12.1467 12.1465C12.1002 12.1929 12.0633 12.248 12.0382 12.3087C12.013 12.3693 12 12.4343 12 12.5C11.9999 12.5657 12.0129 12.6307 12.038 12.6914C12.0632 12.752 12.1 12.8072 12.1465 12.8536L13.8027 14.51L13.0918 14.789C12.7443 14.9272 12.3739 14.9988 12 15ZM5.03122 5.73818L10.2617 10.9688L10.1421 11.2735C10.025 11.5662 9.97922 11.8826 10.0086 12.1965C10.0379 12.5105 10.1415 12.8129 10.3108 13.0789C10.4801 13.3449 10.7102 13.5668 10.9822 13.7263C11.2542 13.8858 11.5602 13.9783 11.875 13.9961L11.4394 13.5606C11.3001 13.4213 11.1896 13.256 11.1142 13.074C11.0388 12.892 11 12.697 11 12.5C11 12.303 11.0388 12.1079 11.1142 11.926C11.1896 11.744 11.3001 11.5786 11.4394 11.4394C11.7252 11.1666 12.1051 11.0145 12.5001 11.0145C12.8952 11.0145 13.2751 11.1668 13.5608 11.4396L13.9961 11.875C13.9782 11.5602 13.8856 11.2542 13.7261 10.9822C13.5666 10.7103 13.3447 10.4801 13.0787 10.3108C12.8127 10.1415 12.5102 10.038 12.1963 10.0086C11.8823 9.97929 11.5659 10.0251 11.2732 10.1421L10.9685 10.2614L5.73847 5.03138L5.85807 4.72668C5.97517 4.43393 6.02094 4.11753 5.99161 3.8036C5.96229 3.48967 5.8587 3.18722 5.68942 2.92122C5.52013 2.65523 5.28999 2.43332 5.01801 2.27382C4.74603 2.11432 4.44001 2.02181 4.12522 2.00393L4.56052 2.43948C4.69984 2.57874 4.81036 2.74408 4.88576 2.92606C4.96116 3.10804 4.99997 3.3031 4.99997 3.50008C4.99997 3.69706 4.96116 3.89212 4.88576 4.0741C4.81036 4.25608 4.69984 4.42142 4.56052 4.56068C4.27474 4.83344 3.89486 4.98561 3.4998 4.98556C3.10474 4.98551 2.72489 4.83326 2.43917 4.56043L2.00387 4.12503C2.02172 4.43982 2.1142 4.74586 2.27368 5.01785C2.43316 5.28984 2.65506 5.51999 2.92106 5.68928C3.18706 5.85857 3.48951 5.96215 3.80345 5.99146C4.11738 6.02076 4.43379 5.97496 4.72652 5.85783L5.03122 5.73818ZM4.45704 12.25L6.58554 10.1216L5.87854 9.41455L3.74999 11.543L3.35349 11.1465C3.30708 11.1001 3.25197 11.0632 3.19132 11.0381C3.13066 11.0129 3.06565 11 2.99999 11C2.93433 11 2.86931 11.0129 2.80866 11.0381C2.748 11.0632 2.69289 11.1001 2.64649 11.1465L0.646487 13.1465C0.600038 13.1929 0.56319 13.248 0.53805 13.3087C0.512909 13.3693 0.499969 13.4343 0.499969 13.5C0.499969 13.5657 0.512909 13.6307 0.53805 13.6913C0.56319 13.752 0.600038 13.8071 0.646487 13.8535L2.14649 15.3535C2.1929 15.3999 2.24801 15.4368 2.30866 15.4619C2.36932 15.4871 2.43433 15.5 2.49999 15.5C2.56564 15.5 2.63066 15.4871 2.69131 15.4619C2.75197 15.4368 2.80708 15.3999 2.85349 15.3535L4.85349 13.3535C4.89994 13.3071 4.93678 13.252 4.96192 13.1913C4.98706 13.1307 5 13.0657 5 13C5 12.9343 4.98706 12.8693 4.96192 12.8087C4.93678 12.748 4.89994 12.6929 4.85349 12.6465L4.45704 12.25ZM2.49999 14.293L1.70704 13.5L2.99999 12.2071L3.79294 13L2.49999 14.293Z" fill="black"/>
</svg>
