<svg width="16" height="16" viewBox="0 0 16 16" fill="none" xmlns="http://www.w3.org/2000/svg">
<path d="M14.7074 10.8333L11.54 7.66531L14.7068 4.49831C14.8944 4.31089 14.9999 4.05664 15.0001 3.79146C15.0002 3.52629 14.8951 3.2719 14.7077 3.08426L14.7068 3.08326L12.9168 1.29326C12.7294 1.10563 12.4751 1.00014 12.2099 1C11.9447 0.999859 11.6903 1.10508 11.5026 1.29251L11.5018 1.29326L8.33499 4.45976L5.16759 1.29201C4.97979 1.10501 4.72554 1.00004 4.46052 1.00009C4.19549 1.00014 3.94128 1.10519 3.75354 1.29226L1.29269 3.75321C1.10527 3.94082 0.999985 4.19517 0.999985 4.46036C0.999985 4.72555 1.10527 4.9799 1.29269 5.16751L4.45959 8.33476L0.999994 11.7942V15.0001H4.20529L7.66479 11.5404L10.8325 14.7086C11.0205 14.8953 11.2748 15.0001 11.5398 15.0001C11.8048 15.0001 12.059 14.8953 12.247 14.7086L14.7074 12.2474C14.8948 12.0598 15 11.8055 15 11.5403C15 11.2752 14.8948 11.0209 14.7074 10.8333ZM12.2066 1.99826L14.0016 3.79326L10.835 6.96006L9.03999 5.16506L12.2066 1.99826ZM3.99999 14.0001H1.99999V12.2044L5.16454 9.04006L7.00304 10.879L3.99999 14.0001ZM11.54 14.0018L1.99999 4.46071L4.46094 2.00006L6.35499 3.89381L5.22899 5.02006L5.93664 5.72711L7.06199 4.60111L9.12669 6.66581L7.99999 7.79176L8.70799 8.49881L9.83384 7.37281L11.8988 9.43781L10.773 10.5633L11.48 11.2708L12.6058 10.1451L14.0012 11.5406L11.54 14.0018Z" fill="black"/>
</svg>
