<svg width="16" height="16" viewBox="0 0 16 16" fill="none" xmlns="http://www.w3.org/2000/svg">
<path fill-rule="evenodd" clip-rule="evenodd" d="M11.8142 1.18528L14.9557 6.96773C14.9856 7.02253 15.0007 7.08416 14.9996 7.14655C14.9984 7.20895 14.9811 7.26998 14.9492 7.32366C14.9174 7.37733 14.8722 7.42181 14.8179 7.45272C14.7637 7.48363 14.7024 7.49992 14.64 7.49998H8.36C8.29759 7.49992 8.23627 7.48363 8.18205 7.45272C8.12784 7.42181 8.08259 7.37733 8.05075 7.32366C8.01891 7.26998 8.00157 7.20895 8.00043 7.14655C7.99929 7.08416 8.01439 7.02253 8.04425 6.96773L11.1858 1.18528C11.2168 1.12915 11.2624 1.08235 11.3176 1.04977C11.3729 1.01719 11.4359 1 11.5 1C11.5641 1 11.6271 1.01719 11.6824 1.04977C11.7376 1.08235 11.7832 1.12915 11.8142 1.18528ZM11.875 2.99998H11.125V4.99998H11.875V2.99998ZM11.2222 6.41572C11.3044 6.47066 11.4011 6.49998 11.5 6.49998C11.6326 6.49998 11.7598 6.4473 11.8536 6.35354C11.9473 6.25977 12 6.13259 12 5.99998C12 5.90109 11.9707 5.80442 11.9157 5.7222C11.8608 5.63997 11.7827 5.57589 11.6913 5.53804C11.6 5.5002 11.4994 5.4903 11.4025 5.50959C11.3055 5.52888 11.2164 5.5765 11.1464 5.64643C11.0765 5.71636 11.0289 5.80545 11.0096 5.90244C10.9903 5.99943 11.0002 6.09996 11.0381 6.19132C11.0759 6.28269 11.14 6.36078 11.2222 6.41572ZM1 2H9V3H1V2ZM2 4H8V5H2V4ZM7 6H1V7H7V6ZM1 8H6V9H1V8ZM6 10H2V11H6V10ZM4 12H7V13H4V12ZM6 14V15H8V14H6Z" fill="black"/>
</svg>
