<svg width="16" height="16" viewBox="0 0 16 16" fill="none" xmlns="http://www.w3.org/2000/svg">
<path fill-rule="evenodd" clip-rule="evenodd" d="M8.28032 1H10.5C11.2957 1 12.0587 1.31607 12.6213 1.87868C13.1839 2.44129 13.5 3.20435 13.5 4V7.5C13.5 7.76522 13.3947 8.01957 13.2071 8.20711C13.0196 8.39464 12.7652 8.5 12.5 8.5C12.2348 8.5 11.9804 8.39464 11.7929 8.20711C11.6054 8.01957 11.5 7.76522 11.5 7.5V8C11.5 8.26522 11.3947 8.51957 11.2071 8.70711C11.0196 8.89464 10.7652 9 10.5 9C10.2348 9 9.98045 8.89464 9.79291 8.70711C9.60538 8.51957 9.50002 8.26522 9.50002 8V8.5C9.50002 8.76522 9.39466 9.01957 9.20713 9.20711C9.01959 9.39464 8.76524 9.5 8.50002 9.5C8.2348 9.5 7.98045 9.39464 7.79291 9.20711C7.60538 9.01957 7.50002 8.76522 7.50002 8.5V12C7.50002 12.2652 7.39466 12.5196 7.20713 12.7071C7.01959 12.8946 6.76524 13 6.50002 13C6.2348 13 5.98045 12.8946 5.79291 12.7071C5.60538 12.5196 5.50002 12.2652 5.50002 12V5.57155L3.71392 7.20265C3.53778 7.37074 3.30813 7.47151 3.06517 7.4873C2.82221 7.5031 2.58144 7.43292 2.38502 7.28905C2.27031 7.19948 2.17651 7.08597 2.11017 6.95643C2.04382 6.8269 2.00653 6.68445 2.00088 6.53902C1.99523 6.39359 2.02136 6.24868 2.07745 6.11439C2.13355 5.9801 2.21825 5.85965 2.32567 5.76145L6.92592 1.5283C7.29513 1.18854 7.77857 0.999972 8.28032 1ZM4.37967 14.1203C4.94209 14.6828 5.70464 14.9991 6.50002 15C7.29539 14.9991 8.05794 14.6828 8.62036 14.1203C9.18277 13.5579 9.49913 12.7954 9.50002 12H8.50002C8.50002 12.5304 8.2893 13.0391 7.91423 13.4142C7.53916 13.7893 7.03045 14 6.50002 14C5.96958 14 5.46087 13.7893 5.0858 13.4142C4.71073 13.0391 4.50002 12.5304 4.50002 12H3.50002C3.5009 12.7954 3.81726 13.5579 4.37967 14.1203Z" fill="black"/>
</svg>
