<svg width="16" height="16" viewBox="0 0 16 16" fill="none" xmlns="http://www.w3.org/2000/svg">
<path fill-rule="evenodd" clip-rule="evenodd" d="M9 4H10C10 3.07174 9.63125 2.1815 8.97487 1.52513C8.3185 0.868749 7.42826 0.5 6.5 0.5C5.57174 0.5 4.6815 0.868749 4.02513 1.52513C3.36875 2.1815 3 3.07174 3 4H4C4 3.33696 4.26339 2.70107 4.73223 2.23223C5.20107 1.76339 5.83696 1.5 6.5 1.5C7.16304 1.5 7.79893 1.76339 8.26777 2.23223C8.73661 2.70107 9 3.33696 9 4ZM11.765 7.7C11.9882 7.56991 12.2417 7.50093 12.5 7.5C12.8978 7.5 13.2794 7.65804 13.5607 7.93934C13.842 8.22064 14 8.60218 14 9V12C14 12.9283 13.6313 13.8185 12.9749 14.4749C12.3185 15.1313 11.4283 15.5 10.5 15.5H8.00001C7.24001 15.5015 6.50631 15.2219 5.94001 14.715L1.94001 11.065C1.72878 10.8555 1.58461 10.5879 1.52585 10.2963C1.4671 10.0046 1.49639 9.70206 1.61002 9.4271C1.72365 9.15215 1.91647 8.91719 2.16398 8.7521C2.41149 8.58702 2.7025 8.49927 3.00001 8.5C3.3187 8.49783 3.62941 8.59964 3.88501 8.79L5.00001 9.55V4C5.00001 3.60218 5.15805 3.22064 5.43935 2.93934C5.72065 2.65804 6.10219 2.5 6.50001 2.5C6.89783 2.5 7.27937 2.65804 7.56067 2.93934C7.84197 3.22064 8.00001 3.60218 8.00001 4V6.59C8.31984 6.47717 8.66847 6.47606 8.98901 6.58684C9.30956 6.69762 9.5831 6.91376 9.76501 7.2C9.98818 7.06991 10.2417 7.00093 10.5 7C10.7528 7.00065 11.0013 7.06516 11.2224 7.18754C11.4436 7.30992 11.6302 7.48619 11.765 7.7ZM12.2678 13.7678C12.7366 13.2989 13 12.663 13 12V9C13 8.86739 12.9473 8.74021 12.8536 8.64645C12.7598 8.55268 12.6326 8.5 12.5 8.5C12.3674 8.5 12.2402 8.55268 12.1465 8.64645C12.0527 8.74021 12 8.86739 12 9V9.5H11V8.5C11 8.36739 10.9473 8.24021 10.8536 8.14645C10.7598 8.05268 10.6326 8 10.5 8C10.3674 8 10.2402 8.05268 10.1465 8.14645C10.0527 8.24021 10 8.36739 10 8.5V9.5H9.00001V8C9.00001 7.86739 8.94733 7.74021 8.85356 7.64645C8.7598 7.55268 8.63262 7.5 8.50001 7.5C8.3674 7.5 8.24022 7.55268 8.14646 7.64645C8.05269 7.74021 8.00001 7.86739 8.00001 8V9.5H7.00001V4C7.00001 3.86739 6.94733 3.74021 6.85356 3.64645C6.7598 3.55268 6.63262 3.5 6.50001 3.5C6.3674 3.5 6.24022 3.55268 6.14646 3.64645C6.05269 3.74021 6.00001 3.86739 6.00001 4V11.45L3.30001 9.6C3.22573 9.54429 3.13739 9.51036 3.04491 9.50202C2.95243 9.49368 2.85946 9.51126 2.7764 9.55279C2.69335 9.59431 2.6235 9.65815 2.57468 9.73713C2.52587 9.81612 2.50001 9.90714 2.50001 10C2.50056 10.1312 2.55264 10.2569 2.64501 10.35L6.62001 14C7.0042 14.3284 7.49461 14.5061 8.00001 14.5H10.5C11.1631 14.5 11.7989 14.2366 12.2678 13.7678Z" fill="black"/>
</svg>
