<svg width="16" height="16" viewBox="0 0 16 16" fill="none" xmlns="http://www.w3.org/2000/svg">
<path fill-rule="evenodd" clip-rule="evenodd" d="M11 6H14C14.2651 5.99972 14.5193 5.89428 14.7068 5.7068C14.8943 5.51932 14.9997 5.26513 15 5V2C14.9997 1.73487 14.8943 1.48068 14.7068 1.2932C14.5193 1.10572 14.2651 1.00028 14 1H2C1.73487 1.00028 1.48068 1.10572 1.2932 1.2932C1.10572 1.48068 1.00028 1.73487 1 2V5C1.00028 5.26513 1.10572 5.51932 1.2932 5.7068C1.48068 5.89428 1.73487 5.99972 2 6H4V5H2V2H14V5H11V6ZM13 10V10.5H12V9.5C12 9.36739 11.9473 9.24021 11.8536 9.14645C11.7598 9.05268 11.6326 9 11.5 9C11.3674 9 11.2402 9.05268 11.1464 9.14645C11.0527 9.24021 11 9.36739 11 9.5V10.5H10V9C10 8.86739 9.94732 8.74021 9.85355 8.64645C9.75978 8.55268 9.63261 8.5 9.5 8.5C9.36739 8.5 9.24021 8.55268 9.14645 8.64645C9.05268 8.74021 9 8.86739 9 9V10.5H8V5C8 4.86739 7.94732 4.74021 7.85355 4.64645C7.75978 4.55268 7.63261 4.5 7.5 4.5C7.36739 4.5 7.24021 4.55268 7.14645 4.64645C7.05268 4.74021 7 4.86739 7 5V12.4478L4.3 10.5996C4.22566 10.544 4.13731 10.5101 4.04483 10.5018C3.95234 10.4936 3.85938 10.5112 3.77635 10.5528C3.69332 10.5943 3.62349 10.6582 3.57468 10.7371C3.52588 10.8161 3.50002 10.9071 3.5 11C3.49989 11.0654 3.51271 11.1301 3.53772 11.1905C3.56274 11.2508 3.59945 11.3057 3.64575 11.3518L6.8351 14.261L6.16115 15L2.94165 12.0631C2.67385 11.7966 2.51651 11.4389 2.50109 11.0614C2.48567 10.6839 2.61331 10.3145 2.85848 10.0271C3.10366 9.73963 3.4483 9.55534 3.82349 9.51103C4.19868 9.46673 4.57677 9.56568 4.88215 9.7881L4.88255 9.7876L6 10.5522V5C6 4.60218 6.15803 4.22064 6.43934 3.93934C6.72064 3.65804 7.10217 3.5 7.5 3.5C7.89782 3.5 8.27935 3.65804 8.56066 3.93934C8.84196 4.22064 9 4.60218 9 5V7.5923C9.16009 7.53292 9.32926 7.50169 9.5 7.5C9.75281 7.50049 10.0014 7.565 10.2225 7.68753C10.4437 7.81006 10.6301 7.98661 10.7646 8.2007C11.0974 8.00688 11.4927 7.95068 11.8663 8.04408C12.2398 8.13748 12.5622 8.37309 12.7646 8.7007C12.988 8.57082 13.2416 8.50163 13.5 8.5C13.8977 8.50044 14.279 8.65861 14.5602 8.93982C14.8414 9.22103 14.9996 9.60231 15 10V15H14V10C14 9.86739 13.9473 9.74021 13.8536 9.64645C13.7598 9.55268 13.6326 9.5 13.5 9.5C13.3674 9.5 13.2402 9.55268 13.1464 9.64645C13.0527 9.74021 13 9.86739 13 10Z" fill="black"/>
</svg>
