<svg width="16" height="16" viewBox="0 0 16 16" fill="none" xmlns="http://www.w3.org/2000/svg">
<path fill-rule="evenodd" clip-rule="evenodd" d="M14 4V7C13.9996 7.39769 13.8414 7.77897 13.5602 8.06018C13.279 8.34139 12.8977 8.49957 12.5 8.5C12.2416 8.49839 11.988 8.4292 11.7646 8.2993C11.6302 8.51339 11.4437 8.68993 11.2225 8.81246C11.0014 8.93499 10.7528 8.99951 10.5 9C10.2416 8.99838 9.98812 8.92919 9.76471 8.7993C9.5866 9.08947 9.31327 9.30878 8.9914 9.41977C8.66954 9.53077 8.31912 9.52655 8.00001 9.40785V12C8.00001 12.3978 7.84198 12.7794 7.56067 13.0607C7.27937 13.342 6.89784 13.5 6.50001 13.5C6.10219 13.5 5.72066 13.342 5.43935 13.0607C5.15805 12.7794 5.00001 12.3978 5.00001 12V6.44775L3.88256 7.2126L3.88216 7.212C3.57685 7.4352 3.19846 7.53476 2.82283 7.49074C2.4472 7.44672 2.10208 7.26236 1.85664 6.97461C1.61121 6.68687 1.48358 6.317 1.49935 5.93913C1.51512 5.56126 1.67311 5.2033 1.94166 4.937L5.94726 1.2832C6.51161 0.77808 7.24263 0.499171 8.00001 0.500002H10.5C11.4279 0.501128 12.3175 0.870239 12.9736 1.52637C13.6298 2.18251 13.9989 3.07209 14 4ZM12.8536 7.35356C12.9473 7.25979 13 7.13261 13 7V4C12.9992 3.3372 12.7356 2.70177 12.2669 2.2331C11.7982 1.76443 11.1628 1.50078 10.5 1.5H8.00001C7.49197 1.49943 7.00139 1.68533 6.62131 2.02245L2.64596 5.6482C2.55671 5.73768 2.50467 5.85766 2.50035 5.98398C2.49603 6.11029 2.53973 6.23355 2.62266 6.32892C2.70559 6.4243 2.82158 6.4847 2.94727 6.49796C3.07296 6.51123 3.199 6.47637 3.30001 6.4004L6.00001 4.55225V12C6.00001 12.1326 6.05271 12.2599 6.1465 12.3536C6.24029 12.4474 6.3675 12.5001 6.50014 12.5001C6.63278 12.5001 6.75999 12.4474 6.85378 12.3536C6.94757 12.2599 7.00026 12.1326 7.00026 12H7.00001V6.5H8.00001V8C8.00001 8.13261 8.05269 8.25979 8.14646 8.35356C8.24023 8.44733 8.36741 8.5 8.50001 8.5C8.63262 8.5 8.7598 8.44733 8.85357 8.35356C8.94734 8.25979 9.00001 8.13261 9.00001 8V6.5H10V7.5C10 7.63261 10.0527 7.75979 10.1465 7.85356C10.2402 7.94733 10.3674 8 10.5 8C10.6326 8 10.7598 7.94733 10.8536 7.85356C10.9473 7.75979 11 7.63261 11 7.5V6.5H12V7C12 7.13261 12.0527 7.25979 12.1465 7.35356C12.2402 7.44733 12.3674 7.5 12.5 7.5C12.6326 7.5 12.7598 7.44733 12.8536 7.35356ZM9.00002 12H10C10 12.9283 9.63127 13.8185 8.97489 14.4749C8.31851 15.1313 7.42827 15.5 6.50002 15.5C5.57176 15.5 4.68152 15.1313 4.02514 14.4749C3.36876 13.8185 3.00002 12.9283 3.00002 12H4.00002C4.00002 12.663 4.26341 13.2989 4.73225 13.7678C5.20109 14.2366 5.83697 14.5 6.50002 14.5C7.16306 14.5 7.79894 14.2366 8.26778 13.7678C8.73662 13.2989 9.00002 12.663 9.00002 12Z" fill="black"/>
</svg>
