<svg width="16" height="16" viewBox="0 0 16 16" fill="none" xmlns="http://www.w3.org/2000/svg">
<path fill-rule="evenodd" clip-rule="evenodd" d="M13.5 7.5H14.5C14.5 5.77609 13.8152 4.12279 12.5962 2.90381C11.3772 1.68482 9.72391 1 8 1C6.27609 1 4.62279 1.68482 3.40381 2.90381C2.18482 4.12279 1.5 5.77609 1.5 7.5H2.5C2.5 6.04131 3.07946 4.64236 4.11091 3.61091C5.14236 2.57946 6.54131 2 8 2C9.45869 2 10.8576 2.57946 11.8891 3.61091C12.9205 4.64236 13.5 6.04131 13.5 7.5ZM8 3C6.8069 3.00122 5.66301 3.47571 4.81936 4.31936C3.97571 5.16301 3.50122 6.3069 3.5 7.5V14H12.5V7.5C12.4987 6.30693 12.0241 5.16311 11.1805 4.31948C10.3369 3.47585 9.19307 3.00132 8 3ZM5.5 10V7.5C5.5 6.83696 5.76339 6.20107 6.23223 5.73223C6.70107 5.26339 7.33696 5 8 5C8.66304 5 9.29893 5.26339 9.76777 5.73223C10.2366 6.20107 10.5 6.83696 10.5 7.5V10H5.5ZM8 6C7.60231 6.00044 7.22103 6.15861 6.93982 6.43982C6.65861 6.72103 6.50044 7.10231 6.5 7.5V9H9.5V7.5C9.49956 7.10231 9.34139 6.72103 9.06018 6.43982C8.77897 6.15861 8.39769 6.00044 8 6Z" fill="black"/>
</svg>
