<svg width="16" height="16" viewBox="0 0 16 16" fill="none" xmlns="http://www.w3.org/2000/svg">
<path fill-rule="evenodd" clip-rule="evenodd" d="M4.37967 1.87966C4.94209 1.31724 5.70464 1.00089 6.50002 1C7.29539 1.00089 8.05794 1.31724 8.62036 1.87966C9.18277 2.44208 9.49913 3.20462 9.50002 4H8.50002C8.50002 3.46957 8.2893 2.96086 7.91423 2.58579C7.53916 2.21071 7.03045 2 6.50002 2C5.96958 2 5.46087 2.21071 5.0858 2.58579C4.71073 2.96086 4.50002 3.46957 4.50002 4H3.50002C3.5009 3.20462 3.81726 2.44208 4.37967 1.87966ZM8.28032 15H10.5C11.2957 15 12.0587 14.6839 12.6213 14.1213C13.1839 13.5587 13.5 12.7956 13.5 12V8.5C13.5 8.23478 13.3947 7.98043 13.2071 7.79289C13.0196 7.60536 12.7652 7.5 12.5 7.5C12.2348 7.5 11.9804 7.60536 11.7929 7.79289C11.6054 7.98043 11.5 8.23478 11.5 8.5V8C11.5 7.73478 11.3947 7.48043 11.2071 7.29289C11.0196 7.10536 10.7652 7 10.5 7C10.2348 7 9.98045 7.10536 9.79291 7.29289C9.60538 7.48043 9.50002 7.73478 9.50002 8V7.5C9.50002 7.23478 9.39466 6.98043 9.20713 6.79289C9.01959 6.60536 8.76524 6.5 8.50002 6.5C8.2348 6.5 7.98045 6.60536 7.79291 6.79289C7.60538 6.98043 7.50002 7.23478 7.50002 7.5V4C7.50002 3.73478 7.39466 3.48043 7.20713 3.29289C7.01959 3.10536 6.76524 3 6.50002 3C6.2348 3 5.98045 3.10536 5.79291 3.29289C5.60538 3.48043 5.50002 3.73478 5.50002 4V10.4284L3.71392 8.79735C3.53778 8.62926 3.30813 8.52849 3.06517 8.5127C2.82221 8.4969 2.58144 8.56708 2.38502 8.71095C2.27031 8.80052 2.17651 8.91403 2.11017 9.04357C2.04382 9.1731 2.00653 9.31555 2.00088 9.46098C1.99523 9.60641 2.02136 9.75132 2.07745 9.88561C2.13355 10.0199 2.21825 10.1403 2.32567 10.2386L6.92592 14.4717C7.29513 14.8115 7.77857 15 8.28032 15Z" fill="black"/>
</svg>
