<svg width="16" height="16" viewBox="0 0 16 16" fill="none" xmlns="http://www.w3.org/2000/svg">
<path fill-rule="evenodd" clip-rule="evenodd" d="M15 7H12.98L12.1228 4H5.8772L5.4485 5.5H10.1428C10.3513 5.49993 10.5547 5.56509 10.7243 5.68636C10.894 5.80762 11.0214 5.97892 11.0889 6.17625L11.7143 8H13V9H12V12.5C11.9997 12.7651 11.8942 13.0193 11.7067 13.2067C11.5193 13.3942 11.2651 13.4997 11 13.5V15H10V13.5H4V15H3V13.5C2.73488 13.4997 2.48072 13.3942 2.29326 13.2067C2.10579 13.0193 2.00033 12.7651 2 12.5V9H1V8H2.28575L2.9114 6.1758C2.97884 5.97857 3.10629 5.80737 3.27589 5.68618C3.44549 5.565 3.64875 5.4999 3.8572 5.5H4.40855L4.91575 3.725C4.97608 3.51645 5.10238 3.33307 5.27572 3.20236C5.44906 3.07165 5.6601 3.00065 5.8772 3H10.4086L10.1228 2H3.8772L3.02 5H1V4H2.2656L2.91575 1.72535C2.976 1.51673 3.10227 1.33326 3.27562 1.20248C3.44897 1.0717 3.66005 1.00066 3.8772 1H10.1228C10.34 1.00066 10.5511 1.07174 10.7244 1.20257C10.8978 1.3334 11.0241 1.51693 11.0843 1.7256L11.4486 3H12.1228C12.34 3.00063 12.5512 3.0717 12.7245 3.20253C12.8979 3.33336 13.0242 3.5169 13.0844 3.7256L13.7344 6H15V7ZM11 10.5V9.5H3V10.5H4V11.5H3V12.5H11V11.5H10V10.5H11ZM3.1714 8.5H10.8286L10.1428 6.5H3.8572L3.1714 8.5ZM5.5 10.5H8.5V11.5H5.5V10.5Z" fill="black"/>
</svg>
