<svg width="16" height="16" viewBox="0 0 16 16" fill="none" xmlns="http://www.w3.org/2000/svg">
<path fill-rule="evenodd" clip-rule="evenodd" d="M15 1H14V15H15V1ZM2 12H1V15H2V12ZM7.5 1H8.5V3H7.5V1ZM8.5 5H7.5V7H8.5V5ZM7.5 9H8.5V11H7.5V9ZM8.5 13H7.5V15H8.5V13ZM1.60997 5.46879C1.98482 5.82274 2.48464 6.01374 3 5.99998C3.51536 6.01374 4.01518 5.82274 4.39003 5.46879C4.76488 5.11484 4.98421 4.62679 5 4.11148C4.98877 3.73392 4.87002 3.3674 4.6577 3.05498L3.4146 1.20703C3.36624 1.14274 3.30359 1.09056 3.2316 1.05463C3.15961 1.0187 3.08026 1 2.9998 1C2.91934 1 2.83999 1.0187 2.768 1.05463C2.69601 1.09056 2.63336 1.14274 2.585 1.20703L1.32665 3.07953C1.12261 3.38582 1.00936 3.74358 1 4.11148C1.01579 4.62679 1.23512 5.11484 1.60997 5.46879ZM2.1719 3.61283L3 2.38158L3.8125 3.58818C3.92369 3.74113 3.98876 3.92272 4 4.11148C3.98413 4.36153 3.87016 4.59519 3.68288 4.76163C3.49561 4.92807 3.25018 5.01383 3 5.00023C2.74982 5.01383 2.50439 4.92807 2.31712 4.76163C2.12984 4.59519 2.01587 4.36153 2 4.11148C2.00881 3.93232 2.06843 3.75937 2.1719 3.61283ZM5.5 5.88135L4.6719 7.11265C4.56843 7.25918 4.50881 7.43214 4.5 7.6113C4.51588 7.86133 4.62986 8.09498 4.81713 8.26141C5.00441 8.42785 5.24983 8.51359 5.5 8.5C5.75017 8.51359 5.99559 8.42785 6.18287 8.26141C6.37014 8.09498 6.48412 7.86133 6.5 7.6113C6.48877 7.42252 6.4237 7.24091 6.3125 7.08795L5.5 5.88135ZM2.1719 9.11265L3 7.88135L3.8125 9.08795C3.9237 9.24091 3.98877 9.42252 4 9.6113C3.98412 9.86133 3.87014 10.095 3.68286 10.2614C3.49559 10.4278 3.25017 10.5136 3 10.5C2.74983 10.5136 2.50441 10.4278 2.31714 10.2614C2.12986 10.095 2.01588 9.86133 2 9.6113C2.00881 9.43214 2.06843 9.25918 2.1719 9.11265Z" fill="black"/>
</svg>
