<svg width="16" height="16" viewBox="0 0 16 16" fill="none" xmlns="http://www.w3.org/2000/svg">
<path fill-rule="evenodd" clip-rule="evenodd" d="M2 1H1V15H2V1ZM12.295 4L13 4.71L11.71 6L13 7.29L12.29 7.995L11.0025 6.7075L11 6.71L10.9975 6.7075L9.705 8L9 7.29L10.29 6L9 4.71L9.71 4.005L10.9975 5.2925L11 5.29L11.0025 5.2925L12.295 4ZM6.295 8L7 8.71L5.71 10L7 11.29L6.29 11.995L5.0025 10.7075L5 10.71L4.9975 10.7075L3.705 12L3 11.29L4.29 10L3 8.71L3.71 8.005L4.9975 9.2925L5 9.29L5.0025 9.2925L6.295 8ZM14 1H15V15H14V1ZM8.5 1H7.5V3H8.5V1ZM7.5 5H8.5V7H7.5V5ZM8.5 9H7.5V11H8.5V9ZM7.5 13H8.5V15H7.5V13Z" fill="black"/>
</svg>
