<svg width="16" height="16" viewBox="0 0 16 16" fill="none" xmlns="http://www.w3.org/2000/svg">
<path fill-rule="evenodd" clip-rule="evenodd" d="M8.09915 12.8752L6.04075 11.7164L5.136 12.6211L4.42885 11.914L5.1361 11.2071L2.6611 8.73209C2.47386 8.54439 2.3687 8.29009 2.3687 8.02497C2.3687 7.75984 2.47386 7.50554 2.6611 7.31784L1.60045 6.25719L2.30755 5.54994L3.3682 6.61074L7.61065 2.36814L6.55 1.30744L7.2573 0.600342L8.3178 1.66089C8.5055 1.47366 8.7598 1.36852 9.02492 1.36852C9.29004 1.36852 9.54434 1.47366 9.73205 1.66089L12.207 4.13589L12.9141 3.42879L13.6212 4.13589L12.7262 5.03089L13.8751 7.09889C13.9799 7.28905 14.0203 7.50806 13.9902 7.7231C13.9601 7.93814 13.8611 8.13764 13.7081 8.29169L9.2918 12.708C9.13777 12.861 8.93832 12.96 8.72331 12.9901C8.5083 13.0203 8.28931 12.98 8.09915 12.8752ZM8.58435 12.001L13.0007 7.58459L11.7383 5.31169L6.31155 10.7382L8.58435 12.001ZM5.48955 8.73209L4.78245 9.43919L5.48955 10.1463L11.1464 4.48944L10.4393 3.78234L9.7322 4.48944L9.025 3.78234L9.73215 3.07524L9.025 2.36814L3.3682 8.02494L4.0753 8.73209L4.78245 8.02494L5.48955 8.73209ZM7.86396 4.84303L5.74264 6.96436L6.44974 7.67146L8.57106 5.55014L7.86396 4.84303ZM15 14H1V15H15V14Z" fill="black"/>
</svg>
