<svg width="16" height="16" viewBox="0 0 16 16" fill="none" xmlns="http://www.w3.org/2000/svg">
<path fill-rule="evenodd" clip-rule="evenodd" d="M10.3333 1.00559C10.8266 0.675947 11.4067 0.5 12 0.5C12.7954 0.500873 13.5579 0.817225 14.1204 1.37964C14.6828 1.94206 14.9991 2.70462 15 3.5C15 4.09334 14.8241 4.67336 14.4944 5.16671C14.1648 5.66006 13.6962 6.04458 13.1481 6.27164C12.5999 6.4987 11.9967 6.55811 11.4147 6.44236C10.8328 6.3266 10.2982 6.04088 9.87868 5.62132C9.45912 5.20176 9.1734 4.66721 9.05765 4.08527C8.94189 3.50333 9.0013 2.90013 9.22836 2.35195C9.45543 1.80377 9.83994 1.33524 10.3333 1.00559ZM11.4375 3.7329L12.7486 5.0442L13.5445 4.2488L12.5625 3.2671V1.5H11.4375V3.7329ZM3 5V8H12V10.5C11.9981 11.0374 11.8228 11.5598 11.5001 11.9896C11.1774 12.4193 10.7246 12.7334 10.209 12.885L11.1153 15H10.0274L9.1703 13H4.8297L3.97255 15H2.88465L3.791 12.885C3.27543 12.7334 2.82259 12.4193 2.49989 11.9896C2.17718 11.5598 2.00186 11.0374 2 10.5V4.5C2.00075 3.83719 2.26439 3.20174 2.73307 2.73307C3.20174 2.26439 3.83719 2.00075 4.5 2H7.5V3H4.5C4.1908 3.00093 3.88948 3.09756 3.6374 3.27661C3.38533 3.45566 3.19486 3.70836 3.09215 4H7.5V5H3ZM9.5 10H11V9H3V10H4.5V11H3.09215C3.19486 11.2916 3.38533 11.5443 3.6374 11.7234C3.88948 11.9024 4.1908 11.9991 4.5 12H9.5C9.8092 11.9991 10.1105 11.9024 10.3626 11.7234C10.6147 11.5443 10.8051 11.2916 10.9079 11H9.5V10Z" fill="black"/>
</svg>
