<svg width="16" height="16" viewBox="0 0 16 16" fill="none" xmlns="http://www.w3.org/2000/svg">
<path fill-rule="evenodd" clip-rule="evenodd" d="M9.985 3.18285L14.275 7.11525L14.2749 7.115C14.6071 7.41946 14.8396 7.81719 14.9419 8.25606C15.0442 8.69492 15.0115 9.15446 14.8482 9.57443C14.6848 9.99441 14.3984 10.3552 14.0264 10.6096C13.6544 10.864 13.2143 11.0001 12.7636 11H1V10H12.7636C13.0127 10 13.256 9.92484 13.4616 9.78423C13.6673 9.64363 13.8256 9.44419 13.9159 9.21204C14.0062 8.9799 14.0243 8.72589 13.9678 8.4833C13.9112 8.24071 13.7827 8.02085 13.5991 7.85255L11.5782 6H7C6.73488 5.9997 6.4807 5.89424 6.29323 5.70677C6.10576 5.5193 6.0003 5.26513 6 5V3H1V2H6.9441C8.07022 1.99888 9.15563 2.42108 9.985 3.18285ZM7 3.0027V5H10.4873L9.3091 3.92C8.67805 3.34122 7.85619 3.01473 7 3.0027ZM4 8H1V7H4V6H1V5H4C4.26513 5.00028 4.51932 5.10572 4.7068 5.2932C4.89428 5.48068 4.99972 5.73487 5 6V7C4.99972 7.26513 4.89428 7.51932 4.7068 7.7068C4.51932 7.89428 4.26513 7.99972 4 8ZM15 12.5H1V13.5H2V14.5H3V13.5H5.5V14.5H6.5V13.5H9V14.5H10V13.5H12.5V14.5H13.5V13.5H15V12.5Z" fill="black"/>
</svg>
