<svg width="16" height="16" viewBox="0 0 16 16" fill="none" xmlns="http://www.w3.org/2000/svg">
<path fill-rule="evenodd" clip-rule="evenodd" d="M13.1337 1.10487C13.2976 1.03566 13.4736 1 13.6515 1.00001C13.8294 1.00001 14.0054 1.03567 14.1693 1.10488C14.3331 1.17409 14.4814 1.27545 14.6054 1.40296C14.8585 1.66406 15 2.01341 15 2.37703C15 2.74066 14.8585 3.09001 14.6054 3.35111L12.501 5.50001L10.3946 3.35111C10.1415 3.09001 10 2.74066 10 2.37703C10 2.01341 10.1415 1.66406 10.3946 1.40296C10.5186 1.27544 10.6669 1.17408 10.8308 1.10487C10.9946 1.03566 11.1707 1 11.3485 1C11.5264 1 11.7025 1.03566 11.8663 1.10487C12.0301 1.17408 12.1785 1.27544 12.3025 1.40296L12.501 1.60561L12.6976 1.40296C12.8216 1.27544 12.9699 1.17408 13.1337 1.10487ZM11 8V6.5H12V10.5C11.9981 11.0374 11.8228 11.5598 11.5001 11.9896C11.1774 12.4193 10.7246 12.7334 10.209 12.885L11.1153 15H10.0274L9.1703 13H4.8297L3.97255 15H2.88465L3.791 12.885C3.27543 12.7334 2.82259 12.4193 2.49989 11.9896C2.17718 11.5598 2.00186 11.0374 2 10.5V4.5C2.00075 3.83719 2.26439 3.20174 2.73307 2.73307C3.20174 2.26439 3.83719 2.00075 4.5 2H7.5V3H4.5C4.1908 3.00093 3.88948 3.09756 3.6374 3.27661C3.38533 3.45566 3.19486 3.70836 3.09215 4H7.5V5H3V8H11ZM9.5 10H11V9H3V10H4.5V11H3.09215C3.19486 11.2916 3.38533 11.5443 3.6374 11.7234C3.88948 11.9024 4.1908 11.9991 4.5 12H9.5C9.8092 11.9991 10.1105 11.9024 10.3626 11.7234C10.6147 11.5443 10.8051 11.2916 10.9079 11H9.5V10Z" fill="black"/>
</svg>
