<svg width="16" height="16" viewBox="0 0 16 16" fill="none" xmlns="http://www.w3.org/2000/svg">
<path fill-rule="evenodd" clip-rule="evenodd" d="M14.1651 3.39775C14.2706 3.50324 14.4137 3.5625 14.5628 3.5625H15.0003V5H9.00034V3.5625H9.43784C9.58702 3.5625 9.73009 3.50324 9.83558 3.39775C9.94107 3.29226 10.0003 3.14918 10.0003 3C10.0003 2.85082 9.94107 2.70774 9.83558 2.60225C9.73009 2.49676 9.58702 2.4375 9.43784 2.4375H9.00034V1H15.0003V2.4375H14.5628C14.4137 2.4375 14.2706 2.49676 14.1651 2.60225C14.0596 2.70774 14.0003 2.85082 14.0003 3C14.0003 3.14918 14.0596 3.29226 14.1651 3.39775ZM11.0003 8V6.5H12.0003V10.5C11.9985 11.0374 11.8231 11.5599 11.5004 11.9896C11.1777 12.4193 10.7249 12.7334 10.2093 12.885L11.1156 15H10.0277L9.17059 13H4.82999L3.97289 15H2.88499L3.79134 12.885C3.27576 12.7334 2.82293 12.4193 2.50022 11.9896C2.17752 11.5598 2.00219 11.0374 2.00034 10.5V4.5C2.00109 3.83719 2.26472 3.20174 2.7334 2.73307C3.20208 2.26439 3.83753 2.00075 4.50034 2H7.50034V3H4.50034C4.19114 3.00093 3.88982 3.09756 3.63774 3.27661C3.38566 3.45566 3.19519 3.70836 3.09249 4H7.50034V5H3.00034V8H11.0003ZM9.50034 10H11.0003V9H3.00034V10H4.50034V11H3.09249C3.19519 11.2916 3.38566 11.5443 3.63774 11.7234C3.88982 11.9024 4.19114 11.9991 4.50034 12H9.50034C9.80953 11.9991 10.1109 11.9024 10.3629 11.7234C10.615 11.5443 10.8055 11.2916 10.9082 11H9.50034V10Z" fill="black"/>
</svg>
