<svg width="16" height="16" viewBox="0 0 16 16" fill="none" xmlns="http://www.w3.org/2000/svg">
<path fill-rule="evenodd" clip-rule="evenodd" d="M9.0747 4.32001L14.8572 8.29501H14.8571C15.1178 8.47432 15.3144 8.73232 15.418 9.03131C15.5216 9.33029 15.5269 9.65458 15.433 9.95678C15.3392 10.259 15.1511 10.5232 14.8964 10.7109C14.6416 10.8986 14.3335 10.9999 14.0171 11H1V10H14.0171C14.1202 10 14.2206 9.967 14.3035 9.90586C14.3865 9.84471 14.4478 9.75862 14.4783 9.66017C14.5089 9.56172 14.5071 9.45608 14.4734 9.35869C14.4396 9.2613 14.3755 9.17728 14.2906 9.11891L10.4812 6.50001H4.5V5.50001H9.0266L8.5083 5.14356C7.42552 4.39715 6.14107 3.99826 4.82595 4.00001H1V3.00001H4.82595C6.34343 2.99802 7.8255 3.45847 9.0747 4.32001ZM1 12.5H15V13.5H13.5V14.5H12.5V13.5H10V14.5H9V13.5H6.5V14.5H5.5V13.5H3V14.5H2V13.5H1V12.5Z" fill="black"/>
</svg>
