<svg width="16" height="16" viewBox="0 0 16 16" fill="none" xmlns="http://www.w3.org/2000/svg">
<path fill-rule="evenodd" clip-rule="evenodd" d="M5.54011 1.58052C4.7764 1.96229 4.11203 2.5166 3.59961 3.19957L4.39931 3.79987C4.81851 3.24093 5.36209 2.78728 5.987 2.47482C6.61191 2.16237 7.30099 1.9997 7.99966 1.9997C8.69833 1.9997 9.3874 2.16237 10.0123 2.47482C10.6372 2.78728 11.1808 3.24093 11.6 3.79987L12.3999 3.19957C11.8875 2.5166 11.2231 1.96229 10.4594 1.58052C9.69569 1.19875 8.85358 1 7.99976 1C7.14594 1 6.30383 1.19875 5.54011 1.58052ZM5.3916 4.66624C5.71992 4.29932 6.12196 4.0058 6.57144 3.80483C7.02093 3.60387 7.50776 3.5 8.00013 3.5C8.49249 3.5 8.97932 3.60387 9.42881 3.80483C9.8783 4.0058 10.2803 4.29932 10.6087 4.66624L9.86365 5.33324C9.62916 5.07106 9.34197 4.86131 9.02087 4.71771C8.69977 4.5741 8.35198 4.49987 8.00023 4.49987C7.64848 4.49987 7.30068 4.5741 6.97958 4.71771C6.65848 4.86131 6.3713 5.07106 6.1368 5.33324L5.3916 4.66624ZM5.28509 15L5.75174 14H10.2481L10.7148 15H11.8184L8.50009 7.8889V5.5H7.50009V7.8889L4.18164 15H5.28509ZM8.00009 9.18235L8.84834 11H7.15184L8.00009 9.18235ZM9.31509 12L9.78174 13H6.21854L6.68509 12H9.31509Z" fill="black"/>
</svg>
