<svg width="16" height="16" viewBox="0 0 16 16" fill="none" xmlns="http://www.w3.org/2000/svg">
<path fill-rule="evenodd" clip-rule="evenodd" d="M8 2V1C11.85 1 15 4.15 15 8C15 11.85 11.85 15 8 15V14C11.3 14 14 11.3 14 8C14 4.7 11.3 2 8 2ZM10.45 7.5H11.5V8.5H10.45C10.4 8.85 10.25 9.15 10.1 9.4L10.85 10.15L10.15 10.85L9.4 10.1C9.1 10.25 8.8 10.4 8.5 10.45V11.5H7.5V10.45C7.15 10.4 6.85 10.25 6.6 10.1L5.85 10.85L5.15 10.15L5.9 9.4C5.75 9.1 5.6 8.8 5.55 8.5H4.5V7.5H5.55C5.6 7.15 5.75 6.85 5.9 6.6L5.15 5.85L5.85 5.15L6.6 5.9C6.9 5.75 7.2 5.6 7.5 5.55V4.5H8.5V5.55C8.85 5.6 9.15 5.75 9.4 5.9L10.15 5.15L10.85 5.85L10.1 6.6C10.25 6.9 10.4 7.2 10.45 7.5ZM6.5 8C6.5 8.85 7.15 9.5 8 9.5C8.85 9.5 9.5 8.85 9.5 8C9.5 7.15 8.85 6.5 8 6.5C7.15 6.5 6.5 7.15 6.5 8ZM4.1 12.5498L3.5 13.3498C4.1 13.8498 4.8 14.2998 5.6 14.5498L5.95 13.5998C5.25 13.3498 4.65 12.9998 4.1 12.5498ZM1.1001 9.2L2.1001 9C2.2001 9.7 2.4501 10.4 2.8001 11L1.9501 11.5C1.5501 10.8 1.2501 10 1.1001 9.2ZM2.7999 5L1.9499 4.5C1.5499 5.2 1.2499 6 1.1499 6.8L2.1499 6.95C2.1999 6.25 2.4499 5.6 2.7999 5ZM5.55 1.4502L5.9 2.4002C5.25 2.6502 4.65 3.0002 4.15 3.4002L3.5 2.6502C4.1 2.1502 4.8 1.7502 5.55 1.4502Z" fill="black"/>
</svg>
