<svg width="16" height="16" viewBox="0 0 16 16" fill="none" xmlns="http://www.w3.org/2000/svg">
<path fill-rule="evenodd" clip-rule="evenodd" d="M7 5H14C14.2651 4.9997 14.5193 4.89424 14.7068 4.70677C14.8942 4.5193 14.9997 4.26512 15 4V2C14.9997 1.73488 14.8942 1.4807 14.7068 1.29323C14.5193 1.10576 14.2651 1.0003 14 1H7C6.73488 1.0003 6.4807 1.10576 6.29323 1.29323C6.10576 1.4807 6.0003 1.73488 6 2V4C6.0003 4.26512 6.10576 4.5193 6.29323 4.70677C6.4807 4.89424 6.73488 4.9997 7 5ZM7 4V2H14V4H7ZM4 15H2C1.73488 14.9997 1.4807 14.8942 1.29323 14.7068C1.10576 14.5193 1.0003 14.2651 1 14V7C1.0003 6.73488 1.10576 6.4807 1.29323 6.29323C1.4807 6.10576 1.73488 6.0003 2 6H4C4.26512 6.0003 4.5193 6.10576 4.70677 6.29323C4.89424 6.4807 4.9997 6.73488 5 7V14C4.9997 14.2651 4.89424 14.5193 4.70677 14.7068C4.5193 14.8942 4.26512 14.9997 4 15ZM2 7V14H4V7H2ZM9.5 13H7V12H9.5C10.1628 11.9993 10.7983 11.7356 11.267 11.267C11.7356 10.7983 11.9993 10.1628 12 9.5V7H13V9.5C12.999 10.4279 12.6299 11.3176 11.9737 11.9737C11.3176 12.6299 10.4279 12.999 9.5 13Z" fill="black"/>
</svg>
