<svg width="16" height="16" viewBox="0 0 16 16" fill="none" xmlns="http://www.w3.org/2000/svg">
<path fill-rule="evenodd" clip-rule="evenodd" d="M8 2V1C11.85 1 15 4.15 15 8C15 11.85 11.85 15 8 15V14C11.3 14 14 11.3 14 8C14 4.7 11.3 2 8 2ZM11 6.5V5.5H5V6.5H11ZM5 8.5V7.5H11V8.5H5ZM5 9.5H9V10.5H5V9.5ZM4.1 12.5498L3.5 13.3498C4.1 13.8498 4.8 14.2998 5.6 14.5498L5.95 13.5998C5.25 13.3498 4.65 12.9998 4.1 12.5498ZM1.1001 9.2L2.1001 9C2.2001 9.7 2.4501 10.4 2.8001 11L1.9501 11.5C1.5501 10.8 1.2501 10 1.1001 9.2ZM2.7999 5L1.9499 4.5C1.5499 5.2 1.2499 6 1.1499 6.8L2.1499 6.95C2.1999 6.25 2.4499 5.6 2.7999 5ZM5.55 1.4502L5.9 2.4002C5.25 2.6502 4.65 3.0002 4.15 3.4002L3.5 2.6502C4.1 2.1502 4.8 1.7502 5.55 1.4502Z" fill="black"/>
</svg>
