<svg width="16" height="16" viewBox="0 0 16 16" fill="none" xmlns="http://www.w3.org/2000/svg">
<path fill-rule="evenodd" clip-rule="evenodd" d="M14.9557 6.96773L11.8142 1.18528C11.7832 1.12915 11.7376 1.08235 11.6824 1.04977C11.6271 1.01719 11.5641 1 11.5 1C11.4359 1 11.3729 1.01719 11.3176 1.04977C11.2624 1.08235 11.2168 1.12915 11.1858 1.18528L8.04425 6.96773C8.01439 7.02253 7.99929 7.08416 8.00043 7.14655C8.00157 7.20895 8.01891 7.26998 8.05075 7.32366C8.08259 7.37733 8.12784 7.42181 8.18205 7.45272C8.23627 7.48363 8.29759 7.49992 8.36 7.49998H14.64C14.7024 7.49992 14.7637 7.48363 14.8179 7.45272C14.8722 7.42181 14.9174 7.37733 14.9492 7.32366C14.9811 7.26998 14.9984 7.20895 14.9996 7.14655C15.0007 7.08416 14.9856 7.02253 14.9557 6.96773ZM11.875 2.99998L11.875 3H11.125L11.125 2.99998H11.875ZM11.2222 5.58427C11.14 5.63921 11.0759 5.7173 11.0381 5.80866C11.0326 5.82186 11.0277 5.83524 11.0234 5.84879C11.0475 5.77271 11.0896 5.70324 11.1464 5.64643C11.2164 5.5765 11.3055 5.52888 11.4025 5.50959C11.4994 5.4903 11.6 5.5002 11.6913 5.53804C11.7221 5.55078 11.7513 5.56649 11.7787 5.58486C11.6969 5.52994 11.6 5.5 11.5 5.5C11.4011 5.5 11.3044 5.52933 11.2222 5.58427ZM13 8.5V9.5H9.5V14H11V15H9.5C9.23489 14.9996 8.98075 14.8942 8.79329 14.7067C8.60583 14.5193 8.50036 14.2651 8.5 14V8.5H13ZM6 15.0002H4.5V14.0002H6V7.78343L4.2427 6.72898L4.7573 5.87158L6.51465 6.92578C6.66234 7.01508 6.78456 7.14089 6.86956 7.29109C6.95456 7.44129 6.99948 7.61085 7 7.78343V14.0002C6.99968 14.2654 6.89422 14.5195 6.70675 14.707C6.51929 14.8945 6.26512 14.9999 6 15.0002ZM9.8119 1.6196L9.3319 2.50315C8.78045 2.16717 8.1457 1.99289 7.5 2.0002C6.92772 2.00198 6.36781 2.16689 5.88593 2.47559C5.40404 2.78428 5.02016 3.22398 4.7793 3.7431L4.625 4.07685L4.1935 4.01975C4.12955 4.00859 4.06489 4.00206 4 4.0002C3.46957 4.0002 2.96086 4.21092 2.58579 4.58599C2.21071 4.96106 2 5.46977 2 6.0002C2 6.53063 2.21071 7.03934 2.58579 7.41441C2.96086 7.78949 3.46957 8.0002 4 8.0002V9.0002C3.20435 9.0002 2.44129 8.68413 1.87868 8.12152C1.31607 7.55891 1 6.79585 1 6.0002C1 5.20455 1.31607 4.44149 1.87868 3.87888C2.44129 3.31627 3.20435 3.0002 4 3.0002C4.0132 3.0002 4.02625 3.0002 4.0393 3.0007C4.39108 2.39396 4.89571 1.88999 5.5029 1.539C6.11009 1.188 6.79866 1.00223 7.5 1.0002C8.31263 0.992486 9.11197 1.20664 9.8119 1.6196Z" fill="black"/>
</svg>
