<svg width="16" height="16" viewBox="0 0 16 16" fill="none" xmlns="http://www.w3.org/2000/svg">
<path fill-rule="evenodd" clip-rule="evenodd" d="M9.5 15H11V14H9.5V9.5H11.5C11.9187 9.5 12.3328 9.41237 12.7155 9.24275C13.0983 9.07313 13.4414 8.82528 13.7227 8.51512C14.0039 8.20497 14.2172 7.83939 14.3487 7.44188C14.4802 7.04438 14.5271 6.62375 14.4862 6.20705C14.394 5.45425 14.0274 4.76188 13.4567 4.26243C12.8859 3.76299 12.151 3.49153 11.3926 3.5H11.3758C10.8462 1.9888 9.3394 1 7.5 1C6.79866 1.00201 6.11008 1.18777 5.50289 1.53877C4.89569 1.88977 4.39107 2.39375 4.0393 3.0005C4.02625 3 4.0132 3 4 3C3.20435 3 2.44129 3.31607 1.87868 3.87868C1.31607 4.44129 1 5.20435 1 6C1 6.79565 1.31607 7.55871 1.87868 8.12132C2.44129 8.68393 3.20435 9 4 9V8C3.46957 8 2.96086 7.78929 2.58579 7.41421C2.21071 7.03914 2 6.53043 2 6C2 5.46957 2.21071 4.96086 2.58579 4.58579C2.96086 4.21071 3.46957 4 4 4C4.06487 4.00193 4.12953 4.00841 4.1935 4.0194L4.625 4.07655L4.77925 3.74295C5.02015 3.22384 5.40404 2.78416 5.88593 2.47545C6.36781 2.16675 6.92772 2.00182 7.5 2C9.0154 2 10.226 2.84805 10.5125 4.1105L10.6008 4.5H11.3926C11.9027 4.48984 12.3987 4.668 12.7857 5.00042C13.1727 5.33285 13.4236 5.79623 13.4905 6.302C13.5181 6.57998 13.4872 6.86067 13.3997 7.12597C13.3122 7.39127 13.1702 7.63531 12.9826 7.84237C12.7951 8.04944 12.5663 8.21493 12.311 8.32819C12.0556 8.44146 11.7794 8.49998 11.5 8.5H8.5V14C8.50032 14.2651 8.60578 14.5193 8.79324 14.7068C8.98071 14.8942 9.23488 14.9997 9.5 15ZM4.50001 15.0002H6.00001C6.26513 14.9999 6.51931 14.8945 6.70678 14.707C6.89425 14.5195 6.9997 14.2654 7.00001 14.0002V7.78343C6.99949 7.61085 6.95457 7.44129 6.86957 7.29109C6.78457 7.14089 6.66234 7.01508 6.51466 6.92578L4.75731 5.87158L4.24271 6.72898L6.00001 7.78343V14.0002H4.50001V15.0002Z" fill="black"/>
</svg>
