<svg width="16" height="16" viewBox="0 0 16 16" fill="none" xmlns="http://www.w3.org/2000/svg">
<path fill-rule="evenodd" clip-rule="evenodd" d="M10.2376 3.34815L11.3261 2.09105C3.88025 2.90355 3.9916 7.735 4.0006 7.95045L4.00145 7.9712L4.00185 8C4.00033 8.62143 4.14478 9.23453 4.42358 9.78992C4.70237 10.3453 5.10772 10.8274 5.60695 11.1975L6.46445 11.8413L5.7625 12.6518L4.6725 13.9107C12.12 13.1052 12.0084 8.2654 11.9994 8.04955L11.9986 8.0288L11.9982 8C11.9997 7.37858 11.8553 6.76549 11.5765 6.2101C11.2977 5.65472 10.8924 5.17257 10.3932 4.8025L9.53565 4.1587L10.2376 3.34815ZM12.4743 1.0005C12.4826 1 12.4907 1 12.4989 1C12.5938 1.00081 12.6866 1.02851 12.7664 1.07988C12.8462 1.13126 12.9099 1.20421 12.9499 1.29027C12.99 1.37633 13.0048 1.47199 12.9927 1.56614C12.9806 1.6603 12.9421 1.7491 12.8816 1.82225L10.9936 4.0027C11.6157 4.46702 12.1209 5.07016 12.4689 5.76411C12.8169 6.45807 12.9981 7.22367 12.9982 8C12.9982 8 13.3734 14.5427 3.52575 14.9995C3.51745 15 3.5093 15 3.5011 15C3.40618 14.9992 3.31343 14.9715 3.2336 14.9201C3.15378 14.8687 3.09015 14.7958 3.05009 14.7097C3.01003 14.6237 2.99519 14.528 3.00728 14.4339C3.01937 14.3397 3.0579 14.2509 3.1184 14.1777L5.0066 11.9973C4.38439 11.533 3.87916 10.9299 3.53112 10.2359C3.18308 9.54197 3.00185 8.77634 3.00185 8C3.00185 8 2.6266 1.4573 12.4743 1.0005ZM6.61108 10.0787C7.0222 10.3534 7.50555 10.5 8 10.5C8.66281 10.4992 9.29826 10.2356 9.76693 9.76693C10.2356 9.29826 10.4992 8.66281 10.5 8C10.5 7.50555 10.3534 7.0222 10.0787 6.61108C9.80397 6.19995 9.41353 5.87952 8.95671 5.6903C8.49989 5.50108 7.99723 5.45157 7.51228 5.54804C7.02732 5.6445 6.58187 5.8826 6.23223 6.23223C5.8826 6.58187 5.6445 7.02732 5.54804 7.51228C5.45157 7.99723 5.50108 8.49989 5.6903 8.95671C5.87952 9.41353 6.19995 9.80397 6.61108 10.0787ZM7.16665 6.7528C7.41332 6.58797 7.70333 6.5 8 6.5C8.39769 6.50044 8.77897 6.65861 9.06018 6.93982C9.34139 7.22103 9.49956 7.60231 9.5 8C9.5 8.29667 9.41203 8.58668 9.24721 8.83336C9.08238 9.08003 8.84812 9.27229 8.57403 9.38582C8.29994 9.49935 7.99834 9.52906 7.70737 9.47118C7.41639 9.4133 7.14912 9.27044 6.93934 9.06066C6.72956 8.85088 6.5867 8.58361 6.52882 8.29264C6.47095 8.00167 6.50065 7.70007 6.61418 7.42598C6.72771 7.15189 6.91997 6.91762 7.16665 6.7528Z" fill="black"/>
</svg>
