<svg width="16" height="16" viewBox="0 0 16 16" fill="none" xmlns="http://www.w3.org/2000/svg">
<path fill-rule="evenodd" clip-rule="evenodd" d="M11.0013 3.7407C12.0244 4.33579 12.8645 5.20041 13.43 6.24025C14.9822 8.94385 15 12.356 15 12.5C14.9999 12.5988 14.9706 12.6955 14.9157 12.7776C14.8607 12.8598 14.7827 12.9238 14.6914 12.9617C14.6 12.9995 14.4996 13.0094 14.4026 12.9902C14.3057 12.9709 14.2166 12.9234 14.1467 12.8535C13.5368 12.2437 13.0095 11.7271 12.5995 11.3294C12.4749 11.2084 12.3616 11.0989 12.2595 11.001C11.6579 12.0342 10.7823 12.8808 9.7295 13.4473C7.0305 14.9824 3.6428 15 3.5 15C3.40111 15 3.30445 14.9707 3.22224 14.9157C3.14002 14.8608 3.07594 14.7827 3.03811 14.6913C3.00027 14.6 2.99037 14.4994 3.00967 14.4024C3.02896 14.3055 3.07658 14.2164 3.1465 14.1465C3.75635 13.5366 4.27295 13.0097 4.67065 12.5993C4.74878 12.5188 4.82764 12.4369 4.90415 12.3575C4.93619 12.3243 4.96781 12.2914 4.9988 12.2593C4.30301 11.8638 3.6926 11.3342 3.2029 10.7011C1.025 7.937 1 3.6797 1 3.5C1.00002 3.40112 1.02936 3.30448 1.0843 3.22227C1.13924 3.14007 1.21732 3.076 1.30867 3.03816C1.40002 3.00033 1.50054 2.99042 1.59752 3.00971C1.69449 3.02899 1.78357 3.0766 1.8535 3.1465C2.52 3.81275 3.08715 4.36745 3.51125 4.77785C3.56148 4.82645 3.6098 4.87301 3.65602 4.91755C3.68502 4.94549 3.7132 4.97265 3.7405 4.999C4.15041 4.27856 4.70342 3.64962 5.3655 3.1509C8.13185 1.0244 12.323 1 12.5 1C12.5989 1.00001 12.6955 1.02934 12.7777 1.08428C12.86 1.13922 12.924 1.2173 12.9619 1.30865C12.9997 1.4 13.0096 1.50052 12.9903 1.5975C12.9711 1.69448 12.9235 1.78357 12.8535 1.8535C12.1875 2.52 11.6325 3.08715 11.2225 3.51125C11.1431 3.59322 11.0694 3.6697 11.0013 3.7407ZM11.6416 9.97755L11.915 9.29395C11.915 9.29395 13.6821 10.9875 13.9068 11.2083C13.752 9.64542 13.2956 8.12739 12.5628 6.7383C11.9995 5.67196 11.0869 4.83157 9.9778 4.3579L9.29395 4.08445C9.29395 4.08445 10.9412 2.36525 11.2078 2.0935C9.81545 2.2573 7.58325 2.7075 5.975 3.94385C5.25739 4.47706 4.69833 5.19542 4.3577 6.022L4.0843 6.7056C4.0843 6.7056 2.3653 5.05915 2.09355 4.7923C2.2593 6.20115 2.71825 8.4702 3.98855 10.0823C4.51604 10.7733 5.21783 11.3115 6.02195 11.6419L6.70605 11.9156C6.70605 11.9156 5.01245 13.6821 4.792 13.9067C6.34444 13.7526 7.8528 13.3015 9.235 12.5781C10.3132 12.0149 11.1635 11.0961 11.6416 9.97755ZM6.61107 10.0787C7.0222 10.3534 7.50555 10.5 8 10.5C8.66281 10.4992 9.29826 10.2356 9.76693 9.76693C10.2356 9.29826 10.4992 8.66281 10.5 8C10.5 7.50555 10.3534 7.0222 10.0787 6.61108C9.80397 6.19995 9.41352 5.87952 8.95671 5.6903C8.49989 5.50108 7.99723 5.45157 7.51227 5.54804C7.02732 5.6445 6.58186 5.8826 6.23223 6.23223C5.8826 6.58187 5.6445 7.02732 5.54804 7.51228C5.45157 7.99723 5.50108 8.49989 5.6903 8.95671C5.87952 9.41353 6.19995 9.80397 6.61107 10.0787ZM7.16664 6.7528C7.41332 6.58797 7.70333 6.5 8 6.5C8.39769 6.50044 8.77897 6.65861 9.06018 6.93982C9.34139 7.22103 9.49956 7.60231 9.5 8C9.5 8.29667 9.41203 8.58668 9.2472 8.83336C9.08238 9.08003 8.84811 9.27229 8.57402 9.38582C8.29994 9.49935 7.99834 9.52906 7.70736 9.47118C7.41639 9.4133 7.14912 9.27044 6.93934 9.06066C6.72956 8.85088 6.5867 8.58361 6.52882 8.29264C6.47094 8.00167 6.50065 7.70007 6.61418 7.42598C6.72771 7.15189 6.91997 6.91762 7.16664 6.7528Z" fill="black"/>
</svg>
