<svg width="16" height="16" viewBox="0 0 16 16" fill="none" xmlns="http://www.w3.org/2000/svg">
<path fill-rule="evenodd" clip-rule="evenodd" d="M11.8142 1.18528L14.9558 6.96773C14.9856 7.02253 15.0007 7.08416 14.9996 7.14655C14.9984 7.20895 14.9811 7.26998 14.9493 7.32366C14.9174 7.37733 14.8722 7.42181 14.818 7.45272C14.7637 7.48363 14.7024 7.49992 14.64 7.49998H8.36001C8.2976 7.49992 8.23629 7.48363 8.18207 7.45272C8.12785 7.42181 8.08261 7.37733 8.05076 7.32366C8.01892 7.26998 8.00158 7.20895 8.00044 7.14655C7.9993 7.08416 8.0144 7.02253 8.04426 6.96773L11.1858 1.18528C11.2169 1.12915 11.2624 1.08235 11.3176 1.04977C11.3729 1.01719 11.4359 1 11.5 1C11.5642 1 11.6271 1.01719 11.6824 1.04977C11.7377 1.08235 11.7832 1.12915 11.8142 1.18528ZM11.875 2.99998H11.125V4.99998H11.875V2.99998ZM11.2222 6.41572C11.3045 6.47066 11.4011 6.49998 11.5 6.49998C11.6326 6.49998 11.7598 6.4473 11.8536 6.35354C11.9473 6.25977 12 6.13259 12 5.99998C12 5.90109 11.9707 5.80442 11.9157 5.7222C11.8608 5.63997 11.7827 5.57589 11.6914 5.53804C11.6 5.5002 11.4995 5.4903 11.4025 5.50959C11.3055 5.52888 11.2164 5.5765 11.1465 5.64643C11.0765 5.71636 11.0289 5.80545 11.0096 5.90244C10.9903 5.99943 11.0002 6.09996 11.0381 6.19132C11.0759 6.28269 11.14 6.36078 11.2222 6.41572ZM13.7929 12.5948C13.8777 12.6561 13.9412 12.7425 13.9744 12.8418C14.0646 13.0793 14.202 13.2961 14.3782 13.479C14.5545 13.662 14.766 13.8073 15 13.9062V14.948C14.4018 14.8279 13.8682 14.4929 13.5 14.0063C13.266 14.3151 12.9636 14.5655 12.6166 14.7379C12.2696 14.9103 11.8875 15 11.5 15C11.1126 15 10.7304 14.9103 10.3834 14.7379C10.0364 14.5655 9.73405 14.3151 9.50001 14.0063C9.26835 14.3177 8.96648 14.5699 8.61895 14.7426C8.27142 14.9152 7.88805 15.0034 7.50001 15H1.00001V14H6.17751C5.69971 12.877 5.00001 10.4683 5.00001 6V5.93435L4.44141 6.30665C3.99758 6.6018 3.63369 7.00221 3.38218 7.47216C3.13068 7.9421 2.99939 8.46699 3.00001 9H2.00001C1.99926 8.30233 2.17114 7.61532 2.50033 7.0002C2.82953 6.38508 3.30581 5.86098 3.88671 5.4746L4.59866 5H3.83341C3.07635 5.00143 2.33992 5.24691 1.73341 5.7L0.800012 6.4L0.200012 5.6L1.13326 4.9C1.9132 4.31773 2.85995 4.00215 3.83326 4H4.44141C3.7883 3.36235 2.91278 3.00374 2.00001 3H1.00001V2H2.00001C2.67174 2.00253 3.33446 2.15481 3.93992 2.44576C4.54538 2.73671 5.07834 3.159 5.50001 3.6819C5.92168 3.159 6.45465 2.7367 7.0601 2.44575C7.66556 2.15481 8.32828 2.00253 9.00001 2H9.87681L9.33346 3H9.00001C8.08722 3.00381 7.21168 3.36241 6.55846 4H7.16666C7.67233 4.00133 8.17417 4.08782 8.65111 4.25585L8.16336 5.15355C7.84031 5.05443 7.50457 5.0027 7.16666 5H6.40126L7.11316 5.4748C7.32971 5.62213 7.53208 5.78928 7.71766 5.9741L7.21731 6.895C7.02567 6.66964 6.80399 6.47167 6.55846 6.30665L6.00001 5.93435V6C6.00001 11.156 6.96206 13.3969 7.28321 14H7.50001C7.84054 13.9801 8.16745 13.8594 8.43913 13.6531C8.71082 13.4469 8.91499 13.1644 9.02566 12.8418C9.0588 12.7425 9.12228 12.6561 9.20714 12.5948C9.292 12.5335 9.39397 12.5003 9.49866 12.5001C9.60335 12.4998 9.70548 12.5324 9.79066 12.5933C9.87584 12.6541 9.93976 12.7402 9.97341 12.8393C10.0839 13.1625 10.2881 13.4455 10.5599 13.6522C10.8318 13.8589 11.1591 13.98 11.5 14C11.841 13.98 12.1682 13.8589 12.4401 13.6522C12.712 13.4455 12.9161 13.1625 13.0266 12.8393C13.0603 12.7402 13.1242 12.6541 13.2094 12.5933C13.2945 12.5324 13.3967 12.4998 13.5014 12.5001C13.6061 12.5003 13.708 12.5335 13.7929 12.5948Z" fill="black"/>
</svg>
