<svg width="16" height="16" viewBox="0 0 16 16" fill="none" xmlns="http://www.w3.org/2000/svg">
<path fill-rule="evenodd" clip-rule="evenodd" d="M9.5 2H15V3H9.5V2ZM15 4H9.5V5H15V4ZM9.5 10H15V6H9.5V10ZM14 9H10.5V7H14V9ZM15 11H9.5V12H15V11ZM15 13H9.5V14H15V13ZM5.1465 9.3535L4 8.20715V6H5V7.79285L5.8535 8.6465L5.1465 9.3535ZM0.5 8C0.5 10.2056 2.29445 12 4.5 12C6.70555 12 8.5 10.2056 8.5 8C8.5 5.79445 6.70555 4 4.5 4C2.29445 4 0.5 5.79445 0.5 8ZM1.5 8C1.5 6.34585 2.84585 5 4.5 5C6.15415 5 7.5 6.34585 7.5 8C7.5 9.65415 6.15415 11 4.5 11C2.84585 11 1.5 9.65415 1.5 8Z" fill="black"/>
</svg>
