<svg width="16" height="16" viewBox="0 0 16 16" fill="none" xmlns="http://www.w3.org/2000/svg">
<path fill-rule="evenodd" clip-rule="evenodd" d="M9 7H10C10.2652 7 10.5196 7.10536 10.7071 7.29289C10.8946 7.48043 11 7.73478 11 8V14C11 14.2652 10.8946 14.5196 10.7071 14.7071C10.5196 14.8946 10.2652 15 10 15H2C1.73478 15 1.48043 14.8946 1.29289 14.7071C1.10536 14.5196 1 14.2652 1 14V8C1 7.73478 1.10536 7.48043 1.29289 7.29289C1.48043 7.10536 1.73478 7 2 7H3V4C3 3.20435 3.31607 2.44129 3.87868 1.87868C4.44129 1.31607 5.20435 1 6 1C6.79565 1 7.55871 1.31607 8.12132 1.87868C8.68393 2.44129 9 3.20435 9 4V7ZM4.58579 2.58579C4.21071 2.96086 4 3.46957 4 4V7H8V4C8 3.46957 7.78929 2.96086 7.41421 2.58579C7.03914 2.21071 6.53043 2 6 2C5.46957 2 4.96086 2.21071 4.58579 2.58579ZM2 8V14H10V8H2ZM12 15V14H14V8H12V4C11.9994 3.46975 11.7885 2.96139 11.4136 2.58644C11.0386 2.2115 10.5303 2.0006 10 2V1C10.7954 1.00089 11.5579 1.31724 12.1203 1.87966C12.6828 2.44208 12.9991 3.20462 13 4V7H14C14.2651 7.00028 14.5193 7.10572 14.7068 7.2932C14.8943 7.48068 14.9997 7.73487 15 8V14C14.9997 14.2651 14.8943 14.5193 14.7068 14.7068C14.5193 14.8943 14.2651 14.9997 14 15H12ZM5.49993 11.59L4.49993 10.5895L3.79443 11.2945L5.49993 13L8.49993 10L7.79493 9.29504L5.49993 11.59Z" fill="black"/>
</svg>
