<svg width="16" height="16" viewBox="0 0 16 16" fill="none" xmlns="http://www.w3.org/2000/svg">
<g clip-path="url(#clip0_3_10589)">
<path fill-rule="evenodd" clip-rule="evenodd" d="M11.5 2.75C11.5 2.40388 11.6026 2.06554 11.7949 1.77775C11.9872 1.48997 12.2605 1.26566 12.5803 1.13321C12.9001 1.00076 13.2519 0.966102 13.5914 1.03363C13.9309 1.10115 14.2427 1.26782 14.4874 1.51256C14.7322 1.75731 14.8988 2.06913 14.9664 2.40859C15.0339 2.74806 14.9992 3.09993 14.8668 3.4197C14.7343 3.73947 14.51 4.01278 14.2222 4.20507C13.9345 4.39737 13.5961 4.5 13.25 4.5C12.786 4.49944 12.3412 4.31489 12.0132 3.98682C11.6851 3.65876 11.5006 3.21396 11.5 2.75ZM12.5 2.75C12.5 2.89834 12.544 3.04334 12.6264 3.16668C12.7088 3.29002 12.8259 3.38614 12.963 3.44291C13.1 3.49968 13.2508 3.51453 13.3963 3.48559C13.5418 3.45665 13.6754 3.38522 13.7803 3.28033C13.8852 3.17544 13.9566 3.0418 13.9856 2.89632C14.0145 2.75083 13.9997 2.60003 13.9429 2.46299C13.8861 2.32594 13.79 2.20881 13.6667 2.1264C13.5433 2.04399 13.3983 2 13.25 2C13.0512 2.00023 12.8605 2.07932 12.7199 2.21992C12.5793 2.36052 12.5002 2.55116 12.5 2.75ZM13.48 15L12.5192 11.6373C12.4922 11.5425 12.4938 11.4419 12.5238 11.348C12.5538 11.2542 12.6108 11.1712 12.6877 11.1096L14.937 9.30997L14.26 6.60067L12.8909 8.31237C12.8439 8.3709 12.7844 8.41815 12.7168 8.45062C12.6491 8.48309 12.575 8.49995 12.5 8.49997H10V7.49997H12.26L14.1096 5.18757C14.1679 5.11483 14.2453 5.0598 14.3331 5.02869C14.4209 4.99758 14.5157 4.99163 14.6067 5.01151C14.6977 5.03139 14.7814 5.07631 14.8483 5.14121C14.9151 5.2061 14.9625 5.28838 14.9851 5.37877L15.9851 9.37877C16.0084 9.4716 16.0046 9.56916 15.974 9.65986C15.9434 9.75056 15.8875 9.83057 15.8127 9.89037L13.5728 11.6826L14.4422 14.7253L13.48 15ZM9.61852 9.42373C9.74008 9.47408 9.87037 9.5 10.002 9.5H11V11H5V9.5H5.99805C6.12963 9.5 6.25992 9.47408 6.38148 9.42373C6.50304 9.37338 6.6135 9.29957 6.70654 9.20654C6.79958 9.1135 6.87338 9.00304 6.92373 8.88148C6.97408 8.75992 7 8.62963 7 8.49805V7.50195C7 7.23622 6.89444 6.98137 6.70654 6.79346C6.51863 6.60556 6.26378 6.5 5.99805 6.5H5V5H11V6.5H10.002C9.87037 6.5 9.74008 6.52592 9.61852 6.57627C9.49696 6.62662 9.3865 6.70042 9.29346 6.79346C9.20043 6.8865 9.12662 6.99696 9.07627 7.11852C9.02592 7.24008 9 7.37037 9 7.50195V8.49805C9 8.62963 9.02592 8.75992 9.07627 8.88148C9.12662 9.00304 9.20043 9.1135 9.29346 9.20654C9.3865 9.29957 9.49696 9.37338 9.61852 9.42373ZM2.52 15L3.48075 11.6373C3.50773 11.5425 3.50613 11.4419 3.47617 11.348C3.4462 11.2541 3.3892 11.1712 3.3123 11.1096L1.063 9.30997L1.74025 6.60072L3.10935 8.31242C3.15628 8.37091 3.21575 8.41813 3.28336 8.45059C3.35097 8.48305 3.425 8.49992 3.5 8.49997H6V7.49997H3.74025L1.8906 5.18757C1.83238 5.11483 1.75499 5.0598 1.66716 5.02869C1.57934 4.99758 1.48457 4.99163 1.39354 5.01151C1.30251 5.03139 1.21885 5.07631 1.15199 5.14121C1.08513 5.2061 1.03774 5.28838 1.01515 5.37877L0.015146 9.37877C-0.00816342 9.4716 -0.00431141 9.56916 0.0262436 9.65986C0.0567986 9.75056 0.11277 9.83057 0.187496 9.89037L2.42775 11.6826L1.55825 14.7253L2.52 15ZM1.77775 4.20507C2.06554 4.39737 2.40388 4.5 2.75 4.5C3.21396 4.49944 3.65876 4.31489 3.98682 3.98682C4.31489 3.65876 4.49944 3.21396 4.5 2.75C4.5 2.40388 4.39737 2.06554 4.20507 1.77775C4.01278 1.48997 3.73947 1.26566 3.4197 1.13321C3.09993 1.00076 2.74806 0.966102 2.40859 1.03363C2.06913 1.10115 1.75731 1.26782 1.51256 1.51256C1.26782 1.75731 1.10115 2.06913 1.03363 2.40859C0.966102 2.74806 1.00076 3.09993 1.13321 3.4197C1.26566 3.73947 1.48997 4.01278 1.77775 4.20507ZM2.33332 2.1264C2.45666 2.04399 2.60166 2 2.75 2C2.94884 2.00023 3.13948 2.07932 3.28008 2.21992C3.42069 2.36052 3.49978 2.55116 3.5 2.75C3.5 2.89834 3.45601 3.04334 3.3736 3.16668C3.29119 3.29002 3.17406 3.38614 3.03701 3.44291C2.89997 3.49968 2.74917 3.51453 2.60368 3.48559C2.4582 3.45665 2.32456 3.38522 2.21967 3.28033C2.11478 3.17544 2.04335 3.0418 2.01441 2.89632C1.98547 2.75083 2.00033 2.60003 2.05709 2.46299C2.11386 2.32594 2.20999 2.20881 2.33332 2.1264Z" fill="black"/>
</g>
<defs>
<clipPath id="clip0_3_10589">
<rect width="16" height="16" fill="white"/>
</clipPath>
</defs>
</svg>
