<svg width="16" height="16" viewBox="0 0 16 16" fill="none" xmlns="http://www.w3.org/2000/svg">
<path fill-rule="evenodd" clip-rule="evenodd" d="M15 7.5H8.5V1H7.5V7.5H0.999996V8.5H7.5V15H8.5V8.5H15V7.5ZM12.793 10L13.5 10.707L11.707 12.5L13.5 14.293L12.793 15L10.293 12.5L12.793 10ZM1.25648 14.9365C1.33093 14.978 1.41476 14.9998 1.5 14.9998H5.5C5.58523 14.9998 5.66906 14.978 5.74351 14.9365C5.81796 14.895 5.88057 14.8352 5.92538 14.7626C5.97019 14.6901 5.99572 14.6074 5.99955 14.5222C6.00338 14.4371 5.98537 14.3524 5.94725 14.2761L3.94725 10.2761C3.90109 10.1987 3.83561 10.1345 3.75721 10.0899C3.67881 10.0454 3.59017 10.022 3.5 10.022C3.40982 10.022 3.32119 10.0454 3.24279 10.0899C3.16438 10.1345 3.0989 10.1987 3.05275 10.2761L1.05275 14.2761C1.01462 14.3524 0.996616 14.4371 1.00044 14.5222C1.00427 14.6074 1.0298 14.6901 1.07462 14.7626C1.11943 14.8352 1.18203 14.895 1.25648 14.9365ZM3.5 11.6179L4.6909 13.9998H2.3091L3.5 11.6179ZM14 6H11C10.7349 5.9997 10.4807 5.89424 10.2932 5.70677C10.1058 5.5193 10.0003 5.26512 10 5V2C10.0003 1.73488 10.1058 1.4807 10.2932 1.29323C10.4807 1.10576 10.7349 1.0003 11 1H14C14.2651 1.0003 14.5193 1.10576 14.7068 1.29323C14.8942 1.4807 14.9997 1.73488 15 2V5C14.9997 5.26512 14.8942 5.5193 14.7068 5.70677C14.5193 5.89424 14.2651 5.9997 14 6ZM11 2V5H14.0005L14 2H11ZM2.11107 5.57867C2.52219 5.85338 3.00554 6 3.49999 6C4.1628 5.99922 4.79823 5.73558 5.2669 5.26691C5.73557 4.79823 5.99921 4.1628 5.99999 3.5C5.99999 3.00555 5.85337 2.5222 5.57867 2.11108C5.30396 1.69995 4.91352 1.37952 4.4567 1.1903C3.99989 1.00108 3.49722 0.951575 3.01227 1.04804C2.52732 1.1445 2.08186 1.3826 1.73223 1.73223C1.3826 2.08187 1.14449 2.52732 1.04803 3.01228C0.951567 3.49723 1.00108 3.99989 1.19029 4.45671C1.37951 4.91352 1.69995 5.30397 2.11107 5.57867ZM2.66664 2.2528C2.91331 2.08797 3.20332 2 3.49999 2C3.89768 2.00044 4.27896 2.15861 4.56017 2.43982C4.84138 2.72103 4.99956 3.10231 4.99999 3.5C4.99999 3.79667 4.91202 4.08668 4.7472 4.33336C4.58238 4.58003 4.34811 4.77229 4.07402 4.88582C3.79993 4.99935 3.49833 5.02906 3.20736 4.97118C2.91639 4.9133 2.64911 4.77044 2.43933 4.56066C2.22955 4.35088 2.08669 4.08361 2.02882 3.79264C1.97094 3.50167 2.00064 3.20007 2.11417 2.92598C2.22771 2.65189 2.41996 2.41762 2.66664 2.2528Z" fill="black"/>
</svg>
