<svg width="16" height="16" viewBox="0 0 16 16" fill="none" xmlns="http://www.w3.org/2000/svg">
<path fill-rule="evenodd" clip-rule="evenodd" d="M5 4L1 8L5 12L5.707 11.293L2.414 8L5.707 4.707L5 4ZM15 8L11 12L10.293 11.293L13.586 8L10.293 4.707L11 4L15 8ZM8 11C7.93433 11.0001 7.86929 10.9872 7.80863 10.962C7.74796 10.9369 7.69286 10.9 7.6465 10.8535L5.1465 8.35352C5.10005 8.30711 5.0632 8.252 5.03806 8.19135C5.01292 8.13069 4.99998 8.06568 4.99998 8.00002C4.99998 7.93436 5.01292 7.86934 5.03806 7.80869C5.0632 7.74803 5.10005 7.69292 5.1465 7.64652L7.6465 5.14652C7.69291 5.10007 7.74801 5.06322 7.80867 5.03808C7.86933 5.01294 7.93434 5 8 5C8.06566 5 8.13068 5.01294 8.19133 5.03808C8.25199 5.06322 8.30709 5.10007 8.3535 5.14652L10.8535 7.64652C10.9 7.69292 10.9368 7.74803 10.9619 7.80869C10.9871 7.86934 11 7.93436 11 8.00002C11 8.06568 10.9871 8.13069 10.9619 8.19135C10.9368 8.252 10.9 8.30711 10.8535 8.35352L8.3535 10.8535C8.30714 10.9 8.25204 10.9369 8.19137 10.962C8.1307 10.9872 8.06567 11.0001 8 11ZM6.20705 8.00002L8 9.79297L9.79295 8.00002L8 6.20707L6.20705 8.00002Z" fill="black"/>
</svg>
