<svg width="16" height="16" viewBox="0 0 16 16" fill="none" xmlns="http://www.w3.org/2000/svg">
<path fill-rule="evenodd" clip-rule="evenodd" d="M4.5 11.5H6.5C6.76522 11.5 7.01957 11.3946 7.20711 11.2071C7.39464 11.0196 7.5 10.7652 7.5 10.5V4.5H6.5V10.5H4.5V4.5H3.5V10.5C3.5 10.7652 3.60536 11.0196 3.79289 11.2071C3.98043 11.3946 4.23478 11.5 4.5 11.5ZM8.5 11.5H12.5V10.5H9.5V8.5H11.5C11.7652 8.5 12.0196 8.39464 12.2071 8.20711C12.3946 8.01957 12.5 7.76522 12.5 7.5V5.5C12.5 5.23478 12.3946 4.98043 12.2071 4.79289C12.0196 4.60536 11.7652 4.5 11.5 4.5H8.5V5.5H11.5V7.5H9.5C9.23478 7.5 8.98043 7.60536 8.79289 7.79289C8.60536 7.98043 8.5 8.23478 8.5 8.5V11.5Z" fill="black"/>
</svg>
