<svg width="16" height="16" viewBox="0 0 16 16" fill="none" xmlns="http://www.w3.org/2000/svg">
<path d="M14.9927 7.915C14.7116 6.35446 13.9225 4.93062 12.7482 3.86505C11.574 2.79948 10.0804 2.15194 8.5 2.0232V1H7.5V2.0232C5.91958 2.15194 4.42604 2.79948 3.25179 3.86505C2.07753 4.93062 1.28844 6.35446 1.0073 7.915C0.991091 8.00911 1.00217 8.1059 1.03923 8.19392C1.07629 8.28193 1.13778 8.35749 1.21642 8.41166C1.29507 8.46583 1.38759 8.49635 1.48303 8.4996C1.57848 8.50285 1.67285 8.4787 1.755 8.43C2.12245 8.17467 2.55331 8.02586 3 8C3.42465 8.01028 3.83921 8.13158 4.20242 8.35182C4.56564 8.57206 4.86486 8.88357 5.0703 9.25535C5.11796 9.32542 5.18202 9.38278 5.25692 9.42241C5.33181 9.46205 5.41527 9.48278 5.5 9.48278C5.58474 9.48278 5.6682 9.46205 5.74309 9.42241C5.81799 9.38278 5.88205 9.32542 5.9297 9.25535C6.09738 8.96085 6.32296 8.70336 6.59284 8.49839C6.86272 8.29343 7.17131 8.14523 7.5 8.06275V12.75C7.5 13.0815 7.36831 13.3995 7.13389 13.6339C6.89947 13.8683 6.58153 14 6.25 14C5.91848 14 5.60054 13.8683 5.36612 13.6339C5.1317 13.3995 5 13.0815 5 12.75V12.5H4V12.75C4 13.3467 4.23706 13.919 4.65901 14.341C5.08097 14.7629 5.65327 15 6.25 15C6.84674 15 7.41904 14.7629 7.84099 14.341C8.26295 13.919 8.5 13.3467 8.5 12.75V8.06275C8.8287 8.14523 9.13729 8.29343 9.40717 8.49839C9.67705 8.70336 9.90263 8.96085 10.0703 9.25535C10.1146 9.3299 10.1774 9.39165 10.2528 9.43454C10.3281 9.47743 10.4133 9.49999 10.5 9.49999C10.5867 9.49999 10.6719 9.47743 10.7472 9.43454C10.8226 9.39165 10.8855 9.3299 10.9297 9.25535C11.1352 8.88357 11.4344 8.57206 11.7976 8.35182C12.1608 8.13158 12.5754 8.01028 13 8C13.4467 8.02586 13.8776 8.17467 14.245 8.43C14.3272 8.47874 14.4216 8.50293 14.517 8.4997C14.6125 8.49647 14.705 8.46597 14.7837 8.41179C14.8624 8.35761 14.9239 8.28203 14.961 8.19399C14.998 8.10595 15.0091 8.00913 14.9929 7.915H14.9927ZM3 7C2.74567 7.00004 2.49261 7.03596 2.2483 7.1067C2.58763 6.16113 3.15091 5.31181 3.89 4.63137C4.62908 3.95093 5.52197 3.45962 6.4923 3.19945C5.50124 4.47724 4.96529 6.04942 4.9695 7.6665C4.40293 7.2361 3.71151 7.00212 3 7ZM8 7C7.26271 7.00345 6.54812 7.25548 5.9718 7.71535C5.9907 6.60535 6.27625 4.47035 7.99995 3.1272C9.71535 4.4656 10.0045 6.60155 10.0262 7.7136C9.45019 7.25479 8.73641 7.00341 8 7ZM13 7C12.2885 7.00212 11.5971 7.2361 11.0305 7.6665C11.0347 6.04942 10.4987 4.47726 9.5077 3.19945C10.478 3.45962 11.3709 3.95093 12.11 4.63137C12.8491 5.31181 13.4124 6.16113 13.7517 7.1067C13.5074 7.03596 13.2543 7.00004 13 7Z" fill="black"/>
</svg>
