<svg width="16" height="16" viewBox="0 0 16 16" fill="none" xmlns="http://www.w3.org/2000/svg">
<path fill-rule="evenodd" clip-rule="evenodd" d="M7.6013 14.9211C7.72771 14.9734 7.86321 15.0002 8.00001 15C8.13681 15.0002 8.27231 14.9734 8.39872 14.9211C8.52513 14.8689 8.63996 14.7921 8.73661 14.6953L14.6953 8.73658C14.8904 8.54109 15 8.27617 15 7.99998C15 7.72379 14.8904 7.45887 14.6953 7.26338L8.73661 1.30468C8.54112 1.10958 8.2762 1 8.00001 1C7.72382 1 7.4589 1.10958 7.26341 1.30468L1.30471 7.26338C1.10961 7.45887 1.00003 7.72379 1.00003 7.99998C1.00003 8.27617 1.10961 8.54109 1.30471 8.73658L7.26341 14.6953C7.36006 14.7921 7.47489 14.8689 7.6013 14.9211ZM7.97046 2.01178C7.97832 2.00398 7.98894 1.9996 8.00001 1.99958C8.01108 1.9996 8.0217 2.00398 8.02956 2.01178L13.9882 7.97043C13.996 7.97828 14.0004 7.9889 14.0004 7.99998C14.0004 8.01105 13.996 8.02168 13.9882 8.02953L8.02956 13.9882C8.02168 13.9959 8.01107 14.0003 8.00001 14.0003C7.98895 14.0003 7.97834 13.9959 7.97046 13.9882L2.01181 8.02953C2.004 8.02168 1.99962 8.01105 1.99962 7.99998C1.99962 7.9889 2.004 7.97828 2.01181 7.97043L7.97046 2.01178ZM5.50001 7H10.5V9H5.50001V7Z" fill="black"/>
</svg>
