<svg width="16" height="16" viewBox="0 0 16 16" fill="none" xmlns="http://www.w3.org/2000/svg">
<path fill-rule="evenodd" clip-rule="evenodd" d="M7.60127 14.9211C7.72768 14.9734 7.86318 15.0002 7.99998 15C8.13678 15.0002 8.27228 14.9734 8.39869 14.9211C8.5251 14.8689 8.63993 14.7921 8.73658 14.6953L14.6953 8.73658C14.8904 8.54109 15 8.27617 15 7.99998C15 7.72379 14.8904 7.45887 14.6953 7.26338L8.73658 1.30468C8.54109 1.10958 8.27617 1 7.99998 1C7.72379 1 7.45887 1.10958 7.26338 1.30468L1.30468 7.26338C1.10958 7.45887 1 7.72379 1 7.99998C1 8.27617 1.10958 8.54109 1.30468 8.73658L7.26338 14.6953C7.36003 14.7921 7.47486 14.8689 7.60127 14.9211ZM7.97043 2.01178C7.97829 2.00398 7.98891 1.9996 7.99998 1.99958C8.01105 1.9996 8.02167 2.00398 8.02953 2.01178L13.9882 7.97043C13.996 7.97828 14.0004 7.9889 14.0004 7.99998C14.0004 8.01105 13.996 8.02168 13.9882 8.02953L8.02953 13.9882C8.02165 13.9959 8.01104 14.0003 7.99998 14.0003C7.98892 14.0003 7.97831 13.9959 7.97043 13.9882L2.01178 8.02953C2.00397 8.02168 1.99958 8.01105 1.99958 7.99998C1.99958 7.9889 2.00397 7.97828 2.01178 7.97043L7.97043 2.01178ZM8.49998 9.5H7.49998V7.5H8.49998C8.7652 7.5 9.01956 7.39464 9.20709 7.20711C9.39463 7.01957 9.49998 6.76522 9.49998 6.5C9.49998 6.23478 9.39463 5.98043 9.20709 5.79289C9.01956 5.60536 8.7652 5.5 8.49998 5.5H7.49998C7.23486 5.5003 6.98068 5.60576 6.79321 5.79323C6.60574 5.9807 6.50029 6.23488 6.49998 6.5V6.75H5.49998V6.5C5.50058 5.96975 5.71149 5.46139 6.08643 5.08644C6.46137 4.7115 6.96973 4.5006 7.49998 4.5H8.49998C9.03042 4.5 9.53913 4.71071 9.9142 5.08579C10.2893 5.46086 10.5 5.96957 10.5 6.5C10.5 7.03043 10.2893 7.53914 9.9142 7.91421C9.53913 8.28929 9.03042 8.5 8.49998 8.5V9.5ZM7.99998 12C8.4142 12 8.74998 11.6642 8.74998 11.25C8.74998 10.8358 8.4142 10.5 7.99998 10.5C7.58577 10.5 7.24998 10.8358 7.24998 11.25C7.24998 11.6642 7.58577 12 7.99998 12Z" fill="black"/>
</svg>
