<svg width="16" height="16" viewBox="0 0 16 16" fill="none" xmlns="http://www.w3.org/2000/svg">
<path d="M14.7082 7.29531L8.705 1.29211C8.51807 1.10523 8.26456 1.00024 8.00023 1.00024C7.7359 1.00024 7.48239 1.10523 7.29545 1.29211L1.29185 7.29531C1.10498 7.48227 1 7.73579 1 8.00014C1 8.26448 1.10498 8.518 1.29185 8.70496L7.2953 14.7082C7.48224 14.895 7.73575 15 8.00008 15C8.26441 15 8.51792 14.895 8.70485 14.7082L14.7082 8.70501C14.895 8.51805 15 8.26451 15 8.00016C15 7.73581 14.895 7.48227 14.7082 7.29531ZM8 12C7.85167 12 7.70666 11.956 7.58333 11.8736C7.45999 11.7912 7.36386 11.6741 7.30709 11.537C7.25033 11.4 7.23548 11.2492 7.26442 11.1037C7.29335 10.9582 7.36478 10.8246 7.46967 10.7197C7.57456 10.6148 7.7082 10.5434 7.85369 10.5144C7.99917 10.4855 8.14997 10.5003 8.28702 10.5571C8.42406 10.6139 8.54119 10.71 8.62361 10.8333C8.70602 10.9567 8.75 11.1017 8.75 11.25C8.75 11.4489 8.67099 11.6397 8.53033 11.7803C8.38968 11.921 8.19892 12 8 12ZM8.5625 8.62406V9.56251H7.4375V7.50001H8.5C8.74864 7.50001 8.9871 7.40124 9.16292 7.22542C9.33873 7.04961 9.4375 6.81115 9.4375 6.56251C9.4375 6.31387 9.33873 6.07541 9.16292 5.8996C8.9871 5.72378 8.74864 5.62501 8.5 5.62501H7.5C7.25145 5.62529 7.01315 5.72415 6.8374 5.8999C6.66164 6.07566 6.56278 6.31396 6.5625 6.56251V6.81251H5.4375V6.56251C5.43817 6.0157 5.65568 5.49148 6.04233 5.10483C6.42898 4.71818 6.9532 4.50067 7.5 4.50001H8.5C9.04158 4.50003 9.56142 4.71308 9.94726 5.09313C10.3331 5.47318 10.554 5.98974 10.5622 6.53126C10.5704 7.07277 10.3653 7.59579 9.99112 7.98736C9.61698 8.37893 9.10383 8.60763 8.5625 8.62406Z" fill="black"/>
</svg>
