<svg width="16" height="16" viewBox="0 0 16 16" fill="none" xmlns="http://www.w3.org/2000/svg">
<path fill-rule="evenodd" clip-rule="evenodd" d="M6 13H8V14H3C2.45 14 2 13.55 2 13V3C2 2.45 2.45 2 3 2H11C11.15 2 11.25 2.05 11.35 2.15L13.85 4.65C13.95 4.75 14 4.85 14 5V8H13V5.2L11 3.2V5C11 5.55 10.55 6 10 6H6C5.45 6 5 5.55 5 5V3H3V13H5V9C5 8.45 5.45 8 6 8H8V9H6V13ZM10 3H6V5H10V3ZM14.3 9L15 9.7L13.2 11.5L15 13.3L14.3 14L12.5 12.2L10.7 14L10 13.3L11.8 11.5L10 9.7L10.7 9L12.5 10.8L14.3 9Z" fill="black"/>
</svg>
