<svg width="16" height="16" viewBox="0 0 16 16" fill="none" xmlns="http://www.w3.org/2000/svg">
<path fill-rule="evenodd" clip-rule="evenodd" d="M3.5392 4H6V5H2V1H3V3.1172C3.97004 2.1194 5.21588 1.43391 6.57792 1.14853C7.93996 0.863159 9.35619 0.9909 10.6452 1.51539C11.9342 2.03988 13.0372 2.93724 13.8131 4.09252C14.5889 5.2478 15.0022 6.60839 15 8H14C14.0016 6.78547 13.6341 5.59912 12.9462 4.59818C12.2583 3.59724 11.2824 2.82897 10.148 2.39519C9.01358 1.9614 7.77411 1.88259 6.59388 2.16918C5.41364 2.45578 4.34835 3.09426 3.5392 4ZM8 14C6.40925 13.9982 4.88415 13.3655 3.75932 12.2407C2.63448 11.1158 2.00177 9.59075 2 8H1C1.00209 9.85587 1.74026 11.6351 3.05256 12.9474C4.36486 14.2597 6.14413 14.9979 8 15V14ZM10.0555 14.9101C10.6311 15.2947 11.3078 15.5 12 15.5C12.9279 15.499 13.8176 15.1299 14.4737 14.4737C15.1299 13.8176 15.499 12.9279 15.5 12C15.5 11.3078 15.2947 10.6311 14.9101 10.0555C14.5256 9.47993 13.9789 9.03133 13.3394 8.76642C12.6998 8.50152 11.9961 8.4322 11.3172 8.56725C10.6382 8.7023 10.0146 9.03564 9.52512 9.52513C9.03564 10.0146 8.7023 10.6383 8.56725 11.3172C8.4322 11.9961 8.50151 12.6999 8.76642 13.3394C9.03133 13.9789 9.47993 14.5256 10.0555 14.9101ZM10.6111 9.92133C11.0222 9.64662 11.5055 9.5 12 9.5C12.6628 9.50073 13.2983 9.76436 13.767 10.233C14.2356 10.7017 14.4993 11.3372 14.5 12C14.5 12.4945 14.3534 12.9778 14.0787 13.3889C13.804 13.8001 13.4135 14.1205 12.9567 14.3097C12.4999 14.4989 11.9972 14.5484 11.5123 14.452C11.0273 14.3555 10.5819 14.1174 10.2322 13.7678C9.8826 13.4181 9.6445 12.9727 9.54803 12.4877C9.45157 12.0028 9.50108 11.5001 9.6903 11.0433C9.87952 10.5865 10.1999 10.196 10.6111 9.92133ZM12.5 11.793L13.5 12.793L12.793 13.5L11.5 12.207V10.5H12.5V11.793Z" fill="black"/>
</svg>
