<svg width="16" height="16" viewBox="0 0 16 16" fill="none" xmlns="http://www.w3.org/2000/svg">
<path fill-rule="evenodd" clip-rule="evenodd" d="M8.3535 1.14652L14.3535 7.14652C14.4234 7.21644 14.471 7.30553 14.4903 7.4025C14.5096 7.49948 14.4997 7.59999 14.4618 7.69134C14.424 7.78269 14.3599 7.86078 14.2777 7.91572C14.1955 7.97066 14.0989 8 14 8.00002H11.5V10C11.4996 10.2651 11.3942 10.5193 11.2067 10.7067C11.0193 10.8942 10.7651 10.9997 10.5 11H5.5C5.23488 10.9997 4.9807 10.8943 4.79323 10.7068C4.60576 10.5193 4.5003 10.2651 4.5 10V8.00002H2C1.90113 8 1.80448 7.97066 1.72227 7.91572C1.64007 7.86078 1.576 7.78269 1.53816 7.69134C1.50033 7.59999 1.49042 7.49948 1.50971 7.4025C1.52899 7.30553 1.5766 7.21644 1.6465 7.14652L7.6465 1.14652C7.69291 1.10007 7.74801 1.06322 7.80867 1.03808C7.86933 1.01294 7.93434 1 8 1C8.06566 1 8.13068 1.01294 8.19133 1.03808C8.25199 1.06322 8.30709 1.10007 8.3535 1.14652ZM10.5 10V7.00002H12.7929L8 2.20707L3.20705 7.00002H5.5V10H10.5ZM4.79289 12.2929C4.98043 12.1054 5.23478 12 5.5 12H10.5C10.7652 12 11.0196 12.1054 11.2071 12.2929C11.3946 12.4804 11.5 12.7348 11.5 13V14C11.5 14.2652 11.3946 14.5196 11.2071 14.7071C11.0196 14.8946 10.7652 15 10.5 15H5.5C5.23478 15 4.98043 14.8946 4.79289 14.7071C4.60536 14.5196 4.5 14.2652 4.5 14V13C4.5 12.7348 4.60536 12.4804 4.79289 12.2929ZM5.5 13V14H10.5V13H5.5Z" fill="black"/>
</svg>
