<svg width="16" height="16" viewBox="0 0 16 16" fill="none" xmlns="http://www.w3.org/2000/svg">
<path fill-rule="evenodd" clip-rule="evenodd" d="M12 7.5V3C12 2.73478 11.8946 2.48043 11.7071 2.29289C11.5196 2.10536 11.2652 2 11 2H5C4.73478 2 4.48043 2.10536 4.29289 2.29289C4.10536 2.48043 4 2.73478 4 3V7.5C3.73478 7.5 3.48043 7.60536 3.29289 7.79289C3.10536 7.98043 3 8.23478 3 8.5V14H4V8.5H12V14H13V8.5C13 8.23478 12.8946 7.98043 12.7071 7.79289C12.5196 7.60536 12.2652 7.5 12 7.5ZM5 3H11V7.5H5V3ZM7.5 5H6V6H7.5V5ZM8.5 5H10V6H8.5V5Z" fill="black"/>
</svg>
