<svg width="16" height="16" viewBox="0 0 16 16" fill="none" xmlns="http://www.w3.org/2000/svg">
<path fill-rule="evenodd" clip-rule="evenodd" d="M12.5 2.5H11.5V8H12.5V2.5ZM15 4H14V8H15V4ZM9 5H10V8H9V5ZM8 15H7V12C6.99956 11.6023 6.84139 11.221 6.56018 10.9398C6.27897 10.6586 5.89769 10.5004 5.5 10.5H3.5C3.10231 10.5004 2.72103 10.6586 2.43982 10.9398C2.15861 11.221 2.00044 11.6023 2 12V15H1V12C1.00078 11.3372 1.26442 10.7018 1.7331 10.2331C2.20177 9.76442 2.8372 9.50078 3.5 9.5H5.5C6.1628 9.50078 6.79823 9.76442 7.2669 10.2331C7.73558 10.7018 7.99922 11.3372 8 12V15ZM5.33335 4.7528C5.08668 4.58797 4.79667 4.5 4.5 4.5C4.10217 4.5 3.72064 4.65804 3.43934 4.93934C3.15803 5.22064 3 5.60217 3 6C3 6.29667 3.08797 6.58668 3.25279 6.83335C3.41762 7.08003 3.65188 7.27229 3.92597 7.38582C4.20006 7.49935 4.50166 7.52906 4.79263 7.47118C5.08361 7.4133 5.35088 7.27044 5.56066 7.06066C5.77044 6.85088 5.9133 6.58361 5.97118 6.29264C6.02906 6.00166 5.99935 5.70006 5.88582 5.42597C5.77229 5.15189 5.58003 4.91762 5.33335 4.7528ZM3.11107 3.92133C3.5222 3.64662 4.00555 3.5 4.5 3.5C4.8283 3.5 5.15339 3.56466 5.45671 3.6903C5.76002 3.81594 6.03562 4.00009 6.26777 4.23223C6.49991 4.46438 6.68406 4.73998 6.8097 5.04329C6.93533 5.34661 7 5.67169 7 6C7 6.49445 6.85338 6.9778 6.57867 7.38893C6.30397 7.80005 5.91352 8.12048 5.45671 8.3097C4.99989 8.49892 4.49723 8.54843 4.01227 8.45196C3.52732 8.3555 3.08186 8.1174 2.73223 7.76777C2.3826 7.41814 2.1445 6.97268 2.04804 6.48773C1.95157 6.00277 2.00108 5.50011 2.1903 5.04329C2.37952 4.58648 2.69995 4.19603 3.11107 3.92133Z" fill="black"/>
</svg>
