<svg width="16" height="16" viewBox="0 0 16 16" fill="none" xmlns="http://www.w3.org/2000/svg">
<path fill-rule="evenodd" clip-rule="evenodd" d="M7.38893 2.42133C6.9778 2.14662 6.49445 2 6 2C5.33696 2 4.70108 2.26339 4.23223 2.73223C3.76339 3.20107 3.5 3.83696 3.5 4.5C3.5 4.99445 3.64662 5.4778 3.92133 5.88893C4.19603 6.30005 4.58648 6.62048 5.04329 6.8097C5.50011 6.99892 6.00277 7.04843 6.48773 6.95196C6.97268 6.8555 7.41814 6.6174 7.76777 6.26777C8.1174 5.91814 8.3555 5.47268 8.45196 4.98773C8.54843 4.50277 8.49892 4.00011 8.3097 3.54329C8.12048 3.08648 7.80005 2.69603 7.38893 2.42133ZM4.05551 1.58986C4.63108 1.20527 5.30777 1 6 1C6.92826 1 7.8185 1.36875 8.47487 2.02513C9.13125 2.6815 9.5 3.57174 9.5 4.5C9.5 5.19223 9.29473 5.86892 8.91015 6.4445C8.52556 7.02007 7.97894 7.46867 7.33939 7.73358C6.69985 7.99848 5.99612 8.0678 5.31719 7.93275C4.63825 7.7977 4.01461 7.46436 3.52513 6.97487C3.03564 6.48539 2.7023 5.86175 2.56725 5.18282C2.4322 4.50388 2.50152 3.80015 2.76642 3.16061C3.03133 2.52107 3.47993 1.97444 4.05551 1.58986ZM13.6515 6C13.4736 6 13.2976 6.03566 13.1337 6.10486C12.9699 6.17406 12.8216 6.2754 12.6975 6.4029L12.5009 6.6056L12.3025 6.4029C12.1784 6.2754 12.0301 6.17406 11.8663 6.10486C11.7024 6.03566 11.5264 6.00001 11.3485 6.00001C11.1707 6.00001 10.9946 6.03566 10.8308 6.10486C10.6669 6.17406 10.5186 6.2754 10.3946 6.4029C10.1415 6.66401 9.99999 7.01337 9.99999 7.377C9.99999 7.74063 10.1415 8.08999 10.3946 8.3511L12.5009 10.5L14.6054 8.3511C14.8585 8.08999 15 7.74063 15 7.377C15 7.01337 14.8585 6.66401 14.6054 6.4029C14.4814 6.27541 14.3331 6.17407 14.1692 6.10487C14.0054 6.03567 13.8294 6.00001 13.6515 6ZM1 15H2V12.5C2.00078 11.8372 2.26442 11.2018 2.7331 10.7331C3.20177 10.2644 3.8372 10.0008 4.5 10H7.5C8.1628 10.0008 8.79823 10.2644 9.2669 10.7331C9.73558 11.2018 9.99922 11.8372 10 12.5V15H11V12.5C10.9989 11.5721 10.6298 10.6825 9.97368 10.0263C9.31753 9.37018 8.42792 9.00109 7.5 9H4.5C3.57208 9.00109 2.68247 9.37018 2.02632 10.0263C1.37018 10.6825 1.00109 11.5721 1 12.5V15Z" fill="black"/>
</svg>
