<svg width="16" height="16" viewBox="0 0 16 16" fill="none" xmlns="http://www.w3.org/2000/svg">
<path fill-rule="evenodd" clip-rule="evenodd" d="M12.6669 5.975L13.2697 5.372C13.3508 5.29179 13.4535 5.23688 13.5653 5.21394C13.6771 5.19101 13.7931 5.20103 13.8993 5.2428L14.634 5.5362C14.7413 5.57979 14.8333 5.65416 14.8984 5.74994C14.9635 5.84572 14.9989 5.95864 14.9999 6.07445V7.42045C14.9993 7.49715 14.9837 7.57299 14.9538 7.64362C14.9239 7.71426 14.8803 7.77831 14.8257 7.83213C14.771 7.88594 14.7063 7.92847 14.6352 7.95727C14.5641 7.98608 14.4881 8.0006 14.4114 8L14.3864 7.99925C9.23868 7.6789 8.19993 3.31785 8.00358 1.6488C7.98646 1.49488 8.03118 1.34047 8.1279 1.21951C8.22462 1.09856 8.36541 1.02097 8.51933 1.0038C8.54195 1.00119 8.56471 0.999919 8.58748 1H9.88718C10.0032 1.00036 10.1164 1.03542 10.2123 1.10066C10.3082 1.1659 10.3824 1.25835 10.4254 1.3661L10.7187 2.1011C10.7618 2.20693 10.7728 2.32311 10.7503 2.43515C10.7278 2.54719 10.6729 2.65012 10.5922 2.7311L9.98948 3.334C9.98948 3.334 10.3366 5.6841 12.6669 5.975ZM8 15H7V12.5C6.99956 12.1023 6.84139 11.721 6.56018 11.4398C6.27897 11.1586 5.89769 11.0004 5.5 11H3.5C3.10231 11.0004 2.72103 11.1586 2.43982 11.4398C2.15861 11.721 2.00044 12.1023 2 12.5V15H1V12.5C1.00078 11.8372 1.26442 11.2018 1.7331 10.7331C2.20177 10.2644 2.8372 10.0008 3.5 10H5.5C6.1628 10.0008 6.79823 10.2644 7.2669 10.7331C7.73558 11.2018 7.99922 11.8372 8 12.5V15ZM5.33336 5.2528C5.08668 5.08797 4.79667 5 4.5 5C4.10218 5 3.72065 5.15803 3.43934 5.43934C3.15804 5.72064 3 6.10218 3 6.5C3 6.79667 3.08797 7.08668 3.2528 7.33335C3.41762 7.58003 3.65189 7.77229 3.92598 7.88582C4.20007 7.99935 4.50167 8.02906 4.79264 7.97118C5.08361 7.9133 5.35088 7.77044 5.56066 7.56066C5.77044 7.35088 5.9133 7.08361 5.97118 6.79263C6.02906 6.50166 5.99935 6.20006 5.88582 5.92597C5.77229 5.65189 5.58003 5.41762 5.33336 5.2528ZM3.11108 4.42133C3.5222 4.14662 4.00555 4 4.5 4C4.82831 4 5.1534 4.06466 5.45671 4.1903C5.76002 4.31594 6.03562 4.50009 6.26777 4.73223C6.49991 4.96438 6.68406 5.23998 6.8097 5.54329C6.93534 5.84661 7 6.1717 7 6.5C7 6.99445 6.85338 7.4778 6.57867 7.88893C6.30397 8.30005 5.91353 8.62048 5.45671 8.8097C4.99989 8.99892 4.49723 9.04843 4.01228 8.95196C3.52732 8.8555 3.08187 8.6174 2.73223 8.26777C2.3826 7.91814 2.1445 7.47268 2.04804 6.98773C1.95157 6.50277 2.00108 6.00011 2.1903 5.54329C2.37952 5.08648 2.69995 4.69603 3.11108 4.42133Z" fill="black"/>
</svg>
