<svg width="16" height="16" viewBox="0 0 16 16" fill="none" xmlns="http://www.w3.org/2000/svg">
<path fill-rule="evenodd" clip-rule="evenodd" d="M13.2469 1.5C13.016 1.49986 12.7875 1.54574 12.5746 1.63497C12.3617 1.72419 12.1687 1.85497 12.0069 2.01965L11.7514 2.28105L11.4933 2.01965C11.3314 1.85512 11.1384 1.72446 10.9255 1.63526C10.7126 1.54607 10.4841 1.50014 10.2533 1.50014C10.0225 1.50014 9.79397 1.54607 9.58109 1.63526C9.3682 1.72446 9.17519 1.85512 9.0133 2.01965C8.68454 2.35517 8.50041 2.80619 8.50041 3.27593C8.50041 3.74566 8.68454 4.19668 9.0133 4.5322L11.7516 7.30355L14.4874 4.5322C14.8162 4.19668 15.0003 3.74566 15.0003 3.27593C15.0003 2.80619 14.8162 2.35517 14.4874 2.01965C14.3256 1.85492 14.1325 1.72411 13.9195 1.63488C13.7065 1.54566 13.4778 1.4998 13.2469 1.5ZM8 15H7V12.5C6.99956 12.1023 6.84139 11.721 6.56018 11.4398C6.27897 11.1586 5.89769 11.0004 5.5 11H3.5C3.10231 11.0004 2.72103 11.1586 2.43982 11.4398C2.15861 11.721 2.00044 12.1023 2 12.5V15H1V12.5C1.00078 11.8372 1.26442 11.2018 1.7331 10.7331C2.20177 10.2644 2.8372 10.0008 3.5 10H5.5C6.1628 10.0008 6.79823 10.2644 7.2669 10.7331C7.73558 11.2018 7.99922 11.8372 8 12.5V15ZM5.33335 5.2528C5.08668 5.08797 4.79667 5 4.5 5C4.10217 5 3.72064 5.15804 3.43934 5.43934C3.15803 5.72064 3 6.10218 3 6.5C3 6.79667 3.08797 7.08668 3.25279 7.33336C3.41762 7.58003 3.65188 7.77229 3.92597 7.88582C4.20006 7.99935 4.50166 8.02906 4.79263 7.97118C5.08361 7.9133 5.35088 7.77044 5.56066 7.56066C5.77044 7.35088 5.9133 7.08361 5.97118 6.79264C6.02906 6.50166 5.99935 6.20006 5.88582 5.92598C5.77229 5.65189 5.58003 5.41762 5.33335 5.2528ZM3.11107 4.42133C3.5222 4.14662 4.00555 4 4.5 4C4.8283 4 5.15339 4.06466 5.45671 4.1903C5.76002 4.31594 6.03562 4.50009 6.26777 4.73223C6.49991 4.96438 6.68406 5.23998 6.8097 5.54329C6.93533 5.84661 7 6.1717 7 6.5C7 6.99445 6.85338 7.4778 6.57867 7.88893C6.30397 8.30005 5.91352 8.62048 5.45671 8.8097C4.99989 8.99892 4.49723 9.04843 4.01227 8.95196C3.52732 8.8555 3.08186 8.6174 2.73223 8.26777C2.3826 7.91814 2.1445 7.47268 2.04804 6.98773C1.95157 6.50277 2.00108 6.00011 2.1903 5.54329C2.37952 5.08648 2.69995 4.69603 3.11107 4.42133Z" fill="black"/>
</svg>
