<svg width="16" height="16" viewBox="0 0 16 16" fill="none" xmlns="http://www.w3.org/2000/svg">
<path fill-rule="evenodd" clip-rule="evenodd" d="M4.11101 2.17971C5.26216 1.41054 6.61553 1 8 1C9.85588 1.00209 11.6351 1.74026 12.9474 3.05256C14.2597 4.36486 14.9979 6.14413 15 8C15 9.38447 14.5895 10.7378 13.8203 11.889C13.0511 13.0401 11.9579 13.9373 10.6788 14.4672C9.3997 14.997 7.99224 15.1356 6.63437 14.8655C5.2765 14.5954 4.02922 13.9287 3.05026 12.9497C2.07129 11.9708 1.4046 10.7235 1.13451 9.36563C0.86441 8.00776 1.00303 6.6003 1.53285 5.32122C2.06266 4.04213 2.95987 2.94888 4.11101 2.17971ZM5 12.5V13.1882C5.91042 13.7199 6.94574 14 8 14C9.05426 14 10.0896 13.7199 11 13.1882V12.5C10.9996 12.1023 10.8414 11.721 10.5602 11.4398C10.279 11.1586 9.89769 11.0004 9.5 11H6.5C6.10231 11.0004 5.72104 11.1586 5.43983 11.4398C5.15862 11.721 5.00044 12.1023 5 12.5ZM11.2521 10.7206C11.7191 11.1813 11.9863 11.807 11.9963 12.4629C12.903 11.6533 13.5424 10.5873 13.8298 9.40623C14.1173 8.22513 14.0392 6.98457 13.6059 5.84883C13.1727 4.71309 12.4046 3.73573 11.4036 3.04618C10.4025 2.35663 9.21558 1.98741 8 1.98741C6.78442 1.98741 5.59751 2.35663 4.59644 3.04618C3.59536 3.73573 2.82734 4.71309 2.39407 5.84883C1.9608 6.98457 1.88272 8.22513 2.17017 9.40623C2.45762 10.5873 3.09703 11.6533 4.00375 12.4629C4.01369 11.807 4.28093 11.1813 4.74786 10.7206C5.2148 10.2599 5.84405 10.0011 6.5 10H9.5C10.156 10.0011 10.7852 10.2599 11.2521 10.7206ZM6.61108 4.42133C7.0222 4.14662 7.50555 4 8 4C8.66304 4 9.29893 4.26339 9.76777 4.73223C10.2366 5.20107 10.5 5.83696 10.5 6.5C10.5 6.99445 10.3534 7.4778 10.0787 7.88893C9.80397 8.30005 9.41353 8.62048 8.95671 8.8097C8.49989 8.99892 7.99723 9.04843 7.51228 8.95196C7.02732 8.8555 6.58187 8.6174 6.23223 8.26777C5.8826 7.91814 5.6445 7.47268 5.54804 6.98773C5.45157 6.50277 5.50108 6.00011 5.6903 5.54329C5.87952 5.08648 6.19995 4.69603 6.61108 4.42133ZM7.16665 7.7472C7.41332 7.91203 7.70333 8 8 8C8.39769 7.99955 8.77896 7.84137 9.06016 7.56016C9.34137 7.27896 9.49955 6.89769 9.5 6.5C9.5 6.20333 9.41203 5.91332 9.24721 5.66664C9.08238 5.41997 8.84812 5.22771 8.57403 5.11418C8.29994 5.00065 7.99834 4.97094 7.70737 5.02882C7.41639 5.0867 7.14912 5.22956 6.93934 5.43934C6.72956 5.64912 6.5867 5.91639 6.52882 6.20736C6.47095 6.49834 6.50065 6.79994 6.61418 7.07402C6.72771 7.34811 6.91997 7.58238 7.16665 7.7472Z" fill="black"/>
</svg>
