<svg width="16" height="16" viewBox="0 0 16 16" fill="none" xmlns="http://www.w3.org/2000/svg">
<path d="M13.3745 12.4651C14.0923 11.6012 14.5916 10.5771 14.83 9.47939C15.0683 8.38172 15.0389 7.24277 14.744 6.1589C14.4492 5.07502 13.8977 4.07809 13.1361 3.25244C12.3745 2.42678 11.4253 1.79669 10.3687 1.41545C9.31209 1.03421 8.17923 0.913033 7.06591 1.06218C5.95259 1.21132 4.89157 1.6264 3.97259 2.2723C3.0536 2.9182 2.30369 3.77592 1.78627 4.77291C1.26886 5.76991 0.999164 6.87685 1 8.00011C1.00039 9.63321 1.57591 11.214 2.62555 12.4651L2.61555 12.4734C2.65055 12.5157 2.69055 12.5518 2.72665 12.593C2.77165 12.6448 2.81985 12.693 2.86665 12.7434C3.00665 12.8951 3.15035 13.041 3.30165 13.1784C3.3474 13.22 3.39485 13.259 3.44165 13.2993C3.60165 13.4372 3.76585 13.5679 3.93665 13.6899C3.9587 13.7055 3.97825 13.7246 4.00045 13.7402V13.7339C5.17151 14.5579 6.56851 15.0002 8.00045 15.0002C9.4324 15.0002 10.8294 14.5579 12.0005 13.7339V13.7401C12.0227 13.7245 12.0422 13.7054 12.0643 13.6898C12.2349 13.5678 12.3993 13.4371 12.5593 13.2992C12.6061 13.2592 12.6535 13.2199 12.6993 13.1783C12.8505 13.0409 12.9943 12.8949 13.1343 12.7433C13.1809 12.693 13.229 12.6447 13.2743 12.5929C13.3102 12.5517 13.3504 12.5156 13.3854 12.4733L13.3745 12.4651ZM8 4.00011C8.44501 4.00011 8.88002 4.13207 9.25004 4.37931C9.62005 4.62654 9.90843 4.97794 10.0787 5.38908C10.249 5.80021 10.2936 6.25261 10.2068 6.68907C10.12 7.12552 9.90566 7.52644 9.59099 7.8411C9.27632 8.15577 8.87541 8.37006 8.43896 8.45688C8.0025 8.5437 7.5501 8.49914 7.13896 8.32884C6.72783 8.15855 6.37643 7.87016 6.1292 7.50015C5.88196 7.13014 5.75 6.69512 5.75 6.25011C5.75 5.65338 5.98705 5.08108 6.40901 4.65912C6.83097 4.23717 7.40326 4.00011 8 4.00011ZM4.00355 12.4651C4.01219 11.8086 4.27897 11.1819 4.74617 10.7206C5.21337 10.2592 5.84343 10.0004 6.5 10.0001H9.5C10.1566 10.0004 10.7866 10.2593 11.2538 10.7206C11.721 11.1819 11.9878 11.8086 11.9965 12.4651C10.8999 13.4533 9.47611 14.0001 8 14.0001C6.5239 14.0001 5.10013 13.4533 4.00355 12.4651Z" fill="black"/>
</svg>
