<svg width="16" height="16" viewBox="0 0 16 16" fill="none" xmlns="http://www.w3.org/2000/svg">
<path fill-rule="evenodd" clip-rule="evenodd" d="M7.38893 2.42133C6.9778 2.14662 6.49445 2 6 2C5.33696 2 4.70108 2.26339 4.23223 2.73223C3.76339 3.20107 3.5 3.83696 3.5 4.5C3.5 4.99445 3.64662 5.4778 3.92133 5.88893C4.19603 6.30005 4.58648 6.62048 5.04329 6.8097C5.50011 6.99892 6.00277 7.04843 6.48773 6.95196C6.97268 6.8555 7.41814 6.6174 7.76777 6.26777C8.1174 5.91814 8.3555 5.47268 8.45196 4.98773C8.54843 4.50277 8.49892 4.00011 8.3097 3.54329C8.12048 3.08648 7.80005 2.69603 7.38893 2.42133ZM4.05551 1.58986C4.63108 1.20527 5.30777 1 6 1C6.92826 1 7.8185 1.36875 8.47487 2.02513C9.13125 2.6815 9.5 3.57174 9.5 4.5C9.5 5.19223 9.29473 5.86892 8.91015 6.4445C8.52556 7.02007 7.97894 7.46867 7.33939 7.73358C6.69985 7.99848 5.99612 8.0678 5.31719 7.93275C4.63825 7.7977 4.01461 7.46436 3.52513 6.97487C3.03564 6.48539 2.7023 5.86175 2.56725 5.18282C2.4322 4.50388 2.50152 3.80015 2.76642 3.16061C3.03133 2.52107 3.47993 1.97444 4.05551 1.58986ZM13.85 8.6426L14.7073 9.5C14.8004 9.59267 14.8742 9.70287 14.9244 9.82423C14.9747 9.94559 15.0003 10.0757 15 10.2071V15H1V12.5C1.00106 11.5721 1.37015 10.6824 2.0263 10.0263C2.68244 9.37015 3.57207 9.00106 4.5 9H7.5C8.42794 9.00103 9.31758 9.37011 9.97373 10.0263C10.6299 10.6824 10.999 11.5721 11 12.5V14H14V10.2071L13.1432 9.35C12.9428 9.44765 12.7229 9.49892 12.5 9.5C12.2033 9.5 11.9133 9.41203 11.6666 9.24721C11.42 9.08238 11.2277 8.84811 11.1142 8.57403C11.0006 8.29994 10.9709 7.99834 11.0288 7.70737C11.0867 7.41639 11.2296 7.14912 11.4393 6.93934C11.6491 6.72956 11.9164 6.5867 12.2074 6.52882C12.4983 6.47094 12.7999 6.50065 13.074 6.61418C13.3481 6.72771 13.5824 6.91997 13.7472 7.16665C13.912 7.41332 14 7.70333 14 8C13.9988 8.22274 13.9476 8.44236 13.85 8.6426ZM2.73311 10.7331C2.26444 11.2018 2.00079 11.8372 2 12.5V14H10V12.5C9.99922 11.8372 9.73558 11.2018 9.2669 10.7331C8.79823 10.2644 8.1628 10.0008 7.5 10H4.5C3.8372 10.0008 3.20178 10.2644 2.73311 10.7331Z" fill="black"/>
</svg>
