<svg width="16" height="16" viewBox="0 0 16 16" fill="none" xmlns="http://www.w3.org/2000/svg">
<path fill-rule="evenodd" clip-rule="evenodd" d="M14.3832 2.12782C14.0071 1.7457 13.4995 1.52139 12.9637 1.50061C12.428 1.47982 11.9045 1.66414 11.5 2.01597C11.0955 1.66414 10.572 1.47982 10.0363 1.50061C9.50054 1.52139 8.99291 1.7457 8.61685 2.12782C8.22146 2.53145 8.00001 3.07397 8.00001 3.63899C8.00001 4.20402 8.22146 4.74654 8.61685 5.15017L11.499 8.06992L11.5 8.06872L11.501 8.06967L14.3832 5.15017C14.7785 4.74654 15 4.20402 15 3.63899C15 3.07397 14.7785 2.53145 14.3832 2.12782ZM13.671 4.44732L11.501 6.64597L11.5 6.64492L11.499 6.64592L9.329 4.44727C9.11723 4.23146 8.99858 3.94118 8.99858 3.63882C8.99858 3.33646 9.11723 3.04617 9.329 2.83037C9.54029 2.62497 9.82335 2.51005 10.118 2.51005C10.4127 2.51005 10.6958 2.62497 10.9071 2.83037L11.4976 3.43407L11.5 3.43162L11.5025 3.43412L12.093 2.83042C12.3042 2.62502 12.5873 2.5101 12.882 2.5101C13.1767 2.5101 13.4597 2.62502 13.671 2.83042C13.8828 3.04622 14.0014 3.33651 14.0014 3.63887C14.0014 3.94123 13.8828 4.23151 13.671 4.44732ZM8 15H7V12.5C6.99956 12.1023 6.84139 11.721 6.56018 11.4398C6.27897 11.1586 5.89769 11.0004 5.5 11H3.5C3.10231 11.0004 2.72103 11.1586 2.43982 11.4398C2.15861 11.721 2.00044 12.1023 2 12.5V15H1V12.5C1.00078 11.8372 1.26442 11.2018 1.7331 10.7331C2.20177 10.2644 2.8372 10.0008 3.5 10H5.5C6.1628 10.0008 6.79823 10.2644 7.2669 10.7331C7.73558 11.2018 7.99922 11.8372 8 12.5V15ZM5.33336 5.2528C5.08668 5.08797 4.79667 5 4.5 5C4.10218 5 3.72065 5.15804 3.43934 5.43934C3.15804 5.72064 3 6.10218 3 6.5C3 6.79667 3.08797 7.08668 3.2528 7.33335C3.41762 7.58003 3.65189 7.77229 3.92598 7.88582C4.20007 7.99935 4.50167 8.02906 4.79264 7.97118C5.08361 7.9133 5.35088 7.77044 5.56066 7.56066C5.77044 7.35088 5.9133 7.08361 5.97118 6.79263C6.02906 6.50166 5.99935 6.20006 5.88582 5.92597C5.77229 5.65189 5.58003 5.41762 5.33336 5.2528ZM3.11108 4.42133C3.5222 4.14662 4.00555 4 4.5 4C4.82831 4 5.1534 4.06466 5.45671 4.1903C5.76002 4.31594 6.03562 4.50009 6.26777 4.73223C6.49991 4.96438 6.68406 5.23998 6.8097 5.54329C6.93534 5.84661 7 6.1717 7 6.5C7 6.99445 6.85338 7.4778 6.57867 7.88893C6.30397 8.30005 5.91353 8.62048 5.45671 8.8097C4.99989 8.99892 4.49723 9.04843 4.01228 8.95196C3.52732 8.8555 3.08187 8.6174 2.73223 8.26777C2.3826 7.91814 2.1445 7.47268 2.04804 6.98773C1.95157 6.50277 2.00108 6.00011 2.1903 5.54329C2.37952 5.08648 2.69995 4.69603 3.11108 4.42133Z" fill="black"/>
</svg>
