<svg width="16" height="16" viewBox="0 0 16 16" fill="none" xmlns="http://www.w3.org/2000/svg">
<path fill-rule="evenodd" clip-rule="evenodd" d="M8.29323 8.70677C8.4807 8.89424 8.73488 8.9997 9 9H15C15.2651 8.99964 15.5193 8.89417 15.7067 8.70671C15.8942 8.51925 15.9996 8.26511 16 8V2C15.9997 1.73488 15.8942 1.4807 15.7068 1.29323C15.5193 1.10576 15.2651 1.0003 15 1H9C8.73487 1.00026 8.48066 1.10571 8.29319 1.29319C8.10571 1.48066 8.00026 1.73486 8 2V8C8.0003 8.26512 8.10576 8.5193 8.29323 8.70677ZM9 8V2H15L15.0005 8H9ZM12 5C12.5523 5 13 4.55228 13 4C13 3.44772 12.5523 3 12 3C11.4477 3 11 3.44772 11 4C11 4.55228 11.4477 5 12 5ZM13 5.5C13.1326 5.5 13.2598 5.55268 13.3536 5.64645C13.4473 5.74021 13.5 5.86739 13.5 6V7H10.5V6C10.5 5.86739 10.5527 5.74021 10.6464 5.64645C10.7402 5.55268 10.8674 5.5 11 5.5H13ZM7.5 15.0001H6.5V13.0001C6.50363 12.8021 6.46731 12.6055 6.39321 12.4218C6.31911 12.2382 6.20876 12.0714 6.06874 11.9314C5.92872 11.7914 5.76192 11.681 5.57829 11.6069C5.39466 11.5328 5.19798 11.4965 5 11.5001H3C2.80202 11.4965 2.60534 11.5328 2.42171 11.6069C2.23808 11.681 2.07127 11.7914 1.93126 11.9314C1.79124 12.0714 1.68088 12.2382 1.60679 12.4218C1.53269 12.6055 1.49637 12.8021 1.5 13.0001V15.0001H0.499998V13.0001C0.496751 12.6709 0.559198 12.3444 0.683685 12.0396C0.808171 11.7348 0.992197 11.4579 1.22499 11.2251C1.45779 10.9923 1.73468 10.8083 2.03946 10.6838C2.34424 10.5593 2.67079 10.4969 3 10.5001H5C5.32921 10.4969 5.65576 10.5593 5.96054 10.6838C6.26532 10.8083 6.54221 10.9923 6.775 11.2251C7.0078 11.4579 7.19183 11.7348 7.31631 12.0396C7.4408 12.3444 7.50325 12.6709 7.5 13.0001V15.0001ZM5.06066 5.93934C4.77936 5.65804 4.39782 5.5 4 5.5C3.60218 5.5 3.22064 5.65804 2.93934 5.93934C2.65804 6.22064 2.5 6.60218 2.5 7C2.5 7.39782 2.65804 7.77936 2.93934 8.06066C3.22064 8.34196 3.60218 8.5 4 8.5C4.39782 8.5 4.77936 8.34196 5.06066 8.06066C5.34196 7.77936 5.5 7.39782 5.5 7C5.5 6.60218 5.34196 6.22064 5.06066 5.93934ZM2.23223 5.23223C2.70107 4.76339 3.33696 4.5 4 4.5C4.66304 4.5 5.29893 4.76339 5.76777 5.23223C6.23661 5.70107 6.5 6.33696 6.5 7C6.5 7.66304 6.23661 8.29893 5.76777 8.76777C5.29893 9.23661 4.66304 9.5 4 9.5C3.33696 9.5 2.70107 9.23661 2.23223 8.76777C1.76339 8.29893 1.5 7.66304 1.5 7C1.5 6.33696 1.76339 5.70107 2.23223 5.23223Z" fill="black"/>
</svg>
