<svg width="16" height="16" viewBox="0 0 16 16" fill="none" xmlns="http://www.w3.org/2000/svg">
<g clip-path="url(#clip0_3_10541)">
<path fill-rule="evenodd" clip-rule="evenodd" d="M14.7442 6.03717C14.8275 6.01375 14.9135 6.00127 15 6.00007C15.2084 5.99962 15.4117 6.06442 15.5814 6.18538C15.7511 6.30634 15.8786 6.47739 15.9462 6.67452C16.0137 6.87166 16.0178 7.08499 15.9579 7.28459C15.8981 7.48419 15.7772 7.66004 15.6123 7.78747C15.4475 7.9149 15.2468 7.9875 15.0386 7.99511C14.8303 8.00271 14.6249 7.94493 14.4512 7.82986C14.2774 7.7148 14.1441 7.54823 14.0698 7.35353C13.9956 7.15883 13.9841 6.94576 14.0371 6.74422L13.5095 6.21662C13.2054 6.402 12.8561 6.50007 12.5 6.50007C12.1439 6.50007 11.7946 6.402 11.4905 6.21662L10.9629 6.74422C11.0231 6.9607 11.01 7.19104 10.9255 7.39925C10.841 7.60747 10.69 7.78184 10.4959 7.89513C10.3018 8.00842 10.0757 8.05425 9.85288 8.02546C9.63002 7.99666 9.42298 7.89487 9.26409 7.73598C9.1052 7.57709 9.00341 7.37005 8.97462 7.1472C8.94582 6.92434 8.99165 6.69823 9.10494 6.50417C9.21823 6.31012 9.3926 6.15905 9.60082 6.07456C9.80904 5.99007 10.0394 5.97693 10.2558 6.03717L10.7834 5.50957C10.5981 5.20548 10.5 4.85622 10.5 4.50007C10.5 4.14393 10.5981 3.79467 10.7834 3.49057L10.2558 2.96297C10.0394 3.02322 9.80904 3.01008 9.60082 2.92559C9.3926 2.8411 9.21823 2.69003 9.10494 2.49597C8.99165 2.30192 8.94582 2.0758 8.97462 1.85295C9.00341 1.6301 9.1052 1.42306 9.26409 1.26417C9.42298 1.10528 9.63002 1.00349 9.85288 0.974693C10.0757 0.9459 10.3018 0.991728 10.4959 1.10502C10.69 1.21831 10.841 1.39268 10.9255 1.60089C11.01 1.80911 11.0231 2.03945 10.9629 2.25592L11.4905 2.78352C11.7946 2.59814 12.1439 2.50008 12.5 2.50008C12.8561 2.50008 13.2054 2.59814 13.5095 2.78352L14.0371 2.25592C13.9769 2.03945 13.99 1.80911 14.0745 1.60089C14.159 1.39268 14.31 1.21831 14.5041 1.10502C14.6982 0.991728 14.9243 0.9459 15.1471 0.974693C15.37 1.00349 15.577 1.10528 15.7359 1.26417C15.8948 1.42306 15.9966 1.6301 16.0254 1.85295C16.0542 2.0758 16.0083 2.30192 15.8951 2.49597C15.7818 2.69003 15.6074 2.8411 15.3992 2.92559C15.191 3.01008 14.9606 3.02322 14.7442 2.96297L14.2165 3.49057C14.4019 3.79467 14.5 4.14393 14.5 4.50007C14.5 4.85622 14.4019 5.20548 14.2165 5.50957L14.7442 6.03717ZM11.6685 3.9445C11.5586 4.10895 11.5 4.30229 11.5 4.50007C11.5003 4.76519 11.6058 5.01935 11.7933 5.20682C11.9807 5.39428 12.2349 5.49974 12.5 5.50007C12.6978 5.50007 12.8911 5.44143 13.0556 5.33154C13.22 5.22166 13.3482 5.06548 13.4239 4.88276C13.4996 4.70003 13.5194 4.49897 13.4808 4.30498C13.4422 4.111 13.347 3.93282 13.2071 3.79297C13.0673 3.65312 12.8891 3.55787 12.6951 3.51929C12.5011 3.4807 12.3 3.50051 12.1173 3.5762C11.9346 3.65188 11.7784 3.78006 11.6685 3.9445ZM4.5 5C4.79667 5 5.08668 5.08797 5.33336 5.2528C5.58003 5.41762 5.77229 5.65189 5.88582 5.92597C5.99935 6.20006 6.02906 6.50166 5.97118 6.79263C5.9133 7.08361 5.77044 7.35088 5.56066 7.56066C5.35088 7.77044 5.08361 7.9133 4.79264 7.97118C4.50167 8.02906 4.20007 7.99935 3.92598 7.88582C3.65189 7.77229 3.41762 7.58003 3.2528 7.33335C3.08797 7.08668 3 6.79667 3 6.5C3 6.10218 3.15804 5.72064 3.43934 5.43934C3.72065 5.15803 4.10218 5 4.5 5ZM4.5 4C4.00555 4 3.5222 4.14662 3.11108 4.42133C2.69995 4.69603 2.37952 5.08648 2.1903 5.54329C2.00108 6.00011 1.95157 6.50277 2.04804 6.98773C2.1445 7.47268 2.3826 7.91814 2.73223 8.26777C3.08187 8.6174 3.52732 8.8555 4.01228 8.95196C4.49723 9.04843 4.99989 8.99892 5.45671 8.8097C5.91353 8.62048 6.30397 8.30005 6.57867 7.88893C6.85338 7.4778 7 6.99445 7 6.5C7 6.1717 6.93534 5.84661 6.8097 5.54329C6.68406 5.23998 6.49991 4.96438 6.26777 4.73223C6.03562 4.50009 5.76002 4.31594 5.45671 4.1903C5.1534 4.06466 4.82831 4 4.5 4ZM8 15H7V12.5C6.99956 12.1023 6.84139 11.721 6.56018 11.4398C6.27897 11.1586 5.89769 11.0004 5.5 11H3.5C3.10231 11.0004 2.72103 11.1586 2.43982 11.4398C2.15861 11.721 2.00044 12.1023 2 12.5V15H1V12.5C1.00078 11.8372 1.26442 11.2018 1.7331 10.7331C2.20177 10.2644 2.8372 10.0008 3.5 10H5.5C6.1628 10.0008 6.79823 10.2644 7.2669 10.7331C7.73558 11.2018 7.99922 11.8372 8 12.5V15Z" fill="black"/>
</g>
<defs>
<clipPath id="clip0_3_10541">
<rect width="16" height="16" fill="white"/>
</clipPath>
</defs>
</svg>
