<svg width="16" height="16" viewBox="0 0 16 16" fill="none" xmlns="http://www.w3.org/2000/svg">
<path fill-rule="evenodd" clip-rule="evenodd" d="M5.08986 6.4445C4.70527 5.86892 4.5 5.19223 4.5 4.5C4.5 3.57174 4.86875 2.6815 5.52513 2.02513C6.1815 1.36875 7.07174 1 8 1C8.69223 1 9.36892 1.20527 9.9445 1.58986C10.5201 1.97444 10.9687 2.52107 11.2336 3.16061C11.4985 3.80015 11.5678 4.50388 11.4327 5.18282C11.2977 5.86175 10.9644 6.48539 10.4749 6.97487C9.98539 7.46436 9.36175 7.7977 8.68282 7.93275C8.00388 8.0678 7.30015 7.99848 6.66061 7.73358C6.02107 7.46867 5.47444 7.02007 5.08986 6.4445ZM13 12.5V15H3V12.5C3.00109 11.5721 3.37018 10.6825 4.02632 10.0263C4.68247 9.37018 5.57208 9.00109 6.5 9H9.5C10.4279 9.00109 11.3175 9.37018 11.9737 10.0263C12.6298 10.6825 12.9989 11.5721 13 12.5Z" fill="black"/>
</svg>
