<svg width="16" height="16" viewBox="0 0 16 16" fill="none" xmlns="http://www.w3.org/2000/svg">
<path fill-rule="evenodd" clip-rule="evenodd" d="M8 2C8.49445 2 8.9778 2.14662 9.38893 2.42133C9.80005 2.69603 10.1205 3.08648 10.3097 3.54329C10.4989 4.00011 10.5484 4.50277 10.452 4.98773C10.3555 5.47268 10.1174 5.91814 9.76777 6.26777C9.41814 6.6174 8.97268 6.8555 8.48773 6.95196C8.00277 7.04843 7.50011 6.99892 7.04329 6.8097C6.58648 6.62048 6.19603 6.30005 5.92133 5.88893C5.64662 5.4778 5.5 4.99445 5.5 4.5C5.5 3.83696 5.76339 3.20107 6.23223 2.73223C6.70107 2.26339 7.33696 2 8 2ZM8 1C7.30777 1 6.63108 1.20527 6.0555 1.58986C5.47993 1.97444 5.03133 2.52107 4.76642 3.16061C4.50151 3.80015 4.4322 4.50388 4.56725 5.18282C4.7023 5.86175 5.03564 6.48539 5.52513 6.97487C6.01461 7.46436 6.63825 7.7977 7.31718 7.93275C7.99612 8.0678 8.69985 7.99848 9.33939 7.73358C9.97893 7.46867 10.5256 7.02007 10.9101 6.4445C11.2947 5.86892 11.5 5.19223 11.5 4.5C11.5 3.57174 11.1313 2.6815 10.4749 2.02513C9.8185 1.36875 8.92826 1 8 1ZM13 4H15V5H13V4ZM13 6L14.7321 7L14.2321 7.86603L12.5 6.86603L13 6ZM1.76796 7.86621L3.50002 6.86621L3.00002 6.00019L1.26796 7.00019L1.76796 7.86621ZM12 15H13V12.5C12.9989 11.5721 12.6298 10.6825 11.9737 10.0263C11.3175 9.37018 10.4279 9.00109 9.5 9H6.5C5.57208 9.00109 4.68247 9.37018 4.02632 10.0263C3.37018 10.6825 3.00109 11.5721 3 12.5V15H4V12.5C4.00078 11.8372 4.26442 11.2018 4.7331 10.7331C5.20177 10.2644 5.8372 10.0008 6.5 10H9.5C10.1628 10.0008 10.7982 10.2644 11.2669 10.7331C11.7356 11.2018 11.9992 11.8372 12 12.5V15ZM12.5 2.13379L14.2321 1.13379L14.7321 1.99981L13 2.99981L12.5 2.13379ZM3 4H1V5H3V4ZM3.00001 3L1.26796 2L1.76796 1.13397L3.50001 2.13397L3.00001 3Z" fill="black"/>
</svg>
