<svg width="16" height="16" viewBox="0 0 16 16" fill="none" xmlns="http://www.w3.org/2000/svg">
<path fill-rule="evenodd" clip-rule="evenodd" d="M8.5 1H7.5V3.5H8.5V1ZM4.5 15H6.5C6.76511 14.9996 7.01925 14.8942 7.20671 14.7067C7.39417 14.5193 7.49964 14.2651 7.5 14V10H6.5V14H4.5V10H3.5V14C3.50036 14.2651 3.60583 14.5193 3.79329 14.7067C3.98075 14.8942 4.23489 14.9996 4.5 15ZM11.625 10H12.5L11.25 15H9.75L8.5 10H9.396L10.5 14.5155L11.625 10ZM10.8433 4.44971L12.5962 2.69679L13.3032 3.40383L11.5503 5.15674L10.8433 4.44971ZM15 7.5H12.5V8.5H15V7.5ZM1 7.5H3.5V8.5H1V7.5ZM3.40383 2.69677L2.69679 3.40381L4.44971 5.15673L5.15675 4.44969L3.40383 2.69677ZM10 8.5H11V8C11 7.20435 10.6839 6.44129 10.1213 5.87868C9.55871 5.31607 8.79565 5 8 5C7.20435 5 6.44129 5.31607 5.87868 5.87868C5.31607 6.44129 5 7.20435 5 8V8.5H6V8C6 7.46957 6.21071 6.96086 6.58579 6.58579C6.96086 6.21071 7.46957 6 8 6C8.53043 6 9.03914 6.21071 9.41421 6.58579C9.78929 6.96086 10 7.46957 10 8V8.5Z" fill="black"/>
</svg>
