<svg width="16" height="16" viewBox="0 0 16 16" fill="none" xmlns="http://www.w3.org/2000/svg">
<path fill-rule="evenodd" clip-rule="evenodd" d="M3 14H5V13H3V3H5V2H3C2.73487 2.00028 2.48068 2.10572 2.2932 2.2932C2.10572 2.48068 2.00028 2.73487 2 3V13C2.00028 13.2651 2.10572 13.5193 2.2932 13.7068C2.48068 13.8943 2.73487 13.9997 3 14ZM13 14H11V13H13V3H11V2H13C13.2651 2.00028 13.5193 2.10572 13.7068 2.2932C13.8943 2.48068 13.9997 2.73487 14 3V13C13.9997 13.2651 13.8943 13.5193 13.7068 13.7068C13.5193 13.8943 13.2651 13.9997 13 14ZM10 5.5H9L8 7.4485L7 5.5H6L7.4525 8L6 10.5H7L8 8.6005L9 10.5H10L8.549 8L10 5.5Z" fill="black"/>
</svg>
