<svg width="16" height="16" viewBox="0 0 16 16" fill="none" xmlns="http://www.w3.org/2000/svg">
<path fill-rule="evenodd" clip-rule="evenodd" d="M14.25 0.500014C14.039 0.498996 13.8313 0.552471 13.6469 0.655264L9.4917 2.80421L9.49305 2.80691C9.11102 3.00324 8.78031 3.28636 8.52747 3.63358C8.27462 3.9808 8.10667 4.38244 8.0371 4.80629C7.96752 5.23015 7.99825 5.66441 8.12682 6.07424C8.25539 6.48407 8.47822 6.85806 8.77744 7.16621C9.07666 7.47437 9.44394 7.7081 9.84981 7.84867C10.2557 7.98924 10.6889 8.03272 11.1146 7.97564C11.5403 7.91856 11.9467 7.76249 12.3012 7.51997C12.6557 7.27744 12.9484 6.95521 13.1559 6.57911L13.1574 6.57986L15.3574 2.32986C15.4572 2.13934 15.5061 1.92631 15.4995 1.71135C15.4928 1.49639 15.4308 1.28679 15.3195 1.1028C15.2081 0.918812 15.0512 0.766665 14.8638 0.66107C14.6765 0.555474 14.4651 0.5 14.25 0.500014ZM10.75 7.00001C10.4039 7.00001 10.0655 6.89738 9.77775 6.70509C9.48997 6.51279 9.26566 6.23948 9.13321 5.91971C9.00076 5.59994 8.9661 5.24807 9.03363 4.90861C9.10115 4.56914 9.26782 4.25732 9.51256 4.01258C9.7573 3.76784 10.0691 3.60116 10.4086 3.53364C10.7481 3.46612 11.0999 3.50077 11.4197 3.63322C11.7395 3.76568 12.0128 3.98998 12.2051 4.27777C12.3974 4.56555 12.5 4.9039 12.5 5.25001C12.4994 5.71397 12.3149 6.15877 11.9868 6.48684C11.6588 6.81491 11.214 6.99946 10.75 7.00001ZM14.4707 1.86771L13.2786 4.17041C12.999 3.51942 12.4801 3.00064 11.829 2.72121L14.1264 1.53271C14.1648 1.51351 14.2073 1.50415 14.2502 1.50549C14.293 1.50683 14.3349 1.51883 14.372 1.54039C14.409 1.56195 14.4401 1.59241 14.4625 1.629C14.4849 1.6656 14.4977 1.70719 14.5 1.75001C14.5001 1.79106 14.49 1.83149 14.4707 1.86771ZM10.75 6C11.1642 6 11.5 5.66421 11.5 5.25C11.5 4.83579 11.1642 4.5 10.75 4.5C10.3358 4.5 10 4.83579 10 5.25C10 5.66421 10.3358 6 10.75 6ZM13 10H9.5V14H11V15H9.5C9.23489 14.9996 8.98075 14.8942 8.79329 14.7067C8.60583 14.5193 8.50036 14.2651 8.5 14V9H13V10ZM6 15.0002H4.5V14.0002H6V7.78343L4.2427 6.72898L4.7573 5.87158L6.51465 6.92578C6.66234 7.01508 6.78456 7.14089 6.86956 7.29109C6.95457 7.44129 6.99949 7.61085 7 7.78343V14.0002C6.99968 14.2654 6.89422 14.5195 6.70676 14.707C6.51929 14.8945 6.26512 14.9999 6 15.0002ZM7.5 1C7.88904 1.00004 8.2766 1.04793 8.65395 1.1426L8.3655 2.1074C8.08216 2.03805 7.7917 2.00201 7.5 2C6.92772 2.00178 6.36781 2.16669 5.88593 2.47538C5.40404 2.78408 5.02016 3.22377 4.7793 3.7429L4.625 4.07665L4.1935 4.01955C4.12955 4.00839 4.06489 4.00186 4 4C3.46957 4 2.96086 4.21071 2.58579 4.58579C2.21071 4.96086 2 5.46957 2 6C2 6.53043 2.21071 7.03914 2.58579 7.41421C2.96086 7.78929 3.46957 8 4 8V9C3.20435 9 2.44129 8.68393 1.87868 8.12132C1.31607 7.55871 1 6.79565 1 6C1 5.20435 1.31607 4.44129 1.87868 3.87868C2.44129 3.31607 3.20435 3 4 3C4.0132 3 4.02625 3 4.0393 3.0005C4.39108 2.39376 4.89571 1.88979 5.5029 1.5388C6.11009 1.1878 6.79866 1.00203 7.5 1Z" fill="black"/>
</svg>
