<svg width="16" height="16" viewBox="0 0 16 16" fill="none" xmlns="http://www.w3.org/2000/svg">
<path fill-rule="evenodd" clip-rule="evenodd" d="M13.5877 5.59093C13.717 5.53143 13.8576 5.50038 14 5.49988C14.1978 5.49988 14.3911 5.55852 14.5556 5.66841C14.72 5.77829 14.8482 5.93447 14.9239 6.11719C14.9996 6.29992 15.0194 6.50098 14.9808 6.69497C14.9422 6.88895 14.847 7.06713 14.7071 7.20698C14.5673 7.34683 14.3891 7.44208 14.1951 7.48066C14.0011 7.51925 13.8 7.49944 13.6173 7.42375C13.4346 7.34807 13.2784 7.21989 13.1685 7.05545C13.0587 6.891 13 6.69766 13 6.49988C13 6.47918 13.0027 6.45931 13.0054 6.43941C13.0069 6.42854 13.0084 6.41766 13.0094 6.40663L11.8637 5.58827C11.5525 5.85235 11.1581 5.99812 10.75 5.99988C10.2859 5.99988 9.84075 5.8155 9.51256 5.48731C9.18437 5.15912 9 4.714 9 4.24988C9 3.78575 9.18437 3.34063 9.51256 3.01244C9.84075 2.68425 10.2859 2.49988 10.75 2.49988C11.1581 2.50163 11.5525 2.6474 11.8637 2.91148L13.0094 2.09313C13.0084 2.08209 13.0069 2.07121 13.0054 2.06034C13.0027 2.04044 13 2.02057 13 1.99988C12.9997 1.7842 13.0692 1.57423 13.1982 1.40135C13.3271 1.22848 13.5086 1.10199 13.7154 1.0408C13.9222 0.979607 14.1433 0.987005 14.3455 1.06188C14.5478 1.13676 14.7203 1.2751 14.8375 1.45621C14.9546 1.63732 15.0099 1.85147 14.9952 2.06664C14.9805 2.28181 14.8965 2.48644 14.7558 2.64992C14.6152 2.81341 14.4253 2.92696 14.2148 2.97361C14.0042 3.02026 13.7842 2.9975 13.5877 2.90873L12.4169 3.74488C12.4695 3.90814 12.4976 4.07834 12.5 4.24988C12.4976 4.42141 12.4695 4.59161 12.4169 4.75488L13.5877 5.59093ZM10.3333 4.87348C10.4567 4.95589 10.6017 4.99988 10.75 4.99988C10.9488 4.99965 11.1395 4.92056 11.2801 4.77996C11.4207 4.63935 11.4998 4.44872 11.5 4.24988C11.5 4.10154 11.456 3.95653 11.3736 3.8332C11.2912 3.70986 11.1741 3.61373 11.037 3.55697C10.9 3.5002 10.7492 3.48535 10.6037 3.51429C10.4582 3.54323 10.3246 3.61466 10.2197 3.71955C10.1148 3.82443 10.0434 3.95807 10.0144 4.10356C9.98547 4.24904 10.0003 4.39984 10.0571 4.53689C10.1139 4.67393 10.21 4.79107 10.3333 4.87348ZM10.8028 8.57765L14.669 9.9668C14.7659 10.0016 14.8497 10.0655 14.909 10.1498C14.9682 10.234 15 10.3345 15 10.4375V13C15 13.1326 14.9473 13.2598 14.8536 13.3536C14.7598 13.4473 14.6326 13.5 14.5 13.5H13.429C13.3199 13.9289 13.0711 14.3092 12.7218 14.5808C12.3724 14.8525 11.9425 15 11.5 15C11.0575 15 10.6276 14.8525 10.2783 14.5808C9.92892 14.3092 9.68008 13.9289 9.57105 13.5H6.42895C6.31993 13.9289 6.07108 14.3092 5.72175 14.5808C5.37242 14.8525 4.94252 15 4.5 15C4.05748 15 3.62758 14.8525 3.27825 14.5808C2.92892 14.3092 2.68007 13.9289 2.57105 13.5H1.5C1.36739 13.5 1.24022 13.4473 1.14645 13.3536C1.05268 13.2598 1 13.1326 1 13V10.0537C0.999669 9.55207 1.15061 9.06199 1.4331 8.64745L2.7888 6.65575C2.92635 6.45362 3.11124 6.28819 3.32737 6.1739C3.5435 6.0596 3.78431 5.9999 4.0288 6H8.02685C8.24881 5.99955 8.46808 6.04853 8.66875 6.14337C8.86942 6.23822 9.04646 6.37656 9.187 6.54835L10.8028 8.57765ZM3.94443 13.8315C4.10888 13.9414 4.30222 14 4.5 14C4.76511 13.9996 5.01925 13.8942 5.20671 13.7067C5.39417 13.5193 5.49964 13.2651 5.5 13C5.5 12.8022 5.44135 12.6089 5.33147 12.4444C5.22159 12.28 5.06541 12.1518 4.88268 12.0761C4.69996 12.0004 4.49889 11.9806 4.30491 12.0192C4.11093 12.0578 3.93275 12.153 3.79289 12.2929C3.65304 12.4327 3.5578 12.6109 3.51922 12.8049C3.48063 12.9989 3.50043 13.2 3.57612 13.3827C3.65181 13.5654 3.77998 13.7216 3.94443 13.8315ZM10.9444 13.8315C11.1089 13.9414 11.3022 14 11.5 14C11.7651 13.9997 12.0193 13.8942 12.2067 13.7067C12.3942 13.5193 12.4997 13.2651 12.5 13C12.5 12.8022 12.4414 12.6089 12.3315 12.4444C12.2216 12.28 12.0654 12.1518 11.8827 12.0761C11.7 12.0004 11.4989 11.9806 11.3049 12.0192C11.1109 12.0578 10.9327 12.153 10.7929 12.2929C10.653 12.4327 10.5578 12.6109 10.5192 12.8049C10.4806 12.9989 10.5004 13.2 10.5761 13.3827C10.6518 13.5654 10.78 13.7216 10.9444 13.8315ZM13.429 12.5H14V10.7891L10.3311 9.4707C10.2437 9.43928 10.1667 9.38416 10.1089 9.3115L8.4092 7.17725C8.36237 7.12147 8.30385 7.07667 8.23777 7.04604C8.17169 7.01541 8.09968 6.99969 8.02685 7H4.0288C3.94729 6.99998 3.86702 7.01991 3.79498 7.05804C3.72294 7.09617 3.66132 7.15134 3.6155 7.21875L2.26 9.20945C2.09049 9.45836 1.99989 9.75256 2 10.0537V12.5H2.57105C2.68007 12.0711 2.92892 11.6908 3.27825 11.4192C3.62758 11.1475 4.05748 11.0001 4.5 11.0001C4.94252 11.0001 5.37242 11.1475 5.72175 11.4192C6.07108 11.6908 6.31993 12.0711 6.42895 12.5H9.57105C9.68008 12.0711 9.92892 11.6908 10.2783 11.4192C10.6276 11.1475 11.0575 11.0001 11.5 11.0001C11.9425 11.0001 12.3724 11.1475 12.7218 11.4192C13.0711 11.6908 13.3199 12.0711 13.429 12.5Z" fill="black"/>
</svg>
