<svg width="16" height="16" viewBox="0 0 16 16" fill="none" xmlns="http://www.w3.org/2000/svg">
<path fill-rule="evenodd" clip-rule="evenodd" d="M8 1V2H13V9.5H14V2C13.9997 1.73488 13.8942 1.4807 13.7068 1.29323C13.5193 1.10576 13.2651 1.0003 13 1H8ZM5.5 3.5V4.5H10.5V12H11.5V4.5C11.4997 4.23488 11.3942 3.9807 11.2068 3.79323C11.0193 3.60576 10.7651 3.5003 10.5 3.5H5.5ZM8.70677 6.29323C8.5193 6.10576 8.26512 6.0003 8 6H3C2.73488 6.0003 2.4807 6.10576 2.29323 6.29323C2.10576 6.4807 2.0003 6.73488 2 7V14C2.0003 14.2651 2.10576 14.5193 2.29323 14.7068C2.4807 14.8942 2.73488 14.9997 3 15H8C8.26512 14.9997 8.5193 14.8942 8.70677 14.7068C8.89424 14.5193 8.9997 14.2651 9 14V7C8.9997 6.73488 8.89424 6.4807 8.70677 6.29323ZM3 14V6.9994L8 7V14H3Z" fill="black"/>
</svg>
