<svg width="16" height="16" viewBox="0 0 16 16" fill="none" xmlns="http://www.w3.org/2000/svg">
<path fill-rule="evenodd" clip-rule="evenodd" d="M2 15H6C6.26513 14.9997 6.51932 14.8943 6.7068 14.7068C6.89428 14.5193 6.99972 14.2651 7 14V2C6.99972 1.73487 6.89428 1.48068 6.7068 1.2932C6.51932 1.10572 6.26513 1.00028 6 1H2C1.73487 1.00028 1.48068 1.10572 1.2932 1.2932C1.10572 1.48068 1.00028 1.73487 1 2V14C1.00028 14.2651 1.10572 14.5193 1.2932 14.7068C1.48068 14.8943 1.73487 14.9997 2 15ZM2 14V2H6V14H2ZM10 15H14C14.2651 14.9997 14.5193 14.8943 14.7068 14.7068C14.8943 14.5193 14.9997 14.2651 15 14V2C14.9997 1.73487 14.8943 1.48068 14.7068 1.2932C14.5193 1.10572 14.2651 1.00028 14 1H10C9.73487 1.00028 9.48068 1.10572 9.2932 1.2932C9.10572 1.48068 9.00028 1.73487 9 2V14C9.00028 14.2651 9.10572 14.5193 9.2932 14.7068C9.48068 14.8943 9.73487 14.9997 10 15ZM10 14V2H14V14H10Z" fill="black"/>
</svg>
