<svg width="16" height="16" viewBox="0 0 16 16" fill="none" xmlns="http://www.w3.org/2000/svg">
<path fill-rule="evenodd" clip-rule="evenodd" d="M14.4746 4.00777C14.5624 4.00074 14.6505 4.01704 14.73 4.055C14.8115 4.09723 14.8798 4.1611 14.9275 4.2396C14.9751 4.31809 15.0002 4.40819 15 4.5V11.5C14.9996 11.5916 14.974 11.6813 14.926 11.7594C14.8781 11.8375 14.8096 11.9008 14.7281 11.9426C14.6466 11.9844 14.5552 12.003 14.4638 11.9964C14.3724 11.9897 14.2846 11.9581 14.21 11.905L11.5 9.97V12C11.5 12.2652 11.3946 12.5196 11.2071 12.7071C11.0196 12.8946 10.7652 13 10.5 13H3.72L1.72 15L1 14.28L14.28 1L15 1.72L11.5 5.22V6.03L14.23 4.095C14.3024 4.04488 14.3868 4.01479 14.4746 4.00777ZM11.29 8.595L14 10.53V5.47L11.29 7.405C11.2154 7.45813 11.1276 7.48975 11.0362 7.49638C10.9448 7.50302 10.8534 7.48443 10.7719 7.44263C10.6904 7.40084 10.6219 7.33746 10.574 7.2594C10.526 7.18134 10.5004 7.09161 10.5 7V6.22L4.72 12H10.5V9C10.5004 8.90839 10.526 8.81866 10.574 8.7406C10.6219 8.66254 10.6904 8.59916 10.7719 8.55737C10.8534 8.51557 10.9448 8.49698 11.0362 8.50362C11.1276 8.51025 11.2154 8.54187 11.29 8.595ZM2 4V12H1V4C1 3.73478 1.10536 3.48043 1.29289 3.29289C1.48043 3.10536 1.73478 3 2 3H10V4H2Z" fill="black"/>
</svg>
