<svg width="16" height="16" viewBox="0 0 16 16" fill="none" xmlns="http://www.w3.org/2000/svg">
<path fill-rule="evenodd" clip-rule="evenodd" d="M14.4746 4.00777C14.5624 4.00074 14.6505 4.01704 14.73 4.055C14.8115 4.09723 14.8799 4.1611 14.9275 4.2396C14.9751 4.31809 15.0002 4.40819 15 4.5V11.5C14.9996 11.5916 14.974 11.6813 14.9261 11.7594C14.8781 11.8375 14.8096 11.9008 14.7281 11.9426C14.6466 11.9844 14.5552 12.003 14.4638 11.9964C14.3724 11.9897 14.2846 11.9581 14.21 11.905L11.5 9.97V12C11.5 12.2652 11.3947 12.5196 11.2071 12.7071C11.0196 12.8946 10.7652 13 10.5 13H3.72002L1.72002 15L1.00002 14.28L14.28 1L15 1.72L11.5 5.22V6.03L14.23 4.095C14.3024 4.04488 14.3868 4.01479 14.4746 4.00777ZM2.00001 3H10.155L1.00001 12.145C0.997554 12.0967 0.997554 12.0483 1.00001 12V4C1.00001 3.73478 1.10537 3.48043 1.29291 3.29289C1.48044 3.10536 1.7348 3 2.00001 3Z" fill="black"/>
</svg>
