<svg width="16" height="16" viewBox="0 0 16 16" fill="none" xmlns="http://www.w3.org/2000/svg">
<path fill-rule="evenodd" clip-rule="evenodd" d="M2 13H10.5C10.7651 12.9997 11.0193 12.8942 11.2068 12.7068C11.3942 12.5193 11.4997 12.2651 11.5 12V9.9717L14.2094 11.9067C14.2842 11.9602 14.3722 11.992 14.4638 11.9987C14.5555 12.0054 14.6472 11.9867 14.7289 11.9447C14.8106 11.9027 14.8791 11.8389 14.927 11.7605C14.9748 11.682 15.0001 11.5919 15 11.5V4.5C15 4.40812 14.9748 4.31801 14.9269 4.23956C14.8791 4.16111 14.8106 4.09737 14.7289 4.05534C14.6472 4.01331 14.5555 3.99461 14.4638 4.00131C14.3722 4.00801 14.2842 4.03984 14.2094 4.0933L11.5 6.0283V4C11.4997 3.73488 11.3942 3.4807 11.2068 3.29323C11.0193 3.10576 10.7651 3.0003 10.5 3H2C1.73488 3.0003 1.4807 3.10576 1.29323 3.29323C1.10576 3.4807 1.0003 3.73488 1 4V12C1.0003 12.2651 1.10576 12.5193 1.29323 12.7068C1.4807 12.8942 1.73488 12.9997 2 13ZM2 12.0005V4H10.5V7C10.5 7.09188 10.5252 7.18199 10.5731 7.26044C10.6209 7.33889 10.6894 7.40263 10.7711 7.44466C10.8528 7.48669 10.9445 7.50539 11.0362 7.49869C11.1278 7.49199 11.2158 7.46016 11.2906 7.4067L14 5.4717V10.5283L11.2906 8.59325C11.2158 8.53978 11.1278 8.50795 11.0362 8.50126C10.9445 8.49456 10.8528 8.51326 10.7711 8.5553C10.6894 8.59734 10.6209 8.66109 10.573 8.73954C10.5252 8.818 10.4999 8.90812 10.5 9V12L2 12.0005ZM8.5 6H4V7H8.5V6ZM6.5 8.5H4V9.5H6.5V8.5Z" fill="black"/>
</svg>
