<svg width="16" height="16" viewBox="0 0 16 16" fill="none" xmlns="http://www.w3.org/2000/svg">
<path fill-rule="evenodd" clip-rule="evenodd" d="M12.605 4.105C13.903 5.04056 14.8989 6.33541 15.47 7.83C15.5097 7.93985 15.5097 8.06015 15.47 8.17C14.8819 9.69118 13.861 11.0067 12.5334 11.954C11.2058 12.9012 9.62974 13.4387 8 13.5C6.68276 13.4782 5.39321 13.1184 4.255 12.455L1.705 15L1 14.295L14.295 1L15 1.705L12.605 4.105ZM6.085 10.62C6.63977 11.0289 7.3108 11.2497 8 11.25C8.59844 11.2494 9.18506 11.0833 9.695 10.7701C10.2049 10.4569 10.6183 10.0088 10.8895 9.47526C11.1606 8.94176 11.279 8.34368 11.2314 7.74713C11.1838 7.15058 10.9722 6.5788 10.62 6.095L9.715 7C9.92288 7.3794 10.0021 7.81597 9.94087 8.24423C9.87961 8.67248 9.68114 9.06933 9.37524 9.37524C9.06933 9.68114 8.67248 9.87961 8.24423 9.94087C7.81597 10.0021 7.3794 9.92288 7 9.715L6.085 10.62ZM4.765 8.405L2.265 10.905C1.50467 10.1224 0.914014 9.19132 0.530001 8.17C0.490285 8.06015 0.490285 7.93985 0.530001 7.83C1.11808 6.30882 2.13901 4.99331 3.4666 4.04604C4.79419 3.09878 6.37026 2.56129 8 2.5C8.77774 2.50564 9.54942 2.63735 10.285 2.89L8.395 4.775C8.26393 4.75905 8.13204 4.7507 8 4.75C7.13845 4.75132 6.31257 5.09416 5.70336 5.70336C5.09416 6.31257 4.75132 7.13845 4.75 8C4.74699 8.13518 4.752 8.27041 4.765 8.405Z" fill="black"/>
</svg>
