<svg width="16" height="16" viewBox="0 0 16 16" fill="none" xmlns="http://www.w3.org/2000/svg">
<path fill-rule="evenodd" clip-rule="evenodd" d="M10.715 1.55071C9.8561 1.18701 8.93278 0.999726 8 1C6.61553 1 5.26216 1.41054 4.11101 2.17971C2.95987 2.94888 2.06266 4.04213 1.53285 5.32122C1.00303 6.6003 0.86441 8.00777 1.13451 9.36563C1.4046 10.7235 2.07129 11.9708 3.05026 12.9497C4.02922 13.9287 5.2765 14.5954 6.63437 14.8655C7.99224 15.1356 9.3997 14.997 10.6788 14.4672C11.9579 13.9373 13.0511 13.0401 13.8203 11.889C14.5895 10.7378 15 9.38447 15 8H14C14.0021 9.39986 13.514 10.7563 12.6203 11.8337C11.7266 12.9112 10.4838 13.6417 9.10771 13.8984C7.73158 14.1551 6.30901 13.9218 5.08697 13.239C3.86492 12.5562 2.92057 11.467 2.41785 10.1605C1.91514 8.85407 1.8858 7.41279 2.33494 6.08694C2.78408 4.76109 3.68334 3.63438 4.87659 2.90242C6.06984 2.17046 7.48174 1.87947 8.86716 2.07997C10.2526 2.28046 11.5241 2.95979 12.4609 4H10V5H14V1H13V3.11715C12.351 2.44712 11.574 1.91442 10.715 1.55071ZM7.5 8.205L10.2935 11L11 10.2935L8.499 7.791V3.5H7.5V8.205Z" fill="black"/>
</svg>
