<svg width="16" height="16" viewBox="0 0 16 16" fill="none" xmlns="http://www.w3.org/2000/svg">
<path fill-rule="evenodd" clip-rule="evenodd" d="M12.5334 4.04604C13.861 4.99331 14.8819 6.30882 15.47 7.83C15.5097 7.93985 15.5097 8.06015 15.47 8.17C14.8819 9.69118 13.861 11.0067 12.5334 11.954C11.2058 12.9012 9.62974 13.4387 8 13.5C6.37026 13.4387 4.79419 12.9012 3.4666 11.954C2.13901 11.0067 1.11808 9.69118 0.530001 8.17C0.490285 8.06015 0.490285 7.93985 0.530001 7.83C1.11808 6.30882 2.13901 4.99331 3.4666 4.04604C4.79419 3.09878 6.37026 2.56129 8 2.5C9.62974 2.56129 11.2058 3.09878 12.5334 4.04604ZM6.1944 10.7023C6.72886 11.0594 7.35721 11.25 8 11.25C8.86155 11.2487 9.68743 10.9058 10.2966 10.2966C10.9058 9.68743 11.2487 8.86155 11.25 8C11.25 7.35721 11.0594 6.72886 10.7023 6.1944C10.3452 5.65994 9.83758 5.24338 9.24372 4.99739C8.64986 4.75141 7.9964 4.68705 7.36596 4.81245C6.73552 4.93785 6.15642 5.24738 5.7019 5.7019C5.24738 6.15642 4.93785 6.73552 4.81245 7.36596C4.68705 7.99639 4.75141 8.64986 4.99739 9.24372C5.24338 9.83758 5.65994 10.3452 6.1944 10.7023ZM10 8C10 9.10457 9.10457 10 8 10C6.89543 10 6 9.10457 6 8C6 6.89543 6.89543 6 8 6C9.10457 6 10 6.89543 10 8Z" fill="black"/>
</svg>
