<svg width="16" height="16" viewBox="0 0 16 16" fill="none" xmlns="http://www.w3.org/2000/svg">
<path fill-rule="evenodd" clip-rule="evenodd" d="M12.6 4.11C13.899 5.04351 14.8967 6.3366 15.47 7.83C15.5097 7.93985 15.5097 8.06015 15.47 8.17C14.8819 9.69118 13.861 11.0067 12.5334 11.954C11.2058 12.9012 9.62974 13.4387 8 13.5C6.68202 13.4787 5.39194 13.117 4.255 12.45L1.705 15L1 14.295L14.295 1L15 1.705L12.6 4.11ZM9.72755 8.99578C9.90395 8.69342 9.9979 8.35005 10 8C9.99634 7.64783 9.89976 7.30287 9.72 7L7 9.72C7.30316 9.89503 7.64694 9.98744 7.997 9.98797C8.34706 9.9885 8.69112 9.89714 8.99481 9.72303C9.29849 9.54892 9.55116 9.29815 9.72755 8.99578ZM5 11.71C5.92195 12.2107 6.95103 12.4817 8 12.5C10.65 12.5 13.45 10.535 14.465 8C13.9245 6.71771 13.0273 5.61749 11.88 4.83L10.445 6.265C10.8458 6.84267 11.031 7.54277 10.9682 8.24307C10.9055 8.94336 10.5987 9.59937 10.1015 10.0965C9.60437 10.5937 8.94837 10.9005 8.24807 10.9632C7.54777 11.026 6.84767 10.8408 6.27 10.44L5 11.71ZM2.62 11.255L3.335 10.545C2.55211 9.84206 1.93699 8.97234 1.535 8C2.55 5.465 5.35 3.5 8 3.5C8.68195 3.509 9.35772 3.63064 10 3.86L10.775 3.08C9.89633 2.70866 8.95385 2.51167 8 2.5C6.37026 2.56129 4.79419 3.09878 3.4666 4.04604C2.13901 4.99331 1.11808 6.30882 0.530001 7.83C0.490285 7.93985 0.490285 8.06015 0.530001 8.17C0.974124 9.34851 1.69021 10.4055 2.62 11.255ZM6 7.86523C6.03477 7.38609 6.24085 6.93547 6.58054 6.59577C6.92024 6.25607 7.37086 6.05 7.85 6.01523L8.755 5.10523C8.24788 4.9717 7.71462 4.97344 7.20838 5.11026C6.70214 5.24708 6.24061 5.51422 5.8698 5.88503C5.49899 6.25584 5.23186 6.71737 5.09503 7.22361C4.95821 7.72985 4.95648 8.26311 5.09 8.77023L6 7.86523Z" fill="black"/>
</svg>
