<svg width="16" height="16" viewBox="0 0 16 16" fill="none" xmlns="http://www.w3.org/2000/svg">
<path fill-rule="evenodd" clip-rule="evenodd" d="M6.70677 13.7068C6.5193 13.8942 6.26512 13.9997 6 14H1V13H6V8V3H1V2H6C6.26512 2.0003 6.5193 2.10576 6.70677 2.29323C6.89424 2.4807 6.9997 2.73488 7 3V13C6.9997 13.2651 6.89424 13.5193 6.70677 13.7068ZM6 8L3.5 5.5L2.793 6.207L4.086 7.5H1V8.5H4.086L2.793 9.793L3.5 10.5L6 8ZM9.29323 13.7068C9.4807 13.8942 9.73488 13.9997 10 14H15V13H10V8L12.5 10.5L13.207 9.793L11.914 8.5H15V7.5H11.914L13.207 6.207L12.5 5.5L10 8V3H15V2H10C9.73488 2.0003 9.4807 2.10576 9.29323 2.29323C9.10576 2.4807 9.0003 2.73488 9 3V13C9.0003 13.2651 9.10576 13.5193 9.29323 13.7068Z" fill="black"/>
</svg>
