<svg width="16" height="16" viewBox="0 0 16 16" fill="none" xmlns="http://www.w3.org/2000/svg">
<g clip-path="url(#clip0_3_10435)">
<path fill-rule="evenodd" clip-rule="evenodd" d="M12.9235 5.04862C12.9321 5.0571 12.9431 5.06281 12.955 5.065C13.8715 5.24045 14.6897 5.75122 15.2498 6.49756C15.8099 7.24391 16.0717 8.17223 15.9841 9.10125C15.8965 10.0303 15.4658 10.8933 14.776 11.5217C14.0862 12.1502 13.1869 12.499 12.2538 12.5H12V11.5H12.2538C12.7986 11.4986 13.3307 11.3356 13.7827 11.0316C14.2348 10.7276 14.5865 10.2963 14.7933 9.79235C15.0001 9.28836 15.0527 8.73433 14.9445 8.20043C14.8362 7.66652 14.572 7.17674 14.1852 6.7931C13.7591 6.38426 13.218 6.11572 12.6346 6.0236L12.1058 5.9279C12.0929 5.92556 12.081 5.91937 12.0717 5.91013C12.0624 5.90089 12.0561 5.88905 12.0536 5.87615L11.9565 5.372C11.8168 4.58721 11.4517 3.86 10.906 3.27896C10.3602 2.69793 9.65731 2.28813 8.8828 2.0995C8.41589 1.99326 7.93364 1.97217 7.45925 2.03725C6.60884 2.17331 5.82203 2.57119 5.20841 3.17548C4.59478 3.77977 4.18488 4.56038 4.0358 5.4086L3.9458 5.87615C3.94329 5.88903 3.93697 5.90085 3.92765 5.91008C3.91833 5.91931 3.90645 5.92552 3.89355 5.9279L3.38525 6.0197C2.79845 6.11385 2.25577 6.3891 1.83316 6.80695C1.41054 7.22479 1.12915 7.76431 1.02835 8.35C0.971843 8.74049 0.999857 9.13855 1.11049 9.51727C1.22113 9.89598 1.41181 10.2465 1.66963 10.5452C1.92746 10.8438 2.24641 11.0836 2.60493 11.2484C2.96344 11.4131 3.35315 11.4989 3.7477 11.5H4V12.5H3.7456C2.81266 12.4987 1.91371 12.1497 1.22421 11.5212C0.534711 10.8928 0.104159 10.0299 0.0165963 9.10111C-0.0709661 8.17229 0.190746 7.24418 0.750647 6.49793C1.31055 5.75168 2.12845 5.24087 3.0447 5.0652C3.05659 5.06295 3.06754 5.05719 3.07613 5.04867C3.08472 5.04014 3.09056 5.02923 3.0929 5.01735C3.35262 3.72298 4.1136 2.5838 5.20987 1.84823C6.30614 1.11267 7.64879 0.840405 8.945 1.0908C9.92055 1.27806 10.8183 1.75149 11.5238 2.45078C12.2293 3.15007 12.7107 4.04355 12.9066 5.0174C12.909 5.02926 12.9149 5.04013 12.9235 5.04862ZM6 6.5H10C10.2651 6.50033 10.5193 6.60579 10.7067 6.79326C10.8942 6.98072 10.9997 7.23489 11 7.5V14C10.9997 14.2651 10.8942 14.5193 10.7067 14.7067C10.5193 14.8942 10.2651 14.9997 10 15H6C5.73489 14.9997 5.48072 14.8942 5.29326 14.7067C5.10579 14.5193 5.00033 14.2651 5 14V7.5C5.00033 7.23489 5.10579 6.98072 5.29326 6.79326C5.48072 6.60579 5.73489 6.50033 6 6.5ZM10 9V7.5H6V9H10ZM10 11.5V10H6V11.5H10ZM6 12.5V14H10V12.5H6Z" fill="black"/>
</g>
<defs>
<clipPath id="clip0_3_10435">
<rect width="16" height="16" fill="white"/>
</clipPath>
</defs>
</svg>
