<svg width="16" height="16" viewBox="0 0 16 16" fill="none" xmlns="http://www.w3.org/2000/svg">
<path fill-rule="evenodd" clip-rule="evenodd" d="M11.7071 11L5 4.29295V1H1V5H4.29295L11 11.7071V15H15V11H11.7071ZM4 4H2V2H4V4ZM15 3.00004C15.001 2.51363 14.8244 2.04359 14.5033 1.67823C14.1822 1.31288 13.7387 1.07738 13.2562 1.01597C12.7737 0.954567 12.2854 1.07149 11.883 1.34477C11.4806 1.61805 11.1919 2.02887 11.071 2.50004H6.5V3.50004H11.071C11.1606 3.84377 11.3403 4.15739 11.5915 4.40857C11.8426 4.65975 12.1563 4.83939 12.5 4.92899V9.50004H13.5V4.92899C13.9282 4.81876 14.3078 4.56959 14.5792 4.22053C14.8507 3.87146 14.9987 3.44222 15 3.00004ZM13 4.00004C12.8022 4.00004 12.6089 3.94139 12.4444 3.8315C12.28 3.72162 12.1518 3.56544 12.0761 3.38272C12.0004 3.19999 11.9806 2.99893 12.0192 2.80494C12.0578 2.61096 12.153 2.43278 12.2929 2.29293C12.4327 2.15308 12.6109 2.05783 12.8049 2.01925C12.9989 1.98066 13.2 2.00047 13.3827 2.07616C13.5654 2.15184 13.7216 2.28002 13.8315 2.44447C13.9414 2.60891 14 2.80225 14 3.00004C13.9997 3.26516 13.8942 3.51934 13.7068 3.70681C13.5193 3.89428 13.2651 3.99973 13 4.00004ZM4.92895 12.5H9.5V13.5H4.92895C4.84147 13.8411 4.6653 14.153 4.41831 14.404C4.17132 14.655 3.86231 14.8362 3.52266 14.9292C3.183 15.0222 2.8248 15.0236 2.4844 14.9334C2.14401 14.8431 1.83355 14.6645 1.58454 14.4155C1.33553 14.1664 1.15685 13.856 1.06662 13.5156C0.976393 13.1752 0.977839 12.817 1.07081 12.4773C1.16378 12.1377 1.34497 11.8287 1.59598 11.5817C1.84699 11.3347 2.15888 11.1585 2.5 11.071V6.5H3.5V11.071C3.84373 11.1606 4.15735 11.3403 4.40853 11.5915C4.65971 11.8426 4.83935 12.1563 4.92895 12.5ZM2.44443 13.8315C2.60887 13.9414 2.80221 14 3 14C3.26512 13.9997 3.5193 13.8942 3.70677 13.7068C3.89424 13.5193 3.99969 13.2651 4 13C4 12.8022 3.94135 12.6089 3.83147 12.4444C3.72158 12.28 3.56541 12.1518 3.38268 12.0761C3.19995 12.0004 2.99889 11.9806 2.80491 12.0192C2.61092 12.0578 2.43274 12.153 2.29289 12.2929C2.15304 12.4327 2.0578 12.6109 2.01921 12.8049C1.98063 12.9989 2.00043 13.2 2.07612 13.3827C2.1518 13.5654 2.27998 13.7216 2.44443 13.8315ZM12 14V12H14V14H12Z" fill="black"/>
</svg>
