<svg width="16" height="16" viewBox="0 0 16 16" fill="none" xmlns="http://www.w3.org/2000/svg">
<g clip-path="url(#clip0_3_10433)">
<path fill-rule="evenodd" clip-rule="evenodd" d="M11.5382 2.4653C12.2457 3.17239 12.7251 4.07534 12.9144 5.05758C13.836 5.22386 14.6621 5.72885 15.2302 6.47331C15.7984 7.21776 16.0675 8.14781 15.9847 9.08063C15.9019 10.0134 15.4732 10.8816 14.7828 11.5143C14.0924 12.147 13.1903 12.4986 12.2538 12.5H12V11.5H12.2538C12.9405 11.4986 13.6019 11.2405 14.1079 10.7763C14.614 10.3121 14.9281 9.67539 14.9886 8.99135C15.0491 8.3073 14.8516 7.62537 14.4348 7.07957C14.0181 6.53377 13.4123 6.16357 12.7364 6.04173L12.062 5.91968L11.9325 5.24683C11.7561 4.33318 11.267 3.50946 10.5494 2.91712C9.83172 2.32479 8.93022 2.0008 7.99969 2.0008C7.06916 2.0008 6.16766 2.32479 5.45 2.91712C4.73235 3.50946 4.24332 4.33318 4.06689 5.24683L3.93734 5.91968L3.26294 6.04173C2.58695 6.16361 1.98101 6.53396 1.56427 7.07998C1.14752 7.626 0.950115 8.30817 1.01087 8.99237C1.07163 9.67656 1.38615 10.3133 1.89259 10.7773C2.39903 11.2413 3.06075 11.4991 3.74764 11.5H3.99999V12.5H3.74559C2.8091 12.4986 1.90699 12.147 1.2166 11.5143C0.526204 10.8816 0.0974654 10.0134 0.0146668 9.08063C-0.0681318 8.14781 0.200999 7.21776 0.769153 6.47331C1.33731 5.72885 2.16338 5.22386 3.08499 5.05758C3.20899 4.41219 3.45898 3.79757 3.82066 3.24885C4.18235 2.70013 4.64863 2.22808 5.19286 1.85968C5.73709 1.49127 6.34859 1.23375 6.9924 1.10181C7.63622 0.969881 8.29972 0.966133 8.94499 1.09078C9.92735 1.27943 10.8306 1.7582 11.5382 2.4653ZM10 8.5V10C10.2651 10.0003 10.5193 10.1058 10.7067 10.2933C10.8942 10.4807 10.9997 10.7349 11 11V14C10.9997 14.2651 10.8942 14.5193 10.7067 14.7067C10.5193 14.8942 10.2651 14.9997 10 15H6C5.73489 14.9997 5.48072 14.8942 5.29326 14.7067C5.10579 14.5193 5.00033 14.2651 5 14V11C5.00033 10.7349 5.10579 10.4807 5.29326 10.2933C5.48072 10.1058 5.73489 10.0003 6 10V8.5C6 7.96957 6.21071 7.46086 6.58579 7.08579C6.96086 6.71071 7.46957 6.5 8 6.5C8.53043 6.5 9.03914 6.71071 9.41421 7.08579C9.78929 7.46086 10 7.96957 10 8.5ZM7.29289 7.79289C7.10536 7.98043 7 8.23478 7 8.5V10H9V8.5C9 8.23478 8.89464 7.98043 8.70711 7.79289C8.51957 7.60536 8.26522 7.5 8 7.5C7.73478 7.5 7.48043 7.60536 7.29289 7.79289ZM6 11V14H10.0006L10 11H6Z" fill="black"/>
</g>
<defs>
<clipPath id="clip0_3_10433">
<rect width="16" height="16" fill="white"/>
</clipPath>
</defs>
</svg>
