<svg width="16" height="16" viewBox="0 0 16 16" fill="none" xmlns="http://www.w3.org/2000/svg">
<path fill-rule="evenodd" clip-rule="evenodd" d="M11.1867 2.1471C12.0831 2.88854 12.6929 3.91936 12.911 5.06202C13.812 5.22247 14.623 5.70722 15.1911 6.42474C15.7591 7.14226 16.0448 8.0429 15.9942 8.95666C15.9437 9.87041 15.5603 10.734 14.9166 11.3845C14.2729 12.035 13.4133 12.4273 12.5001 12.4873V11.4873C13.1884 11.4251 13.828 11.1058 14.2913 10.593C14.7546 10.0801 15.0077 9.41154 14.9999 8.72047C14.9922 8.0294 14.7243 7.36663 14.2496 6.86431C13.7749 6.362 13.1283 6.05705 12.4388 6.01027L12.0206 5.98197L11.9756 5.56497C11.8686 4.58531 11.4038 3.67962 10.6701 3.02167C9.93645 2.36371 8.98568 1.99983 8.00021 1.99983C7.01473 1.99983 6.06396 2.36371 5.3303 3.02167C4.59664 3.67962 4.13176 4.58531 4.02486 5.56497L3.97986 5.98197L3.56161 6.01027C2.87207 6.05702 2.22548 6.36194 1.75078 6.86424C1.27608 7.36654 1.00813 8.0293 1.00037 8.72038C0.99261 9.41145 1.24561 10.0801 1.70891 10.5929C2.17222 11.1057 2.81179 11.4251 3.50011 11.4873V12.4873C2.58693 12.4273 1.72734 12.035 1.0836 11.3845C0.439868 10.734 0.0565349 9.87041 0.00596992 8.95666C-0.044595 8.0429 0.241107 7.14226 0.80914 6.42474C1.37717 5.70722 2.18823 5.22247 3.08921 5.06202C3.30736 3.91936 3.91714 2.88854 4.81354 2.1471C5.70993 1.40565 6.83681 1 8.00011 1C9.1634 1 10.2903 1.40565 11.1867 2.1471ZM5.5 8H10.5C10.7651 8.0003 11.0193 8.10576 11.2068 8.29323C11.3942 8.4807 11.4997 8.73488 11.5 9V12C11.4997 12.2651 11.3942 12.5193 11.2068 12.7068C11.0193 12.8942 10.7651 12.9997 10.5 13H8.5V14H10V15H6V14H7.5V13H5.5C5.23488 12.9997 4.9807 12.8942 4.79323 12.7068C4.60576 12.5193 4.5003 12.2651 4.5 12V9C4.5003 8.73488 4.60576 8.4807 4.79323 8.29323C4.9807 8.10576 5.23488 8.0003 5.5 8ZM5.5 9V12H10.5007L10.5 9H5.5Z" fill="black"/>
</svg>
