<svg width="16" height="16" viewBox="0 0 16 16" fill="none" xmlns="http://www.w3.org/2000/svg">
<path fill-rule="evenodd" clip-rule="evenodd" d="M8.11999 2.49999H14C14.2652 2.49999 14.5196 2.60534 14.7071 2.79288C14.8946 2.98042 15 3.23477 15 3.49999V13.5C15 13.7652 14.8946 14.0196 14.7071 14.2071C14.5196 14.3946 14.2652 14.5 14 14.5H3.99999C3.73477 14.5 3.48042 14.3946 3.29288 14.2071C3.10535 14.0196 2.99999 13.7652 2.99999 13.5V8.45999C2.48896 8.16703 2.04893 7.76483 1.71135 7.28211C1.37378 6.79939 1.14698 6.24808 1.04716 5.66755C0.94735 5.08702 0.976983 4.49161 1.13395 3.92386C1.29091 3.35612 1.57133 2.83004 1.95517 2.38323C2.33901 1.93641 2.8168 1.57989 3.35439 1.33913C3.89199 1.09837 4.47612 0.979309 5.06506 0.990463C5.654 1.00162 6.23321 1.14271 6.76131 1.40365C7.2894 1.6646 7.75334 2.03896 8.11999 2.49999ZM2.62142 3.17707C2.21956 3.6999 2.00116 4.34056 1.99999 4.99999C2.00116 5.65941 2.21956 6.30008 2.62142 6.8229C3.02327 7.34573 3.5862 7.72159 4.22313 7.89235C4.86006 8.06311 5.53551 8.01925 6.14501 7.76757C6.75451 7.51588 7.26411 7.07039 7.59499 6.49999H4.99999V5.49999H7.95499C7.98259 5.33469 7.99763 5.16755 7.99999 4.99999C7.99763 4.83242 7.98259 4.66528 7.95499 4.49999H3.99999V3.49999H7.59499C7.26411 2.92958 6.75451 2.48409 6.14501 2.2324C5.53551 1.98072 4.86006 1.93686 4.22313 2.10762C3.5862 2.27838 3.02327 2.65424 2.62142 3.17707ZM6.49999 11L3.99999 13.5H14V11.5L11.5 8.99999L8.70499 11.795C8.51763 11.9812 8.26418 12.0858 7.99999 12.0858C7.7358 12.0858 7.48235 11.9812 7.29499 11.795L6.49999 11ZM12.205 8.28999L14 10.085V3.49999H8.70499C8.90006 3.97601 9.00027 4.48555 8.99999 4.99999C8.99999 6.06085 8.57856 7.07827 7.82842 7.82841C7.07827 8.57856 6.06086 8.99999 4.99999 8.99999C4.66259 8.99776 4.32674 8.9541 3.99999 8.86999V12.085L5.79499 10.29C5.98235 10.1037 6.2358 9.99919 6.49999 9.99919C6.76418 9.99919 7.01763 10.1037 7.20499 10.29L7.99999 11.085L10.795 8.28999C10.9824 8.10373 11.2358 7.99919 11.5 7.99919C11.7642 7.99919 12.0176 8.10373 12.205 8.28999ZM12.5 6C12.5 6.55228 12.0523 7 11.5 7C10.9477 7 10.5 6.55228 10.5 6C10.5 5.44772 10.9477 5 11.5 5C12.0523 5 12.5 5.44772 12.5 6Z" fill="black"/>
</svg>
