<svg width="16" height="16" viewBox="0 0 16 16" fill="none" xmlns="http://www.w3.org/2000/svg">
<path fill-rule="evenodd" clip-rule="evenodd" d="M15.0001 2.50015C15.0013 2.22488 14.9267 1.95459 14.7845 1.71887C14.6424 1.48316 14.4381 1.29112 14.194 1.16378C13.95 1.03644 13.6756 0.978717 13.4009 0.996925C13.1262 1.01513 12.8619 1.10857 12.6368 1.26702C12.4117 1.42546 12.2345 1.64278 12.1247 1.8952C12.0148 2.14762 11.9766 2.42539 12.0141 2.6981C12.0516 2.9708 12.1635 3.22792 12.3374 3.4413C12.5113 3.65468 12.7406 3.81609 13.0001 3.90785V7.50015H8.50011V4.50015H7.50011V7.50015H3.00011V3.9081C3.33381 3.79015 3.61508 3.55802 3.79418 3.25274C3.97328 2.94747 4.0387 2.5887 3.97886 2.23986C3.91903 1.89102 3.73779 1.57456 3.46719 1.34643C3.19659 1.11829 2.85405 0.993164 2.50011 0.993164C2.14617 0.993164 1.80363 1.11829 1.53303 1.34643C1.26243 1.57456 1.08119 1.89102 1.02136 2.23986C0.961519 2.5887 1.02693 2.94747 1.20604 3.25274C1.38514 3.55802 1.6664 3.79015 2.00011 3.9081V7.50015C2.00037 7.76528 2.10582 8.01948 2.29329 8.20696C2.48077 8.39444 2.73497 8.49988 3.00011 8.50015H7.50011V10.0001H8.50011V8.50015H13.0001C13.2652 8.49988 13.5194 8.39444 13.7069 8.20696C13.8944 8.01948 13.9998 7.76528 14.0001 7.50015V3.9081C14.2917 3.80532 14.5444 3.61482 14.7234 3.36274C14.9025 3.11066 14.9991 2.80934 15.0001 2.50015ZM2.50011 2.00015C2.599 2.00015 2.69567 2.02947 2.77789 2.08441C2.86012 2.13935 2.9242 2.21744 2.96205 2.30881C2.99989 2.40017 3.00979 2.5007 2.9905 2.59769C2.97121 2.69468 2.92359 2.78378 2.85366 2.8537C2.78374 2.92363 2.69464 2.97125 2.59765 2.99054C2.50066 3.00983 2.40013 2.99993 2.30877 2.96209C2.2174 2.92424 2.13931 2.86016 2.08437 2.77793C2.02943 2.69571 2.00011 2.59904 2.00011 2.50015C2.00028 2.36759 2.05301 2.24052 2.14675 2.14679C2.24048 2.05305 2.36755 2.00032 2.50011 2.00015ZM13.5001 3.00015C13.4012 3.00015 13.3045 2.97082 13.2223 2.91588C13.1401 2.86094 13.076 2.78285 13.0382 2.69149C13.0003 2.60013 12.9904 2.49959 13.0097 2.4026C13.029 2.30561 13.0766 2.21652 13.1466 2.1466C13.2165 2.07667 13.3056 2.02905 13.4026 2.00976C13.4996 1.99046 13.6001 2.00037 13.6915 2.03821C13.7828 2.07605 13.8609 2.14014 13.9158 2.22236C13.9708 2.30459 14.0001 2.40126 14.0001 2.50015C13.9999 2.6327 13.9472 2.75978 13.8535 2.85351C13.7597 2.94724 13.6327 2.99998 13.5001 3.00015ZM8 11C7.60444 11 7.21776 11.1173 6.88886 11.3371C6.55996 11.5568 6.30362 11.8692 6.15224 12.2346C6.00087 12.6001 5.96126 13.0022 6.03843 13.3902C6.1156 13.7781 6.30608 14.1345 6.58579 14.4142C6.86549 14.6939 7.22186 14.8844 7.60982 14.9616C7.99778 15.0387 8.39992 14.9991 8.76537 14.8478C9.13082 14.6964 9.44318 14.44 9.66294 14.1111C9.8827 13.7822 10 13.3956 10 13C9.99941 12.4697 9.7885 11.9614 9.41356 11.5864C9.03861 11.2115 8.53025 11.0006 8 11ZM8 14C7.80222 14 7.60888 13.9414 7.44443 13.8315C7.27998 13.7216 7.15181 13.5654 7.07612 13.3827C7.00043 13.2 6.98063 12.9989 7.01922 12.8049C7.0578 12.6109 7.15304 12.4327 7.29289 12.2929C7.43275 12.153 7.61093 12.0578 7.80491 12.0192C7.99889 11.9806 8.19996 12.0004 8.38268 12.0761C8.56541 12.1518 8.72159 12.28 8.83147 12.4444C8.94135 12.6089 9 12.8022 9 13C8.99974 13.2651 8.89429 13.5193 8.70682 13.7068C8.51934 13.8943 8.26514 13.9997 8 14ZM9 2.5C9 3.05228 8.55228 3.5 8 3.5C7.44772 3.5 7 3.05228 7 2.5C7 1.94772 7.44772 1.5 8 1.5C8.55228 1.5 9 1.94772 9 2.5Z" fill="black"/>
</svg>
