<svg width="16" height="16" viewBox="0 0 16 16" fill="none" xmlns="http://www.w3.org/2000/svg">
<path fill-rule="evenodd" clip-rule="evenodd" d="M3 1H13C13.2652 1 13.5196 1.10536 13.7071 1.29289C13.8946 1.48043 14 1.73478 14 2V14C14 14.2652 13.8946 14.5196 13.7071 14.7071C13.5196 14.8946 13.2652 15 13 15H3C2.73478 15 2.48043 14.8946 2.29289 14.7071C2.10536 14.5196 2 14.2652 2 14V2C2 1.73478 2.10536 1.48043 2.29289 1.29289C2.48043 1.10536 2.73478 1 3 1ZM3 2V14H13V2H3ZM8 3C7.07174 3 6.1815 3.36875 5.52513 4.02513C4.86875 4.6815 4.5 5.57174 4.5 6.5C4.5 7.42826 4.86875 8.3185 5.52513 8.97487C6.1815 9.63125 7.07174 10 8 10V9C7.50555 9 7.0222 8.85338 6.61107 8.57867C6.19995 8.30397 5.87952 7.91352 5.6903 7.45671C5.50108 6.99989 5.45157 6.49723 5.54804 6.01227C5.6445 5.52732 5.8826 5.08186 6.23223 4.73223C6.58186 4.3826 7.02732 4.1445 7.51227 4.04804C7.99723 3.95157 8.49989 4.00108 8.95671 4.1903C9.41352 4.37952 9.80397 4.69995 10.0787 5.11107C10.3534 5.5222 10.5 6.00555 10.5 6.5H11.5C11.5 5.57174 11.1313 4.6815 10.4749 4.02513C9.8185 3.36875 8.92826 3 8 3ZM9 6.5C9 7.05228 8.55228 7.5 8 7.5C7.44772 7.5 7 7.05228 7 6.5C7 5.94772 7.44772 5.5 8 5.5C8.55228 5.5 9 5.94772 9 6.5ZM9.7071 7.49992L8.99999 8.20703L10.7929 9.99994L11.5 9.29283L9.7071 7.49992ZM5.25 13C5.66421 13 6 12.6642 6 12.25C6 11.8358 5.66421 11.5 5.25 11.5C4.83579 11.5 4.5 11.8358 4.5 12.25C4.5 12.6642 4.83579 13 5.25 13Z" fill="black"/>
</svg>
