<svg width="16" height="16" viewBox="0 0 16 16" fill="none" xmlns="http://www.w3.org/2000/svg">
<path fill-rule="evenodd" clip-rule="evenodd" d="M12 13.5V15H13V13C13 12.8674 12.9473 12.7402 12.8536 12.6464C12.7598 12.5527 12.6326 12.5 12.5 12.5H10C9.60231 12.4996 9.22103 12.3414 8.93982 12.0602C8.65861 11.779 8.50044 11.3977 8.5 11V10C8.5 9.89506 8.46698 9.79277 8.40562 9.70764C8.34425 9.6225 8.25766 9.55883 8.1581 9.52565L7.2494 9.2228L8.4287 7.2572C8.47535 7.17952 8.5 7.09061 8.5 7V5.5C8.50103 4.57206 8.87011 3.68242 9.52627 3.02627C10.1824 2.37011 11.0721 2.00103 12 2H14.5V1H12C10.8069 1.00132 9.66311 1.47585 8.81948 2.31948C7.97585 3.16311 7.50132 4.30693 7.5 5.5V6.86145L6.0713 9.2428C6.03278 9.307 6.00918 9.37903 6.00222 9.45357C5.99527 9.52812 6.00514 9.60327 6.03111 9.67349C6.05709 9.7437 6.0985 9.80719 6.15229 9.85927C6.20608 9.91134 6.27088 9.95067 6.3419 9.97435L7.5 10.3603V11C7.50073 11.6628 7.76435 12.2983 8.23304 12.767C8.70172 13.2356 9.33718 13.4993 10 13.5H12ZM9.5 6H11.5V7H9.5V6ZM4.66625 12.6082C4.29933 12.2798 4.0058 11.8778 3.80484 11.4283C3.60388 10.9788 3.5 10.492 3.5 9.99964C3.5 9.50727 3.60388 9.02044 3.80484 8.57096C4.0058 8.12147 4.29933 7.71943 4.66625 7.39111L5.33325 8.13611C5.07106 8.37061 4.86132 8.65779 4.71771 8.97889C4.57411 9.3 4.49988 9.64779 4.49988 9.99954C4.49988 10.3513 4.57411 10.6991 4.71771 11.0202C4.86132 11.3413 5.07106 11.6285 5.33325 11.863L4.66625 12.6082ZM1.58066 12.4599C1.96243 13.2236 2.51674 13.888 3.1997 14.4004L3.8 13.6007C3.24107 13.1815 2.78741 12.6379 2.47496 12.013C2.1625 11.3881 1.99983 10.699 1.99983 10.0003C1.99983 9.30168 2.1625 8.6126 2.47496 7.98769C2.78741 7.36278 3.24107 6.8192 3.8 6.4L3.1997 5.6001C2.51674 6.11252 1.96243 6.77688 1.58066 7.5406C1.19889 8.30432 1.00013 9.14642 1.00013 10.0002C1.00013 10.8541 1.19889 11.6962 1.58066 12.4599Z" fill="black"/>
</svg>
