<svg width="16" height="16" viewBox="0 0 16 16" fill="none" xmlns="http://www.w3.org/2000/svg">
<path fill-rule="evenodd" clip-rule="evenodd" d="M9.80747 14.9604C9.86841 14.9861 9.93385 14.9995 10 14.9998C10.1326 14.9998 10.2598 14.9471 10.3536 14.8533C10.4473 14.7596 10.5 14.6324 10.5 14.4998V1.49979C10.4981 1.36791 10.4442 1.24211 10.35 1.14979C10.2563 1.05667 10.1296 1.00439 9.9975 1.00439C9.86541 1.00439 9.73868 1.05667 9.645 1.14979L5.835 4.99979H2.5C2.36739 4.99979 2.24021 5.05247 2.14645 5.14624C2.05268 5.24001 2 5.36718 2 5.49979V10.4998C2 10.6324 2.05268 10.7596 2.14645 10.8533C2.24021 10.9471 2.36739 10.9998 2.5 10.9998H5.835L9.645 14.8498C9.69131 14.897 9.74653 14.9346 9.80747 14.9604ZM6 9.99979H3V5.99979H6C6.14576 6.00075 6.28662 5.94725 6.395 5.84979L9.5 2.71479V13.2848L6.395 10.1498C6.28662 10.0523 6.14576 9.99884 6 9.99979ZM11.79 6.00008L12.55 5.33008V5.35508C13.1797 6.09994 13.5155 7.04921 13.4944 8.02434C13.4732 8.99947 13.0964 9.93326 12.435 10.6501L11.7 9.97008C12.1963 9.43301 12.4793 8.73317 12.4959 8.0021C12.5124 7.27103 12.2614 6.55909 11.79 6.00008Z" fill="black"/>
</svg>
