<svg width="16" height="16" viewBox="0 0 16 16" fill="none" xmlns="http://www.w3.org/2000/svg">
<path fill-rule="evenodd" clip-rule="evenodd" d="M8.80747 14.9604C8.86841 14.9861 8.93385 14.9995 9 14.9998C9.13261 14.9998 9.25979 14.9471 9.35355 14.8533C9.44732 14.7596 9.5 14.6324 9.5 14.4998V1.49979C9.49812 1.36791 9.44421 1.24211 9.35 1.14979C9.25632 1.05667 9.12959 1.00439 8.9975 1.00439C8.86541 1.00439 8.73868 1.05667 8.645 1.14979L4.835 4.99979H1.5C1.36739 4.99979 1.24021 5.05247 1.14645 5.14624C1.05268 5.24001 1 5.36718 1 5.49979V10.4998C1 10.6324 1.05268 10.7596 1.14645 10.8533C1.24021 10.9471 1.36739 10.9998 1.5 10.9998H4.835L8.645 14.8498C8.69131 14.897 8.74653 14.9346 8.80747 14.9604ZM13.58 4.04004L12.815 4.68504C13.6009 5.61601 14.0199 6.8019 13.9932 8.01995C13.9665 9.23801 13.496 10.4044 12.67 11.3L13.405 12C14.3968 10.9253 14.962 9.52526 14.9942 8.06314C15.0264 6.60101 14.5235 5.17746 13.58 4.06004V4.04004ZM10.79 5.99998C11.2614 6.55899 11.5124 7.27094 11.4959 8.002C11.4793 8.73307 11.1963 9.43291 10.7 9.96998L11.435 10.65C12.0964 9.93316 12.4732 8.99937 12.4944 8.02424C12.5155 7.04911 12.1797 6.09984 11.55 5.35498L10.79 5.99998Z" fill="black"/>
</svg>
