<svg width="16" height="16" viewBox="0 0 16 16" fill="none" xmlns="http://www.w3.org/2000/svg">
<path fill-rule="evenodd" clip-rule="evenodd" d="M8.80736 14.9614C8.86838 14.9869 8.93387 15 9 15C9.13258 14.9999 9.2597 14.9472 9.35345 14.8534C9.4472 14.7597 9.49991 14.6325 9.5 14.5V1.49995C9.49999 1.40083 9.47052 1.30395 9.41533 1.22161C9.36014 1.13928 9.28173 1.0752 9.19004 1.03753C9.09836 0.99985 8.99755 0.990276 8.90041 1.01002C8.80328 1.02976 8.7142 1.07793 8.6445 1.1484L4.833 4.99995H1.4994C1.43378 4.99999 1.3688 5.01295 1.30819 5.03809C1.24757 5.06324 1.19251 5.10008 1.14613 5.14651C1.09976 5.19294 1.06298 5.24805 1.03791 5.3087C1.01284 5.36934 0.999954 5.43433 1 5.49995V10.5006C1.00003 10.5662 1.01299 10.6312 1.03814 10.6918C1.06329 10.7524 1.10013 10.8074 1.14656 10.8538C1.19299 10.9002 1.2481 10.937 1.30874 10.962C1.36939 10.9871 1.43438 11 1.5 11H4.833L8.64455 14.8515C8.69099 14.8986 8.74633 14.936 8.80736 14.9614ZM5 9.99995H2V5.99995H5C5.14596 6.00034 5.28707 5.94757 5.39695 5.8515L8.5 2.71575V13.2842L5.39695 10.1484C5.28708 10.0523 5.14596 9.99954 5 9.99995ZM14 7.5H16V8.5H14V10.5H13V8.5H11V7.5H13V5.5H14V7.5Z" fill="black"/>
</svg>
