<svg width="16" height="16" viewBox="0 0 16 16" fill="none" xmlns="http://www.w3.org/2000/svg">
<path fill-rule="evenodd" clip-rule="evenodd" d="M2 14H4V13H2V3H5.79285L7.79285 5H14V9H15V5C14.9997 4.73488 14.8942 4.4807 14.7068 4.29323C14.5193 4.10576 14.2651 4.00031 14 4H8.20715L6.5 2.29295C6.40736 2.19978 6.29716 2.12591 6.17578 2.07562C6.05439 2.02534 5.92424 1.99964 5.79285 2H2C1.73488 2.00031 1.4807 2.10576 1.29323 2.29323C1.10576 2.4807 1.0003 2.73488 1 3V13C1.0003 13.2651 1.10576 13.5193 1.29323 13.7068C1.4807 13.8942 1.73488 13.9997 2 14ZM8.5 10.5H5V7H8.5V10.5ZM6 9.5H7.5V8H6V9.5ZM8.5 15H5V11.5H8.5V15ZM6 14H7.5V12.5H6V14ZM9.5 10.5H13V7H9.5V10.5ZM12 9.5H10.5V8H12V9.5ZM13 15H9.5V11.5H13V15ZM10.5 14H12V12.5H10.5V14Z" fill="black"/>
</svg>
