<svg width="16" height="16" viewBox="0 0 16 16" fill="none" xmlns="http://www.w3.org/2000/svg">
<path fill-rule="evenodd" clip-rule="evenodd" d="M8.80747 14.9604C8.86841 14.9861 8.93385 14.9995 9 14.9998C9.13261 14.9998 9.25979 14.9471 9.35355 14.8533C9.44732 14.7596 9.5 14.6324 9.5 14.4998V1.49979C9.49812 1.36791 9.44421 1.24211 9.35 1.14979C9.25632 1.05667 9.12959 1.00439 8.9975 1.00439C8.86541 1.00439 8.73868 1.05667 8.645 1.14979L4.835 4.99979H1.5C1.36739 4.99979 1.24021 5.05247 1.14645 5.14624C1.05268 5.24001 1 5.36718 1 5.49979V10.4998C1 10.6324 1.05268 10.7596 1.14645 10.8533C1.24021 10.9471 1.36739 10.9998 1.5 10.9998H4.835L8.645 14.8498C8.69131 14.897 8.74653 14.9346 8.80747 14.9604ZM14.795 5.5L15.5 6.205L13.705 8L15.5 9.795L14.795 10.5L13 8.705L11.205 10.5L10.5 9.795L12.295 8L10.5 6.205L11.205 5.5L13 7.295L14.795 5.5Z" fill="black"/>
</svg>
