<svg width="16" height="16" viewBox="0 0 16 16" fill="none" xmlns="http://www.w3.org/2000/svg">
<path fill-rule="evenodd" clip-rule="evenodd" d="M2 13.5H4V12.5H2V2.5H5.79285L7.79285 4.5H14V8.5H15V4.5C14.9997 4.23488 14.8942 3.9807 14.7068 3.79323C14.5193 3.60576 14.2651 3.50031 14 3.5H8.20715L6.5 1.79295C6.40736 1.69978 6.29716 1.62591 6.17578 1.57562C6.05439 1.52534 5.92424 1.49964 5.79285 1.5H2C1.73488 1.50031 1.4807 1.60576 1.29323 1.79323C1.10576 1.9807 1.0003 2.23488 1 2.5V12.5C1.0003 12.7651 1.10576 13.0193 1.29323 13.2068C1.4807 13.3942 1.73488 13.4997 2 13.5ZM10.3535 6.1465L12.8535 8.6465C12.9473 8.74025 13 8.8674 13 9V14C13 14.2652 12.8946 14.5196 12.7071 14.7071C12.5196 14.8946 12.2652 15 12 15H7C6.73478 15 6.48043 14.8946 6.29289 14.7071C6.10536 14.5196 6 14.2652 6 14V7C6 6.73478 6.10536 6.48043 6.29289 6.29289C6.48043 6.10536 6.73478 6 7 6H10C10.1326 6.00003 10.2598 6.05273 10.3535 6.1465ZM10 9H11.7928L10 7.20705V9ZM7 7V14H12V10H10C9.73478 10 9.48043 9.89464 9.29289 9.70711C9.10536 9.51957 9 9.26522 9 9V7H7Z" fill="black"/>
</svg>
