<svg width="16" height="16" viewBox="0 0 16 16" fill="none" xmlns="http://www.w3.org/2000/svg">
<path fill-rule="evenodd" clip-rule="evenodd" d="M2 14H4V13H2V3H5.79285L7.79285 5H14V9H15V5C14.9997 4.73488 14.8942 4.4807 14.7068 4.29323C14.5193 4.10576 14.2651 4.00031 14 4H8.20715L6.5 2.29295C6.40736 2.19978 6.29716 2.12591 6.17578 2.07562C6.05439 2.02534 5.92424 1.99964 5.79285 2H2C1.73488 2.00031 1.4807 2.10576 1.29323 2.29323C1.10576 2.4807 1.0003 2.73488 1 3V13C1.0003 13.2651 1.10576 13.5193 1.29323 13.7068C1.4807 13.8942 1.73488 13.9997 2 14ZM10.4811 12.4057C10.7568 12.1458 11.1211 12.0007 11.4999 11.9999C11.7966 11.9999 12.0866 12.0879 12.3333 12.2527C12.5799 12.4175 12.7722 12.6518 12.8857 12.9259C12.9993 13.2 13.029 13.5016 12.9711 13.7926C12.9132 14.0835 12.7703 14.3508 12.5606 14.5606C12.3508 14.7704 12.0835 14.9132 11.7925 14.9711C11.5016 15.029 11.2 14.9993 10.9259 14.8857C10.6518 14.7722 10.4175 14.5799 10.2527 14.3333C10.0879 14.0866 9.99991 13.7966 9.99991 13.4999C10.0021 13.4313 10.009 13.363 10.0206 13.2953L8.01871 12.0942C7.80528 12.2943 7.538 12.4276 7.24977 12.4777C6.96154 12.5279 6.66493 12.4926 6.39648 12.3763C6.12803 12.26 5.89944 12.0678 5.73887 11.8232C5.57829 11.5787 5.49274 11.2925 5.49274 10.9999C5.49274 10.7074 5.57829 10.4212 5.73887 10.1766C5.89944 9.93207 6.12803 9.73981 6.39648 9.62352C6.66493 9.50722 6.96154 9.47197 7.24977 9.5221C7.538 9.57224 7.80528 9.70556 8.01871 9.90567L10.0206 8.70452C9.95746 8.32316 10.0325 7.93181 10.2323 7.60087C10.432 7.26993 10.7433 7.02113 11.1101 6.89923C11.4769 6.77733 11.8752 6.79034 12.2332 6.93592C12.5913 7.0815 12.8857 7.35008 13.0634 7.69335C13.2411 8.03662 13.2905 8.43204 13.2026 8.80846C13.1148 9.18489 12.8955 9.5176 12.5842 9.74675C12.2729 9.97589 11.89 10.0864 11.5045 10.0585C11.119 10.0305 10.7561 9.86585 10.4811 9.59417L8.47926 10.7953C8.50679 10.9303 8.50679 11.0695 8.47926 11.2045L10.4811 12.4057ZM11.7777 8.08418C11.6955 8.02924 11.5988 7.99992 11.4999 7.99992C11.3673 8.00002 11.2402 8.05274 11.1465 8.14648C11.0527 8.24023 11 8.36734 10.9999 8.49992C10.9999 8.59881 11.0292 8.69548 11.0842 8.7777C11.1391 8.85993 11.2172 8.92401 11.3086 8.96186C11.3999 8.9997 11.5005 9.0096 11.5975 8.99031C11.6944 8.97102 11.7835 8.9234 11.8535 8.85347C11.9234 8.78355 11.971 8.69445 11.9903 8.59746C12.0096 8.50047 11.9997 8.39994 11.9618 8.30858C11.924 8.21721 11.8599 8.13912 11.7777 8.08418ZM6.72212 11.4157C6.80435 11.4706 6.90102 11.4999 6.99991 11.4999C7.13248 11.4998 7.2596 11.4471 7.35334 11.3534C7.44709 11.2596 7.4998 11.1325 7.49991 10.9999C7.49991 10.901 7.47058 10.8044 7.41564 10.7221C7.3607 10.6399 7.28261 10.5758 7.19125 10.538C7.09989 10.5001 6.99935 10.4902 6.90236 10.5095C6.80537 10.5288 6.71628 10.5764 6.64635 10.6464C6.57643 10.7163 6.52881 10.8054 6.50952 10.9024C6.49022 10.9994 6.50012 11.0999 6.53797 11.1913C6.57581 11.2826 6.6399 11.3607 6.72212 11.4157ZM11.2221 13.9157C11.3043 13.9706 11.401 13.9999 11.4999 13.9999C11.6325 13.9998 11.7596 13.9471 11.8533 13.8534C11.9471 13.7596 11.9998 13.6325 11.9999 13.4999C11.9999 13.401 11.9706 13.3044 11.9156 13.2221C11.8607 13.1399 11.7826 13.0758 11.6912 13.038C11.5999 13.0001 11.4994 12.9902 11.4024 13.0095C11.3054 13.0288 11.2163 13.0764 11.1464 13.1464C11.0764 13.2163 11.0288 13.3054 11.0095 13.4024C10.9902 13.4994 11.0001 13.5999 11.038 13.6913C11.0758 13.7826 11.1399 13.8607 11.2221 13.9157Z" fill="black"/>
</svg>
