<svg width="16" height="16" viewBox="0 0 16 16" fill="none" xmlns="http://www.w3.org/2000/svg">
<path d="M14 3.5C13.8251 3.50041 13.6535 3.54683 13.5023 3.6346C13.3511 3.72237 13.2257 3.84839 13.1386 4H11C11 3.20435 10.6839 2.44129 10.1213 1.87868C9.55869 1.31607 8.79563 1 7.99998 1C7.20433 1 6.44126 1.31607 5.87866 1.87868C5.31605 2.44129 4.99998 3.20435 4.99998 4H2.86133C2.75126 3.80936 2.58136 3.66036 2.37798 3.57612C2.17461 3.49188 1.94911 3.4771 1.73648 3.53407C1.52385 3.59105 1.33596 3.71659 1.20195 3.89124C1.06794 4.06588 0.9953 4.27987 0.9953 4.5C0.9953 4.72013 1.06794 4.93412 1.20195 5.10876C1.33596 5.28341 1.52385 5.40895 1.73648 5.46593C1.94911 5.5229 2.17461 5.50812 2.37798 5.42388C2.58136 5.33964 2.75126 5.19064 2.86133 5H4.99998V7H3.99998C3.73476 7 3.48041 7.10536 3.29287 7.29289C3.10533 7.48043 2.99998 7.73478 2.99998 8V14C2.99998 14.2652 3.10533 14.5196 3.29287 14.7071C3.48041 14.8946 3.73476 15 3.99998 15H12C12.2652 15 12.5195 14.8946 12.7071 14.7071C12.8946 14.5196 13 14.2652 13 14V8C13 7.73478 12.8946 7.48043 12.7071 7.29289C12.5195 7.10536 12.2652 7 12 7H11V5H13.1386C13.2267 5.15146 13.353 5.27708 13.505 5.36425C13.6569 5.45141 13.8292 5.49706 14.0043 5.49659C14.1795 5.49613 14.3515 5.44958 14.503 5.3616C14.6545 5.27363 14.7802 5.14734 14.8674 4.99542C14.9547 4.8435 15.0004 4.6713 15 4.49611C14.9996 4.32093 14.9531 4.14893 14.8652 3.99739C14.7773 3.84585 14.6511 3.72012 14.4992 3.63281C14.3473 3.5455 14.1752 3.4997 14 3.5ZM5.99998 4C5.99998 3.46957 6.21069 2.96086 6.58576 2.58579C6.96083 2.21071 7.46954 2 7.99998 2C8.53041 2 9.03912 2.21071 9.41419 2.58579C9.78926 2.96086 9.99998 3.46957 9.99998 4V7H5.99998V5H8.49998V4H5.99998ZM12 8V14H3.99998V8H12Z" fill="black"/>
</svg>
