<svg width="16" height="16" viewBox="0 0 16 16" fill="none" xmlns="http://www.w3.org/2000/svg">
<path fill-rule="evenodd" clip-rule="evenodd" d="M4.87964 1.87964C5.44206 1.31722 6.20462 1.00087 7 1C7.69123 1.00144 8.36088 1.24088 8.89632 1.67805C9.43176 2.11521 9.80031 2.72343 9.94 3.4004L8.96 3.5996C8.8613 3.1135 8.58548 2.68143 8.18611 2.38726C7.78674 2.0931 7.2923 1.95784 6.7988 2.00773C6.3053 2.05763 5.84795 2.28913 5.51555 2.65729C5.18314 3.02544 4.9994 3.50398 5 4V7H7.5V8H3V14H8.5V15H3C2.73488 14.9997 2.4807 14.8942 2.29323 14.7068C2.10576 14.5193 2.0003 14.2651 2 14V8C2.0003 7.73488 2.10576 7.4807 2.29323 7.29323C2.4807 7.10576 2.73488 7.0003 3 7H4V4C4.00087 3.20462 4.31722 2.44206 4.87964 1.87964ZM14.6384 6.06612C14.8767 6.50644 15.001 6.99941 15 7.50008C14.9998 7.92125 14.9106 8.33762 14.7382 8.72192C14.5659 9.10622 14.3143 9.44977 14 9.73008V14.5001L12 13.5582L9.99999 14.5001V9.73008C9.62681 9.3963 9.34311 8.97442 9.17473 8.50291C9.00636 8.03139 8.95867 7.52524 9.03601 7.03057C9.11336 6.53591 9.31328 6.06846 9.61755 5.67085C9.92182 5.27324 10.3208 4.95811 10.778 4.75417C11.2353 4.55023 11.7363 4.46398 12.2354 4.50327C12.7346 4.54257 13.2159 4.70616 13.6357 4.97913C14.0554 5.25211 14.4001 5.62579 14.6384 6.06612ZM12 12.4532L13 12.9239V10.3251C12.3538 10.5585 11.6462 10.5585 11 10.3251V12.9239L12 12.4532ZM10.8889 9.16302C11.2178 9.38278 11.6044 9.50008 12 9.50008C12.5302 9.49949 13.0386 9.28858 13.4136 8.91364C13.7885 8.53869 13.9994 8.03033 14 7.50008C14 7.10452 13.8827 6.71784 13.6629 6.38894C13.4432 6.06004 13.1308 5.8037 12.7654 5.65232C12.3999 5.50095 11.9978 5.46134 11.6098 5.53851C11.2219 5.61568 10.8655 5.80616 10.5858 6.08587C10.3061 6.36557 10.1156 6.72194 10.0384 7.1099C9.96125 7.49786 10.0009 7.9 10.1522 8.26545C10.3036 8.6309 10.56 8.94326 10.8889 9.16302Z" fill="black"/>
</svg>
