<svg width="16" height="16" viewBox="0 0 16 16" fill="none" xmlns="http://www.w3.org/2000/svg">
<path fill-rule="evenodd" clip-rule="evenodd" d="M4.49999 14.5H11.5C11.5874 14.5 11.6732 14.4771 11.749 14.4336C11.8248 14.3901 11.8879 14.3274 11.9319 14.252L15.4319 8.25195C15.4765 8.17548 15.5 8.08853 15.5 8C15.5 7.91147 15.4765 7.82452 15.4319 7.74805L11.9319 1.74805C11.8879 1.67257 11.8248 1.60994 11.749 1.56642C11.6732 1.5229 11.5874 1.5 11.5 1.5H4.49999C4.4126 1.5 4.32674 1.5229 4.25095 1.56642C4.17517 1.60994 4.11212 1.67257 4.06809 1.74805L0.568088 7.74805C0.523477 7.82452 0.499969 7.91147 0.499969 8C0.499969 8.08853 0.523477 8.17548 0.568088 8.25195L4.06809 14.252C4.11212 14.3274 4.17517 14.3901 4.25095 14.4336C4.32674 14.4771 4.4126 14.5 4.49999 14.5ZM11.2129 13.5H4.78709L1.57884 8L4.78709 2.5H11.2129L14.4211 8L11.2129 13.5ZM8.49999 4H7.49999V9H8.49999V4ZM7.99999 10.5C7.85165 10.5 7.70665 10.544 7.58331 10.6264C7.45997 10.7088 7.36384 10.8259 7.30708 10.963C7.25031 11.1 7.23546 11.2508 7.2644 11.3963C7.29334 11.5418 7.36477 11.6754 7.46966 11.7803C7.57455 11.8852 7.70818 11.9566 7.85367 11.9856C7.99916 12.0145 8.14996 11.9997 8.287 11.9429C8.42405 11.8861 8.54118 11.79 8.62359 11.6667C8.706 11.5433 8.74999 11.3983 8.74999 11.25C8.74999 11.0511 8.67097 10.8603 8.53032 10.7197C8.38967 10.579 8.1989 10.5 7.99999 10.5Z" fill="black"/>
</svg>
