<svg width="16" height="16" viewBox="0 0 16 16" fill="none" xmlns="http://www.w3.org/2000/svg">
<path fill-rule="evenodd" clip-rule="evenodd" d="M10.5339 3.46609C9.59655 2.52873 8.32563 2.00147 7 2C5.67392 2 4.40215 2.52679 3.46447 3.46447C2.52679 4.40215 2 5.67392 2 7C2 8.32609 2.52679 9.59786 3.46447 10.5355C4.40215 11.4732 5.67392 12 7 12V13C5.81331 13 4.65328 12.6481 3.66658 11.9888C2.67989 11.3295 1.91085 10.3925 1.45673 9.2961C1.0026 8.19975 0.88378 6.99335 1.11529 5.82946C1.3468 4.66558 1.91825 3.59648 2.75736 2.75736C3.59648 1.91825 4.66558 1.3468 5.82946 1.11529C6.99335 0.88378 8.19975 1.0026 9.2961 1.45673C10.3925 1.91085 11.3295 2.67989 11.9888 3.66658C12.6481 4.65328 13 5.81332 13 7H12C11.9985 5.67437 11.4713 4.40346 10.5339 3.46609ZM7.5 3.5H6.5V8H7.5V3.5ZM6.58332 9.1264C6.70666 9.04399 6.85167 9 7 9C7.19892 9 7.38968 9.07902 7.53033 9.21967C7.67098 9.36032 7.75 9.55109 7.75 9.75C7.75 9.89834 7.70602 10.0433 7.6236 10.1667C7.54119 10.29 7.42406 10.3861 7.28701 10.4429C7.14997 10.4997 6.99917 10.5145 6.85368 10.4856C6.7082 10.4566 6.57456 10.3852 6.46967 10.2803C6.36478 10.1754 6.29335 10.0418 6.26441 9.89632C6.23547 9.75083 6.25033 9.60003 6.30709 9.46299C6.36386 9.32594 6.45999 9.20881 6.58332 9.1264ZM9 10H15V11H9V10ZM9 12H15V13H9V12ZM15 14H9V15H15V14Z" fill="black"/>
</svg>
