<svg width="16" height="16" viewBox="0 0 16 16" fill="none" xmlns="http://www.w3.org/2000/svg">
<path d="M14.9275 1.2405C14.8829 1.1671 14.8201 1.10642 14.7452 1.0643C14.6704 1.02218 14.5859 1.00003 14.5 1H1.5C1.4141 0.999999 1.32965 1.02213 1.25478 1.06426C1.17992 1.10639 1.11718 1.1671 1.0726 1.24053C1.02802 1.31396 1.00311 1.39764 1.00027 1.48349C0.997436 1.56935 1.01677 1.65449 1.0564 1.7307L7.5564 14.2307C7.59862 14.3119 7.66231 14.3799 7.74053 14.4274C7.81875 14.4749 7.9085 14.5 8 14.5C8.09151 14.5 8.18126 14.4749 8.25948 14.4274C8.3377 14.3799 8.40138 14.3119 8.4436 14.2307L14.9436 1.7307C14.9832 1.65448 15.0025 1.56934 14.9997 1.48349C14.9969 1.39764 14.972 1.31396 14.9275 1.2405ZM7.4375 2.5H8.5625V7.5H7.4375V2.5ZM8 10.5C7.85167 10.5 7.70666 10.456 7.58333 10.3736C7.45999 10.2912 7.36386 10.1741 7.30709 10.037C7.25033 9.89997 7.23548 9.74917 7.26441 9.60368C7.29335 9.4582 7.36478 9.32456 7.46967 9.21967C7.57456 9.11478 7.7082 9.04335 7.85369 9.01441C7.99917 8.98547 8.14997 9.00033 8.28702 9.05709C8.42406 9.11386 8.54119 9.20999 8.62361 9.33332C8.70602 9.45666 8.75 9.60166 8.75 9.75C8.75 9.94891 8.67099 10.1397 8.53033 10.2803C8.38968 10.421 8.19892 10.5 8 10.5Z" fill="black"/>
</svg>
