<svg width="16" height="16" viewBox="0 0 16 16" fill="none" xmlns="http://www.w3.org/2000/svg">
<path fill-rule="evenodd" clip-rule="evenodd" d="M14.9997 1.48339C14.9968 1.39758 14.972 1.31394 14.9275 1.2405C14.8829 1.16708 14.8201 1.10639 14.7452 1.06427C14.6704 1.02215 14.5859 1.00001 14.5 1H1.50001C1.41413 1.00002 1.32971 1.02215 1.25487 1.06427C1.18003 1.10639 1.11731 1.16707 1.07273 1.24048C1.02816 1.31388 1.00324 1.39752 1.00038 1.48335C0.997524 1.56918 1.01682 1.65429 1.05641 1.7305L7.55641 14.2305C7.59863 14.3117 7.66231 14.3797 7.74053 14.4272C7.81875 14.4747 7.9085 14.4998 8.00001 14.4998C8.09151 14.4998 8.18126 14.4747 8.25948 14.4272C8.3377 14.3797 8.40139 14.3117 8.44361 14.2305L14.9436 1.7305C14.9832 1.6543 15.0025 1.56921 14.9997 1.48339ZM7.99901 12.9143L2.32436 2.00165L2.32536 2H13.6747L13.6757 2.00165L8.00101 12.9143H7.99901ZM8.5 3H7.5V7.5H8.5V3ZM8 8.5C7.85166 8.5 7.70666 8.54399 7.58332 8.6264C7.45999 8.70881 7.36386 8.82594 7.30709 8.96299C7.25033 9.10003 7.23547 9.25083 7.26441 9.39632C7.29335 9.5418 7.36478 9.67544 7.46967 9.78033C7.57456 9.88522 7.7082 9.95665 7.85368 9.98559C7.99917 10.0145 8.14997 9.99967 8.28701 9.94291C8.42406 9.88614 8.54119 9.79001 8.6236 9.66668C8.70601 9.54334 8.75 9.39834 8.75 9.25C8.75 9.05109 8.67098 8.86032 8.53033 8.71967C8.38968 8.57902 8.19891 8.5 8 8.5Z" fill="black"/>
</svg>
