<svg width="16" height="16" viewBox="0 0 16 16" fill="none" xmlns="http://www.w3.org/2000/svg">
<g clip-path="url(#clip0_3_10359)">
<path fill-rule="evenodd" clip-rule="evenodd" d="M8.2687 2.92886C8.19743 3.00012 8.10078 3.04016 8 3.04016C7.89921 3.04016 7.80256 3.00012 7.73129 2.92886C7.66003 2.85759 7.62 2.76094 7.62 2.66016V0.915156C7.62 0.814374 7.66003 0.717719 7.73129 0.646456C7.80256 0.575192 7.89921 0.535156 8 0.535156C8.10078 0.535156 8.19743 0.575192 8.2687 0.646456C8.33996 0.717719 8.38 0.814374 8.38 0.915156V2.66016C8.38 2.76094 8.33996 2.85759 8.2687 2.92886ZM4.145 3.795C4.1752 3.85566 4.22149 3.90685 4.2788 3.943C4.33611 3.97915 4.40225 3.99887 4.47 4C4.53665 4.00052 4.60223 3.98326 4.66 3.95C4.74241 3.89997 4.80272 3.82048 4.82871 3.72764C4.85471 3.63481 4.84444 3.53556 4.8 3.45L3.93 1.95C3.87917 1.86845 3.79933 1.80918 3.70656 1.78413C3.61378 1.75908 3.51496 1.77012 3.43 1.815C3.34666 1.86418 3.28556 1.94367 3.25946 2.03685C3.23337 2.13004 3.24431 2.2297 3.29 2.315L4.145 3.795ZM7.99998 4.00006C9.00559 3.9911 9.9957 4.24811 10.87 4.74506L10.885 4.76506C11.8631 5.33462 12.6511 6.18067 13.1497 7.19682C13.6483 8.21298 13.8354 9.35387 13.6874 10.476C13.5393 11.5982 13.0628 12.6516 12.3178 13.5037C11.5727 14.3558 10.5924 14.9686 9.49998 15.2651C9.01049 15.3945 8.5063 15.46 7.99998 15.4601C6.99213 15.4612 6.00193 15.1955 5.12999 14.6901C3.90165 13.9839 2.97883 12.8473 2.53999 11.5001C2.52126 11.4513 2.51279 11.3992 2.51512 11.3469C2.51744 11.2947 2.53051 11.2436 2.5535 11.1967C2.5765 11.1497 2.60892 11.1081 2.64875 11.0742C2.68858 11.0404 2.73496 11.0152 2.78499 11.0001C2.83323 10.9848 2.88405 10.9795 2.9344 10.9844C2.98475 10.9894 3.03359 11.0044 3.07796 11.0287C3.12234 11.053 3.16134 11.086 3.19262 11.1258C3.22391 11.1655 3.24682 11.2112 3.25999 11.2601C3.4723 11.9017 3.81248 12.4936 4.25999 13.0001C4.22168 12.4554 4.2621 11.9081 4.37999 11.3751C3.62994 10.658 3.07866 9.75877 2.77999 8.76506C2.68634 8.45077 2.65756 8.12072 2.69538 7.79497C2.73319 7.46921 2.83683 7.15454 2.99999 6.87006C3.54999 5.96006 4.59499 5.44006 5.93499 5.42006C5.98506 5.41805 6.03503 5.4261 6.08194 5.44373C6.12885 5.46136 6.17176 5.48822 6.20811 5.52271C6.24447 5.5572 6.27354 5.59863 6.29362 5.64455C6.31369 5.69047 6.32436 5.73995 6.32499 5.79006C6.32632 5.83997 6.3178 5.88965 6.29992 5.93626C6.28204 5.98287 6.25516 6.02551 6.2208 6.06173C6.18644 6.09794 6.14527 6.12704 6.09967 6.14734C6.05406 6.16764 6.00489 6.17876 5.95499 6.18006C4.85999 6.20506 4.03499 6.59506 3.63999 7.28006C3.52876 7.48107 3.45905 7.70238 3.435 7.93085C3.41095 8.15932 3.43305 8.39029 3.49999 8.61006C3.70164 9.344 4.07529 10.0193 4.58999 10.5801C4.84195 9.80603 5.17725 9.06166 5.58999 8.36006C6.57499 6.65006 7.82499 5.40006 8.95498 4.86006C8.64069 4.79494 8.32092 4.75978 7.99998 4.75506C7.94676 4.76119 7.89285 4.75601 7.84177 4.73984C7.79069 4.72366 7.74361 4.69688 7.70362 4.66123C7.66363 4.62558 7.63162 4.58188 7.60971 4.53299C7.5878 4.4841 7.57647 4.43113 7.57647 4.37756C7.57647 4.32398 7.5878 4.27101 7.60971 4.22213C7.63162 4.17324 7.66363 4.12954 7.70362 4.09389C7.74361 4.05824 7.79069 4.03145 7.84177 4.01528C7.89285 3.99911 7.94676 3.99392 7.99998 4.00006ZM7.34991 14.6586C7.99874 14.7444 8.65815 14.7007 9.28999 14.5301C9.88931 14.3777 10.4543 14.113 10.955 13.7501C10.5581 13.8414 10.1523 13.8883 9.74499 13.8901C8.52219 13.867 7.32706 13.522 6.27999 12.8901C5.84433 12.637 5.42967 12.3494 5.03999 12.0301C4.90499 13.0301 5.07999 13.7851 5.50999 14.0301C6.07571 14.3592 6.70108 14.5728 7.34991 14.6586ZM6.65999 12.2251C8.98998 13.5701 11.32 13.2001 12.32 12.2001C12.9735 11.0544 13.1479 9.6969 12.8051 8.42325C12.4624 7.14961 11.6302 6.06299 10.49 5.40006C9.66998 4.92506 7.72499 6.17006 6.25499 8.71006C5.8058 9.48107 5.45633 10.306 5.21499 11.1651C5.65879 11.5673 6.14304 11.9225 6.65999 12.2251ZM0.569991 4.99986L2.07999 5.85986C2.1624 5.9099 2.22271 5.98939 2.24871 6.08222C2.2747 6.17506 2.26444 6.27431 2.21999 6.35986C2.18618 6.41743 2.13798 6.46521 2.08013 6.49852C2.02227 6.53183 1.95675 6.54952 1.88999 6.54986C1.82365 6.54808 1.75862 6.53097 1.69999 6.49986L0.189991 5.65486C0.142391 5.63242 0.0999711 5.60034 0.0654197 5.56064C0.0308683 5.52095 0.00493839 5.47451 -0.0107271 5.42427C-0.0263926 5.37403 -0.0314522 5.32108 -0.0255851 5.26879C-0.0197181 5.21649 -0.00305247 5.16598 0.0233559 5.12046C0.0497642 5.07494 0.0853394 5.0354 0.127828 5.00435C0.170316 4.9733 0.21879 4.95141 0.27018 4.94008C0.32157 4.92874 0.374754 4.9282 0.426363 4.93849C0.477972 4.94878 0.526881 4.96968 0.569991 4.99986ZM11.34 3.93498C11.4253 3.98067 11.525 3.99161 11.6182 3.96552C11.7113 3.93943 11.7908 3.87832 11.84 3.79498L12.715 2.29498C12.7607 2.20968 12.7716 2.11002 12.7455 2.01684C12.7195 1.92365 12.6584 1.84416 12.575 1.79498C12.49 1.7501 12.3912 1.73907 12.2985 1.76411C12.2057 1.78916 12.1258 1.84843 12.075 1.92998L11.205 3.42998C11.1586 3.51545 11.1468 3.61544 11.1719 3.70938C11.197 3.80333 11.2572 3.88407 11.34 3.93498ZM15.7266 4.95894C15.8193 4.98399 15.8992 5.04326 15.95 5.12481C15.9963 5.20803 16.0096 5.30559 15.9874 5.39819C15.9652 5.49078 15.909 5.57166 15.83 5.62481L14.33 6.49981C14.2714 6.53091 14.2063 6.54803 14.14 6.54981C14.0732 6.54947 14.0077 6.53177 13.9499 6.49846C13.892 6.46515 13.8438 6.41737 13.81 6.35981C13.7656 6.27426 13.7553 6.17501 13.7813 6.08217C13.8073 5.98933 13.8676 5.90984 13.95 5.85981L15.45 4.98981C15.535 4.94492 15.6338 4.93389 15.7266 4.95894Z" fill="black"/>
</g>
<defs>
<clipPath id="clip0_3_10359">
<rect width="16" height="16" fill="white"/>
</clipPath>
</defs>
</svg>
