<svg width="16" height="16" viewBox="0 0 16 16" fill="none" xmlns="http://www.w3.org/2000/svg">
<g clip-path="url(#clip0_3_10357)">
<path fill-rule="evenodd" clip-rule="evenodd" d="M8.2687 4.3887C8.19743 4.45996 8.10078 4.5 8 4.5C7.90007 4.50001 7.80417 4.46066 7.73305 4.39047C7.66193 4.32029 7.62131 4.22491 7.62 4.125V2.38C7.62 2.27922 7.66003 2.18256 7.73129 2.1113C7.80256 2.04004 7.89921 2 8 2C8.10078 2 8.19743 2.04004 8.2687 2.1113C8.33996 2.18256 8.38 2.27922 8.38 2.38V4.12C8.38 4.22078 8.33996 4.31744 8.2687 4.3887ZM4.145 5.25989C4.16885 5.3017 4.20073 5.33839 4.23882 5.36783C4.2769 5.39727 4.32043 5.41888 4.36691 5.43143C4.41338 5.44398 4.46188 5.44721 4.5096 5.44094C4.55733 5.43467 4.60334 5.41902 4.645 5.39489C4.72834 5.34571 4.78944 5.26622 4.81553 5.17304C4.84162 5.07986 4.83068 4.98019 4.785 4.89489L3.915 3.39489C3.89005 3.35155 3.8568 3.31356 3.81717 3.28307C3.77753 3.25258 3.73228 3.23019 3.68399 3.21719C3.63571 3.20419 3.58533 3.20083 3.53575 3.2073C3.48616 3.21377 3.43833 3.22994 3.395 3.25489C3.30748 3.30528 3.24356 3.38838 3.2173 3.4859C3.19105 3.58341 3.20461 3.68737 3.255 3.77489L4.145 5.25989ZM0.580005 6.4502L2.08 7.3252V7.3452C2.1276 7.36764 2.17002 7.39973 2.20458 7.43942C2.23913 7.47912 2.26506 7.52556 2.28072 7.5758C2.29639 7.62604 2.30145 7.67898 2.29558 7.73128C2.28971 7.78358 2.27305 7.83408 2.24664 7.8796C2.22023 7.92512 2.18466 7.96466 2.14217 7.99571C2.09968 8.02677 2.05121 8.04865 1.99982 8.05999C1.94843 8.07133 1.89524 8.07187 1.84363 8.06158C1.79202 8.05128 1.74311 8.03039 1.70001 8.0002L0.200005 7.1102C0.156669 7.08525 0.118671 7.05201 0.0881823 7.01237C0.0576933 6.97274 0.0353097 6.92748 0.0223095 6.8792C0.00930925 6.83091 0.00594707 6.78054 0.0124149 6.73095C0.0188827 6.68137 0.0350538 6.63354 0.060005 6.5902C0.0849561 6.54687 0.118199 6.50887 0.157835 6.47838C0.197471 6.44789 0.242724 6.42551 0.29101 6.41251C0.339296 6.39951 0.389671 6.39614 0.439257 6.40261C0.488842 6.40908 0.536669 6.42525 0.580005 6.4502ZM10 13.0001H11V7.50006C11 7.39731 10.9683 7.29706 10.9092 7.21296C10.8502 7.12886 10.7666 7.065 10.67 7.03006C10.5733 6.99492 10.4681 6.99047 10.3688 7.01732C10.2695 7.04416 10.1808 7.101 10.115 7.18006L8 9.72006L5.885 7.18006C5.81916 7.101 5.73054 7.04416 5.63121 7.01732C5.53189 6.99047 5.4267 6.99492 5.33 7.03006C5.23336 7.065 5.14984 7.12886 5.09079 7.21296C5.03175 7.29706 5.00004 7.39731 5 7.50006V13.0001H6V8.88006L7.615 10.8201C7.66192 10.8767 7.72075 10.9223 7.78729 10.9535C7.85384 10.9848 7.92647 11.001 8 11.001C8.07353 11.001 8.14616 10.9848 8.21271 10.9535C8.27925 10.9223 8.33808 10.8767 8.385 10.8201L10 8.88006V13.0001ZM11.34 5.39524C11.3958 5.4294 11.4596 5.44836 11.525 5.45024C11.5919 5.4504 11.6576 5.43292 11.7155 5.39956C11.7735 5.3662 11.8216 5.31814 11.855 5.26024L12.73 3.76024C12.7804 3.67272 12.7939 3.56877 12.7677 3.47125C12.7414 3.37373 12.6775 3.29063 12.59 3.24024C12.5025 3.18985 12.3985 3.17629 12.301 3.20255C12.2035 3.2288 12.1204 3.29272 12.07 3.38024L11.2 4.88024C11.1751 4.92317 11.1589 4.97062 11.1524 5.01985C11.146 5.06907 11.1494 5.11909 11.1624 5.167C11.1754 5.21491 11.1978 5.25975 11.2283 5.29893C11.2588 5.33811 11.2968 5.37085 11.34 5.39524ZM15.7276 6.4213C15.8205 6.4473 15.9 6.50761 15.95 6.59002C15.9772 6.63492 15.9949 6.68491 16.002 6.73691C16.0092 6.78891 16.0056 6.84182 15.9916 6.8924C15.9775 6.94297 15.9533 6.99014 15.9203 7.031C15.8874 7.07187 15.8464 7.10556 15.8 7.13002L14.3 8.00002C14.2105 8.04643 14.1062 8.05538 14.0101 8.02491C13.914 7.99443 13.8339 7.92703 13.7875 7.83752C13.7411 7.748 13.7321 7.64372 13.7626 7.54761C13.7931 7.4515 13.8605 7.37143 13.95 7.32502L15.45 6.45002C15.5356 6.40557 15.6348 6.39531 15.7276 6.4213Z" fill="black"/>
</g>
<defs>
<clipPath id="clip0_3_10357">
<rect width="16" height="16" fill="white"/>
</clipPath>
</defs>
</svg>
