<svg width="16" height="16" viewBox="0 0 16 16" fill="none" xmlns="http://www.w3.org/2000/svg">
<path fill-rule="evenodd" clip-rule="evenodd" d="M9 11V12C9.98891 12 10.9556 11.7068 11.7779 11.1573C12.6001 10.6079 13.241 9.82705 13.6194 8.91342C13.9978 7.99979 14.0969 6.99446 13.9039 6.02455C13.711 5.05465 13.2348 4.16373 12.5355 3.46447C11.8363 2.76521 10.9454 2.289 9.97545 2.09608C9.00555 1.90315 8.00021 2.00217 7.08658 2.3806C6.17295 2.75904 5.39206 3.39991 4.84265 4.22215C4.29324 5.0444 4 6.0111 4 7H5C5 6.20888 5.2346 5.43552 5.67412 4.77772C6.11365 4.11992 6.73836 3.60723 7.46927 3.30448C8.20017 3.00173 9.00444 2.92252 9.78036 3.07686C10.5563 3.2312 11.269 3.61216 11.8284 4.17157C12.3878 4.73098 12.7688 5.44372 12.9231 6.21964C13.0775 6.99557 12.9983 7.79983 12.6955 8.53074C12.3928 9.26164 11.8801 9.88635 11.2223 10.3259C10.5645 10.7654 9.79113 11 9 11ZM8.5 15H11V14H8.5C7.9533 14.0141 7.41774 13.844 6.97935 13.5171C6.54096 13.1901 6.22518 12.7253 6.08274 12.1973C5.9403 11.6693 5.97947 11.1088 6.19396 10.6057C6.40844 10.1026 6.7858 9.68628 7.2654 9.4235C7.33969 9.37691 7.40042 9.3116 7.44149 9.23413C7.48257 9.15666 7.50255 9.06975 7.49943 8.98212C7.49631 8.89449 7.4702 8.80922 7.42371 8.73486C7.37723 8.66051 7.31201 8.59969 7.2346 8.5585C6.54132 8.20192 5.77488 8.01076 4.99535 8C3.1726 8.0171 1 9.24535 1 15H2C2 12.2757 2.52125 9.0233 5.00465 9C5.34626 8.99898 5.68602 9.05012 6.0122 9.15165C5.37678 9.76926 5.01269 10.614 5 11.5C5.00103 12.4279 5.37011 13.3176 6.02627 13.9737C6.68242 14.6299 7.57206 14.999 8.5 15ZM9 4.5C9.27614 4.5 9.5 4.27614 9.5 4C9.5 3.72386 9.27614 3.5 9 3.5C8.72386 3.5 8.5 3.72386 8.5 4C8.5 4.27614 8.72386 4.5 9 4.5ZM10.35 7.6426L11.5 8.79295L10.7929 9.5L9.6427 8.3496C9.44252 8.44746 9.22282 8.49887 9 8.5C8.60231 8.49956 8.22103 8.34139 7.93982 8.06018C7.65861 7.77897 7.50044 7.39769 7.5 7C7.50111 6.77725 7.55238 6.55762 7.65 6.3574L6.5 5.20705L7.20705 4.5L8.3573 5.6504C8.55748 5.55254 8.77718 5.50113 9 5.5C9.39769 5.50044 9.77897 5.65861 10.0602 5.93982C10.3414 6.22103 10.4996 6.60231 10.5 7C10.4989 7.22275 10.4476 7.44238 10.35 7.6426ZM8.58426 6.72221C8.52932 6.80444 8.5 6.90111 8.5 7C8.50012 7.13257 8.55284 7.25968 8.64658 7.35342C8.74032 7.44716 8.86743 7.49988 9 7.5C9.09889 7.5 9.19556 7.47068 9.27779 7.41573C9.36001 7.36079 9.4241 7.2827 9.46194 7.19134C9.49978 7.09998 9.50969 6.99945 9.49039 6.90245C9.4711 6.80546 9.42348 6.71637 9.35355 6.64645C9.28363 6.57652 9.19454 6.5289 9.09755 6.50961C9.00056 6.49031 8.90002 6.50022 8.80866 6.53806C8.7173 6.5759 8.63921 6.63999 8.58426 6.72221Z" fill="black"/>
</svg>
