<svg width="16" height="16" viewBox="0 0 16 16" fill="none" xmlns="http://www.w3.org/2000/svg">
<path fill-rule="evenodd" clip-rule="evenodd" d="M15 1H12V2H15V1ZM14 4H12V5H14V4ZM12 7H15V8H12V7ZM14 10H12V11H14V10ZM12 14.0001H15V13.0001H12C11.1411 12.9975 10.3058 12.7193 9.61682 12.2065C8.92783 11.6937 8.42157 10.9734 8.17247 10.1514C7.92337 9.3295 7.94458 8.44932 8.23298 7.64032C8.52139 6.83133 9.06176 6.13623 9.77465 5.65723C9.84745 5.60936 9.90648 5.54331 9.94588 5.46561C9.98529 5.38791 10.0037 5.30126 9.99932 5.21424C9.99493 5.12723 9.96788 5.04288 9.92085 4.96954C9.87382 4.8962 9.80845 4.83642 9.7312 4.79613C8.72885 4.28832 7.62378 4.01607 6.50025 4.00013H6.49685C5.72181 3.99425 4.95866 4.19077 4.28285 4.57025C3.60705 4.94973 3.04199 5.49902 2.64355 6.16383C1.553 7.83643 1 10.473 1 14.0001H2C2 10.6701 2.4983 8.21753 3.48145 6.71013C3.78859 6.18447 4.22931 5.74941 4.75889 5.44909C5.28847 5.14877 5.88807 4.99388 6.49685 5.00013C7.19305 5.00345 7.88333 5.12829 8.5366 5.36903C7.81719 6.06199 7.32098 6.95391 7.11152 7.93058C6.90207 8.90725 6.98889 9.92421 7.36088 10.8512C7.73287 11.7783 8.37309 12.5732 9.19956 13.1341C10.026 13.6951 11.0011 13.9967 12 14.0001Z" fill="black"/>
</svg>
