<svg width="16" height="16" viewBox="0 0 16 16" fill="none" xmlns="http://www.w3.org/2000/svg">
<path fill-rule="evenodd" clip-rule="evenodd" d="M13.2929 2L14 2.70705L12.8692 3.8379C13.4687 4.57004 13.8481 5.4574 13.963 6.39672C14.078 7.33604 13.9238 8.28869 13.5184 9.1438C13.1131 9.99891 12.4732 10.7213 11.6733 11.227C10.8734 11.7326 9.94633 12.0007 9 12V11C9.79113 11 10.5645 10.7654 11.2223 10.3259C11.8801 9.88635 12.3928 9.26164 12.6955 8.53073C12.9983 7.79983 13.0775 6.99556 12.9231 6.21964C12.7688 5.44371 12.3878 4.73098 11.8284 4.17157C11.269 3.61216 10.5563 3.2312 9.78036 3.07686C9.00444 2.92252 8.20017 3.00173 7.46927 3.30448C6.73836 3.60723 6.11365 4.11992 5.67412 4.77772C5.2346 5.43552 5 6.20887 5 7H4C4.00156 5.76096 4.46251 4.56652 5.29372 3.64765C6.12492 2.72878 7.26732 2.15077 8.5 2.0254V1H9.5V2.0254C10.477 2.12311 11.4033 2.50774 12.1621 3.13085L13.2929 2ZM9.5 4H8.5V8H9.5V4ZM11 15H8.5C7.57206 14.999 6.68242 14.6299 6.02627 13.9737C5.37011 13.3176 5.00103 12.4279 5 11.5C5.01269 10.614 5.37678 9.76926 6.0122 9.15165C5.68588 9.05073 5.34621 8.9996 5.00465 9C2.52125 9.0233 2 12.2757 2 15H1C1 9.24535 3.1726 8.0171 4.99535 8C5.77494 8.01032 6.54148 8.2015 7.2346 8.5585C7.31201 8.59969 7.37723 8.66051 7.42371 8.73486C7.4702 8.80922 7.49631 8.89449 7.49943 8.98212C7.50255 9.06975 7.48257 9.15666 7.44149 9.23413C7.40042 9.3116 7.33969 9.37691 7.2654 9.4235C6.7858 9.68629 6.40844 10.1026 6.19396 10.6057C5.97947 11.1088 5.9403 11.6693 6.08274 12.1973C6.22518 12.7253 6.54096 13.1901 6.97935 13.5171C7.41774 13.844 7.9533 14.0141 8.5 14H11V15Z" fill="black"/>
</svg>
