<svg width="16" height="16" viewBox="0 0 16 16" fill="none" xmlns="http://www.w3.org/2000/svg">
<path fill-rule="evenodd" clip-rule="evenodd" d="M10.1396 2.33728C11.2723 1.47216 12.6575 1.00239 14.0828 1H15V2H14.0828C13.8063 2.00089 13.5303 2.02274 13.2571 2.06535C13.5061 2.52234 13.5663 3.05866 13.4248 3.55948C13.2833 4.0603 12.9513 4.48582 12.5 4.74494C12.0487 5.00406 11.5138 5.07619 11.01 4.94589C10.5061 4.81558 10.0733 4.49319 9.8042 4.04775C9.4385 4.50039 9.14729 5.00843 8.94155 5.55275C9.21079 5.61342 9.46453 5.72923 9.68676 5.89287C9.909 6.05652 10.0949 6.26445 10.2328 6.50355C10.3706 6.74264 10.4574 7.00772 10.4877 7.28204C10.5179 7.55636 10.491 7.83398 10.4086 8.09738C10.3262 8.36078 10.1901 8.60425 10.0089 8.81241C9.82773 9.02058 9.60534 9.18893 9.35581 9.30684C9.10628 9.42476 8.83502 9.48967 8.55914 9.4975C8.28327 9.50532 8.00876 9.45588 7.75295 9.3523C7.53263 9.80341 7.26065 10.2274 6.9425 10.6158C7.14634 10.8279 7.30085 11.0824 7.39499 11.3611C7.48913 11.6399 7.52059 11.9359 7.48712 12.2282C7.45364 12.5205 7.35607 12.8018 7.20135 13.052C7.04663 13.3023 6.83858 13.5152 6.59206 13.6758C6.34554 13.8364 6.06661 13.9405 5.77519 13.9809C5.48377 14.0212 5.18704 13.9967 4.90618 13.9091C4.62531 13.8216 4.36724 13.6731 4.15037 13.4743C3.93351 13.2755 3.7632 13.0313 3.6516 12.7591C3.08711 12.9177 2.50363 12.9988 1.91725 13H1V12H1.91725C3.12327 11.998 4.29536 11.6005 5.25381 10.8685C6.21225 10.1364 6.90414 9.11025 7.2234 7.94725L7.81175 5.78955C8.18914 4.41513 9.00687 3.2024 10.1396 2.33728ZM4.9618 12.8412C5.12234 12.9444 5.30911 12.9996 5.5 13C5.69254 13.0022 5.88153 12.9482 6.04378 12.8445C6.20603 12.7408 6.33447 12.592 6.41333 12.4163C6.49219 12.2407 6.51804 12.0458 6.4877 11.8556C6.45736 11.6655 6.37216 11.4884 6.24255 11.346C5.75018 11.7841 5.19442 12.1452 4.5941 12.4172C4.67365 12.5908 4.80125 12.7379 4.9618 12.8412ZM9.38342 7.97136C9.46056 7.82626 9.50061 7.66433 9.5 7.5C9.49938 7.26142 9.41339 7.03094 9.25757 6.85026C9.10175 6.66959 8.8864 6.55066 8.6505 6.515L8.18825 8.21045C8.17608 8.25485 8.16163 8.29816 8.14716 8.3415C8.13809 8.36868 8.12902 8.39587 8.1205 8.42335C8.27219 8.48656 8.43716 8.51126 8.60071 8.49526C8.76426 8.47926 8.92132 8.42305 9.05788 8.33164C9.19445 8.24024 9.30628 8.11647 9.38342 7.97136ZM12.2597 3.65208C12.4154 3.47056 12.5007 3.23914 12.5 3C12.4982 2.74928 12.402 2.50845 12.2306 2.32545C11.6174 2.54683 11.0483 2.87497 10.5494 3.2947C10.6194 3.52337 10.7693 3.71927 10.9716 3.84669C11.174 3.97411 11.4154 4.02456 11.6519 3.98883C11.8883 3.95311 12.1041 3.83359 12.2597 3.65208ZM5 4.293V2H6V6H2V5H4.293L1 1.707L1.707 1L5 4.293Z" fill="black"/>
</svg>
