<svg width="16" height="16" viewBox="0 0 16 16" fill="none" xmlns="http://www.w3.org/2000/svg">
<path fill-rule="evenodd" clip-rule="evenodd" d="M12.1997 10.1006L12.8003 10.9006V10.9002C13.4833 10.3877 14.0377 9.72336 14.4194 8.95961C14.8012 8.19587 15 7.35374 15 6.49988C15 5.64603 14.8012 4.8039 14.4194 4.04015C14.0377 3.27641 13.4833 2.61203 12.8003 2.09961L12.1997 2.89961C12.7587 3.31881 13.2124 3.86241 13.5248 4.48734C13.8373 5.11228 14 5.80138 14 6.50008C14 7.19879 13.8373 7.88789 13.5248 8.51283C13.2124 9.13776 12.7587 9.68135 12.1997 10.1006ZM3.1997 10.9004C2.51674 10.388 1.96243 9.72361 1.58066 8.95989C1.19889 8.19617 1.00014 7.35407 1.00014 6.50025C1.00014 5.64642 1.19889 4.80432 1.58066 4.0406C1.96243 3.27688 2.51674 2.61252 3.1997 2.1001L3.8 2.9C3.24107 3.3192 2.78741 3.86278 2.47496 4.48769C2.16251 5.1126 1.99984 5.80168 1.99984 6.50035C1.99984 7.19902 2.16251 7.88809 2.47496 8.513C2.78741 9.13791 3.24107 9.68149 3.8 10.1007L3.1997 10.9004ZM4.66624 9.10816C4.29932 8.77984 4.0058 8.37781 3.80483 7.92832C3.60387 7.47883 3.5 6.992 3.5 6.49964C3.5 6.00727 3.60387 5.52044 3.80483 5.07096C4.0058 4.62147 4.29932 4.21943 4.66624 3.89111L5.33324 4.63611C5.07106 4.87061 4.86131 5.15779 4.71771 5.47889C4.5741 5.8 4.49987 6.14779 4.49987 6.49954C4.49987 6.85129 4.5741 7.19908 4.71771 7.52018C4.86131 7.84128 5.07106 8.12847 5.33324 8.36296L4.66624 9.10816ZM8.5 14V8.5H9C9.26512 8.4997 9.5193 8.39424 9.70677 8.20677C9.89424 8.0193 9.9997 7.76512 10 7.5V5.5C9.9997 5.23488 9.89424 4.9807 9.70677 4.79323C9.5193 4.60576 9.26512 4.5003 9 4.5H7C6.73488 4.5003 6.4807 4.60576 6.29323 4.79323C6.10576 4.9807 6.0003 5.23488 6 5.5V7.5C6.0003 7.76512 6.10576 8.0193 6.29323 8.20677C6.4807 8.39424 6.73488 8.4997 7 8.5H7.5V14H1V15H15V14H8.5ZM7 5.5H9L9.00075 7.5H7V5.5ZM10.6665 8.36345L11.3335 9.10845V9.10865C11.7005 8.78036 11.994 8.37834 12.195 7.92884C12.396 7.47935 12.4999 6.99251 12.4999 6.50013C12.4999 6.00774 12.396 5.5209 12.195 5.07141C11.994 4.62192 11.7005 4.21989 11.3335 3.8916L10.6665 4.6366C10.9287 4.87108 11.1385 5.15825 11.2821 5.47936C11.4258 5.80046 11.5 6.14826 11.5 6.50003C11.5 6.85179 11.4258 7.19959 11.2821 7.5207C11.1385 7.8418 10.9287 8.12898 10.6665 8.36345Z" fill="black"/>
</svg>
