<svg width="16" height="16" viewBox="0 0 16 16" fill="none" xmlns="http://www.w3.org/2000/svg">
<path fill-rule="evenodd" clip-rule="evenodd" d="M10.1396 2.33728C11.2723 1.47216 12.6575 1.00239 14.0828 1H15V2H14.0828C13.719 2.00127 13.3563 2.03898 13 2.11255V5C13 5.07924 12.9812 5.15735 12.9451 5.22789C12.909 5.29843 12.8566 5.35938 12.7924 5.40571C12.7281 5.45204 12.6537 5.48243 12.5754 5.49438C12.497 5.50632 12.417 5.49947 12.3418 5.4744L9.46795 4.5164C9.22974 4.88315 9.03642 5.27716 8.89215 5.69L10.8904 8.1875C10.9419 8.25182 10.9767 8.32787 10.9917 8.40889C11.0067 8.4899 11.0014 8.57336 10.9764 8.65186C10.9514 8.73036 10.9073 8.80145 10.8482 8.85882C10.7891 8.91619 10.7167 8.95806 10.6375 8.9807L7.45605 9.88965C7.31772 10.1177 7.16541 10.3369 7 10.5462V14C7.00001 14.0808 6.98045 14.1604 6.94297 14.232C6.9055 14.3036 6.85124 14.365 6.78484 14.411C6.71843 14.457 6.64186 14.4863 6.56168 14.4963C6.4815 14.5062 6.4001 14.4966 6.32445 14.4683L2.3599 12.9815C2.21315 12.9915 2.066 13 1.91725 13H1V12H1.91725C3.12327 11.998 4.29536 11.6005 5.25381 10.8685C6.21225 10.1364 6.90414 9.11025 7.2234 7.94725L7.81175 5.78955C8.18914 4.41513 9.00687 3.2024 10.1396 2.33728ZM6 11.5471C5.44991 11.9923 4.83106 12.3449 4.1677 12.5913L6 13.2783V11.5471ZM8.18835 8.21045C8.1445 8.3711 8.09305 8.52835 8.0377 8.6836L9.64 8.2256L8.55435 6.86815L8.18835 8.21045ZM10.1294 3.68265L12 4.30615V2.4153C11.296 2.70465 10.6592 3.13609 10.1294 3.68265ZM5 4.293V2H6V6H2V5H4.293L1 1.707L1.707 1L5 4.293Z" fill="black"/>
</svg>
