<svg width="16" height="16" viewBox="0 0 16 16" fill="none" xmlns="http://www.w3.org/2000/svg">
<path fill-rule="evenodd" clip-rule="evenodd" d="M3.23912 10.1971C3.55059 10.0209 3.91436 9.96063 4.266 10.027L4.82175 9.05484C5.30755 8.20424 5.6301 7.63979 5.8586 7.26844C5.32691 6.85708 4.92491 6.30132 4.70067 5.66758C4.47642 5.03384 4.4394 4.34893 4.59404 3.69471C4.74868 3.04049 5.08843 2.44464 5.57269 1.97837C6.05695 1.5121 6.66523 1.19513 7.32483 1.06536C7.98443 0.935582 8.66744 0.998486 9.29225 1.24655C9.91705 1.49461 10.4572 1.91735 10.8482 2.46422C11.2391 3.01109 11.4643 3.65898 11.4969 4.33044C11.5294 5.00189 11.3679 5.66852 11.0317 6.25064L10.1659 5.74964C10.4131 5.32093 10.5275 4.8285 10.4947 4.33472C10.4618 3.84094 10.2831 3.36803 9.9812 2.97589C9.67933 2.58375 9.26787 2.29002 8.79894 2.13191C8.33 1.97379 7.82469 1.95841 7.34701 2.0877C6.86932 2.217 6.44076 2.48515 6.11559 2.8582C5.79043 3.23126 5.5833 3.69242 5.52043 4.18328C5.45757 4.67415 5.5418 5.17263 5.76245 5.61558C5.98311 6.05854 6.33027 6.42604 6.75995 6.67154L7.1938 6.92004L6.945 7.35414L5.1323 10.5262C5.36601 10.7972 5.49626 11.1422 5.49997 11.5C5.50368 11.8578 5.38061 12.2054 5.15257 12.4812C4.92452 12.757 4.60623 12.9431 4.25407 13.0066C3.90191 13.0702 3.53863 13.007 3.22859 12.8283C2.91855 12.6497 2.68176 12.367 2.56018 12.0304C2.4386 11.6939 2.44007 11.3252 2.56434 10.9896C2.68862 10.654 2.92766 10.3733 3.23912 10.1971ZM12 7.9999C11.5602 7.99994 11.1243 8.08259 10.715 8.24355L9.1322 5.4738C9.36791 5.20158 9.49957 4.85466 9.50383 4.49459C9.50809 4.13452 9.38466 3.78458 9.15545 3.50686C8.92624 3.22914 8.60607 3.04158 8.25173 2.97747C7.89739 2.91336 7.53179 2.97683 7.2198 3.15663C6.90781 3.33643 6.66959 3.62094 6.54741 3.95967C6.42523 4.2984 6.42699 4.66946 6.55237 5.00702C6.67774 5.34458 6.91864 5.62682 7.23232 5.80366C7.546 5.9805 7.91218 6.04052 8.2659 5.97305L10.3253 9.5773L10.7596 9.3285C11.1886 9.08348 11.6806 8.97104 12.1734 9.00538C12.6663 9.03971 13.1379 9.21928 13.5288 9.52141C13.9197 9.82355 14.2123 10.2347 14.3697 10.703C14.5271 11.1713 14.5422 11.6757 14.4132 12.1526C14.2842 12.6295 14.0168 13.0575 13.6448 13.3825C13.2727 13.7076 12.8127 13.9151 12.3228 13.979C11.8329 14.0428 11.3351 13.9601 10.8922 13.7413C10.4493 13.5224 10.0811 13.1773 9.83415 12.7494L8.9685 13.2504C9.27572 13.7825 9.71759 14.2243 10.2497 14.5315C10.7818 14.8387 11.3854 15.0004 11.9998 15.0004C12.6142 15.0004 13.2178 14.8387 13.7498 14.5315C14.2819 14.2243 14.7238 13.7824 15.031 13.2503C15.3382 12.7182 15.5 12.1147 15.5 11.5003C15.5 10.8859 15.3383 10.2823 15.0311 9.75017C14.7239 9.21807 14.2821 8.77619 13.75 8.46896C13.218 8.16172 12.6144 7.99995 12 7.9999ZM12 13C12.2752 13.0011 12.5455 12.9264 12.7811 12.7842C13.0168 12.642 13.2088 12.4376 13.336 12.1936C13.4633 11.9495 13.521 11.6751 13.5027 11.4005C13.4844 11.1258 13.391 10.8615 13.2325 10.6364C13.074 10.4114 12.8567 10.2343 12.6043 10.1245C12.3519 10.0147 12.0741 9.97649 11.8014 10.014C11.5287 10.0516 11.2717 10.1634 11.0583 10.3373C10.8449 10.5112 10.6836 10.7405 10.5918 11H6.5V11.5C6.5 11.9945 6.35337 12.4778 6.07867 12.8889C5.80397 13.3 5.41352 13.6205 4.95671 13.8097C4.49989 13.9989 3.99722 14.0484 3.51227 13.952C3.02732 13.8555 2.58186 13.6174 2.23223 13.2678C1.8826 12.9181 1.6445 12.4727 1.54803 11.9877C1.45157 11.5028 1.50108 11.0001 1.6903 10.5433C1.87952 10.0865 2.19995 9.69603 2.61107 9.42133C3.0222 9.14662 3.50554 9 4 9V8C3.32912 8.00005 2.6724 8.1929 2.10802 8.5556C1.54365 8.9183 1.0954 9.43556 0.816656 10.0458C0.537914 10.656 0.440423 11.3335 0.535791 11.9975C0.631159 12.6616 0.915369 13.2843 1.35458 13.7914C1.79378 14.2985 2.36948 14.6687 3.01312 14.8579C3.65676 15.0471 4.34122 15.0474 4.98499 14.8586C5.62876 14.6699 6.20472 14.3001 6.64429 13.7933C7.08386 13.2865 7.36851 12.664 7.46435 12H10.5918C10.6943 12.2918 10.8848 12.5447 11.137 12.7238C11.3892 12.9029 11.6907 12.9994 12 13Z" fill="black"/>
</svg>
