<svg width="16" height="16" viewBox="0 0 16 16" fill="none" xmlns="http://www.w3.org/2000/svg">
<path fill-rule="evenodd" clip-rule="evenodd" d="M4 14.0002H8V15.0002H4C3.73502 14.9994 3.48111 14.8938 3.29374 14.7064C3.10637 14.5191 3.00077 14.2652 3 14.0002V2.00017C3.00077 1.73519 3.10637 1.48128 3.29374 1.29391C3.48111 1.10654 3.73502 1.00094 4 1.00017H9C9.06572 0.998364 9.13104 1.01084 9.19147 1.03674C9.2519 1.06263 9.30599 1.10134 9.35 1.15017L12.85 4.65017C12.8988 4.6942 12.9375 4.74828 12.9634 4.80871C12.9893 4.86913 13.0018 4.93446 13 5.00017V7.50017H12V6.00017H9C8.73502 5.99941 8.48111 5.8938 8.29374 5.70643C8.10637 5.51906 8.00077 5.26515 8 5.00017V2.00017H4V14.0002ZM11.8 5.00017L9 2.20017V5.00017H11.8ZM12 15C11.4067 15 10.8266 14.8241 10.3333 14.4944C9.83994 14.1648 9.45543 13.6962 9.22836 13.1481C9.0013 12.5999 8.94189 11.9967 9.05765 11.4147C9.1734 10.8328 9.45912 10.2982 9.87868 9.87868C10.2982 9.45912 10.8328 9.1734 11.4147 9.05765C11.9967 8.94189 12.5999 9.0013 13.1481 9.22836C13.6962 9.45543 14.1648 9.83994 14.4944 10.3333C14.8241 10.8266 15 11.4067 15 12C14.9991 12.7954 14.6827 13.5579 14.1203 14.1203C13.5579 14.6827 12.7954 14.9991 12 15ZM12 10C11.6044 10 11.2178 10.1173 10.8889 10.3371C10.56 10.5568 10.3036 10.8692 10.1522 11.2346C10.0009 11.6001 9.96126 12.0022 10.0384 12.3902C10.1156 12.7781 10.3061 13.1345 10.5858 13.4142C10.8655 13.6939 11.2219 13.8844 11.6098 13.9616C11.9978 14.0387 12.3999 13.9991 12.7654 13.8478C13.1308 13.6964 13.4432 13.44 13.6629 13.1111C13.8827 12.7822 14 12.3956 14 12C13.9994 11.4698 13.7885 10.9614 13.4136 10.5864C13.0386 10.2115 12.5303 10.0006 12 10ZM12 13C12.5523 13 13 12.5523 13 12C13 11.4477 12.5523 11 12 11C11.4477 11 11 11.4477 11 12C11 12.5523 11.4477 13 12 13Z" fill="black"/>
</svg>
