<svg width="16" height="16" viewBox="0 0 16 16" fill="none" xmlns="http://www.w3.org/2000/svg">
<path fill-rule="evenodd" clip-rule="evenodd" d="M5.54011 2.08052C4.7764 2.46229 4.11203 3.0166 3.59961 3.69957L4.39931 4.30012C4.81849 3.74117 5.36206 3.28749 5.98696 2.97502C6.61186 2.66254 7.30093 2.49985 7.9996 2.49983C8.69827 2.4998 9.38735 2.66245 10.0123 2.97488C10.6372 3.28731 11.1808 3.74095 11.6 4.29987L12.3999 3.69957C11.8875 3.0166 11.2231 2.46229 10.4594 2.08052C9.69569 1.69875 8.85358 1.5 7.99976 1.5C7.14594 1.5 6.30383 1.69875 5.54011 2.08052ZM5.3916 5.16624C5.71992 4.79932 6.12196 4.5058 6.57144 4.30483C7.02093 4.10387 7.50776 4 8.00013 4C8.49249 4 8.97932 4.10387 9.42881 4.30483C9.8783 4.5058 10.2803 4.79932 10.6087 5.16624L9.86365 5.83324C9.62916 5.57106 9.34197 5.36131 9.02087 5.21771C8.69977 5.0741 8.35198 4.99987 8.00023 4.99987C7.64848 4.99987 7.30068 5.0741 6.97958 5.21771C6.65848 5.36131 6.3713 5.57106 6.1368 5.83324L5.3916 5.16624ZM8.75 7.25C8.75 7.66421 8.41421 8 8 8C7.58579 8 7.25 7.66421 7.25 7.25C7.25 6.83579 7.58579 6.5 8 6.5C8.41421 6.5 8.75 6.83579 8.75 7.25ZM2.29289 14.7071C2.48043 14.8946 2.73478 15 3 15H13C13.2652 15 13.5196 14.8946 13.7071 14.7071C13.8946 14.5196 14 14.2652 14 14V11C14 10.7348 13.8946 10.4804 13.7071 10.2929C13.5196 10.1054 13.2652 10 13 10H3C2.73478 10 2.48043 10.1054 2.29289 10.2929C2.10536 10.4804 2 10.7348 2 11V14C2 14.2652 2.10536 14.5196 2.29289 14.7071ZM3 14V11H13V14H3ZM4.5 13C4.77614 13 5 12.7761 5 12.5C5 12.2239 4.77614 12 4.5 12C4.22386 12 4 12.2239 4 12.5C4 12.7761 4.22386 13 4.5 13Z" fill="black"/>
</svg>
