<svg width="16" height="16" viewBox="0 0 16 16" fill="none" xmlns="http://www.w3.org/2000/svg">
<path fill-rule="evenodd" clip-rule="evenodd" d="M3.75944 4.25933L3.05254 3.55253H3.05249C3.70169 2.90189 4.47285 2.38569 5.32181 2.03349C6.17077 1.68129 7.08087 1.5 7.99999 1.5C8.91911 1.5 9.82921 1.68129 10.6782 2.03349C11.5271 2.38569 12.2983 2.90189 12.9475 3.55253L12.2406 4.25933C11.6842 3.70164 11.0232 3.25919 10.2956 2.9573C9.5679 2.65542 8.78784 2.50003 8.00004 2.50003C7.21224 2.50003 6.43217 2.65542 5.70451 2.9573C4.97685 3.25919 4.31587 3.70164 3.75944 4.25933ZM7.99998 4C7.40907 3.99962 6.82391 4.11601 6.27811 4.34246C5.73232 4.56892 5.23665 4.901 4.81958 5.3196L5.52623 6.02635C5.85082 5.70101 6.23639 5.44289 6.66087 5.26677C7.08536 5.09066 7.54041 5 7.99998 5C8.45955 5 8.9146 5.09066 9.33909 5.26677C9.76357 5.44289 10.1491 5.70101 10.4737 6.02635L11.1805 5.3196C10.7634 4.901 10.2677 4.56893 9.72189 4.34248C9.17608 4.11602 8.5909 3.99963 7.99998 4ZM10 10H7V8.5C7 8.23478 7.10536 7.98043 7.29289 7.79289C7.48043 7.60536 7.73478 7.5 8 7.5C8.26522 7.5 8.51957 7.60536 8.70711 7.79289C8.89464 7.98043 9 8.23478 9 8.5H10C10 7.96957 9.78929 7.46086 9.41421 7.08579C9.03914 6.71071 8.53043 6.5 8 6.5C7.46957 6.5 6.96086 6.71071 6.58579 7.08579C6.21071 7.46086 6 7.96957 6 8.5V10C5.73488 10.0003 5.48072 10.1058 5.29326 10.2933C5.10579 10.4807 5.00033 10.7349 5 11V14C5.00033 14.2651 5.10579 14.5193 5.29326 14.7067C5.48072 14.8942 5.73488 14.9997 6 15H10C10.2651 14.9997 10.5193 14.8942 10.7067 14.7067C10.8942 14.5193 10.9997 14.2651 11 14V11C10.9997 10.7349 10.8942 10.4807 10.7067 10.2933C10.5193 10.1058 10.2651 10.0003 10 10ZM6 14V11H10V14H6Z" fill="black"/>
</svg>
