<svg width="16" height="16" viewBox="0 0 16 16" fill="none" xmlns="http://www.w3.org/2000/svg">
<path fill-rule="evenodd" clip-rule="evenodd" d="M8 2.5C10.6199 2.5 13.1345 3.53121 15 5.37064V5.37164L14.2927 6.07904C12.6143 4.42559 10.3525 3.49918 7.9964 3.50012C5.64033 3.50105 3.37928 4.42926 1.70215 6.08404L1 5.38189V5.37064C2.86554 3.53121 5.38013 2.5 8 2.5ZM3.1145 7.49629L3.8213 8.20304C4.93727 7.11207 6.43566 6.50081 7.99631 6.49988C9.55695 6.49894 11.0561 7.10841 12.1733 8.19804L12.88 7.49139C11.5754 6.21402 9.82198 5.49907 7.99615 5.5C6.17033 5.50094 4.41764 6.21769 3.11435 7.49639L3.1145 7.49629ZM5.23505 9.61676L5.235 9.6167V9.6168L5.23505 9.61676ZM5.23505 9.61676L5.9418 10.3233C6.49588 9.79558 7.23146 9.50087 7.9966 9.50001C8.76174 9.49914 9.49798 9.79218 10.0533 10.3186L10.76 9.6118C10.0174 8.89759 9.02682 8.49907 7.99649 8.5C6.96619 8.50093 5.97636 8.90123 5.23505 9.61676ZM9 12.5C9 13.0523 8.55228 13.5 8 13.5C7.44772 13.5 7 13.0523 7 12.5C7 11.9477 7.44772 11.5 8 11.5C8.55228 11.5 9 11.9477 9 12.5Z" fill="black"/>
</svg>
