<svg width="16" height="16" viewBox="0 0 16 16" fill="none" xmlns="http://www.w3.org/2000/svg">
<path fill-rule="evenodd" clip-rule="evenodd" d="M14.2929 1L15 1.70705L12.9052 3.80175C13.6691 4.23077 14.3734 4.75823 15 5.3706V5.3716L14.2927 6.07885C13.6628 5.46485 12.9461 4.94685 12.1654 4.5415L10.667 6.04C11.4904 6.37843 12.2415 6.87108 12.88 7.49145L12.1736 8.19825C11.5263 7.57187 10.7462 7.09938 9.89125 6.8159L8.1975 8.50975C9.15657 8.55625 10.0666 8.94761 10.76 9.6118L10.0531 10.3186C9.66031 9.94456 9.17253 9.68531 8.64275 9.56902C8.11296 9.45272 7.56144 9.48382 7.0481 9.65895L1.70705 15L1 14.2929L14.2929 1ZM9 12.5C9 13.0523 8.55228 13.5 8 13.5C7.44772 13.5 7 13.0523 7 12.5C7 11.9477 7.44772 11.5 8 11.5C8.55228 11.5 9 11.9477 9 12.5ZM7.34 6.5388L8.36075 5.51805C8.323 5.51606 8.28541 5.51354 8.24782 5.51101L8.24775 5.51101C8.16564 5.5055 8.08357 5.5 8 5.5C6.17283 5.4996 4.41851 6.21646 3.1145 7.49635L3.8213 8.20315C4.77599 7.2718 6.01442 6.68602 7.34 6.5388ZM10.1162 3.7627C9.42382 3.59097 8.71336 3.50277 8 3.5C5.64252 3.49923 3.37973 4.42766 1.70215 6.084L1 5.38185V5.3706C2.28289 4.10639 3.88409 3.21304 5.6337 2.78536C7.38331 2.35767 9.21606 2.41159 10.9375 2.9414L10.1162 3.7627Z" fill="black"/>
</svg>
