<svg width="16" height="16" viewBox="0 0 16 16" fill="none" xmlns="http://www.w3.org/2000/svg">
<path fill-rule="evenodd" clip-rule="evenodd" d="M12.1465 3.1465L14.2929 1L15 1.70705L12.8535 3.8535C12.7592 3.94458 12.6329 3.99498 12.5018 3.99384C12.3707 3.9927 12.2453 3.94011 12.1526 3.84741C12.0598 3.75471 12.0073 3.6293 12.0061 3.4982C12.005 3.3671 12.0554 3.2408 12.1465 3.1465ZM13 6.5C12.0721 6.49897 11.1824 6.12989 10.5263 5.47373C9.87011 4.81758 9.50103 3.92794 9.5 3H10.5C10.5008 3.66281 10.7644 4.29826 11.2331 4.76693C11.7017 5.23561 12.3372 5.49925 13 5.5V6.5ZM8 13H9C8.99819 11.4093 8.36546 9.88419 7.24064 8.75936C6.11581 7.63454 4.59074 7.00181 3 7V8C4.32562 8.0015 5.59652 8.52876 6.53388 9.46612C7.47124 10.4035 7.9985 11.6744 8 13ZM5.5 13H6.5C6.49897 12.0721 6.12989 11.1824 5.47373 10.5263C4.81758 9.87011 3.92794 9.50103 3 9.5V10.5C3.66281 10.5008 4.29826 10.7644 4.76693 11.2331C5.23561 11.7017 5.49925 12.3372 5.5 13ZM8.75936 7.24064C9.88419 8.36546 11.4093 8.99819 13 9V8C11.6744 7.9985 10.4035 7.47124 9.46612 6.53388C8.52876 5.59652 8.0015 4.32562 8 3H7C7.00181 4.59074 7.63454 6.11581 8.75936 7.24064ZM3.8535 12.1465C3.80709 12.1001 3.75199 12.0632 3.69133 12.0381C3.63068 12.0129 3.56566 12 3.5 12C3.43434 12 3.36932 12.0129 3.30867 12.0381C3.24801 12.0632 3.19291 12.1001 3.1465 12.1465L1 14.293L1.70715 15L3.8535 12.8535C3.89995 12.8071 3.9368 12.752 3.96194 12.6913C3.98708 12.6307 4.00002 12.5657 4.00002 12.5C4.00002 12.4344 3.98708 12.3693 3.96194 12.3087C3.9368 12.248 3.89995 12.1929 3.8535 12.1465Z" fill="black"/>
</svg>
