<svg width="16" height="16" viewBox="0 0 16 16" fill="none" xmlns="http://www.w3.org/2000/svg">
<path fill-rule="evenodd" clip-rule="evenodd" d="M1.5 7.5H1V2H0V14H1V8.5H1.5C1.63261 8.5 1.75979 8.44732 1.85355 8.35355C1.94732 8.25979 2 8.13261 2 8C2 7.86739 1.94732 7.74021 1.85355 7.64645C1.75979 7.55268 1.63261 7.5 1.5 7.5ZM4.53564 11.5357L5.24269 12.2427C6.36788 11.1175 6.99999 9.59133 6.99999 8.00002C6.99999 6.40872 6.36788 4.88259 5.24269 3.75732L4.53564 4.46437C5.47326 5.40214 6 6.67393 6 8.00002C6 9.32612 5.47326 10.5979 4.53564 11.5357ZM2.76758 9.7681L3.47458 10.4751C3.79962 10.1501 4.05746 9.76428 4.23337 9.33962C4.40929 8.91496 4.49983 8.4598 4.49983 8.00015C4.49983 7.54049 4.40929 7.08533 4.23337 6.66067C4.05746 6.23601 3.79962 5.85016 3.47458 5.52515L2.76758 6.23235C2.99976 6.4645 3.18393 6.74011 3.30959 7.04344C3.43524 7.34678 3.49992 7.67189 3.49992 8.00022C3.49992 8.32855 3.43524 8.65367 3.30959 8.957C3.18393 9.26033 2.99976 9.53595 2.76758 9.7681ZM12.5255 10.4751C12.2005 10.1501 11.9426 9.76428 11.7667 9.33962C11.5908 8.91496 11.5002 8.4598 11.5002 8.00015C11.5002 7.54049 11.5908 7.08533 11.7667 6.66067C11.9426 6.23601 12.2005 5.85016 12.5255 5.52515L13.2325 6.23245C13.0003 6.4646 12.8161 6.74021 12.6905 7.04354C12.5648 7.34688 12.5002 7.67199 12.5002 8.00032C12.5002 8.32865 12.5648 8.65377 12.6905 8.9571C12.8161 9.26043 13.0003 9.53605 13.2325 9.7682L12.5255 10.4751ZM9 8.00002C9 9.59133 9.63211 11.1175 10.7573 12.2427L11.4643 11.5357C10.5267 10.5979 9.99999 9.32612 9.99999 8.00002C9.99999 6.67393 10.5267 5.40214 11.4643 4.46437L10.7573 3.75732C9.63211 4.88259 9 6.40872 9 8.00002ZM15 7.5V2H16V14H15V8.5H14.5C14.3674 8.5 14.2402 8.44732 14.1464 8.35355C14.0527 8.25979 14 8.13261 14 8C14 7.86739 14.0527 7.74021 14.1464 7.64645C14.2402 7.55268 14.3674 7.5 14.5 7.5H15Z" fill="black"/>
</svg>
