<svg width="16" height="16" viewBox="0 0 16 16" fill="none" xmlns="http://www.w3.org/2000/svg">
<path fill-rule="evenodd" clip-rule="evenodd" d="M14 1H2V2H14V1ZM7.5 3H8.5V4.5H7.5V3ZM12.5 8.5H14V9.5H12.5V8.5ZM8.5 15V13.5H7.5V15H8.5ZM2 8.5H3.5V9.5H2V8.5ZM4.09402 4.38615L3.38692 5.09326L4.44758 6.15392L5.15468 5.44682L4.09402 4.38615ZM10.8469 5.44873L11.9076 4.38807L12.6147 5.09518L11.554 6.15584L10.8469 5.44873ZM11.552 11.8364L10.8449 12.5435L11.9055 13.6041L12.6126 12.897L11.552 11.8364ZM3.3884 12.9053L4.44906 11.8446L5.15616 12.5517L4.0955 13.6124L3.3884 12.9053ZM9.66671 11.4944C9.17336 11.8241 8.59334 12 8 12C7.20435 12 6.44129 11.6839 5.87868 11.1213C5.31607 10.5587 5 9.79565 5 9C5 8.40666 5.17595 7.82664 5.50559 7.33329C5.83524 6.83994 6.30377 6.45543 6.85195 6.22836C7.40013 6.0013 8.00333 5.94189 8.58527 6.05765C9.16721 6.1734 9.70176 6.45912 10.1213 6.87868C10.5409 7.29824 10.8266 7.83279 10.9424 8.41473C11.0581 8.99667 10.9987 9.59987 10.7716 10.1481C10.5446 10.6962 10.1601 11.1648 9.66671 11.4944ZM6.58579 10.4142C6.96086 10.7893 7.46957 11 8 11V7C7.46957 7 6.96086 7.21071 6.58579 7.58579C6.21071 7.96086 6 8.46957 6 9C6 9.53043 6.21071 10.0391 6.58579 10.4142Z" fill="black"/>
</svg>
