<svg width="16" height="16" viewBox="0 0 16 16" fill="none" xmlns="http://www.w3.org/2000/svg">
<path fill-rule="evenodd" clip-rule="evenodd" d="M1.2932 14.7068C1.48068 14.8943 1.73487 14.9997 2 15H14C14.2651 14.9997 14.5193 14.8943 14.7068 14.7068C14.8943 14.5193 14.9997 14.2651 15 14V2C14.9997 1.73487 14.8943 1.48068 14.7068 1.2932C14.5193 1.10572 14.2651 1.00028 14 1H2C1.73487 1.00028 1.48068 1.10572 1.2932 1.2932C1.10572 1.48068 1.00028 1.73487 1 2V14C1.00028 14.2651 1.10572 14.5193 1.2932 14.7068ZM2 14V2H14V14H2ZM7.5 3H8.5V4H7.5V3ZM12 7.5H13V8.5H12V7.5ZM7.5 12V13H8.5V12H7.5ZM3 7.5H4V8.5H3V7.5ZM4.79289 4.08586L4.08578 4.79297L4.79289 5.50008L5.5 4.79297L4.79289 4.08586ZM10.5 4.79297L11.2071 4.08586L11.9142 4.79297L11.2071 5.50008L10.5 4.79297ZM11.2071 10.4999L10.5 11.207L11.2071 11.9141L11.9142 11.207L11.2071 10.4999ZM4.0858 11.207L4.79291 10.4999L5.50001 11.207L4.79291 11.9141L4.0858 11.207ZM8 11C8.59334 11 9.17336 10.8241 9.66671 10.4944C10.1601 10.1648 10.5446 9.69623 10.7716 9.14805C10.9987 8.59987 11.0581 7.99667 10.9424 7.41473C10.8266 6.83279 10.5409 6.29824 10.1213 5.87868C9.70176 5.45912 9.16721 5.1734 8.58527 5.05765C8.00333 4.94189 7.40013 5.0013 6.85195 5.22836C6.30377 5.45543 5.83524 5.83994 5.50559 6.33329C5.17595 6.82664 5 7.40666 5 8C5 8.79565 5.31607 9.55871 5.87868 10.1213C6.44129 10.6839 7.20435 11 8 11ZM8 10C7.46957 10 6.96086 9.78929 6.58579 9.41421C6.21071 9.03914 6 8.53043 6 8C6 7.46957 6.21071 6.96086 6.58579 6.58579C6.96086 6.21071 7.46957 6 8 6V10Z" fill="black"/>
</svg>
