<svg width="16" height="16" viewBox="0 0 16 16" fill="none" xmlns="http://www.w3.org/2000/svg">
<path fill-rule="evenodd" clip-rule="evenodd" d="M14 0H2V1H14V0ZM8.5 2H7.5V3.5H8.5V2ZM14 7.5H12.5V8.5H14V7.5ZM7.5 12.5H8.5V14H7.5V12.5ZM3.5 7.5H2V8.5H3.5V7.5ZM3.38834 4.09473L4.09545 3.38762L5.15611 4.44828L4.449 5.15539L3.38834 4.09473ZM11.904 3.38953L10.8434 4.4502L11.5505 5.1573L12.6111 4.09664L11.904 3.38953ZM10.8428 11.5483L11.5499 10.8412L12.6105 11.9019L11.9034 12.609L10.8428 11.5483ZM4.45048 10.8392L3.38982 11.8999L4.09693 12.607L5.15759 11.5463L4.45048 10.8392ZM2 15H14V16H2V15ZM6.33329 5.50559C6.82664 5.17595 7.40666 5 8 5C8.79565 5 9.55871 5.31607 10.1213 5.87868C10.6839 6.44129 11 7.20435 11 8C11 8.59334 10.8241 9.17336 10.4944 9.66671C10.1648 10.1601 9.69623 10.5446 9.14805 10.7716C8.59987 10.9987 7.99667 11.0581 7.41473 10.9424C6.83279 10.8266 6.29824 10.5409 5.87868 10.1213C5.45912 9.70176 5.1734 9.16721 5.05765 8.58527C4.94189 8.00333 5.0013 7.40013 5.22836 6.85195C5.45543 6.30377 5.83994 5.83524 6.33329 5.50559ZM6.58579 6.58579C6.21071 6.96086 6 7.46957 6 8C6 8.53043 6.21071 9.03914 6.58579 9.41421C6.96086 9.78929 7.46957 10 8 10V6C7.46957 6 6.96086 6.21071 6.58579 6.58579Z" fill="black"/>
</svg>
