<svg width="16" height="16" viewBox="0 0 16 16" fill="none" xmlns="http://www.w3.org/2000/svg">
<path fill-rule="evenodd" clip-rule="evenodd" d="M3 6H10.5C10.9945 6 11.4778 5.85338 11.8889 5.57867C12.3 5.30397 12.6205 4.91352 12.8097 4.45671C12.9989 3.99989 13.0484 3.49723 12.952 3.01228C12.8555 2.52732 12.6174 2.08187 12.2678 1.73223C11.9181 1.3826 11.4727 1.1445 10.9877 1.04804C10.5028 0.951575 10.0001 1.00108 9.54329 1.1903C9.08648 1.37952 8.69603 1.69995 8.42133 2.11108C8.14662 2.5222 8 3.00555 8 3.5H9C9 3.20333 9.08797 2.91332 9.2528 2.66665C9.41762 2.41997 9.65189 2.22771 9.92597 2.11418C10.2001 2.00065 10.5017 1.97095 10.7926 2.02882C11.0836 2.0867 11.3509 2.22956 11.5607 2.43934C11.7704 2.64912 11.9133 2.91639 11.9712 3.20737C12.0291 3.49834 11.9994 3.79994 11.8858 4.07403C11.7723 4.34812 11.58 4.58238 11.3334 4.74721C11.0867 4.91203 10.7967 5 10.5 5H3V6ZM12.5 12.5C11.8372 12.4992 11.2017 12.2356 10.7331 11.7669C10.2644 11.2983 10.0008 10.6628 10 10H11C11 10.2967 11.088 10.5867 11.2528 10.8334C11.4176 11.08 11.6519 11.2723 11.926 11.3858C12.2001 11.4994 12.5017 11.5291 12.7926 11.4712C13.0836 11.4133 13.3509 11.2704 13.5607 11.0607C13.7704 10.8509 13.9133 10.5836 13.9712 10.2926C14.0291 10.0017 13.9994 9.70006 13.8858 9.42597C13.7723 9.15189 13.58 8.91762 13.3334 8.7528C13.0867 8.58797 12.7967 8.5 12.5 8.5H1V7.5H12.5C13.163 7.5 13.7989 7.76339 14.2678 8.23223C14.7366 8.70107 15 9.33696 15 10C15 10.663 14.7366 11.2989 14.2678 11.7678C13.7989 12.2366 13.163 12.5 12.5 12.5ZM6.5 15C5.83719 14.9992 5.20174 14.7356 4.73307 14.2669C4.26439 13.7983 4.00075 13.1628 4 12.5H5C5 12.7967 5.08797 13.0867 5.2528 13.3334C5.41762 13.58 5.65189 13.7723 5.92597 13.8858C6.20006 13.9994 6.50166 14.0291 6.79264 13.9712C7.08361 13.9133 7.35088 13.7704 7.56066 13.5607C7.77044 13.3509 7.9133 13.0836 7.97118 12.7926C8.02906 12.5017 7.99935 12.2001 7.88582 11.926C7.77229 11.6519 7.58003 11.4176 7.33336 11.2528C7.08668 11.088 6.79667 11 6.5 11H2V10H6.5C7.16304 10 7.79893 10.2634 8.26777 10.7322C8.73661 11.2011 9 11.837 9 12.5C9 13.163 8.73661 13.7989 8.26777 14.2678C7.79893 14.7366 7.16304 15 6.5 15Z" fill="black"/>
</svg>
