<svg width="16" height="16" viewBox="0 0 16 16" fill="none" xmlns="http://www.w3.org/2000/svg">
<path fill-rule="evenodd" clip-rule="evenodd" d="M4 7.5H10.5C10.9945 7.5 11.4778 7.35338 11.8889 7.07867C12.3 6.80397 12.6205 6.41352 12.8097 5.95671C12.9989 5.49989 13.0484 4.99723 12.952 4.51228C12.8555 4.02732 12.6174 3.58187 12.2678 3.23223C11.9181 2.8826 11.4727 2.6445 10.9877 2.54804C10.5028 2.45157 10.0001 2.50108 9.54329 2.6903C9.08648 2.87952 8.69603 3.19995 8.42133 3.61108C8.14662 4.0222 8 4.50555 8 5H9C9 4.70333 9.08797 4.41332 9.2528 4.16665C9.41762 3.91997 9.65189 3.72771 9.92597 3.61418C10.2001 3.50065 10.5017 3.47095 10.7926 3.52882C11.0836 3.5867 11.3509 3.72956 11.5607 3.93934C11.7704 4.14912 11.9133 4.41639 11.9712 4.70737C12.0291 4.99834 11.9994 5.29994 11.8858 5.57403C11.7723 5.84812 11.58 6.08238 11.3334 6.24721C11.0867 6.41203 10.7967 6.5 10.5 6.5H4V7.5ZM9.73307 13.2669C10.2017 13.7356 10.8372 13.9992 11.5 14C12.163 14 12.7989 13.7366 13.2678 13.2678C13.7366 12.7989 14 12.163 14 11.5C14 10.837 13.7366 10.2011 13.2678 9.73223C12.7989 9.26339 12.163 9 11.5 9H2V10H11.5C11.7967 10 12.0867 10.088 12.3334 10.2528C12.58 10.4176 12.7723 10.6519 12.8858 10.926C12.9994 11.2001 13.0291 11.5017 12.9712 11.7926C12.9133 12.0836 12.7704 12.3509 12.5607 12.5607C12.3509 12.7704 12.0836 12.9133 11.7926 12.9712C11.5017 13.0291 11.2001 12.9994 10.926 12.8858C10.6519 12.7723 10.4176 12.58 10.2528 12.3334C10.088 12.0867 10 11.7967 10 11.5H9C9.00075 12.1628 9.26439 12.7983 9.73307 13.2669Z" fill="black"/>
</svg>
