<svg width="16" height="16" viewBox="0 0 16 16" fill="none" xmlns="http://www.w3.org/2000/svg">
<path fill-rule="evenodd" clip-rule="evenodd" d="M7.5 1H8.5V2.5H7.5V1ZM12.5 6.5H14V7.5H12.5V6.5ZM8.5 13V11.5H7.5V13H8.5ZM2 6.5H3.5V7.5H2V6.5ZM4.0948 2.38713L3.3877 3.09424L4.44836 4.1549L5.15546 3.44779L4.0948 2.38713ZM10.8477 3.44971L11.9084 2.38905L12.6155 3.09615L11.5548 4.15681L10.8477 3.44971ZM11.5528 9.83684L10.8457 10.5439L11.9063 11.6046L12.6134 10.8975L11.5528 9.83684ZM3.38919 10.9062L4.44985 9.84559L5.15696 10.5527L4.0963 11.6134L3.38919 10.9062ZM14 15V14H2V15H14ZM9.66671 9.49441C9.17336 9.82405 8.59334 10 8 10C7.20435 10 6.44129 9.68393 5.87868 9.12132C5.31607 8.55871 5 7.79565 5 7C5 6.40666 5.17595 5.82664 5.50559 5.33329C5.83524 4.83994 6.30377 4.45543 6.85195 4.22836C7.40013 4.0013 8.00333 3.94189 8.58527 4.05765C9.16721 4.1734 9.70176 4.45912 10.1213 4.87868C10.5409 5.29824 10.8266 5.83279 10.9424 6.41473C11.0581 6.99667 10.9987 7.59987 10.7716 8.14805C10.5446 8.69623 10.1601 9.16477 9.66671 9.49441ZM6.58579 8.41421C6.96086 8.78929 7.46957 9 8 9V5C7.46957 5 6.96086 5.21071 6.58579 5.58579C6.21071 5.96086 6 6.46957 6 7C6 7.53043 6.21071 8.03914 6.58579 8.41421Z" fill="black"/>
</svg>
