<svg width="16" height="16" viewBox="0 0 16 16" fill="none" xmlns="http://www.w3.org/2000/svg">
<path fill-rule="evenodd" clip-rule="evenodd" d="M7.5 1H8.5V2.5H7.5V1ZM13.5 7.5H15V8.5H13.5V7.5ZM8.5 13.5H7.5V15H8.5V13.5ZM1 7.5H2.5V8.5H1V7.5ZM3.43647 2.73017L2.72816 3.43848L3.79003 4.50034L4.49834 3.79203L3.43647 2.73017ZM11.4998 3.79053L12.5605 2.72987L13.2676 3.43697L12.207 4.49763L11.4998 3.79053ZM12.2081 11.5004L11.5004 12.208L12.5616 13.2693L13.2693 12.5616L12.2081 11.5004ZM3.79539 11.5L2.73489 12.563L3.44189 13.27L4.49989 12.2095L3.79539 11.5ZM8.5 6.5H7.5V7.5H8.5V8.5H7.5V9.5H8.5V10.5H7.5V11.46C6.66788 11.3395 5.90689 10.9236 5.35608 10.2883C4.80527 9.65305 4.5014 8.84081 4.5 8C4.5014 7.15919 4.80527 6.34695 5.35608 5.71169C5.90689 5.07642 6.66788 4.66053 7.5 4.54V5.5H8.5V6.5ZM9.5 6.5H8.5V7.5H9.5V8.5H8.5V9.5H9.5V10.5H8.5L8.5 11.46C8.84672 11.4103 9.18389 11.3083 9.5 11.1574V10.5H10.445C10.4635 10.4819 10.4818 10.4636 10.5 10.445V9.5H11.1574C11.3082 9.18388 11.4102 8.84671 11.46 8.5H10.5V7.5H11.4601C11.4103 7.15329 11.3083 6.81612 11.1575 6.5H10.5V5.555C10.482 5.5366 10.4637 5.5183 10.445 5.5H9.5V4.8425C9.18389 4.69166 8.84672 4.58966 8.5 4.54L8.5 5.5H9.5V6.5ZM9.5 9.5H10.5V8.5H9.5V9.5ZM9.5 6.5V7.5H10.5V6.5H9.5ZM5.49994 4.25839C6.23996 3.76392 7.10999 3.5 8 3.5C9.19307 3.50132 10.3369 3.97585 11.1805 4.81948C12.0241 5.66311 12.4987 6.80693 12.5 8C12.5 8.89002 12.2361 9.76005 11.7416 10.5001C11.2471 11.2401 10.5443 11.8169 9.72208 12.1575C8.89981 12.4981 7.99501 12.5872 7.1221 12.4135C6.24918 12.2399 5.44736 11.8113 4.81802 11.182C4.18868 10.5526 3.7601 9.75082 3.58647 8.87791C3.41283 8.00499 3.50195 7.10019 3.84254 6.27792C4.18314 5.45566 4.75991 4.75285 5.49994 4.25839Z" fill="black"/>
</svg>
