<svg width="16" height="16" viewBox="0 0 16 16" fill="none" xmlns="http://www.w3.org/2000/svg">
<path fill-rule="evenodd" clip-rule="evenodd" d="M10.8328 2.00414C11.6339 2.65376 12.1873 3.55901 12.4004 4.56815C12.981 4.68577 13.5183 4.96014 13.954 5.36148C14.3897 5.76282 14.7072 6.27581 14.872 6.8448C15.0369 7.41379 15.0427 8.01706 14.889 8.58915C14.7353 9.16124 14.4278 9.68031 14 10.0901V13.0001L13.5 14.0001L13 13.0001V10.7493C12.6815 10.8816 12.3439 10.962 12 10.9874V12.0001L11.5 13.0001L11 12.0001V10.5001C11.0004 10.3716 11.0505 10.2482 11.1398 10.1558C11.229 10.0634 11.3506 10.009 11.479 10.0042V10.0001H11.75C12.3311 10.0003 12.8898 9.77555 13.3088 9.37294C13.7279 8.97034 13.9748 8.42114 13.9979 7.84047C14.0209 7.2598 13.8183 6.69276 13.4324 6.25822C13.0466 5.82367 12.5075 5.55537 11.9282 5.50955L11.5205 5.4776L11.4712 5.0716C11.3674 4.22414 10.9571 3.44395 10.3177 2.87812C9.67834 2.31229 8.85405 1.99993 8.00025 1.99993C7.14645 1.99993 6.32216 2.31229 5.68278 2.87812C5.0434 3.44395 4.63312 4.22414 4.5293 5.0716L4.47975 5.4776L4.072 5.50955C3.4927 5.55537 2.95363 5.82366 2.56779 6.25818C2.18195 6.6927 1.97929 7.25972 2.00231 7.84037C2.02532 8.42102 2.27222 8.97022 2.69125 9.37284C3.11028 9.77546 3.66889 10.0002 4.25 10.0001H4.47925V10.0081C4.56324 10.0017 4.64747 10.0171 4.72375 10.0528C4.78248 10.0822 4.83485 10.1228 4.87787 10.1724C4.92088 10.2221 4.95371 10.2797 4.97446 10.342C4.99521 10.4043 5.00349 10.47 4.99882 10.5355C4.99416 10.601 4.97663 10.665 4.94725 10.7237L3.94725 12.7237C3.91851 12.7835 3.87816 12.8369 3.82857 12.8809C3.77897 12.9249 3.72112 12.9587 3.65837 12.9801C3.59562 13.0015 3.52923 13.0103 3.46307 13.0058C3.39691 13.0014 3.33229 12.9838 3.27299 12.9542C3.21368 12.9245 3.16087 12.8833 3.11762 12.8331C3.07437 12.7828 3.04156 12.7244 3.02109 12.6613C3.00061 12.5983 2.99289 12.5317 2.99837 12.4657C3.00385 12.3996 3.02242 12.3352 3.053 12.2764L3.7147 10.9524C3.06925 10.8444 2.47153 10.5438 2 10.0901V11.0001L1.5 12.0001L1 11.0001V7.75005C1.00356 7.00214 1.2637 6.27811 1.73696 5.69897C2.21021 5.11982 2.86789 4.72064 3.6001 4.56815C3.81316 3.55901 4.36662 2.65376 5.16771 2.00414C5.96881 1.35452 6.96886 1 8.00025 1C9.03164 1 10.0317 1.35452 10.8328 2.00414ZM6.5 8H7.5V9H6.5V8ZM8.5 9H7.5V10H6.5V11H7.5V10H8.5V11H9.5V10H8.5V9ZM8.5 9V8H9.5V9H8.5ZM7.5 13H8.5V14H7.5V13ZM9.5 14H8.5V15H7.5V16H8.5V15H9.5V16H10.5V15H9.5V14ZM9.5 14V13H10.5V14H9.5ZM5 14.9998C4.91476 14.9998 4.83094 14.978 4.75649 14.9365C4.68204 14.895 4.61943 14.8352 4.57463 14.7626C4.52982 14.6901 4.50429 14.6074 4.50047 14.5222C4.49665 14.4371 4.51467 14.3523 4.5528 14.2761L5.5528 12.2759C5.61212 12.1573 5.71613 12.0671 5.84195 12.0252C5.90424 12.0044 5.97002 11.9961 6.03552 12.0008C6.10101 12.0054 6.16495 12.023 6.22368 12.0523C6.2824 12.0817 6.33477 12.1224 6.37779 12.172C6.4208 12.2216 6.45363 12.2792 6.47438 12.3415C6.49514 12.4038 6.50342 12.4695 6.49876 12.535C6.49409 12.6005 6.47658 12.6645 6.4472 12.7232L5.4472 14.7232C5.40579 14.8064 5.34199 14.8763 5.26299 14.9252C5.18398 14.974 5.0929 14.9999 5 14.9998Z" fill="black"/>
</svg>
