<svg width="16" height="16" viewBox="0 0 16 16" fill="none" xmlns="http://www.w3.org/2000/svg">
<path fill-rule="evenodd" clip-rule="evenodd" d="M11.8142 1.18528L14.9557 6.96773C14.9856 7.02253 15.0007 7.08416 14.9996 7.14655C14.9984 7.20895 14.9811 7.26998 14.9492 7.32366C14.9174 7.37733 14.8721 7.42181 14.8179 7.45272C14.7637 7.48363 14.7024 7.49992 14.64 7.49998H8.35998C8.29757 7.49992 8.23625 7.48363 8.18204 7.45272C8.12782 7.42181 8.08258 7.37733 8.05073 7.32366C8.01889 7.26998 8.00155 7.20895 8.00041 7.14655C7.99927 7.08416 8.01437 7.02253 8.04423 6.96773L11.1858 1.18528C11.2168 1.12915 11.2623 1.08235 11.3176 1.04977C11.3729 1.01719 11.4358 1 11.5 1C11.5641 1 11.6271 1.01719 11.6824 1.04977C11.7376 1.08235 11.7831 1.12915 11.8142 1.18528ZM11.875 2.99998H11.125V4.99998H11.875V2.99998ZM11.2222 6.41572C11.3044 6.47066 11.4011 6.49998 11.5 6.49998C11.6326 6.49998 11.7598 6.4473 11.8535 6.35354C11.9473 6.25977 12 6.13259 12 5.99998C12 5.90109 11.9707 5.80442 11.9157 5.7222C11.8608 5.63997 11.7827 5.57589 11.6913 5.53804C11.6 5.5002 11.4994 5.4903 11.4024 5.50959C11.3054 5.52888 11.2164 5.5765 11.1464 5.64643C11.0765 5.71636 11.0289 5.80545 11.0096 5.90244C10.9903 5.99943 11.0002 6.09996 11.038 6.19132C11.0759 6.28269 11.14 6.36078 11.2222 6.41572ZM9.58348 9.94549L10.842 9.52549L11.158 10.4745L9.99998 10.8605V12H8.99998V10.7575L6.49998 8.97149V12.3155L7.77748 13.1675L7.22248 13.9995L5.99998 13.184L4.77748 13.9995L4.22248 13.1675L5.49998 12.3155V8.97199L2.99998 10.7575V12H1.99998V10.8605L0.84198 10.4745L1.15798 9.52549L2.41648 9.94549L5.13998 8.00049L2.41648 6.05499L1.15798 6.47449L0.84198 5.52549L1.99998 5.13949V3.99999H2.99998V5.24299L5.49998 7.02849V3.68449L4.22248 2.83249L4.77748 2.00049L5.99998 2.81549L7.22248 2.00049L7.77748 2.83249L6.49998 3.68449V7.74299L9.58348 9.94549Z" fill="black"/>
</svg>
