<svg width="16" height="16" viewBox="0 0 16 16" fill="none" xmlns="http://www.w3.org/2000/svg">
<path fill-rule="evenodd" clip-rule="evenodd" d="M10.5 5.5H13.5V6.5H2.085L2.93 12H7.5V13H2.94C2.69884 13.0027 2.46481 12.9182 2.28105 12.762C2.09728 12.6058 1.97616 12.3885 1.94 12.15L1 6.075C0.989124 6.00334 0.993957 5.93017 1.01417 5.86056C1.03437 5.79096 1.06948 5.72657 1.11704 5.67188C1.1646 5.61718 1.22348 5.57348 1.28961 5.5438C1.35573 5.51413 1.42752 5.49918 1.5 5.5H4.5V3.5C4.5 3.10218 4.65804 2.72064 4.93934 2.43934C5.22064 2.15804 5.60218 2 6 2H9C9.39783 2 9.77936 2.15804 10.0607 2.43934C10.342 2.72064 10.5 3.10218 10.5 3.5V5.5ZM5.64645 3.14645C5.55268 3.24021 5.5 3.36739 5.5 3.5V5.5H9.5V3.5C9.5 3.36739 9.44732 3.24021 9.35355 3.14645C9.25979 3.05268 9.13261 3 9 3H6C5.86739 3 5.74022 3.05268 5.64645 3.14645ZM9 14V13C9.65661 13 10.3068 12.8707 10.9134 12.6194C11.52 12.3681 12.0712 11.9998 12.5355 11.5355C12.9998 11.0712 13.3681 10.52 13.6194 9.91342C13.8707 9.30679 14 8.65661 14 8H15C15 9.5913 14.3679 11.1174 13.2426 12.2426C12.1174 13.3679 10.5913 14 9 14ZM9 11.5V10.5C9.3283 10.5 9.65339 10.4353 9.95671 10.3097C10.26 10.1841 10.5356 9.99991 10.7678 9.76777C10.9999 9.53562 11.1841 9.26002 11.3097 8.95671C11.4353 8.65339 11.5 8.3283 11.5 8H12.5C12.5 8.92826 12.1313 9.8185 11.4749 10.4749C10.8185 11.1313 9.92826 11.5 9 11.5Z" fill="black"/>
</svg>
