<svg width="16" height="16" viewBox="0 0 16 16" fill="none" xmlns="http://www.w3.org/2000/svg">
<path fill-rule="evenodd" clip-rule="evenodd" d="M10.5485 4.41812C9.83115 3.82585 8.93026 3.5013 8 3.5C7.06969 3.50137 6.16876 3.82593 5.45131 4.41818C4.73387 5.01042 4.2445 5.83355 4.0669 6.74675L3.93735 7.41975L3.26295 7.54175C2.58696 7.66362 1.98101 8.03399 1.56427 8.58001C1.14752 9.12603 0.950119 9.80821 1.01088 10.4924C1.07165 11.1766 1.38618 11.8133 1.89263 12.2774C2.39908 12.7414 3.06081 12.9992 3.7477 13H12.2538C12.9405 12.9986 13.6019 12.7405 14.1079 12.2763C14.614 11.8121 14.9281 11.1754 14.9886 10.4913C15.0491 9.8073 14.8515 9.12537 14.4348 8.57958C14.018 8.03378 13.4122 7.66359 12.7364 7.54175L12.062 7.41975L11.9324 6.74675C11.7551 5.83356 11.2659 5.01039 10.5485 4.41812ZM4.81446 3.64703C5.71077 2.90705 6.83639 2.50158 7.99866 2.5C9.16076 2.50095 10.2865 2.90574 11.1831 3.64517C12.0809 4.38557 12.693 5.41532 12.9144 6.55775C13.836 6.72408 14.662 7.2291 15.2301 7.97353C15.7982 8.71796 16.0672 9.64796 15.9844 10.5807C15.9016 11.5135 15.4729 12.3815 14.7826 13.0143C14.0923 13.647 13.1902 13.9986 12.2538 14H3.74555C2.80913 13.9986 1.90711 13.6469 1.21679 13.0142C0.526467 12.3815 0.0977813 11.5134 0.0149931 10.5807C-0.0677952 9.64792 0.201302 8.71793 0.76939 7.97351C1.33748 7.22909 2.16347 6.72408 3.085 6.55775C3.30641 5.41628 3.9178 4.3873 4.81446 3.64703ZM7.99866 2.5C7.99911 2.5 7.99955 2.5 8 2.5H7.99502C7.99623 2.5 7.99745 2.5 7.99866 2.5ZM11 9V8H5V9H11ZM9 10H5V11H9V10Z" fill="black"/>
</svg>
