<svg width="16" height="16" viewBox="0 0 16 16" fill="none" xmlns="http://www.w3.org/2000/svg">
<path fill-rule="evenodd" clip-rule="evenodd" d="M13.5 5.5V3H8.5V5.5H13.5ZM8.5 2H13.5C13.7652 2 14.0196 2.10536 14.2071 2.29289C14.3946 2.48043 14.5 2.73478 14.5 3V5.5C14.5 5.76522 14.3946 6.01957 14.2071 6.20711C14.0196 6.39464 13.7652 6.5 13.5 6.5H8.5C8.23478 6.5 7.98043 6.39464 7.79289 6.20711C7.60536 6.01957 7.5 5.76522 7.5 5.5V3C7.5 2.73478 7.60536 2.48043 7.79289 2.29289C7.98043 2.10536 8.23478 2 8.5 2ZM3 12.5H6V13.5H3C2.73478 13.5 2.48043 13.3946 2.29289 13.2071C2.10536 13.0196 2 12.7652 2 12.5V8.5C2 8.23478 2.10536 7.98043 2.29289 7.79289C2.48043 7.60536 2.73478 7.5 3 7.5H6V8.5H3V12.5ZM15 10H8.414L9.707 8.707L9 8L6.5 10.5L9 13L9.707 12.293L8.414 11H15V10ZM5.5 5.5V3H3V5.5H5.5ZM3 2H5.5C5.76522 2 6.01957 2.10536 6.20711 2.29289C6.39464 2.48043 6.5 2.73478 6.5 3V5.5C6.5 5.76522 6.39464 6.01957 6.20711 6.20711C6.01957 6.39464 5.76522 6.5 5.5 6.5H3C2.73478 6.5 2.48043 6.39464 2.29289 6.20711C2.10536 6.01957 2 5.76522 2 5.5V3C2 2.73478 2.10536 2.48043 2.29289 2.29289C2.48043 2.10536 2.73478 2 3 2Z" fill="black"/>
</svg>
