<svg width="16" height="16" viewBox="0 0 16 16" fill="none" xmlns="http://www.w3.org/2000/svg">
<path fill-rule="evenodd" clip-rule="evenodd" d="M13.5 5.5V3H8.5V5.5H13.5ZM8.5 2H13.5C13.7652 2 14.0196 2.10536 14.2071 2.29289C14.3946 2.48043 14.5 2.73478 14.5 3V5.5C14.5 5.76522 14.3946 6.01957 14.2071 6.20711C14.0196 6.39464 13.7652 6.5 13.5 6.5H8.5C8.23478 6.5 7.98043 6.39464 7.79289 6.20711C7.60536 6.01957 7.5 5.76522 7.5 5.5V3C7.5 2.73478 7.60536 2.48043 7.79289 2.29289C7.98043 2.10536 8.23478 2 8.5 2ZM8 12.5V8.5H3V12.5H8ZM3 7.5H8C8.26522 7.5 8.51957 7.60536 8.70711 7.79289C8.89464 7.98043 9 8.23478 9 8.5V12.5C9 12.7652 8.89464 13.0196 8.70711 13.2071C8.51957 13.3946 8.26522 13.5 8 13.5H3C2.73478 13.5 2.48043 13.3946 2.29289 13.2071C2.10536 13.0196 2 12.7652 2 12.5V8.5C2 8.23478 2.10536 7.98043 2.29289 7.79289C2.48043 7.60536 2.73478 7.5 3 7.5ZM13.5 8.5V11H11V8.5H13.5ZM13.5 7.5H11C10.7348 7.5 10.4804 7.60536 10.2929 7.79289C10.1054 7.98043 10 8.23478 10 8.5V11C10 11.2652 10.1054 11.5196 10.2929 11.7071C10.4804 11.8946 10.7348 12 11 12H13.5C13.7652 12 14.0196 11.8946 14.2071 11.7071C14.3946 11.5196 14.5 11.2652 14.5 11V8.5C14.5 8.23478 14.3946 7.98043 14.2071 7.79289C14.0196 7.60536 13.7652 7.5 13.5 7.5ZM5.5 5.5V3H3V5.5H5.5ZM3 2H5.5C5.76522 2 6.01957 2.10536 6.20711 2.29289C6.39464 2.48043 6.5 2.73478 6.5 3V5.5C6.5 5.76522 6.39464 6.01957 6.20711 6.20711C6.01957 6.39464 5.76522 6.5 5.5 6.5H3C2.73478 6.5 2.48043 6.39464 2.29289 6.20711C2.10536 6.01957 2 5.76522 2 5.5V3C2 2.73478 2.10536 2.48043 2.29289 2.29289C2.48043 2.10536 2.73478 2 3 2Z" fill="black"/>
</svg>
