<svg width="16" height="16" viewBox="0 0 16 16" fill="none" xmlns="http://www.w3.org/2000/svg">
<path d="M12.1455 8.00004L13.938 4.74099C13.9799 4.66486 14.0012 4.57914 13.9998 4.49228C13.9985 4.40541 13.9745 4.32039 13.9303 4.2456C13.8861 4.17081 13.8232 4.10884 13.7477 4.06578C13.6723 4.02271 13.5869 4.00006 13.5 4.00004H9.94556L8.43801 1.25909C8.39485 1.18069 8.33144 1.11532 8.25439 1.06979C8.17735 1.02426 8.0895 1.00024 8.00001 1.00024C7.91052 1.00024 7.82267 1.02426 7.74563 1.06979C7.66858 1.11532 7.60517 1.18069 7.56201 1.25909L6.05446 4.00004H2.50001C2.41313 4.00006 2.32776 4.02271 2.2523 4.06578C2.17684 4.10884 2.11391 4.17081 2.0697 4.2456C2.02549 4.32039 2.00153 4.40541 2.00018 4.49228C1.99883 4.57914 2.02014 4.66486 2.06201 4.74099L3.85451 8.00004L2.06201 11.2591C2.02014 11.3352 1.99883 11.4209 2.00018 11.5078C2.00153 11.5947 2.02549 11.6797 2.0697 11.7545C2.11391 11.8293 2.17684 11.8912 2.2523 11.9343C2.32776 11.9774 2.41313 12 2.50001 12H6.05446L7.56201 14.741C7.60517 14.8194 7.66858 14.8848 7.74563 14.9303C7.82267 14.9758 7.91052 14.9998 8.00001 14.9998C8.0895 14.9998 8.17735 14.9758 8.25439 14.9303C8.33144 14.8848 8.39485 14.8194 8.43801 14.741L9.94556 12H13.5C13.5869 12 13.6723 11.9774 13.7477 11.9343C13.8232 11.8912 13.8861 11.8293 13.9303 11.7545C13.9745 11.6797 13.9985 11.5947 13.9998 11.5078C14.0012 11.4209 13.9799 11.3352 13.938 11.2591L12.1455 8.00004ZM9.35436 11L8.00001 13.4624L6.64566 11H3.34566L4.99566 8.00004L3.34566 5.00004H6.64566L8.00001 2.53764L9.35436 5.00004H12.6544L11.0044 8.00004L12.6544 11H9.35436Z" fill="black"/>
</svg>
