<svg width="16" height="16" viewBox="0 0 16 16" fill="none" xmlns="http://www.w3.org/2000/svg">
<path fill-rule="evenodd" clip-rule="evenodd" d="M8 2.06763L2 5.29863V14.9998H1V4.99978C0.999986 4.90943 1.02445 4.82077 1.07079 4.74322C1.11714 4.66566 1.18363 4.60211 1.2632 4.55933L7.7632 1.05933C7.83605 1.02038 7.91739 1 8 1C8.08261 1 8.16395 1.02038 8.2368 1.05933L14.7368 4.55933L14.2632 5.44023L8 2.06763ZM10.75 8.5C10.4039 8.5 10.0655 8.39737 9.77775 8.20507C9.48997 8.01278 9.26567 7.73947 9.13321 7.4197C9.00076 7.09993 8.9661 6.74806 9.03363 6.40859C9.10115 6.06913 9.26782 5.75731 9.51256 5.51256C9.75731 5.26782 10.0691 5.10115 10.4086 5.03363C10.7481 4.9661 11.0999 5.00076 11.4197 5.13321C11.7395 5.26567 12.0128 5.48997 12.2051 5.77775C12.3974 6.06554 12.5 6.40388 12.5 6.75C12.4994 7.21396 12.3149 7.65876 11.9868 7.98682C11.6588 8.31489 11.214 8.49945 10.75 8.5ZM10.75 6C10.6017 6 10.4567 6.04399 10.3333 6.1264C10.21 6.20881 10.1139 6.32594 10.0571 6.46299C10.0003 6.60003 9.98547 6.75083 10.0144 6.89632C10.0434 7.0418 10.1148 7.17544 10.2197 7.28033C10.3246 7.38522 10.4582 7.45665 10.6037 7.48559C10.7492 7.51453 10.9 7.49968 11.037 7.44291C11.1741 7.38615 11.2912 7.29002 11.3736 7.16668C11.456 7.04334 11.5 6.89834 11.5 6.75C11.4998 6.55116 11.4207 6.36052 11.2801 6.21992C11.1395 6.07932 10.9488 6.00023 10.75 6ZM13.2929 8.50006L11 10.793L8.5 8.29301C8.31233 8.10569 8.05801 8.00049 7.79285 8.00049C7.52769 8.00049 7.27337 8.10569 7.0857 8.29301L4.7925 10.5855C4.60524 10.7733 4.50008 11.0276 4.50008 11.2928C4.50008 11.558 4.60524 11.8123 4.7925 12.0001L6.79295 14.0001H3V15.0001H8C8.09888 15 8.19552 14.9707 8.27773 14.9158C8.35993 14.8608 8.424 14.7827 8.46184 14.6914C8.49967 14.6 8.50958 14.4995 8.49029 14.4025C8.47101 14.3056 8.42341 14.2165 8.3535 14.1466L5.5 11.2926L7.7926 9.00006L10.6465 11.8536C10.6929 11.9 10.748 11.9368 10.8087 11.962C10.8693 11.9871 10.9343 12.0001 11 12.0001C11.0657 12.0001 11.1307 11.9871 11.1913 11.962C11.252 11.9368 11.3071 11.9 11.3535 11.8536L14 9.20711L13.2929 8.50006Z" fill="black"/>
</svg>
