<svg width="16" height="16" viewBox="0 0 16 16" fill="none" xmlns="http://www.w3.org/2000/svg">
<path fill-rule="evenodd" clip-rule="evenodd" d="M13.2293 8.9203C13.31 8.97235 13.404 9.00003 13.5 9C13.5765 9.00005 13.652 8.98253 13.7207 8.94879C13.7894 8.91506 13.8494 8.86601 13.8962 8.80542C13.9429 8.74484 13.9751 8.67433 13.9903 8.59934C14.0055 8.52434 14.0033 8.44686 13.9839 8.37285L13.3089 5.80695L14.845 4.345C14.913 4.28026 14.9614 4.19769 14.9847 4.10673C15.0079 4.01576 15.0051 3.92009 14.9765 3.83066C14.948 3.74122 14.8948 3.66164 14.8231 3.60103C14.7514 3.54041 14.664 3.50121 14.5711 3.4879L12.44 3.18125L11.4434 1.2689C11.3999 1.18753 11.3351 1.11951 11.2559 1.07214C11.1767 1.02477 11.0862 0.999837 10.9939 1C10.9015 1.00116 10.8111 1.02791 10.733 1.07728C10.6548 1.12665 10.5918 1.19672 10.5511 1.2797L9.61791 3.1813L7.43066 3.4877C7.33755 3.50074 7.25001 3.53977 7.17807 3.60031C7.10614 3.66084 7.05273 3.74043 7.02398 3.82994C6.99522 3.91945 6.99229 4.01526 7.01551 4.10636C7.03873 4.19746 7.08716 4.28018 7.15526 4.345L8.69136 5.8069L8.01636 8.3728C7.99071 8.47026 7.99512 8.5732 8.029 8.66811C8.06289 8.76303 8.12466 8.84549 8.20622 8.90468C8.28778 8.96388 8.38533 8.99704 8.48607 8.99983C8.58681 9.00262 8.68604 8.97489 8.77076 8.9203L11 7.4844L13.2293 8.9203ZM11.2708 6.46935C11.19 6.41731 11.096 6.38964 11 6.38965C10.9041 6.38969 10.8101 6.41736 10.7295 6.46935L9.31106 7.38295L9.73391 5.7755C9.75662 5.68897 9.75572 5.59792 9.73129 5.51186C9.70686 5.42579 9.6598 5.34785 9.59501 5.28615L8.59501 4.33435L10.0193 4.135C10.1002 4.12365 10.1771 4.09265 10.2433 4.04471C10.3095 3.99677 10.3629 3.93335 10.399 3.86L11.0135 2.60755L11.6719 3.87095C11.7085 3.94128 11.7614 4.00188 11.8261 4.04775C11.8908 4.09361 11.9655 4.12341 12.044 4.1347L13.409 4.33115L12.4053 5.28615C12.3405 5.34785 12.2934 5.42579 12.269 5.51186C12.2445 5.59792 12.2436 5.68897 12.2664 5.7755L12.6892 7.38295L11.2708 6.46935ZM3.68402 13.5587C4.89383 14.4934 6.37959 15.0003 7.90844 15C9.13674 14.9983 10.3424 14.6697 11.4018 14.048C12.4611 13.4263 13.3359 12.5338 13.9363 11.4623C13.9896 11.3672 14.0104 11.2573 13.9955 11.1493C13.9806 11.0412 13.9308 10.9411 13.8537 10.864C13.7765 10.7869 13.6763 10.7372 13.5683 10.7223C13.4603 10.7075 13.3504 10.7283 13.2553 10.7817C12.1328 11.4107 10.8355 11.6557 9.56081 11.4795C8.28617 11.3033 7.10398 10.7155 6.19412 9.80563C5.28426 8.89573 4.69654 7.71353 4.52038 6.43888C4.34422 5.16424 4.58927 3.86694 5.21824 2.74437C5.2715 2.64931 5.29224 2.53945 5.27732 2.43151C5.26239 2.32357 5.21261 2.22347 5.13556 2.14642C5.0585 2.06938 4.95839 2.01961 4.85045 2.0047C4.74251 1.98979 4.63265 2.01055 4.53759 2.06382C3.20299 2.80963 2.15355 3.97716 1.55376 5.38345C0.953961 6.78973 0.837708 8.35528 1.22322 9.83473C1.60873 11.3142 2.47421 12.6239 3.68402 13.5587ZM1.99606 8.14306C1.98448 6.59228 2.58344 5.09918 3.66354 3.98632C3.38084 5.13917 3.40013 6.34544 3.71955 7.48866C4.03898 8.63188 4.64775 9.67344 5.48709 10.5128C6.32643 11.3521 7.36799 11.9609 8.51121 12.2803C9.65443 12.5997 10.8607 12.619 12.0135 12.3363C10.9007 13.4164 9.40759 14.0154 7.8568 14.0038C6.30602 13.9922 4.82203 13.371 3.72543 12.2744C2.62882 11.1778 2.00764 9.69385 1.99606 8.14306Z" fill="black"/>
</svg>
