<svg width="16" height="16" viewBox="0 0 16 16" fill="none" xmlns="http://www.w3.org/2000/svg">
<path fill-rule="evenodd" clip-rule="evenodd" d="M4 4.5H5L3.6225 8L5 11.5H4L3 8.5L2 11.5H1L2.376 8L1 4.5H2L3 7.5L4 4.5ZM10 10.5H7V4.5H6V11.5H10V10.5ZM14 11.5H11V10.5H14V8.5H12C11.7349 8.49974 11.4807 8.39429 11.2932 8.20681C11.1057 8.01934 11.0003 7.76514 11 7.5V5.5C11.0003 5.23486 11.1057 4.98066 11.2932 4.79319C11.4807 4.60571 11.7349 4.50026 12 4.5H15V5.5H12V7.5H14C14.2651 7.50026 14.5193 7.60571 14.7068 7.79319C14.8943 7.98066 14.9997 8.23486 15 8.5V10.5C14.9997 10.7651 14.8942 11.0193 14.7068 11.2068C14.5193 11.3942 14.2651 11.4997 14 11.5Z" fill="black"/>
</svg>
