<svg width="16" height="16" viewBox="0 0 16 16" fill="none" xmlns="http://www.w3.org/2000/svg">
<path d="M12 5H14C14.5523 5 15 4.5523 15 4V2C15 1.4477 14.5523 1 14 1H12C11.4477 1 11 1.4477 11 2V2.5H9.5C8.9477 2.5 8.5 2.9477 8.5 3.5V7.5H7V2.5C7 1.9477 6.5523 1.5 6 1.5H2C1.4477 1.5 1 1.9477 1 2.5V13.5C1 14.0523 1.4477 14.5 2 14.5H6C6.5523 14.5 7 14.0523 7 13.5V8.5H8.5V12.5C8.5 13.0523 8.9477 13.5 9.5 13.5H11V14C11 14.5523 11.4477 15 12 15H14C14.5523 15 15 14.5523 15 14V12C15 11.4477 14.5523 11 14 11H12C11.4477 11 11 11.4477 11 12V12.5H9.5V8.5H11V9C11 9.5523 11.4477 10 12 10H14C14.5523 10 15 9.5523 15 9V7C15 6.4477 14.5523 6 14 6H12C11.4477 6 11 6.4477 11 7V7.5H9.5V3.5H11V4C11 4.5523 11.4477 5 12 5ZM12 2H14V4H12V2ZM5.6996 6L2 8.9597V3.0403L5.6996 6ZM6.00025 7.04005L6.0006 12.9602L2.3004 10L6.00025 7.04005ZM6.00015 4.95975L2.9254 2.5H6L6.00015 4.95975ZM2 11.0403L5.0746 13.5H2V11.0403ZM12 12H14V14H12V12ZM12 7H14V9H12V7Z" fill="black"/>
</svg>
