<svg width="16" height="16" viewBox="0 0 16 16" fill="none" xmlns="http://www.w3.org/2000/svg">
<path fill-rule="evenodd" clip-rule="evenodd" d="M2.5 1.5H6.5C7.0514 1.5 7.5 1.94875 7.5 2.5V13.5C7.5 14.0513 7.0514 14.5 6.5 14.5H2.5C1.9486 14.5 1.5 14.0513 1.5 13.5V2.5C1.5 1.94875 1.9486 1.5 2.5 1.5ZM3.4254 2.5L6.5001 4.9597L6.5 2.5H3.4254ZM2.49995 8.9597L6.19955 6L2.49995 3.0403V8.9597ZM6.50055 12.9602L6.5002 7.04005L2.80035 10L6.50055 12.9602ZM5.5746 13.5L2.5 11.0403V13.5H5.5746ZM9.5 1.5H13.5C14.0514 1.5 14.5 1.94875 14.5 2.5V13.5C14.5 14.0513 14.0514 14.5 13.5 14.5H9.5C8.9486 14.5 8.5 14.0513 8.5 13.5V2.5C8.5 1.94875 8.9486 1.5 9.5 1.5ZM10.4254 2.5L13.5001 4.9597L13.5 2.5H10.4254ZM9.49995 8.9597L13.1995 6L9.49995 3.0403V8.9597ZM13.5006 12.9602L13.5002 7.04005L9.80035 10L13.5006 12.9602ZM12.5745 13.5L9.49995 11.0403V13.5H12.5745Z" fill="black"/>
</svg>
