<svg width="16" height="16" viewBox="0 0 16 16" fill="none" xmlns="http://www.w3.org/2000/svg">
<g clip-path="url(#clip0_3_10233)">
<path fill-rule="evenodd" clip-rule="evenodd" d="M8 1.915L9.29 3.205L10 2.5L8 0.5L6 2.5L6.705 3.21L8 1.915ZM3.205 6.71L2.5 6L0.5 8L2.5 10L3.21 9.295L1.915 8L3.205 6.71ZM13.505 6L12.8 6.705L14.09 8L12.795 9.295L13.505 10L15.505 8L13.505 6ZM6.705 12.79L8 14.085L9.295 12.795L10 13.5L8 15.5L6 13.5L6.705 12.79ZM10.36 6.14536C10.7751 6.67435 11.0005 7.3275 11 7.99996C10.9993 8.62184 10.8054 9.22813 10.445 9.73496L12.355 11.645L11.645 12.355L9.735 10.445C9.18641 10.8339 8.52305 11.0272 7.85141 10.9939C7.17977 10.9606 6.5388 10.7026 6.03137 10.2613C5.52395 9.82002 5.17949 9.22105 5.0533 8.56054C4.92711 7.90002 5.02649 7.21626 5.3355 6.619C5.64452 6.02174 6.14523 5.54562 6.75729 5.26706C7.36935 4.98849 8.05724 4.92365 8.71057 5.08293C9.3639 5.2422 9.94477 5.61637 10.36 6.14536ZM6.88886 9.6629C7.21776 9.88266 7.60444 9.99996 8 9.99996C8.53044 9.99996 9.03914 9.78925 9.41422 9.41418C9.78929 9.0391 10 8.5304 10 7.99996C10 7.6044 9.8827 7.21772 9.66294 6.88882C9.44318 6.55992 9.13082 6.30358 8.76537 6.1522C8.39992 6.00083 7.99778 5.96122 7.60982 6.03839C7.22186 6.11556 6.86549 6.30604 6.58579 6.58575C6.30608 6.86545 6.1156 7.22182 6.03843 7.60978C5.96126 7.99774 6.00087 8.39988 6.15224 8.76533C6.30362 9.13078 6.55996 9.44314 6.88886 9.6629Z" fill="black"/>
</g>
<defs>
<clipPath id="clip0_3_10233">
<rect width="16" height="16" fill="white"/>
</clipPath>
</defs>
</svg>
