<svg width="16" height="16" viewBox="0 0 16 16" fill="none" xmlns="http://www.w3.org/2000/svg">
<path fill-rule="evenodd" clip-rule="evenodd" d="M12 4H13V2C12.9997 1.73487 12.8943 1.48068 12.7068 1.2932C12.5193 1.10572 12.2651 1.00028 12 1H10V2H12V4ZM13.1557 12.4489L15.5 14.7931L14.7929 15.5001L12.4487 13.1559C11.6423 13.7825 10.6274 14.0781 9.61065 13.9826C8.5939 13.8871 7.65178 13.4076 6.97613 12.6419C6.30047 11.8761 5.9421 10.8816 5.97397 9.86088C6.00585 8.84016 6.42558 7.86996 7.14769 7.14784C7.8698 6.42573 8.84 6.006 9.86073 5.97413C10.8815 5.94225 11.876 6.30063 12.6417 6.97628C13.4075 7.65193 13.8869 8.59405 13.9824 9.6108C14.0779 10.6275 13.7823 11.6425 13.1557 12.4489ZM8.33328 12.4946C8.82663 12.8242 9.40665 13.0001 9.99999 13.0001C10.7954 12.9993 11.5579 12.6829 12.1203 12.1205C12.6828 11.5581 12.9991 10.7955 13 10.0001C13 9.4068 12.824 8.82678 12.4944 8.33344C12.1648 7.84009 11.6962 7.45557 11.148 7.22851C10.5999 7.00145 9.99667 6.94204 9.41472 7.05779C8.83278 7.17355 8.29823 7.45927 7.87867 7.87883C7.45912 8.29838 7.17339 8.83293 7.05764 9.41488C6.94188 9.99682 7.00129 10.6 7.22836 11.1482C7.45542 11.6964 7.83994 12.1649 8.33328 12.4946ZM2 13H4V12H2V10H1V12C1.00028 12.2651 1.10572 12.5193 1.2932 12.7068C1.48068 12.8943 1.73487 12.9997 2 13ZM2 6H1V8H2V6ZM8 1H6V2H8V1ZM1 4H2V2H4V1H2C1.73487 1.00028 1.48068 1.10572 1.2932 1.2932C1.10572 1.48068 1.00028 1.73487 1 2V4Z" fill="black"/>
</svg>
