<svg width="16" height="16" viewBox="0 0 16 16" fill="none" xmlns="http://www.w3.org/2000/svg">
<path d="M11.2239 10.5C12.0489 9.52043 12.5009 8.28068 12.5 7C12.501 5.89816 12.1707 4.82148 11.552 3.90974C10.9333 2.998 10.0548 2.29331 9.03053 1.88715C8.00628 1.481 6.88358 1.39215 5.8082 1.63212C4.73281 1.8721 3.7544 2.42983 3 3.2329V1H2V5H6V4H3.666C4.34048 3.25457 5.24569 2.75716 6.23655 2.58747C7.2274 2.41778 8.24654 2.58564 9.13064 3.06415C10.0147 3.54265 10.7126 4.30411 11.1124 5.22647C11.5122 6.14884 11.5907 7.17872 11.3355 8.15106C11.0803 9.1234 10.506 9.9819 9.70472 10.589C8.90345 11.1961 7.92157 11.5166 6.91644 11.4992C5.91131 11.4818 4.94112 11.1274 4.16136 10.493C3.38159 9.85848 2.8374 8.9806 2.616 8H1.5956C1.83022 9.26262 2.49883 10.4035 3.48573 11.2253C4.47264 12.047 5.71576 12.4979 7 12.5C8.28068 12.5009 9.52042 12.0489 10.5 11.2239L14.2929 15L15 14.2929L11.2239 10.5Z" fill="black"/>
</svg>
