<svg width="16" height="16" viewBox="0 0 16 16" fill="none" xmlns="http://www.w3.org/2000/svg">
<path fill-rule="evenodd" clip-rule="evenodd" d="M1 4H2V2H4V1H2C1.73487 1.00028 1.48068 1.10572 1.2932 1.2932C1.10572 1.48068 1.00028 1.73487 1 2V4ZM15.5 14.7931L13.1557 12.4489C13.7823 11.6425 14.0779 10.6275 13.9824 9.6108C13.8869 8.59405 13.4075 7.65193 12.6417 6.97628C11.876 6.30063 10.8815 5.94225 9.86073 5.97413C8.84 6.006 7.8698 6.42573 7.14769 7.14784C6.42558 7.86996 6.00585 8.84016 5.97397 9.86088C5.9421 10.8816 6.30047 11.8761 6.97613 12.6419C7.65178 13.4076 8.5939 13.8871 9.61065 13.9826C10.6274 14.0781 11.6423 13.7825 12.4487 13.1559L14.7929 15.5001L15.5 14.7931ZM9.99999 13.0001C9.40665 13.0001 8.82663 12.8242 8.33328 12.4946C7.83994 12.1649 7.45542 11.6964 7.22836 11.1482C7.00129 10.6 6.94188 9.99682 7.05764 9.41488C7.17339 8.83293 7.45912 8.29838 7.87867 7.87883C8.29823 7.45927 8.83278 7.17355 9.41472 7.05779C9.99667 6.94204 10.5999 7.00145 11.148 7.22851C11.6962 7.45557 12.1648 7.84009 12.4944 8.33344C12.824 8.82678 13 9.4068 13 10.0001C12.9991 10.7955 12.6828 11.5581 12.1203 12.1205C11.5579 12.6829 10.7954 12.9993 9.99999 13.0001ZM12 9.5H10.5V8H9.5V9.5H8V10.5H9.5V12H10.5V10.5H12V9.5ZM13 4H12V2H10V1H12C12.2651 1.00028 12.5193 1.10572 12.7068 1.2932C12.8943 1.48068 12.9997 1.73487 13 2V4ZM6 1H8V2H6V1ZM4 13H2C1.73487 12.9997 1.48068 12.8943 1.2932 12.7068C1.10572 12.5193 1.00028 12.2651 1 12V10H2V12H4V13ZM1 6H2V8H1V6Z" fill="black"/>
</svg>
