<svg width="16" height="16" viewBox="0 0 16 16" fill="none" xmlns="http://www.w3.org/2000/svg">
<path d="M10 7H14C14.5514 7 15 6.55125 15 6V2C15 1.44875 14.5514 1 14 1H10C9.4486 1 9 1.44875 9 2V2.5H4.5C3.9486 2.5 3.5 2.94875 3.5 3.5V5H2C1.4486 5 1 5.44875 1 6V10C1 10.5513 1.4486 11 2 11H3.5V12.5C3.5 13.0513 3.9486 13.5 4.5 13.5H9V14C9 14.5513 9.4486 15 10 15H14C14.5514 15 15 14.5513 15 14V10C15 9.44875 14.5514 9 14 9H10C9.4486 9 9 9.44875 9 10V12.5H4.5V11H6C6.5514 11 7 10.5513 7 10V6C7 5.44875 6.5514 5 6 5H4.5V3.5H9V6C9 6.55125 9.4486 7 10 7ZM10.7071 14L14.0001 10.7071L14 14H10.7071ZM13.293 10L10 13.2929V10H13.293ZM5.2761 6L2 9.2761V6H5.2761ZM2.69015 10L6.0001 6.6902L6.0006 10H2.69015ZM10.7071 6L14.0001 2.70705L14 6H10.7071ZM13.293 2L10 5.29295V2H13.293Z" fill="black"/>
</svg>
