<svg width="16" height="16" viewBox="0 0 16 16" fill="none" xmlns="http://www.w3.org/2000/svg">
<path fill-rule="evenodd" clip-rule="evenodd" d="M5.97266 5L3.97266 11H5.02686L7.02686 5H5.97266ZM9 11H10.5C11.0514 11 11.5 10.5514 11.5 10V6C11.5 5.4486 11.0514 5 10.5 5H9C8.4486 5 8 5.4486 8 6V10C8 10.5514 8.4486 11 9 11ZM9 10V6H10.5V10H9ZM12.5 11H15C15.5514 11 16 10.5514 16 10V8.5C16 7.9486 15.5514 7.5 15 7.5H13.5V6H16V5H13.5C12.9486 5 12.5 5.4486 12.5 6V7.5C12.5 8.0514 12.9486 8.5 13.5 8.5H15V10H12.5V11ZM0 11H3V10H1.10095L3 7.15135V6H0V7H1.89905L0 9.84865V11Z" fill="black"/>
</svg>
