<svg width="24" height="24" viewBox="0 0 24 24" fill="none" xmlns="http://www.w3.org/2000/svg">
<g clip-path="url(#clip0_37_12895)">
<path d="M19.5001 11.9999C20.4301 11.9999 21.2801 12.2799 22.0001 12.7599V7.99995C22.0001 6.89995 21.1001 5.99995 20.0001 5.99995H13.7101L12.6501 4.93995L14.0601 3.52995L13.3501 2.81995L9.82007 6.34995L10.5301 7.05995L11.9401 5.64995L13.0001 6.70995V8.99995C13.0001 10.0999 12.1001 10.9999 11.0001 10.9999H10.4601C11.4101 12.0599 12.0001 13.4599 12.0001 14.9999C12.0001 15.3399 11.9601 15.6699 11.9101 15.9999H15.0501C15.3001 13.7499 17.1901 11.9999 19.5001 11.9999Z" fill="#323232"/>
<path d="M19.5 13C17.57 13 16 14.57 16 16.5C16 18.43 17.57 20 19.5 20C21.43 20 23 18.43 23 16.5C23 14.57 21.43 13 19.5 13ZM19.5 18C18.67 18 18 17.33 18 16.5C18 15.67 18.67 15 19.5 15C20.33 15 21 15.67 21 16.5C21 17.33 20.33 18 19.5 18Z" fill="#323232"/>
<path d="M4 9H9C9 7.9 8.1 7 7 7H4C3.45 7 3 7.45 3 8C3 8.55 3.45 9 4 9Z" fill="#323232"/>
<path d="M9.83 13.82L9.65 13.35L10.58 13C10.12 11.94 9.3 11.09 8.27 10.57L7.87 11.46L7.41 11.25L7.81 10.35C7.26 10.13 6.64 10 6 10C5.47 10 4.96 10.11 4.48 10.26L4.82 11.17L4.35 11.35L4 10.42C2.94 10.88 2.09 11.7 1.57 12.73L2.46 13.13L2.25 13.59L1.35 13.19C1.13 13.74 1 14.36 1 15C1 15.53 1.11 16.04 1.26 16.52L2.17 16.18L2.35 16.65L1.42 17C1.88 18.06 2.7 18.91 3.73 19.43L4.13 18.54L4.59 18.75L4.19 19.65C4.74 19.87 5.36 20 6 20C6.53 20 7.04 19.89 7.52 19.74L7.18 18.83L7.65 18.65L8 19.58C9.06 19.12 9.91 18.3 10.43 17.27L9.54 16.87L9.75 16.41L10.65 16.81C10.87 16.26 11 15.64 11 15C11 14.47 10.89 13.96 10.74 13.48L9.83 13.82ZM7.15 17.77C5.62 18.4 3.86 17.68 3.23 16.15C2.6 14.62 3.32 12.86 4.85 12.23C6.38 11.6 8.14 12.32 8.77 13.85C9.41 15.38 8.68 17.14 7.15 17.77Z" fill="#323232"/>
</g>
<defs>
<clipPath id="clip0_37_12895">
<rect width="24" height="24" fill="white"/>
</clipPath>
</defs>
</svg>
