<svg width="24" height="24" viewBox="0 0 24 24" fill="none" xmlns="http://www.w3.org/2000/svg">
<g clip-path="url(#clip0_37_12936)">
<path d="M17.34 1.12997C14.4 0.579967 11.71 1.87997 10.22 4.04997C10.23 4.03997 10.23 4.02997 10.24 4.01997C9.84 3.99997 9.42 3.99997 9 3.99997C4.58 3.99997 1 4.49997 1 7.99997V18C1 18.88 1.39 19.67 2 20.22V23H5V21H13V23H16V20.22C16.61 19.67 17 18.88 17 18V14.92C20.72 14.38 23.5 10.94 22.92 6.94997C22.5 4.04997 20.22 1.65997 17.34 1.12997ZM4.5 19C3.67 19 3 18.33 3 17.5C3 16.67 3.67 16 4.5 16C5.33 16 6 16.67 6 17.5C6 18.33 5.33 19 4.5 19ZM3 13V7.99997H9C9 9.95997 9.81 11.73 11.11 13H3ZM13.5 19C12.67 19 12 18.33 12 17.5C12 16.67 12.67 16 13.5 16C14.33 16 15 16.67 15 17.5C15 18.33 14.33 19 13.5 19ZM16 13C13.24 13 11 10.76 11 7.99997C11 5.23997 13.24 2.99997 16 2.99997C18.76 2.99997 21 5.23997 21 7.99997C21 10.76 18.76 13 16 13ZM16.5 3.99997H15V8.99997L18.62 11.16L19.37 9.92997L16.5 8.24997V3.99997Z" fill="#323232"/>
</g>
<defs>
<clipPath id="clip0_37_12936">
<rect width="24" height="24" fill="white"/>
</clipPath>
</defs>
</svg>
