<svg width="24" height="24" viewBox="0 0 24 24" fill="none" xmlns="http://www.w3.org/2000/svg">
<g clip-path="url(#clip0_37_12939)">
<path d="M21.79 17.06L16.24 11.51L17.81 9.93996L14.06 6.18996L12.49 7.75996L6.93996 2.20996L2.20996 6.93996L7.75996 12.49L2.99996 17.25V21H6.74996L11.51 16.24L17.06 21.79L21.79 17.06ZM9.17996 11.07L5.03996 6.93996L6.93996 5.03996L8.20996 6.30996L7.01996 7.49996L8.42996 8.90996L9.61996 7.71996L11.07 9.16996L9.17996 11.07ZM12.93 14.82L14.83 12.92L16.28 14.37L15.09 15.56L16.5 16.97L17.69 15.78L18.96 17.05L17.06 18.95L12.93 14.82Z" fill="#323232"/>
<path d="M17.6713 2.58444L15.1328 5.12292L18.8804 8.87055L21.4189 6.33207L17.6713 2.58444Z" fill="#323232"/>
</g>
<defs>
<clipPath id="clip0_37_12939">
<rect width="24" height="24" fill="white"/>
</clipPath>
</defs>
</svg>
