<svg width="24" height="24" viewBox="0 0 24 24" fill="none" xmlns="http://www.w3.org/2000/svg">
<g clip-path="url(#clip0_37_12568)">
<path d="M11 4.07005V2.05005C8.99005 2.25005 7.16005 3.05005 5.68005 4.26005L7.10005 5.69005C8.21005 4.83005 9.54005 4.25005 11 4.07005ZM18.32 4.26005C16.84 3.05005 15.01 2.25005 13 2.05005V4.07005C14.46 4.25005 15.79 4.83005 16.9 5.69005L18.32 4.26005ZM19.93 11H21.9501C21.75 8.99005 20.9501 7.16005 19.74 5.68005L18.31 7.10005C19.17 8.21005 19.75 9.54005 19.93 11ZM5.69005 7.10005L4.26005 5.68005C3.05005 7.16005 2.25005 8.99005 2.05005 11H4.07005C4.25005 9.54005 4.83005 8.21005 5.69005 7.10005ZM4.07005 13H2.05005C2.25005 15.01 3.05005 16.84 4.26005 18.32L5.69005 16.89C4.83005 15.79 4.25005 14.46 4.07005 13ZM15 12C15 10.34 13.66 9.00005 12 9.00005C10.34 9.00005 9.00005 10.34 9.00005 12C9.00005 13.66 10.34 15 12 15C13.66 15 15 13.66 15 12ZM18.31 16.9L19.74 18.33C20.9501 16.85 21.75 15.01 21.9501 13.01H19.93C19.75 14.46 19.17 15.79 18.31 16.9ZM13 19.93V21.9501C15.01 21.75 16.84 20.9501 18.32 19.74L16.89 18.31C15.79 19.17 14.46 19.75 13 19.93ZM5.68005 19.74C7.16005 20.9501 9.00005 21.75 11 21.9501V19.93C9.54005 19.75 8.21005 19.17 7.10005 18.31L5.68005 19.74Z" fill="#323232"/>
</g>
<defs>
<clipPath id="clip0_37_12568">
<rect width="24" height="24" fill="white"/>
</clipPath>
</defs>
</svg>
