<svg width="24" height="24" viewBox="0 0 24 24" fill="none" xmlns="http://www.w3.org/2000/svg">
<g clip-path="url(#clip0_37_13047)">
<path d="M16.3701 12.87H15.3801L12.8401 15.41V16.4L18.8501 22.41L22.3901 18.87L16.3701 12.87Z" fill="#323232"/>
<path d="M17.3401 10.19L18.7501 8.78L20.8701 10.9C22.0401 9.73 22.0401 7.83 20.8701 6.66L17.3301 3.12L15.9201 4.53V1.71L15.2201 1L11.6801 4.54L12.3901 5.25H15.2201L13.8101 6.66L14.8701 7.72L11.9801 10.61L7.85009 6.48V5.06L4.83009 2.04L2.00009 4.87L5.03009 7.9H6.44009L10.5701 12.03L9.72009 12.88H7.60009L1.59009 18.89L5.13009 22.43L11.1401 16.42V14.3L16.2901 9.15L17.3401 10.19Z" fill="#323232"/>
</g>
<defs>
<clipPath id="clip0_37_13047">
<rect width="24" height="24" fill="white"/>
</clipPath>
</defs>
</svg>
