<svg width="24" height="24" viewBox="0 0 24 24" fill="none" xmlns="http://www.w3.org/2000/svg">
<g clip-path="url(#clip0_37_13067)">
<path d="M8.56006 14H15.4501C15.7101 13.55 15.8901 13.04 15.9601 12.5H8.06006C8.12006 13.04 8.29006 13.55 8.56006 14Z" fill="#323232"/>
<path d="M11.9999 16C13.0099 16 13.9099 15.61 14.6199 15H9.37988C10.0899 15.61 10.9899 16 11.9999 16Z" fill="#323232"/>
<path d="M11.9999 8C10.9899 8 10.0899 8.39 9.37988 9H14.6199C13.9099 8.39 13.0099 8 11.9999 8Z" fill="#323232"/>
<path d="M8.56005 10C8.30005 10.45 8.12005 10.96 8.05005 11.5H15.95C15.88 10.96 15.71 10.45 15.44 10H8.56005Z" fill="#323232"/>
<path d="M3 3V21H21V3H3ZM12 18C8.69 18 6 15.31 6 12C6 8.69 8.69 6 12 6C15.31 6 18 8.69 18 12C18 15.31 15.31 18 12 18Z" fill="#323232"/>
</g>
<defs>
<clipPath id="clip0_37_13067">
<rect width="24" height="24" fill="white"/>
</clipPath>
</defs>
</svg>
