<svg width="24" height="24" viewBox="0 0 24 24" fill="none" xmlns="http://www.w3.org/2000/svg">
<g clip-path="url(#clip0_37_10268)">
<path d="M9.00002 22H15V20H9.00002V22ZM10.54 2.15003C7.79002 2.71003 5.60002 4.96003 5.11002 7.73003C4.60002 10.62 5.87002 13.25 8.00002 14.74V18H16V14.74C17.81 13.47 19 11.38 19 9.00003C19 4.66003 15.03 1.23003 10.54 2.15003ZM14.85 13.1L14 13.7V16H10V13.7L9.15002 13.1C7.80002 12.16 7.00002 10.63 7.00002 9.00003C7.00002 6.24003 9.24002 4.00003 12 4.00003C14.76 4.00003 17 6.24003 17 9.00003C17 10.63 16.2 12.16 14.85 13.1Z" fill="#323232"/>
</g>
<defs>
<clipPath id="clip0_37_10268">
<rect width="24" height="24" fill="white"/>
</clipPath>
</defs>
</svg>
