<svg width="24" height="24" viewBox="0 0 24 24" fill="none" xmlns="http://www.w3.org/2000/svg">
<g clip-path="url(#clip0_37_12683)">
<path d="M13.0001 6.99999H11.0001V11H7.00011V13H11.0001V17H13.0001V13H17.0001V11H13.0001V6.99999ZM12.7301 2.02999C6.65011 1.58999 1.59011 6.64999 2.03011 12.73C2.41011 18.01 7.03011 22 12.3201 22H22.0001V12.32C22.0001 7.01999 18.0201 2.40999 12.7301 2.02999ZM12.0001 20C7.59011 20 4.00011 16.41 4.00011 12C4.00011 7.58999 7.59011 3.99999 12.0001 3.99999C16.4101 3.99999 20.0001 7.58999 20.0001 12C20.0001 16.41 16.4101 20 12.0001 20Z" fill="#323232"/>
</g>
<defs>
<clipPath id="clip0_37_12683">
<rect width="24" height="24" fill="white"/>
</clipPath>
</defs>
</svg>
