<svg width="24" height="24" viewBox="0 0 24 24" fill="none" xmlns="http://www.w3.org/2000/svg">
<g clip-path="url(#clip0_37_13208)">
<path d="M14.0199 13.97L15.7199 11.03C15.7199 11.03 15.6299 10.95 15.4899 10.85L14.0199 9.69L14.0099 9.71C14.0399 9.47 14.0599 9.24 14.0599 9C14.0599 8.76 14.0399 8.53 13.9999 8.31L14.0099 8.32L15.7199 6.98L14.0199 4.03L12.0099 4.84V4.85C11.6399 4.57 11.2399 4.33 10.8099 4.15H10.8199L10.5199 2H7.1099L6.7999 4.15H6.8099C6.3799 4.33 5.9799 4.57 5.6099 4.85V4.84L3.5999 4.03L1.8999 6.98L3.5999 8.32L3.6099 8.31C3.5799 8.53 3.5599 8.76 3.5599 9C3.5599 9.24 3.5799 9.47 3.6099 9.71L3.5999 9.69L2.1299 10.85C1.9999 10.95 1.8999 11.03 1.8999 11.03L3.5999 13.97L5.6199 13.17L5.5999 13.14C5.9699 13.43 6.3699 13.67 6.8099 13.85H6.7999L7.1099 16H10.5099C10.5099 16 10.5299 15.87 10.5499 15.7L10.8199 13.85H10.8099C11.2499 13.67 11.6499 13.43 12.0199 13.14L11.9999 13.17L14.0199 13.97ZM8.8099 11C7.7099 11 6.8099 10.1 6.8099 9C6.8099 7.9 7.7099 7 8.8099 7C9.9099 7 10.8099 7.9 10.8099 9C10.8099 10.1 9.9099 11 8.8099 11Z" fill="#323232"/>
<path d="M20.98 17.94L20.97 17.95C20.99 17.8 21 17.65 21 17.5C21 17.35 20.99 17.2 20.96 17.06L20.97 17.07L22.07 16.21L20.98 14.31L19.69 14.83V14.84C19.45 14.66 19.2 14.51 18.92 14.39H18.93L18.73 13H16.54L16.34 14.38H16.35C16.07 14.5 15.82 14.65 15.58 14.83V14.82L14.29 14.3L13.2 16.2L14.29 17.06L14.3 17.05C14.28 17.19 14.27 17.34 14.27 17.49C14.27 17.64 14.28 17.79 14.3 17.95L14.29 17.94L13.35 18.69C13.27 18.75 13.2 18.81 13.2 18.81L14.29 20.7L15.59 20.19L15.58 20.17C15.82 20.36 16.08 20.51 16.36 20.63H16.35L16.55 22.01H18.74C18.74 22.01 18.75 21.93 18.77 21.82L18.94 20.63H18.93C19.21 20.51 19.47 20.36 19.71 20.17L19.7 20.19L21 20.7L22.09 18.81C22.09 18.81 22.03 18.76 21.94 18.69L20.98 17.94ZM17.63 18.79C16.92 18.79 16.34 18.21 16.34 17.5C16.34 16.79 16.92 16.21 17.63 16.21C18.34 16.21 18.92 16.79 18.92 17.5C18.92 18.21 18.34 18.79 17.63 18.79Z" fill="#323232"/>
</g>
<defs>
<clipPath id="clip0_37_13208">
<rect width="24" height="24" fill="white"/>
</clipPath>
</defs>
</svg>
