<svg width="24" height="24" viewBox="0 0 24 24" fill="none" xmlns="http://www.w3.org/2000/svg">
<g clip-path="url(#clip0_37_13913)">
<path d="M12.7499 9V9.92L14.4999 11.67V9H15.9999V13.17L18.9999 16.17V6H14.9999V2H8.99989V6H8.82989L11.8299 9H12.7499ZM10.4999 3.5H13.4999V6H10.4999V3.5ZM21.1899 21.19L2.80989 2.81L1.38989 4.22L4.99989 7.83V21H6.99989V22H8.99989V21H14.9999V22H16.9999V21H18.1699L19.7799 22.61L21.1899 21.19ZM7.99989 18V10.83L9.49989 12.33V18H7.99989ZM11.2499 18V14.08L12.7499 15.58V18H11.2499Z" fill="#323232"/>
</g>
<defs>
<clipPath id="clip0_37_13913">
<rect width="24" height="24" fill="white"/>
</clipPath>
</defs>
</svg>
