<svg width="24" height="24" viewBox="0 0 24 24" fill="none" xmlns="http://www.w3.org/2000/svg">
<g clip-path="url(#clip0_37_13253)">
<path d="M5.77989 2.95C7.23989 2.16 9.47989 2 11.9999 2C16.4199 2 19.9999 2.5 19.9999 6V16C19.9999 16.35 19.9199 16.67 19.8099 16.98L13.8299 11H17.9999V6H8.82989L5.77989 2.95ZM19.7799 22.61L18.1699 21H15.9999V19H7.99989V21H4.99989V18.22C4.38989 17.67 3.99989 16.88 3.99989 16V6.83L1.38989 4.22L2.79989 2.81L21.1799 21.19L19.7799 22.61ZM8.99989 15.5C8.99989 14.67 8.32989 14 7.49989 14C6.66989 14 5.99989 14.67 5.99989 15.5C5.99989 16.33 6.66989 17 7.49989 17C8.32989 17 8.99989 16.33 8.99989 15.5ZM8.16989 11L5.99989 8.83V11H8.16989Z" fill="#323232"/>
</g>
<defs>
<clipPath id="clip0_37_13253">
<rect width="24" height="24" fill="white"/>
</clipPath>
</defs>
</svg>
