<svg width="24" height="24" viewBox="0 0 24 24" fill="none" xmlns="http://www.w3.org/2000/svg">
<g clip-path="url(#clip0_37_13916)">
<path d="M17.0001 22C18.6601 22 20.0001 20.66 20.0001 19C20.0001 17.34 18.6601 16 17.0001 16C15.7001 16 14.6001 16.84 14.1801 18H9.14012L11.1301 14.94C11.4201 14.98 11.7101 15 12.0001 15C12.2901 15 12.5801 14.98 12.8701 14.94L13.8901 16.51C14.3101 15.98 14.8501 15.56 15.4901 15.3L14.8901 14.37C17.3101 13.27 19.0001 10.84 19.0001 8H5.00012C5.00012 10.84 6.69012 13.27 9.12012 14.37L4.62012 21.29L6.30012 22.38L7.84012 20H14.1801C14.6001 21.16 15.7001 22 17.0001 22ZM17.0001 18C17.5501 18 18.0001 18.45 18.0001 19C18.0001 19.55 17.5501 20 17.0001 20C16.4501 20 16.0001 19.55 16.0001 19C16.0001 18.45 16.4501 18 17.0001 18Z" fill="#323232"/>
<path d="M9.41001 7H10.41C10.56 5.85 10.64 5.36 9.52001 4.04C9.10001 3.54 8.84001 3.27 9.06001 2H8.07001C7.86001 3.11 8.10001 4.05 8.96001 4.96C9.18001 5.2 9.75001 5.63 9.41001 7Z" fill="#323232"/>
<path d="M11.8902 7H12.8902C13.0402 5.85 13.1202 5.36 12.0002 4.04C11.5802 3.54 11.3202 3.26 11.5402 2H10.5502C10.3402 3.11 10.5802 4.05 11.4402 4.96C11.6702 5.2 12.2402 5.63 11.8902 7Z" fill="#323232"/>
<path d="M14.41 7H15.41C15.56 5.85 15.64 5.36 14.52 4.04C14.1 3.54 13.84 3.27 14.06 2H13.07C12.86 3.11 13.1 4.05 13.96 4.96C14.18 5.2 14.75 5.63 14.41 7Z" fill="#323232"/>
</g>
<defs>
<clipPath id="clip0_37_13916">
<rect width="24" height="24" fill="white"/>
</clipPath>
</defs>
</svg>
