<svg width="24" height="24" viewBox="0 0 24 24" fill="none" xmlns="http://www.w3.org/2000/svg">
<g clip-path="url(#clip0_37_13637)">
<path d="M13.2099 17.37C10.3799 15.93 8.0599 13.62 6.6199 10.78L9.1499 8.25005L8.5399 3.00005H3.0299C2.4499 13.18 10.8199 21.55 20.9999 20.97V15.46L15.7299 14.85L13.2099 17.37ZM19.9999 4.00005V3.64005C19.9999 2.33005 19.0599 1.14005 17.7599 1.01005C16.2599 0.860048 14.9999 2.03005 14.9999 3.50005V4.00005H13.9999V10H20.9999V4.00005H19.9999ZM18.9999 4.00005H15.9999V3.50005C15.9999 2.67005 16.6699 2.00005 17.4999 2.00005C18.3299 2.00005 18.9999 2.67005 18.9999 3.50005V4.00005Z" fill="#323232"/>
</g>
<defs>
<clipPath id="clip0_37_13637">
<rect width="24" height="24" fill="white"/>
</clipPath>
</defs>
</svg>
