<svg width="24" height="24" viewBox="0 0 24 24" fill="none" xmlns="http://www.w3.org/2000/svg">
<g clip-path="url(#clip0_37_13625)">
<path d="M14.7099 9.5L16.9999 7.21V11H17.4999L20.3499 8.15L18.2099 6L20.3599 3.85L17.4999 1H16.9999V4.79L14.7099 2.5L13.9999 3.21L16.7899 6L13.9999 8.79L14.7099 9.5ZM17.9999 2.91L18.9399 3.85L17.9999 4.79V2.91ZM17.9999 7.21L18.9399 8.15L17.9999 9.09V7.21ZM20.9999 15.46L15.7299 14.85L13.2099 17.37C10.3799 15.93 8.0599 13.62 6.6199 10.78L9.1499 8.25L8.5399 3H3.0299C2.4499 13.18 10.8199 21.55 20.9999 20.97V15.46Z" fill="#323232"/>
</g>
<defs>
<clipPath id="clip0_37_13625">
<rect width="24" height="24" fill="white"/>
</clipPath>
</defs>
</svg>
