<svg width="24" height="24" viewBox="0 0 24 24" fill="none" xmlns="http://www.w3.org/2000/svg">
<g clip-path="url(#clip0_37_13640)">
<path d="M23.32 16.6699C20.37 13.8799 16.39 12.1599 12.01 12.1599C7.62001 12.1599 3.64001 13.8799 0.70001 16.6699L0.0100098 17.3599L3.65001 20.9999L7.58001 18.2799L7.57001 14.7899C8.97001 14.3399 10.47 14.0899 12.01 14.0899C13.56 14.0899 15.05 14.3299 16.45 14.7899L16.44 18.2799L20.37 20.9999L24.01 17.3599C24.01 17.3499 23.49 16.8399 23.32 16.6699ZM7.00001 6.42988L11.94 11.3699L19.01 4.29988L17.6 2.87988L11.94 8.53988L8.40001 4.99988H11V2.99988H5.00001V8.99988H7.00001V6.42988Z" fill="#323232"/>
</g>
<defs>
<clipPath id="clip0_37_13640">
<rect width="24" height="24" fill="white"/>
</clipPath>
</defs>
</svg>
