<svg width="24" height="24" viewBox="0 0 24 24" fill="none" xmlns="http://www.w3.org/2000/svg">
<g clip-path="url(#clip0_37_13980)">
<path d="M14 10V9.82004L16.01 11.83L21.24 9.39004L20.61 8.03004L16.33 10.03L14 7.70004V6.30004L16.33 3.97004L20.61 5.97004L21.24 4.61004L16.01 2.17004L14 4.18004V4.00004H12V6.00004H8.82C8.4 4.84004 7.3 4.00004 6 4.00004C4.34 4.00004 3 5.34004 3 7.00004C3 8.10004 3.6 9.05004 4.48 9.58004L7.08 18H4V21H17V18H13.38L8.41 8.76004C8.58 8.53004 8.72 8.28004 8.82 8.00004H12V10H14ZM6 8.00004C5.45 8.00004 5 7.55004 5 7.00004C5 6.45004 5.45 6.00004 6 6.00004C6.55 6.00004 7 6.45004 7 7.00004C7 7.55004 6.55 8.00004 6 8.00004Z" fill="#323232"/>
</g>
<defs>
<clipPath id="clip0_37_13980">
<rect width="24" height="24" fill="white"/>
</clipPath>
</defs>
</svg>
