<svg width="24" height="24" viewBox="0 0 24 24" fill="none" xmlns="http://www.w3.org/2000/svg">
<g clip-path="url(#clip0_37_11685)">
<path d="M11 6.99996H13V9.32996L20.2 16.53L21 15.73V8.26996L15.73 2.99996H8.27L7.47 3.79996L11 7.32996V6.99996ZM2.41 1.57996L1 2.98996L4.64 6.62996L3 8.26996V15.73L8.27 21H15.73L17.37 19.36L21.01 23L22.42 21.59L2.41 1.57996ZM11 12.99L11.01 13H11V12.99ZM12 17.3C11.28 17.3 10.7 16.72 10.7 16C10.7 15.28 11.28 14.7 12 14.7C12.72 14.7 13.3 15.28 13.3 16C13.3 16.72 12.72 17.3 12 17.3Z" fill="#323232"/>
</g>
<defs>
<clipPath id="clip0_37_11685">
<rect width="24" height="24" fill="white"/>
</clipPath>
</defs>
</svg>
