<svg width="24" height="24" viewBox="0 0 24 24" fill="none" xmlns="http://www.w3.org/2000/svg">
<g clip-path="url(#clip0_37_11843)">
<path d="M16.48 2.52C19.75 4.07 22.09 7.24 22.4501 11H23.9501C23.4401 4.84 18.29 0 12 0L11.34 0.03L15.15 3.84L16.48 2.52ZM7.52005 21.48C4.25005 19.94 1.91005 16.76 1.55005 13H0.0500488C0.560049 19.16 5.71005 24 12 24L12.66 23.97L8.85005 20.16L7.52005 21.48ZM9.17005 0.69L0.690049 9.17L14.83 23.31L23.31 14.83L9.17005 0.69ZM14.83 21.19L2.81005 9.17L9.17005 2.81L21.1901 14.83L14.83 21.19Z" fill="#323232"/>
</g>
<defs>
<clipPath id="clip0_37_11843">
<rect width="24" height="24" fill="white"/>
</clipPath>
</defs>
</svg>
