<svg width="24" height="24" viewBox="0 0 24 24" fill="none" xmlns="http://www.w3.org/2000/svg">
<g clip-path="url(#clip0_37_11131)">
<path d="M9.00003 11H12.63L9.00003 15.2V17H15V15H11.37L15 10.8V9H9.00003V11ZM16.056 3.346L17.338 1.811L21.945 5.661L20.665 7.201L16.056 3.346ZM3.33603 7.19L2.05603 5.654L6.66203 1.81L7.94203 3.346L3.33603 7.19ZM12 6C15.86 6 19 9.14 19 13C19 16.86 15.86 20 12 20C8.14003 20 5.00003 16.86 5.00003 13C5.00003 9.14 8.14003 6 12 6ZM12 4C7.03003 4 3.00003 8.03 3.00003 13C3.00003 17.97 7.03003 22 12 22C16.97 22 21 17.97 21 13C21 8.03 16.97 4 12 4Z" fill="#323232"/>
</g>
<defs>
<clipPath id="clip0_37_11131">
<rect width="24" height="24" fill="white"/>
</clipPath>
</defs>
</svg>
