<svg width="24" height="24" viewBox="0 0 24 24" fill="none" xmlns="http://www.w3.org/2000/svg">
<g clip-path="url(#clip0_37_11137)">
<path d="M20.39 8.56L19.15 10.42C19.7432 11.6031 20.0336 12.9148 19.9952 14.2377C19.9568 15.5606 19.5908 16.8533 18.93 18H5.06999C4.21115 16.5101 3.85528 14.7831 4.05513 13.0751C4.25497 11.367 4.9999 9.76883 6.17946 8.51743C7.35903 7.26603 8.91045 6.42804 10.6037 6.1277C12.297 5.82735 14.042 6.08064 15.58 6.85L17.44 5.61C15.4695 4.33292 13.1125 3.78997 10.7819 4.07628C8.45132 4.36259 6.2958 5.4599 4.69304 7.17594C3.09028 8.89199 2.14252 11.1173 2.0158 13.462C1.88909 15.8067 2.59151 18.1212 3.99999 20H20C21.2266 18.3613 21.9207 16.3856 21.9887 14.3397C22.0566 12.2939 21.4951 10.2765 20.38 8.56H20.39Z" fill="#323232"/>
<path d="M10.59 15.41C10.7757 15.596 10.9963 15.7435 11.2391 15.8441C11.4819 15.9448 11.7422 15.9966 12.005 15.9966C12.2678 15.9966 12.5281 15.9448 12.7709 15.8441C13.0137 15.7435 13.2342 15.596 13.42 15.41L19.08 6.92L10.59 12.58C10.404 12.7657 10.2565 12.9863 10.1559 13.2291C10.0552 13.4719 10.0034 13.7322 10.0034 13.995C10.0034 14.2578 10.0552 14.5181 10.1559 14.7609C10.2565 15.0037 10.404 15.2243 10.59 15.41Z" fill="#323232"/>
</g>
<defs>
<clipPath id="clip0_37_11137">
<rect width="24" height="24" fill="white"/>
</clipPath>
</defs>
</svg>
