<svg width="24" height="24" viewBox="0 0 24 24" fill="none" xmlns="http://www.w3.org/2000/svg">
<g clip-path="url(#clip0_37_14155)">
<path d="M11.9999 11.3899C11.9999 10.7399 11.6099 10.1599 11.0199 9.90993L5.43989 7.54993C3.95989 9.22993 3.11989 11.2499 2.63989 12.9999H10.3899C11.2799 12.9999 11.9999 12.2799 11.9999 11.3899Z" fill="#323232"/>
<path d="M21.96 11.22C21.55 6.80998 17.4 3.72998 12.98 4.01998C10.47 4.17998 8.54 4.95998 7.05 6.05998L11.79 8.06998C13.12 8.63998 13.99 9.93998 13.99 11.39C13.99 13.38 12.37 15 10.38 15H2.21C2 16.31 2 17.2 2 17.2V20H14C18.67 20 22.41 15.99 21.96 11.22Z" fill="#323232"/>
</g>
<defs>
<clipPath id="clip0_37_14155">
<rect width="24" height="24" fill="white"/>
</clipPath>
</defs>
</svg>
