<svg width="24" height="24" viewBox="0 0 24 24" fill="none" xmlns="http://www.w3.org/2000/svg">
<g clip-path="url(#clip0_37_14088)">
<path d="M15.0501 12.81L6.56009 4.31997C6.17009 3.92997 5.54009 3.92997 5.15009 4.31997L2.32009 7.14997C1.93009 7.53997 1.93009 8.16997 2.32009 8.55997L10.8101 17.05C11.2001 17.44 11.8301 17.44 12.2201 17.05L15.0501 14.22C15.4401 13.83 15.4401 13.2 15.0501 12.81Z" fill="#323232"/>
<path d="M15.7555 16.342L14.3413 17.7562L18.5839 21.9988L19.9981 20.5846L15.7555 16.342Z" fill="#323232"/>
<path d="M18.5 9C20.433 9 22 7.433 22 5.5C22 3.567 20.433 2 18.5 2C16.567 2 15 3.567 15 5.5C15 7.433 16.567 9 18.5 9Z" fill="#323232"/>
</g>
<defs>
<clipPath id="clip0_37_14088">
<rect width="24" height="24" fill="white"/>
</clipPath>
</defs>
</svg>
