<svg width="24" height="24" viewBox="0 0 24 24" fill="none" xmlns="http://www.w3.org/2000/svg">
<g clip-path="url(#clip0_37_14180)">
<path d="M6 4.01001C3.58 5.84001 2 8.73001 2 12C2 13.46 2.32 14.85 2.89 16.11L6 14.31V4.01001Z" fill="#323232"/>
<path d="M11 11.42V2.05005C9.94 2.16005 8.93 2.43005 8 2.84005V13.16L11 11.42Z" fill="#323232"/>
<path d="M11.9999 13.15L3.88989 17.83C4.49989 18.67 5.22989 19.42 6.06989 20.03L14.9999 14.89L11.9999 13.15Z" fill="#323232"/>
<path d="M13 7.96008V11.4201L21.11 16.1001C21.53 15.1701 21.81 14.1701 21.93 13.1201L13 7.96008Z" fill="#323232"/>
<path d="M8.07007 21.2C9.28007 21.71 10.6001 22 12.0001 22C15.3401 22 18.2901 20.35 20.1101 17.84L17.0001 16.04L8.07007 21.2Z" fill="#323232"/>
<path d="M21.92 10.81C21.37 6.18005 17.66 2.51005 13 2.05005V5.65005L21.92 10.81Z" fill="#323232"/>
</g>
<defs>
<clipPath id="clip0_37_14180">
<rect width="24" height="24" fill="white"/>
</clipPath>
</defs>
</svg>
